<svg xmlns="http://www.w3.org/2000/svg" width="73.555" height="68" viewBox="0 0 73.555 68">
  <g id="Grupo_1189860" data-name="Grupo 1189860" transform="translate(-563.872 -966.903)">
    <path id="Rectángulo_402628" data-name="Rectángulo 402628" d="M571.687,966.9h53.885a61.7,61.7,0,0,1-61.7,61.7h0V974.718A7.815,7.815,0,0,1,571.687,966.9Z" fill="#26c790"/>
    <g id="Grupo_1189862" data-name="Grupo 1189862">
      <circle id="Elipse_11743" data-name="Elipse 11743" cx="1" cy="1" r="1" transform="translate(617.427 1006.903)"/>
      <circle id="Elipse_11744" data-name="Elipse 11744" cx="1" cy="1" r="1" transform="translate(605.427 992.903)"/>
      <circle id="Elipse_11746" data-name="Elipse 11746" cx="1" cy="1" r="1" transform="translate(599.427 1012.903)"/>
      <circle id="Elipse_11747" data-name="Elipse 11747" cx="1" cy="1" r="1" transform="translate(585.427 1008.903)"/>
      <path id="Trazado_878121" data-name="Trazado 878121" d="M585.427,1014.9h2v4h-2Z"/>
      <path id="Trazado_878121-2" data-name="Trazado 878121" d="M612.6,990.9h-.175v2h.175a4.612,4.612,0,0,0,1.67-.322,9.044,9.044,0,0,0,7.684,4.322h15.471v-2H621.956a7.035,7.035,0,0,1-6-3.4l-.018-.03a4.6,4.6,0,0,0,1.146-2.07l.626-2.5h-2.283v-1.092a10.574,10.574,0,0,0-1.781-5.883,2.3,2.3,0,0,0-4.219,1.275,7.133,7.133,0,0,1-1.418,4.255c-.248.332-.479.692-.752,1-.462.528-.825.384-1.524.529a6.235,6.235,0,0,0-3.729,2.38,6.528,6.528,0,0,0-1.054,2.269c-.421,1.675-.318,3.582-1.823,4.737l-1.5,1.126a3.018,3.018,0,0,0-1.2,2.4v2a5,5,0,0,0,9,3l1.051-1.4a2.977,2.977,0,0,1,1.449-1.046l.416-.139a4.975,4.975,0,0,1,1.084,3.1,7.029,7.029,0,0,0,.9,3.42l-.9.447v1.375a11.173,11.173,0,0,0,3.293,7.95l.358.358,8.559-1.317a6.864,6.864,0,0,0,1.56-.437,8.425,8.425,0,0,1,.23,1.924v1.765H610.7a6.194,6.194,0,0,1-3.268-5.472v-.528a6,6,0,0,0-11.658-2,4.076,4.076,0,0,0-.67.056,5.263,5.263,0,0,1-.724-1.373l-.808-2.424a6.178,6.178,0,0,0-.566-1.2,3.89,3.89,0,0,0-2-6.914,5.35,5.35,0,0,0-1.523-.178,3.228,3.228,0,0,0-1.044.581c-.059.034-1.221-.476-1.415-.5a2.39,2.39,0,0,0-1.5.3l-1.7.817a3.164,3.164,0,0,0-1.388,2.839,3.958,3.958,0,0,0,.6,2.078,6.241,6.241,0,0,0-1.2,1.973,4.824,4.824,0,0,0-4.1,3.617l-.581,2.332h4.281v6h-6v14h62v-14h-12v-1.764a10.414,10.414,0,0,0-.443-2.991,6.8,6.8,0,0,0,2.443-5.245h-2a4.8,4.8,0,0,1-4.094,4.772l-7.542,1.16a9.181,9.181,0,0,1-2.364-6.175v-.139l2.536-1.268a3.009,3.009,0,0,0,1.618-2.19l.275-1.653a2.992,2.992,0,0,1,2.96-2.507h.611v1.4a4,4,0,0,0,1.781,3.328l2.219,1.472,2.219-1.479a4,4,0,0,0,1.781-3.321v-.662a3.154,3.154,0,0,1,1,1.43l.14.419a4.994,4.994,0,0,0,4.743,3.413h4.117v-2H633.31a3,3,0,0,1-2.846-2.051l-.14-.419a5.176,5.176,0,0,0-3.315-3.273,3.968,3.968,0,0,0-7.026-.257h-1.168a4.982,4.982,0,0,0-4.932,4.178l-.275,1.652a1,1,0,0,1-.54.73l-.951.476a5.06,5.06,0,0,1-.69-2.551,6.953,6.953,0,0,0-1.1-3.769,5.142,5.142,0,0,0,3.1-4.716h-2a3.157,3.157,0,0,1-2.163,3l-1.968.656a4.973,4.973,0,0,0-2.418,1.744l-1.051,1.4a3.018,3.018,0,0,1-2.4,1.2,2.952,2.952,0,0,1-1.285-.3l2.992-2.992-1.414-1.414-2.993,2.991a2.952,2.952,0,0,1-.3-1.285v-2a1,1,0,0,1,.4-.8l1.5-1.126a6.029,6.029,0,0,0,2.354-4.056l.189-1.514a4,4,0,0,1,3.971-3.5h1.086l1.682-2.242a9.035,9.035,0,0,0,.818-1.308l3,1.15v.42a4.586,4.586,0,0,0-3.9,2.536l1.789.9a2.606,2.606,0,0,1,2.347-1.456s1.483,0,1.483.017A2.613,2.613,0,0,1,612.6,990.9Zm-18.772,25.515a2,2,0,0,1,1.6-1.485v1.97h-1.719Zm-8.212-13.344a2,2,0,0,1,.809-.171,1.977,1.977,0,0,1,1.331.521l.669.6.669-.6a1.972,1.972,0,0,1,1.331-.521,2,2,0,0,1,1.29,3.526,6.173,6.173,0,0,0-7.119-.717A2,2,0,0,1,585.618,1003.074Zm-2.191,8.059a4.23,4.23,0,0,1,8.243-1.337l.808,2.424a7.31,7.31,0,0,0,.762,1.59,3.99,3.99,0,0,0-1.352,2.123l-.742,2.97h5.044l2,1a2.21,2.21,0,0,1,.982,1H583.427Zm-3.714,1.77a2.831,2.831,0,0,1,1.714-1.813v1.813Zm-.286,20h-2v-10h2Zm6,0h-4v-4h4Zm0-6h-4v-4h4Zm4,6h-2v-10h2Zm6,0h-4v-4h4Zm0-6h-4v-4h4Zm4,6h-2v-10h2Zm-.342-14.789-1.658-.829V1014.9a4,4,0,0,1,8,0v.528a8.18,8.18,0,0,0,2.093,5.472H601.3A4.208,4.208,0,0,0,599.085,1018.114Zm6.342,14.789h-4v-4h4Zm0-6h-4v-4h4Zm4,6h-2v-10h2Zm22-10h4v4h-4Zm0,6h4v4h-4Zm-4-6h2v10h-2Zm-12,10h-4v-4h4Zm0-6h-4v-4h4Zm4,6h-2v-10h2Zm6,0h-4v-4h4Zm0-10v4h-4v-4Zm-4-20a2,2,0,0,1,4,0v1.4a2,2,0,0,1-.891,1.664l-1.109.736-1.109-.74a2,2,0,0,1-.891-1.66Zm-10.3-19.42a9.094,9.094,0,0,0,.3-2.28.314.314,0,0,1,.555-.168,8.569,8.569,0,0,1,1.3,3.265Z"/>
    </g>
  </g>
</svg>
