<svg xmlns="http://www.w3.org/2000/svg" width="61.701" height="61.7" viewBox="0 0 61.701 61.7">
  <g id="Grupo_1189826" data-name="Grupo 1189826" transform="translate(-351.445 -6103)">
    <path id="Rectángulo_402628" data-name="Rectángulo 402628" d="M7.815,0H61.7a0,0,0,0,1,0,0V0A61.7,61.7,0,0,1,0,61.7H0a0,0,0,0,1,0,0V7.815A7.815,7.815,0,0,1,7.815,0Z" transform="translate(351.445 6103)" fill="#fdaa30"/>
    <g id="Grupo_1189825" data-name="Grupo 1189825" transform="translate(321.236 6105)">
      <path id="Trazado_878072" data-name="Trazado 878072" d="M82.477,17.041c6.1-10.569,2.722-14.624.164-16.1-8.254-5.056-16.774,11.493-19.174,21a15.97,15.97,0,0,0-4.831,0C56.2,12.378,47.766-4.082,39.462.939,30.876,5.606,41.218,21.5,48.272,28.252a15.747,15.747,0,0,0-2.81,6.639c-7.322,5.729-3.427,14.782,3.579,19.326a21.508,21.508,0,0,0,24.024,0c7-4.542,10.9-13.6,3.578-19.326a15.746,15.746,0,0,0-2.81-6.639,54.561,54.561,0,0,0,8.646-11.211ZM71.444,28.866a13.5,13.5,0,0,1,3.033,6.806,1.13,1.13,0,0,0,.451.755c3.846,2.817,3.739,6.2,2.972,8.548-1.679,5.134-8.6,10.676-16.848,10.676S45.883,50.109,44.2,44.975c-.767-2.345-.874-5.731,2.972-8.548a1.13,1.13,0,0,0,.451-.755,13.5,13.5,0,0,1,3.033-6.806,1.13,1.13,0,0,0-.1-1.555C46.365,23.577,33.387,7.565,40.592,2.9,48.056-1.1,55.619,18.144,56.7,23.5a1.13,1.13,0,0,0,1.349.844,13.712,13.712,0,0,1,6.009,0,1.13,1.13,0,0,0,1.349-.844C66.58,18,73.922-.989,81.511,2.9c7.2,4.666-5.753,20.66-9.968,24.414a1.13,1.13,0,0,0-.1,1.555Z" transform="translate(0 0)"/>
      <path id="Trazado_878073" data-name="Trazado 878073" d="M89.9,60.309a49.605,49.605,0,0,0-5.131-12.816c-1.769-3.071-4.783-7.231-7.177-6.756a2.308,2.308,0,0,0-.956.552c-.169.169-.683.683-.54,2.321.188,3.146,3.255,8.419,5.652,11.624a45.48,45.48,0,0,0,5.684,6.5c.107.1.242.222.4.36a1.13,1.13,0,0,0,1.352.108c.1-.063.2-.123.3-.183a1.13,1.13,0,0,0,.528-1.2C89.969,60.623,89.931,60.448,89.9,60.309ZM83.572,53.9c-2.127-2.846-5.041-7.755-5.225-10.487-.009-.1-.014-.2-.015-.288.075.045.157.1.242.157a17.264,17.264,0,0,1,4.237,5.342,49.638,49.638,0,0,1,4.127,9.408A48.165,48.165,0,0,1,83.572,53.9Z" transform="translate(-35.358 -36.101)"/>
      <path id="Trazado_878074" data-name="Trazado 878074" d="M323.653,50.726a19.043,19.043,0,0,0,2.8-7.273c.143-1.638-.371-2.152-.539-2.321a2.309,2.309,0,0,0-.956-.552c-.231-.062-.934-.249-2.28.693C318,44.791,314.023,54.3,312.652,60.151c-.032.14-.07.315-.11.515a1.13,1.13,0,0,0,.529,1.2q.151.09.3.183a1.13,1.13,0,0,0,1.352-.108c.156-.138.291-.261.4-.36a49.6,49.6,0,0,0,8.534-10.851Zm-8.041,7.148a49.651,49.651,0,0,1,4.127-9.408,17.264,17.264,0,0,1,4.237-5.341c.085-.06.167-.112.242-.157,0,.087-.006.185-.015.288-.186,2.737-3.1,7.637-5.225,10.487A48.233,48.233,0,0,1,315.613,57.874Z" transform="translate(-245.09 -35.945)"/>
      <path id="Trazado_878075" data-name="Trazado 878075" d="M202.857,305.463a1.13,1.13,0,0,0-1.13-1.13h0a1.13,1.13,0,1,0,1.131,1.13Z" transform="translate(-145.814 -269.948)"/>
      <path id="Trazado_878076" data-name="Trazado 878076" d="M292.685,304.333h0a1.13,1.13,0,1,0,1.131,1.13A1.13,1.13,0,0,0,292.684,304.333Z" transform="translate(-226.495 -269.948)"/>
      <path id="Trazado_878077" data-name="Trazado 878077" d="M220.685,338.645a1.464,1.464,0,0,1-2.094-.761v-1.146c4.113-1.385,3.687-6.35-1.13-6.592-4.818.242-5.241,5.208-1.13,6.592v1.146a1.464,1.464,0,0,1-2.094.761,1.13,1.13,0,0,0-1.13,1.957,3.737,3.737,0,0,0,4.354-.468,3.737,3.737,0,0,0,4.354.468,1.13,1.13,0,0,0-1.13-1.957Zm-4.919-5.342a2.048,2.048,0,0,1,3.39,0c0,.819-1.206,1.361-1.695,1.361S215.766,334.122,215.766,333.3Z" transform="translate(-156.409 -292.843)"/>
    </g>
  </g>
</svg>
