<svg xmlns="http://www.w3.org/2000/svg" width="66.08" height="61.7" viewBox="0 0 66.08 61.7">
  <g id="Grupo_1189657" data-name="Grupo 1189657" transform="translate(-458.629 -1005.787)">
    <path id="Rectángulo_402628" data-name="Rectángulo 402628" d="M7.815,0H61.7a0,0,0,0,1,0,0V0A61.7,61.7,0,0,1,0,61.7H0a0,0,0,0,1,0,0V7.815A7.815,7.815,0,0,1,7.815,0Z" transform="translate(458.629 1005.787)" fill="#fdaa30"/>
    <g id="Grupo_1189656" data-name="Grupo 1189656" transform="translate(467.392 1009.349)">
      <g id="Grupo_1189651" data-name="Grupo 1189651" transform="translate(20.134 34.949)">
        <g id="Grupo_1189650" data-name="Grupo 1189650">
          <path id="Trazado_877580" data-name="Trazado 877580" d="M312.4,312.533a1.123,1.123,0,0,1,1.585,0l.009.009a1.12,1.12,0,0,1-1.587,1.58l-.009-.009A1.116,1.116,0,0,1,312.4,312.533Z" transform="translate(-312.069 -312.206)"/>
        </g>
      </g>
      <g id="Grupo_1189653" data-name="Grupo 1189653" transform="translate(0 0)">
        <g id="Grupo_1189652" data-name="Grupo 1189652">
          <path id="Trazado_877581" data-name="Trazado 877581" d="M.993,12.62a3.4,3.4,0,0,1,3.928-.626l7.06-7.06A3.39,3.39,0,0,1,17.4,1.005a16.676,16.676,0,0,1,4.917,11.869v2.677h2.677A16.8,16.8,0,0,1,41.78,32.337v2.677h2.677A16.676,16.676,0,0,1,56.326,39.93a3.389,3.389,0,0,1-4.793,4.793,10.008,10.008,0,0,0-2.9-2.021L42.69,48.647a9.945,9.945,0,0,0,1.238,2.015l1.724-1.724a1.12,1.12,0,0,1,1.583,1.583L45.34,52.416a3.389,3.389,0,0,1-5.422,3.922A16.676,16.676,0,0,1,35,44.469V41.792H32.324A16.787,16.787,0,0,1,24.4,39.8a1.12,1.12,0,0,1,1.061-1.972,14.54,14.54,0,0,0,6.868,1.726H35v-2.3H32.324A12.258,12.258,0,0,1,20.078,25.007V12.874A14.452,14.452,0,0,0,15.817,2.589a1.15,1.15,0,1,0-1.627,1.626,12.166,12.166,0,0,1,3.587,8.659V25.007a14.529,14.529,0,0,0,1.817,7.034,1.119,1.119,0,1,1-1.958,1.086,16.774,16.774,0,0,1-2.1-8.121V22.33H12.862A16.676,16.676,0,0,1,.993,17.413a3.389,3.389,0,0,1,0-4.793ZM53.116,43.14a1.15,1.15,0,1,0,1.627-1.626,14.451,14.451,0,0,0-10.286-4.261H41.78v2.3h2.677A12.167,12.167,0,0,1,53.116,43.14Zm-6.895-1.191a10.121,10.121,0,0,0-1.765-.157H41.78v2.677a10.121,10.121,0,0,0,.157,1.765Zm-13.9-6.935H35V32.337a10.071,10.071,0,0,0-.189-1.946l-4.434,4.433A10.072,10.072,0,0,0,32.324,35.014ZM28,34.034l6.018-6.018a9.971,9.971,0,0,0-1.265-1.988l-6.741,6.741A9.982,9.982,0,0,0,28,34.034Zm-3.555-2.864,6.709-6.709a9.959,9.959,0,0,0-2.02-1.233l-5.922,5.922A9.943,9.943,0,0,0,24.448,31.169Zm-2.131-6.163a10.065,10.065,0,0,0,.151,1.724l4.25-4.25a10.076,10.076,0,0,0-1.723-.151H22.317v2.677Zm0-4.916h2.677A12.258,12.258,0,0,1,37.24,32.337V44.469h0A14.451,14.451,0,0,0,41.5,54.755a1.15,1.15,0,1,0,1.626-1.626,12.165,12.165,0,0,1-3.587-8.659V32.337A14.563,14.563,0,0,0,24.994,17.79H22.317v2.3Zm-8.922-13.4-6.721,6.72a9.94,9.94,0,0,0,2.016,1.237L14.632,8.7A9.941,9.941,0,0,0,13.395,6.687Zm2.144,6.188a10.125,10.125,0,0,0-.156-1.756L11.105,15.4a10.116,10.116,0,0,0,1.756.156h2.677V12.874ZM2.576,15.83a14.451,14.451,0,0,0,10.286,4.261h2.677v-2.3H12.861A12.165,12.165,0,0,1,4.2,14.2,1.15,1.15,0,0,0,2.576,15.83Z" transform="translate(0 -0.015)"/>
        </g>
      </g>
      <g id="Grupo_1189655" data-name="Grupo 1189655" transform="translate(48.136 45.783)">
        <g id="Grupo_1189654" data-name="Grupo 1189654" transform="translate(0)">
          <path id="Trazado_877582" data-name="Trazado 877582" d="M62.348,409.306a1.119,1.119,0,1,1-.328.791A1.128,1.128,0,0,1,62.348,409.306Z" transform="translate(-62.02 -408.978)"/>
        </g>
      </g>
    </g>
  </g>
</svg>
