<svg xmlns="http://www.w3.org/2000/svg" width="61.701" height="65.213" viewBox="0 0 61.701 65.213">
  <g id="Grupo_1189659" data-name="Grupo 1189659" transform="translate(-1059.674 -1005.787)">
    <path id="Rectángulo_402628" data-name="Rectángulo 402628" d="M7.815,0H61.7a0,0,0,0,1,0,0V0A61.7,61.7,0,0,1,0,61.7H0a0,0,0,0,1,0,0V7.815A7.815,7.815,0,0,1,7.815,0Z" transform="translate(1059.674 1005.787)" fill="#fdaa30"/>
    <g id="Grupo_1189658" data-name="Grupo 1189658" transform="translate(1046.578 1013.663)">
      <path id="Trazado_877583" data-name="Trazado 877583" d="M314.787,233.746l-2.766,2.766-1.086-1.086a.84.84,0,0,0-1.188,1.188l1.68,1.68a.84.84,0,0,0,1.188,0l3.36-3.36a.84.84,0,1,0-1.188-1.188Z" transform="translate(-254.861 -207.351)"/>
      <path id="Trazado_877584" data-name="Trazado 877584" d="M311.426,178.294a.84.84,0,0,0,1.188,0l3.36-3.36a.84.84,0,0,0-1.188-1.188l-2.766,2.766-1.086-1.086a.84.84,0,0,0-1.188,1.188Z" transform="translate(-254.86 -154.071)"/>
      <path id="Trazado_877585" data-name="Trazado 877585" d="M311.426,298.294a.84.84,0,0,0,1.188,0l3.36-3.36a.84.84,0,0,0-1.188-1.188l-2.766,2.766-1.086-1.086a.84.84,0,0,0-1.188,1.188Z" transform="translate(-254.86 -260.632)"/>
      <path id="Trazado_877586" data-name="Trazado 877586" d="M189.34,250.18h10.191a.84.84,0,0,0,0-1.68H189.34a.84.84,0,0,0,0,1.68Z" transform="translate(-147.41 -220.671)"/>
      <path id="Trazado_877587" data-name="Trazado 877587" d="M189.341,190.181h10.191a.84.84,0,1,0,0-1.68H189.341a.84.84,0,0,0,0,1.68Z" transform="translate(-147.411 -167.392)"/>
      <path id="Trazado_877588" data-name="Trazado 877588" d="M199.532,308.5H189.341a.84.84,0,0,0,0,1.68h10.191a.84.84,0,1,0,0-1.68Z" transform="translate(-147.411 -273.952)"/>
      <path id="Trazado_877589" data-name="Trazado 877589" d="M70.6,1.68H56.121a5.87,5.87,0,0,0-8.222,0H33.419a4.2,4.2,0,0,0-4.2,4.2v35.5a.84.84,0,1,0,1.68,0V5.879a2.523,2.523,0,0,1,2.52-2.52H46.7a5.831,5.831,0,0,0-.508,1.68H33.419a.84.84,0,0,0-.84.84V43.9H23.34a.84.84,0,0,0-.84.84,5.886,5.886,0,0,0,5.879,5.879h.84v2.52a4.2,4.2,0,0,0,4.2,4.2H70.6a4.2,4.2,0,0,0,4.2-4.2V5.879A4.2,4.2,0,0,0,70.6,1.68Zm-23.629,8.4a.84.84,0,0,0,.84-.84V5.879a4.2,4.2,0,0,1,8.4,0v3.36a.84.84,0,0,0,.84.84h1.68a2.524,2.524,0,0,1,2.376,1.68H42.914a2.524,2.524,0,0,1,2.376-1.68Zm-.84-3.36V8.4h-.84a4.2,4.2,0,0,0-4.2,4.2.84.84,0,0,0,.84.84H62.087a.84.84,0,0,0,.84-.84,4.2,4.2,0,0,0-4.2-4.2h-.84V6.719H69.758V44.738a4.2,4.2,0,0,1-8.4,0,.84.84,0,0,0-.84-.84H34.259V6.719ZM28.379,48.938a4.207,4.207,0,0,1-4.115-3.36H59.739a5.858,5.858,0,0,0,1.709,3.36Zm44.738,4.2a2.522,2.522,0,0,1-2.52,2.52H33.419a2.519,2.519,0,0,1-2.52-2.52v-2.52h34.66a5.879,5.879,0,0,0,5.879-5.879V5.879a.84.84,0,0,0-.84-.84H57.828a5.819,5.819,0,0,0-.5-1.68H70.6a2.522,2.522,0,0,1,2.52,2.52Z"/>
      <path id="Trazado_877590" data-name="Trazado 877590" d="M266.02,35.039a2.523,2.523,0,1,0-1.781-.739A2.523,2.523,0,0,0,266.02,35.039Zm-.594-3.114a.84.84,0,1,1-.246.594A.834.834,0,0,1,265.426,31.926Z" transform="translate(-214.011 -26.64)"/>
    </g>
  </g>
</svg>
