<svg xmlns="http://www.w3.org/2000/svg" width="72.204" height="67.066" viewBox="0 0 72.204 67.066">
  <g id="Grupo_1189834" data-name="Grupo 1189834" transform="translate(-458.63 -3229.479)">
    <path id="Rectángulo_402628" data-name="Rectángulo 402628" d="M7.815,0H61.7a0,0,0,0,1,0,0V0A61.7,61.7,0,0,1,0,61.7H0a0,0,0,0,1,0,0V7.815A7.815,7.815,0,0,1,7.815,0Z" transform="translate(458.63 3229.479)" fill="#fdaa30"/>
    <g id="Grupo_1189833" data-name="Grupo 1189833" transform="translate(470.629 3236.356)">
      <path id="Trazado_878097" data-name="Trazado 878097" d="M121.651,120.161h-1.77v1.77h1.77Z" transform="translate(-75.591 -105.991)"/>
      <path id="Trazado_878098" data-name="Trazado 878098" d="M76.571,120.161H74.8v1.77h1.77Z" transform="translate(-25.192 -105.991)"/>
      <path id="Trazado_878099" data-name="Trazado 878099" d="M93.387,166.957H92.5v1.767H90.73v-1.767h-.855v-1.77h3.512Z" transform="translate(-43.787 -145.704)"/>
      <path id="Trazado_878100" data-name="Trazado 878100" d="M219.145,405.2h-1.77v1.771h1.77Z" transform="translate(-184.589 -357.4)"/>
      <path id="Trazado_878101" data-name="Trazado 878101" d="M5.5,31.884C-1.226,30.6.163,24.652.044,19.552H1.605a9.85,9.85,0,0,1,6.5,2.428,8.869,8.869,0,0,1,6.1-2.429H36.8l3.175-3.771a6.374,6.374,0,0,1-4.531-6.85h5.312V6.284a.9.9,0,1,0-1.778,0v.878h-1.77V4.5a4.447,4.447,0,0,1,7.555-3.13,4.4,4.4,0,0,1,1.3,3.13V8.929h3.521V4.5a4.389,4.389,0,0,1,1.35-3.182l1.23,1.273a3.312,3.312,0,0,0-.81,2.792h1.924a2.671,2.671,0,0,1,3.278-1.64,2.674,2.674,0,0,0-3.195-1.818L52.925.207A4.446,4.446,0,0,1,58.431,4.5V7.162h-1.77V6.284a.9.9,0,1,0-1.778,0V8.929h5.29a6.346,6.346,0,0,1-5.288,7.012,5.633,5.633,0,0,1-.585,2.35l-3.815,7.65v.732a1.743,1.743,0,0,0,1.741,1.741v1.77c-1.237-.083-4.224.293-5.281-.464a11.565,11.565,0,0,1-2,7.122l3.765,9.079v2.495l-9.791,4.857-.937,6.985h-5.2V51.406h1.77v3.548h2.354L39,39.351a9.556,9.556,0,0,0,6.172-8.915c0-.506,0-4.077,0-4.495-.217-.505-4.259-8.333-4.191-8.614l-3.362,3.994H14.2a7.1,7.1,0,0,0-6.49,4.225l-1.618-.717a8.862,8.862,0,0,1,.856-1.51,8.09,8.09,0,0,0-5.136-1.995c.094,3.48-.89,7.6,3.525,8.741a18.263,18.263,0,0,1,.152-3.294L7.23,27.1c-.459,3.762-.085,7.091,3.394,9.255l.01,2.958-5.3,7.081v3.081l2.108,5.482H9.081L7.1,49.8V47.956c8.213-1.581,12.574-5.71,14.194-14.233l1.73.376a31.082,31.082,0,0,1-1.429,4.929H32.708c-.241-1.921-1.9-3.225-3.192-4.481l1.231-1.272c2.924,1.988,3.809,4.636,3.809,5.753v7.066h-1.77V40.8H24.6a16.031,16.031,0,0,1-5.192,7.618l2.759,8.038v3.8h-5.31V56.748L13.708,47.71a22.674,22.674,0,0,1-4.842,1.613l2.682,7.11v3.824H6.237V56.762L3.561,49.8v-4l5.3-7.078V37.279A8.859,8.859,0,0,1,5.5,31.884Zm49.39-17.742A4.436,4.436,0,0,0,58.314,10.7H54a5.019,5.019,0,0,1,.887,3.444ZM34.556,56.724v1.763h1.881l.236-1.763Zm5.225-9.855,1.506-1.09-1.146-1.592Zm.846-6.307-.144,1.07,3.271,4.545-4.3,3.112-.25,1.866,7.737-3.838V46.272L43.67,38.38a11.25,11.25,0,0,1-3.043,2.183ZM53.113,7.152H51.349V8.929h1.764ZM48.687,28.413h.492a3.5,3.5,0,0,1-.463-1.8h-1.77a1.746,1.746,0,0,0,1.741,1.8Zm-6.15-12.625a3.855,3.855,0,0,0,.4,1.713l3.667,7.346h2.445L52.716,17.5a3.854,3.854,0,0,0,.4-1.711V13.354A2.658,2.658,0,0,0,50.464,10.7H45.192a2.658,2.658,0,0,0-2.655,2.655Zm-.013-6.86h1.764V7.152H42.524Zm-.16-3.547h1.924a3.337,3.337,0,0,0-.779-2.76,2.673,2.673,0,0,0-4.423,1.12,2.671,2.671,0,0,1,3.278,1.64Zm-.71,5.317H37.3a4.436,4.436,0,0,0,3.466,3.452A5.03,5.03,0,0,1,41.655,10.7ZM18.627,58.487H20.4V56.742l-.006-.018H18.627Zm-.521-3.533H19.8l-2.042-6.1V47.427A13.664,13.664,0,0,0,22.728,40.8H20.809a16.153,16.153,0,0,1-5.537,6.025Zm-10.1,3.533h1.77V56.762l-.015-.038H8.007Z" transform="translate(0 -0.068)"/>
      <path id="Trazado_878102" data-name="Trazado 878102" d="M196.645,195.187h-1.77v1.77h1.77Z" transform="translate(-159.434 -172.164)"/>
      <path id="Trazado_878103" data-name="Trazado 878103" d="M226.645,195.187h-1.77v1.77h1.77Z" transform="translate(-192.974 -172.164)"/>
    </g>
  </g>
</svg>
