<svg xmlns="http://www.w3.org/2000/svg" width="71.389" height="61.7" viewBox="0 0 71.389 61.7">
  <g id="Grupo_1189853" data-name="Grupo 1189853" transform="translate(-375.032 -5780.696)">
    <path id="Rectángulo_402628" data-name="Rectángulo 402628" d="M7.815,0H61.7a0,0,0,0,1,0,0V0A61.7,61.7,0,0,1,0,61.7H0a0,0,0,0,1,0,0V7.815A7.815,7.815,0,0,1,7.815,0Z" transform="translate(375.032 5780.696)" fill="#fdaa30"/>
    <g id="Grupo_1189852" data-name="Grupo 1189852" transform="translate(384.479 5737.113)">
      <path id="Trazado_878112" data-name="Trazado 878112" d="M60.111,58.393,50.9,57.458a5.118,5.118,0,0,0-3.68,1.06l-1.923,1.5a5.109,5.109,0,0,0-4.359-.522,4.766,4.766,0,0,0-6.956-2.468,4.3,4.3,0,0,0-5.946.047,4.77,4.77,0,0,0-7.01,2.351,5.173,5.173,0,0,0-4.27.678l-2.034-1.585a5.118,5.118,0,0,0-3.68-1.06L8.668,57.7A.907.907,0,1,0,8.851,59.5l2.374-.241a3.311,3.311,0,0,1,2.381.686L15.463,61.4a4.994,4.994,0,0,0-.773,1.789l-3.595-1.7a.907.907,0,1,0-.777,1.64L13.447,64.6a4.625,4.625,0,0,0-2.325,2.2L8.18,66.285A7.191,7.191,0,0,1,3.234,62.87L1.846,60.533a.222.222,0,0,1,.169-.335l2.635-.268a.907.907,0,1,0-.183-1.805l-2.635.268A2.037,2.037,0,0,0,.285,61.46L1.674,63.8a9,9,0,0,0,5.762,4.188A6.2,6.2,0,0,0,5.1,74.842a4.621,4.621,0,0,0-2.144,3.883,4.373,4.373,0,0,0,2.1,3.748,6.173,6.173,0,0,0,1.3,5.7,5.956,5.956,0,0,0-.718,2.806,5.431,5.431,0,0,0,3.483,5.092,4.62,4.62,0,0,0,5.177,4.484,6.2,6.2,0,0,0,8.858,1.57,5.88,5.88,0,0,0,4.49,2.155H34.3a5.873,5.873,0,0,0,4.49-2.155,6.2,6.2,0,0,0,8.858-1.57,4.638,4.638,0,0,0,5.177-4.486,5.448,5.448,0,0,0,2.01-1.361.907.907,0,0,0-1.325-1.24,3.634,3.634,0,0,1-1.842,1.063.907.907,0,0,0-.693,1.027,2.794,2.794,0,0,1-3.526,3.106.908.908,0,0,0-1.065.459,4.383,4.383,0,0,1-6.412,1.616l5.166-6.06a10.958,10.958,0,0,0,2.617-7.1V74.9a3.888,3.888,0,0,0-.318-1.531,4.648,4.648,0,0,0,3.853-4.707A4.389,4.389,0,0,1,55.3,73.032a4.343,4.343,0,0,1-.415,1.863.908.908,0,0,0,.5,1.234,2.792,2.792,0,0,1,1.791,2.6,2.617,2.617,0,0,1-1.733,2.456.907.907,0,0,0-.493,1.2,4.926,4.926,0,0,1,.351,1.838,4.1,4.1,0,0,1-1.472,3.159.907.907,0,0,0-.11,1.239,3.823,3.823,0,0,1,.716,1.669.907.907,0,1,0,1.787-.318,5.9,5.9,0,0,0-.627-1.79,5.832,5.832,0,0,0,1.521-3.958,7.023,7.023,0,0,0-.224-1.744,4.373,4.373,0,0,0,2.1-3.748,4.621,4.621,0,0,0-2.144-3.883,6.2,6.2,0,0,0-2.337-6.856,8.965,8.965,0,0,0,2.757-1.129.907.907,0,1,0-.956-1.543,7.164,7.164,0,0,1-2.547.971l-2.943.516a4.624,4.624,0,0,0-2.325-2.2l3.129-1.482a.907.907,0,1,0-.777-1.64l-3.377,1.6a5,5,0,0,0-.835-1.807l1.7-1.326a3.311,3.311,0,0,1,2.381-.686l9.211.935a.222.222,0,0,1,.169.335l-1.222,2.057a.907.907,0,1,0,1.56.927l1.222-2.058a2.037,2.037,0,0,0-1.545-3.067ZM34.3,102.468H27.64a4.2,4.2,0,0,1-3.295-1.736,7.057,7.057,0,0,0,.821.05,6.833,6.833,0,0,0,5.792-3.256,6.715,6.715,0,0,0,5.8,3.273,6.92,6.92,0,0,0,.831-.052A4.192,4.192,0,0,1,34.3,102.468Zm11.64-14.89A9.142,9.142,0,0,1,43.76,93.5c-.04.043-3.2,3.758-3.245,3.8a5.014,5.014,0,0,1-3.76,1.677,4.917,4.917,0,0,1-4.876-4.15V91.768a6.454,6.454,0,0,0,3.468-1.639l2.173-1.993A.907.907,0,0,0,36.292,86.8L34.12,88.791a4.643,4.643,0,0,1-6.3,0L25.65,86.8a.907.907,0,0,0-1.227,1.337L26.6,90.128a6.455,6.455,0,0,0,3.468,1.639v3.067a4.987,4.987,0,0,1-4.9,4.133,4.925,4.925,0,0,1-3.733-1.654c-.613-.721-3.088-3.6-3.541-4.168a.932.932,0,0,0-1.265-.22.907.907,0,0,0-.2,1.292c.049.11,5.391,6.337,5.541,6.524a4.383,4.383,0,0,1-6.412-1.616.908.908,0,0,0-1.065-.459,2.835,2.835,0,0,1-3.526-3.106.908.908,0,0,0-.693-1.027,3.627,3.627,0,0,1-2.826-3.553,4,4,0,0,1,.779-2.367.907.907,0,0,0-.11-1.239,4.366,4.366,0,0,1-1.121-5,.91.91,0,0,0-.2-1,.981.981,0,0,0-.324-.205,2.613,2.613,0,0,1-1.706-2.445A2.792,2.792,0,0,1,6.54,76.137a.952.952,0,0,0,.309-.183.911.911,0,0,0,.21-1.059,4.344,4.344,0,0,1-.415-1.863,4.389,4.389,0,0,1,4.007-4.366A4.649,4.649,0,0,0,14.5,73.372a3.888,3.888,0,0,0-.318,1.531V87.578a10.961,10.961,0,0,0,.285,2.483.908.908,0,1,0,1.759-.447A9.144,9.144,0,0,1,16,87.578V74.9a2.1,2.1,0,0,1,3.046-1.882L22.7,74.849a.907.907,0,0,0,1.23-.431.933.933,0,0,0-.452-1.209L19.857,71.4a3.9,3.9,0,0,0-.637-.25c.052-.09.1-.181.147-.275a4.238,4.238,0,0,0,2.777-.215,4.538,4.538,0,0,0,6.782-.426,5.509,5.509,0,0,0,4.3-.04,4.533,4.533,0,0,0,6.737.535,4.279,4.279,0,0,0,2.608.145c.046.094.1.185.147.275a3.892,3.892,0,0,0-.637.25l-3.622,1.811a.932.932,0,0,0-.452,1.209.907.907,0,0,0,1.23.431L42.9,73.021A2.1,2.1,0,0,1,45.943,74.9V87.578Zm3.539-18.743a2.782,2.782,0,0,1-5.489.644.907.907,0,0,0-1.324-.584,2.42,2.42,0,0,1-2.441-.057.907.907,0,0,0-1.2.23,2.7,2.7,0,0,1-2.184,1.1A2.735,2.735,0,0,1,34.375,68.6a.907.907,0,0,0-1.319-.372,3.688,3.688,0,0,1-3.974.048.907.907,0,0,0-1.294.368,2.722,2.722,0,0,1-4.685.34.907.907,0,0,0-1.269-.227,2.418,2.418,0,0,1-2.561.136.907.907,0,0,0-1.324.584,2.782,2.782,0,1,1-2.707-3.427c.57.024,1.4-.2,1.232-1.093a3.205,3.205,0,0,1,4.738-3.49.907.907,0,0,0,1.362-.7,2.9,2.9,0,0,1,4.956-1.775.907.907,0,0,0,1.423-.171,2.419,2.419,0,0,1,4.119-.053.907.907,0,0,0,1.393.168,2.9,2.9,0,0,1,4.907,1.941.907.907,0,0,0,1.415.7,3.206,3.206,0,0,1,5,2.657,3.234,3.234,0,0,1-.08.71.94.94,0,0,0,.987,1.1,2.786,2.786,0,0,1,2.783,2.783Z"/>
      <path id="Trazado_878113" data-name="Trazado 878113" d="M170.907,234.391a.907.907,0,0,0-.907.907v2.42a.907.907,0,1,0,1.815,0V235.3a.907.907,0,0,0-.907-.907Z" transform="translate(-149.433 -156.936)"/>
      <path id="Trazado_878114" data-name="Trazado 878114" d="M327.907,234.391a.907.907,0,0,0-.907.907v2.42a.907.907,0,1,0,1.815,0V235.3a.907.907,0,0,0-.907-.907Z" transform="translate(-287.439 -156.936)"/>
    </g>
  </g>
</svg>
