<svg id="Grupo_1189700" data-name="Grupo 1189700" xmlns="http://www.w3.org/2000/svg" width="61.701" height="61.7" viewBox="0 0 61.701 61.7">
  <path id="Rectángulo_402628" data-name="Rectángulo 402628" d="M7.815,0H61.7a0,0,0,0,1,0,0V0A61.7,61.7,0,0,1,0,61.7H0a0,0,0,0,1,0,0V7.815A7.815,7.815,0,0,1,7.815,0Z" transform="translate(0)" fill="#fdaa30"/>
  <g id="Grupo_1189728" data-name="Grupo 1189728" transform="translate(12.934 8.377)">
    <path id="XMLID_989_" d="M46.862,43.215V25.172a2.857,2.857,0,0,0-.952-5.551H41.161l2.184-2.184A.953.953,0,0,0,42,16.089l-3.531,3.531H30.48V9.36a2.857,2.857,0,0,0-.952-5.551H25.3l2.184-2.184A.953.953,0,1,0,26.139.278L22.608,3.809H2.857A2.857,2.857,0,0,0,1.9,9.36V22a.952.952,0,0,0,1.9,0V9.524H28.575v10.1h-7.1a8.5,8.5,0,1,0-3.184,14.912v8.519H3.81V30.574a.952.952,0,0,0-1.9,0V43.215a2.857,2.857,0,0,0,.952,5.551H45.91a2.857,2.857,0,0,0,.952-5.551Zm-44-35.6a.952.952,0,1,1,0-1.9h26.67a.952.952,0,0,1,0,1.9ZM20.193,25.335H44.957V43.052H20.193Zm26.67-2.857a.954.954,0,0,1-.952.952H19.24a.952.952,0,0,1,0-1.9H45.91A.954.954,0,0,1,46.862,22.478Zm-30.67,10.41a6.6,6.6,0,1,1,1.761-12.96,2.856,2.856,0,0,0,.334,5.244v7.375a6.567,6.567,0,0,1-2.1.341ZM1.9,45.909a.954.954,0,0,1,.952-.952H16.547a2.851,2.851,0,0,0,0,1.9H2.857A.954.954,0,0,1,1.9,45.909Zm44,.952H19.24a.952.952,0,0,1,0-1.9H45.91a.952.952,0,0,1,0,1.9Z"/>
    <path id="XMLID_1043_" d="M249.7,301a8.7,8.7,0,0,0-7.074,3.648,7.82,7.82,0,0,0-3.459-2.6.952.952,0,0,0-1.289.891v7.173a.952.952,0,0,0,1.289.891,7.819,7.819,0,0,0,3.459-2.6,8.686,8.686,0,0,0,15-1.486.952.952,0,0,0,0-.78A8.705,8.705,0,0,0,249.7,301Zm-9.917,7.536v-4.023a5.926,5.926,0,0,1,1.8,2.012A5.925,5.925,0,0,1,239.787,308.536Zm9.917,1.608a6.8,6.8,0,0,1-6-3.619,6.783,6.783,0,0,1,12,0A6.8,6.8,0,0,1,249.7,310.144Z" transform="translate(-215.224 -272.331)"/>
    <path id="XMLID_1049_" d="M381.572,349a.953.953,0,1,0,.673.279A.959.959,0,0,0,381.572,349Z" transform="translate(-344.367 -315.759)"/>
    <path id="XMLID_1057_" d="M20.952,267.9a.953.953,0,1,0-.673-.279A.959.959,0,0,0,20.952,267.9Z" transform="translate(-18.095 -240.665)"/>
  </g>
</svg>
