<svg id="Grupo_1189701" data-name="Grupo 1189701" xmlns="http://www.w3.org/2000/svg" width="64.496" height="61.7" viewBox="0 0 64.496 61.7">
  <path id="Rectángulo_402628" data-name="Rectángulo 402628" d="M7.815,0H61.7a0,0,0,0,1,0,0V0A61.7,61.7,0,0,1,0,61.7H0a0,0,0,0,1,0,0V7.815A7.815,7.815,0,0,1,7.815,0Z" transform="translate(0)" fill="#fdaa30"/>
  <g id="Grupo_1189729" data-name="Grupo 1189729" transform="translate(7.503 -30.832)">
    <g id="Grupo_1189730" data-name="Grupo 1189730" transform="translate(0 37.341)">
      <g id="Grupo_1189729-2" data-name="Grupo 1189729" transform="translate(0 0)">
        <path id="Trazado_877754" data-name="Trazado 877754" d="M2.695,259.185a4.118,4.118,0,0,1-1.025-2.72v-7.4a.835.835,0,0,0-1.67,0v7.4a5.788,5.788,0,0,0,1.44,3.822L8.7,268.549a2.886,2.886,0,0,1,.718,1.906V272.6a.835.835,0,1,0,1.67,0v-2.145a4.555,4.555,0,0,0-1.134-3.008Z" transform="translate(0 -224.754)"/>
        <path id="Trazado_877755" data-name="Trazado 877755" d="M12.135,99.685l2.117-5.795a3.22,3.22,0,0,0-3.064-4.333A3.226,3.226,0,0,0,5.17,87.51,3.225,3.225,0,0,0,1.423,90.1L.014,97.684A.833.833,0,0,0,0,97.837v2.908a.835.835,0,1,0,1.67,0V97.914l1.4-7.512a1.558,1.558,0,1,1,3.063.571L4.885,97.617a.836.836,0,0,0-.014.154v3.171l-1.521,5.184a3.931,3.931,0,0,0,.51,3.4l5.608,8.212a.835.835,0,0,0,1.379-.942l-5.608-8.212a2.27,2.27,0,0,1-.293-1.97l0-.014,1.994-6.794a1.818,1.818,0,0,1,3.529.86l-1.026,5.257a.835.835,0,0,0,.461.914,38.859,38.859,0,0,1,5.81,3.563c2.544,1.909,5.576,4.815,5.576,7.815V128.28a.835.835,0,1,0,1.67,0V118.218c0-6.143-9.284-11.324-11.756-12.6l.9-4.634a3.651,3.651,0,0,0,.024-1.3ZM6.6,97.523l1.168-6.243a3.225,3.225,0,0,0-1.085-3.054,1.558,1.558,0,0,1,2.847,1.121L8.288,95.99a.836.836,0,0,0-.014.154v.713a3.473,3.473,0,0,0-1.673.667Zm3.343-.455v-.847l.927-4.955a1.557,1.557,0,0,1,1.813,2.052l-1.624,4.447a3.508,3.508,0,0,0-1.115-.7Z" transform="translate(0 -80.434)"/>
        <path id="Trazado_877756" data-name="Trazado 877756" d="M328.664,97.684,327.254,90.1a3.225,3.225,0,0,0-3.747-2.586,3.226,3.226,0,0,0-6.018,2.047,3.225,3.225,0,0,0-3.064,4.333l2.129,5.83a3.486,3.486,0,0,0,.011,1.269l.9,4.634c-2.473,1.271-11.756,6.453-11.756,12.6V128.28a.835.835,0,0,0,1.67,0V118.218c0-3,3.032-5.906,5.576-7.815a38.877,38.877,0,0,1,5.81-3.563.835.835,0,0,0,.461-.914l-1.027-5.257a1.818,1.818,0,0,1,3.529-.861l1.994,6.794,0,.014a2.271,2.271,0,0,1-.293,1.97l-5.608,8.212a.835.835,0,1,0,1.379.942l5.608-8.212a3.931,3.931,0,0,0,.51-3.4l-1.53-5.212a.837.837,0,0,0,.008-.112V97.77a.836.836,0,0,0-.014-.154l-1.243-6.644a1.558,1.558,0,1,1,3.063-.571l1.4,7.512v14.232a4.118,4.118,0,0,1-1.025,2.72l-7.259,8.262a4.555,4.555,0,0,0-1.134,3.008v2.145a.835.835,0,0,0,1.67,0v-2.145a2.886,2.886,0,0,1,.718-1.906l7.259-8.262a5.787,5.787,0,0,0,1.44-3.822V97.837A.821.821,0,0,0,328.664,97.684Zm-11.045.08-1.624-4.447a1.556,1.556,0,0,1,1.813-2.052l.927,4.955v.847A3.508,3.508,0,0,0,317.619,97.765Zm2.785-.908v-.713a.836.836,0,0,0-.014-.154l-1.243-6.644a1.558,1.558,0,0,1,2.847-1.121,3.225,3.225,0,0,0-1.085,3.054l1.168,6.244A3.477,3.477,0,0,0,320.4,96.857Z" transform="translate(-271.684 -80.434)"/>
        <path id="Trazado_877757" data-name="Trazado 877757" d="M320.9,261.692a.835.835,0,0,0-.741.919l.25,2.336a.835.835,0,0,0,.829.746.846.846,0,0,0,.09,0,.835.835,0,0,0,.741-.919l-.25-2.336A.835.835,0,0,0,320.9,261.692Z" transform="translate(-284.517 -236.714)"/>
        <path id="Trazado_877758" data-name="Trazado 877758" d="M121.256,45.94l-1.917-1.9h7.112a4.116,4.116,0,0,1,2.378,7.476,2.4,2.4,0,0,0-.992,2.2l.595,5.554a.835.835,0,0,0,.829.746.848.848,0,0,0,.09,0,.835.835,0,0,0,.741-.919l-.066-.621a3.849,3.849,0,0,0,3.086-2.079h.007a1.517,1.517,0,0,0,1.239-.972l.171-.454A4.964,4.964,0,0,0,132.2,48.8a5.773,5.773,0,0,0-5.749-6.426l-10.345.011c-2.234-.089-6.306-.77-8.48-4.33a1.476,1.476,0,0,0-2.737.813,8.4,8.4,0,0,0,2.154,5.932,12.99,12.99,0,0,0,1.061.908.835.835,0,0,0,1.017-1.324,11.313,11.313,0,0,1-.924-.791,6.424,6.424,0,0,1-1.6-4.065c2.756,3.84,7.471,4.446,9.439,4.525a2.5,2.5,0,0,1,1.652.714l1.408,1.378-1.708.737a2.527,2.527,0,0,1-1.265.191,15.274,15.274,0,0,1-3.737-.891.835.835,0,1,0-.591,1.562,16.71,16.71,0,0,0,1.973.608L110.65,59.568a.835.835,0,1,0,1.609.448l3.161-11.349c.191.027.37.049.532.066a4.2,4.2,0,0,0,2.1-.318l2.364-1.02,1.232.909a.835.835,0,1,0,.992-1.343Zm8.591,10.867-.132-1.232a4,4,0,0,0,1.632-.267l.024-.009.241.35C131.434,56.19,130.823,56.591,129.847,56.807Zm3.119-2.428-.071.188-.519-.753a.835.835,0,0,0-.61-.357l-.02,0a.837.837,0,0,0-.38.053l-.624.243a2.33,2.33,0,0,1-1.207.13l-.036-.338a.722.722,0,0,1,.3-.664,5.8,5.8,0,0,0,1.956-2.406A3.353,3.353,0,0,1,132.966,54.379Z" transform="translate(-93.213 -37.341)"/>
      </g>
    </g>
  </g>
</svg>
