<svg id="Grupo_1189702" data-name="Grupo 1189702" xmlns="http://www.w3.org/2000/svg" width="61.701" height="65.581" viewBox="0 0 61.701 65.581">
  <path id="Rectángulo_402628" data-name="Rectángulo 402628" d="M7.815,0H61.7a0,0,0,0,1,0,0V0A61.7,61.7,0,0,1,0,61.7H0a0,0,0,0,1,0,0V7.815A7.815,7.815,0,0,1,7.815,0Z" transform="translate(0)" fill="#fdaa30"/>
  <path id="Trazado_877759" data-name="Trazado 877759" d="M125.981,85.305a.717.717,0,0,1-.3.521L112.819,94.3c-2.634,1.737-6.05,3.761-9.123,4.012a17.1,17.1,0,0,1-4.969-.6c-.873-.191-1.776-.389-2.685-.52a68.957,68.957,0,0,0-10.467-.485V87.2c.918-.217,1.852-.443,2.777-.695a16.6,16.6,0,0,0,3.119-1.3c1.742-.873,3.248-1.629,5.209-1.036l7.941,2.393a1.5,1.5,0,0,1,1,1.858,1.59,1.59,0,0,1-1.936.978c-.392-.082-.844-.186-1.323-.3a34.434,34.434,0,0,0-3.9-.745,8.547,8.547,0,0,0-2.043.056.935.935,0,1,0,.267,1.852,6.653,6.653,0,0,1,1.6-.046,33.146,33.146,0,0,1,3.664.707c.486.111.946.216,1.356.3a3.922,3.922,0,0,0,.8.083,3.437,3.437,0,0,0,3.046-1.731,11.134,11.134,0,0,0,2.894-.616l13.766-5.15a1.524,1.524,0,0,1,1.748.241l.1.125a1.5,1.5,0,0,1,.325,1.121ZM83.7,98.99a.373.373,0,0,1-.368.368H79.425a.374.374,0,0,1-.369-.368V85.954a.374.374,0,0,1,.369-.368h3.911a.373.373,0,0,1,.368.368Zm43.4-15.995-.1-.125a3.277,3.277,0,0,0-3.848-.8l-13.766,5.15a8.486,8.486,0,0,1-1.849.442,3.378,3.378,0,0,0-2.375-2.884l-7.942-2.393c-2.675-.807-4.664.191-6.588,1.156A15.126,15.126,0,0,1,87.859,84.7c-.786.215-1.587.41-2.382.6a2.241,2.241,0,0,0-2.141-1.587H79.425a2.242,2.242,0,0,0-2.239,2.239V98.99a2.242,2.242,0,0,0,2.239,2.239h3.911a2.241,2.241,0,0,0,2.239-2.239v-.411a67.394,67.394,0,0,1,10.2.467c.843.121,1.711.311,2.553.495a21.9,21.9,0,0,0,4.672.672c.281,0,.563-.01.848-.034,3.476-.283,7.006-2.34,10-4.314l12.858-8.476a2.579,2.579,0,0,0,1.125-1.8,3.36,3.36,0,0,0-.731-2.589ZM78.254,75.37a4.761,4.761,0,0,1,0-5.445l5.255-8.019a.936.936,0,1,1,1.565,1.027L79.817,70.95a2.93,2.93,0,0,0,0,3.387,4.2,4.2,0,0,0,3.6,1.789h4.638l-.314-.206a.936.936,0,0,1,1.026-1.565l2.926,1.916a1.07,1.07,0,0,1,.111.082s0,0,0,0a.835.835,0,0,1,.1.1.922.922,0,0,1,.224.6h0v0h0v.005h0v0a.93.93,0,0,1-.225.6.874.874,0,0,1-.21.182l-2.926,1.915A.935.935,0,0,1,87.742,78.2L88.056,78H83.419a6.036,6.036,0,0,1-5.164-2.628Zm35.421-16.2.439-3.18s0,0,0-.008h0a.773.773,0,0,1,.024-.112h0a.934.934,0,0,1,.369-.52h0a.111.111,0,0,1,.017-.013c.006,0,0,0,0,0h0a.933.933,0,0,1,.64-.143h0a.868.868,0,0,1,.094.017h0a.863.863,0,0,1,.111.035l3.367,1.255a.936.936,0,1,1-.654,1.753L117.422,58l7.94,11.918a4.8,4.8,0,0,1,0,5.451A6.033,6.033,0,0,1,120.2,78h-7.775a.935.935,0,1,1,0-1.871H120.2a4.2,4.2,0,0,0,3.6-1.789,2.9,2.9,0,0,0,0-3.382l-8.174-12.269-.1.74a.935.935,0,0,1-1.853-.255Zm-27.444-4.8.439,3.178c0,.016.005.032.007.049a0,0,0,0,1,0,0h0v0c0,.011.005.021.007.033v0a0,0,0,0,1,0,0h0v0a.927.927,0,0,0,.365.541h0c.014.01.028.02.043.029a.922.922,0,0,0,.5.145,1.04,1.04,0,0,0,.166-.014s0,0,0,0h0s0,0,0,0h.01s0,0,0,0h.01a.863.863,0,0,0,.145-.044L91.3,57.039a.935.935,0,1,0-.654-1.752l-.675.252L98.2,43.159a4.525,4.525,0,0,1,7.206-.006l5.542,8.478a.936.936,0,0,0,1.566-1.024l-5.543-8.478a6.388,6.388,0,0,0-10.329-.006l-8.46,12.725-.1-.736a.935.935,0,1,0-1.852.256Zm19.68,23.97a1.526,1.526,0,0,1-1.506,1.152H99.213a1.525,1.525,0,0,1-1.5-1.152L94.4,66.113h14.825ZM92.348,62.647H111.27v1.6H92.348Zm3.92-6.3a2.907,2.907,0,0,1,1.638-1.785v2.3a2.329,2.329,0,0,0,2.326,2.326h3.156a2.329,2.329,0,0,0,2.327-2.326v-2.3a2.9,2.9,0,0,1,1.637,1.785l1.477,4.432H94.79Zm3.508-2.014h4.068v2.525a.463.463,0,0,1-.457.455h-3.156a.461.461,0,0,1-.455-.455Zm11.542,6.446H110.8l-1.675-5.023a4.744,4.744,0,0,0-4.284-3.285h-.036c-.083,0-.166-.006-.25-.006H99.062c-.083,0-.167,0-.251.006h-.035a4.742,4.742,0,0,0-4.283,3.285l-1.675,5.023H92.3A1.825,1.825,0,0,0,90.478,62.6v1.69A1.825,1.825,0,0,0,92.3,66.113h.158L95.9,78.827a3.394,3.394,0,0,0,3.311,2.534h5.192a3.4,3.4,0,0,0,3.311-2.534l3.444-12.714h.158a1.825,1.825,0,0,0,1.823-1.823V62.6a1.826,1.826,0,0,0-1.823-1.823Z" transform="translate(-66.164 -35.647)" fill-rule="evenodd"/>
</svg>
