<svg id="Grupo_1189703" data-name="Grupo 1189703" xmlns="http://www.w3.org/2000/svg" width="61.701" height="63.376" viewBox="0 0 61.701 63.376">
  <path id="Rectángulo_402628" data-name="Rectángulo 402628" d="M7.815,0H61.7a0,0,0,0,1,0,0V0A61.7,61.7,0,0,1,0,61.7H0a0,0,0,0,1,0,0V7.815A7.815,7.815,0,0,1,7.815,0Z" transform="translate(0)" fill="#fdaa30"/>
  <path id="Trazado_877760" data-name="Trazado 877760" d="M26.122,36.949a.757.757,0,0,1,.757-.757H36.89a.757.757,0,1,1,0,1.514H26.879a.757.757,0,0,1-.757-.757Zm.757,4.442H42.689a.757.757,0,1,0,0-1.514H26.879a.757.757,0,0,0,0,1.514Zm15.811,2.167H26.879a.757.757,0,0,0,0,1.514H42.689a.757.757,0,1,0,0-1.514Zm0,3.681H26.879a.757.757,0,0,0,0,1.514H42.689a.757.757,0,1,0,0-1.514Zm7.9,15.5v7.014a4.171,4.171,0,0,1-4.166,4.166H14.832a4.171,4.171,0,0,1-4.166-4.166V51.585L.249,42.576a.757.757,0,0,1-.077-1.068l15.2-17.576a.757.757,0,0,1,1.068-.077l5.446,4.711,9.81-4.472a.757.757,0,0,1,1,.375l2.974,6.524h4.69a.758.758,0,0,1,.535.222l6.039,6.039a.758.758,0,0,1,.222.535V48.813a7.209,7.209,0,0,1,3.43,13.923ZM45.644,49.192V38.546H41.718a2.114,2.114,0,0,1-2.112-2.112V32.507H23.924V47.725l2.847,2.783c.645.631,1.154,1.078,1.831,1.078H42.415a7.242,7.242,0,0,1,3.229-2.393ZM41.12,36.434a.6.6,0,0,0,.6.6h2.856L41.12,33.578ZM31.635,25.786l-9.522,4.341a.745.745,0,0,1-.088.04L11.872,34.795,16.7,45.378h3.48a3.444,3.444,0,0,1,2.234.9V31.75a.757.757,0,0,1,.757-.757H34.008Zm-20.968,23.8v-.65a3.561,3.561,0,0,1,3.559-3.556h.806L10.18,34.734a.757.757,0,0,1,.375-1l9.815-4.475L16.022,25.5,1.813,41.926ZM49.074,63.1a7.206,7.206,0,0,1-7.548-10H28.6a4.142,4.142,0,0,1-2.89-1.509L22.657,48.6c-.014-.013-.027-.026-.04-.039l-.608-.595c-.668-.651-1.157-1.078-1.834-1.078h-5.95a2.045,2.045,0,0,0-2.045,2.042V69.749A2.654,2.654,0,0,0,14.832,72.4h31.59a2.654,2.654,0,0,0,2.651-2.651Zm4.766-7.148a5.7,5.7,0,1,0-5.7,5.7A5.7,5.7,0,0,0,53.841,55.953ZM52,53.091a.757.757,0,0,0-1.071,0l-4.118,4.118-1.451-1.451a.757.757,0,0,0-1.071,1.071l1.986,1.986a.757.757,0,0,0,1.071,0L52,54.162a.757.757,0,0,0,0-1.071ZM45.022,67.675H16.233a.757.757,0,0,0,0,1.514H45.022a.757.757,0,0,0,0-1.514ZM16.233,64.018h7.384a.757.757,0,1,0,0-1.514H16.233a.757.757,0,0,0,0,1.514Z" transform="translate(6.345 -10.539)"/>
</svg>
