<svg id="_1" data-name="1" xmlns="http://www.w3.org/2000/svg" xmlns:xlink="http://www.w3.org/1999/xlink" width="85" height="85" viewBox="0 0 85 85">
  <defs>
    <clipPath id="clip-path">
      <rect id="Rectangle_297522" data-name="Rectangle 297522" width="85" height="85" fill="none"/>
    </clipPath>
  </defs>
  <g id="Group_147903" data-name="Group 147903" clip-path="url(#clip-path)">
    <path id="Path_206780" data-name="Path 206780" d="M72.606,23.306l-.014.014a.654.654,0,0,0-.151-.192l-.973-.974a2.832,2.832,0,0,0-3.29-.521,2.608,2.608,0,0,1-1,.288V1.371H83.629V23.306Z" fill="#e6e9ed"/>
    <path id="Path_206781" data-name="Path 206781" d="M50.726,12.339V21.36a2.772,2.772,0,0,0-1.549.8l-.974.974a.663.663,0,0,0-.15.191l-.014-.013H34.274V1.371H50.726Z" fill="#e6e9ed"/>
    <path id="Path_206782" data-name="Path 206782" d="M17.823,12.339V23.307H1.371V1.371H17.823Z" fill="#e6e9ed"/>
    <path id="Path_206783" data-name="Path 206783" d="M45.832,30.888a2.8,2.8,0,0,0,1.726-1.618c.069-.164.138-.329.206-.493a2.666,2.666,0,0,0,.219-1.083,2.762,2.762,0,0,0-.3-1.275,2.79,2.79,0,0,1,.37-3.1.667.667,0,0,1,.151-.192l.973-.973a2.772,2.772,0,0,1,1.549-.8,2.489,2.489,0,0,1,.454-.041,2.869,2.869,0,0,1,1.287.315,2.79,2.79,0,0,0,2.36.082l.493-.2a2.812,2.812,0,0,0,1.618-1.728,2.856,2.856,0,0,1,2.7-1.96h1.37a2.854,2.854,0,0,1,2.7,1.96,2.809,2.809,0,0,0,1.618,1.728l.494.2a2.683,2.683,0,0,0,1.083.22,1.8,1.8,0,0,0,.274-.014,2.638,2.638,0,0,0,1-.288,2.831,2.831,0,0,1,3.29.521l.974.973a.681.681,0,0,1,.15.192,2.7,2.7,0,0,1,.686,1.81,2.893,2.893,0,0,1-.315,1.289,2.778,2.778,0,0,0-.082,2.358l.205.493a2.8,2.8,0,0,0,1.727,1.618,2.857,2.857,0,0,1,1.961,2.7V34.96a2.857,2.857,0,0,1-1.961,2.7,2.806,2.806,0,0,0-1.727,1.617c-.068.165-.136.329-.205.494a2.667,2.667,0,0,0-.22,1.083,2.766,2.766,0,0,0,.3,1.275,2.832,2.832,0,0,1-.521,3.29l-.974.974a2.836,2.836,0,0,1-2,.836,2.893,2.893,0,0,1-1.288-.315,2.782,2.782,0,0,0-2.358-.083l-.494.206a2.81,2.81,0,0,0-1.618,1.727,2.853,2.853,0,0,1-2.7,1.961h-1.37a2.837,2.837,0,0,1-2.058-.878V42.034a8.229,8.229,0,1,0-5.483-7.76H43.871v-.685A2.859,2.859,0,0,1,45.832,30.888Z" fill="#ffb30b"/>
    <path id="Path_206784" data-name="Path 206784" d="M57.581,39.758A5.482,5.482,0,0,0,52.1,34.274a8.211,8.211,0,1,1,5.484,7.76Zm0-5.484a2.742,2.742,0,1,0,2.742-2.742,2.75,2.75,0,0,0-2.742,2.742" fill="#fcd770"/>
    <path id="Path_206785" data-name="Path 206785" d="M58.952,72.661H4.113a2.682,2.682,0,0,0-1.933.809A2.681,2.681,0,0,0,1.371,75.4,8.233,8.233,0,0,0,9.6,83.629H53.468A8.239,8.239,0,0,0,61.694,75.4,2.75,2.75,0,0,0,58.952,72.661Z" fill="#94b0c9"/>
    <path id="Path_206786" data-name="Path 206786" d="M39.758,72.661V75.4a2.75,2.75,0,0,1-2.742,2.742H26.048A2.75,2.75,0,0,1,23.306,75.4V72.661Z" fill="#ffb30b"/>
    <path id="Path_206787" data-name="Path 206787" d="M57.581,49.848V72.661H5.484v-32.9a5.482,5.482,0,0,1,5.484-5.484H52.1a5.482,5.482,0,0,1,5.484,5.484v10.09Z" fill="#b9ddfc"/>
    <path id="Path_206788" data-name="Path 206788" d="M52.1,41.129V65.806a1.375,1.375,0,0,1-1.371,1.371H12.339a1.375,1.375,0,0,1-1.371-1.371V41.129a1.375,1.375,0,0,1,1.371-1.371H50.726A1.375,1.375,0,0,1,52.1,41.129" fill="#f5faff"/>
    <path id="Path_206789" data-name="Path 206789" d="M41.129,50.726a5.484,5.484,0,0,1,0,10.968H21.935a5.484,5.484,0,0,1,0-10.968,5.577,5.577,0,0,1,1.742.3,8.226,8.226,0,0,1,15.711,0,5.565,5.565,0,0,1,1.741-.3" fill="#e6e9ed"/>
    <path id="Path_206790" data-name="Path 206790" d="M50.726,38.388H12.339A2.744,2.744,0,0,0,9.6,41.13V65.806a2.745,2.745,0,0,0,2.742,2.743H50.726a2.745,2.745,0,0,0,2.742-2.743V41.13a2.744,2.744,0,0,0-2.742-2.742M12.339,65.806V41.13H50.726V65.806Z"/>
    <path id="Path_206791" data-name="Path 206791" d="M40.238,49.421a9.6,9.6,0,0,0-17.411,0,6.851,6.851,0,1,0-.892,13.644H41.129a6.851,6.851,0,1,0-.891-13.644m.891,10.9H21.935a4.113,4.113,0,0,1,0-8.226,4.054,4.054,0,0,1,1.3.236l1.332.45.415-1.343a6.856,6.856,0,0,1,13.1,0l.416,1.344,1.331-.449a4.039,4.039,0,0,1,1.3-.237,4.113,4.113,0,0,1,0,8.226"/>
    <path id="Path_206792" data-name="Path 206792" d="M85,0H65.806V10.968H52.1V0H32.9V10.968H19.193V0H0V24.678H19.193V13.71H32.9V24.678H46.037a4.2,4.2,0,0,0,.42,2.359,1.414,1.414,0,0,1,.052,1.2c-.077.176-.151.356-.221.534a1.4,1.4,0,0,1-.888.817A4.206,4.206,0,0,0,42.558,32.9H10.968a6.863,6.863,0,0,0-6.855,6.855V71.291A4.117,4.117,0,0,0,0,75.4,9.608,9.608,0,0,0,9.6,85H53.468a9.607,9.607,0,0,0,9.6-9.6,4.117,4.117,0,0,0-4.112-4.112V52.026a4.158,4.158,0,0,0,.688.071h1.365a4.207,4.207,0,0,0,4.005-2.9,1.4,1.4,0,0,1,.814-.885c.181-.07.361-.143.539-.221a1.407,1.407,0,0,1,1.2.052,4.206,4.206,0,0,0,4.882-.781l.966-.966a4.2,4.2,0,0,0,.782-4.882,1.408,1.408,0,0,1-.052-1.2c.077-.177.151-.356.22-.534a1.407,1.407,0,0,1,.889-.818,4.211,4.211,0,0,0,2.9-4.006V33.592a4.208,4.208,0,0,0-2.9-4,1.406,1.406,0,0,1-.886-.814q-.1-.272-.22-.539a1.41,1.41,0,0,1,.052-1.2,4.2,4.2,0,0,0,.419-2.359H85ZM16.452,21.936H2.742V2.742h13.71ZM65.806,13.71v6.515a1.4,1.4,0,0,1-.8-.875,4.208,4.208,0,0,0-4.005-2.9H59.64a4.207,4.207,0,0,0-4.005,2.9,1.4,1.4,0,0,1-.817.886c-.18.07-.358.142-.536.22a1.407,1.407,0,0,1-1.2-.052,4.224,4.224,0,0,0-.988-.341V13.71ZM35.645,2.742h13.71V20.376a4.176,4.176,0,0,0-1.152.813l-.747.747H35.645ZM60.323,75.4a6.864,6.864,0,0,1-6.855,6.856H9.6A6.863,6.863,0,0,1,2.742,75.4a1.372,1.372,0,0,1,1.371-1.37H21.935V75.4a4.119,4.119,0,0,0,4.113,4.114H37.016A4.118,4.118,0,0,0,41.129,75.4v-1.37H58.952a1.373,1.373,0,0,1,1.371,1.37m-35.646-1.37h13.71V75.4a1.374,1.374,0,0,1-1.371,1.372H26.048A1.374,1.374,0,0,1,24.677,75.4ZM6.855,71.291V39.759a4.118,4.118,0,0,1,4.113-4.113H52.1a4.118,4.118,0,0,1,4.113,4.113V71.291ZM58.712,38.059a4.113,4.113,0,1,0-2.5-3.784c0,.013,0,.024,0,.038a6.8,6.8,0,0,0-2.626-1.235,6.907,6.907,0,1,1,5.364,7.9V39.759A6.767,6.767,0,0,0,58.712,38.059Zm.24-3.784a1.371,1.371,0,1,1,1.371,1.371,1.373,1.373,0,0,1-1.371-1.371M74.39,32.192a1.47,1.47,0,0,1,1.013,1.4v1.365a1.471,1.471,0,0,1-1.014,1.4,4.135,4.135,0,0,0-2.586,2.43c-.058.146-.118.293-.18.436a4.139,4.139,0,0,0,.12,3.526,1.468,1.468,0,0,1-.273,1.7l-.967.967a1.465,1.465,0,0,1-1.705.272,4.144,4.144,0,0,0-3.525-.119q-.216.093-.44.181A4.139,4.139,0,0,0,62.4,48.342a1.47,1.47,0,0,1-1.4,1.013H59.64a1.446,1.446,0,0,1-.688-.194v-5.4A9.588,9.588,0,1,0,50.835,32.9h-5.4a1.465,1.465,0,0,1,.824-.712,4.135,4.135,0,0,0,2.587-2.429c.058-.147.118-.294.18-.436A4.139,4.139,0,0,0,48.9,25.8a1.47,1.47,0,0,1,.273-1.707l.965-.965a1.466,1.466,0,0,1,1.707-.273,4.135,4.135,0,0,0,3.524.119q.219-.094.439-.179a4.15,4.15,0,0,0,2.429-2.587,1.468,1.468,0,0,1,1.4-1.015h1.365a1.471,1.471,0,0,1,1.4,1.015,4.14,4.14,0,0,0,2.428,2.585q.221.087.437.18a4.146,4.146,0,0,0,3.526-.119,1.469,1.469,0,0,1,1.707.272l.965.966a1.468,1.468,0,0,1,.273,1.706,4.137,4.137,0,0,0-.119,3.525q.093.216.181.44A4.136,4.136,0,0,0,74.39,32.192Zm7.868-10.256H73.189l-.746-.746a4.2,4.2,0,0,0-3.893-1.123V2.742H82.259V21.936Z"/>
    <rect id="Rectangle_297513" data-name="Rectangle 297513" width="8.226" height="2.742" transform="translate(5.484 5.484)"/>
    <rect id="Rectangle_297514" data-name="Rectangle 297514" width="8.226" height="2.742" transform="translate(5.484 10.968)"/>
    <rect id="Rectangle_297515" data-name="Rectangle 297515" width="8.226" height="2.742" transform="translate(5.484 16.452)"/>
    <rect id="Rectangle_297516" data-name="Rectangle 297516" width="8.226" height="2.742" transform="translate(38.387 5.484)"/>
    <rect id="Rectangle_297517" data-name="Rectangle 297517" width="8.226" height="2.742" transform="translate(38.387 10.968)"/>
    <rect id="Rectangle_297518" data-name="Rectangle 297518" width="8.226" height="2.742" transform="translate(38.387 16.452)"/>
    <rect id="Rectangle_297519" data-name="Rectangle 297519" width="8.226" height="2.742" transform="translate(71.29 5.484)"/>
    <rect id="Rectangle_297520" data-name="Rectangle 297520" width="8.226" height="2.742" transform="translate(71.29 10.968)"/>
    <rect id="Rectangle_297521" data-name="Rectangle 297521" width="8.226" height="2.742" transform="translate(71.29 16.452)"/>
  </g>
</svg>
