<svg id="_1" data-name="1" xmlns="http://www.w3.org/2000/svg" width="85" height="82.142" viewBox="0 0 85 82.142">
  <path id="Path_194561" data-name="Path 194561" d="M248.87,208.494v-9.187c-.276-.208-.614-.092-.925-.093q-11.739-.011-23.479-.007a6.738,6.738,0,0,1-6.994-7.021q0-25.488,0-50.975a6.733,6.733,0,0,1,7.012-7q35.486,0,70.972,0a6.733,6.733,0,0,1,7.014,7q0,25.488,0,50.975a6.736,6.736,0,0,1-6.989,7.024q-11.695,0-23.39,0h-1.006v9.285h6.858c1.481,0,1.67.194,1.67,1.71,0,1.607,0,3.214,0,4.821,0,.991-.338,1.325-1.338,1.325q-18.3,0-36.6,0c-1,0-1.337-.333-1.341-1.322q-.01-2.589,0-5.178c0-1.044.323-1.353,1.4-1.355C244.077,208.492,246.427,208.494,248.87,208.494Zm51.435-22.878c.01-.2.022-.315.022-.43q0-22.049,0-44.1a4.644,4.644,0,0,0-4.919-4.733q-35.44,0-70.88,0a4.656,4.656,0,0,0-4.908,4.925q0,21.781,0,43.563c0,.254-.1.533.107.774Zm.035,2.234H219.615c0,1.317,0,2.565,0,3.812,0,3.578,1.809,5.4,5.358,5.4h70c.238,0,.476,0,.714,0a4.56,4.56,0,0,0,4.5-3.723C300.541,191.549,300.24,189.727,300.34,187.85ZM251.128,199.27v9.148h17.7V199.27Zm26.319,11.438H242.527v3.43h34.921Z" transform="translate(-217.471 -134.209)" fill="#050506"/>
  <path id="Path_194562" data-name="Path 194562" d="M307.088,192.456H226.51c-.206-.241-.107-.521-.107-.774q-.008-21.781,0-43.563a4.656,4.656,0,0,1,4.908-4.925q35.44,0,70.88,0a4.645,4.645,0,0,1,4.92,4.733q.014,22.049,0,44.1C307.11,192.141,307.1,192.257,307.088,192.456Zm-40.334-19.978H242.209c-1.215,0-1.525.308-1.525,1.519q0,6.694,0,13.388c0,1.209.312,1.52,1.525,1.52H291.3c1.212,0,1.526-.312,1.526-1.52q0-6.649,0-13.3c0-1.328-.282-1.609-1.615-1.609Zm6.07-17.143c0-.953.013-1.811,0-2.668a6.067,6.067,0,0,0-11.981-1.2,38.454,38.454,0,0,0-.207,3.868c-.55,0-1.078,0-1.606,0a1.077,1.077,0,0,0-1.2,1.218q0,5.578,0,11.156a1.075,1.075,0,0,0,1.224,1.2q7.72,0,15.44,0a1.075,1.075,0,0,0,1.191-1.228c0-3.689.005-7.378,0-11.067,0-.906-.387-1.258-1.322-1.273C273.883,155.328,273.41,155.334,272.824,155.334Z" transform="translate(-224.254 -141.049)" fill="#e0f0fc"/>
  <path id="Path_194563" data-name="Path 194563" d="M307.181,359.066c-.1,1.877.2,3.7-.159,5.49a4.56,4.56,0,0,1-4.5,3.723c-.238.006-.476,0-.714,0h-70c-3.549,0-5.358-1.824-5.358-5.4,0-1.247,0-2.5,0-3.812Z" transform="translate(-224.313 -305.425)" fill="#597285"/>
  <path id="Path_194564" data-name="Path 194564" d="M358.557,406.934h17.7v9.148h-17.7Z" transform="translate(-324.9 -341.874)" fill="#597285"/>
  <path id="Path_194565" data-name="Path 194565" d="M357.42,454.881v3.43H322.5v-3.43Z" transform="translate(-297.444 -378.383)" fill="#597285"/>
  <path id="Path_194566" data-name="Path 194566" d="M312.408,265.953h24.456c1.333,0,1.615.281,1.615,1.609q0,6.65,0,13.3c0,1.208-.314,1.52-1.526,1.52h-49.09c-1.213,0-1.525-.311-1.525-1.52q0-6.694,0-13.388c0-1.21.31-1.519,1.525-1.519Zm-23.877,2.165v12.07h47.754v-12.07Z" transform="translate(-269.908 -234.524)" fill="#050506"/>
  <path id="Path_194567" data-name="Path 194567" d="M373.195,166.678c.586,0,1.059-.006,1.533,0,.935.015,1.32.367,1.322,1.273.009,3.689,0,7.378,0,11.067a1.075,1.075,0,0,1-1.191,1.228q-7.72.006-15.44,0a1.075,1.075,0,0,1-1.224-1.2q-.006-5.578,0-11.156a1.077,1.077,0,0,1,1.2-1.218c.528,0,1.056,0,1.606,0a38.474,38.474,0,0,1,.207-3.868,6.067,6.067,0,0,1,11.981,1.2C373.208,164.868,373.195,165.726,373.195,166.678Zm-12.831,11.373h13.49v-9.175h-13.49Zm10.687-11.408c0-.925.022-1.756,0-2.586a3.911,3.911,0,0,0-7.7-.876,15.519,15.519,0,0,0-.145,3.463Z" transform="translate(-324.625 -152.393)" fill="#050506"/>
  <path id="Path_194568" data-name="Path 194568" d="M295.537,275.03h47.754V287.1H295.537Zm29.637,4.629c-.566-.588-.969-1.025-1.392-1.44a1.073,1.073,0,1,0-1.516,1.511c.436.435.9.841,1.472,1.372-.56.5-1.012.878-1.438,1.286a1.078,1.078,0,1,0,1.515,1.515c.42-.444.784-.941,1.228-1.482.618.658,1.012,1.1,1.434,1.52a1.073,1.073,0,1,0,1.5-1.528c-.438-.43-.912-.824-1.471-1.323.593-.539,1.048-.92,1.465-1.339a1.074,1.074,0,1,0-1.53-1.5C326.028,278.67,325.651,279.125,325.174,279.659Zm11.35.021c-.49-.551-.867-1.006-1.278-1.428a1.028,1.028,0,0,0-1.634-.063,1.016,1.016,0,0,0,.109,1.57c.445.422.923.808,1.463,1.276-.616.573-1.062.965-1.481,1.384a1.073,1.073,0,1,0,1.507,1.52c.436-.434.84-.9,1.366-1.468.5.563.883,1.016,1.293,1.439a1.078,1.078,0,1,0,1.507-1.523c-.447-.415-.954-.764-1.506-1.2.693-.65,1.142-1.041,1.555-1.467a1.069,1.069,0,1,0-1.519-1.5C337.481,278.63,337.09,279.078,336.524,279.68Zm-34.321,2.8c.571.594.955,1.007,1.354,1.406a1.041,1.041,0,0,0,1.639.089,1.055,1.055,0,0,0-.138-1.641c-.417-.409-.848-.8-1.342-1.272.463-.423.825-.731,1.16-1.065.713-.711.8-1.338.279-1.838-.5-.476-1.106-.392-1.77.287-.349.357-.651.76-1.037,1.216-.546-.56-.947-.991-1.369-1.4a1.078,1.078,0,1,0-1.514,1.529c.41.42.838.822,1.339,1.311-.523.495-.986.907-1.419,1.349a1.067,1.067,0,1,0,1.51,1.506C301.334,283.525,301.719,283.035,302.2,282.482Zm11.462-2.8c-.443-.506-.811-.961-1.217-1.38a1.082,1.082,0,1,0-1.534,1.511c.412.414.843.809,1.317,1.261-.528.508-.962.91-1.379,1.331a1.019,1.019,0,0,0-.074,1.573,1.007,1.007,0,0,0,1.57-.041c.437-.434.839-.9,1.382-1.493.522.591.911,1.077,1.348,1.516a1.066,1.066,0,1,0,1.5-1.513c-.437-.438-.929-.819-1.534-1.344.614-.556,1.091-.951,1.524-1.39a.991.991,0,0,0,.045-1.507,1,1,0,0,0-1.57.01C314.62,278.636,314.229,279.084,313.665,279.687Z" transform="translate(-276.914 -241.436)" fill="#fff"/>
  <path id="Path_194569" data-name="Path 194569" d="M367.286,212.484v-9.175h13.49v9.175Zm8.188-4.551a1.428,1.428,0,1,0-1.422,1.391A1.417,1.417,0,0,0,375.474,207.933Z" transform="translate(-331.547 -186.825)" fill="#fda000"/>
  <path id="Path_194570" data-name="Path 194570" d="M386.957,173.505h-7.847a15.53,15.53,0,0,1,.145-3.463,3.911,3.911,0,0,1,7.7.876C386.979,171.749,386.957,172.581,386.957,173.505Z" transform="translate(-340.531 -159.255)" fill="#e0f0fc"/>
  <path id="Path_194571" data-name="Path 194571" d="M409.2,288.548c.477-.533.854-.988,1.267-1.409a1.074,1.074,0,1,1,1.53,1.5c-.416.419-.871.8-1.465,1.339.559.5,1.033.893,1.471,1.323a1.073,1.073,0,1,1-1.5,1.528c-.422-.416-.816-.862-1.434-1.52-.444.541-.809,1.037-1.228,1.482a1.078,1.078,0,1,1-1.515-1.515c.425-.408.878-.788,1.438-1.287-.572-.531-1.037-.937-1.472-1.372a1.073,1.073,0,1,1,1.516-1.511C408.234,287.523,408.636,287.96,409.2,288.548Z" transform="translate(-360.942 -250.325)" fill="#050506"/>
  <path id="Path_194572" data-name="Path 194572" d="M457.027,288.562c.565-.6.957-1.049,1.382-1.463a1.069,1.069,0,1,1,1.519,1.5c-.413.425-.861.816-1.555,1.467.551.434,1.059.783,1.506,1.2a1.078,1.078,0,1,1-1.507,1.523c-.41-.424-.79-.876-1.293-1.439-.526.568-.93,1.034-1.366,1.468a1.073,1.073,0,1,1-1.507-1.52c.419-.419.865-.811,1.481-1.384-.539-.467-1.018-.854-1.463-1.276a1.016,1.016,0,0,1-.109-1.57,1.028,1.028,0,0,1,1.634.063C456.161,287.556,456.537,288.012,457.027,288.562Z" transform="translate(-397.417 -250.319)" fill="#050506"/>
  <path id="Path_194573" data-name="Path 194573" d="M313.291,291.517c-.484.553-.869,1.043-1.308,1.478a1.067,1.067,0,1,1-1.51-1.506c.433-.442.9-.855,1.419-1.349-.5-.489-.93-.891-1.339-1.311a1.078,1.078,0,1,1,1.514-1.529c.422.408.823.839,1.369,1.4.385-.456.687-.859,1.037-1.216.664-.679,1.274-.763,1.77-.287.522.5.434,1.128-.279,1.838-.335.334-.7.642-1.16,1.065.494.468.925.863,1.342,1.272a1.055,1.055,0,0,1,.138,1.641,1.041,1.041,0,0,1-1.639-.089C314.246,292.524,313.862,292.111,313.291,291.517Z" transform="translate(-288.002 -250.471)" fill="#050506"/>
  <path id="Path_194574" data-name="Path 194574" d="M361.234,288.65c.564-.6.956-1.051,1.38-1.466a1,1,0,0,1,1.57-.01.991.991,0,0,1-.045,1.507c-.434.439-.911.834-1.524,1.39.6.525,1.1.907,1.534,1.344a1.066,1.066,0,1,1-1.5,1.513c-.437-.439-.826-.924-1.348-1.516-.543.589-.946,1.058-1.382,1.493a1.007,1.007,0,0,1-1.57.041,1.019,1.019,0,0,1,.074-1.573c.417-.42.851-.823,1.379-1.33-.474-.452-.9-.848-1.317-1.261a1.082,1.082,0,1,1,1.534-1.511C360.423,287.688,360.791,288.144,361.234,288.65Z" transform="translate(-324.483 -250.399)" fill="#050506"/>
  <path id="Path_194575" data-name="Path 194575" d="M392.5,218.013a1.428,1.428,0,1,1-1.346-1.463A1.419,1.419,0,0,1,392.5,218.013Z" transform="translate(-348.568 -196.905)" fill="#050506"/>
</svg>
