<svg xmlns="http://www.w3.org/2000/svg" xmlns:xlink="http://www.w3.org/1999/xlink" width="400" height="204" viewBox="0 0 400 204">
  <defs>
    <clipPath id="clip-path">
      <rect id="Rectangle_297894" data-name="Rectangle 297894" width="400" height="204" transform="translate(-10620 -12207)" fill="none" stroke="red" stroke-width="1"/>
    </clipPath>
  </defs>
  <g id="_1" data-name="1" transform="translate(10620 12207)" clip-path="url(#clip-path)">
    <g id="Server-rafiki" transform="translate(-10699 -12289.608)">
      <g id="freepik--background-complete--inject-86" transform="translate(0 55)">
        <rect id="Rectangle_297712" data-name="Rectangle 297712" width="558" height="0.279" transform="translate(0 365.378)" fill="#e0e0e0"/>
        <rect id="Rectangle_297713" data-name="Rectangle 297713" width="54.271" height="0.279" transform="translate(100.998 378.056)" fill="#e0e0e0"/>
        <rect id="Rectangle_297714" data-name="Rectangle 297714" width="14.274" height="0.279" transform="translate(74.649 378.201)" fill="#e0e0e0"/>
        <rect id="Rectangle_297715" data-name="Rectangle 297715" width="16.707" height="0.279" transform="translate(217.308 376.326)" fill="#e0e0e0"/>
        <rect id="Rectangle_297716" data-name="Rectangle 297716" width="68.322" height="0.279" transform="translate(240.431 376.326)" fill="#e0e0e0"/>
        <rect id="Rectangle_297717" data-name="Rectangle 297717" width="63.366" height="0.279" transform="translate(406.101 378.48)" fill="#e0e0e0"/>
        <rect id="Rectangle_297718" data-name="Rectangle 297718" width="16.785" height="0.279" transform="translate(383.112 378.48)" fill="#e0e0e0"/>
        <rect id="Rectangle_297719" data-name="Rectangle 297719" width="14.385" height="0.279" transform="translate(486.208 373.447)" fill="#e0e0e0"/>
        <path id="Path_207186" data-name="Path 207186" d="M260.06,370.6H44.571a6.372,6.372,0,0,1-6.361-6.372V61.317A6.372,6.372,0,0,1,44.571,55H260.06a6.372,6.372,0,0,1,6.372,6.372v302.86A6.372,6.372,0,0,1,260.06,370.6ZM44.571,55.223a6.093,6.093,0,0,0-6.082,6.093V364.232a6.093,6.093,0,0,0,6.082,6.093H260.06a6.1,6.1,0,0,0,6.093-6.093V61.317a6.1,6.1,0,0,0-6.093-6.093Z" transform="translate(4.432 -55)" fill="#e0e0e0"/>
        <path id="Path_207187" data-name="Path 207187" d="M476.372,370.6h-215.5a6.384,6.384,0,0,1-6.372-6.372V61.317A6.384,6.384,0,0,1,260.872,55h215.5a6.372,6.372,0,0,1,6.35,6.317V364.232A6.372,6.372,0,0,1,476.372,370.6ZM260.872,55.223a6.1,6.1,0,0,0-6.093,6.093V364.232a6.1,6.1,0,0,0,6.093,6.093h215.5a6.1,6.1,0,0,0,6.093-6.093V61.317a6.1,6.1,0,0,0-6.093-6.093Z" transform="translate(29.522 -55)" fill="#e0e0e0"/>
        <path id="Path_207188" data-name="Path 207188" d="M509.427,389.256H432.535a3.136,3.136,0,0,1-3.136-3.125V183.946a2.578,2.578,0,0,0-2.578-2.578H418.73v-.558h8.113a3.136,3.136,0,0,1,3.136,3.136V386.132a2.578,2.578,0,0,0,2.578,2.567h76.87Z" transform="translate(48.573 -40.406)" fill="#e0e0e0"/>
        <path id="Path_207189" data-name="Path 207189" d="M509.427,385.6H435.146a3.136,3.136,0,0,1-3.136-3.136V180.326a2.578,2.578,0,0,0-2.567-2.578H418.73v-.558h10.714a3.136,3.136,0,0,1,3.125,3.136V382.467a2.589,2.589,0,0,0,2.578,2.578h74.281Z" transform="translate(48.573 -40.826)" fill="#e0e0e0"/>
        <path id="Path_207190" data-name="Path 207190" d="M509.427,381.948h-71.67a3.136,3.136,0,0,1-3.136-3.136V176.626a2.578,2.578,0,0,0-2.567-2.578H418.73v-.558h13.325a3.136,3.136,0,0,1,3.125,3.136V378.812a2.589,2.589,0,0,0,2.578,2.578h71.67Z" transform="translate(48.573 -41.255)" fill="#e0e0e0"/>
        <path id="Path_207191" data-name="Path 207191" d="M509.427,378.286H440.369a3.136,3.136,0,0,1-3.125-3.136V172.965a2.578,2.578,0,0,0-2.578-2.567H418.73v-.558h15.925a3.136,3.136,0,0,1,3.136,3.125V375.15a2.578,2.578,0,0,0,2.567,2.578h69.069Z" transform="translate(48.573 -41.679)" fill="#e0e0e0"/>
        <path id="Path_207192" data-name="Path 207192" d="M509.427,374.67H442.981a3.136,3.136,0,0,1-3.125-3.136V169.326a2.578,2.578,0,0,0-2.578-2.578H418.73v-.558h18.548a3.136,3.136,0,0,1,3.136,3.136V371.489a2.578,2.578,0,0,0,2.567,2.578h66.447Z" transform="translate(48.573 -42.102)" fill="#e0e0e0"/>
        <path id="Path_207193" data-name="Path 207193" d="M509.432,370.966H445.608a3.136,3.136,0,0,1-3.136-3.136V165.656a2.578,2.578,0,0,0-2.578-2.578h-21.2v-.558h21.2a3.136,3.136,0,0,1,3.136,3.136V367.83a2.567,2.567,0,0,0,2.578,2.578h63.824Z" transform="translate(48.568 -42.528)" fill="#e0e0e0"/>
        <path id="Path_207194" data-name="Path 207194" d="M509.427,367.306H448.215a3.136,3.136,0,0,1-3.136-3.125V162a2.589,2.589,0,0,0-2.578-2.578H418.73v-.558h23.737A3.136,3.136,0,0,1,445.6,162V364.182a2.567,2.567,0,0,0,2.578,2.567h61.246Z" transform="translate(48.573 -42.952)" fill="#e0e0e0"/>
        <rect id="Rectangle_297720" data-name="Rectangle 297720" width="68.969" height="0.558" transform="translate(242.217 160.726)" fill="#e0e0e0"/>
        <rect id="Rectangle_297721" data-name="Rectangle 297721" width="68.969" height="0.558" transform="translate(242.217 156.642)" fill="#e0e0e0"/>
        <rect id="Rectangle_297722" data-name="Rectangle 297722" width="68.969" height="0.558" transform="translate(242.217 152.557)" fill="#e0e0e0"/>
        <rect id="Rectangle_297723" data-name="Rectangle 297723" width="68.969" height="0.558" transform="translate(242.217 148.473)" fill="#e0e0e0"/>
        <rect id="Rectangle_297724" data-name="Rectangle 297724" width="68.969" height="0.558" transform="translate(242.217 144.399)" fill="#e0e0e0"/>
        <rect id="Rectangle_297725" data-name="Rectangle 297725" width="68.969" height="0.558" transform="translate(242.217 140.315)" fill="#e0e0e0"/>
        <rect id="Rectangle_297726" data-name="Rectangle 297726" width="68.969" height="0.558" transform="translate(242.217 136.23)" fill="#e0e0e0"/>
        <rect id="Rectangle_297727" data-name="Rectangle 297727" width="68.969" height="0.558" transform="translate(242.217 299.066)" fill="#e0e0e0"/>
        <rect id="Rectangle_297728" data-name="Rectangle 297728" width="68.969" height="0.558" transform="translate(242.217 294.981)" fill="#e0e0e0"/>
        <rect id="Rectangle_297729" data-name="Rectangle 297729" width="68.969" height="0.558" transform="translate(242.217 290.897)" fill="#e0e0e0"/>
        <rect id="Rectangle_297730" data-name="Rectangle 297730" width="68.969" height="0.558" transform="translate(242.217 286.812)" fill="#e0e0e0"/>
        <rect id="Rectangle_297731" data-name="Rectangle 297731" width="68.969" height="0.558" transform="translate(242.217 282.727)" fill="#e0e0e0"/>
        <rect id="Rectangle_297732" data-name="Rectangle 297732" width="68.969" height="0.558" transform="translate(242.217 278.654)" fill="#e0e0e0"/>
        <rect id="Rectangle_297733" data-name="Rectangle 297733" width="68.969" height="0.558" transform="translate(242.217 274.569)" fill="#e0e0e0"/>
        <path id="Path_207195" data-name="Path 207195" d="M102.608,371.435H75.824a3.136,3.136,0,0,1-3.136-3.092V166.125a2.567,2.567,0,0,0-2.567-2.578H38.46V163H70.121a3.125,3.125,0,0,1,3.125,3.136V368.344a2.578,2.578,0,0,0,2.578,2.578h26.784Z" transform="translate(4.461 -42.472)" fill="#e0e0e0"/>
        <path id="Path_207196" data-name="Path 207196" d="M102.6,375.1h-29.4a3.136,3.136,0,0,1-3.136-3.136V169.786a2.567,2.567,0,0,0-2.567-2.578H38.49v-.558H67.506a3.136,3.136,0,0,1,3.125,3.136V371.96a2.578,2.578,0,0,0,2.578,2.578h29.4Z" transform="translate(4.465 -42.049)" fill="#e0e0e0"/>
        <path id="Path_207197" data-name="Path 207197" d="M102.608,378.756H70.6a3.136,3.136,0,0,1-3.136-3.136V173.435a2.567,2.567,0,0,0-2.567-2.567H38.46v-.558H64.9a3.136,3.136,0,0,1,3.125,3.125V375.62A2.589,2.589,0,0,0,70.6,378.2h32.007Z" transform="translate(4.461 -41.624)" fill="#e0e0e0"/>
        <path id="Path_207198" data-name="Path 207198" d="M102.608,382.413h-34.6a3.136,3.136,0,0,1-3.136-3.136V177.091a2.578,2.578,0,0,0-2.578-2.578H38.46V174H62.275a3.136,3.136,0,0,1,3.136,3.136V379.277a2.589,2.589,0,0,0,2.578,2.578h34.6Z" transform="translate(4.461 -41.196)" fill="#e0e0e0"/>
        <path id="Path_207199" data-name="Path 207199" d="M102.608,386.078H65.378a3.136,3.136,0,0,1-3.136-3.136V180.756a2.578,2.578,0,0,0-2.578-2.578H38.46v-.558h21.2a3.136,3.136,0,0,1,3.136,3.136V382.942a2.589,2.589,0,0,0,2.578,2.578h37.23Z" transform="translate(4.461 -40.776)" fill="#e0e0e0"/>
        <path id="Path_207200" data-name="Path 207200" d="M102.608,389.726H62.766a3.136,3.136,0,0,1-3.136-3.125V184.416a2.589,2.589,0,0,0-2.578-2.578H38.46v-.558H57.053a3.136,3.136,0,0,1,3.136,3.136V386.6a2.578,2.578,0,0,0,2.578,2.567h39.841Z" transform="translate(4.461 -40.351)" fill="#e0e0e0"/>
        <path id="Path_207201" data-name="Path 207201" d="M102.608,393.386H60.2a3.136,3.136,0,0,1-3.136-3.125V188.076a2.589,2.589,0,0,0-2.578-2.578H38.46v-.558H54.441a3.136,3.136,0,0,1,3.136,3.136V390.262a2.567,2.567,0,0,0,2.578,2.567h42.408Z" transform="translate(4.461 -39.927)" fill="#e0e0e0"/>
        <rect id="Rectangle_297734" data-name="Rectangle 297734" width="113.229" height="16.796" transform="translate(107.069 348.571)" fill="#ebebeb"/>
        <rect id="Rectangle_297735" data-name="Rectangle 297735" width="22.967" height="16.796" transform="translate(243.266 365.378) rotate(180)" fill="#e0e0e0"/>
        <rect id="Rectangle_297736" data-name="Rectangle 297736" width="120.896" height="296.823" transform="translate(99.402 51.76)" fill="#f5f5f5"/>
        <rect id="Rectangle_297737" data-name="Rectangle 297737" width="131.219" height="2.533" transform="translate(109.558 49.216)" fill="#ebebeb"/>
        <rect id="Rectangle_297738" data-name="Rectangle 297738" width="30.623" height="296.823" transform="translate(250.921 348.571) rotate(180)" fill="#ebebeb"/>
        <rect id="Rectangle_297739" data-name="Rectangle 297739" width="113.687" height="32.52" transform="translate(103.007 55.309)" fill="#ebebeb"/>
        <rect id="Rectangle_297740" data-name="Rectangle 297740" width="113.687" height="32.52" transform="translate(103.007 312.313)" fill="#ebebeb"/>
        <rect id="Rectangle_297741" data-name="Rectangle 297741" width="113.687" height="32.52" transform="translate(103.007 275.596)" fill="#ebebeb"/>
        <rect id="Rectangle_297742" data-name="Rectangle 297742" width="113.687" height="32.52" transform="translate(103.007 238.891)" fill="#ebebeb"/>
        <rect id="Rectangle_297743" data-name="Rectangle 297743" width="113.687" height="32.52" transform="translate(103.007 202.175)" fill="#ebebeb"/>
        <rect id="Rectangle_297744" data-name="Rectangle 297744" width="113.687" height="32.52" transform="translate(103.007 165.458)" fill="#ebebeb"/>
        <rect id="Rectangle_297745" data-name="Rectangle 297745" width="113.687" height="32.52" transform="translate(103.007 128.742)" fill="#ebebeb"/>
        <rect id="Rectangle_297746" data-name="Rectangle 297746" width="113.687" height="32.52" transform="translate(103.007 92.025)" fill="#ebebeb"/>
        <rect id="Rectangle_297747" data-name="Rectangle 297747" width="31.65" height="23.235" rx="4.25" transform="translate(180.602 59.963)" fill="#fff" opacity="0.7"/>
        <rect id="Rectangle_297748" data-name="Rectangle 297748" width="5.937" height="5.948" rx="1.28" transform="translate(208.558 68.612) rotate(90)" fill="#f5f5f5"/>
        <rect id="Rectangle_297749" data-name="Rectangle 297749" width="31.65" height="23.235" rx="4.25" transform="translate(180.602 96.668)" fill="#fff" opacity="0.7"/>
        <rect id="Rectangle_297750" data-name="Rectangle 297750" width="5.937" height="5.948" rx="1.28" transform="translate(208.558 105.328) rotate(90)" fill="#f5f5f5"/>
        <rect id="Rectangle_297751" data-name="Rectangle 297751" width="31.65" height="23.235" rx="4.25" transform="translate(180.602 133.384)" fill="#fff" opacity="0.7"/>
        <rect id="Rectangle_297752" data-name="Rectangle 297752" width="5.937" height="5.948" rx="1.28" transform="translate(208.558 142.044) rotate(90)" fill="#f5f5f5"/>
        <rect id="Rectangle_297753" data-name="Rectangle 297753" width="31.65" height="23.235" rx="4.25" transform="translate(180.602 170.101)" fill="#fff" opacity="0.7"/>
        <rect id="Rectangle_297754" data-name="Rectangle 297754" width="5.937" height="5.948" rx="1.28" transform="translate(208.558 178.75) rotate(90)" fill="#f5f5f5"/>
        <rect id="Rectangle_297755" data-name="Rectangle 297755" width="31.65" height="23.235" rx="4.25" transform="translate(180.602 206.817)" fill="#fff" opacity="0.7"/>
        <rect id="Rectangle_297756" data-name="Rectangle 297756" width="5.937" height="5.948" rx="1.28" transform="translate(208.558 215.466) rotate(90)" fill="#f5f5f5"/>
        <rect id="Rectangle_297757" data-name="Rectangle 297757" width="31.65" height="23.235" rx="4.25" transform="translate(180.602 243.534)" fill="#fff" opacity="0.7"/>
        <rect id="Rectangle_297758" data-name="Rectangle 297758" width="5.937" height="5.948" rx="1.28" transform="translate(208.558 252.183) rotate(90)" fill="#f5f5f5"/>
        <rect id="Rectangle_297759" data-name="Rectangle 297759" width="31.65" height="23.235" rx="4.25" transform="translate(180.602 280.25)" fill="#fff" opacity="0.7"/>
        <rect id="Rectangle_297760" data-name="Rectangle 297760" width="5.937" height="5.948" rx="1.28" transform="translate(208.558 288.899) rotate(90)" fill="#f5f5f5"/>
        <rect id="Rectangle_297761" data-name="Rectangle 297761" width="31.65" height="23.235" rx="4.25" transform="translate(180.602 316.955)" fill="#fff" opacity="0.7"/>
        <rect id="Rectangle_297762" data-name="Rectangle 297762" width="5.937" height="5.948" rx="1.28" transform="translate(208.558 325.615) rotate(90)" fill="#f5f5f5"/>
        <rect id="Rectangle_297763" data-name="Rectangle 297763" width="5.937" height="5.948" rx="1.28" transform="translate(199.396 68.601) rotate(90)" fill="#f5f5f5"/>
        <rect id="Rectangle_297764" data-name="Rectangle 297764" width="5.937" height="5.948" rx="1.28" transform="translate(199.396 105.317) rotate(90)" fill="#f5f5f5"/>
        <rect id="Rectangle_297765" data-name="Rectangle 297765" width="5.937" height="5.948" rx="1.28" transform="translate(199.396 142.033) rotate(90)" fill="#f5f5f5"/>
        <rect id="Rectangle_297766" data-name="Rectangle 297766" width="5.937" height="5.948" rx="1.28" transform="translate(199.396 178.75) rotate(90)" fill="#f5f5f5"/>
        <rect id="Rectangle_297767" data-name="Rectangle 297767" width="5.937" height="5.948" rx="1.28" transform="translate(199.407 215.466) rotate(90)" fill="#f5f5f5"/>
        <rect id="Rectangle_297768" data-name="Rectangle 297768" width="5.937" height="5.948" rx="1.28" transform="translate(199.407 252.183) rotate(90)" fill="#f5f5f5"/>
        <rect id="Rectangle_297769" data-name="Rectangle 297769" width="5.937" height="5.948" rx="1.28" transform="translate(199.396 288.888) rotate(90)" fill="#f5f5f5"/>
        <rect id="Rectangle_297770" data-name="Rectangle 297770" width="5.937" height="5.948" rx="1.28" transform="translate(199.396 325.604) rotate(90)" fill="#f5f5f5"/>
        <circle id="Ellipse_12967" data-name="Ellipse 12967" cx="3.75" cy="3.75" r="3.75" transform="translate(165.436 67.819)" fill="#f5f5f5"/>
        <path id="Path_207202" data-name="Path 207202" d="M146.142,119.52a3.761,3.761,0,1,1-3.761-3.75,3.761,3.761,0,0,1,3.761,3.75Z" transform="translate(16.08 -47.951)" fill="#f5f5f5"/>
        <path id="Path_207203" data-name="Path 207203" d="M136.532,119.52a3.761,3.761,0,1,1-3.761-3.75,3.761,3.761,0,0,1,3.761,3.75Z" transform="translate(14.965 -47.951)" fill="#f5f5f5"/>
        <circle id="Ellipse_12968" data-name="Ellipse 12968" cx="3.75" cy="3.75" r="3.75" transform="translate(133.262 67.819)" fill="#f5f5f5"/>
        <circle id="Ellipse_12969" data-name="Ellipse 12969" cx="3.75" cy="3.75" r="3.75" transform="translate(165.436 104.536)" fill="#f5f5f5"/>
        <path id="Path_207204" data-name="Path 207204" d="M146.142,152.39a3.761,3.761,0,1,1-3.761-3.75A3.761,3.761,0,0,1,146.142,152.39Z" transform="translate(16.08 -44.138)" fill="#f5f5f5"/>
        <path id="Path_207205" data-name="Path 207205" d="M136.532,152.39a3.761,3.761,0,1,1-3.761-3.75,3.761,3.761,0,0,1,3.761,3.75Z" transform="translate(14.965 -44.138)" fill="#f5f5f5"/>
        <circle id="Ellipse_12970" data-name="Ellipse 12970" cx="3.75" cy="3.75" r="3.75" transform="translate(133.262 104.536)" fill="#f5f5f5"/>
        <path id="Path_207206" data-name="Path 207206" d="M155.782,185.32a3.75,3.75,0,1,1-1.1-2.655,3.761,3.761,0,0,1,1.1,2.655Z" transform="translate(17.198 -40.318)" fill="#f5f5f5"/>
        <path id="Path_207207" data-name="Path 207207" d="M146.142,185.32a3.75,3.75,0,1,1-1.1-2.655A3.761,3.761,0,0,1,146.142,185.32Z" transform="translate(16.08 -40.318)" fill="#f5f5f5"/>
        <path id="Path_207208" data-name="Path 207208" d="M136.532,185.32a3.75,3.75,0,1,1-1.1-2.655A3.761,3.761,0,0,1,136.532,185.32Z" transform="translate(14.965 -40.318)" fill="#f5f5f5"/>
        <path id="Path_207209" data-name="Path 207209" d="M126.922,185.32a3.75,3.75,0,1,1-1.1-2.655,3.761,3.761,0,0,1,1.1,2.655Z" transform="translate(13.85 -40.318)" fill="#f5f5f5"/>
        <path id="Path_207210" data-name="Path 207210" d="M155.782,218.22a3.75,3.75,0,1,1-1.1-2.655,3.761,3.761,0,0,1,1.1,2.655Z" transform="translate(17.198 -36.501)" fill="#f5f5f5"/>
        <path id="Path_207211" data-name="Path 207211" d="M146.142,218.22a3.75,3.75,0,1,1-1.1-2.655A3.761,3.761,0,0,1,146.142,218.22Z" transform="translate(16.08 -36.501)" fill="#f5f5f5"/>
        <path id="Path_207212" data-name="Path 207212" d="M136.532,218.22a3.75,3.75,0,1,1-1.1-2.655A3.761,3.761,0,0,1,136.532,218.22Z" transform="translate(14.965 -36.501)" fill="#f5f5f5"/>
        <path id="Path_207213" data-name="Path 207213" d="M126.922,218.22a3.75,3.75,0,1,1-1.1-2.655,3.761,3.761,0,0,1,1.1,2.655Z" transform="translate(13.85 -36.501)" fill="#f5f5f5"/>
        <path id="Path_207214" data-name="Path 207214" d="M155.782,251.121a3.75,3.75,0,1,1-1.1-2.663,3.761,3.761,0,0,1,1.1,2.663Z" transform="translate(17.198 -32.686)" fill="#f5f5f5"/>
        <path id="Path_207215" data-name="Path 207215" d="M146.142,251.121a3.75,3.75,0,1,1-1.1-2.663A3.761,3.761,0,0,1,146.142,251.121Z" transform="translate(16.08 -32.686)" fill="#f5f5f5"/>
        <path id="Path_207216" data-name="Path 207216" d="M136.532,251.121a3.75,3.75,0,1,1-1.1-2.663,3.761,3.761,0,0,1,1.1,2.663Z" transform="translate(14.965 -32.686)" fill="#f5f5f5"/>
        <path id="Path_207217" data-name="Path 207217" d="M126.922,251.121a3.75,3.75,0,1,1-1.1-2.663A3.761,3.761,0,0,1,126.922,251.121Z" transform="translate(13.85 -32.686)" fill="#f5f5f5"/>
        <path id="Path_207218" data-name="Path 207218" d="M155.782,284.021a3.761,3.761,0,1,1-3.761-3.761A3.761,3.761,0,0,1,155.782,284.021Z" transform="translate(17.198 -28.87)" fill="#f5f5f5"/>
        <path id="Path_207219" data-name="Path 207219" d="M146.142,284.021a3.761,3.761,0,1,1-3.761-3.761A3.761,3.761,0,0,1,146.142,284.021Z" transform="translate(16.08 -28.87)" fill="#f5f5f5"/>
        <path id="Path_207220" data-name="Path 207220" d="M136.532,284.021a3.761,3.761,0,1,1-3.761-3.761,3.761,3.761,0,0,1,3.761,3.761Z" transform="translate(14.965 -28.87)" fill="#f5f5f5"/>
        <path id="Path_207221" data-name="Path 207221" d="M126.922,284.021a3.761,3.761,0,1,1-3.761-3.761A3.761,3.761,0,0,1,126.922,284.021Z" transform="translate(13.85 -28.87)" fill="#f5f5f5"/>
        <circle id="Ellipse_12971" data-name="Ellipse 12971" cx="3.75" cy="3.75" r="3.75" transform="translate(165.436 288.107)" fill="#f5f5f5"/>
        <path id="Path_207222" data-name="Path 207222" d="M146.142,316.91a3.761,3.761,0,1,1-3.761-3.75,3.761,3.761,0,0,1,3.761,3.75Z" transform="translate(16.08 -25.053)" fill="#f5f5f5"/>
        <path id="Path_207223" data-name="Path 207223" d="M136.532,316.91a3.761,3.761,0,1,1-3.761-3.75,3.761,3.761,0,0,1,3.761,3.75Z" transform="translate(14.965 -25.053)" fill="#f5f5f5"/>
        <circle id="Ellipse_12972" data-name="Ellipse 12972" cx="3.75" cy="3.75" r="3.75" transform="translate(133.262 288.107)" fill="#f5f5f5"/>
        <circle id="Ellipse_12973" data-name="Ellipse 12973" cx="3.75" cy="3.75" r="3.75" transform="translate(165.436 324.823)" fill="#f5f5f5"/>
        <path id="Path_207224" data-name="Path 207224" d="M146.142,349.81a3.761,3.761,0,1,1-3.761-3.75A3.761,3.761,0,0,1,146.142,349.81Z" transform="translate(16.08 -21.237)" fill="#f5f5f5"/>
        <path id="Path_207225" data-name="Path 207225" d="M136.532,349.81a3.761,3.761,0,1,1-3.761-3.75,3.761,3.761,0,0,1,3.761,3.75Z" transform="translate(14.965 -21.237)" fill="#f5f5f5"/>
        <circle id="Ellipse_12974" data-name="Ellipse 12974" cx="3.75" cy="3.75" r="3.75" transform="translate(133.262 324.823)" fill="#f5f5f5"/>
        <circle id="Ellipse_12975" data-name="Ellipse 12975" cx="8.136" cy="8.136" r="8.136" transform="translate(109.513 63.433)" fill="#e0e0e0"/>
        <circle id="Ellipse_12976" data-name="Ellipse 12976" cx="8.136" cy="8.136" r="8.136" transform="translate(109.513 100.15)" fill="#e0e0e0"/>
        <circle id="Ellipse_12977" data-name="Ellipse 12977" cx="8.136" cy="8.136" r="8.136" transform="translate(108.324 151.746) rotate(-80.8)" fill="#e0e0e0"/>
        <circle id="Ellipse_12978" data-name="Ellipse 12978" cx="8.136" cy="8.136" r="8.136" transform="translate(108.321 188.462) rotate(-80.8)" fill="#e0e0e0"/>
        <circle id="Ellipse_12979" data-name="Ellipse 12979" cx="8.136" cy="8.136" r="8.136" transform="translate(107.014 214.025) rotate(-22.39)" fill="#e0e0e0"/>
        <circle id="Ellipse_12980" data-name="Ellipse 12980" cx="8.136" cy="8.136" r="8.136" transform="translate(107.005 250.741) rotate(-22.39)" fill="#e0e0e0"/>
        <circle id="Ellipse_12981" data-name="Ellipse 12981" cx="8.136" cy="8.136" r="8.136" transform="translate(109.513 283.721)" fill="#e0e0e0"/>
        <circle id="Ellipse_12982" data-name="Ellipse 12982" cx="8.136" cy="8.136" r="8.136" transform="translate(109.513 320.437)" fill="#e0e0e0"/>
        <rect id="Rectangle_297771" data-name="Rectangle 297771" width="130.918" height="15.412" transform="translate(307.313 349.966)" fill="#ebebeb"/>
        <rect id="Rectangle_297772" data-name="Rectangle 297772" width="21.807" height="15.412" transform="translate(460.038 365.378) rotate(180)" fill="#e0e0e0"/>
        <rect id="Rectangle_297773" data-name="Rectangle 297773" width="138.183" height="272.237" transform="translate(300.037 77.729)" fill="#f5f5f5"/>
        <rect id="Rectangle_297774" data-name="Rectangle 297774" width="147.982" height="2.332" transform="translate(309.679 75.397)" fill="#ebebeb"/>
        <rect id="Rectangle_297775" data-name="Rectangle 297775" width="29.083" height="272.237" transform="translate(467.303 349.966) rotate(180)" fill="#ebebeb"/>
        <rect id="Rectangle_297776" data-name="Rectangle 297776" width="131.342" height="29.831" transform="translate(434.805 110.819) rotate(180)" fill="#ebebeb"/>
        <rect id="Rectangle_297777" data-name="Rectangle 297777" width="131.342" height="29.831" transform="translate(434.805 346.54) rotate(180)" fill="#ebebeb"/>
        <rect id="Rectangle_297778" data-name="Rectangle 297778" width="131.342" height="29.831" transform="translate(434.805 312.859) rotate(180)" fill="#ebebeb"/>
        <rect id="Rectangle_297779" data-name="Rectangle 297779" width="131.342" height="29.831" transform="translate(434.805 279.19) rotate(180)" fill="#ebebeb"/>
        <rect id="Rectangle_297780" data-name="Rectangle 297780" width="131.342" height="29.831" transform="translate(434.805 245.509) rotate(180)" fill="#ebebeb"/>
        <rect id="Rectangle_297781" data-name="Rectangle 297781" width="131.342" height="29.831" transform="translate(434.805 211.85) rotate(180)" fill="#ebebeb"/>
        <rect id="Rectangle_297782" data-name="Rectangle 297782" width="131.342" height="29.831" transform="translate(434.805 178.169) rotate(180)" fill="#ebebeb"/>
        <rect id="Rectangle_297783" data-name="Rectangle 297783" width="131.342" height="29.831" transform="translate(434.805 144.5) rotate(180)" fill="#ebebeb"/>
        <rect id="Rectangle_297784" data-name="Rectangle 297784" width="72.082" height="21.304" rx="3.97" transform="translate(379.752 106.556) rotate(180)" fill="#e0e0e0"/>
        <rect id="Rectangle_297785" data-name="Rectangle 297785" width="5.446" height="5.647" rx="1.19" transform="translate(316.821 93.186) rotate(90)" fill="#f5f5f5"/>
        <rect id="Rectangle_297786" data-name="Rectangle 297786" width="72.082" height="21.304" rx="3.97" transform="translate(379.752 140.237) rotate(180)" fill="#e0e0e0"/>
        <rect id="Rectangle_297787" data-name="Rectangle 297787" width="5.446" height="5.647" rx="1.19" transform="translate(316.832 126.856) rotate(90)" fill="#f5f5f5"/>
        <rect id="Rectangle_297788" data-name="Rectangle 297788" width="72.082" height="21.304" rx="3.97" transform="translate(379.752 173.906) rotate(180)" fill="#e0e0e0"/>
        <rect id="Rectangle_297789" data-name="Rectangle 297789" width="5.446" height="5.647" rx="1.19" transform="translate(316.832 160.537) rotate(90)" fill="#f5f5f5"/>
        <rect id="Rectangle_297790" data-name="Rectangle 297790" width="72.082" height="21.304" rx="3.97" transform="translate(379.752 207.587) rotate(180)" fill="#e0e0e0"/>
        <rect id="Rectangle_297791" data-name="Rectangle 297791" width="5.446" height="5.647" rx="1.19" transform="translate(316.821 194.206) rotate(90)" fill="#f5f5f5"/>
        <rect id="Rectangle_297792" data-name="Rectangle 297792" width="72.082" height="21.304" rx="3.97" transform="translate(379.752 241.257) rotate(180)" fill="#e0e0e0"/>
        <rect id="Rectangle_297793" data-name="Rectangle 297793" width="5.446" height="5.647" rx="1.19" transform="translate(316.832 227.876) rotate(90)" fill="#f5f5f5"/>
        <rect id="Rectangle_297794" data-name="Rectangle 297794" width="72.082" height="21.304" rx="3.97" transform="translate(379.752 274.927) rotate(180)" fill="#e0e0e0"/>
        <rect id="Rectangle_297795" data-name="Rectangle 297795" width="5.446" height="5.647" rx="1.19" transform="translate(316.821 261.557) rotate(90)" fill="#f5f5f5"/>
        <rect id="Rectangle_297796" data-name="Rectangle 297796" width="72.082" height="21.304" rx="3.97" transform="translate(379.752 308.608) rotate(180)" fill="#e0e0e0"/>
        <rect id="Rectangle_297797" data-name="Rectangle 297797" width="5.446" height="5.647" rx="1.19" transform="translate(316.832 295.227) rotate(90)" fill="#f5f5f5"/>
        <rect id="Rectangle_297798" data-name="Rectangle 297798" width="72.082" height="21.304" rx="3.97" transform="translate(379.752 342.277) rotate(180)" fill="#e0e0e0"/>
        <rect id="Rectangle_297799" data-name="Rectangle 297799" width="5.446" height="5.647" rx="1.19" transform="translate(316.832 328.908) rotate(90)" fill="#f5f5f5"/>
        <rect id="Rectangle_297800" data-name="Rectangle 297800" width="5.446" height="5.647" rx="1.19" transform="translate(325.515 93.186) rotate(90)" fill="#f5f5f5"/>
        <rect id="Rectangle_297801" data-name="Rectangle 297801" width="5.446" height="5.647" rx="1.19" transform="translate(325.526 126.856) rotate(90)" fill="#f5f5f5"/>
        <rect id="Rectangle_297802" data-name="Rectangle 297802" width="5.446" height="5.647" rx="1.19" transform="translate(325.526 160.537) rotate(90)" fill="#f5f5f5"/>
        <rect id="Rectangle_297803" data-name="Rectangle 297803" width="5.446" height="5.647" rx="1.19" transform="translate(325.526 194.206) rotate(90)" fill="#f5f5f5"/>
        <rect id="Rectangle_297804" data-name="Rectangle 297804" width="5.446" height="5.647" rx="1.19" transform="translate(325.526 227.876) rotate(90)" fill="#f5f5f5"/>
        <rect id="Rectangle_297805" data-name="Rectangle 297805" width="5.446" height="5.647" rx="1.19" transform="translate(325.515 261.557) rotate(90)" fill="#f5f5f5"/>
        <rect id="Rectangle_297806" data-name="Rectangle 297806" width="5.446" height="5.647" rx="1.19" transform="translate(325.526 295.227) rotate(90)" fill="#f5f5f5"/>
        <rect id="Rectangle_297807" data-name="Rectangle 297807" width="5.446" height="5.647" rx="1.19" transform="translate(325.526 328.908) rotate(90)" fill="#f5f5f5"/>
        <rect id="Rectangle_297808" data-name="Rectangle 297808" width="5.446" height="5.647" rx="1.19" transform="translate(334.209 93.186) rotate(90)" fill="#f5f5f5"/>
        <rect id="Rectangle_297809" data-name="Rectangle 297809" width="5.446" height="5.647" rx="1.19" transform="translate(334.22 126.856) rotate(90)" fill="#f5f5f5"/>
        <rect id="Rectangle_297810" data-name="Rectangle 297810" width="5.446" height="5.647" rx="1.19" transform="translate(334.22 160.525) rotate(90)" fill="#f5f5f5"/>
        <rect id="Rectangle_297811" data-name="Rectangle 297811" width="5.446" height="5.647" rx="1.19" transform="translate(334.22 194.206) rotate(90)" fill="#f5f5f5"/>
        <rect id="Rectangle_297812" data-name="Rectangle 297812" width="5.446" height="5.647" rx="1.19" transform="translate(334.22 227.876) rotate(90)" fill="#f5f5f5"/>
        <rect id="Rectangle_297813" data-name="Rectangle 297813" width="5.446" height="5.647" rx="1.19" transform="translate(334.209 261.557) rotate(90)" fill="#f5f5f5"/>
        <rect id="Rectangle_297814" data-name="Rectangle 297814" width="5.446" height="5.647" rx="1.19" transform="translate(334.22 295.227) rotate(90)" fill="#f5f5f5"/>
        <rect id="Rectangle_297815" data-name="Rectangle 297815" width="5.446" height="5.647" rx="1.19" transform="translate(334.22 328.896) rotate(90)" fill="#f5f5f5"/>
        <rect id="Rectangle_297816" data-name="Rectangle 297816" width="5.446" height="5.647" rx="1.19" transform="translate(342.913 93.186) rotate(90)" fill="#f5f5f5"/>
        <rect id="Rectangle_297817" data-name="Rectangle 297817" width="5.446" height="5.647" rx="1.19" transform="translate(342.913 126.856) rotate(90)" fill="#f5f5f5"/>
        <rect id="Rectangle_297818" data-name="Rectangle 297818" width="5.446" height="5.647" rx="1.19" transform="translate(342.913 160.525) rotate(90)" fill="#f5f5f5"/>
        <rect id="Rectangle_297819" data-name="Rectangle 297819" width="5.446" height="5.647" rx="1.19" transform="translate(342.913 194.206) rotate(90)" fill="#f5f5f5"/>
        <rect id="Rectangle_297820" data-name="Rectangle 297820" width="5.446" height="5.647" rx="1.19" transform="translate(342.913 227.876) rotate(90)" fill="#f5f5f5"/>
        <rect id="Rectangle_297821" data-name="Rectangle 297821" width="5.446" height="5.647" rx="1.19" transform="translate(342.913 261.557) rotate(90)" fill="#f5f5f5"/>
        <rect id="Rectangle_297822" data-name="Rectangle 297822" width="5.446" height="5.647" rx="1.19" transform="translate(342.913 295.227) rotate(90)" fill="#f5f5f5"/>
        <rect id="Rectangle_297823" data-name="Rectangle 297823" width="5.446" height="5.647" rx="1.19" transform="translate(342.913 328.896) rotate(90)" fill="#f5f5f5"/>
        <path id="Path_207226" data-name="Path 207226" d="M346.8,141.3a3.571,3.571,0,1,0,3.571-3.448A3.5,3.5,0,0,0,346.8,141.3Z" transform="translate(40.229 -45.389)" fill="#f5f5f5"/>
        <path id="Path_207227" data-name="Path 207227" d="M355.93,141.3a3.571,3.571,0,1,0,3.56-3.448,3.5,3.5,0,0,0-3.56,3.448Z" transform="translate(41.288 -45.389)" fill="#f5f5f5"/>
        <path id="Path_207228" data-name="Path 207228" d="M365.05,141.3a3.571,3.571,0,1,0,3.571-3.448,3.5,3.5,0,0,0-3.571,3.448Z" transform="translate(42.346 -45.389)" fill="#f5f5f5"/>
        <path id="Path_207229" data-name="Path 207229" d="M374.18,141.3a3.56,3.56,0,1,0,3.56-3.448,3.5,3.5,0,0,0-3.56,3.448Z" transform="translate(43.405 -45.389)" fill="#f5f5f5"/>
        <path id="Path_207230" data-name="Path 207230" d="M346.8,171.471A3.571,3.571,0,1,0,350.371,168a3.5,3.5,0,0,0-3.571,3.471Z" transform="translate(40.229 -41.892)" fill="#f5f5f5"/>
        <path id="Path_207231" data-name="Path 207231" d="M355.93,171.468a3.571,3.571,0,1,0,3.56-3.448,3.5,3.5,0,0,0-3.56,3.448Z" transform="translate(41.288 -41.89)" fill="#f5f5f5"/>
        <path id="Path_207232" data-name="Path 207232" d="M365.05,171.468a3.571,3.571,0,1,0,3.571-3.448,3.5,3.5,0,0,0-3.571,3.448Z" transform="translate(42.346 -41.89)" fill="#f5f5f5"/>
        <path id="Path_207233" data-name="Path 207233" d="M374.18,171.468a3.56,3.56,0,1,0,3.56-3.448,3.5,3.5,0,0,0-3.56,3.448Z" transform="translate(43.405 -41.89)" fill="#f5f5f5"/>
        <path id="Path_207234" data-name="Path 207234" d="M346.8,201.637a3.571,3.571,0,1,0,3.571-3.437A3.5,3.5,0,0,0,346.8,201.637Z" transform="translate(40.229 -38.389)" fill="#f5f5f5"/>
        <path id="Path_207235" data-name="Path 207235" d="M355.93,201.637a3.571,3.571,0,1,0,3.56-3.437,3.5,3.5,0,0,0-3.56,3.437Z" transform="translate(41.288 -38.389)" fill="#f5f5f5"/>
        <path id="Path_207236" data-name="Path 207236" d="M365.05,201.637a3.571,3.571,0,1,0,3.571-3.437A3.5,3.5,0,0,0,365.05,201.637Z" transform="translate(42.346 -38.389)" fill="#f5f5f5"/>
        <path id="Path_207237" data-name="Path 207237" d="M374.18,201.637a3.56,3.56,0,1,0,3.56-3.437,3.5,3.5,0,0,0-3.56,3.437Z" transform="translate(43.405 -38.389)" fill="#f5f5f5"/>
        <path id="Path_207238" data-name="Path 207238" d="M346.8,231.818a3.571,3.571,0,1,0,3.571-3.448,3.5,3.5,0,0,0-3.571,3.448Z" transform="translate(40.229 -34.889)" fill="#f5f5f5"/>
        <path id="Path_207239" data-name="Path 207239" d="M355.93,231.818a3.571,3.571,0,1,0,3.56-3.448,3.5,3.5,0,0,0-3.56,3.448Z" transform="translate(41.288 -34.889)" fill="#f5f5f5"/>
        <path id="Path_207240" data-name="Path 207240" d="M365.05,231.818a3.571,3.571,0,1,0,3.571-3.448,3.5,3.5,0,0,0-3.571,3.448Z" transform="translate(42.346 -34.889)" fill="#f5f5f5"/>
        <path id="Path_207241" data-name="Path 207241" d="M374.18,231.818a3.56,3.56,0,1,0,3.56-3.448,3.5,3.5,0,0,0-3.56,3.448Z" transform="translate(43.405 -34.889)" fill="#f5f5f5"/>
        <path id="Path_207242" data-name="Path 207242" d="M346.8,261.987a3.571,3.571,0,1,0,3.571-3.437A3.5,3.5,0,0,0,346.8,261.987Z" transform="translate(40.229 -31.388)" fill="#f5f5f5"/>
        <path id="Path_207243" data-name="Path 207243" d="M355.93,261.987a3.571,3.571,0,1,0,3.56-3.437,3.5,3.5,0,0,0-3.56,3.437Z" transform="translate(41.288 -31.388)" fill="#f5f5f5"/>
        <path id="Path_207244" data-name="Path 207244" d="M365.05,261.987a3.571,3.571,0,1,0,3.571-3.437A3.5,3.5,0,0,0,365.05,261.987Z" transform="translate(42.346 -31.388)" fill="#f5f5f5"/>
        <path id="Path_207245" data-name="Path 207245" d="M374.18,261.987a3.56,3.56,0,1,0,3.56-3.437,3.5,3.5,0,0,0-3.56,3.437Z" transform="translate(43.405 -31.388)" fill="#f5f5f5"/>
        <path id="Path_207246" data-name="Path 207246" d="M346.8,292.168a3.571,3.571,0,1,0,3.571-3.448,3.5,3.5,0,0,0-3.571,3.448Z" transform="translate(40.229 -27.889)" fill="#f5f5f5"/>
        <path id="Path_207247" data-name="Path 207247" d="M355.93,292.168a3.571,3.571,0,1,0,3.56-3.448,3.5,3.5,0,0,0-3.56,3.448Z" transform="translate(41.288 -27.889)" fill="#f5f5f5"/>
        <path id="Path_207248" data-name="Path 207248" d="M365.05,292.168a3.571,3.571,0,1,0,3.571-3.448,3.5,3.5,0,0,0-3.571,3.448Z" transform="translate(42.346 -27.889)" fill="#f5f5f5"/>
        <path id="Path_207249" data-name="Path 207249" d="M374.18,292.168a3.56,3.56,0,1,0,3.56-3.448,3.5,3.5,0,0,0-3.56,3.448Z" transform="translate(43.405 -27.888)" fill="#f5f5f5"/>
        <path id="Path_207250" data-name="Path 207250" d="M346.8,322.357a3.571,3.571,0,1,0,3.571-3.437,3.5,3.5,0,0,0-3.571,3.437Z" transform="translate(40.229 -24.385)" fill="#f5f5f5"/>
        <path id="Path_207251" data-name="Path 207251" d="M355.93,322.357a3.571,3.571,0,1,0,3.56-3.437,3.5,3.5,0,0,0-3.56,3.437Z" transform="translate(41.288 -24.385)" fill="#f5f5f5"/>
        <path id="Path_207252" data-name="Path 207252" d="M365.05,322.357a3.571,3.571,0,1,0,3.571-3.437,3.5,3.5,0,0,0-3.571,3.437Z" transform="translate(42.346 -24.385)" fill="#f5f5f5"/>
        <path id="Path_207253" data-name="Path 207253" d="M374.18,322.357a3.56,3.56,0,1,0,3.56-3.437,3.5,3.5,0,0,0-3.56,3.437Z" transform="translate(43.405 -24.385)" fill="#f5f5f5"/>
        <path id="Path_207254" data-name="Path 207254" d="M346.8,352.507a3.571,3.571,0,1,0,3.571-3.437A3.5,3.5,0,0,0,346.8,352.507Z" transform="translate(40.229 -20.888)" fill="#f5f5f5"/>
        <path id="Path_207255" data-name="Path 207255" d="M355.93,352.507a3.571,3.571,0,1,0,3.56-3.437,3.5,3.5,0,0,0-3.56,3.437Z" transform="translate(41.288 -20.888)" fill="#f5f5f5"/>
        <path id="Path_207256" data-name="Path 207256" d="M365.05,352.507a3.571,3.571,0,1,0,3.571-3.437A3.5,3.5,0,0,0,365.05,352.507Z" transform="translate(42.346 -20.888)" fill="#f5f5f5"/>
        <path id="Path_207257" data-name="Path 207257" d="M374.18,352.507a3.56,3.56,0,1,0,3.56-3.437,3.5,3.5,0,0,0-3.56,3.437Z" transform="translate(43.405 -20.888)" fill="#f5f5f5"/>
      </g>
      <g id="freepik--Shadow--inject-86" transform="translate(62.619 445.511)">
        <ellipse id="Ellipse_12983" data-name="Ellipse 12983" cx="216.381" cy="12.633" rx="216.381" ry="12.633" fill="#f5f5f5"/>
      </g>
      <g id="freepik--Device--inject-86" transform="translate(112.783 178.909)">
        <rect id="Rectangle_297824" data-name="Rectangle 297824" width="130.494" height="14.887" transform="translate(19.887 265.351)" fill="#084a93"/>
        <rect id="Rectangle_297825" data-name="Rectangle 297825" width="130.494" height="14.887" transform="translate(19.887 265.351)" opacity="0.3"/>
        <rect id="Rectangle_297826" data-name="Rectangle 297826" width="3.27" height="10.658" transform="translate(23.28 267.472)" fill="#263238"/>
        <rect id="Rectangle_297827" data-name="Rectangle 297827" width="3.27" height="10.658" transform="translate(29.016 267.472)" fill="#263238"/>
        <rect id="Rectangle_297828" data-name="Rectangle 297828" width="3.27" height="10.658" transform="translate(34.763 267.472)" fill="#263238"/>
        <rect id="Rectangle_297829" data-name="Rectangle 297829" width="3.27" height="10.658" transform="translate(40.5 267.472)" fill="#263238"/>
        <rect id="Rectangle_297830" data-name="Rectangle 297830" width="3.27" height="10.658" transform="translate(46.236 267.472)" fill="#263238"/>
        <rect id="Rectangle_297831" data-name="Rectangle 297831" width="3.27" height="10.658" transform="translate(51.972 267.472)" fill="#263238"/>
        <rect id="Rectangle_297832" data-name="Rectangle 297832" width="3.27" height="10.658" transform="translate(57.72 267.472)" fill="#263238"/>
        <rect id="Rectangle_297833" data-name="Rectangle 297833" width="3.27" height="10.658" transform="translate(63.456 267.472)" fill="#263238"/>
        <rect id="Rectangle_297834" data-name="Rectangle 297834" width="3.27" height="10.658" transform="translate(69.192 267.472)" fill="#263238"/>
        <rect id="Rectangle_297835" data-name="Rectangle 297835" width="3.27" height="10.658" transform="translate(74.928 267.472)" fill="#263238"/>
        <rect id="Rectangle_297836" data-name="Rectangle 297836" width="3.27" height="10.658" transform="translate(80.664 267.472)" fill="#263238"/>
        <rect id="Rectangle_297837" data-name="Rectangle 297837" width="3.27" height="10.658" transform="translate(86.412 267.472)" fill="#263238"/>
        <rect id="Rectangle_297838" data-name="Rectangle 297838" width="3.27" height="10.658" transform="translate(92.148 267.472)" fill="#263238"/>
        <rect id="Rectangle_297839" data-name="Rectangle 297839" width="3.27" height="10.658" transform="translate(97.884 267.472)" fill="#263238"/>
        <rect id="Rectangle_297840" data-name="Rectangle 297840" width="3.27" height="10.658" transform="translate(103.621 267.472)" fill="#263238"/>
        <rect id="Rectangle_297841" data-name="Rectangle 297841" width="3.27" height="10.658" transform="translate(109.368 267.472)" fill="#263238"/>
        <rect id="Rectangle_297842" data-name="Rectangle 297842" width="3.27" height="10.658" transform="translate(115.104 267.472)" fill="#263238"/>
        <rect id="Rectangle_297843" data-name="Rectangle 297843" width="3.27" height="10.658" transform="translate(120.84 267.472)" fill="#263238"/>
        <rect id="Rectangle_297844" data-name="Rectangle 297844" width="3.27" height="10.658" transform="translate(126.577 267.472)" fill="#263238"/>
        <rect id="Rectangle_297845" data-name="Rectangle 297845" width="3.27" height="10.658" transform="translate(132.324 267.472)" fill="#263238"/>
        <rect id="Rectangle_297846" data-name="Rectangle 297846" width="3.27" height="10.658" transform="translate(138.06 267.472)" fill="#263238"/>
        <rect id="Rectangle_297847" data-name="Rectangle 297847" width="3.27" height="10.658" transform="translate(143.797 267.472)" fill="#263238"/>
        <rect id="Rectangle_297848" data-name="Rectangle 297848" width="20.356" height="14.887" transform="translate(170.748 280.25) rotate(180)" fill="#263238"/>
        <rect id="Rectangle_297849" data-name="Rectangle 297849" width="137.29" height="263.097" transform="translate(13.102 2.254)" fill="#084a93"/>
        <rect id="Rectangle_297850" data-name="Rectangle 297850" width="137.29" height="263.097" transform="translate(13.102 2.254)" fill="#fff" opacity="0.3"/>
        <rect id="Rectangle_297851" data-name="Rectangle 297851" width="146.43" height="2.254" transform="translate(22.097)" fill="#263238"/>
        <rect id="Rectangle_297852" data-name="Rectangle 297852" width="1.116" height="11.082" transform="translate(7.656 124.847)" fill="#084a93"/>
        <rect id="Rectangle_297853" data-name="Rectangle 297853" width="1.116" height="28.826" transform="translate(7.656 139.656)" fill="#084a93"/>
        <rect id="Rectangle_297854" data-name="Rectangle 297854" width="27.152" height="263.097" transform="translate(177.533 265.351) rotate(180)" fill="#084a93"/>
        <rect id="Rectangle_297855" data-name="Rectangle 297855" width="130.896" height="26.114" rx="3.27" transform="translate(16.294 71.848)" fill="#084a93" opacity="0.6"/>
        <rect id="Rectangle_297856" data-name="Rectangle 297856" width="130.896" height="26.114" rx="3.27" transform="translate(16.294 71.848)" opacity="0.2"/>
        <path id="Path_207258" data-name="Path 207258" d="M223.629,240.132,218.35,229.24v28.748H234.7V243.6h-5.468a6.216,6.216,0,0,1-5.6-3.471Z" transform="translate(-87.454 -158.698)" fill="#084a93"/>
        <rect id="Rectangle_297857" data-name="Rectangle 297857" width="130.896" height="28.826" transform="translate(16.294 5.401)" fill="#084a93"/>
        <rect id="Rectangle_297858" data-name="Rectangle 297858" width="130.896" height="28.826" transform="translate(16.294 5.401)" fill="#fff" opacity="0.2"/>
        <rect id="Rectangle_297859" data-name="Rectangle 297859" width="130.896" height="28.826" transform="translate(16.294 233.211)" fill="#084a93"/>
        <rect id="Rectangle_297860" data-name="Rectangle 297860" width="130.896" height="28.826" transform="translate(16.294 233.211)" fill="#fff" opacity="0.2"/>
        <rect id="Rectangle_297861" data-name="Rectangle 297861" width="130.896" height="28.826" transform="translate(16.294 200.668)" fill="#084a93"/>
        <rect id="Rectangle_297862" data-name="Rectangle 297862" width="130.896" height="28.826" transform="translate(16.294 200.668)" fill="#fff" opacity="0.2"/>
        <rect id="Rectangle_297863" data-name="Rectangle 297863" width="130.896" height="28.826" transform="translate(16.294 168.125)" fill="#084a93"/>
        <rect id="Rectangle_297864" data-name="Rectangle 297864" width="130.896" height="28.826" transform="translate(16.294 168.125)" fill="#fff" opacity="0.2"/>
        <rect id="Rectangle_297865" data-name="Rectangle 297865" width="130.896" height="28.826" transform="translate(16.294 135.583)" fill="#084a93"/>
        <rect id="Rectangle_297866" data-name="Rectangle 297866" width="130.896" height="28.826" transform="translate(16.294 135.583)" fill="#fff" opacity="0.2"/>
        <rect id="Rectangle_297867" data-name="Rectangle 297867" width="130.896" height="28.826" transform="translate(16.294 103.04)" fill="#084a93"/>
        <rect id="Rectangle_297868" data-name="Rectangle 297868" width="130.896" height="28.826" transform="translate(16.294 103.04)" fill="#fff" opacity="0.2"/>
        <rect id="Rectangle_297869" data-name="Rectangle 297869" width="130.896" height="28.826" transform="translate(0 70.498)" fill="#084a93"/>
        <rect id="Rectangle_297870" data-name="Rectangle 297870" width="130.896" height="28.826" transform="translate(0 70.498)" fill="#fff" opacity="0.2"/>
        <rect id="Rectangle_297871" data-name="Rectangle 297871" width="130.896" height="28.826" transform="translate(16.294 37.944)" fill="#084a93"/>
        <rect id="Rectangle_297872" data-name="Rectangle 297872" width="130.896" height="28.826" transform="translate(16.294 37.944)" fill="#fff" opacity="0.2"/>
        <rect id="Rectangle_297873" data-name="Rectangle 297873" width="58.177" height="20.59" rx="3.77" transform="translate(85.073 9.519)" fill="#084a93"/>
        <rect id="Rectangle_297874" data-name="Rectangle 297874" width="5.268" height="19.697" rx="1.6" transform="translate(135.583 17.186) rotate(90)" fill="#fff" opacity="0.2"/>
        <rect id="Rectangle_297875" data-name="Rectangle 297875" width="58.177" height="20.59" rx="3.77" transform="translate(85.073 42.062)" fill="#084a93"/>
        <rect id="Rectangle_297876" data-name="Rectangle 297876" width="5.268" height="19.697" rx="1.6" transform="translate(135.583 49.729) rotate(90)" fill="#fff" opacity="0.2"/>
        <rect id="Rectangle_297877" data-name="Rectangle 297877" width="58.177" height="20.59" rx="3.77" transform="translate(68.779 74.616)" fill="#084a93"/>
        <rect id="Rectangle_297878" data-name="Rectangle 297878" width="5.268" height="19.697" rx="1.6" transform="translate(119.289 82.272) rotate(90)" fill="#fff" opacity="0.2"/>
        <rect id="Rectangle_297879" data-name="Rectangle 297879" width="58.177" height="20.59" rx="3.77" transform="translate(85.073 107.158)" fill="#084a93"/>
        <rect id="Rectangle_297880" data-name="Rectangle 297880" width="5.268" height="19.697" rx="1.6" transform="translate(135.583 114.814) rotate(90)" fill="#fff" opacity="0.2"/>
        <rect id="Rectangle_297881" data-name="Rectangle 297881" width="58.177" height="20.59" rx="3.77" transform="translate(85.073 139.701)" fill="#084a93"/>
        <rect id="Rectangle_297882" data-name="Rectangle 297882" width="5.268" height="19.697" rx="1.6" transform="translate(135.583 147.357) rotate(90)" fill="#fff" opacity="0.2"/>
        <rect id="Rectangle_297883" data-name="Rectangle 297883" width="58.177" height="20.59" rx="3.77" transform="translate(85.073 172.243)" fill="#084a93"/>
        <rect id="Rectangle_297884" data-name="Rectangle 297884" width="5.268" height="19.697" rx="1.6" transform="translate(135.583 179.899) rotate(90)" fill="#fff" opacity="0.2"/>
        <rect id="Rectangle_297885" data-name="Rectangle 297885" width="58.177" height="20.59" rx="3.77" transform="translate(85.073 204.786)" fill="#084a93"/>
        <rect id="Rectangle_297886" data-name="Rectangle 297886" width="5.268" height="19.697" rx="1.6" transform="translate(135.583 212.453) rotate(90)" fill="#fff" opacity="0.2"/>
        <rect id="Rectangle_297887" data-name="Rectangle 297887" width="58.177" height="20.59" rx="3.77" transform="translate(85.073 237.329)" fill="#084a93"/>
        <rect id="Rectangle_297888" data-name="Rectangle 297888" width="5.268" height="19.697" rx="1.6" transform="translate(135.594 244.995) rotate(90)" fill="#fff" opacity="0.2"/>
        <circle id="Ellipse_12984" data-name="Ellipse 12984" cx="3.326" cy="3.326" r="3.326" transform="translate(71.625 16.494)" fill="#084a93"/>
        <circle id="Ellipse_12985" data-name="Ellipse 12985" cx="3.326" cy="3.326" r="3.326" transform="translate(62.117 16.494)" fill="#084a93"/>
        <circle id="Ellipse_12986" data-name="Ellipse 12986" cx="3.326" cy="3.326" r="3.326" transform="translate(52.619 16.494)" fill="#084a93"/>
        <circle id="Ellipse_12987" data-name="Ellipse 12987" cx="3.326" cy="3.326" r="3.326" transform="translate(52.619 16.494)" fill="#fff" opacity="0.4"/>
        <path id="Path_207259" data-name="Path 207259" d="M146.346,184.138A3.348,3.348,0,1,1,143,180.79,3.348,3.348,0,0,1,146.346,184.138Z" transform="translate(-96.584 -164.318)" fill="#084a93"/>
        <circle id="Ellipse_12988" data-name="Ellipse 12988" cx="3.326" cy="3.326" r="3.326" transform="translate(71.625 49.037)" fill="#084a93"/>
        <circle id="Ellipse_12989" data-name="Ellipse 12989" cx="3.326" cy="3.326" r="3.326" transform="translate(62.117 49.037)" fill="#084a93"/>
        <circle id="Ellipse_12990" data-name="Ellipse 12990" cx="3.326" cy="3.326" r="3.326" transform="translate(52.619 49.037)" fill="#084a93"/>
        <path id="Path_207260" data-name="Path 207260" d="M146.346,213.348A3.348,3.348,0,1,1,143,210,3.348,3.348,0,0,1,146.346,213.348Z" transform="translate(-96.584 -160.929)" fill="#084a93"/>
        <path id="Path_207261" data-name="Path 207261" d="M146.346,213.348A3.348,3.348,0,1,1,143,210,3.348,3.348,0,0,1,146.346,213.348Z" transform="translate(-96.584 -160.929)" fill="#fff" opacity="0.4"/>
        <circle id="Ellipse_12991" data-name="Ellipse 12991" cx="3.326" cy="3.326" r="3.326" transform="translate(55.331 81.58)" fill="#084a93"/>
        <circle id="Ellipse_12992" data-name="Ellipse 12992" cx="3.326" cy="3.326" r="3.326" transform="translate(55.331 81.58)" fill="#fff" opacity="0.4"/>
        <circle id="Ellipse_12993" data-name="Ellipse 12993" cx="3.326" cy="3.326" r="3.326" transform="translate(45.823 81.58)" fill="#084a93"/>
        <circle id="Ellipse_12994" data-name="Ellipse 12994" cx="3.326" cy="3.326" r="3.326" transform="translate(36.326 81.58)" fill="#084a93"/>
        <circle id="Ellipse_12995" data-name="Ellipse 12995" cx="3.326" cy="3.326" r="3.326" transform="translate(36.326 81.58)" fill="#fff" opacity="0.4"/>
        <circle id="Ellipse_12996" data-name="Ellipse 12996" cx="3.326" cy="3.326" r="3.326" transform="translate(26.817 81.58)" fill="#084a93"/>
        <circle id="Ellipse_12997" data-name="Ellipse 12997" cx="3.326" cy="3.326" r="3.326" transform="translate(71.625 114.122)" fill="#084a93"/>
        <circle id="Ellipse_12998" data-name="Ellipse 12998" cx="3.326" cy="3.326" r="3.326" transform="translate(71.625 114.122)" fill="#fff" opacity="0.4"/>
        <circle id="Ellipse_12999" data-name="Ellipse 12999" cx="3.326" cy="3.326" r="3.326" transform="translate(62.117 114.122)" fill="#084a93"/>
        <circle id="Ellipse_13000" data-name="Ellipse 13000" cx="3.326" cy="3.326" r="3.326" transform="translate(62.117 114.122)" fill="#fff" opacity="0.4"/>
        <circle id="Ellipse_13001" data-name="Ellipse 13001" cx="3.326" cy="3.326" r="3.326" transform="translate(52.619 114.122)" fill="#084a93"/>
        <path id="Path_207262" data-name="Path 207262" d="M146.346,271.618A3.348,3.348,0,1,1,143,268.27,3.348,3.348,0,0,1,146.346,271.618Z" transform="translate(-96.584 -154.17)" fill="#084a93"/>
        <circle id="Ellipse_13002" data-name="Ellipse 13002" cx="3.326" cy="3.326" r="3.326" transform="translate(71.625 146.665)" fill="#084a93"/>
        <circle id="Ellipse_13003" data-name="Ellipse 13003" cx="3.326" cy="3.326" r="3.326" transform="translate(62.117 146.665)" fill="#084a93"/>
        <circle id="Ellipse_13004" data-name="Ellipse 13004" cx="3.326" cy="3.326" r="3.326" transform="translate(62.117 146.665)" fill="#fff" opacity="0.4"/>
        <circle id="Ellipse_13005" data-name="Ellipse 13005" cx="3.326" cy="3.326" r="3.326" transform="translate(52.619 146.665)" fill="#084a93"/>
        <path id="Path_207263" data-name="Path 207263" d="M146.346,300.778A3.348,3.348,0,1,1,143,297.43,3.348,3.348,0,0,1,146.346,300.778Z" transform="translate(-96.584 -150.788)" fill="#084a93"/>
        <circle id="Ellipse_13006" data-name="Ellipse 13006" cx="3.326" cy="3.326" r="3.326" transform="translate(71.625 179.207)" fill="#084a93"/>
        <circle id="Ellipse_13007" data-name="Ellipse 13007" cx="3.326" cy="3.326" r="3.326" transform="translate(62.117 179.207)" fill="#084a93"/>
        <circle id="Ellipse_13008" data-name="Ellipse 13008" cx="3.326" cy="3.326" r="3.326" transform="translate(52.619 179.207)" fill="#084a93"/>
        <circle id="Ellipse_13009" data-name="Ellipse 13009" cx="3.326" cy="3.326" r="3.326" transform="translate(52.619 179.207)" fill="#fff" opacity="0.4"/>
        <path id="Path_207264" data-name="Path 207264" d="M146.346,329.938A3.348,3.348,0,1,1,143,326.59,3.348,3.348,0,0,1,146.346,329.938Z" transform="translate(-96.584 -147.405)" fill="#084a93"/>
        <path id="Path_207265" data-name="Path 207265" d="M146.346,329.938A3.348,3.348,0,1,1,143,326.59,3.348,3.348,0,0,1,146.346,329.938Z" transform="translate(-96.584 -147.405)" fill="#fff" opacity="0.4"/>
        <path id="Path_207266" data-name="Path 207266" d="M171.9,359.108a3.348,3.348,0,1,1-3.348-3.348A3.348,3.348,0,0,1,171.9,359.108Z" transform="translate(-93.62 -144.021)" fill="#084a93"/>
        <path id="Path_207267" data-name="Path 207267" d="M171.9,359.108a3.348,3.348,0,1,1-3.348-3.348A3.348,3.348,0,0,1,171.9,359.108Z" transform="translate(-93.62 -144.021)" fill="#fff" opacity="0.4"/>
        <path id="Path_207268" data-name="Path 207268" d="M163.386,359.108a3.348,3.348,0,1,1-3.348-3.348A3.348,3.348,0,0,1,163.386,359.108Z" transform="translate(-94.607 -144.021)" fill="#084a93"/>
        <path id="Path_207269" data-name="Path 207269" d="M154.866,359.108a3.348,3.348,0,1,1-3.348-3.348A3.348,3.348,0,0,1,154.866,359.108Z" transform="translate(-95.595 -144.021)" fill="#084a93"/>
        <path id="Path_207270" data-name="Path 207270" d="M146.346,359.108A3.348,3.348,0,1,1,143,355.76,3.348,3.348,0,0,1,146.346,359.108Z" transform="translate(-96.584 -144.021)" fill="#084a93"/>
        <circle id="Ellipse_13010" data-name="Ellipse 13010" cx="3.326" cy="3.326" r="3.326" transform="translate(71.625 244.304)" fill="#084a93"/>
        <circle id="Ellipse_13011" data-name="Ellipse 13011" cx="3.326" cy="3.326" r="3.326" transform="translate(62.117 244.304)" fill="#084a93"/>
        <circle id="Ellipse_13012" data-name="Ellipse 13012" cx="3.326" cy="3.326" r="3.326" transform="translate(52.619 244.304)" fill="#084a93"/>
        <circle id="Ellipse_13013" data-name="Ellipse 13013" cx="3.326" cy="3.326" r="3.326" transform="translate(52.619 244.304)" fill="#fff" opacity="0.4"/>
        <path id="Path_207271" data-name="Path 207271" d="M146.346,388.268A3.348,3.348,0,1,1,143,384.92,3.348,3.348,0,0,1,146.346,388.268Z" transform="translate(-96.584 -140.639)" fill="#084a93"/>
        <path id="Path_207272" data-name="Path 207272" d="M135.239,184.539a7.209,7.209,0,1,1-7.2-7.209A7.209,7.209,0,0,1,135.239,184.539Z" transform="translate(-98.768 -164.719)" fill="#084a93"/>
        <path id="Path_207273" data-name="Path 207273" d="M135.239,184.539a7.209,7.209,0,1,1-7.2-7.209A7.209,7.209,0,0,1,135.239,184.539Z" transform="translate(-98.768 -164.719)" fill="#fff" opacity="0.4"/>
        <path id="Path_207274" data-name="Path 207274" d="M135.239,213.749a7.209,7.209,0,1,1-7.2-7.209,7.209,7.209,0,0,1,7.2,7.209Z" transform="translate(-98.768 -161.331)" fill="#084a93"/>
        <path id="Path_207275" data-name="Path 207275" d="M135.239,213.749a7.209,7.209,0,1,1-7.2-7.209,7.209,7.209,0,0,1,7.2,7.209Z" transform="translate(-98.768 -161.331)" fill="#fff" opacity="0.4"/>
        <path id="Path_207276" data-name="Path 207276" d="M120.639,242.859a7.209,7.209,0,1,1-7.2-7.209A7.209,7.209,0,0,1,120.639,242.859Z" transform="translate(-100.461 -157.954)" fill="#084a93"/>
        <path id="Path_207277" data-name="Path 207277" d="M120.639,242.859a7.209,7.209,0,1,1-7.2-7.209A7.209,7.209,0,0,1,120.639,242.859Z" transform="translate(-100.461 -157.954)" fill="#fff" opacity="0.4"/>
        <path id="Path_207278" data-name="Path 207278" d="M135.239,272.019a7.209,7.209,0,1,1-7.2-7.209A7.209,7.209,0,0,1,135.239,272.019Z" transform="translate(-98.768 -154.572)" fill="#084a93"/>
        <path id="Path_207279" data-name="Path 207279" d="M135.239,272.019a7.209,7.209,0,1,1-7.2-7.209A7.209,7.209,0,0,1,135.239,272.019Z" transform="translate(-98.768 -154.572)" fill="#fff" opacity="0.4"/>
        <path id="Path_207280" data-name="Path 207280" d="M135.239,301.178a7.209,7.209,0,1,1-7.2-7.2,7.209,7.209,0,0,1,7.2,7.2Z" transform="translate(-98.768 -151.188)" fill="#084a93"/>
        <path id="Path_207281" data-name="Path 207281" d="M135.239,301.178a7.209,7.209,0,1,1-7.2-7.2,7.209,7.209,0,0,1,7.2,7.2Z" transform="translate(-98.768 -151.188)" fill="#fff" opacity="0.4"/>
        <path id="Path_207282" data-name="Path 207282" d="M135.239,330.338a7.209,7.209,0,1,1-7.2-7.2,7.209,7.209,0,0,1,7.2,7.2Z" transform="translate(-98.768 -147.805)" fill="#084a93"/>
        <path id="Path_207283" data-name="Path 207283" d="M135.239,330.338a7.209,7.209,0,1,1-7.2-7.2,7.209,7.209,0,0,1,7.2,7.2Z" transform="translate(-98.768 -147.805)" fill="#fff" opacity="0.4"/>
        <path id="Path_207284" data-name="Path 207284" d="M135.239,359.509a7.2,7.2,0,1,1-2.1-5.1A7.209,7.209,0,0,1,135.239,359.509Z" transform="translate(-98.768 -144.423)" fill="#084a93"/>
        <path id="Path_207285" data-name="Path 207285" d="M135.239,359.509a7.2,7.2,0,1,1-2.1-5.1A7.209,7.209,0,0,1,135.239,359.509Z" transform="translate(-98.768 -144.423)" fill="#fff" opacity="0.4"/>
        <path id="Path_207286" data-name="Path 207286" d="M135.239,388.669a7.2,7.2,0,1,1-2.1-5.1A7.209,7.209,0,0,1,135.239,388.669Z" transform="translate(-98.768 -141.04)" fill="#084a93"/>
        <path id="Path_207287" data-name="Path 207287" d="M135.239,388.669a7.2,7.2,0,1,1-2.1-5.1A7.209,7.209,0,0,1,135.239,388.669Z" transform="translate(-98.768 -141.04)" fill="#fff" opacity="0.4"/>
      </g>
      <g id="freepik--Cloud--inject-86" transform="translate(167.553 124.023)">
        <path id="Path_207288" data-name="Path 207288" d="M230.212,148.8a18.559,18.559,0,0,0-9.14-12.89h0v-.435a18.626,18.626,0,0,0-18.626-18.626H195.3v1.417A18.682,18.682,0,0,0,185,128.981a11.438,11.438,0,0,0-1.853-.167,11.16,11.16,0,0,0-10.345,7.02,12.555,12.555,0,0,0-7.678.569,13.548,13.548,0,0,0-8.627,12.109,13.325,13.325,0,0,0,13.325,13.615H220.28a10.122,10.122,0,0,0,10.223-9.9v-.112a17.92,17.92,0,0,0-.29-3.315Z" transform="translate(-148.283 -116.85)" fill="#ffb30b"/>
        <path id="Path_207289" data-name="Path 207289" d="M223.819,148.8a18.559,18.559,0,0,0-9.107-12.89h0v-.435a18.626,18.626,0,0,0-36.08-6.5,11.026,11.026,0,0,0-12.187,6.852,12.555,12.555,0,0,0-7.678.569,13.548,13.548,0,0,0-8.627,12.109,13.314,13.314,0,0,0,13.314,13.615H213.92a10.133,10.133,0,0,0,10.223-9.9v-.112a17.925,17.925,0,0,0-.324-3.315Z" transform="translate(-150.137 -116.848)" fill="#ffb30b"/>
        <path id="Path_207290" data-name="Path 207290" d="M223.819,148.8a18.559,18.559,0,0,0-9.107-12.89h0v-.435a18.626,18.626,0,0,0-36.08-6.5,11.026,11.026,0,0,0-12.187,6.852,12.555,12.555,0,0,0-7.678.569,13.548,13.548,0,0,0-8.627,12.109,13.314,13.314,0,0,0,13.314,13.615H213.92a10.133,10.133,0,0,0,10.223-9.9v-.112a17.925,17.925,0,0,0-.324-3.315Z" transform="translate(-150.137 -116.848)" fill="#fff" opacity="0.3"/>
      </g>
      <g id="freepik--Line--inject-86" transform="translate(213.904 87.777)">
        <rect id="Rectangle_297889" data-name="Rectangle 297889" width="0.937" height="2.801" transform="translate(0 24.496)" fill="#084a93"/>
        <rect id="Rectangle_297890" data-name="Rectangle 297890" width="0.937" height="2.801" transform="translate(0 24.496)" opacity="0.2"/>
        <path id="Path_207291" data-name="Path 207291" d="M372.138,172.5H371.2v-5.58h.937Zm0-11.16H371.2v-5.58h.937Zm0-11.16H371.2V144.6h.937Zm0-11.16H371.2v-5.58h.937Zm0-11.16H371.2v-5.58h.937Zm0-11.16H371.2v-5.58h.937Zm0-11.16H371.2v-5.58h.937Zm-179.531-2.321h-.937V99.458a15.817,15.817,0,0,1,.1-1.786l.926.112a16.637,16.637,0,0,0-.089,1.674Zm177.779-8.571a14.1,14.1,0,0,0-2.712-4.62l.692-.491a14.988,14.988,0,0,1,2.9,4.933Zm-176.06-1.975-.815-.446a15.222,15.222,0,0,1,3.638-4.464l.6.725A14.028,14.028,0,0,0,194.326,92.673Zm169.1-5.848a13.828,13.828,0,0,0-5.1-1.462l.078-.937a14.987,14.987,0,0,1,5.5,1.562Zm-160.972-.859-.279-.882a15.1,15.1,0,0,1,4.587-.714h1.06v.937h-1.06a14.351,14.351,0,0,0-4.308.658Zm150.292-.658h-5.58V84.37h5.58Zm-11.16,0H336V84.37h5.58Zm-11.16,0h-5.58V84.37h5.58Zm-11.16,0h-5.58V84.37h5.58Zm-11.16,0h-5.58V84.37h5.58Zm-11.16,0h-5.58V84.37h5.58Zm-11.16,0H280.2V84.37h5.58Zm-11.16,0h-5.58V84.37h5.58Zm-11.16,0h-5.58V84.37h5.58Zm-11.16,0h-5.58V84.37h5.58Zm-11.16,0h-5.58V84.37h5.58Zm-11.16,0H224.4V84.37h5.58Zm-11.16,0h-5.58V84.37h5.58Z" transform="translate(-191.67 -84.37)" fill="#084a93"/>
        <path id="Path_207292" data-name="Path 207292" d="M372.138,172.5H371.2v-5.58h.937Zm0-11.16H371.2v-5.58h.937Zm0-11.16H371.2V144.6h.937Zm0-11.16H371.2v-5.58h.937Zm0-11.16H371.2v-5.58h.937Zm0-11.16H371.2v-5.58h.937Zm0-11.16H371.2v-5.58h.937Zm-179.531-2.321h-.937V99.458a15.817,15.817,0,0,1,.1-1.786l.926.112a16.637,16.637,0,0,0-.089,1.674Zm177.779-8.571a14.1,14.1,0,0,0-2.712-4.62l.692-.491a14.988,14.988,0,0,1,2.9,4.933Zm-176.06-1.975-.815-.446a15.222,15.222,0,0,1,3.638-4.464l.6.725A14.028,14.028,0,0,0,194.326,92.673Zm169.1-5.848a13.828,13.828,0,0,0-5.1-1.462l.078-.937a14.987,14.987,0,0,1,5.5,1.562Zm-160.972-.859-.279-.882a15.1,15.1,0,0,1,4.587-.714h1.06v.937h-1.06a14.351,14.351,0,0,0-4.308.658Zm150.292-.658h-5.58V84.37h5.58Zm-11.16,0H336V84.37h5.58Zm-11.16,0h-5.58V84.37h5.58Zm-11.16,0h-5.58V84.37h5.58Zm-11.16,0h-5.58V84.37h5.58Zm-11.16,0h-5.58V84.37h5.58Zm-11.16,0H280.2V84.37h5.58Zm-11.16,0h-5.58V84.37h5.58Zm-11.16,0h-5.58V84.37h5.58Zm-11.16,0h-5.58V84.37h5.58Zm-11.16,0h-5.58V84.37h5.58Zm-11.16,0H224.4V84.37h5.58Zm-11.16,0h-5.58V84.37h5.58Z" transform="translate(-191.67 -84.37)" opacity="0.2"/>
        <rect id="Rectangle_297891" data-name="Rectangle 297891" width="0.937" height="2.801" transform="translate(179.531 93.733)" fill="#084a93"/>
        <rect id="Rectangle_297892" data-name="Rectangle 297892" width="0.937" height="2.801" transform="translate(179.531 93.733)" opacity="0.2"/>
      </g>
      <g id="freepik--Character--inject-86" transform="translate(304.166 110.61)">
        <path id="Path_207293" data-name="Path 207293" d="M286.2,411.613h8.2l.882-18.983h-8.2Z" transform="translate(-270.967 -71.445)" fill="#e4897b"/>
        <path id="Path_207294" data-name="Path 207294" d="M294.939,408.79h-8.928a.692.692,0,0,0-.681.569L284,416.647a1.239,1.239,0,0,0,1.228,1.451c3.225-.056,7.89-.246,11.952-.246,4.743,0,5.413.268,10.97.268,3.348,0,4.185-3.348,2.768-3.716-6.473-1.406-8.27-1.551-13.939-4.966A3.828,3.828,0,0,0,294.939,408.79Z" transform="translate(-271.224 -69.571)" fill="#263238"/>
        <path id="Path_207295" data-name="Path 207295" d="M295.229,392.64l-.446,9.776h-8.2l.458-9.776Z" transform="translate(-270.922 -71.444)" fill="#ce6f64"/>
        <path id="Path_207296" data-name="Path 207296" d="M336.874,165.256c-.156,2.578-.335,5.4-.413,8.1s-.134,5.446-.1,8.136.134,5.368.368,7.935A41.355,41.355,0,0,0,337.9,196.6a12.722,12.722,0,0,0,.971,2.589,5.244,5.244,0,0,0,.424.714l.5.815a16.882,16.882,0,0,0,1.116,1.629c1.462,2.176,3.08,4.341,4.754,6.517,3.348,4.3,7,8.638,10.58,12.89l-4.274,4.989a102.21,102.21,0,0,1-13.916-10.859,82.6,82.6,0,0,1-6.294-6.484c-.5-.592-1.016-1.116-1.484-1.786l-.725-.937a9.49,9.49,0,0,1-.77-1.116,23.661,23.661,0,0,1-2.544-5.156,49.583,49.583,0,0,1-2.232-9.519c-.458-3.069-.658-6.093-.815-9.084a88.231,88.231,0,0,1,0-8.928c.145-2.957.234-5.848.569-8.928Z" transform="translate(-266.689 -97.972)" fill="#e4897b"/>
        <path id="Path_207297" data-name="Path 207297" d="M340.36,183.323l-3.482,1.395-5.859,2.332-10.4,4.163s-4.743-24.675-2.232-32.174c2.812-8.236,12.745-8.046,18.113,1.339C341.811,169.529,340.36,183.323,340.36,183.323Z" transform="translate(-267.318 -99.232)" fill="#ffb30b"/>
        <path id="Path_207298" data-name="Path 207298" d="M340.36,183.323l-3.482,1.395-5.859,2.332-10.4,4.163s-4.743-24.675-2.232-32.174c2.812-8.236,12.745-8.046,18.113,1.339C341.811,169.529,340.36,183.323,340.36,183.323Z" transform="translate(-267.318 -99.232)" fill="#fff" opacity="0.6"/>
        <path id="Path_207299" data-name="Path 207299" d="M335.105,182.97,329.76,185.1c-.893-3.873-1.719-10.356.926-15.211C334.3,172.914,334.86,179.019,335.105,182.97Z" transform="translate(-266.014 -97.283)" fill="#ffb30b"/>
        <path id="Path_207300" data-name="Path 207300" d="M335.105,182.97,329.76,185.1c-.893-3.873-1.719-10.356.926-15.211C334.3,172.914,334.86,179.019,335.105,182.97Z" transform="translate(-266.014 -97.283)" fill="#fff" opacity="0.4"/>
        <path id="Path_207301" data-name="Path 207301" d="M334.888,219.451H290.013c-.324-4.029.692-14.943,0-29.808-.156-3.426-.4-7.053-.77-10.859a185.624,185.624,0,0,0-4.263-25.668,114.168,114.168,0,0,1,14.954-1.9,164.843,164.843,0,0,1,19.084,0,82.165,82.165,0,0,1,13.013,2.388S342.6,172.278,334.888,219.451Z" transform="translate(-271.108 -99.481)" fill="#ffb30b"/>
        <path id="Path_207302" data-name="Path 207302" d="M334.888,219.451H290.013c-.324-4.029.692-14.943,0-29.808-.156-3.426-.4-7.053-.77-10.859a185.624,185.624,0,0,0-4.263-25.668,114.168,114.168,0,0,1,14.954-1.9,164.843,164.843,0,0,1,19.084,0,82.165,82.165,0,0,1,13.013,2.388S342.6,172.278,334.888,219.451Z" transform="translate(-271.108 -99.481)" fill="#fff" opacity="0.6"/>
        <path id="Path_207303" data-name="Path 207303" d="M289.59,186.8c-.156-3.426-.4-7.053-.77-10.859,1.451-.9,3.348-.96,3.739,4.352C292.916,185.2,291.253,186.562,289.59,186.8Z" transform="translate(-270.663 -96.635)" fill="#ffb30b"/>
        <path id="Path_207304" data-name="Path 207304" d="M289.59,186.8c-.156-3.426-.4-7.053-.77-10.859,1.451-.9,3.348-.96,3.739,4.352C292.916,185.2,291.253,186.562,289.59,186.8Z" transform="translate(-270.663 -96.635)" fill="#fff" opacity="0.4"/>
        <path id="Path_207305" data-name="Path 207305" d="M365.673,221.689l-6.473,4.029-7.991-1.707,6.361-7.89Z" transform="translate(-263.425 -91.92)" fill="#e4897b"/>
        <path id="Path_207306" data-name="Path 207306" d="M350.622,215l7.477,1.205-6.361,7.89s-4-.4-5.078-5.8Z" transform="translate(-263.953 -92.05)" fill="#e4897b"/>
        <path id="Path_207307" data-name="Path 207307" d="M299.526,131.94c1.417,6.138,3.024,17.387-1.116,21.483,0,0,2.087,4.118,13.492,4.118,10.412,0,5.58-4.118,5.58-4.118-6.908-1.641-6.908-6.7-5.893-11.484Z" transform="translate(-269.55 -101.685)" fill="#e4897b"/>
        <path id="Path_207308" data-name="Path 207308" d="M303.836,135.6l7.142,5.915a18.673,18.673,0,0,0-.469,3.348c-2.176,2.12-6.328-3.248-6.7-5.982A9.285,9.285,0,0,1,303.836,135.6Z" transform="translate(-268.939 -101.261)" fill="#ce6f64"/>
        <path id="Path_207309" data-name="Path 207309" d="M322.141,118.14c2.857,3.549-.48,14.731-6.395,14.508S316.717,111.355,322.141,118.14Z" transform="translate(-267.803 -103.442)" fill="#263238"/>
        <path id="Path_207310" data-name="Path 207310" d="M300.558,123.867c-.647,8.281-1.44,13.068,2.132,18a10.97,10.97,0,0,0,19.173-2.388c2.8-7.042,3.348-19.385-4.23-24.05a11.026,11.026,0,0,0-17.075,8.437Z" transform="translate(-269.366 -103.812)" fill="#e4897b"/>
        <path id="Path_207311" data-name="Path 207311" d="M298.243,113.47l8.928,3.169c-3.917,5.234,1.774,17.577-5.145,15.267C298.857,130.857,288.523,119.429,298.243,113.47Z" transform="translate(-270.042 -103.828)" fill="#263238"/>
        <path id="Path_207312" data-name="Path 207312" d="M302.392,116.615c3.348,2.478,17.086,5.424,24.931,1.049a24.417,24.417,0,0,1-4.676-1.763s5.87-.279,8.47-4.62a18.782,18.782,0,0,1-10.781-1.362,9.709,9.709,0,0,0,5.993-5.089c-10.836.134-34.172,2.332-30.132,9.955S302.392,116.615,302.392,116.615Z" transform="translate(-269.861 -104.83)" fill="#263238"/>
        <path id="Path_207313" data-name="Path 207313" d="M297.981,114.818a15.379,15.379,0,0,1-4.408-3.158C293.06,112.943,293.06,116.414,297.981,114.818Z" transform="translate(-270.137 -104.038)" fill="#263238"/>
        <path id="Path_207314" data-name="Path 207314" d="M296.036,130.83a8.336,8.336,0,0,0,4.464,4.3c2.6,1.06,4.129-1.116,3.594-3.75-.48-2.332-2.411-5.692-5.111-5.647S295.031,128.453,296.036,130.83Z" transform="translate(-269.866 -102.406)" fill="#e4897b"/>
        <path id="Path_207315" data-name="Path 207315" d="M308.75,411.613h8.191l1.7-18.983h-8.191Z" transform="translate(-268.351 -71.445)" fill="#e4897b"/>
        <path id="Path_207316" data-name="Path 207316" d="M317.572,408.79h-8.928a.681.681,0,0,0-.681.569l-1.362,7.287a1.239,1.239,0,0,0,1.228,1.451c3.236-.056,7.89-.246,11.952-.246,4.743,0,8.861.268,14.419.268,3.348,0,4.185-3.348,2.757-3.716-6.462-1.406-11.707-1.551-17.365-4.966a3.861,3.861,0,0,0-2.02-.647Z" transform="translate(-268.602 -69.571)" fill="#263238"/>
        <path id="Path_207317" data-name="Path 207317" d="M318.553,392.64l-.87,9.776h-8.2l.87-9.776Z" transform="translate(-268.266 -71.444)" fill="#ce6f64"/>
        <path id="Path_207318" data-name="Path 207318" d="M319.737,410.12a2.489,2.489,0,0,0,1.652-.167,1.116,1.116,0,0,0,.536-.982.647.647,0,0,0-.268-.6c-.859-.614-3.75.6-4.085.748a.2.2,0,0,0-.112.179.234.234,0,0,0,.134.19,10.627,10.627,0,0,0,2.143.636Zm1.451-1.518a.536.536,0,0,1,.246.089c.056,0,.1.089.1.245a.781.781,0,0,1-.357.67,4.074,4.074,0,0,1-2.98-.313A7.868,7.868,0,0,1,321.187,408.6Z" transform="translate(-267.34 -69.64)" fill="#084a93"/>
        <path id="Path_207319" data-name="Path 207319" d="M317.638,409.723h.1c.915-.335,2.8-1.886,2.745-2.835a.681.681,0,0,0-.569-.614,1.049,1.049,0,0,0-.87.123c-1.116.636-1.562,2.991-1.574,3.091a.223.223,0,0,0,.167.246Zm2.087-3.1h.089c.257.078.268.19.268.246,0,.558-1.194,1.763-2.132,2.232a4.676,4.676,0,0,1,1.306-2.444.725.725,0,0,1,.469-.033Z" transform="translate(-267.339 -69.868)" fill="#084a93"/>
        <path id="Path_207320" data-name="Path 207320" d="M307.109,420.988H320.5s20.546-78.477,20.155-105.094c-.391-25.6-7.812-103.565-7.812-103.565H303.27s2.288,17.343,4.9,38.736c2.332,18.883,4.9,40.946,6.372,57.016.424,4.776.77,9.017.971,12.5C317.041,346.719,307.109,420.988,307.109,420.988Z" transform="translate(-268.986 -92.36)" fill="#084a93"/>
        <path id="Path_207321" data-name="Path 207321" d="M307.109,420.988H320.5s20.546-78.477,20.155-105.094c-.391-25.6-7.812-103.565-7.812-103.565H303.27s2.288,17.343,4.9,38.736c2.332,18.883,4.9,40.946,6.372,57.016.424,4.776.77,9.017.971,12.5C317.041,346.719,307.109,420.988,307.109,420.988Z" transform="translate(-268.986 -92.36)" opacity="0.3"/>
        <path id="Path_207322" data-name="Path 207322" d="M307.66,248.914c2.332,18.883,4.9,40.946,6.372,57.016,3.114-14.028,10.714-54.807-.692-75.43C310.483,234.618,308.742,241.66,307.66,248.914Z" transform="translate(-268.477 -90.252)" fill="#084a93"/>
        <path id="Path_207323" data-name="Path 207323" d="M307.66,248.914c2.332,18.883,4.9,40.946,6.372,57.016,3.114-14.028,10.714-54.807-.692-75.43C310.483,234.618,308.742,241.66,307.66,248.914Z" transform="translate(-268.477 -90.252)" opacity="0.4"/>
        <path id="Path_207324" data-name="Path 207324" d="M319.087,212.33s-1.116,75.185-5.48,99.2c-4.776,26.3-14.285,109.457-14.285,109.457H284s2.232-81.033,4.576-107.069c2.522-28.268,1.6-101.556,1.6-101.556Z" transform="translate(-271.222 -92.36)" fill="#084a93"/>
        <path id="Path_207325" data-name="Path 207325" d="M319.087,212.33s-1.116,75.185-5.48,99.2c-4.776,26.3-14.285,109.457-14.285,109.457H284s2.232-81.033,4.576-107.069c2.522-28.268,1.6-101.556,1.6-101.556Z" transform="translate(-271.222 -92.36)" opacity="0.3"/>
        <path id="Path_207326" data-name="Path 207326" d="M283.5,400.3h16.55l1.216-6.25-18.336-.513Z" transform="translate(-271.346 -71.34)" fill="#263238"/>
        <path id="Path_207327" data-name="Path 207327" d="M306.082,400.25h16.55L323.86,394l-18.28.324Z" transform="translate(-268.718 -71.286)" fill="#263238"/>
        <path id="Path_207328" data-name="Path 207328" d="M289.233,410.97h0a.134.134,0,0,1-.123-.156c.1-.781,1.25-73.5,3.348-96.891,2.232-25.389.848-92.751.893-93.32a.145.145,0,0,1,.156-.123.156.156,0,0,1,.134.156c0,.569,1.373,67.931-.9,93.32-2.087,23.436-3.236,96.121-3.348,96.9A.145.145,0,0,1,289.233,410.97Z" transform="translate(-270.629 -91.415)" fill="#084a93"/>
        <path id="Path_207329" data-name="Path 207329" d="M289.233,410.97h0a.134.134,0,0,1-.123-.156c.1-.781,1.25-73.5,3.348-96.891,2.232-25.389.848-92.751.893-93.32a.145.145,0,0,1,.156-.123.156.156,0,0,1,.134.156c0,.569,1.373,67.931-.9,93.32-2.087,23.436-3.236,96.121-3.348,96.9A.145.145,0,0,1,289.233,410.97Z" transform="translate(-270.629 -91.415)" fill="#fff" opacity="0.3"/>
        <path id="Path_207330" data-name="Path 207330" d="M311.412,127c-.1.658.179,1.261.625,1.339s.87-.4.96-1.116-.19-1.272-.625-1.35S311.5,126.328,311.412,127Z" transform="translate(-268.044 -102.39)" fill="#263238"/>
        <path id="Path_207331" data-name="Path 207331" d="M318.342,127.828c-.089.67.19,1.261.625,1.339s.87-.4.96-1.116-.19-1.272-.625-1.35S318.431,127.158,318.342,127.828Z" transform="translate(-267.24 -102.294)" fill="#263238"/>
        <path id="Path_207332" data-name="Path 207332" d="M316.092,127.92a25.286,25.286,0,0,0,2.411,6.261,3.917,3.917,0,0,1-3.292,0Z" transform="translate(-267.601 -102.152)" fill="#de5753"/>
        <path id="Path_207333" data-name="Path 207333" d="M314.466,136.329a.19.19,0,0,0,.223-.167.212.212,0,0,0-.179-.223,5.58,5.58,0,0,1-4.152-2.656.2.2,0,1,0-.357.167A5.937,5.937,0,0,0,314.466,136.329Z" transform="translate(-268.208 -101.543)" fill="#263238"/>
        <path id="Path_207334" data-name="Path 207334" d="M309.612,122.724a.391.391,0,0,0,.346-.067,3.091,3.091,0,0,1,2.779-.614.391.391,0,0,0,.5-.246.424.424,0,0,0-.268-.513,3.884,3.884,0,0,0-3.515.748.379.379,0,0,0-.056.558A.435.435,0,0,0,309.612,122.724Z" transform="translate(-268.287 -102.938)" fill="#263238"/>
        <path id="Path_207335" data-name="Path 207335" d="M290.96,151.55l2.109-.19a.458.458,0,0,1,.458.335c7.031,31.661,4.922,65.275,4.922,65.275h-2.332a304.434,304.434,0,0,0-5.513-64.9.379.379,0,0,1,.357-.525Z" transform="translate(-270.459 -99.433)" fill="#084a93"/>
        <path id="Path_207336" data-name="Path 207336" d="M290.96,151.55l2.109-.19a.458.458,0,0,1,.458.335c7.031,31.661,4.922,65.275,4.922,65.275h-2.332a304.434,304.434,0,0,0-5.513-64.9.379.379,0,0,1,.357-.525Z" transform="translate(-270.459 -99.433)" fill="#fff" opacity="0.1"/>
        <path id="Path_207337" data-name="Path 207337" d="M296.011,210.977h1.618a.725.725,0,0,0,.737-.748h0a.8.8,0,0,0-.792-.759h-1.607a.737.737,0,0,0-.737.759h0A.792.792,0,0,0,296.011,210.977Z" transform="translate(-269.919 -92.692)" fill="#263238"/>
        <path id="Path_207338" data-name="Path 207338" d="M297.824,212.912l-.078-2.12a1.027,1.027,0,0,0-1.027-.982h0a.937.937,0,0,0-.949.982l.078,2.12a1.027,1.027,0,0,0,1.016.982h0a.96.96,0,0,0,.96-.982Z" transform="translate(-269.857 -92.652)" fill="#263238"/>
        <path id="Path_207339" data-name="Path 207339" d="M321.736,124.445a.324.324,0,0,0,.179,0,.379.379,0,0,0,.257-.491,4.1,4.1,0,0,0-2.5-2.712.379.379,0,0,0-.48.268.413.413,0,0,0,.279.5h0a3.27,3.27,0,0,1,1.953,2.165A.379.379,0,0,0,321.736,124.445Z" transform="translate(-267.141 -102.928)" fill="#263238"/>
        <path id="Path_207340" data-name="Path 207340" d="M291.4,165.123c-1.283,5.256-2.578,10.725-3.716,16.048-.558,2.667-1.116,5.323-1.507,7.935a47.6,47.6,0,0,0-.7,7.31,21.2,21.2,0,0,0,4.542,12.432,35.5,35.5,0,0,0,5.111,5.457c.96.859,1.964,1.685,3.013,2.455.525.379,1.06.759,1.6,1.116s1.116.748,1.551,1.016l-2.433,6.1c-.893-.268-1.562-.5-2.321-.781s-1.428-.58-2.143-.893c-1.406-.636-2.79-1.339-4.152-2.12a39.308,39.308,0,0,1-7.589-5.792,31.806,31.806,0,0,1-5.982-8.08,29.149,29.149,0,0,1-3.013-10.044,53.571,53.571,0,0,1,0-9.665c.257-3.013.625-5.959,1.116-8.872a155.754,155.754,0,0,1,3.794-17.119Z" transform="translate(-272.447 -98.241)" fill="#e4897b"/>
        <path id="Path_207341" data-name="Path 207341" d="M286.444,152.912c-8.872,1.585-13.894,25.3-13.894,25.3l21.941,7.812a53.747,53.747,0,0,0,0-18.046C292.906,157.912,294.87,151.406,286.444,152.912Z" transform="translate(-272.55 -99.278)" fill="#ffb30b"/>
        <path id="Path_207342" data-name="Path 207342" d="M286.444,152.912c-8.872,1.585-13.894,25.3-13.894,25.3l21.941,7.812a53.747,53.747,0,0,0,0-18.046C292.906,157.912,294.87,151.406,286.444,152.912Z" transform="translate(-272.55 -99.278)" fill="#fff" opacity="0.6"/>
        <path id="Path_207343" data-name="Path 207343" d="M322.809,151.911l2.109.391a.424.424,0,0,1,.346.357c5.58,31.672,1.886,64.248,1.886,64.248h-2.344c2.232-34.473-1.774-60.454-2.466-64.538a.391.391,0,0,1,.469-.458Z" transform="translate(-266.775 -99.37)" fill="#084a93"/>
        <path id="Path_207344" data-name="Path 207344" d="M322.809,151.911l2.109.391a.424.424,0,0,1,.346.357c5.58,31.672,1.886,64.248,1.886,64.248h-2.344c2.232-34.473-1.774-60.454-2.466-64.538a.391.391,0,0,1,.469-.458Z" transform="translate(-266.775 -99.37)" fill="#fff" opacity="0.1"/>
        <path id="Path_207345" data-name="Path 207345" d="M325,210.977h1.618a.759.759,0,0,0,.759-.748h0a.759.759,0,0,0-.748-.759h-1.618a.77.77,0,0,0-.759.759h0a.737.737,0,0,0,.748.748Z" transform="translate(-266.553 -92.692)" fill="#263238"/>
        <path id="Path_207346" data-name="Path 207346" d="M326.715,212.912v-2.12a.971.971,0,0,0-.982-.982h0a.993.993,0,0,0-.993.982v2.12a.971.971,0,0,0,.971.982h0A1.016,1.016,0,0,0,326.715,212.912Z" transform="translate(-266.496 -92.652)" fill="#263238"/>
        <path id="Path_207347" data-name="Path 207347" d="M297.106,410.12a2.523,2.523,0,0,0,1.663-.167,1.116,1.116,0,0,0,.536-.982.647.647,0,0,0-.268-.6c-.859-.614-3.761.6-4.085.748a.178.178,0,0,0-.112.179.223.223,0,0,0,.123.19,10.849,10.849,0,0,0,2.143.636Zm1.451-1.518a.579.579,0,0,1,.257.089.245.245,0,0,1,.089.246.759.759,0,0,1-.357.67,4.04,4.04,0,0,1-2.969-.312,7.813,7.813,0,0,1,2.98-.692Z" transform="translate(-269.964 -69.64)" fill="#084a93"/>
        <path id="Path_207348" data-name="Path 207348" d="M295.018,409.723h.1c.926-.335,2.812-1.886,2.745-2.835a.681.681,0,0,0-.569-.614,1.049,1.049,0,0,0-.87.123c-1.06.636-1.551,2.991-1.574,3.091a.2.2,0,0,0,.067.19A.224.224,0,0,0,295.018,409.723Zm2.1-3.1h.089c.246.078.257.19.257.246,0,.558-1.183,1.763-2.12,2.232a4.587,4.587,0,0,1,1.295-2.444.737.737,0,0,1,.469-.033Z" transform="translate(-269.964 -69.868)" fill="#084a93"/>
        <path id="Path_207349" data-name="Path 207349" d="M292.45,217.485l2.567-4.665,7.042.246,5.48,2.232,3.727,5.491-9.575-.58S295.82,221.871,292.45,217.485Z" transform="translate(-270.242 -92.303)" fill="#e4897b"/>
        <path id="Path_207350" data-name="Path 207350" d="M310.394,154.993l-1.685-1.183-3.359,3.348Z" transform="translate(-268.745 -99.148)" fill="#084a93"/>
        <path id="Path_207351" data-name="Path 207351" d="M310.394,154.993l-1.685-1.183-3.359,3.348Z" transform="translate(-268.745 -99.148)" fill="#fff" opacity="0.4"/>
        <path id="Path_207352" data-name="Path 207352" d="M309.852,154.306s-2.734,4.029-3.192,6.942c-3.493-1.428-10.122-5-11.16-10.044a14.3,14.3,0,0,0,3.5-1.674S302.564,152.476,309.852,154.306Z" transform="translate(-269.888 -99.645)" fill="#084a93"/>
        <path id="Path_207353" data-name="Path 207353" d="M309.852,154.306s-2.734,4.029-3.192,6.942c-3.493-1.428-10.122-5-11.16-10.044a14.3,14.3,0,0,0,3.5-1.674S302.564,152.476,309.852,154.306Z" transform="translate(-269.888 -99.645)" fill="#fff" opacity="0.2"/>
        <path id="Path_207354" data-name="Path 207354" d="M309.87,155.013l.625-1.373,4.631,3.538Z" transform="translate(-268.221 -99.168)" fill="#084a93"/>
        <path id="Path_207355" data-name="Path 207355" d="M309.87,155.013l.625-1.373,4.631,3.538Z" transform="translate(-268.221 -99.168)" fill="#fff" opacity="0.4"/>
        <path id="Path_207356" data-name="Path 207356" d="M310.43,154.066a11.762,11.762,0,0,1,3.549,6.428c3.348-1.428,4.564-6.093,3.56-9.185a20.425,20.425,0,0,0-4.129-1.339A3.806,3.806,0,0,1,310.43,154.066Z" transform="translate(-268.156 -99.594)" fill="#084a93"/>
        <path id="Path_207357" data-name="Path 207357" d="M310.43,154.066a11.762,11.762,0,0,1,3.549,6.428c3.348-1.428,4.564-6.093,3.56-9.185a20.425,20.425,0,0,0-4.129-1.339A3.806,3.806,0,0,1,310.43,154.066Z" transform="translate(-268.156 -99.594)" fill="#fff" opacity="0.2"/>
        <path id="Path_207358" data-name="Path 207358" d="M390.811,183.7l-70.275-2.489L310.37,222.29l70.275,2.489Z" transform="translate(-268.163 -95.97)" fill="#084a93"/>
        <path id="Path_207359" data-name="Path 207359" d="M390.811,183.7l-70.275-2.489L310.37,222.29l70.275,2.489Z" transform="translate(-268.163 -95.97)" fill="#fff" opacity="0.1"/>
        <path id="Path_207360" data-name="Path 207360" d="M392.74,183.758l-70.263-2.478L312.31,222.36l70.275,2.489Z" transform="translate(-267.938 -95.962)" fill="#263238"/>
        <path id="Path_207361" data-name="Path 207361" d="M382.615,220.579l-.29,2.277-70.275-2.489.29-2.277Z" transform="translate(-267.968 -91.692)" fill="#263238"/>
        <path id="Path_207362" data-name="Path 207362" d="M315.207,218.191l-.29,2.277L287.34,219.5l.279-2.277Z" transform="translate(-270.834 -91.793)" fill="#084a93"/>
        <path id="Path_207363" data-name="Path 207363" d="M315.207,218.191l-.29,2.277L287.34,219.5l.279-2.277Z" transform="translate(-270.834 -91.793)" fill="#fff" opacity="0.1"/>
      </g>
    </g>
  </g>
</svg>
