<svg id="_1" data-name="1" xmlns="http://www.w3.org/2000/svg" xmlns:xlink="http://www.w3.org/1999/xlink" width="85" height="85" viewBox="0 0 85 85">
  <defs>
    <clipPath id="clip-path">
      <rect id="Rectangle_297295" data-name="Rectangle 297295" width="85" height="85" fill="none"/>
    </clipPath>
  </defs>
  <g id="Group_147660" data-name="Group 147660" clip-path="url(#clip-path)">
    <path id="Path_206010" data-name="Path 206010" d="M60.323,78.145a2.742,2.742,0,1,1,0,5.484H13.71a2.742,2.742,0,1,1,0-5.484Z" fill="#b9ddfc"/>
    <path id="Path_206011" data-name="Path 206011" d="M72.661,32.629V75.4a2.741,2.741,0,0,1-2.742,2.742H4.113A2.741,2.741,0,0,1,1.371,75.4V20.564a2.741,2.741,0,0,1,2.742-2.741H47.984v4.112l3.23,1.077c.026.1.053.2.08.294H39.758V72.661H67.177V37.016h1.371l1.076-3.23a14.877,14.877,0,0,0,3.037-1.157" fill="#b9ddfc"/>
    <rect id="Rectangle_297280" data-name="Rectangle 297280" width="27.419" height="10.968" transform="translate(39.758 45.242)" fill="#ffeaa7"/>
    <path id="Path_206012" data-name="Path 206012" d="M61.988,33.786l.163.488H39.758V23.307H51.294a14.91,14.91,0,0,0,1.5,3.5l-1.524,3.049,3.877,3.877,3.048-1.524a14.929,14.929,0,0,0,3.8,1.575" fill="#ffeaa7"/>
    <rect id="Rectangle_297281" data-name="Rectangle 297281" width="27.419" height="10.968" transform="translate(6.855 45.242)" fill="#ffeaa7"/>
    <rect id="Rectangle_297282" data-name="Rectangle 297282" width="27.419" height="10.968" transform="translate(6.855 23.306)" fill="#ffeaa7"/>
    <rect id="Rectangle_297283" data-name="Rectangle 297283" width="27.419" height="16.452" transform="translate(39.758 56.21)" fill="#ffb30b"/>
    <path id="Path_206013" data-name="Path 206013" d="M67.177,37.016v8.226H39.758V34.274H62.151l.913,2.742Z" fill="#ffb30b"/>
    <rect id="Rectangle_297284" data-name="Rectangle 297284" width="27.419" height="16.452" transform="translate(6.855 56.21)" fill="#ffb30b"/>
    <rect id="Rectangle_297285" data-name="Rectangle 297285" width="27.419" height="10.968" transform="translate(6.855 34.274)" fill="#ffb30b"/>
    <path id="Path_206014" data-name="Path 206014" d="M51.295,23.306c-.027-.1-.055-.195-.081-.3l-3.23-1.076V16.451l3.23-1.076a14.965,14.965,0,0,1,1.575-3.8L51.266,8.529l3.876-3.877,3.049,1.524a14.929,14.929,0,0,1,3.8-1.575l1.076-3.23h5.484L69.625,4.6a14.907,14.907,0,0,1,3.8,1.575l3.049-1.524,3.877,3.877-1.524,3.048a14.929,14.929,0,0,1,1.575,3.8l3.23,1.076v5.484L80.4,23.011a14.929,14.929,0,0,1-1.575,3.8l1.524,3.049-3.877,3.876L73.422,32.21c-.248.146-.5.287-.76.417v0a14.9,14.9,0,0,1-3.037,1.156l-1.076,3.231H63.065l-.914-2.742-.162-.489a14.929,14.929,0,0,1-3.8-1.575l-3.049,1.524-3.876-3.876,1.523-3.049a14.9,14.9,0,0,1-1.494-3.5" fill="#00defc"/>
    <path id="Path_206015" data-name="Path 206015" d="M72.661,21.936v4.113A1.371,1.371,0,0,1,71.29,27.42H60.322a1.371,1.371,0,0,1-1.371-1.371V21.936Z" fill="#ffeaa7"/>
    <path id="Path_206016" data-name="Path 206016" d="M72.661,12.339v4.113H58.951V12.339a1.371,1.371,0,0,1,1.371-1.371H71.29a1.371,1.371,0,0,1,1.371,1.371" fill="#ffeaa7"/>
    <rect id="Rectangle_297286" data-name="Rectangle 297286" width="13.71" height="5.484" transform="translate(58.952 16.452)" fill="#fcd770"/>
    <path id="Path_206017" data-name="Path 206017" d="M85,22.924v-7.46L81.518,14.3a16.315,16.315,0,0,0-1.145-2.759L82.016,8.26,76.741,2.984,73.456,4.627A16.446,16.446,0,0,0,70.7,3.482L69.536,0h-7.46l-1.16,3.482a16.363,16.363,0,0,0-2.759,1.145L54.872,2.984,49.6,8.26l1.642,3.284A16.358,16.358,0,0,0,50.1,14.3l-3.482,1.161v.988H4.113A4.118,4.118,0,0,0,0,20.565V75.4a4.118,4.118,0,0,0,4.113,4.113H9.832A4.11,4.11,0,0,0,13.709,85H60.322a4.118,4.118,0,0,0,4.113-4.113,4.07,4.07,0,0,0-.236-1.37h5.72A4.118,4.118,0,0,0,74.032,75.4V37.017H71.29V75.4a1.373,1.373,0,0,1-1.371,1.371H4.113A1.373,1.373,0,0,1,2.742,75.4V20.565a1.373,1.373,0,0,1,1.371-1.371h42.5v3.73L50.1,24.085a16.393,16.393,0,0,0,1.144,2.759L49.6,30.128,54.872,35.4l3.284-1.642A16.393,16.393,0,0,0,60.915,34.9l1.161,3.482h3.73v5.484H41.129V35.646h8.226V32.9H41.129V24.678h2.742V21.936H38.387v52.1H68.548V38.387h.988L70.7,34.9a16.358,16.358,0,0,0,2.759-1.144L76.741,35.4l5.275-5.275-1.643-3.284a16.315,16.315,0,0,0,1.145-2.759ZM60.322,79.517a1.371,1.371,0,1,1,0,2.741H13.709a1.371,1.371,0,1,1,0-2.741Zm5.484-24.678H41.129V46.613H65.806ZM41.129,57.581H65.806v13.71H41.129ZM79.26,21.947l-.188.719a13.63,13.63,0,0,1-1.431,3.451l-.376.641,1.414,2.829-2.48,2.48L73.37,30.653l-.641.376a13.652,13.652,0,0,1-3.451,1.431l-.719.187-1,3H64.052l-1-3-.719-.187a13.667,13.667,0,0,1-3.451-1.431l-.641-.376-2.829,1.414-2.48-2.48,1.414-2.829-.376-.641a13.652,13.652,0,0,1-1.431-3.451l-.188-.719-3-1V17.44l3-1,.188-.72a13.645,13.645,0,0,1,1.431-3.45l.376-.642L52.933,8.8l2.48-2.48,2.829,1.414.641-.376a13.631,13.631,0,0,1,3.451-1.431l.719-.188,1-3H67.56l1,3,.72.188a13.609,13.609,0,0,1,3.45,1.431l.641.376L76.2,6.321l2.48,2.48-1.414,2.828.376.642a13.609,13.609,0,0,1,1.431,3.45l.188.72,3,1v3.508Z"/>
    <path id="Path_206018" data-name="Path 206018" d="M71.29,9.6H60.322a2.745,2.745,0,0,0-2.742,2.742v13.71a2.745,2.745,0,0,0,2.742,2.742H71.29a2.745,2.745,0,0,0,2.742-2.742V12.338A2.745,2.745,0,0,0,71.29,9.6m0,2.742V15.08H60.322V12.338Zm0,5.484v2.742H60.322V17.822Zm0,8.226H60.322V23.306H71.291v2.742Z"/>
    <path id="Path_206019" data-name="Path 206019" d="M35.645,21.935H5.484v52.1H35.645ZM8.226,57.581H32.9v13.71H8.226ZM32.9,54.839H8.226V46.613H32.9ZM8.226,35.645H32.9v8.226H8.226ZM32.9,32.9H8.226V24.677H32.9Z"/>
    <path id="Path_206020" data-name="Path 206020" d="M12.339,27.419a1.371,1.371,0,1,1-1.371,1.371,1.371,1.371,0,0,1,1.371-1.371"/>
    <path id="Path_206021" data-name="Path 206021" d="M17.823,27.419a1.371,1.371,0,1,1-1.371,1.371,1.371,1.371,0,0,1,1.371-1.371"/>
    <path id="Path_206022" data-name="Path 206022" d="M12.339,38.387a1.371,1.371,0,1,1-1.371,1.371,1.371,1.371,0,0,1,1.371-1.371"/>
    <path id="Path_206023" data-name="Path 206023" d="M17.823,38.387a1.371,1.371,0,1,1-1.371,1.371,1.371,1.371,0,0,1,1.371-1.371"/>
    <path id="Path_206024" data-name="Path 206024" d="M12.339,49.355a1.371,1.371,0,1,1-1.371,1.371,1.371,1.371,0,0,1,1.371-1.371"/>
    <path id="Path_206025" data-name="Path 206025" d="M17.823,49.355a1.371,1.371,0,1,1-1.371,1.371,1.371,1.371,0,0,1,1.371-1.371"/>
    <path id="Path_206026" data-name="Path 206026" d="M12.339,60.323a1.371,1.371,0,1,1-1.371,1.371,1.371,1.371,0,0,1,1.371-1.371"/>
    <path id="Path_206027" data-name="Path 206027" d="M17.823,60.323a1.371,1.371,0,1,1-1.371,1.371,1.371,1.371,0,0,1,1.371-1.371"/>
    <path id="Path_206028" data-name="Path 206028" d="M12.339,65.806a1.372,1.372,0,1,1-1.371,1.371,1.371,1.371,0,0,1,1.371-1.371"/>
    <path id="Path_206029" data-name="Path 206029" d="M17.823,65.806a1.372,1.372,0,1,1-1.371,1.371,1.371,1.371,0,0,1,1.371-1.371"/>
    <rect id="Rectangle_297287" data-name="Rectangle 297287" width="2.742" height="8.226" transform="translate(21.935 60.323)"/>
    <rect id="Rectangle_297288" data-name="Rectangle 297288" width="2.742" height="8.226" transform="translate(27.419 60.323)"/>
    <rect id="Rectangle_297289" data-name="Rectangle 297289" width="5.484" height="2.742" transform="translate(24.677 27.419)"/>
    <rect id="Rectangle_297290" data-name="Rectangle 297290" width="5.484" height="2.742" transform="translate(24.677 38.387)"/>
    <rect id="Rectangle_297291" data-name="Rectangle 297291" width="5.484" height="2.742" transform="translate(24.677 49.355)"/>
    <path id="Path_206030" data-name="Path 206030" d="M45.242,27.419a1.371,1.371,0,1,1-1.371,1.371,1.371,1.371,0,0,1,1.371-1.371"/>
    <path id="Path_206031" data-name="Path 206031" d="M45.242,38.387a1.371,1.371,0,1,1-1.371,1.371,1.371,1.371,0,0,1,1.371-1.371"/>
    <path id="Path_206032" data-name="Path 206032" d="M50.726,38.387a1.371,1.371,0,1,1-1.371,1.371,1.371,1.371,0,0,1,1.371-1.371"/>
    <path id="Path_206033" data-name="Path 206033" d="M45.242,49.355a1.371,1.371,0,1,1-1.371,1.371,1.371,1.371,0,0,1,1.371-1.371"/>
    <path id="Path_206034" data-name="Path 206034" d="M50.726,49.355a1.371,1.371,0,1,1-1.371,1.371,1.371,1.371,0,0,1,1.371-1.371"/>
    <path id="Path_206035" data-name="Path 206035" d="M45.242,60.323a1.371,1.371,0,1,1-1.371,1.371,1.371,1.371,0,0,1,1.371-1.371"/>
    <path id="Path_206036" data-name="Path 206036" d="M50.726,60.323a1.371,1.371,0,1,1-1.371,1.371,1.371,1.371,0,0,1,1.371-1.371"/>
    <path id="Path_206037" data-name="Path 206037" d="M45.242,65.806a1.372,1.372,0,1,1-1.371,1.371,1.371,1.371,0,0,1,1.371-1.371"/>
    <path id="Path_206038" data-name="Path 206038" d="M50.726,65.806a1.372,1.372,0,1,1-1.371,1.371,1.371,1.371,0,0,1,1.371-1.371"/>
    <rect id="Rectangle_297292" data-name="Rectangle 297292" width="2.742" height="8.226" transform="translate(54.839 60.323)"/>
    <rect id="Rectangle_297293" data-name="Rectangle 297293" width="2.742" height="8.226" transform="translate(60.323 60.323)"/>
    <rect id="Rectangle_297294" data-name="Rectangle 297294" width="5.484" height="2.742" transform="translate(57.581 49.355)"/>
  </g>
</svg>
