<svg xmlns="http://www.w3.org/2000/svg" width="820" height="200" viewBox="0 0 820 200">
  <g id="_12" data-name="12" transform="translate(-390 -3814)">
    <rect id="Rectangle_297897" data-name="Rectangle 297897" width="820" height="200" transform="translate(390 3814)" fill="none"/>
    <g id="clave" transform="translate(600 3893.095)">
      <g id="Group_174151" data-name="Group 174151" transform="translate(0)">
        <g id="Group_174150" data-name="Group 174150">
          <path id="Path_207475" data-name="Path 207475" d="M23.179,0A19.213,19.213,0,0,1,41.136,26.014L59.5,44.375a1.4,1.4,0,0,1,.41.989V55.411a1.4,1.4,0,0,1-1.4,1.4H50.227a1.4,1.4,0,0,1-.989-.409l-2.79-2.786a1.4,1.4,0,0,1-.411-.99V49.2H42.616a1.4,1.4,0,0,1-1.4-1.4V46.429H39.845a1.4,1.4,0,0,1-1.4-1.4V42.019H35.435a1.4,1.4,0,0,1-.989-.41l-4.452-4.452A19.2,19.2,0,1,1,23.179,0Zm0,35.6a16.278,16.278,0,0,0,6.584-1.375,1.4,1.4,0,0,1,1.539.28l.013.012,4.7,4.7h3.831a1.4,1.4,0,0,1,1.4,1.4V43.63h1.372a1.4,1.4,0,0,1,1.4,1.4V46.4h3.422a1.4,1.4,0,0,1,1.4,1.4v4.245l1.97,1.967h6.3V52.034L40,34.931a1.259,1.259,0,0,1,1.781-1.781L57.107,48.472V45.944L38.5,27.336l-.011-.012a1.4,1.4,0,0,1-.281-1.539A16.406,16.406,0,1,0,23.179,35.6Z" transform="translate(-3.978)" fill="#ffb30b"/>
        </g>
      </g>
      <g id="Group_174153" data-name="Group 174153" transform="translate(8.116 8.116)">
        <g id="Group_174152" data-name="Group 174152">
          <path id="Path_207476" data-name="Path 207476" d="M345.642,73.144a5.241,5.241,0,1,1-5.241,5.241A5.247,5.247,0,0,1,345.642,73.144Zm0,7.684a2.443,2.443,0,1,0-2.443-2.443A2.446,2.446,0,0,0,345.642,80.828Z" transform="translate(-340.401 -73.144)" fill="#ffb30b"/>
        </g>
      </g>
    </g>
    <g id="clave-2" data-name="clave" transform="translate(944 3893.095)">
      <g id="Group_174151-2" data-name="Group 174151" transform="translate(0)">
        <g id="Group_174150-2" data-name="Group 174150">
          <path id="Path_207475-2" data-name="Path 207475" d="M23.179,0A19.213,19.213,0,0,1,41.136,26.014L59.5,44.375a1.4,1.4,0,0,1,.41.989V55.411a1.4,1.4,0,0,1-1.4,1.4H50.227a1.4,1.4,0,0,1-.989-.409l-2.79-2.786a1.4,1.4,0,0,1-.411-.99V49.2H42.616a1.4,1.4,0,0,1-1.4-1.4V46.429H39.845a1.4,1.4,0,0,1-1.4-1.4V42.019H35.435a1.4,1.4,0,0,1-.989-.41l-4.452-4.452A19.2,19.2,0,1,1,23.179,0Zm0,35.6a16.278,16.278,0,0,0,6.584-1.375,1.4,1.4,0,0,1,1.539.28l.013.012,4.7,4.7h3.831a1.4,1.4,0,0,1,1.4,1.4V43.63h1.372a1.4,1.4,0,0,1,1.4,1.4V46.4h3.422a1.4,1.4,0,0,1,1.4,1.4v4.245l1.97,1.967h6.3V52.034L40,34.931a1.259,1.259,0,0,1,1.781-1.781L57.107,48.472V45.944L38.5,27.336l-.011-.012a1.4,1.4,0,0,1-.281-1.539A16.406,16.406,0,1,0,23.179,35.6Z" transform="translate(-3.978)" fill="#ffb30b"/>
        </g>
      </g>
      <g id="Group_174153-2" data-name="Group 174153" transform="translate(8.116 8.116)">
        <g id="Group_174152-2" data-name="Group 174152">
          <path id="Path_207476-2" data-name="Path 207476" d="M345.642,73.144a5.241,5.241,0,1,1-5.241,5.241A5.247,5.247,0,0,1,345.642,73.144Zm0,7.684a2.443,2.443,0,1,0-2.443-2.443A2.446,2.446,0,0,0,345.642,80.828Z" transform="translate(-340.401 -73.144)" fill="#ffb30b"/>
        </g>
      </g>
    </g>
    <g id="codigo-binario" transform="translate(774 3887)">
      <g id="Group_174155" data-name="Group 174155" transform="translate(20.127 28.747)">
        <g id="Group_174154" data-name="Group 174154">
          <path id="Path_207477" data-name="Path 207477" d="M218.211,213.426a1.43,1.43,0,0,0-1.567.311l-2.875,2.875a1.437,1.437,0,0,0,2.033,2.033l.42-.42v5.155a1.439,1.439,0,0,0,2.878,0v-8.625A1.437,1.437,0,0,0,218.211,213.426Z" transform="translate(-213.349 -213.314)" fill="#084a93"/>
        </g>
      </g>
      <g id="Group_174157" data-name="Group 174157" transform="translate(28.752 28.747)">
        <g id="Group_174156" data-name="Group 174156">
          <path id="Path_207478" data-name="Path 207478" d="M282.211,213.426a1.431,1.431,0,0,0-1.567.311l-2.875,2.875a1.437,1.437,0,0,0,2.033,2.033l.42-.42v5.155a1.439,1.439,0,0,0,2.878,0v-8.625A1.437,1.437,0,0,0,282.211,213.426Z" transform="translate(-277.349 -213.314)" fill="#084a93"/>
        </g>
      </g>
      <g id="Group_174159" data-name="Group 174159" transform="translate(37.377 28.747)">
        <g id="Group_174158" data-name="Group 174158">
          <path id="Path_207479" data-name="Path 207479" d="M346.211,213.426a1.431,1.431,0,0,0-1.567.311l-2.875,2.875a1.437,1.437,0,0,0,2.033,2.033l.42-.42v5.155a1.439,1.439,0,0,0,2.878,0v-8.625A1.438,1.438,0,0,0,346.211,213.426Z" transform="translate(-341.349 -213.314)" fill="#084a93"/>
        </g>
      </g>
      <g id="Group_174161" data-name="Group 174161" transform="translate(8.625 28.75)">
        <g id="Group_174160" data-name="Group 174160">
          <path id="Path_207480" data-name="Path 207480" d="M135.187,213.333h-5.75A1.438,1.438,0,0,0,128,214.771V223.4a1.438,1.438,0,0,0,1.438,1.438h5.75a1.438,1.438,0,0,0,1.438-1.438v-8.625A1.438,1.438,0,0,0,135.187,213.333Zm-1.437,8.625h-2.875v-5.75h2.875Z" transform="translate(-127.999 -213.333)" fill="#084a93"/>
        </g>
      </g>
      <g id="Group_174163" data-name="Group 174163" transform="translate(28.752 45.999)">
        <g id="Group_174162" data-name="Group 174162">
          <path id="Path_207481" data-name="Path 207481" d="M282.211,341.434a1.436,1.436,0,0,0-1.567.31l-2.875,2.875a1.437,1.437,0,1,0,2.033,2.033l.42-.42v5.155a1.439,1.439,0,0,0,2.878,0v-8.625A1.437,1.437,0,0,0,282.211,341.434Z" transform="translate(-277.349 -341.324)" fill="#084a93"/>
        </g>
      </g>
      <g id="Group_174165" data-name="Group 174165" transform="translate(37.377 45.999)">
        <g id="Group_174164" data-name="Group 174164">
          <path id="Path_207482" data-name="Path 207482" d="M346.211,341.434a1.436,1.436,0,0,0-1.567.31l-2.875,2.875a1.437,1.437,0,0,0,2.033,2.033l.42-.42v5.155a1.439,1.439,0,0,0,2.878,0v-8.625A1.438,1.438,0,0,0,346.211,341.434Z" transform="translate(-341.349 -341.324)" fill="#084a93"/>
        </g>
      </g>
      <g id="Group_174167" data-name="Group 174167" transform="translate(8.627 45.999)">
        <g id="Group_174166" data-name="Group 174166">
          <path id="Path_207483" data-name="Path 207483" d="M132.878,341.434a1.435,1.435,0,0,0-1.567.31l-2.875,2.875a1.437,1.437,0,1,0,2.033,2.033l.42-.42v5.155a1.439,1.439,0,0,0,2.878,0v-8.625A1.438,1.438,0,0,0,132.878,341.434Z" transform="translate(-128.016 -341.324)" fill="#084a93"/>
        </g>
      </g>
      <g id="Group_174169" data-name="Group 174169" transform="translate(17.25 46)">
        <g id="Group_174168" data-name="Group 174168">
          <path id="Path_207484" data-name="Path 207484" d="M199.187,341.333h-5.75A1.438,1.438,0,0,0,192,342.771V351.4a1.438,1.438,0,0,0,1.438,1.438h5.75a1.438,1.438,0,0,0,1.438-1.437v-8.625A1.438,1.438,0,0,0,199.187,341.333Zm-1.437,8.625h-2.875v-5.75h2.875Z" transform="translate(-191.999 -341.333)" fill="#084a93"/>
        </g>
      </g>
      <g id="Group_174171" data-name="Group 174171" transform="translate(0)">
        <g id="Group_174170" data-name="Group 174170">
          <path id="Path_207485" data-name="Path 207485" d="M114.312,0H82.687a1.476,1.476,0,0,0-.558.112.99.99,0,0,0-.144.1,1.55,1.55,0,0,0-.316.21L64.419,17.67a1.426,1.426,0,0,0-.155.233,1.33,1.33,0,0,0-.152.23,1.461,1.461,0,0,0-.112.555V67.562A1.438,1.438,0,0,0,65.437,69h48.875a1.438,1.438,0,0,0,1.438-1.438V1.438A1.438,1.438,0,0,0,114.312,0ZM81.249,4.908V17.25H68.907Zm31.625,61.217h-46v-46H82.687a1.438,1.438,0,0,0,1.438-1.438V2.875h28.75v63.25Z" transform="translate(-63.999)" fill="#084a93"/>
        </g>
      </g>
    </g>
    <g id="hoja-de-papel" transform="translate(426 3887)">
      <path id="Path_207486" data-name="Path 207486" d="M103.878,11.256H100.9V8.28A2.735,2.735,0,0,0,98.17,5.548H95.354V2.7a2.7,2.7,0,0,0-2.7-2.7H54.188a2.7,2.7,0,0,0-2.7,2.7V55.044a2.7,2.7,0,0,0,2.7,2.7h2.848v2.816a2.735,2.735,0,0,0,2.732,2.732h2.975v2.975A2.735,2.735,0,0,0,65.474,69h38.4a2.735,2.735,0,0,0,2.732-2.732V13.988a2.735,2.735,0,0,0-2.732-2.732ZM54.188,2.7H92.653l0,52.344H54.188Zm49.721,63.567a.031.031,0,0,1-.031.031h-38.4a.032.032,0,0,1-.032-.031V63.293H98.169a2.735,2.735,0,0,0,2.732-2.732V40.387a1.35,1.35,0,1,0-2.7,0V60.561a.032.032,0,0,1-.031.032h-38.4a.032.032,0,0,1-.031-.032V57.745H92.653a2.7,2.7,0,0,0,2.7-2.7V8.248h2.816a.032.032,0,0,1,.031.032V28.228a1.35,1.35,0,1,0,2.7,0V13.956h2.976a.032.032,0,0,1,.031.031v52.28Z" transform="translate(-51.487 0)" fill="#084a93"/>
      <path id="Path_207487" data-name="Path 207487" d="M136.963,53.189H111.648a1.35,1.35,0,0,0,0,2.7h25.315a1.35,1.35,0,0,0,0-2.7Z" transform="translate(-102.372 -46.021)" fill="#084a93"/>
      <path id="Path_207488" data-name="Path 207488" d="M136.963,101.594H111.648a1.35,1.35,0,0,0,0,2.7h25.315a1.35,1.35,0,0,0,0-2.7Z" transform="translate(-102.372 -87.903)" fill="#084a93"/>
      <path id="Path_207489" data-name="Path 207489" d="M136.963,150H111.648a1.35,1.35,0,0,0,0,2.7h25.315a1.35,1.35,0,0,0,0-2.7Z" transform="translate(-102.372 -129.784)" fill="#084a93"/>
      <path id="Path_207490" data-name="Path 207490" d="M136.963,198.4H111.648a1.35,1.35,0,0,0,0,2.7h25.315a1.35,1.35,0,0,0,0-2.7Z" transform="translate(-102.372 -171.666)" fill="#084a93"/>
      <path id="Path_207491" data-name="Path 207491" d="M136.963,246.809H111.648a1.35,1.35,0,0,0,0,2.7h25.315a1.35,1.35,0,0,0,0-2.7Z" transform="translate(-102.372 -213.548)" fill="#084a93"/>
      <path id="Path_207492" data-name="Path 207492" d="M136.963,295.214H111.648a1.35,1.35,0,0,0,0,2.7h25.315a1.35,1.35,0,0,0,0-2.7Z" transform="translate(-102.372 -255.429)" fill="#084a93"/>
      <path id="Path_207493" data-name="Path 207493" d="M136.963,343.618H111.648a1.35,1.35,0,0,0,0,2.7h25.315a1.35,1.35,0,0,0,0-2.7Z" transform="translate(-102.372 -297.31)" fill="#084a93"/>
      <ellipse id="Ellipse_13023" data-name="Ellipse 13023" cx="1.348" cy="1.348" rx="1.348" ry="1.348" transform="translate(46.717 32.966)" fill="#084a93"/>
    </g>
    <g id="hoja-de-papel-2" data-name="hoja-de-papel" transform="translate(1119 3887)">
      <path id="Path_207486-2" data-name="Path 207486" d="M103.878,11.256H100.9V8.28A2.735,2.735,0,0,0,98.17,5.548H95.354V2.7a2.7,2.7,0,0,0-2.7-2.7H54.188a2.7,2.7,0,0,0-2.7,2.7V55.044a2.7,2.7,0,0,0,2.7,2.7h2.848v2.816a2.735,2.735,0,0,0,2.732,2.732h2.975v2.975A2.735,2.735,0,0,0,65.474,69h38.4a2.735,2.735,0,0,0,2.732-2.732V13.988a2.735,2.735,0,0,0-2.732-2.732ZM54.188,2.7H92.653l0,52.344H54.188Zm49.721,63.567a.031.031,0,0,1-.031.031h-38.4a.032.032,0,0,1-.032-.031V63.293H98.169a2.735,2.735,0,0,0,2.732-2.732V40.387a1.35,1.35,0,1,0-2.7,0V60.561a.032.032,0,0,1-.031.032h-38.4a.032.032,0,0,1-.031-.032V57.745H92.653a2.7,2.7,0,0,0,2.7-2.7V8.248h2.816a.032.032,0,0,1,.031.032V28.228a1.35,1.35,0,1,0,2.7,0V13.956h2.976a.032.032,0,0,1,.031.031v52.28Z" transform="translate(-51.487 0)" fill="#084a93"/>
      <path id="Path_207487-2" data-name="Path 207487" d="M136.963,53.189H111.648a1.35,1.35,0,0,0,0,2.7h25.315a1.35,1.35,0,0,0,0-2.7Z" transform="translate(-102.372 -46.021)" fill="#084a93"/>
      <path id="Path_207488-2" data-name="Path 207488" d="M136.963,101.594H111.648a1.35,1.35,0,0,0,0,2.7h25.315a1.35,1.35,0,0,0,0-2.7Z" transform="translate(-102.372 -87.903)" fill="#084a93"/>
      <path id="Path_207489-2" data-name="Path 207489" d="M136.963,150H111.648a1.35,1.35,0,0,0,0,2.7h25.315a1.35,1.35,0,0,0,0-2.7Z" transform="translate(-102.372 -129.784)" fill="#084a93"/>
      <path id="Path_207490-2" data-name="Path 207490" d="M136.963,198.4H111.648a1.35,1.35,0,0,0,0,2.7h25.315a1.35,1.35,0,0,0,0-2.7Z" transform="translate(-102.372 -171.666)" fill="#084a93"/>
      <path id="Path_207491-2" data-name="Path 207491" d="M136.963,246.809H111.648a1.35,1.35,0,0,0,0,2.7h25.315a1.35,1.35,0,0,0,0-2.7Z" transform="translate(-102.372 -213.548)" fill="#084a93"/>
      <path id="Path_207492-2" data-name="Path 207492" d="M136.963,295.214H111.648a1.35,1.35,0,0,0,0,2.7h25.315a1.35,1.35,0,0,0,0-2.7Z" transform="translate(-102.372 -255.429)" fill="#084a93"/>
      <path id="Path_207493-2" data-name="Path 207493" d="M136.963,343.618H111.648a1.35,1.35,0,0,0,0,2.7h25.315a1.35,1.35,0,0,0,0-2.7Z" transform="translate(-102.372 -297.31)" fill="#084a93"/>
      <ellipse id="Ellipse_13023-2" data-name="Ellipse 13023" cx="1.348" cy="1.348" rx="1.348" ry="1.348" transform="translate(46.717 32.966)" fill="#084a93"/>
    </g>
    <g id="Group_174172" data-name="Group 174172" transform="translate(0 10.246)">
      <path id="Path_207499" data-name="Path 207499" d="M15.094-5.777a6.231,6.231,0,0,1-.961,3.146A5.8,5.8,0,0,1,11.666-.516a8.4,8.4,0,0,1-3.627.75,6.7,6.7,0,0,1-5.3-2.191A9.048,9.048,0,0,1,.809-8.145v-.844a10.328,10.328,0,0,1,.873-4.389A6.615,6.615,0,0,1,4.2-16.283a7.013,7.013,0,0,1,3.8-1.025,7.354,7.354,0,0,1,4.992,1.635,6.459,6.459,0,0,1,2.145,4.506h-4.1a3.056,3.056,0,0,0-.785-2.238,3.229,3.229,0,0,0-2.25-.68,2.457,2.457,0,0,0-2.25,1.148,7.381,7.381,0,0,0-.75,3.668v1.207a8.167,8.167,0,0,0,.686,3.9A2.509,2.509,0,0,0,8.039-2.988a3.159,3.159,0,0,0,2.168-.668A2.835,2.835,0,0,0,11-5.777ZM21.023,0H17.063V-12.68h3.961Zm-4.2-15.949a1.763,1.763,0,0,1,.609-1.383,2.3,2.3,0,0,1,1.582-.539,2.3,2.3,0,0,1,1.582.539,1.763,1.763,0,0,1,.609,1.383,1.763,1.763,0,0,1-.609,1.383,2.3,2.3,0,0,1-1.582.539,2.3,2.3,0,0,1-1.582-.539A1.763,1.763,0,0,1,16.828-15.949ZM24.328,0V-9.937h-1.84V-12.68h1.84v-1.008a4.381,4.381,0,0,1,1.277-3.363,5.047,5.047,0,0,1,3.586-1.2A7.853,7.853,0,0,1,31.043-18l.012,2.906a3.608,3.608,0,0,0-.973-.105q-1.793,0-1.793,1.547v.973h2.473v2.742H28.289V0ZM39.82-9.105,38.52-9.2a2.336,2.336,0,0,0-2.391,1.172V0H32.18V-12.68h3.7l.129,1.629a3.058,3.058,0,0,1,2.777-1.863,3.851,3.851,0,0,1,1.1.141ZM48.035,0a4.459,4.459,0,0,1-.375-1.137A3.672,3.672,0,0,1,44.613.234,4.5,4.5,0,0,1,41.566-.85a3.45,3.45,0,0,1-1.254-2.725,3.546,3.546,0,0,1,1.523-3.117,7.761,7.761,0,0,1,4.43-1.055h1.219v-.671q0-1.755-1.512-1.755a1.236,1.236,0,0,0-1.406,1.39H40.617a3.54,3.54,0,0,1,1.564-2.985,6.575,6.575,0,0,1,3.99-1.147A5.764,5.764,0,0,1,50-11.73a4.115,4.115,0,0,1,1.441,3.246v5.613A5.748,5.748,0,0,0,51.984-.2V0ZM45.563-2.578a2.2,2.2,0,0,0,1.225-.316,1.983,1.983,0,0,0,.7-.715V-5.637H46.336q-2.062,0-2.062,1.852a1.131,1.131,0,0,0,.363.873A1.315,1.315,0,0,0,45.563-2.578Zm7.57-3.855a7.746,7.746,0,0,1,1.3-4.746,4.282,4.282,0,0,1,3.633-1.734,3.641,3.641,0,0,1,2.859,1.336V-18h3.961V0H61.336l-.2-1.359A3.739,3.739,0,0,1,58.043.234,4.274,4.274,0,0,1,54.457-1.5,7.991,7.991,0,0,1,53.133-6.434Zm3.949.246q0,3.375,1.969,3.375a1.944,1.944,0,0,0,1.875-1.1V-8.742a1.892,1.892,0,0,0-1.852-1.125q-1.828,0-1.98,2.953Zm9.551-.27a7.484,7.484,0,0,1,.738-3.381,5.28,5.28,0,0,1,2.121-2.279,6.388,6.388,0,0,1,3.246-.8,5.83,5.83,0,0,1,4.488,1.764,6.768,6.768,0,0,1,1.641,4.8v.141a6.566,6.566,0,0,1-1.646,4.705A5.846,5.846,0,0,1,72.762.234a5.912,5.912,0,0,1-4.348-1.623,6.348,6.348,0,0,1-1.77-4.4Zm3.949.246a4.718,4.718,0,0,0,.551,2.578,1.835,1.835,0,0,0,1.629.82q2.109,0,2.156-3.246v-.4q0-3.41-2.18-3.41-1.98,0-2.145,2.941Z" transform="translate(760 3837)" fill="#084a93"/>
      <path id="Path_207498" data-name="Path 207498" d="M1.039-4.617a12.079,12.079,0,0,1,.473-3.391,9.85,9.85,0,0,1,1.41-2.953,6,6,0,0,1,1.945-1.875l.3.953A6.222,6.222,0,0,0,3.293-9.211a11.583,11.583,0,0,0-.8,4.023l-.008.664A11.643,11.643,0,0,0,3.586.711,6.252,6.252,0,0,0,5.164,2.789l-.3.883A6.192,6.192,0,0,1,2.883,1.734,10.859,10.859,0,0,1,1.039-4.617ZM11.781-.836A3.07,3.07,0,0,1,9.3.156,2.628,2.628,0,0,1,7.246-.629a3.4,3.4,0,0,1-.715-2.324v-5.5H7.977v5.461q0,1.922,1.563,1.922a2.163,2.163,0,0,0,2.2-1.234V-8.453h1.445V0H11.813ZM17.344-10.5v2.047h1.578v1.117H17.344v5.249a1.173,1.173,0,0,0,.211.763.888.888,0,0,0,.719.254,3.5,3.5,0,0,0,.688-.094V0a4.215,4.215,0,0,1-1.109.155A1.8,1.8,0,0,1,16.391-.43,2.517,2.517,0,0,1,15.9-2.094V-7.336H14.359V-8.453H15.9V-10.5ZM22.18,0H20.734V-8.453H22.18ZM20.617-10.7a.863.863,0,0,1,.215-.594.807.807,0,0,1,.637-.242.819.819,0,0,1,.641.242.854.854,0,0,1,.219.594.826.826,0,0,1-.219.586.834.834,0,0,1-.641.234.821.821,0,0,1-.637-.234A.834.834,0,0,1,20.617-10.7ZM26.063,0H24.617V-12h1.445Zm3.883,0H28.5V-8.453h1.445ZM28.383-10.7a.863.863,0,0,1,.215-.594.807.807,0,0,1,.637-.242.819.819,0,0,1,.641.242.854.854,0,0,1,.219.594.826.826,0,0,1-.219.586.834.834,0,0,1-.641.234.821.821,0,0,1-.637-.234A.834.834,0,0,1,28.383-10.7ZM33.617-1.18h4.945V0H31.852V-1.062l4.664-6.2H31.922v-1.2h6.406V-7.43ZM45.406,0a3.036,3.036,0,0,1-.2-.891A3.225,3.225,0,0,1,42.8.156a2.984,2.984,0,0,1-2.051-.707,2.287,2.287,0,0,1-.8-1.793,2.39,2.39,0,0,1,1-2.051,4.733,4.733,0,0,1,2.824-.73H45.18v-.664A1.623,1.623,0,0,0,44.727-7a1.821,1.821,0,0,0-1.336-.449,2.107,2.107,0,0,0-1.3.391,1.151,1.151,0,0,0-.523.945H40.117a2,2,0,0,1,.449-1.223,3.066,3.066,0,0,1,1.219-.934,4.1,4.1,0,0,1,1.691-.344,3.342,3.342,0,0,1,2.289.73,2.635,2.635,0,0,1,.859,2.012v3.891a4.757,4.757,0,0,0,.3,1.852V0Zm-2.4-1.1A2.54,2.54,0,0,0,44.3-1.453a2.127,2.127,0,0,0,.883-.914V-4.1H44.047q-2.656,0-2.656,1.555a1.316,1.316,0,0,0,.453,1.063A1.742,1.742,0,0,0,43.008-1.1Zm5.531-3.2a4.952,4.952,0,0,1,.922-3.129,2.915,2.915,0,0,1,2.414-1.184,2.932,2.932,0,0,1,2.352,1.016V-12h1.445V0H54.344l-.07-.906A2.943,2.943,0,0,1,51.859.156a2.887,2.887,0,0,1-2.395-1.2,5.008,5.008,0,0,1-.926-3.141Zm1.445.164a3.749,3.749,0,0,0,.594,2.25,1.92,1.92,0,0,0,1.641.813A2.108,2.108,0,0,0,54.227-2.3V-6.187a2.125,2.125,0,0,0-1.992-1.2,1.929,1.929,0,0,0-1.656.82A4.128,4.128,0,0,0,49.984-4.133ZM57.531-4.3a4.993,4.993,0,0,1,.488-2.234A3.643,3.643,0,0,1,59.379-8.07a3.7,3.7,0,0,1,1.988-.539,3.565,3.565,0,0,1,2.793,1.2,4.6,4.6,0,0,1,1.066,3.18v.1a5.036,5.036,0,0,1-.473,2.215A3.589,3.589,0,0,1,63.4-.391a3.743,3.743,0,0,1-2.02.547,3.556,3.556,0,0,1-2.785-1.2A4.575,4.575,0,0,1,57.531-4.2Zm1.453.172a3.616,3.616,0,0,0,.652,2.258,2.088,2.088,0,0,0,1.746.852,2.075,2.075,0,0,0,1.75-.863A3.955,3.955,0,0,0,63.781-4.3a3.61,3.61,0,0,0-.66-2.254,2.1,2.1,0,0,0-1.754-.863,2.075,2.075,0,0,0-1.727.852A3.925,3.925,0,0,0,58.984-4.133Zm19.156,0a5.062,5.062,0,0,1-.883,3.109A2.829,2.829,0,0,1,74.867.156,3.1,3.1,0,0,1,72.445-.82V3.25H71v-11.7h1.32l.07.938a2.977,2.977,0,0,1,2.453-1.094,2.882,2.882,0,0,1,2.41,1.148,5.117,5.117,0,0,1,.887,3.2ZM76.7-4.3a3.735,3.735,0,0,0-.609-2.258,1.963,1.963,0,0,0-1.672-.828,2.125,2.125,0,0,0-1.969,1.164V-2.18A2.129,2.129,0,0,0,74.43-1.023a1.954,1.954,0,0,0,1.652-.824A4.077,4.077,0,0,0,76.7-4.3ZM85.2,0a3.036,3.036,0,0,1-.2-.891A3.225,3.225,0,0,1,82.586.156a2.984,2.984,0,0,1-2.051-.707,2.288,2.288,0,0,1-.8-1.793,2.39,2.39,0,0,1,1-2.051,4.733,4.733,0,0,1,2.824-.73h1.406v-.664A1.623,1.623,0,0,0,84.516-7a1.821,1.821,0,0,0-1.336-.449,2.108,2.108,0,0,0-1.3.391,1.151,1.151,0,0,0-.523.945H79.906a2,2,0,0,1,.449-1.223,3.066,3.066,0,0,1,1.219-.934,4.1,4.1,0,0,1,1.691-.344,3.342,3.342,0,0,1,2.289.73,2.635,2.635,0,0,1,.859,2.012v3.891a4.757,4.757,0,0,0,.3,1.852V0ZM82.8-1.1a2.54,2.54,0,0,0,1.289-.352,2.127,2.127,0,0,0,.883-.914V-4.1H83.836q-2.656,0-2.656,1.555a1.316,1.316,0,0,0,.453,1.063A1.742,1.742,0,0,0,82.8-1.1Zm9.969-6.055a4.331,4.331,0,0,0-.711-.055A1.9,1.9,0,0,0,90.125-6V0H88.68V-8.453h1.406l.023.977a2.251,2.251,0,0,1,2.016-1.133,1.477,1.477,0,0,1,.641.109ZM99,0a3.036,3.036,0,0,1-.2-.891A3.225,3.225,0,0,1,96.391.156,2.984,2.984,0,0,1,94.34-.551a2.288,2.288,0,0,1-.8-1.793,2.39,2.39,0,0,1,1-2.051,4.733,4.733,0,0,1,2.824-.73h1.406v-.664A1.623,1.623,0,0,0,98.32-7a1.821,1.821,0,0,0-1.336-.449,2.108,2.108,0,0,0-1.3.391,1.151,1.151,0,0,0-.523.945H93.711a2,2,0,0,1,.449-1.223,3.066,3.066,0,0,1,1.219-.934,4.1,4.1,0,0,1,1.691-.344,3.342,3.342,0,0,1,2.289.73,2.635,2.635,0,0,1,.859,2.012v3.891a4.757,4.757,0,0,0,.3,1.852V0ZM96.6-1.1a2.54,2.54,0,0,0,1.289-.352,2.127,2.127,0,0,0,.883-.914V-4.1H97.641q-2.656,0-2.656,1.555a1.316,1.316,0,0,0,.453,1.063A1.742,1.742,0,0,0,96.6-1.1Zm16.984-3.031a5.062,5.062,0,0,1-.883,3.109,2.829,2.829,0,0,1-2.391,1.18,3.1,3.1,0,0,1-2.422-.977V3.25h-1.445v-11.7h1.32l.07.938a2.977,2.977,0,0,1,2.453-1.094,2.882,2.882,0,0,1,2.41,1.148,5.117,5.117,0,0,1,.887,3.2ZM112.141-4.3a3.735,3.735,0,0,0-.609-2.258,1.963,1.963,0,0,0-1.672-.828,2.125,2.125,0,0,0-1.969,1.164V-2.18a2.129,2.129,0,0,0,1.984,1.156,1.954,1.954,0,0,0,1.652-.824A4.077,4.077,0,0,0,112.141-4.3Zm7.367-2.859a4.331,4.331,0,0,0-.711-.055A1.9,1.9,0,0,0,116.867-6V0h-1.445V-8.453h1.406l.023.977a2.251,2.251,0,0,1,2.016-1.133,1.477,1.477,0,0,1,.641.109ZM120.3-4.3a4.993,4.993,0,0,1,.488-2.234,3.643,3.643,0,0,1,1.359-1.531,3.7,3.7,0,0,1,1.988-.539,3.565,3.565,0,0,1,2.793,1.2,4.6,4.6,0,0,1,1.066,3.18v.1a5.036,5.036,0,0,1-.473,2.215,3.589,3.589,0,0,1-1.352,1.527,3.743,3.743,0,0,1-2.02.547,3.556,3.556,0,0,1-2.785-1.2A4.575,4.575,0,0,1,120.3-4.2Zm1.453.172a3.616,3.616,0,0,0,.652,2.258,2.088,2.088,0,0,0,1.746.852,2.075,2.075,0,0,0,1.75-.863,3.955,3.955,0,0,0,.648-2.418,3.61,3.61,0,0,0-.66-2.254,2.1,2.1,0,0,0-1.754-.863,2.075,2.075,0,0,0-1.727.852A3.925,3.925,0,0,0,121.75-4.133ZM131.766-10.5v2.047h1.578v1.117h-1.578v5.249a1.173,1.173,0,0,0,.211.763.888.888,0,0,0,.719.254,3.5,3.5,0,0,0,.688-.094V0a4.215,4.215,0,0,1-1.109.155,1.8,1.8,0,0,1-1.461-.586,2.517,2.517,0,0,1-.492-1.664V-7.336h-1.539V-8.453h1.539V-10.5ZM138.539.156a3.693,3.693,0,0,1-2.8-1.129,4.19,4.19,0,0,1-1.078-3.02v-.266a5.073,5.073,0,0,1,.48-2.246,3.748,3.748,0,0,1,1.344-1.547,3.378,3.378,0,0,1,1.871-.559,3.166,3.166,0,0,1,2.563,1.086,4.7,4.7,0,0,1,.914,3.109v.6h-5.727a3,3,0,0,0,.73,2.02,2.3,2.3,0,0,0,1.777.77,2.517,2.517,0,0,0,1.3-.312,3.258,3.258,0,0,0,.93-.828l.883.688A3.55,3.55,0,0,1,138.539.156Zm-.18-7.578a1.928,1.928,0,0,0-1.469.637A3.1,3.1,0,0,0,136.156-5h4.234v-.109a2.753,2.753,0,0,0-.594-1.707A1.815,1.815,0,0,0,138.359-7.422Zm4.8,3.125a4.968,4.968,0,0,1,.914-3.145A2.923,2.923,0,0,1,146.5-8.609a2.908,2.908,0,0,1,2.414,1.094l.07-.937h1.32V-.2a3.439,3.439,0,0,1-.973,2.586,3.589,3.589,0,0,1-2.613.945,4.348,4.348,0,0,1-1.789-.391,3.08,3.08,0,0,1-1.336-1.07l.75-.867a2.826,2.826,0,0,0,2.273,1.148,2.214,2.214,0,0,0,1.645-.594,2.269,2.269,0,0,0,.59-1.672V-.844a2.971,2.971,0,0,1-2.367,1,2.887,2.887,0,0,1-2.4-1.2A5.224,5.224,0,0,1,143.164-4.3Zm1.453.164a3.79,3.79,0,0,0,.586,2.246,1.9,1.9,0,0,0,1.641.816,2.117,2.117,0,0,0,2.008-1.242V-6.172a2.142,2.142,0,0,0-1.992-1.211,1.921,1.921,0,0,0-1.648.82A4.128,4.128,0,0,0,144.617-4.133ZM155.992.156a3.693,3.693,0,0,1-2.8-1.129,4.19,4.19,0,0,1-1.078-3.02v-.266A5.073,5.073,0,0,1,152.6-6.5a3.748,3.748,0,0,1,1.344-1.547,3.378,3.378,0,0,1,1.871-.559,3.166,3.166,0,0,1,2.563,1.086,4.7,4.7,0,0,1,.914,3.109v.6h-5.727a3,3,0,0,0,.73,2.02,2.3,2.3,0,0,0,1.777.77,2.517,2.517,0,0,0,1.3-.312,3.258,3.258,0,0,0,.93-.828l.883.688A3.55,3.55,0,0,1,155.992.156Zm-.18-7.578a1.928,1.928,0,0,0-1.469.637A3.1,3.1,0,0,0,153.609-5h4.234v-.109a2.753,2.753,0,0,0-.594-1.707A1.815,1.815,0,0,0,155.813-7.422Zm9.234.266a4.331,4.331,0,0,0-.711-.055A1.9,1.9,0,0,0,162.406-6V0h-1.445V-8.453h1.406l.023.977a2.251,2.251,0,0,1,2.016-1.133,1.477,1.477,0,0,1,.641.109ZM171.906,0h-1.445V-8.453h1.445Zm-1.562-10.7a.863.863,0,0,1,.215-.594.807.807,0,0,1,.637-.242.819.819,0,0,1,.641.242.854.854,0,0,1,.219.594.826.826,0,0,1-.219.586.834.834,0,0,1-.641.234.821.821,0,0,1-.637-.234A.834.834,0,0,1,170.344-10.7Zm5.242,2.242.047,1.063a3.08,3.08,0,0,1,2.531-1.219q2.68,0,2.7,3.023V0h-1.445V-5.594A1.946,1.946,0,0,0,179-6.945a1.675,1.675,0,0,0-1.277-.437,2.086,2.086,0,0,0-1.234.375,2.546,2.546,0,0,0-.828.984V0h-1.445V-8.453ZM183.758,0V-7.336h-1.336V-8.453h1.336V-9.32a2.878,2.878,0,0,1,.727-2.1,2.745,2.745,0,0,1,2.055-.742,3.816,3.816,0,0,1,.992.132l-.078,1.165a4.151,4.151,0,0,0-.781-.07,1.41,1.41,0,0,0-1.086.411,1.669,1.669,0,0,0-.383,1.18v.893h1.8v1.117h-1.8V0Zm4.461-4.3a4.993,4.993,0,0,1,.488-2.234,3.642,3.642,0,0,1,1.359-1.531,3.7,3.7,0,0,1,1.988-.539,3.565,3.565,0,0,1,2.793,1.2,4.6,4.6,0,0,1,1.066,3.18v.1a5.036,5.036,0,0,1-.473,2.215A3.589,3.589,0,0,1,194.09-.391a3.743,3.743,0,0,1-2.02.547,3.556,3.556,0,0,1-2.785-1.2A4.575,4.575,0,0,1,188.219-4.2Zm1.453.172a3.616,3.616,0,0,0,.652,2.258,2.088,2.088,0,0,0,1.746.852,2.075,2.075,0,0,0,1.75-.863,3.954,3.954,0,0,0,.648-2.418,3.61,3.61,0,0,0-.66-2.254,2.1,2.1,0,0,0-1.754-.863,2.075,2.075,0,0,0-1.727.852A3.925,3.925,0,0,0,189.672-4.133Zm12.141-3.023a4.331,4.331,0,0,0-.711-.055A1.9,1.9,0,0,0,199.172-6V0h-1.445V-8.453h1.406l.023.977a2.251,2.251,0,0,1,2.016-1.133,1.477,1.477,0,0,1,.641.109Zm2.688-1.3.039.938a3.122,3.122,0,0,1,2.508-1.094,2.417,2.417,0,0,1,2.414,1.359,3.2,3.2,0,0,1,1.1-.984,3.242,3.242,0,0,1,1.6-.375q2.781,0,2.828,2.945V0h-1.445V-5.578a1.941,1.941,0,0,0-.414-1.355,1.823,1.823,0,0,0-1.391-.449,1.917,1.917,0,0,0-1.336.48,1.949,1.949,0,0,0-.617,1.293V0h-1.453V-5.539a1.613,1.613,0,0,0-1.8-1.844,1.934,1.934,0,0,0-1.945,1.211V0h-1.445V-8.453ZM222.383,0a3.036,3.036,0,0,1-.2-.891A3.225,3.225,0,0,1,219.773.156a2.984,2.984,0,0,1-2.051-.707,2.287,2.287,0,0,1-.8-1.793,2.39,2.39,0,0,1,1-2.051,4.733,4.733,0,0,1,2.824-.73h1.406v-.664A1.623,1.623,0,0,0,221.7-7a1.821,1.821,0,0,0-1.336-.449,2.107,2.107,0,0,0-1.3.391,1.151,1.151,0,0,0-.523.945h-1.453a2,2,0,0,1,.449-1.223,3.066,3.066,0,0,1,1.219-.934,4.1,4.1,0,0,1,1.691-.344,3.342,3.342,0,0,1,2.289.73,2.635,2.635,0,0,1,.859,2.012v3.891a4.757,4.757,0,0,0,.3,1.852V0Zm-2.4-1.1a2.54,2.54,0,0,0,1.289-.352,2.127,2.127,0,0,0,.883-.914V-4.1h-1.133q-2.656,0-2.656,1.555a1.316,1.316,0,0,0,.453,1.063A1.742,1.742,0,0,0,219.984-1.1Zm9.273.078a2.082,2.082,0,0,0,1.352-.469,1.649,1.649,0,0,0,.641-1.172h1.367a2.621,2.621,0,0,1-.5,1.383,3.293,3.293,0,0,1-1.23,1.047,3.55,3.55,0,0,1-1.629.391A3.482,3.482,0,0,1,226.512-1a4.59,4.59,0,0,1-1.02-3.152v-.242a5.089,5.089,0,0,1,.453-2.2,3.451,3.451,0,0,1,1.3-1.492,3.7,3.7,0,0,1,2-.531,3.39,3.39,0,0,1,2.363.852,3.043,3.043,0,0,1,1,2.211H231.25a1.992,1.992,0,0,0-.621-1.348,1.932,1.932,0,0,0-1.379-.527,2.023,2.023,0,0,0-1.707.793,3.724,3.724,0,0,0-.605,2.293v.273a3.65,3.65,0,0,0,.6,2.25A2.033,2.033,0,0,0,229.258-1.023ZM235.813,0h-1.445V-8.453h1.445ZM234.25-10.7a.863.863,0,0,1,.215-.594.807.807,0,0,1,.637-.242.819.819,0,0,1,.641.242.854.854,0,0,1,.219.594.826.826,0,0,1-.219.586.834.834,0,0,1-.641.234.821.821,0,0,1-.637-.234A.834.834,0,0,1,234.25-10.7ZM237.742-4.3a4.993,4.993,0,0,1,.488-2.234A3.642,3.642,0,0,1,239.59-8.07a3.7,3.7,0,0,1,1.988-.539,3.565,3.565,0,0,1,2.793,1.2,4.6,4.6,0,0,1,1.066,3.18v.1a5.036,5.036,0,0,1-.473,2.215,3.589,3.589,0,0,1-1.352,1.527,3.743,3.743,0,0,1-2.02.547,3.556,3.556,0,0,1-2.785-1.2A4.575,4.575,0,0,1,237.742-4.2Zm1.453.172a3.616,3.616,0,0,0,.652,2.258,2.088,2.088,0,0,0,1.746.852,2.075,2.075,0,0,0,1.75-.863,3.954,3.954,0,0,0,.648-2.418,3.61,3.61,0,0,0-.66-2.254,2.1,2.1,0,0,0-1.754-.863,2.075,2.075,0,0,0-1.727.852A3.925,3.925,0,0,0,239.2-4.133ZM242.234-12h1.75l-2.094,2.3-1.164,0Zm6.383,3.547.047,1.063A3.08,3.08,0,0,1,251.2-8.609q2.68,0,2.7,3.023V0h-1.445V-5.594a1.946,1.946,0,0,0-.418-1.352,1.675,1.675,0,0,0-1.277-.437,2.086,2.086,0,0,0-1.234.375,2.546,2.546,0,0,0-.828.984V0H247.25V-8.453Zm14.813,7.43a2.082,2.082,0,0,0,1.352-.469,1.649,1.649,0,0,0,.641-1.172h1.367a2.621,2.621,0,0,1-.5,1.383,3.293,3.293,0,0,1-1.23,1.047,3.551,3.551,0,0,1-1.629.391A3.482,3.482,0,0,1,260.684-1a4.59,4.59,0,0,1-1.02-3.152v-.242a5.089,5.089,0,0,1,.453-2.2,3.451,3.451,0,0,1,1.3-1.492,3.7,3.7,0,0,1,2-.531,3.39,3.39,0,0,1,2.363.852,3.043,3.043,0,0,1,1,2.211h-1.367a1.992,1.992,0,0,0-.621-1.348,1.932,1.932,0,0,0-1.379-.527,2.023,2.023,0,0,0-1.707.793,3.724,3.724,0,0,0-.605,2.293v.273a3.65,3.65,0,0,0,.6,2.25A2.033,2.033,0,0,0,263.43-1.023Zm4.6-3.281a4.993,4.993,0,0,1,.488-2.234,3.643,3.643,0,0,1,1.359-1.531,3.7,3.7,0,0,1,1.988-.539,3.565,3.565,0,0,1,2.793,1.2,4.6,4.6,0,0,1,1.066,3.18v.1a5.036,5.036,0,0,1-.473,2.215A3.589,3.589,0,0,1,273.9-.391a3.743,3.743,0,0,1-2.02.547,3.556,3.556,0,0,1-2.785-1.2A4.575,4.575,0,0,1,268.031-4.2Zm1.453.172a3.616,3.616,0,0,0,.652,2.258,2.088,2.088,0,0,0,1.746.852,2.075,2.075,0,0,0,1.75-.863,3.955,3.955,0,0,0,.648-2.418,3.61,3.61,0,0,0-.66-2.254,2.1,2.1,0,0,0-1.754-.863,2.075,2.075,0,0,0-1.727.852A3.925,3.925,0,0,0,269.484-4.133Zm9.422-4.32.047,1.063a3.08,3.08,0,0,1,2.531-1.219q2.68,0,2.7,3.023V0h-1.445V-5.594a1.946,1.946,0,0,0-.418-1.352,1.675,1.675,0,0,0-1.277-.437,2.086,2.086,0,0,0-1.234.375,2.546,2.546,0,0,0-.828.984V0h-1.445V-8.453ZM286.852,0V-7.336h-1.336V-8.453h1.336v-.719a2.937,2.937,0,0,1,.809-2.2,3.136,3.136,0,0,1,2.285-.789,6.881,6.881,0,0,1,2.211.477l-.242,1.219a5.008,5.008,0,0,0-1.859-.391,1.819,1.819,0,0,0-1.34.418,1.723,1.723,0,0,0-.41,1.254v.734h1.727v1.117H288.3V0Zm6.023,0h-1.453V-8.453h1.453Zm2-4.3a4.952,4.952,0,0,1,.922-3.129,2.915,2.915,0,0,1,2.414-1.184,2.932,2.932,0,0,1,2.352,1.016V-12h1.445V0H300.68l-.07-.906A2.943,2.943,0,0,1,298.2.156a2.887,2.887,0,0,1-2.395-1.2,5.008,5.008,0,0,1-.926-3.141Zm1.445.164a3.749,3.749,0,0,0,.594,2.25,1.92,1.92,0,0,0,1.641.813A2.109,2.109,0,0,0,300.563-2.3V-6.187a2.125,2.125,0,0,0-1.992-1.2,1.929,1.929,0,0,0-1.656.82A4.128,4.128,0,0,0,296.32-4.133ZM307.758.156a3.693,3.693,0,0,1-2.8-1.129,4.19,4.19,0,0,1-1.078-3.02v-.266a5.073,5.073,0,0,1,.48-2.246,3.748,3.748,0,0,1,1.344-1.547,3.379,3.379,0,0,1,1.871-.559,3.166,3.166,0,0,1,2.563,1.086,4.7,4.7,0,0,1,.914,3.109v.6h-5.727a3,3,0,0,0,.73,2.02,2.3,2.3,0,0,0,1.777.77,2.517,2.517,0,0,0,1.3-.312,3.259,3.259,0,0,0,.93-.828l.883.688A3.55,3.55,0,0,1,307.758.156Zm-.18-7.578a1.928,1.928,0,0,0-1.469.637A3.1,3.1,0,0,0,305.375-5h4.234v-.109a2.753,2.753,0,0,0-.594-1.707A1.815,1.815,0,0,0,307.578-7.422Zm6.516-1.031.047,1.063a3.08,3.08,0,0,1,2.531-1.219q2.68,0,2.7,3.023V0H317.93V-5.594a1.946,1.946,0,0,0-.418-1.352,1.675,1.675,0,0,0-1.277-.437A2.086,2.086,0,0,0,315-7.008a2.546,2.546,0,0,0-.828.984V0h-1.445V-8.453Zm10.852,7.43a2.082,2.082,0,0,0,1.352-.469,1.649,1.649,0,0,0,.641-1.172H328.3a2.621,2.621,0,0,1-.5,1.383,3.293,3.293,0,0,1-1.23,1.047,3.551,3.551,0,0,1-1.629.391A3.482,3.482,0,0,1,322.2-1a4.59,4.59,0,0,1-1.02-3.152v-.242a5.089,5.089,0,0,1,.453-2.2,3.451,3.451,0,0,1,1.3-1.492,3.7,3.7,0,0,1,2-.531,3.39,3.39,0,0,1,2.363.852,3.043,3.043,0,0,1,1,2.211h-1.367a1.992,1.992,0,0,0-.621-1.348,1.932,1.932,0,0,0-1.379-.527,2.023,2.023,0,0,0-1.707.793,3.724,3.724,0,0,0-.605,2.293v.273a3.65,3.65,0,0,0,.6,2.25A2.033,2.033,0,0,0,324.945-1.023ZM331.5,0h-1.445V-8.453H331.5Zm-1.562-10.7a.863.863,0,0,1,.215-.594.807.807,0,0,1,.637-.242.819.819,0,0,1,.641.242.854.854,0,0,1,.219.594.826.826,0,0,1-.219.586.834.834,0,0,1-.641.234.821.821,0,0,1-.637-.234A.834.834,0,0,1,329.938-10.7ZM339.031,0a3.036,3.036,0,0,1-.2-.891A3.225,3.225,0,0,1,336.422.156a2.984,2.984,0,0,1-2.051-.707,2.288,2.288,0,0,1-.8-1.793,2.39,2.39,0,0,1,1-2.051,4.733,4.733,0,0,1,2.824-.73H338.8v-.664A1.623,1.623,0,0,0,338.352-7a1.821,1.821,0,0,0-1.336-.449,2.108,2.108,0,0,0-1.3.391,1.151,1.151,0,0,0-.523.945h-1.453a2,2,0,0,1,.449-1.223,3.066,3.066,0,0,1,1.219-.934,4.1,4.1,0,0,1,1.691-.344,3.342,3.342,0,0,1,2.289.73,2.635,2.635,0,0,1,.859,2.012v3.891a4.757,4.757,0,0,0,.3,1.852V0Zm-2.4-1.1a2.54,2.54,0,0,0,1.289-.352,2.126,2.126,0,0,0,.883-.914V-4.1h-1.133q-2.656,0-2.656,1.555a1.316,1.316,0,0,0,.453,1.063A1.742,1.742,0,0,0,336.633-1.1ZM344.086,0h-1.445V-12h1.445Zm5.648-4.539a12.084,12.084,0,0,1-.457,3.34,9.876,9.876,0,0,1-1.4,2.949,6.127,6.127,0,0,1-1.973,1.922l-.3-.883a6.281,6.281,0,0,0,1.934-2.863,12.387,12.387,0,0,0,.746-4.309v-.25a12.862,12.862,0,0,0-.344-3.051,10.3,10.3,0,0,0-.957-2.527,5.838,5.838,0,0,0-1.379-1.742l.3-.883a6.1,6.1,0,0,1,1.965,1.906,9.9,9.9,0,0,1,1.4,2.945A12.363,12.363,0,0,1,349.734-4.539Z" transform="translate(625 3863)" fill="#084a93"/>
      <path id="Path_207494" data-name="Path 207494" d="M9.578-9.477H6.094V0H3.75V-9.477H.313v-1.9H9.578ZM13.961.156A4.15,4.15,0,0,1,10.934-.984,4.054,4.054,0,0,1,9.766-4.023v-.219a5.106,5.106,0,0,1,.492-2.277,3.612,3.612,0,0,1,1.395-1.547,3.914,3.914,0,0,1,2.059-.543,3.508,3.508,0,0,1,2.73,1.094,4.444,4.444,0,0,1,1,3.1v.922H12.055a2.1,2.1,0,0,0,.66,1.328,2,2,0,0,0,1.395.5,2.437,2.437,0,0,0,2.039-.945l1.109,1.242A3.389,3.389,0,0,1,15.883-.246,4.511,4.511,0,0,1,13.961.156ZM13.7-6.789a1.411,1.411,0,0,0-1.09.455,2.357,2.357,0,0,0-.535,1.3h3.141v-.181a1.681,1.681,0,0,0-.406-1.165A1.456,1.456,0,0,0,13.7-6.789Zm8.234.859,1.422-2.523h2.414L23.367-4.312,25.875,0H23.453L21.945-2.656,20.445,0h-2.43l2.508-4.312-2.4-4.141h2.422Zm7.625-4.6v2.078h1.445V-6.8H29.563v4.219a1.007,1.007,0,0,0,.18.672.9.9,0,0,0,.688.2,3.6,3.6,0,0,0,.664-.055V-.047a4.648,4.648,0,0,1-1.367.2,2.156,2.156,0,0,1-2.422-2.4V-6.8H26.07V-8.453H27.3v-2.078ZM31.68-4.3a5.013,5.013,0,0,1,.484-2.242A3.546,3.546,0,0,1,33.559-8.07a4.069,4.069,0,0,1,2.113-.539,3.849,3.849,0,0,1,2.793,1.047,4.2,4.2,0,0,1,1.207,2.844l.016.578A4.418,4.418,0,0,1,38.6-1.02,3.775,3.775,0,0,1,35.688.156,3.793,3.793,0,0,1,32.77-1.016,4.5,4.5,0,0,1,31.68-4.2Zm2.258.16A3.16,3.16,0,0,0,34.391-2.3a1.5,1.5,0,0,0,1.3.638,1.5,1.5,0,0,0,1.281-.63,3.457,3.457,0,0,0,.461-2.015,3.128,3.128,0,0,0-.461-1.831,1.5,1.5,0,0,0-1.3-.649,1.474,1.474,0,0,0-1.281.646A3.516,3.516,0,0,0,33.938-4.144Zm15.7,1.808a.727.727,0,0,0-.41-.652,4.659,4.659,0,0,0-1.316-.426Q44.9-4.047,44.9-5.977a2.323,2.323,0,0,1,.934-1.879,3.766,3.766,0,0,1,2.441-.754,4.053,4.053,0,0,1,2.574.758,2.388,2.388,0,0,1,.965,1.969H49.555a1.092,1.092,0,0,0-.312-.8A1.322,1.322,0,0,0,48.266-7a1.351,1.351,0,0,0-.883.258.814.814,0,0,0-.312.656.7.7,0,0,0,.355.605,3.657,3.657,0,0,0,1.2.4,9.8,9.8,0,0,1,1.422.379A2.336,2.336,0,0,1,51.836-2.43a2.2,2.2,0,0,1-.992,1.871,4.28,4.28,0,0,1-2.562.715,4.47,4.47,0,0,1-1.887-.379A3.166,3.166,0,0,1,45.1-1.262a2.414,2.414,0,0,1-.469-1.426h2.141a1.179,1.179,0,0,0,.445.922,1.766,1.766,0,0,0,1.109.32,1.635,1.635,0,0,0,.98-.246A.766.766,0,0,0,49.641-2.336ZM55.672,0H53.406V-8.453h2.266Zm-2.4-10.641a1.112,1.112,0,0,1,.34-.836,1.277,1.277,0,0,1,.926-.328,1.28,1.28,0,0,1,.922.328,1.105,1.105,0,0,1,.344.836,1.108,1.108,0,0,1-.348.844,1.283,1.283,0,0,1-.918.328,1.283,1.283,0,0,1-.918-.328A1.108,1.108,0,0,1,53.273-10.641Zm6.336,2.188.07.977a2.951,2.951,0,0,1,2.43-1.133,2.453,2.453,0,0,1,2,.789,3.682,3.682,0,0,1,.672,2.359V0H62.523V-5.406a1.465,1.465,0,0,0-.312-1.043,1.4,1.4,0,0,0-1.039-.324,1.553,1.553,0,0,0-1.43.813V0H57.484V-8.453ZM71.094,0V-6.8H69.836V-8.453h1.258v-.719a2.918,2.918,0,0,1,.816-2.207,3.162,3.162,0,0,1,2.285-.785,5.278,5.278,0,0,1,1.148.156l-.023,1.75a2.878,2.878,0,0,0-.687-.07q-1.273,0-1.273,1.2v.68h1.68V-6.8h-1.68V0Zm4.766-4.3a5.013,5.013,0,0,1,.484-2.242A3.546,3.546,0,0,1,77.738-8.07a4.069,4.069,0,0,1,2.113-.539,3.849,3.849,0,0,1,2.793,1.047,4.2,4.2,0,0,1,1.207,2.844l.016.578A4.418,4.418,0,0,1,82.781-1.02,3.775,3.775,0,0,1,79.867.156a3.793,3.793,0,0,1-2.918-1.172A4.5,4.5,0,0,1,75.859-4.2Zm2.258.16A3.16,3.16,0,0,0,78.57-2.3a1.5,1.5,0,0,0,1.3.638,1.5,1.5,0,0,0,1.281-.63,3.457,3.457,0,0,0,.461-2.015,3.128,3.128,0,0,0-.461-1.831,1.5,1.5,0,0,0-1.3-.649,1.474,1.474,0,0,0-1.281.646A3.516,3.516,0,0,0,78.117-4.144ZM90.008-6.336A6.134,6.134,0,0,0,89.2-6.4a1.654,1.654,0,0,0-1.68.867V0H85.258V-8.453h2.133l.063,1.008a2.092,2.092,0,0,1,1.883-1.164,2.366,2.366,0,0,1,.7.1Zm3.2-2.117.07.945a2.971,2.971,0,0,1,2.43-1.1A2.255,2.255,0,0,1,97.953-7.32a2.9,2.9,0,0,1,2.539-1.289,2.521,2.521,0,0,1,2.047.8,3.681,3.681,0,0,1,.672,2.41V0h-2.266V-5.391a1.61,1.61,0,0,0-.281-1.051,1.246,1.246,0,0,0-.992-.332,1.409,1.409,0,0,0-1.406.969L98.273,0H96.016V-5.383a1.59,1.59,0,0,0-.289-1.062,1.259,1.259,0,0,0-.984-.328,1.463,1.463,0,0,0-1.391.8V0H91.094V-8.453ZM109.844,0a2.507,2.507,0,0,1-.227-.758,2.732,2.732,0,0,1-2.133.914,3,3,0,0,1-2.059-.719,2.312,2.312,0,0,1-.816-1.812,2.389,2.389,0,0,1,1-2.062,4.915,4.915,0,0,1,2.879-.727h1.039v-.484a1.393,1.393,0,0,0-.3-.937,1.183,1.183,0,0,0-.949-.352,1.345,1.345,0,0,0-.895.273.929.929,0,0,0-.324.75H104.8a2.268,2.268,0,0,1,.453-1.359,3,3,0,0,1,1.281-.98,4.669,4.669,0,0,1,1.859-.355,3.689,3.689,0,0,1,2.48.785,2.747,2.747,0,0,1,.918,2.207v3.664a4.041,4.041,0,0,0,.336,1.82V0Zm-1.867-1.57a1.945,1.945,0,0,0,.922-.223,1.462,1.462,0,0,0,.625-.6V-3.844h-.844q-1.7,0-1.8,1.172l-.008.133a.9.9,0,0,0,.3.7A1.153,1.153,0,0,0,107.977-1.57Zm8.25-8.961v2.078h1.445V-6.8h-1.445v4.219a1.007,1.007,0,0,0,.18.672.9.9,0,0,0,.688.2,3.6,3.6,0,0,0,.664-.055V-.047a4.648,4.648,0,0,1-1.367.2,2.156,2.156,0,0,1-2.422-2.4V-6.8h-1.234V-8.453h1.234v-2.078ZM118.344-4.3a5.013,5.013,0,0,1,.484-2.242,3.546,3.546,0,0,1,1.395-1.523,4.069,4.069,0,0,1,2.113-.539,3.849,3.849,0,0,1,2.793,1.047,4.2,4.2,0,0,1,1.207,2.844l.016.578a4.418,4.418,0,0,1-1.086,3.121A3.775,3.775,0,0,1,122.352.156a3.793,3.793,0,0,1-2.918-1.172,4.5,4.5,0,0,1-1.09-3.187Zm2.258.16a3.16,3.16,0,0,0,.453,1.843,1.5,1.5,0,0,0,1.3.638,1.5,1.5,0,0,0,1.281-.63,3.457,3.457,0,0,0,.461-2.015,3.128,3.128,0,0,0-.461-1.831,1.5,1.5,0,0,0-1.3-.649,1.474,1.474,0,0,0-1.281.646A3.516,3.516,0,0,0,120.6-4.144Z" transform="translate(390 3986)" fill="#084a93"/>
      <path id="Path_207496" data-name="Path 207496" d="M9.578-9.477H6.094V0H3.75V-9.477H.313v-1.9H9.578ZM13.961.156A4.15,4.15,0,0,1,10.934-.984,4.054,4.054,0,0,1,9.766-4.023v-.219a5.106,5.106,0,0,1,.492-2.277,3.612,3.612,0,0,1,1.395-1.547,3.914,3.914,0,0,1,2.059-.543,3.508,3.508,0,0,1,2.73,1.094,4.444,4.444,0,0,1,1,3.1v.922H12.055a2.1,2.1,0,0,0,.66,1.328,2,2,0,0,0,1.395.5,2.437,2.437,0,0,0,2.039-.945l1.109,1.242A3.389,3.389,0,0,1,15.883-.246,4.511,4.511,0,0,1,13.961.156ZM13.7-6.789a1.411,1.411,0,0,0-1.09.455,2.357,2.357,0,0,0-.535,1.3h3.141v-.181a1.681,1.681,0,0,0-.406-1.165A1.456,1.456,0,0,0,13.7-6.789Zm8.234.859,1.422-2.523h2.414L23.367-4.312,25.875,0H23.453L21.945-2.656,20.445,0h-2.43l2.508-4.312-2.4-4.141h2.422Zm7.625-4.6v2.078h1.445V-6.8H29.563v4.219a1.007,1.007,0,0,0,.18.672.9.9,0,0,0,.688.2,3.6,3.6,0,0,0,.664-.055V-.047a4.648,4.648,0,0,1-1.367.2,2.156,2.156,0,0,1-2.422-2.4V-6.8H26.07V-8.453H27.3v-2.078ZM31.68-4.3a5.013,5.013,0,0,1,.484-2.242A3.546,3.546,0,0,1,33.559-8.07a4.069,4.069,0,0,1,2.113-.539,3.849,3.849,0,0,1,2.793,1.047,4.2,4.2,0,0,1,1.207,2.844l.016.578A4.418,4.418,0,0,1,38.6-1.02,3.775,3.775,0,0,1,35.688.156,3.793,3.793,0,0,1,32.77-1.016,4.5,4.5,0,0,1,31.68-4.2Zm2.258.16A3.16,3.16,0,0,0,34.391-2.3a1.5,1.5,0,0,0,1.3.638,1.5,1.5,0,0,0,1.281-.63,3.457,3.457,0,0,0,.461-2.015,3.128,3.128,0,0,0-.461-1.831,1.5,1.5,0,0,0-1.3-.649,1.474,1.474,0,0,0-1.281.646A3.516,3.516,0,0,0,33.938-4.144ZM48.953.156A4.15,4.15,0,0,1,45.926-.984a4.054,4.054,0,0,1-1.168-3.039v-.219A5.106,5.106,0,0,1,45.25-6.52a3.612,3.612,0,0,1,1.395-1.547A3.914,3.914,0,0,1,48.7-8.609a3.508,3.508,0,0,1,2.73,1.094,4.444,4.444,0,0,1,1,3.1v.922H47.047a2.1,2.1,0,0,0,.66,1.328,2,2,0,0,0,1.395.5,2.437,2.437,0,0,0,2.039-.945L52.25-1.367A3.389,3.389,0,0,1,50.875-.246,4.511,4.511,0,0,1,48.953.156ZM48.7-6.789a1.411,1.411,0,0,0-1.09.455,2.357,2.357,0,0,0-.535,1.3h3.141v-.181A1.681,1.681,0,0,0,49.8-6.377,1.456,1.456,0,0,0,48.7-6.789Zm7.094-1.664.07.977a2.951,2.951,0,0,1,2.43-1.133,2.453,2.453,0,0,1,2,.789,3.682,3.682,0,0,1,.672,2.359V0H58.7V-5.406a1.465,1.465,0,0,0-.312-1.043,1.4,1.4,0,0,0-1.039-.324,1.553,1.553,0,0,0-1.43.813V0H53.664V-8.453Zm10.4,6.789A1.481,1.481,0,0,0,67.2-2.008a1.2,1.2,0,0,0,.406-.914h2.117a2.9,2.9,0,0,1-.469,1.574A3.093,3.093,0,0,1,68-.238a3.949,3.949,0,0,1-1.77.395A3.67,3.67,0,0,1,63.367-1,4.56,4.56,0,0,1,62.32-4.18v-.148a4.508,4.508,0,0,1,1.039-3.117,3.627,3.627,0,0,1,2.852-1.164,3.555,3.555,0,0,1,2.543.9,3.2,3.2,0,0,1,.973,2.4H67.609A1.551,1.551,0,0,0,67.2-6.377a1.354,1.354,0,0,0-1.031-.412,1.36,1.36,0,0,0-1.191.575,3.333,3.333,0,0,0-.4,1.866v.235a3.375,3.375,0,0,0,.4,1.878A1.377,1.377,0,0,0,66.188-1.664Zm9.578-4.672a6.134,6.134,0,0,0-.812-.062,1.654,1.654,0,0,0-1.68.867V0H71.016V-8.453h2.133l.063,1.008a2.092,2.092,0,0,1,1.883-1.164,2.366,2.366,0,0,1,.7.1ZM79.234,0H76.969V-8.453h2.266Zm-2.4-10.641a1.112,1.112,0,0,1,.34-.836A1.277,1.277,0,0,1,78.1-11.8a1.28,1.28,0,0,1,.922.328,1.105,1.105,0,0,1,.344.836,1.108,1.108,0,0,1-.348.844,1.283,1.283,0,0,1-.918.328,1.283,1.283,0,0,1-.918-.328A1.108,1.108,0,0,1,76.836-10.641ZM88.7-4.148a5.07,5.07,0,0,1-.887,3.129A2.843,2.843,0,0,1,85.422.156a2.633,2.633,0,0,1-2.07-.891V3.25H81.094v-11.7h2.094l.078.828a2.654,2.654,0,0,1,2.141-.984,2.862,2.862,0,0,1,2.43,1.156A5.207,5.207,0,0,1,88.7-4.266Zm-2.258-.164a3.327,3.327,0,0,0-.418-1.82,1.361,1.361,0,0,0-1.215-.641,1.478,1.478,0,0,0-1.461.813V-2.5a1.5,1.5,0,0,0,1.477.836Q86.445-1.664,86.445-4.312ZM92.8-10.531v2.078H94.25V-6.8H92.8v4.219a1.007,1.007,0,0,0,.18.672.9.9,0,0,0,.688.2,3.6,3.6,0,0,0,.664-.055V-.047a4.648,4.648,0,0,1-1.367.2,2.156,2.156,0,0,1-2.422-2.4V-6.8H89.313V-8.453h1.234v-2.078ZM100.406,0a2.507,2.507,0,0,1-.227-.758,2.732,2.732,0,0,1-2.133.914,3,3,0,0,1-2.059-.719,2.312,2.312,0,0,1-.816-1.812,2.389,2.389,0,0,1,1-2.062,4.915,4.915,0,0,1,2.879-.727h1.039v-.484a1.393,1.393,0,0,0-.3-.937,1.183,1.183,0,0,0-.949-.352,1.345,1.345,0,0,0-.895.273.929.929,0,0,0-.324.75H95.359a2.268,2.268,0,0,1,.453-1.359,3,3,0,0,1,1.281-.98,4.669,4.669,0,0,1,1.859-.355,3.689,3.689,0,0,1,2.48.785,2.747,2.747,0,0,1,.918,2.207v3.664a4.041,4.041,0,0,0,.336,1.82V0ZM98.539-1.57a1.945,1.945,0,0,0,.922-.223,1.462,1.462,0,0,0,.625-.6V-3.844h-.844q-1.7,0-1.8,1.172l-.008.133a.9.9,0,0,0,.3.7A1.153,1.153,0,0,0,98.539-1.57Zm5.2-2.719a5.094,5.094,0,0,1,.887-3.148,2.877,2.877,0,0,1,2.426-1.172,2.589,2.589,0,0,1,2.039.922V-12h2.266V0h-2.039L109.2-.9A2.657,2.657,0,0,1,107.031.156a2.869,2.869,0,0,1-2.395-1.176A5.258,5.258,0,0,1,103.734-4.289Zm2.258.168a3.337,3.337,0,0,0,.414,1.823,1.349,1.349,0,0,0,1.2.634,1.511,1.511,0,0,0,1.477-.884V-5.889a1.489,1.489,0,0,0-1.461-.884Q105.992-6.773,105.992-4.121ZM112.75-4.3a5.013,5.013,0,0,1,.484-2.242,3.546,3.546,0,0,1,1.395-1.523,4.069,4.069,0,0,1,2.113-.539,3.849,3.849,0,0,1,2.793,1.047,4.2,4.2,0,0,1,1.207,2.844l.016.578a4.418,4.418,0,0,1-1.086,3.121A3.775,3.775,0,0,1,116.758.156a3.793,3.793,0,0,1-2.918-1.172A4.5,4.5,0,0,1,112.75-4.2Zm2.258.16a3.16,3.16,0,0,0,.453,1.843,1.5,1.5,0,0,0,1.3.638,1.5,1.5,0,0,0,1.281-.63,3.457,3.457,0,0,0,.461-2.015,3.128,3.128,0,0,0-.461-1.831,1.5,1.5,0,0,0-1.3-.649,1.474,1.474,0,0,0-1.281.646A3.516,3.516,0,0,0,115.008-4.144Z" transform="translate(737 3986)" fill="#084a93"/>
      <path id="Path_207495" data-name="Path 207495" d="M9.945-3.789A4.025,4.025,0,0,1,8.59-.9,4.76,4.76,0,0,1,5.367.156,4.28,4.28,0,0,1,1.926-1.316,6.038,6.038,0,0,1,.672-5.359v-.7A6.819,6.819,0,0,1,1.25-8.945,4.332,4.332,0,0,1,2.9-10.863a4.629,4.629,0,0,1,2.5-.668A4.637,4.637,0,0,1,8.57-10.477,4.326,4.326,0,0,1,9.961-7.516H7.617A2.376,2.376,0,0,0,7-9.113a2.271,2.271,0,0,0-1.605-.5,1.991,1.991,0,0,0-1.754.84,4.707,4.707,0,0,0-.6,2.605V-5.3a5.038,5.038,0,0,0,.559,2.7,1.954,1.954,0,0,0,1.762.852,2.314,2.314,0,0,0,1.621-.5A2.241,2.241,0,0,0,7.6-3.789ZM13.719,0H11.453V-8.453h2.266Zm-2.4-10.641a1.112,1.112,0,0,1,.34-.836,1.277,1.277,0,0,1,.926-.328,1.28,1.28,0,0,1,.922.328,1.105,1.105,0,0,1,.344.836A1.108,1.108,0,0,1,13.5-9.8a1.283,1.283,0,0,1-.918.328,1.283,1.283,0,0,1-.918-.328A1.108,1.108,0,0,1,11.32-10.641ZM16.2,0V-6.8H14.938V-8.453H16.2v-.719a2.918,2.918,0,0,1,.816-2.207,3.162,3.162,0,0,1,2.285-.785,5.278,5.278,0,0,1,1.148.156l-.023,1.75a2.878,2.878,0,0,0-.687-.07q-1.273,0-1.273,1.2v.68h1.68V-6.8h-1.68V0Zm9.867-6.336A6.134,6.134,0,0,0,25.25-6.4a1.654,1.654,0,0,0-1.68.867V0H21.313V-8.453h2.133l.063,1.008a2.092,2.092,0,0,1,1.883-1.164,2.366,2.366,0,0,1,.7.1ZM31.813,0a2.507,2.507,0,0,1-.227-.758,2.732,2.732,0,0,1-2.133.914,3,3,0,0,1-2.059-.719,2.312,2.312,0,0,1-.816-1.812,2.389,2.389,0,0,1,1-2.062,4.915,4.915,0,0,1,2.879-.727h1.039v-.484a1.393,1.393,0,0,0-.3-.937,1.183,1.183,0,0,0-.949-.352,1.345,1.345,0,0,0-.895.273.929.929,0,0,0-.324.75H26.766a2.268,2.268,0,0,1,.453-1.359,3,3,0,0,1,1.281-.98,4.669,4.669,0,0,1,1.859-.355,3.689,3.689,0,0,1,2.48.785,2.747,2.747,0,0,1,.918,2.207v3.664a4.041,4.041,0,0,0,.336,1.82V0ZM29.945-1.57a1.945,1.945,0,0,0,.922-.223,1.462,1.462,0,0,0,.625-.6V-3.844h-.844q-1.7,0-1.8,1.172l-.008.133a.9.9,0,0,0,.3.7A1.153,1.153,0,0,0,29.945-1.57Zm5.2-2.719a5.094,5.094,0,0,1,.887-3.148,2.877,2.877,0,0,1,2.426-1.172,2.589,2.589,0,0,1,2.039.922V-12h2.266V0H40.719l-.109-.9A2.657,2.657,0,0,1,38.438.156,2.869,2.869,0,0,1,36.043-1.02,5.258,5.258,0,0,1,35.141-4.289Zm2.258.168A3.337,3.337,0,0,0,37.813-2.3a1.349,1.349,0,0,0,1.2.634,1.511,1.511,0,0,0,1.477-.884V-5.889a1.489,1.489,0,0,0-1.461-.884Q37.4-6.773,37.4-4.121ZM44.156-4.3a5.013,5.013,0,0,1,.484-2.242A3.546,3.546,0,0,1,46.035-8.07a4.069,4.069,0,0,1,2.113-.539,3.849,3.849,0,0,1,2.793,1.047,4.2,4.2,0,0,1,1.207,2.844l.016.578A4.418,4.418,0,0,1,51.078-1.02,3.775,3.775,0,0,1,48.164.156a3.793,3.793,0,0,1-2.918-1.172A4.5,4.5,0,0,1,44.156-4.2Zm2.258.16A3.16,3.16,0,0,0,46.867-2.3a1.5,1.5,0,0,0,1.3.638,1.5,1.5,0,0,0,1.281-.63,3.457,3.457,0,0,0,.461-2.015,3.128,3.128,0,0,0-.461-1.831,1.5,1.5,0,0,0-1.3-.649,1.474,1.474,0,0,0-1.281.646A3.516,3.516,0,0,0,46.414-4.144Z" transform="translate(601 3975)" fill="#ffb30b"/>
      <path id="Path_207497" data-name="Path 207497" d="M1.016,0V-11.375h3.5A5.315,5.315,0,0,1,7.2-10.7,4.712,4.712,0,0,1,9.047-8.777a5.928,5.928,0,0,1,.664,2.832v.523A5.945,5.945,0,0,1,9.059-2.6,4.672,4.672,0,0,1,7.219-.687,5.355,5.355,0,0,1,4.539,0ZM3.359-9.477v7.594H4.492a2.545,2.545,0,0,0,2.1-.9,4.06,4.06,0,0,0,.742-2.57v-.6a4.124,4.124,0,0,0-.719-2.629,2.537,2.537,0,0,0-2.1-.895ZM15.156.156A4.15,4.15,0,0,1,12.129-.984a4.054,4.054,0,0,1-1.168-3.039v-.219a5.106,5.106,0,0,1,.492-2.277,3.612,3.612,0,0,1,1.395-1.547,3.914,3.914,0,0,1,2.059-.543,3.508,3.508,0,0,1,2.73,1.094,4.444,4.444,0,0,1,1,3.1v.922H13.25a2.1,2.1,0,0,0,.66,1.328,2,2,0,0,0,1.395.5,2.437,2.437,0,0,0,2.039-.945l1.109,1.242A3.389,3.389,0,0,1,17.078-.246,4.511,4.511,0,0,1,15.156.156ZM14.9-6.789a1.411,1.411,0,0,0-1.09.455,2.357,2.357,0,0,0-.535,1.3h3.141v-.181a1.681,1.681,0,0,0-.406-1.165A1.456,1.456,0,0,0,14.9-6.789Zm9.594,4.453a.727.727,0,0,0-.41-.652,4.659,4.659,0,0,0-1.316-.426Q19.75-4.047,19.75-5.977a2.323,2.323,0,0,1,.934-1.879,3.766,3.766,0,0,1,2.441-.754,4.053,4.053,0,0,1,2.574.758,2.388,2.388,0,0,1,.965,1.969H24.406a1.092,1.092,0,0,0-.312-.8A1.322,1.322,0,0,0,23.117-7a1.351,1.351,0,0,0-.883.258.814.814,0,0,0-.312.656.7.7,0,0,0,.355.605,3.657,3.657,0,0,0,1.2.4A9.8,9.8,0,0,1,24.9-4.7,2.336,2.336,0,0,1,26.688-2.43,2.2,2.2,0,0,1,25.7-.559a4.28,4.28,0,0,1-2.562.715,4.47,4.47,0,0,1-1.887-.379,3.166,3.166,0,0,1-1.293-1.039,2.414,2.414,0,0,1-.469-1.426h2.141a1.179,1.179,0,0,0,.445.922,1.766,1.766,0,0,0,1.109.32,1.635,1.635,0,0,0,.98-.246A.766.766,0,0,0,24.492-2.336Zm7.164.672a1.481,1.481,0,0,0,1.016-.344,1.2,1.2,0,0,0,.406-.914H35.2a2.9,2.9,0,0,1-.469,1.574A3.093,3.093,0,0,1,33.465-.238,3.949,3.949,0,0,1,31.7.156,3.67,3.67,0,0,1,28.836-1,4.56,4.56,0,0,1,27.789-4.18v-.148a4.508,4.508,0,0,1,1.039-3.117A3.627,3.627,0,0,1,31.68-8.609a3.555,3.555,0,0,1,2.543.9A3.2,3.2,0,0,1,35.2-5.3H33.078a1.551,1.551,0,0,0-.406-1.072,1.354,1.354,0,0,0-1.031-.412,1.36,1.36,0,0,0-1.191.575,3.333,3.333,0,0,0-.4,1.866v.235a3.375,3.375,0,0,0,.4,1.878A1.377,1.377,0,0,0,31.656-1.664ZM38.867,0H36.6V-8.453h2.266Zm-2.4-10.641a1.112,1.112,0,0,1,.34-.836,1.277,1.277,0,0,1,.926-.328,1.28,1.28,0,0,1,.922.328,1.105,1.105,0,0,1,.344.836,1.108,1.108,0,0,1-.348.844,1.283,1.283,0,0,1-.918.328,1.283,1.283,0,0,1-.918-.328A1.108,1.108,0,0,1,36.469-10.641ZM41.344,0V-6.8H40.086V-8.453h1.258v-.719a2.918,2.918,0,0,1,.816-2.207,3.162,3.162,0,0,1,2.285-.785,5.278,5.278,0,0,1,1.148.156l-.023,1.75a2.878,2.878,0,0,0-.687-.07q-1.273,0-1.273,1.2v.68h1.68V-6.8h-1.68V0Zm9.867-6.336A6.134,6.134,0,0,0,50.4-6.4a1.654,1.654,0,0,0-1.68.867V0H46.461V-8.453h2.133l.063,1.008a2.092,2.092,0,0,1,1.883-1.164,2.366,2.366,0,0,1,.7.1ZM56.961,0a2.507,2.507,0,0,1-.227-.758A2.732,2.732,0,0,1,54.6.156a3,3,0,0,1-2.059-.719,2.312,2.312,0,0,1-.816-1.812,2.389,2.389,0,0,1,1-2.062A4.915,4.915,0,0,1,55.6-5.164h1.039v-.484a1.393,1.393,0,0,0-.3-.937,1.183,1.183,0,0,0-.949-.352,1.345,1.345,0,0,0-.895.273.929.929,0,0,0-.324.75H51.914a2.268,2.268,0,0,1,.453-1.359,3,3,0,0,1,1.281-.98,4.669,4.669,0,0,1,1.859-.355,3.689,3.689,0,0,1,2.48.785,2.747,2.747,0,0,1,.918,2.207v3.664a4.041,4.041,0,0,0,.336,1.82V0ZM55.094-1.57a1.945,1.945,0,0,0,.922-.223,1.462,1.462,0,0,0,.625-.6V-3.844H55.8q-1.7,0-1.8,1.172l-.008.133a.9.9,0,0,0,.3.7A1.153,1.153,0,0,0,55.094-1.57Zm5.2-2.719a5.094,5.094,0,0,1,.887-3.148A2.877,2.877,0,0,1,63.6-8.609a2.589,2.589,0,0,1,2.039.922V-12h2.266V0H65.867l-.109-.9A2.657,2.657,0,0,1,63.586.156,2.869,2.869,0,0,1,61.191-1.02,5.258,5.258,0,0,1,60.289-4.289Zm2.258.168A3.337,3.337,0,0,0,62.961-2.3a1.349,1.349,0,0,0,1.2.634,1.511,1.511,0,0,0,1.477-.884V-5.889a1.489,1.489,0,0,0-1.461-.884Q62.547-6.773,62.547-4.121ZM69.3-4.3a5.013,5.013,0,0,1,.484-2.242A3.546,3.546,0,0,1,71.184-8.07,4.069,4.069,0,0,1,73.3-8.609,3.849,3.849,0,0,1,76.09-7.562,4.2,4.2,0,0,1,77.3-4.719l.016.578A4.418,4.418,0,0,1,76.227-1.02,3.775,3.775,0,0,1,73.313.156a3.793,3.793,0,0,1-2.918-1.172A4.5,4.5,0,0,1,69.3-4.2Zm2.258.16A3.16,3.16,0,0,0,72.016-2.3a1.5,1.5,0,0,0,1.3.638,1.5,1.5,0,0,0,1.281-.63,3.457,3.457,0,0,0,.461-2.015,3.128,3.128,0,0,0-.461-1.831,1.5,1.5,0,0,0-1.3-.649,1.474,1.474,0,0,0-1.281.646A3.516,3.516,0,0,0,71.563-4.144Z" transform="translate(933 3975)" fill="#ffb30b"/>
      <path id="Path_207500" data-name="Path 207500" d="M9.578-9.477H6.094V0H3.75V-9.477H.313v-1.9H9.578ZM13.961.156A4.15,4.15,0,0,1,10.934-.984,4.054,4.054,0,0,1,9.766-4.023v-.219a5.106,5.106,0,0,1,.492-2.277,3.612,3.612,0,0,1,1.395-1.547,3.914,3.914,0,0,1,2.059-.543,3.508,3.508,0,0,1,2.73,1.094,4.444,4.444,0,0,1,1,3.1v.922H12.055a2.1,2.1,0,0,0,.66,1.328,2,2,0,0,0,1.395.5,2.437,2.437,0,0,0,2.039-.945l1.109,1.242A3.389,3.389,0,0,1,15.883-.246,4.511,4.511,0,0,1,13.961.156ZM13.7-6.789a1.411,1.411,0,0,0-1.09.455,2.357,2.357,0,0,0-.535,1.3h3.141v-.181a1.681,1.681,0,0,0-.406-1.165A1.456,1.456,0,0,0,13.7-6.789Zm8.234.859,1.422-2.523h2.414L23.367-4.312,25.875,0H23.453L21.945-2.656,20.445,0h-2.43l2.508-4.312-2.4-4.141h2.422Zm7.625-4.6v2.078h1.445V-6.8H29.563v4.219a1.007,1.007,0,0,0,.18.672.9.9,0,0,0,.688.2,3.6,3.6,0,0,0,.664-.055V-.047a4.648,4.648,0,0,1-1.367.2,2.156,2.156,0,0,1-2.422-2.4V-6.8H26.07V-8.453H27.3v-2.078ZM31.68-4.3a5.013,5.013,0,0,1,.484-2.242A3.546,3.546,0,0,1,33.559-8.07a4.069,4.069,0,0,1,2.113-.539,3.849,3.849,0,0,1,2.793,1.047,4.2,4.2,0,0,1,1.207,2.844l.016.578A4.418,4.418,0,0,1,38.6-1.02,3.775,3.775,0,0,1,35.688.156,3.793,3.793,0,0,1,32.77-1.016,4.5,4.5,0,0,1,31.68-4.2Zm2.258.16A3.16,3.16,0,0,0,34.391-2.3a1.5,1.5,0,0,0,1.3.638,1.5,1.5,0,0,0,1.281-.63,3.457,3.457,0,0,0,.461-2.015,3.128,3.128,0,0,0-.461-1.831,1.5,1.5,0,0,0-1.3-.649,1.474,1.474,0,0,0-1.281.646A3.516,3.516,0,0,0,33.938-4.144Zm15.7,1.808a.727.727,0,0,0-.41-.652,4.659,4.659,0,0,0-1.316-.426Q44.9-4.047,44.9-5.977a2.323,2.323,0,0,1,.934-1.879,3.766,3.766,0,0,1,2.441-.754,4.053,4.053,0,0,1,2.574.758,2.388,2.388,0,0,1,.965,1.969H49.555a1.092,1.092,0,0,0-.312-.8A1.322,1.322,0,0,0,48.266-7a1.351,1.351,0,0,0-.883.258.814.814,0,0,0-.312.656.7.7,0,0,0,.355.605,3.657,3.657,0,0,0,1.2.4,9.8,9.8,0,0,1,1.422.379A2.336,2.336,0,0,1,51.836-2.43a2.2,2.2,0,0,1-.992,1.871,4.28,4.28,0,0,1-2.562.715,4.47,4.47,0,0,1-1.887-.379A3.166,3.166,0,0,1,45.1-1.262a2.414,2.414,0,0,1-.469-1.426h2.141a1.179,1.179,0,0,0,.445.922,1.766,1.766,0,0,0,1.109.32,1.635,1.635,0,0,0,.98-.246A.766.766,0,0,0,49.641-2.336ZM55.672,0H53.406V-8.453h2.266Zm-2.4-10.641a1.112,1.112,0,0,1,.34-.836,1.277,1.277,0,0,1,.926-.328,1.28,1.28,0,0,1,.922.328,1.105,1.105,0,0,1,.344.836,1.108,1.108,0,0,1-.348.844,1.283,1.283,0,0,1-.918.328,1.283,1.283,0,0,1-.918-.328A1.108,1.108,0,0,1,53.273-10.641Zm6.336,2.188.07.977a2.951,2.951,0,0,1,2.43-1.133,2.453,2.453,0,0,1,2,.789,3.682,3.682,0,0,1,.672,2.359V0H62.523V-5.406a1.465,1.465,0,0,0-.312-1.043,1.4,1.4,0,0,0-1.039-.324,1.553,1.553,0,0,0-1.43.813V0H57.484V-8.453ZM71.094,0V-6.8H69.836V-8.453h1.258v-.719a2.918,2.918,0,0,1,.816-2.207,3.162,3.162,0,0,1,2.285-.785,5.278,5.278,0,0,1,1.148.156l-.023,1.75a2.878,2.878,0,0,0-.687-.07q-1.273,0-1.273,1.2v.68h1.68V-6.8h-1.68V0Zm4.766-4.3a5.013,5.013,0,0,1,.484-2.242A3.546,3.546,0,0,1,77.738-8.07a4.069,4.069,0,0,1,2.113-.539,3.849,3.849,0,0,1,2.793,1.047,4.2,4.2,0,0,1,1.207,2.844l.016.578A4.418,4.418,0,0,1,82.781-1.02,3.775,3.775,0,0,1,79.867.156a3.793,3.793,0,0,1-2.918-1.172A4.5,4.5,0,0,1,75.859-4.2Zm2.258.16A3.16,3.16,0,0,0,78.57-2.3a1.5,1.5,0,0,0,1.3.638,1.5,1.5,0,0,0,1.281-.63,3.457,3.457,0,0,0,.461-2.015,3.128,3.128,0,0,0-.461-1.831,1.5,1.5,0,0,0-1.3-.649,1.474,1.474,0,0,0-1.281.646A3.516,3.516,0,0,0,78.117-4.144ZM90.008-6.336A6.134,6.134,0,0,0,89.2-6.4a1.654,1.654,0,0,0-1.68.867V0H85.258V-8.453h2.133l.063,1.008a2.092,2.092,0,0,1,1.883-1.164,2.366,2.366,0,0,1,.7.1Zm3.2-2.117.07.945a2.971,2.971,0,0,1,2.43-1.1A2.255,2.255,0,0,1,97.953-7.32a2.9,2.9,0,0,1,2.539-1.289,2.521,2.521,0,0,1,2.047.8,3.681,3.681,0,0,1,.672,2.41V0h-2.266V-5.391a1.61,1.61,0,0,0-.281-1.051,1.246,1.246,0,0,0-.992-.332,1.409,1.409,0,0,0-1.406.969L98.273,0H96.016V-5.383a1.59,1.59,0,0,0-.289-1.062,1.259,1.259,0,0,0-.984-.328,1.463,1.463,0,0,0-1.391.8V0H91.094V-8.453ZM109.844,0a2.507,2.507,0,0,1-.227-.758,2.732,2.732,0,0,1-2.133.914,3,3,0,0,1-2.059-.719,2.312,2.312,0,0,1-.816-1.812,2.389,2.389,0,0,1,1-2.062,4.915,4.915,0,0,1,2.879-.727h1.039v-.484a1.393,1.393,0,0,0-.3-.937,1.183,1.183,0,0,0-.949-.352,1.345,1.345,0,0,0-.895.273.929.929,0,0,0-.324.75H104.8a2.268,2.268,0,0,1,.453-1.359,3,3,0,0,1,1.281-.98,4.669,4.669,0,0,1,1.859-.355,3.689,3.689,0,0,1,2.48.785,2.747,2.747,0,0,1,.918,2.207v3.664a4.041,4.041,0,0,0,.336,1.82V0Zm-1.867-1.57a1.945,1.945,0,0,0,.922-.223,1.462,1.462,0,0,0,.625-.6V-3.844h-.844q-1.7,0-1.8,1.172l-.008.133a.9.9,0,0,0,.3.7A1.153,1.153,0,0,0,107.977-1.57Zm8.25-8.961v2.078h1.445V-6.8h-1.445v4.219a1.007,1.007,0,0,0,.18.672.9.9,0,0,0,.688.2,3.6,3.6,0,0,0,.664-.055V-.047a4.648,4.648,0,0,1-1.367.2,2.156,2.156,0,0,1-2.422-2.4V-6.8h-1.234V-8.453h1.234v-2.078ZM118.344-4.3a5.013,5.013,0,0,1,.484-2.242,3.546,3.546,0,0,1,1.395-1.523,4.069,4.069,0,0,1,2.113-.539,3.849,3.849,0,0,1,2.793,1.047,4.2,4.2,0,0,1,1.207,2.844l.016.578a4.418,4.418,0,0,1-1.086,3.121A3.775,3.775,0,0,1,122.352.156a3.793,3.793,0,0,1-2.918-1.172,4.5,4.5,0,0,1-1.09-3.187Zm2.258.16a3.16,3.16,0,0,0,.453,1.843,1.5,1.5,0,0,0,1.3.638,1.5,1.5,0,0,0,1.281-.63,3.457,3.457,0,0,0,.461-2.015,3.128,3.128,0,0,0-.461-1.831,1.5,1.5,0,0,0-1.3-.649,1.474,1.474,0,0,0-1.281.646A3.516,3.516,0,0,0,120.6-4.144Z" transform="translate(1083 3986)" fill="#084a93"/>
    </g>
  </g>
</svg>
