<svg xmlns="http://www.w3.org/2000/svg" xmlns:xlink="http://www.w3.org/1999/xlink" width="398.935" height="333.661" viewBox="0 0 398.935 333.661">
  <defs>
    <clipPath id="clip-path">
      <path id="Path_191417" data-name="Path 191417" d="M-4597.035,1318.753c-1.77,1.032-2.643,2.395-2.637,3.745l-.021-9.075c0-1.347.881-2.7,2.646-3.729q.012,4.515.011,9.058,0-4.539-.011-9.058a14.306,14.306,0,0,1,12.981-.052c0,3.01,0,6.045.012,9.055-.012-3.01,0-6.044-.012-9.055,1.817,1.031,2.717,2.4,2.722,3.76l.024,9.075c0-1.374-.921-2.745-2.734-3.78A14.359,14.359,0,0,0-4597.035,1318.753Z" transform="translate(4599.692 -1308.112)" fill="none"/>
    </clipPath>
    <clipPath id="clip-path-2">
      <path id="Path_191436" data-name="Path 191436" d="M-4581.343,1313.157l.024,9.059c-.009,1.364-.889,2.719-2.656,3.753a14.241,14.241,0,0,1-12.969.06c-1.81-1.039-2.734-2.413-2.729-3.777-.013-3.022-.013-6.048-.021-9.075.007,1.375.917,2.739,2.737,3.789a14.3,14.3,0,0,0,12.973-.059C-4582.224,1315.856-4581.334,1314.5-4581.343,1313.157Z" transform="translate(4599.692 -1313.157)" fill="none"/>
    </clipPath>
  </defs>
  <g id="_14" data-name="14" transform="translate(-180 -3871)">
    <g id="Group_129704" data-name="Group 129704" transform="translate(252.233 3995)">
      <g id="Group_129692" data-name="Group 129692" transform="translate(183.309 9.264)">
        <path id="Path_191397" data-name="Path 191397" d="M-4365.881,1260.995l.011,9.074-125.828-71.884-.016-9.067Z" transform="translate(4491.714 -1189.119)" fill="#778489"/>
      </g>
      <g id="Group_129693" data-name="Group 129693" transform="translate(33.177 9.264)">
        <path id="Path_191398" data-name="Path 191398" d="M-4484.721,1189.119l.016,9.067-150.144,88.18,0-9.07Z" transform="translate(4634.853 -1189.119)" fill="#abbec5"/>
      </g>
      <g id="Group_129696" data-name="Group 129696" transform="translate(70.055 134.071)" style="isolation: isolate">
        <g id="Group_129695" data-name="Group 129695" clip-path="url(#clip-path)">
          <g id="Group_129694" data-name="Group 129694" transform="translate(0 -0.009)" style="isolation: isolate">
            <path id="Path_191399" data-name="Path 191399" d="M-4582.009,1313.362l.024,9.059c0-1.358-.921-2.729-2.734-3.764a8.957,8.957,0,0,0-1.327-.621l-.013-9.074a8.661,8.661,0,0,1,1.329.64c1.817,1.031,2.717,2.4,2.721,3.76Z" transform="translate(4600.359 -1308.061)" fill="#738085"/>
            <path id="Path_191400" data-name="Path 191400" d="M-4586.007,1308.979l.013,9.074c-.364-.138-.735-.273-1.114-.375l-.02-9.066a8.945,8.945,0,0,1,1.121.368Z" transform="translate(4600.306 -1308.078)" fill="#78858a"/>
            <path id="Path_191401" data-name="Path 191401" d="M-4587.082,1308.621l.02,9.066c-.312-.086-.637-.165-.964-.237l-.017-9.054a8.019,8.019,0,0,1,.961.225Z" transform="translate(4600.261 -1308.088)" fill="#7c8a8f"/>
            <path id="Path_191402" data-name="Path 191402" d="M-4588,1308.4l.017,9.054c-.3-.059-.61-.106-.921-.15l-.016-9.069a9.04,9.04,0,0,1,.92.166Z" transform="translate(4600.218 -1308.096)" fill="#818f94"/>
            <path id="Path_191403" data-name="Path 191403" d="M-4588.878,1308.243l.015,9.07c-.289-.039-.588-.075-.893-.094l-.009-9.071c.3.032.6.06.886.1Z" transform="translate(4600.178 -1308.101)" fill="#859499"/>
            <path id="Path_191404" data-name="Path 191404" d="M-4589.722,1308.15l.008,9.071c-.292-.024-.6-.036-.905-.043l-.012-9.075c.3,0,.6.027.909.047Z" transform="translate(4600.136 -1308.103)" fill="#8a999e"/>
            <path id="Path_191405" data-name="Path 191405" d="M-4590.587,1308.1l.012,9.075c-.315,0-.624,0-.94.007l-.02-9.07c.321-.012.633-.012.948-.012Z" transform="translate(4600.092 -1308.103)" fill="#8e9da3"/>
            <path id="Path_191406" data-name="Path 191406" d="M-4591.487,1308.114l.02,9.07c-.339.009-.683.044-1.023.071l-.012-9.062c.332-.036.68-.064,1.015-.08Z" transform="translate(4600.044 -1308.102)" fill="#93a2a8"/>
            <path id="Path_191407" data-name="Path 191407" d="M-4592.448,1308.19l.012,9.062c-.393.036-.774.1-1.166.158l-.021-9.055a9.934,9.934,0,0,1,1.174-.166Z" transform="translate(4599.989 -1308.099)" fill="#97a7ad"/>
            <path id="Path_191408" data-name="Path 191408" d="M-4593.542,1308.348l.021,9.055a14.94,14.94,0,0,0-1.723.454l-.02-9.07a12.683,12.683,0,0,1,1.722-.438Z" transform="translate(4599.909 -1308.091)" fill="#9bacb3"/>
            <path id="Path_191409" data-name="Path 191409" d="M-4595.165,1308.766l.02,9.071a10.155,10.155,0,0,0-2.008.884,1.1,1.1,0,0,0-.114.067l-.007-9.078c.031-.011.07-.036.11-.047a9.383,9.383,0,0,1,2-.9Z" transform="translate(4599.81 -1308.071)" fill="#a0b1b8"/>
            <path id="Path_191410" data-name="Path 191410" d="M-4597.221,1309.666l.007,9.078a6.91,6.91,0,0,0-1.149.862l-.016-9.059a6.892,6.892,0,0,1,1.158-.881Z" transform="translate(4599.757 -1308.026)" fill="#9bacb3"/>
            <path id="Path_191411" data-name="Path 191411" d="M-4598.353,1310.506l.016,9.059a6.109,6.109,0,0,0-.564.608l-.013-9.063a3.7,3.7,0,0,1,.561-.6Z" transform="translate(4599.73 -1307.985)" fill="#97a7ad"/>
            <path id="Path_191412" data-name="Path 191412" d="M-4598.9,1311.082l.013,9.063c-.142.2-.257.379-.368.553l-.016-9.062a3.6,3.6,0,0,1,.371-.554Z" transform="translate(4599.713 -1307.958)" fill="#93a2a8"/>
            <path id="Path_191413" data-name="Path 191413" d="M-4599.256,1311.61l.016,9.062a5.28,5.28,0,0,0-.24.526l-.016-9.066a3.111,3.111,0,0,1,.241-.521Z" transform="translate(4599.702 -1307.932)" fill="#8e9da3"/>
            <path id="Path_191414" data-name="Path 191414" d="M-4599.489,1312.107l.016,9.066a2.762,2.762,0,0,0-.143.513l-.02-9.062a3.342,3.342,0,0,1,.147-.517Z" transform="translate(4599.694 -1307.907)" fill="#8a999e"/>
            <path id="Path_191415" data-name="Path 191415" d="M-4599.634,1312.6l.02,9.062a2.522,2.522,0,0,0-.058.538l-.021-9.075a4.5,4.5,0,0,1,.059-.526Z" transform="translate(4599.692 -1307.883)" fill="#859499"/>
            <path id="Path_191416" data-name="Path 191416" d="M-4599.692,1313.1l.021,9.075v.079l-.021-9.075v-.079Z" transform="translate(4599.692 -1307.859)" fill="#818f94"/>
          </g>
        </g>
      </g>
      <g id="Group_129699" data-name="Group 129699" transform="translate(70.055 139.363)" style="isolation: isolate">
        <g id="Group_129698" data-name="Group 129698" clip-path="url(#clip-path-2)">
          <g id="Group_129697" data-name="Group 129697" style="isolation: isolate">
            <path id="Path_191418" data-name="Path 191418" d="M-4582.2,1313.157l.024,9.059a.29.29,0,0,1-.011.1l-.013-9.075v-.08Z" transform="translate(4600.547 -1313.157)" fill="#376a80"/>
            <path id="Path_191419" data-name="Path 191419" d="M-4582.195,1313.233l.012,9.075a2.771,2.771,0,0,1-.051.526l-.016-9.075a2.3,2.3,0,0,0,.055-.525Z" transform="translate(4600.544 -1313.153)" fill="#396e85"/>
            <path id="Path_191420" data-name="Path 191420" d="M-4582.242,1313.734l.016,9.075a4.007,4.007,0,0,1-.146.509l-.021-9.066a3.068,3.068,0,0,0,.151-.517Z" transform="translate(4600.537 -1313.129)" fill="#3b7189"/>
            <path id="Path_191421" data-name="Path 191421" d="M-4582.382,1314.227l.02,9.066a3.1,3.1,0,0,1-.24.53l-.024-9.071a2.664,2.664,0,0,0,.244-.525Z" transform="translate(4600.526 -1313.105)" fill="#3d758d"/>
            <path id="Path_191422" data-name="Path 191422" d="M-4582.609,1314.728l.024,9.07a3.869,3.869,0,0,1-.364.546l-.024-9.066a2.842,2.842,0,0,0,.364-.549Z" transform="translate(4600.509 -1313.08)" fill="#3f7992"/>
            <path id="Path_191423" data-name="Path 191423" d="M-4582.947,1315.252l.024,9.066a4.97,4.97,0,0,1-.573.62l-.012-9.062a5.723,5.723,0,0,0,.561-.624Z" transform="translate(4600.482 -1313.054)" fill="#417c96"/>
            <path id="Path_191424" data-name="Path 191424" d="M-4583.454,1315.847l.013,9.062a7.1,7.1,0,0,1-1.163.858l-.007-9.063a8.6,8.6,0,0,0,1.157-.857Z" transform="translate(4600.429 -1313.025)" fill="#43809b"/>
            <path id="Path_191425" data-name="Path 191425" d="M-4584.513,1316.664l.007,9.063a.342.342,0,0,1-.107.07,10.707,10.707,0,0,1-2,.894l-.011-9.067a12.049,12.049,0,0,0,2.007-.888,1,1,0,0,1,.107-.072Z" transform="translate(4600.331 -1312.985)" fill="#44849f"/>
            <path id="Path_191426" data-name="Path 191426" d="M-4586.545,1317.579l.011,9.067a12.21,12.21,0,0,1-1.738.434l-.008-9.071a12.711,12.711,0,0,0,1.735-.431Z" transform="translate(4600.25 -1312.941)" fill="#43809b"/>
            <path id="Path_191427" data-name="Path 191427" d="M-4588.226,1317.99l.008,9.07a8.89,8.89,0,0,1-1.169.17l-.013-9.066c.392-.044.787-.1,1.174-.174Z" transform="translate(4600.196 -1312.921)" fill="#417c96"/>
            <path id="Path_191428" data-name="Path 191428" d="M-4589.353,1318.156l.013,9.066c-.34.031-.672.067-1.014.074l-.017-9.062c.344-.024.687-.036,1.018-.079Z" transform="translate(4600.148 -1312.913)" fill="#3f7992"/>
            <path id="Path_191429" data-name="Path 191429" d="M-4590.327,1318.231l.016,9.062c-.316.02-.624.02-.939.013l-.021-9.075c.316.008.632.008.944,0Z" transform="translate(4600.104 -1312.909)" fill="#3d758d"/>
            <path id="Path_191430" data-name="Path 191430" d="M-4591.229,1318.233l.02,9.075c-.3-.008-.6-.028-.9-.052l-.017-9.066c.289.019.6.043.894.043Z" transform="translate(4600.063 -1312.911)" fill="#3b7189"/>
            <path id="Path_191431" data-name="Path 191431" d="M-4592.081,1318.194l.016,9.066c-.3-.02-.6-.056-.9-.091l-.012-9.062c.293.036.589.067.893.087Z" transform="translate(4600.02 -1312.915)" fill="#396e85"/>
            <path id="Path_191432" data-name="Path 191432" d="M-4592.932,1318.114l.012,9.062c-.3-.043-.608-.1-.912-.154l-.012-9.058c.3.043.6.1.913.15Z" transform="translate(4599.978 -1312.922)" fill="#376a80"/>
            <path id="Path_191433" data-name="Path 191433" d="M-4593.8,1317.975l.012,9.058c-.315-.071-.644-.142-.952-.229l-.019-9.066c.315.086.631.166.959.237Z" transform="translate(4599.933 -1312.933)" fill="#35667c"/>
            <path id="Path_191434" data-name="Path 191434" d="M-4594.706,1317.755l.02,9.066c-.383-.107-.758-.23-1.117-.368l-.024-9.074c.359.142.743.264,1.122.376Z" transform="translate(4599.881 -1312.951)" fill="#336377"/>
            <path id="Path_191435" data-name="Path 191435" d="M-4595.64,1317.585l.024,9.074a10.968,10.968,0,0,1-1.327-.632c-1.81-1.039-2.734-2.413-2.729-3.777l-.021-9.075c.007,1.375.917,2.739,2.737,3.788a12.272,12.272,0,0,0,1.315.621Z" transform="translate(4599.692 -1313.156)" fill="#315f73"/>
          </g>
        </g>
      </g>
      <g id="Group_129700" data-name="Group 129700" transform="translate(33.177 97.44)">
        <path id="Path_191437" data-name="Path 191437" d="M-4509.041,1345.06l.02,9.074-125.828-71.876,0-9.07Z" transform="translate(4634.853 -1273.187)" fill="#336277"/>
      </g>
      <g id="Group_129701" data-name="Group 129701" transform="translate(70.056 134.071)">
        <path id="Path_191438" data-name="Path 191438" d="M-4584.069,1309.643c3.607,2.058,3.643,5.416.087,7.51a14.3,14.3,0,0,1-12.974.059c-3.6-2.058-3.662-5.439-.09-7.517A14.3,14.3,0,0,1-4584.069,1309.643Z" transform="translate(4599.691 -1308.112)" fill="#b9ddfc"/>
      </g>
      <g id="Group_129702" data-name="Group 129702" transform="translate(158.99 81.141)">
        <path id="Path_191439" data-name="Path 191439" d="M-4364.748,1257.647l.011,9.074-150.144,88.172-.02-9.074Z" transform="translate(4514.901 -1257.647)" fill="#498dab"/>
      </g>
      <g id="Group_129703" data-name="Group 129703" transform="translate(33.177 9.264)">
        <path id="Path_191440" data-name="Path 191440" d="M-4358.888,1260.995l-150.152,88.172-125.812-71.872,150.132-88.176Z" transform="translate(4634.853 -1189.119)" fill="#004996" opacity="0.35"/>
      </g>
      <path id="Path_191441" data-name="Path 191441" d="M-4346.81,1258.081c-.016.028-.016.064-.028.08a3.033,3.033,0,0,1-.426.841c-.028.051-.06.087-.083.138a4.855,4.855,0,0,1-.711.786c-.189.17-.431.337-.657.5-.173.114-.327.245-.512.367l-176.74,103.788.024,9.062,176.723-103.787c.032-.02.071-.044.107-.064h0a3.787,3.787,0,0,0,.415-.3,6.011,6.011,0,0,0,.657-.49c.016-.02.043-.036.055-.051a4.752,4.752,0,0,0,.55-.589.586.586,0,0,0,.086-.146.53.53,0,0,0,.11-.142c.052-.087.12-.174.167-.253a4.191,4.191,0,0,0,.229-.5.3.3,0,0,1,.02-.079.383.383,0,0,0,.027-.1,1.742,1.742,0,0,0,.091-.324,3.566,3.566,0,0,0,.059-.521l-.012-9.059v-.079A3.27,3.27,0,0,1-4346.81,1258.081Z" transform="translate(4673.35 -1176.53)" fill="#084a93"/>
      <path id="Path_191442" data-name="Path 191442" d="M-4342.442,1257.25c3.5,2,3.533,5.262.079,7.3L-4519.1,1368.34a13.905,13.905,0,0,1-12.6.055l-132.13-75.49c-3.507-1.995-3.543-5.258-.078-7.289l176.723-103.789a13.877,13.877,0,0,1,12.595-.059Zm-165.052,92.349,150.15-88.172-125.832-71.876-150.132,88.175,125.814,71.873Zm-86.2-26.142a14.3,14.3,0,0,0,12.974-.059c3.555-2.094,3.52-5.452-.083-7.51a14.306,14.306,0,0,0-12.981.052c-3.572,2.078-3.512,5.459.091,7.517Z" transform="translate(4666.484 -1180.286)" fill="#f5faff"/>
      <path id="Path_191443" data-name="Path 191443" d="M-4519.1,1363.264a9.3,9.3,0,0,1-1.746.77c-.221.08-.451.143-.668.218-.3.079-.593.157-.889.213-.359.087-.723.146-1.083.2-.1.016-.182.024-.264.031a14.419,14.419,0,0,1-1.486.091h-.259a10.817,10.817,0,0,1-1.476-.08,1.841,1.841,0,0,1-.217-.011c-.474-.059-.952-.139-1.417-.237-.1-.023-.2-.043-.293-.074a11.914,11.914,0,0,1-1.184-.353c-.083-.027-.174-.058-.257-.079a11.683,11.683,0,0,1-1.359-.637l-132.13-75.49c-1.767-1-2.654-2.327-2.654-3.654.008,3.01.015,6.053.021,9.071,0,1.323.876,2.659,2.646,3.658l132.143,75.479a9.761,9.761,0,0,0,1.291.62.182.182,0,0,0,.061.016c.082.028.158.048.241.08.257.087.505.186.773.257.146.043.293.07.443.1a1.39,1.39,0,0,0,.264.063,2.243,2.243,0,0,0,.229.059c.288.064.585.107.881.15.107.017.217.024.32.036a1.847,1.847,0,0,1,.221.024c.1.012.221.027.324.036.3.02.585.043.881.052a2.316,2.316,0,0,0,.281-.016c.072.007.154,0,.225,0,.132,0,.27.007.4,0,.332-.024.663-.036.987-.072a.842.842,0,0,0,.123-.016c.083-.02.157-.02.245-.036.252-.027.509-.071.766-.107.115-.023.21-.059.32-.087.3-.067.592-.146.889-.224.158-.044.325-.064.475-.116a2.2,2.2,0,0,0,.205-.1,9.287,9.287,0,0,0,1.75-.774Z" transform="translate(4666.485 -1175.21)" fill="#084a93"/>
    </g>
    <g id="Group_129790" data-name="Group 129790" transform="translate(252.233 3885.501)">
      <g id="Group_129705" data-name="Group 129705" transform="translate(89.994 111.216)">
        <path id="Path_191444" data-name="Path 191444" d="M-4495.617,1172.757c3.133-1.812,4.38.7,4.384,4.374.01,4.159-1.443,7.854-4.431,9.58-3.026,1.745-4.38-.6-4.395-4.4C-4500.077,1178.421-4498.651,1174.5-4495.617,1172.757Zm.011,11.54c1.074-.62,1.64-2.466,1.625-5.554,0-2.96-.56-4.226-1.66-3.591-1.013.583-1.7,2.452-1.657,5.564-.024,3.1.63,4.192,1.692,3.58Z" transform="translate(4500.058 -1172.154)" fill="#004996"/>
      </g>
      <g id="Group_129706" data-name="Group 129706" transform="translate(100.927 105.202)">
        <path id="Path_191445" data-name="Path 191445" d="M-4486.08,1167.416l.039,13.448-2.635,1.535-.033-10.665-.039.033-2.228,2.491-.469-2.089,3.1-3.447Z" transform="translate(4491.444 -1167.416)" fill="#004996"/>
      </g>
      <g id="Group_129707" data-name="Group 129707" transform="translate(110.001 99.661)">
        <path id="Path_191446" data-name="Path 191446" d="M-4479.849,1163.658c3.126-1.821,4.379.688,4.384,4.365.014,4.168-1.445,7.864-4.428,9.58-3.03,1.754-4.378-.6-4.4-4.4C-4484.309,1169.322-4482.879,1165.4-4479.849,1163.658Zm.015,11.531c1.061-.607,1.634-2.467,1.62-5.54,0-2.974-.559-4.237-1.663-3.6-1.009.584-1.693,2.467-1.66,5.569-.014,3.1.632,4.192,1.7,3.572Z" transform="translate(4484.294 -1163.05)" fill="#004996"/>
      </g>
      <g id="Group_129708" data-name="Group 129708" transform="translate(120.002 93.882)">
        <path id="Path_191447" data-name="Path 191447" d="M-4471.964,1159.1c3.13-1.821,4.375.7,4.383,4.375.016,4.158-1.439,7.854-4.431,9.57-3.031,1.755-4.37-.6-4.4-4.4C-4476.429,1164.769-4475,1160.849-4471.964,1159.1Zm.014,11.531c1.07-.617,1.635-2.457,1.625-5.54,0-2.965-.568-4.235-1.662-3.6-1.02.584-1.7,2.467-1.665,5.569-.015,3.1.642,4.194,1.7,3.572Z" transform="translate(4476.415 -1158.497)" fill="#004996"/>
      </g>
      <g id="Group_129709" data-name="Group 129709" transform="translate(130.007 88.107)">
        <path id="Path_191448" data-name="Path 191448" d="M-4464.085,1154.55c3.136-1.812,4.379.7,4.389,4.379.009,4.163-1.444,7.849-4.432,9.575-3.026,1.745-4.379-.607-4.4-4.408C-4468.537,1160.214-4467.108,1156.294-4464.085,1154.55Zm.019,11.54c1.066-.617,1.635-2.471,1.621-5.551-.01-2.964-.563-4.226-1.659-3.591-1.018.584-1.693,2.448-1.664,5.56-.014,3.1.636,4.192,1.7,3.581Z" transform="translate(4468.532 -1153.947)" fill="#004996"/>
      </g>
      <g id="Group_129710" data-name="Group 129710" transform="translate(140.951 82.097)">
        <path id="Path_191449" data-name="Path 191449" d="M-4454.541,1149.212l.033,13.448-2.635,1.525-.043-10.661-.028.028-2.228,2.5-.469-2.094,3.106-3.442Z" transform="translate(4459.91 -1149.212)" fill="#004996"/>
      </g>
      <g id="Group_129711" data-name="Group 129711" transform="translate(150.956 76.322)">
        <path id="Path_191450" data-name="Path 191450" d="M-4446.663,1144.662l.039,13.453-2.634,1.515-.039-10.651-.033.023-2.228,2.5-.469-2.1,3.108-3.437Z" transform="translate(4452.027 -1144.662)" fill="#004996"/>
      </g>
      <g id="Group_129712" data-name="Group 129712" transform="translate(160.025 70.775)">
        <path id="Path_191451" data-name="Path 191451" d="M-4440.436,1140.891c3.142-1.807,4.378.708,4.388,4.384.01,4.168-1.434,7.845-4.426,9.571-3.031,1.749-4.375-.6-4.408-4.4C-4444.887,1146.566-4443.461,1142.641-4440.436,1140.891Zm.014,11.541c1.061-.613,1.635-2.468,1.626-5.547,0-2.964-.565-4.225-1.659-3.6-1.009.584-1.7,2.457-1.665,5.569-.019,3.1.641,4.194,1.7,3.577Z" transform="translate(4444.882 -1140.292)" fill="#004996"/>
      </g>
      <g id="Group_129713" data-name="Group 129713" transform="translate(0 188.065)">
        <path id="Path_191452" data-name="Path 191452" d="M-4566.512,1233.307c3.137-1.816,4.37.689,4.384,4.375.014,4.164-1.438,7.854-4.428,9.58-3.029,1.74-4.374-.612-4.406-4.4C-4570.967,1238.982-4569.543,1235.058-4566.512,1233.307Zm.024,11.531c1.061-.612,1.626-2.457,1.621-5.545-.014-2.964-.573-4.225-1.669-3.6-1.013.593-1.7,2.466-1.668,5.569-.01,3.112.636,4.192,1.716,3.575Z" transform="translate(4570.962 -1232.702)" fill="#004996"/>
      </g>
      <g id="Group_129714" data-name="Group 129714" transform="translate(60.038 153.408)">
        <path id="Path_191453" data-name="Path 191453" d="M-4519.218,1206c3.136-1.811,4.379.689,4.389,4.37.014,4.163-1.434,7.854-4.427,9.58-3.031,1.75-4.375-.6-4.4-4.4C-4523.668,1211.666-4522.244,1207.745-4519.218,1206Zm.024,11.536c1.066-.622,1.626-2.468,1.626-5.545-.01-2.974-.574-4.227-1.668-3.6-1.009.584-1.692,2.458-1.665,5.561-.019,3.112.637,4.2,1.707,3.586Z" transform="translate(4523.659 -1205.396)" fill="#004996"/>
      </g>
      <g id="Group_129715" data-name="Group 129715" transform="translate(70.977 147.396)">
        <path id="Path_191454" data-name="Path 191454" d="M-4509.676,1200.659l.042,13.462-2.638,1.515-.029-10.661-.042.024-2.229,2.5-.468-2.094,3.1-3.442Z" transform="translate(4515.041 -1200.659)" fill="#004996"/>
      </g>
      <g id="Group_129716" data-name="Group 129716" transform="translate(80.983 141.611)">
        <path id="Path_191455" data-name="Path 191455" d="M-4501.779,1196.1l.043,13.448-2.658,1.535-.029-10.661-.038.029-2.223,2.5-.474-2.1,3.1-3.442Z" transform="translate(4507.157 -1196.102)" fill="#004996"/>
      </g>
      <g id="Group_129717" data-name="Group 129717" transform="translate(90.988 135.832)">
        <path id="Path_191456" data-name="Path 191456" d="M-4493.9,1191.548l.042,13.457-2.652,1.525-.029-10.661-.042.028-2.233,2.5-.463-2.089,3.107-3.447Z" transform="translate(4499.274 -1191.548)" fill="#004996"/>
      </g>
      <g id="Group_129718" data-name="Group 129718" transform="translate(100.061 130.304)">
        <path id="Path_191457" data-name="Path 191457" d="M-4487.68,1187.8c3.137-1.812,4.38.688,4.384,4.364.02,4.169-1.435,7.855-4.426,9.58-3.022,1.745-4.375-.6-4.4-4.4C-4492.134,1193.462-4490.706,1189.537-4487.68,1187.8Zm.024,11.531c1.066-.617,1.631-2.467,1.62-5.551-.013-2.955-.562-4.232-1.663-3.6-1.008.588-1.7,2.462-1.664,5.57-.018,3.107.637,4.192,1.707,3.577Z" transform="translate(4492.126 -1187.193)" fill="#004996"/>
      </g>
      <g id="Group_129719" data-name="Group 129719" transform="translate(110.077 124.519)">
        <path id="Path_191458" data-name="Path 191458" d="M-4479.792,1183.234c3.135-1.8,4.374.7,4.384,4.384.008,4.169-1.44,7.845-4.437,9.571-3.017,1.754-4.374-.6-4.389-4.4C-4484.244,1188.9-4482.825,1184.989-4479.792,1183.234Zm.014,11.541c1.056-.608,1.63-2.467,1.62-5.542-.009-2.964-.563-4.23-1.652-3.6-1.02.584-1.708,2.457-1.664,5.569-.024,3.1.631,4.192,1.7,3.572Z" transform="translate(4484.235 -1182.635)" fill="#004996"/>
      </g>
      <g id="Group_129720" data-name="Group 129720" transform="translate(120.084 118.744)">
        <path id="Path_191459" data-name="Path 191459" d="M-4471.914,1178.689c3.13-1.811,4.378.689,4.389,4.374.013,4.16-1.444,7.855-4.427,9.571-3.031,1.754-4.379-.6-4.4-4.393C-4476.364,1184.344-4474.94,1180.434-4471.914,1178.689Zm.019,11.531c1.071-.617,1.635-2.467,1.621-5.54-.01-2.965-.564-4.232-1.659-3.6-1.009.583-1.7,2.456-1.669,5.569-.023,3.111.641,4.192,1.707,3.57Z" transform="translate(4476.351 -1178.085)" fill="#004996"/>
      </g>
      <g id="Group_129721" data-name="Group 129721" transform="translate(131.011 112.731)">
        <path id="Path_191460" data-name="Path 191460" d="M-4462.372,1173.348l.033,13.457-2.634,1.52-.028-10.651-.039.014-2.233,2.505-.469-2.1,3.108-3.433Z" transform="translate(4467.741 -1173.348)" fill="#004996"/>
      </g>
      <g id="Group_129722" data-name="Group 129722" transform="translate(140.091 107.188)">
        <path id="Path_191461" data-name="Path 191461" d="M-4456.143,1169.585c3.131-1.816,4.378.694,4.378,4.375.02,4.164-1.437,7.854-4.42,9.58-3.031,1.749-4.379-.6-4.4-4.4C-4460.6,1175.255-4459.178,1171.336-4456.143,1169.585Zm.015,11.541c1.062-.612,1.629-2.468,1.629-5.555-.019-2.964-.567-4.225-1.672-3.59-1.008.583-1.7,2.456-1.664,5.559-.014,3.112.636,4.2,1.707,3.586Z" transform="translate(4460.588 -1168.98)" fill="#004996"/>
      </g>
      <g id="Group_129723" data-name="Group 129723" transform="translate(150.101 101.413)">
        <path id="Path_191462" data-name="Path 191462" d="M-4448.26,1165.031c3.136-1.807,4.369.7,4.384,4.374.014,4.173-1.439,7.854-4.433,9.58-3.025,1.75-4.373-.6-4.393-4.393C-4452.716,1170.7-4451.3,1166.781-4448.26,1165.031Zm.014,11.54c1.058-.612,1.635-2.466,1.626-5.545,0-2.964-.568-4.227-1.678-3.591-1,.574-1.684,2.449-1.645,5.561-.024,3.1.625,4.192,1.7,3.576Z" transform="translate(4452.701 -1164.43)" fill="#004996"/>
      </g>
      <g id="Group_129724" data-name="Group 129724" transform="translate(160.102 95.638)">
        <path id="Path_191463" data-name="Path 191463" d="M-4440.375,1160.487c3.127-1.818,4.37.688,4.389,4.374,0,4.164-1.445,7.854-4.437,9.571-3.026,1.749-4.374-.6-4.4-4.4C-4444.836,1166.151-4443.406,1162.227-4440.375,1160.487Zm.009,11.53c1.057-.612,1.641-2.466,1.631-5.545,0-2.964-.574-4.225-1.669-3.6-1.008.584-1.7,2.457-1.658,5.569-.019,3.1.631,4.192,1.7,3.576Z" transform="translate(4444.821 -1159.88)" fill="#004996"/>
      </g>
      <g id="Group_129725" data-name="Group 129725" transform="translate(0.081 212.923)">
        <path id="Path_191464" data-name="Path 191464" d="M-4566.457,1252.894c3.131-1.816,4.374.679,4.388,4.375.01,4.163-1.448,7.854-4.431,9.58-3.031,1.749-4.384-.6-4.4-4.4C-4570.913,1258.568-4569.493,1254.644-4566.457,1252.894Zm.014,11.531c1.072-.62,1.631-2.457,1.621-5.536,0-2.973-.56-4.235-1.659-3.6-1.014.584-1.7,2.457-1.664,5.561-.02,3.112.636,4.2,1.7,3.575Z" transform="translate(4570.897 -1252.287)" fill="#004996"/>
      </g>
      <g id="Group_129726" data-name="Group 129726" transform="translate(10.076 207.152)">
        <path id="Path_191465" data-name="Path 191465" d="M-4558.571,1248.348c3.131-1.816,4.373.669,4.388,4.375.01,4.158-1.443,7.844-4.431,9.57-3.032,1.75-4.379-.6-4.408-4.4C-4563.022,1254.014-4561.612,1250.088-4558.571,1248.348Zm.014,11.531c1.071-.622,1.63-2.467,1.621-5.545,0-2.974-.559-4.237-1.659-3.6-1.013.584-1.7,2.458-1.663,5.561-.015,3.112.635,4.192,1.7,3.585Z" transform="translate(4563.022 -1247.74)" fill="#004996"/>
      </g>
      <g id="Group_129727" data-name="Group 129727" transform="translate(20.083 201.375)">
        <path id="Path_191466" data-name="Path 191466" d="M-4550.688,1243.795c3.132-1.812,4.375.669,4.383,4.374.015,4.159-1.442,7.845-4.427,9.57-3.03,1.755-4.374-.6-4.407-4.4C-4555.148,1249.459-4553.723,1245.534-4550.688,1243.795Zm.019,11.53c1.066-.612,1.631-2.466,1.621-5.545-.015-2.969-.569-4.235-1.664-3.6-1.008.588-1.7,2.462-1.663,5.569-.02,3.112.631,4.192,1.706,3.575Z" transform="translate(4555.138 -1243.188)" fill="#004996"/>
      </g>
      <g id="Group_129728" data-name="Group 129728" transform="translate(31.026 195.354)">
        <path id="Path_191467" data-name="Path 191467" d="M-4541.14,1238.445l.038,13.458-2.652,1.525-.034-10.661-.033.028-2.233,2.5-.464-2.1,3.108-3.437Z" transform="translate(4546.518 -1238.445)" fill="#004996"/>
      </g>
      <g id="Group_129729" data-name="Group 129729" transform="translate(40.099 189.816)">
        <path id="Path_191468" data-name="Path 191468" d="M-4534.928,1234.686c3.146-1.812,4.38.679,4.389,4.374.019,4.169-1.439,7.855-4.427,9.58-3.032,1.755-4.379-.6-4.4-4.4C-4539.378,1240.361-4537.949,1236.44-4534.928,1234.686Zm.019,11.531c1.066-.617,1.635-2.467,1.626-5.531-.01-2.964-.568-4.241-1.664-3.61-1.013.593-1.7,2.467-1.664,5.58-.019,3.1.636,4.183,1.7,3.561Z" transform="translate(4539.369 -1234.081)" fill="#004996"/>
      </g>
      <g id="Group_129730" data-name="Group 129730" transform="translate(60.111 178.267)">
        <path id="Path_191469" data-name="Path 191469" d="M-4519.161,1225.586c3.141-1.812,4.384.684,4.389,4.379.014,4.154-1.445,7.845-4.427,9.571-3.031,1.749-4.379-.6-4.4-4.4C-4523.612,1231.247-4522.187,1227.331-4519.161,1225.586Zm.014,11.536c1.071-.622,1.645-2.467,1.626-5.545-.01-2.974-.56-4.235-1.659-3.6-1.014.584-1.7,2.468-1.659,5.57-.024,3.1.63,4.194,1.692,3.577Z" transform="translate(4523.602 -1224.982)" fill="#004996"/>
      </g>
      <g id="Group_129731" data-name="Group 129731" transform="translate(70.122 172.486)">
        <path id="Path_191470" data-name="Path 191470" d="M-4511.274,1221.032c3.131-1.811,4.374.674,4.39,4.379.008,4.155-1.445,7.855-4.437,9.581-3.026,1.739-4.374-.612-4.393-4.413C-4515.729,1226.7-4514.3,1222.778-4511.274,1221.032Zm.014,11.536c1.072-.622,1.636-2.468,1.621-5.545,0-2.974-.563-4.227-1.659-3.6-1.013.583-1.7,2.456-1.659,5.57-.02,3.1.631,4.192,1.7,3.575Z" transform="translate(4515.714 -1220.427)" fill="#004996"/>
      </g>
      <g id="Group_129732" data-name="Group 129732" transform="translate(80.122 166.709)">
        <path id="Path_191471" data-name="Path 191471" d="M-4503.395,1216.483c3.136-1.816,4.379.679,4.395,4.375.008,4.163-1.443,7.854-4.427,9.58-3.04,1.74-4.384-.6-4.408-4.4C-4507.85,1222.157-4506.42,1218.223-4503.395,1216.483Zm.019,11.531c1.072-.612,1.635-2.466,1.625-5.535-.008-2.974-.568-4.235-1.664-3.61-1.007.593-1.7,2.457-1.659,5.569-.022,3.112.632,4.193,1.7,3.576Z" transform="translate(4507.835 -1215.876)" fill="#004996"/>
      </g>
      <g id="Group_129733" data-name="Group 129733" transform="translate(90.132 160.933)">
        <path id="Path_191472" data-name="Path 191472" d="M-4495.508,1211.928c3.133-1.806,4.38.679,4.385,4.375.014,4.17-1.438,7.854-4.426,9.58-3.032,1.745-4.379-.6-4.4-4.4C-4499.962,1217.6-4498.537,1213.678-4495.508,1211.928Zm.021,11.541c1.07-.622,1.629-2.466,1.616-5.545,0-2.969-.56-4.235-1.659-3.6-1.015.583-1.692,2.452-1.664,5.559-.014,3.112.636,4.192,1.707,3.586Z" transform="translate(4499.949 -1211.325)" fill="#004996"/>
      </g>
      <g id="Group_129734" data-name="Group 129734" transform="translate(101.071 154.93)">
        <path id="Path_191473" data-name="Path 191473" d="M-4485.971,1206.595l.042,13.439-2.638,1.534-.034-10.661-.038.029-2.228,2.5-.463-2.1,3.1-3.447Z" transform="translate(4491.33 -1206.595)" fill="#004996"/>
      </g>
      <g id="Group_129735" data-name="Group 129735" transform="translate(111.072 149.141)">
        <path id="Path_191474" data-name="Path 191474" d="M-4478.083,1202.034l.039,13.457-2.639,1.525-.033-10.661-.034.029-2.228,2.491-.473-2.089,3.1-3.442Z" transform="translate(4483.451 -1202.034)" fill="#004996"/>
      </g>
      <g id="Group_129736" data-name="Group 129736" transform="translate(121.078 143.361)">
        <path id="Path_191475" data-name="Path 191475" d="M-4470.2,1197.48l.042,13.457-2.638,1.53-.033-10.661-.033.024-2.238,2.5-.463-2.1,3.107-3.442Z" transform="translate(4475.567 -1197.48)" fill="#004996"/>
      </g>
      <g id="Group_129737" data-name="Group 129737" transform="translate(130.151 137.823)">
        <path id="Path_191476" data-name="Path 191476" d="M-4463.978,1193.721c3.141-1.811,4.378.684,4.389,4.38.009,4.163-1.43,7.849-4.436,9.575-3.013,1.754-4.365-.608-4.395-4.4C-4468.427,1199.4-4467,1195.475-4463.978,1193.721Zm.024,11.541c1.071-.627,1.626-2.468,1.626-5.542-.01-2.964-.568-4.235-1.669-3.6-1.013.584-1.692,2.457-1.664,5.561-.014,3.112.636,4.2,1.707,3.581Z" transform="translate(4468.419 -1193.117)" fill="#004996"/>
      </g>
      <g id="Group_129738" data-name="Group 129738" transform="translate(140.161 132.045)">
        <path id="Path_191477" data-name="Path 191477" d="M-4456.091,1189.168c3.137-1.812,4.375.693,4.389,4.379.009,4.163-1.444,7.859-4.427,9.58-3.036,1.75-4.384-.593-4.4-4.4C-4460.545,1194.843-4459.117,1190.922-4456.091,1189.168Zm.019,11.545c1.058-.612,1.631-2.467,1.626-5.545-.014-2.974-.569-4.237-1.664-3.6-1.018.584-1.7,2.458-1.668,5.561-.015,3.112.641,4.2,1.706,3.586Z" transform="translate(4460.532 -1188.564)" fill="#004996"/>
      </g>
      <g id="Group_129739" data-name="Group 129739" transform="translate(150.167 126.273)">
        <path id="Path_191478" data-name="Path 191478" d="M-4448.2,1184.622c3.123-1.812,4.379.683,4.384,4.379,0,4.154-1.438,7.844-4.431,9.57-3.025,1.75-4.375-.6-4.4-4.4C-4452.663,1190.292-4451.237,1186.366-4448.2,1184.622Zm.016,11.535c1.051-.612,1.634-2.468,1.625-5.535-.009-2.984-.574-4.245-1.677-3.6-1,.574-1.687,2.457-1.649,5.561-.019,3.1.635,4.192,1.7,3.575Z" transform="translate(4452.648 -1184.018)" fill="#004996"/>
      </g>
      <g id="Group_129740" data-name="Group 129740" transform="translate(160.174 120.496)">
        <path id="Path_191479" data-name="Path 191479" d="M-4440.329,1180.073c3.137-1.818,4.374.679,4.389,4.374.019,4.163-1.435,7.854-4.427,9.58-3.031,1.74-4.379-.6-4.4-4.4C-4444.783,1185.737-4443.354,1181.812-4440.329,1180.073Zm.02,11.53c1.057-.612,1.64-2.457,1.625-5.545-.005-2.964-.568-4.225-1.659-3.6-1.015.583-1.7,2.457-1.673,5.57-.015,3.1.64,4.192,1.707,3.575Z" transform="translate(4444.765 -1179.466)" fill="#004996"/>
      </g>
      <g id="Group_129741" data-name="Group 129741" transform="translate(0.138 237.787)">
        <path id="Path_191480" data-name="Path 191480" d="M-4566.407,1272.484c3.14-1.821,4.379.688,4.388,4.379.016,4.154-1.434,7.855-4.425,9.585-3.031,1.745-4.371-.617-4.408-4.417C-4570.857,1278.145-4569.429,1274.219-4566.407,1272.484Zm.028,11.526c1.063-.612,1.631-2.457,1.622-5.535-.015-2.974-.574-4.237-1.664-3.61-1.019.593-1.7,2.466-1.667,5.569-.015,3.112.636,4.192,1.71,3.575Z" transform="translate(4570.853 -1271.876)" fill="#004996"/>
      </g>
      <g id="Group_129742" data-name="Group 129742" transform="translate(10.154 232.009)">
        <path id="Path_191481" data-name="Path 191481" d="M-4558.525,1267.924c3.147-1.806,4.378.7,4.393,4.384.005,4.159-1.438,7.864-4.431,9.59-3.021,1.74-4.379-.622-4.4-4.422C-4562.972,1273.59-4561.546,1269.675-4558.525,1267.924Zm.028,11.541c1.063-.622,1.625-2.467,1.618-5.545-.005-2.974-.566-4.235-1.66-3.6-1.014.583-1.707,2.456-1.664,5.559-.024,3.112.636,4.2,1.706,3.586Z" transform="translate(4562.961 -1267.324)" fill="#004996"/>
      </g>
      <g id="Group_129743" data-name="Group 129743" transform="translate(21.096 225.993)">
        <path id="Path_191482" data-name="Path 191482" d="M-4548.967,1262.584l.038,13.448-2.648,1.535-.034-10.661-.043.029-2.228,2.491-.459-2.089,3.1-3.447Z" transform="translate(4554.341 -1262.584)" fill="#004996"/>
      </g>
      <g id="Group_129744" data-name="Group 129744" transform="translate(30.165 220.453)">
        <path id="Path_191483" data-name="Path 191483" d="M-4542.754,1258.817c3.141-1.8,4.38.707,4.395,4.384,0,4.168-1.449,7.864-4.433,9.59-3.031,1.749-4.378-.612-4.4-4.413C-4547.2,1264.491-4545.785,1260.576-4542.754,1258.817Zm.023,11.54c1.072-.607,1.626-2.466,1.617-5.54-.006-2.964-.564-4.23-1.663-3.6-1.014.583-1.7,2.466-1.654,5.575-.029,3.107.631,4.187,1.7,3.565Z" transform="translate(4547.195 -1258.219)" fill="#004996"/>
      </g>
      <g id="Group_129745" data-name="Group 129745" transform="translate(40.171 214.678)">
        <path id="Path_191484" data-name="Path 191484" d="M-4534.866,1254.272c3.131-1.812,4.369.7,4.379,4.384.014,4.159-1.44,7.854-4.422,9.59-3.036,1.739-4.38-.622-4.4-4.423C-4539.327,1259.937-4537.9,1256.026-4534.866,1254.272Zm.014,11.54c1.07-.617,1.629-2.466,1.625-5.55-.009-2.964-.568-4.23-1.663-3.589-1.014.583-1.7,2.447-1.664,5.569-.019,3.1.63,4.182,1.7,3.57Z" transform="translate(4539.312 -1253.669)" fill="#004996"/>
      </g>
      <g id="Group_129746" data-name="Group 129746" transform="translate(50.182 208.898)">
        <path id="Path_191485" data-name="Path 191485" d="M-4526.989,1249.718c3.137-1.811,4.38.7,4.39,4.384,0,4.16-1.444,7.864-4.432,9.591-3.026,1.749-4.375-.617-4.393-4.418C-4531.438,1255.382-4530.02,1251.472-4526.989,1249.718Zm.02,11.54c1.071-.617,1.63-2.466,1.63-5.54-.015-2.974-.572-4.235-1.668-3.6-1.018.584-1.7,2.457-1.669,5.569-.014,3.1.642,4.183,1.707,3.57Z" transform="translate(4531.424 -1249.115)" fill="#004996"/>
      </g>
      <g id="Group_129747" data-name="Group 129747" transform="translate(61.115 202.884)">
        <path id="Path_191486" data-name="Path 191486" d="M-4517.437,1244.377l.039,13.462-2.649,1.525-.029-10.661-.043.015-2.223,2.514-.468-2.1,3.107-3.442Z" transform="translate(4522.811 -1244.377)" fill="#004996"/>
      </g>
      <g id="Group_129748" data-name="Group 129748" transform="translate(70.192 197.347)">
        <path id="Path_191487" data-name="Path 191487" d="M-4511.222,1240.618c3.141-1.811,4.374.688,4.393,4.38,0,4.163-1.447,7.858-4.435,9.584-3.027,1.755-4.375-.617-4.4-4.407C-4515.672,1246.288-4514.247,1242.372-4511.222,1240.618Zm.02,11.536c1.075-.612,1.639-2.467,1.625-5.545-.01-2.965-.57-4.227-1.661-3.6-1.018.584-1.705,2.467-1.672,5.569-.014,3.112.641,4.193,1.708,3.577Z" transform="translate(4515.659 -1240.014)" fill="#004996"/>
      </g>
      <g id="Group_129749" data-name="Group 129749" transform="translate(80.194 191.57)">
        <path id="Path_191488" data-name="Path 191488" d="M-4503.343,1236.068c3.142-1.816,4.384.689,4.389,4.384.014,4.154-1.435,7.854-4.427,9.585-3.026,1.745-4.368-.626-4.4-4.417C-4507.789,1241.734-4506.364,1237.819-4503.343,1236.068Zm.024,11.531c1.071-.622,1.635-2.457,1.631-5.536-.019-2.964-.574-4.235-1.665-3.609-1.022.593-1.707,2.466-1.673,5.57-.01,3.112.641,4.192,1.707,3.575Z" transform="translate(4507.778 -1235.463)" fill="#004996"/>
      </g>
      <g id="Group_129750" data-name="Group 129750" transform="translate(90.199 185.793)">
        <path id="Path_191489" data-name="Path 191489" d="M-4495.455,1231.515c3.136-1.812,4.379.7,4.389,4.384.01,4.158-1.439,7.858-4.432,9.589-3.021,1.74-4.374-.622-4.4-4.422C-4499.9,1237.188-4498.48,1233.264-4495.455,1231.515Zm.019,11.53c1.071-.612,1.636-2.457,1.626-5.535-.009-2.974-.563-4.237-1.665-3.61-1.013.593-1.7,2.467-1.659,5.569-.022,3.112.63,4.192,1.7,3.575Z" transform="translate(4499.896 -1230.912)" fill="#004996"/>
      </g>
      <g id="Group_129751" data-name="Group 129751" transform="translate(101.133 179.789)">
        <path id="Path_191490" data-name="Path 191490" d="M-4485.912,1226.181l.042,13.447-2.644,1.525-.028-10.661-.039.019-2.228,2.5-.473-2.089,3.112-3.447Z" transform="translate(4491.281 -1226.181)" fill="#004996"/>
      </g>
      <g id="Group_129752" data-name="Group 129752" transform="translate(110.22 174.242)">
        <path id="Path_191491" data-name="Path 191491" d="M-4479.684,1222.415c3.136-1.812,4.379.688,4.389,4.374.009,4.168-1.444,7.864-4.437,9.59-3.021,1.74-4.374-.613-4.389-4.413C-4484.141,1228.071-4482.715,1224.159-4479.684,1222.415Zm.014,11.531c1.066-.608,1.635-2.467,1.621-5.541,0-2.964-.555-4.23-1.654-3.6-1.014.583-1.7,2.467-1.669,5.569-.013,3.1.641,4.192,1.7,3.572Z" transform="translate(4484.121 -1221.811)" fill="#004996"/>
      </g>
      <g id="Group_129753" data-name="Group 129753" transform="translate(120.222 168.462)">
        <path id="Path_191492" data-name="Path 191492" d="M-4471.8,1217.861c3.131-1.812,4.37.688,4.384,4.374.014,4.169-1.439,7.864-4.432,9.59-3.036,1.754-4.379-.612-4.4-4.413C-4476.251,1223.526-4474.836,1219.606-4471.8,1217.861Zm.01,11.531c1.075-.617,1.634-2.467,1.624-5.54,0-2.965-.568-4.232-1.658-3.6-1.014.584-1.7,2.457-1.664,5.569-.024,3.112.632,4.194,1.7,3.572Z" transform="translate(4476.242 -1217.257)" fill="#004996"/>
      </g>
      <g id="Group_129754" data-name="Group 129754" transform="translate(130.227 162.684)">
        <path id="Path_191493" data-name="Path 191493" d="M-4463.917,1213.307c3.131-1.811,4.375.7,4.394,4.379.005,4.164-1.458,7.86-4.436,9.585-3.027,1.755-4.378-.607-4.4-4.408C-4468.373,1218.981-4466.948,1215.062-4463.917,1213.307Zm.02,11.541c1.07-.617,1.63-2.473,1.625-5.55-.009-2.955-.569-4.227-1.672-3.6-1.009.584-1.7,2.467-1.654,5.569-.021,3.114.636,4.194,1.7,3.582Z" transform="translate(4468.358 -1212.704)" fill="#004996"/>
      </g>
      <g id="Group_129755" data-name="Group 129755" transform="translate(141.157 156.68)">
        <path id="Path_191494" data-name="Path 191494" d="M-4454.38,1207.974l.043,13.453-2.639,1.525-.033-10.661-.034.014-2.232,2.505-.473-2.094,3.107-3.452Z" transform="translate(4459.748 -1207.974)" fill="#004996"/>
      </g>
      <g id="Group_129756" data-name="Group 129756" transform="translate(150.234 151.133)">
        <path id="Path_191495" data-name="Path 191495" d="M-4448.149,1204.207c3.136-1.811,4.374.693,4.383,4.379.009,4.164-1.439,7.86-4.432,9.585-3.026,1.755-4.375-.607-4.4-4.408C-4452.6,1209.877-4451.18,1205.952-4448.149,1204.207Zm.019,11.536c1.052-.6,1.635-2.467,1.621-5.545-.006-2.974-.569-4.227-1.673-3.591-1,.574-1.688,2.447-1.649,5.561-.02,3.1.63,4.192,1.7,3.575Z" transform="translate(4452.596 -1203.604)" fill="#004996"/>
      </g>
      <g id="Group_129757" data-name="Group 129757" transform="translate(160.24 145.355)">
        <path id="Path_191496" data-name="Path 191496" d="M-4440.275,1199.658c3.145-1.816,4.384.689,4.4,4.375,0,4.163-1.439,7.864-4.432,9.589-3.029,1.75-4.378-.621-4.4-4.412C-4444.722,1205.323-4443.293,1201.4-4440.275,1199.658Zm.028,11.531c1.058-.6,1.626-2.466,1.626-5.545-.014-2.964-.568-4.225-1.66-3.6-1.022.593-1.707,2.466-1.672,5.569-.01,3.112.639,4.2,1.706,3.576Z" transform="translate(4444.713 -1199.052)" fill="#004996"/>
      </g>
      <g id="Group_129758" data-name="Group 129758" transform="translate(0.214 262.644)">
        <path id="Path_191497" data-name="Path 191497" d="M-4566.347,1292.065c3.136-1.816,4.373.693,4.384,4.384.014,4.154-1.439,7.845-4.427,9.571-3.03,1.749-4.378-.6-4.4-4.4C-4570.807,1297.74-4569.378,1293.805-4566.347,1292.065Zm.019,11.54c1.066-.621,1.626-2.466,1.621-5.545-.009-2.973-.563-4.235-1.664-3.6-1.014.584-1.7,2.457-1.659,5.561-.019,3.111.63,4.2,1.7,3.584Z" transform="translate(4570.793 -1291.46)" fill="#004996"/>
      </g>
      <g id="Group_129759" data-name="Group 129759" transform="translate(11.167 256.632)">
        <path id="Path_191498" data-name="Path 191498" d="M-4556.795,1286.724l.033,13.448-2.648,1.535-.033-10.661-.034.029-2.228,2.491-.459-2.1,3.093-3.438Z" transform="translate(4562.164 -1286.724)" fill="#004996"/>
      </g>
      <g id="Group_129760" data-name="Group 129760" transform="translate(20.222 251.095)">
        <path id="Path_191499" data-name="Path 191499" d="M-4550.583,1282.965c3.141-1.811,4.378.688,4.389,4.375.019,4.158-1.44,7.844-4.424,9.58-3.034,1.74-4.379-.6-4.412-4.413C-4555.035,1288.63-4553.61,1284.7-4550.583,1282.965Zm.019,11.531c1.071-.612,1.64-2.466,1.626-5.545-.01-2.964-.57-4.235-1.664-3.6-1.014.593-1.7,2.461-1.665,5.569-.008,3.112.631,4.192,1.7,3.575Z" transform="translate(4555.03 -1282.361)" fill="#004996"/>
      </g>
      <g id="Group_129761" data-name="Group 129761" transform="translate(31.169 245.063)">
        <path id="Path_191500" data-name="Path 191500" d="M-4541.026,1277.609l.034,13.467-2.649,1.525-.028-10.661-.043.029-2.228,2.5-.464-2.1,3.1-3.442Z" transform="translate(4546.405 -1277.609)" fill="#004996"/>
      </g>
      <g id="Group_129762" data-name="Group 129762" transform="translate(41.175 239.293)">
        <path id="Path_191501" data-name="Path 191501" d="M-4533.147,1273.063l.038,13.458-2.648,1.525-.029-10.651-.038.029-2.232,2.49-.464-2.089,3.107-3.442Z" transform="translate(4538.521 -1273.063)" fill="#004996"/>
      </g>
      <g id="Group_129763" data-name="Group 129763" transform="translate(50.249 233.765)">
        <path id="Path_191502" data-name="Path 191502" d="M-4526.931,1269.312c3.132-1.812,4.379.688,4.388,4.374.01,4.159-1.443,7.854-4.436,9.57-3.025,1.755-4.37-.6-4.393-4.4C-4531.387,1274.977-4529.958,1271.047-4526.931,1269.312Zm.024,11.53c1.061-.616,1.625-2.466,1.614-5.54-.009-2.974-.563-4.235-1.663-3.6-1.014.583-1.7,2.457-1.66,5.569-.019,3.1.636,4.182,1.708,3.57Z" transform="translate(4531.372 -1268.708)" fill="#004996"/>
      </g>
      <g id="Group_129764" data-name="Group 129764" transform="translate(61.186 227.743)">
        <path id="Path_191503" data-name="Path 191503" d="M-4517.381,1263.963l.043,13.462-2.653,1.525-.034-10.661-.038.024-2.228,2.505-.463-2.1,3.1-3.433Z" transform="translate(4522.754 -1263.963)" fill="#004996"/>
      </g>
      <g id="Group_129765" data-name="Group 129765" transform="translate(71.197 221.968)">
        <path id="Path_191504" data-name="Path 191504" d="M-4509.509,1259.413l.033,13.457-2.634,1.535-.028-10.67-.039.033-2.232,2.5-.458-2.1,3.1-3.433Z" transform="translate(4514.867 -1259.413)" fill="#004996"/>
      </g>
      <g id="Group_129766" data-name="Group 129766" transform="translate(80.261 216.429)">
        <path id="Path_191505" data-name="Path 191505" d="M-4503.281,1255.654c3.137-1.816,4.375.693,4.384,4.374.016,4.164-1.433,7.855-4.422,9.58-3.035,1.741-4.378-.6-4.406-4.4C-4507.741,1261.329-4506.31,1257.4-4503.281,1255.654Zm.021,11.531c1.065-.612,1.629-2.457,1.624-5.536-.009-2.974-.574-4.236-1.663-3.608-1.014.593-1.7,2.466-1.668,5.569-.014,3.112.636,4.192,1.708,3.575Z" transform="translate(4507.726 -1255.049)" fill="#004996"/>
      </g>
      <g id="Group_129767" data-name="Group 129767" transform="translate(91.208 210.408)">
        <path id="Path_191506" data-name="Path 191506" d="M-4493.728,1250.305l.034,13.458-2.648,1.534-.034-10.661-.038.019-2.223,2.5-.464-2.094,3.1-3.442Z" transform="translate(4499.101 -1250.305)" fill="#004996"/>
      </g>
      <g id="Group_129768" data-name="Group 129768" transform="translate(101.209 204.648)">
        <path id="Path_191507" data-name="Path 191507" d="M-4485.863,1245.767l.044,13.448-2.644,1.525-.019-10.661-.048.029-2.229,2.5-.464-2.1,3.1-3.447Z" transform="translate(4491.222 -1245.767)" fill="#004996"/>
      </g>
      <g id="Group_129769" data-name="Group 129769" transform="translate(110.282 199.101)">
        <path id="Path_191508" data-name="Path 191508" d="M-4479.63,1242c3.14-1.811,4.378.689,4.388,4.375.01,4.159-1.439,7.854-4.427,9.571-3.031,1.754-4.379-.593-4.4-4.394C-4484.082,1247.666-4482.662,1243.745-4479.63,1242Zm.023,11.541c1.052-.617,1.626-2.476,1.615-5.55,0-2.964-.563-4.241-1.653-3.6-1.027.588-1.707,2.457-1.668,5.57-.019,3.107.636,4.192,1.706,3.58Z" transform="translate(4484.073 -1241.396)" fill="#004996"/>
      </g>
      <g id="Group_129770" data-name="Group 129770" transform="translate(121.221 193.089)">
        <path id="Path_191509" data-name="Path 191509" d="M-4470.091,1236.66l.033,13.458-2.634,1.515-.028-10.651-.034.028-2.237,2.491-.464-2.089,3.108-3.442Z" transform="translate(4475.455 -1236.66)" fill="#004996"/>
      </g>
      <g id="Group_129771" data-name="Group 129771" transform="translate(131.231 187.309)">
        <path id="Path_191510" data-name="Path 191510" d="M-4462.213,1232.106l.043,13.452-2.634,1.53-.029-10.656-.047.024-2.228,2.5-.458-2.094,3.1-3.442Z" transform="translate(4467.567 -1232.106)" fill="#004996"/>
      </g>
      <g id="Group_129772" data-name="Group 129772" transform="translate(141.233 181.539)">
        <path id="Path_191511" data-name="Path 191511" d="M-4454.324,1227.56l.033,13.453-2.629,1.525-.034-10.661-.038.014-2.232,2.505-.464-2.094,3.112-3.442Z" transform="translate(4459.688 -1227.56)" fill="#004996"/>
      </g>
      <g id="Group_129773" data-name="Group 129773" transform="translate(150.315 175.992)">
        <path id="Path_191512" data-name="Path 191512" d="M-4448.1,1223.793c3.136-1.811,4.375.688,4.384,4.379.015,4.164-1.433,7.845-4.432,9.571-3.021,1.749-4.374-.6-4.389-4.4C-4452.551,1229.463-4451.131,1225.538-4448.1,1223.793Zm.021,11.536c1.047-.6,1.63-2.467,1.62-5.547-.009-2.973-.564-4.225-1.679-3.589-1,.574-1.682,2.448-1.649,5.559-.019,3.112.64,4.193,1.708,3.577Z" transform="translate(4452.532 -1223.189)" fill="#004996"/>
      </g>
      <g id="Group_129774" data-name="Group 129774" transform="translate(160.312 170.215)">
        <path id="Path_191513" data-name="Path 191513" d="M-4440.209,1219.243c3.131-1.816,4.368.693,4.388,4.375,0,4.163-1.443,7.854-4.437,9.58-3.026,1.74-4.374-.6-4.4-4.4C-4444.667,1224.909-4443.241,1220.994-4440.209,1219.243Zm.019,11.541c1.047-.622,1.63-2.467,1.621-5.555-.005-2.964-.569-4.227-1.664-3.6-1.014.593-1.708,2.457-1.664,5.578-.024,3.1.631,4.192,1.707,3.577Z" transform="translate(4444.656 -1218.638)" fill="#004996"/>
      </g>
      <g id="Group_129775" data-name="Group 129775" transform="translate(111.072 28.646)">
        <path id="Path_191514" data-name="Path 191514" d="M-4478.083,1107.1l.039,13.458-2.639,1.525-.033-10.656-.034.024-2.228,2.491-.473-2.089,3.1-3.442Z" transform="translate(4483.451 -1107.099)" fill="#004996"/>
      </g>
      <g id="Group_129776" data-name="Group 129776" transform="translate(121.078 22.866)">
        <path id="Path_191515" data-name="Path 191515" d="M-4470.2,1102.545l.042,13.457-2.638,1.53-.033-10.661-.033.024-2.238,2.5-.463-2.1,3.107-3.442Z" transform="translate(4475.567 -1102.545)" fill="#004996"/>
      </g>
      <g id="Group_129777" data-name="Group 129777" transform="translate(130.151 17.328)">
        <path id="Path_191516" data-name="Path 191516" d="M-4463.978,1098.786c3.141-1.811,4.378.684,4.389,4.379.009,4.164-1.43,7.85-4.436,9.576-3.013,1.754-4.365-.608-4.395-4.4C-4468.427,1104.461-4467,1100.541-4463.978,1098.786Zm.024,11.541c1.071-.627,1.626-2.467,1.626-5.541-.01-2.964-.568-4.235-1.669-3.6-1.013.584-1.692,2.457-1.664,5.561-.014,3.112.636,4.2,1.707,3.58Z" transform="translate(4468.419 -1098.182)" fill="#004996"/>
      </g>
      <g id="Group_129778" data-name="Group 129778" transform="translate(140.161 11.551)">
        <path id="Path_191517" data-name="Path 191517" d="M-4456.091,1094.236c3.137-1.816,4.375.689,4.389,4.375.009,4.163-1.444,7.859-4.427,9.58-3.036,1.749-4.384-.593-4.4-4.4C-4460.545,1099.906-4459.117,1095.987-4456.091,1094.236Zm.019,11.541c1.058-.612,1.631-2.468,1.626-5.545-.014-2.974-.569-4.236-1.664-3.6-1.018.583-1.7,2.456-1.668,5.559-.015,3.112.641,4.2,1.706,3.586Z" transform="translate(4460.532 -1093.631)" fill="#004996"/>
      </g>
      <g id="Group_129779" data-name="Group 129779" transform="translate(150.167 5.78)">
        <path id="Path_191518" data-name="Path 191518" d="M-4448.2,1089.691c3.123-1.816,4.379.679,4.384,4.374,0,4.159-1.438,7.845-4.431,9.571-3.025,1.749-4.375-.6-4.4-4.4C-4452.663,1095.355-4451.237,1091.431-4448.2,1089.691Zm.016,11.531c1.051-.612,1.634-2.467,1.625-5.536-.009-2.983-.574-4.244-1.677-3.6-1,.574-1.687,2.457-1.649,5.561-.019,3.1.635,4.192,1.7,3.575Z" transform="translate(4452.648 -1089.084)" fill="#004996"/>
      </g>
      <g id="Group_129780" data-name="Group 129780" transform="translate(160.174)">
        <path id="Path_191519" data-name="Path 191519" d="M-4440.329,1085.137c3.137-1.816,4.374.679,4.389,4.375.019,4.168-1.435,7.854-4.427,9.58-3.031,1.74-4.379-.6-4.4-4.4C-4444.783,1090.8-4443.354,1086.877-4440.329,1085.137Zm.02,11.531c1.057-.612,1.64-2.457,1.625-5.545-.005-2.964-.568-4.225-1.659-3.6-1.015.584-1.7,2.457-1.673,5.569-.015,3.1.64,4.192,1.707,3.575Z" transform="translate(4444.765 -1084.53)" fill="#004996"/>
      </g>
      <g id="Group_129781" data-name="Group 129781" transform="translate(141.157 36.185)">
        <path id="Path_191520" data-name="Path 191520" d="M-4454.38,1113.039l.043,13.452-2.639,1.525-.033-10.661-.034.015-2.232,2.505-.473-2.094,3.107-3.451Z" transform="translate(4459.748 -1113.039)" fill="#004996"/>
      </g>
      <g id="Group_129782" data-name="Group 129782" transform="translate(150.234 30.64)">
        <path id="Path_191521" data-name="Path 191521" d="M-4448.149,1109.276c3.136-1.816,4.374.688,4.383,4.375.009,4.163-1.439,7.858-4.432,9.584-3.026,1.755-4.375-.607-4.4-4.407C-4452.6,1114.941-4451.18,1111.017-4448.149,1109.276Zm.019,11.531c1.052-.6,1.635-2.468,1.621-5.545-.006-2.974-.569-4.227-1.673-3.591-1,.574-1.688,2.448-1.649,5.559-.02,3.1.63,4.193,1.7,3.577Z" transform="translate(4452.596 -1108.671)" fill="#004996"/>
      </g>
      <g id="Group_129783" data-name="Group 129783" transform="translate(160.24 24.86)">
        <path id="Path_191522" data-name="Path 191522" d="M-4440.275,1104.722c3.145-1.816,4.384.689,4.4,4.375,0,4.163-1.439,7.863-4.432,9.589-3.029,1.75-4.378-.62-4.4-4.412C-4444.722,1110.388-4443.293,1106.463-4440.275,1104.722Zm.028,11.531c1.058-.6,1.626-2.466,1.626-5.545-.014-2.964-.568-4.227-1.66-3.6-1.022.593-1.707,2.466-1.672,5.57-.01,3.112.639,4.2,1.706,3.575Z" transform="translate(4444.713 -1104.117)" fill="#004996"/>
      </g>
      <g id="Group_129784" data-name="Group 129784" transform="translate(101.209 84.153)">
        <path id="Path_191523" data-name="Path 191523" d="M-4485.863,1150.832l.044,13.448-2.644,1.525-.019-10.661-.048.028-2.229,2.5-.464-2.1,3.1-3.447Z" transform="translate(4491.222 -1150.832)" fill="#004996"/>
      </g>
      <g id="Group_129785" data-name="Group 129785" transform="translate(110.282 78.606)">
        <path id="Path_191524" data-name="Path 191524" d="M-4479.63,1147.066c3.14-1.813,4.378.688,4.388,4.374.01,4.159-1.439,7.854-4.427,9.57-3.031,1.755-4.379-.593-4.4-4.393C-4484.082,1152.731-4482.662,1148.81-4479.63,1147.066Zm.023,11.54c1.052-.617,1.626-2.476,1.615-5.55,0-2.964-.563-4.24-1.653-3.6-1.027.593-1.707,2.457-1.668,5.569-.019,3.112.636,4.192,1.706,3.581Z" transform="translate(4484.073 -1146.462)" fill="#004996"/>
      </g>
      <g id="Group_129786" data-name="Group 129786" transform="translate(131.231 66.814)">
        <path id="Path_191525" data-name="Path 191525" d="M-4462.213,1137.171l.043,13.453-2.634,1.535-.029-10.661-.047.024-2.228,2.5-.458-2.094,3.1-3.442Z" transform="translate(4467.567 -1137.171)" fill="#004996"/>
      </g>
      <g id="Group_129787" data-name="Group 129787" transform="translate(141.233 61.044)">
        <path id="Path_191526" data-name="Path 191526" d="M-4454.324,1132.625l.033,13.453-2.629,1.525-.034-10.661-.038.014-2.232,2.505-.464-2.094,3.112-3.442Z" transform="translate(4459.688 -1132.625)" fill="#004996"/>
      </g>
      <g id="Group_129788" data-name="Group 129788" transform="translate(150.315 55.497)">
        <path id="Path_191527" data-name="Path 191527" d="M-4448.1,1128.858c3.136-1.812,4.375.693,4.384,4.379.015,4.164-1.433,7.845-4.432,9.571-3.021,1.749-4.374-.6-4.389-4.4C-4452.551,1134.528-4451.131,1130.6-4448.1,1128.858Zm.021,11.536c1.047-.6,1.63-2.468,1.62-5.545-.009-2.974-.564-4.227-1.679-3.591-1,.574-1.682,2.447-1.649,5.559-.019,3.112.64,4.194,1.708,3.577Z" transform="translate(4452.532 -1128.254)" fill="#004996"/>
      </g>
      <g id="Group_129789" data-name="Group 129789" transform="translate(160.312 49.721)">
        <path id="Path_191528" data-name="Path 191528" d="M-4440.209,1124.308c3.131-1.816,4.368.7,4.388,4.374,0,4.164-1.443,7.855-4.437,9.582-3.026,1.74-4.374-.6-4.4-4.4C-4444.667,1129.974-4443.241,1126.058-4440.209,1124.308Zm.019,11.541c1.047-.622,1.63-2.467,1.621-5.555-.005-2.964-.569-4.226-1.664-3.6-1.014.593-1.708,2.457-1.664,5.578-.024,3.1.631,4.194,1.707,3.577Z" transform="translate(4444.656 -1123.704)" fill="#004996"/>
      </g>
    </g>
    <g id="Group_129791" data-name="Group 129791" transform="translate(495 3892.236)" opacity="0.6">
      <path id="Path_191529" data-name="Path 191529" d="M-4469.723,1057.308v3.141l-3.195,1.845v-3.347c0-3.136-1.075-4.412-3.536-2.988-2.416,1.391-3.539,3.94-3.539,7.075v18.445c0,3.135,1.124,4.384,3.539,2.988,2.461-1.42,3.536-3.94,3.536-7.076v-4.532l3.195-1.849v4.336c0,5.288-2.157,10.021-6.817,12.708-4.619,2.667-6.774.425-6.774-4.857v-18.042c0-5.283,2.156-10.016,6.774-12.683C-4471.88,1049.779-4469.723,1052.026-4469.723,1057.308Z" transform="translate(4483.315 -1032.705)" fill="#004996" opacity="0.35"/>
      <path id="Path_191530" data-name="Path 191530" d="M-4457.01,1049.912v.952l-3.189,1.84v-1.142c0-3.136-1.038-4.384-3.456-2.988s-3.453,3.833-3.453,6.926c0,7.821,10.145,2.711,10.145,12.535,0,5.283-2.2,9.988-6.822,12.654s-6.773.473-6.773-4.809v-2l3.15-1.811v2.189c0,3.136,1.124,4.341,3.538,2.936,2.414-1.387,3.538-3.878,3.538-7.023,0-7.778-10.1-2.687-10.1-12.511,0-5.379,2.157-9.964,6.689-12.578C-4459.166,1042.445-4457.01,1044.629-4457.01,1049.912Z" transform="translate(4486.75 -1034.688)" fill="#004996" opacity="0.35"/>
      <path id="Path_191531" data-name="Path 191531" d="M-4444.354,1042.6v.952l-3.189,1.84v-1.144c0-3.135-1.037-4.383-3.456-2.987s-3.448,3.833-3.448,6.926c0,7.821,10.14,2.711,10.14,12.535,0,5.283-2.2,9.986-6.822,12.654s-6.773.474-6.773-4.809v-2l3.149-1.811v2.189c0,3.136,1.12,4.341,3.539,2.945s3.542-3.886,3.542-7.031c0-7.779-10.1-2.687-10.1-12.511,0-5.379,2.156-9.963,6.692-12.578C-4446.51,1035.138-4444.354,1037.322-4444.354,1042.6Z" transform="translate(4490.158 -1036.656)" fill="#004996" opacity="0.35"/>
    </g>
    <g id="Group_129792" data-name="Group 129792" transform="translate(180 3965.699)" opacity="0.6">
      <path id="Path_191532" data-name="Path 191532" d="M-4626.7,1220.731l-6.09,21.668-3.849,2.227,7.334-25.918-6.864-16.412,4.213-2.434,5.619,13.574,5.667-20.084,3.8-2.2-6.812,24.3,7.291,17.484-4.275,2.459Z" transform="translate(4636.635 -1170.928)" fill="#004996" opacity="0.35"/>
      <path id="Path_191533" data-name="Path 191533" d="M-4611.725,1231.164l-3.9,2.24-6.037-29.976v33.524L-4625.2,1239v-42.043l5.672-3.286,5.982,30.132,5.768-36.925,5.674-3.271v42.06l-3.842,2.21v-33.81Z" transform="translate(4648.671 -1178.863)" fill="#004996" opacity="0.35"/>
      <path id="Path_191534" data-name="Path 191534" d="M-4611.9,1225.689v-42.06l4.059-2.333v37.783l10.4-6.005v4.259Z" transform="translate(4662.66 -1181.296)" fill="#004996" opacity="0.35"/>
    </g>
    <g id="Group_129793" data-name="Group 129793" transform="translate(265 3871)" opacity="0.6">
      <path id="Path_191535" data-name="Path 191535" d="M-4614.332,1131.034v15.7l-3.365,1.941V1113.8l3.365-1.947v15.7l7.425-4.289v-15.7l3.365-1.946V1140.5l-3.365,1.946v-15.7Z" transform="translate(4617.697 -1079.589)" fill="#004996" opacity="0.35"/>
      <path id="Path_191536" data-name="Path 191536" d="M-4599.167,1138.023v-31.352l-5.569,3.213v-3.537l14.5-8.367v3.538l-5.563,3.208v31.351Z" transform="translate(4621.186 -1081.645)" fill="#004996" opacity="0.35"/>
      <path id="Path_191537" data-name="Path 191537" d="M-4580.323,1127.658l-3.232,1.875-5.01-24.869v27.8l-2.935,1.7v-34.89l4.7-2.71,4.967,24.988,4.79-30.619,4.7-2.72V1123.1l-3.193,1.845v-28.058Z" transform="translate(4624.75 -1084.274)" fill="#004996" opacity="0.35"/>
      <path id="Path_191538" data-name="Path 191538" d="M-4573.673,1121.934l-.005-34.879,3.37-1.946v31.346l8.629-4.986v3.537Z" transform="translate(4629.548 -1085.11)" fill="#004996" opacity="0.35"/>
    </g>
    <g id="Group_129794" data-name="Group 129794" transform="translate(265 3986.585)" opacity="0.6">
      <path id="Path_191539" data-name="Path 191539" d="M-4551.767,1206.855l-16.611,1.737v-3.458l16.611-17.458v3.527l-12.694,13.383,12.694-1.266Z" transform="translate(4568.378 -1163.25)" fill="#004996" opacity="0.35"/>
      <path id="Path_191540" data-name="Path 191540" d="M-4540.246,1175.6l-14.782,51.823-3.651,2.095,14.785-51.823Z" transform="translate(4578.292 -1175.597)" fill="#004996" opacity="0.35"/>
      <path id="Path_191541" data-name="Path 191541" d="M-4548.081,1197.219l12.7-13.391-12.7,1.266v-3.527l16.6-1.721v3.456l-16.6,17.444Z" transform="translate(4589.127 -1171.254)" fill="#004996" opacity="0.35"/>
    </g>
    <g id="Group_129819" data-name="Group 129819" transform="translate(404.032 3958)">
      <g id="Group_129799" data-name="Group 129799" transform="translate(22.75)">
        <g id="Group_129796" data-name="Group 129796" transform="translate(6.681 14.756)">
          <path id="Path_191543" data-name="Path 191543" d="M-4371.03,1195.312s.392-8.481-11.594-9.466a209.935,209.935,0,0,0-24.094-.4l-17.033-21.8s-5.283.392-6.665,3.724c0,0,10.422,25.055,19.653,30.094C-4410.762,1197.464-4369.424,1214.22-4371.03,1195.312Z" transform="translate(4430.415 -1163.646)" fill="#cadfe8"/>
        </g>
        <g id="Group_129797" data-name="Group 129797">
          <path id="Path_191544" data-name="Path 191544" d="M-4428.691,1170.151s-4.833-3.791-5.918-6.311a10.822,10.822,0,0,1-1.027-5.231c.128-.74,1.868,1.942,2.414,2.83.53.88,2.876,1.865,1.591-4.426-1.3-6.286-.354-4.944.139-4.724.511.211,7.983,8.1,8.328,15.355C-4423.165,1167.646-4425.656,1167.55-4428.691,1170.151Z" transform="translate(4435.679 -1152.02)" fill="#efb185"/>
        </g>
        <g id="Group_129798" data-name="Group 129798" transform="translate(6.681 16.333)">
          <path id="Path_191545" data-name="Path 191545" d="M-4410.762,1197.129c-9.231-5.039-19.653-30.094-19.653-30.094a4.959,4.959,0,0,1,1.879-2.146c2.663,4.856,10.508,18.941,15.79,26.47,6.44,9.179,41.3,7.2,41.467,6.941C-4374.793,1211.686-4410.762,1197.129-4410.762,1197.129Z" transform="translate(4430.415 -1164.889)" fill="#afced8"/>
        </g>
      </g>
      <g id="Group_129800" data-name="Group 129800" transform="translate(64.516 209.932)">
        <path id="Path_191546" data-name="Path 191546" d="M-4398.938,1317.431s-4.818.712-3.652,3.494,6.722,6.99,7.434,8.749c.741,1.745,5.249,8.013,6.7,7.429,1.472-.583,5.254.287,4.818-6.85S-4392.527,1317.134-4398.938,1317.431Z" transform="translate(4402.772 -1317.421)" fill="#111114"/>
      </g>
      <g id="Group_129801" data-name="Group 129801" transform="translate(25.03 234.137)">
        <path id="Path_191547" data-name="Path 191547" d="M-4399.74,1338.532s2.323,6.86-3.5,8.453-4.079-2.046-16.766,1.152c-12.678,3.216-14.131-3.338-13.839-4.805s8.748-4.068,11.516-4.8c2.769-.716,8.018-2.041,8.018-2.041h15.025Z" transform="translate(4433.882 -1336.491)" fill="#111114"/>
      </g>
      <g id="Group_129802" data-name="Group 129802" transform="translate(61.761 115.874)">
        <path id="Path_191548" data-name="Path 191548" d="M-4383.581,1243.315s.081,41.386.081,46.038,5.206,41.395,2.07,57.434c0,0-9.022,9.039-16.99,0,0,0-2.558-45.981-4.873-56.359-2.3-10.373-1.524-42.093-1.524-42.093Z" transform="translate(4404.943 -1243.315)" fill="#042c58"/>
      </g>
      <g id="Group_129803" data-name="Group 129803" transform="translate(40.806 113.389)">
        <path id="Path_191549" data-name="Path 191549" d="M-4394.97,1249.728s-2.046,26.714-4.168,53.218c0,0-1.329,52.586-2.581,60.163,0,0-16.953,4.2-18.646-3.786,0,0,.412-46.281,0-55.938-.438-9.686-2.739-40,1.077-55.579C-4415.474,1232.249-4394.97,1249.728-4394.97,1249.728Z" transform="translate(4421.453 -1241.357)" fill="#042c58"/>
      </g>
      <g id="Group_129804" data-name="Group 129804" transform="translate(49.689 126.431)">
        <path id="Path_191550" data-name="Path 191550" d="M-4403.6,1360.342c1.252-7.577,2.581-60.163,2.581-60.163,1.425-17.842,3.056-38.733,3.811-48.547l-11.507,2.223a183.531,183.531,0,0,0-5.6,52.864c.9,23,1.272,45.646,1.392,54.714A42.45,42.45,0,0,0-4403.6,1360.342Z" transform="translate(4414.454 -1251.632)" fill="#063b75"/>
      </g>
      <g id="Group_129805" data-name="Group 129805" transform="translate(72.736 116.185)">
        <path id="Path_191551" data-name="Path 191551" d="M-4383.758,1346.721c3.136-16.039-2.07-52.768-2.07-57.434,0-4.437-.067-42.16-.071-45.727l-9.113,6.993s-2.886,29.592,0,46.43c2.64,15.341.938,45.2,2.224,53.754C-4387.764,1350.737-4383.758,1346.721-4383.758,1346.721Z" transform="translate(4396.295 -1243.56)" fill="#084a93"/>
      </g>
      <g id="Group_129806" data-name="Group 129806" transform="translate(42.904 40.688)">
        <path id="Path_191552" data-name="Path 191552" d="M-4377.049,1184.117s8.749,4.379,3.792,19.247-8.452,24.488-8.151,30.023c.281,5.531,1.688,26.036,2.849,29.836,0,0,.664,6.354-23.1,9.561,0,0-21.426,2.509-17.65-12.649,3.8-15.16.876-31.7.3-37.524-.593-5.846-4.1-17.5,10.494-25.376C-4393.943,1189.367-4386.37,1183.535-4377.049,1184.117Z" transform="translate(4419.8 -1184.077)" fill="#cadfe8"/>
      </g>
      <g id="Group_129813" data-name="Group 129813" transform="translate(53.687 8.09)">
        <g id="Group_129807" data-name="Group 129807" transform="translate(5.89 24.704)">
          <path id="Path_191553" data-name="Path 191553" d="M-4390.935,1178.454s-.922,7.768,1.746,12.62c2.417,4.413-15.877,8.438-16.316,4.36a17.6,17.6,0,0,0-.952-15.063C-4408.766,1176.231-4390.935,1178.454-4390.935,1178.454Z" transform="translate(4406.663 -1177.858)" fill="#efb185"/>
        </g>
        <g id="Group_129808" data-name="Group 129808" transform="translate(8.066 26.921)">
          <path id="Path_191554" data-name="Path 191554" d="M-4389.748,1190.877c-1.984-3.618-1.984-8.83-1.845-11.272l-13.356,6.636v.033c.493.114,9.518,2.4,11.469,8.891C-4390.737,1194.046-4388.877,1192.479-4389.748,1190.877Z" transform="translate(4404.949 -1179.605)" fill="#dd9569"/>
        </g>
        <g id="Group_129809" data-name="Group 129809" transform="translate(0 1.873)">
          <path id="Path_191555" data-name="Path 191555" d="M-4408.95,1162.664s-2.855,7.047-2.276,13.124c.611,6.525-.378,7.859.043,10.761.177,1.248.272,3.131,1.478,4.284,2.016,1.95,6.176,2.672,11.826.607,6.808-2.49,13.984-11.87,11.067-20.284C-4389.738,1162.726-4398.706,1155.8-4408.95,1162.664Z" transform="translate(4411.304 -1159.87)" fill="#efb185"/>
        </g>
        <g id="Group_129810" data-name="Group 129810" transform="translate(0.943 1.9)">
          <path id="Path_191556" data-name="Path 191556" d="M-4387.313,1180.251c-2.75-7.583-9.509-16.665-9.447-17.147.024-.3-2.218-1.717-4.776-3.213a15.367,15.367,0,0,0-7.614,2.767,35.756,35.756,0,0,0-1.41,4.537c1.616,1.821,4.918,3.9,5.416,5.426a19.606,19.606,0,0,1-.564,11.55c-1.08,2.442,3.29,6.009,2.367,8.151a.479.479,0,0,0-.013.3,19.45,19.45,0,0,0,5.277-1.186C-4393.738,1189.836-4389.24,1185.428-4387.313,1180.251Z" transform="translate(4410.561 -1159.891)" fill="#e6a376"/>
        </g>
        <g id="Group_129811" data-name="Group 129811" transform="translate(0.273)">
          <path id="Path_191557" data-name="Path 191557" d="M-4411.027,1160.169a8.714,8.714,0,0,0,4.963,8.963c3.595,1.749,3.261,7.52,3.1,8.581s-1.229,5.937-.79,6.563c.842,1.2,3.638-2.552,4.972-2.29,3.385.66,2.056,3.81-1.018,7.128-3.275,3.523,5.35,4.972,9.331,2.06,2.125-1.544,2.889-2.466,5.67-8,4.049-8.065,4.254-17.745-5.278-22.908S-4405.117,1162.506-4411.027,1160.169Z" transform="translate(4411.089 -1158.394)" fill="#221101"/>
        </g>
        <g id="Group_129812" data-name="Group 129812" transform="translate(0.27)">
          <path id="Path_191558" data-name="Path 191558" d="M-4390.47,1191.176c2.125-1.544,2.889-2.466,5.671-8,4.048-8.065,4.254-17.745-5.278-22.908s-15.039,2.241-20.949-.1a8.126,8.126,0,0,0,.048,2.423c3.021.487,11.283,2.118,13.42,5.685,2.624,4.364,5.541,2.954,5.306,8.395-.206,5.234,1.153,12.094-7.649,15.058C-4396.618,1194.087-4392.018,1192.309-4390.47,1191.176Z" transform="translate(4411.092 -1158.394)" fill="#341c09"/>
        </g>
      </g>
      <g id="Group_129814" data-name="Group 129814" transform="translate(55.806 42.779)">
        <path id="Path_191559" data-name="Path 191559" d="M-4403.682,1190.893l-5.953,5.02s18.554,5.311,23.989-3.782c.78-1.3-.157-5.6-3.4-6.406C-4389.045,1185.725-4389.67,1193.126-4403.682,1190.893Z" transform="translate(4409.635 -1185.725)" fill="#def0f9"/>
      </g>
      <g id="Group_129815" data-name="Group 129815" transform="translate(42.911 54.089)">
        <path id="Path_191560" data-name="Path 191560" d="M-4419.31,1257.292c3.8-15.16.875-31.7.3-37.524-.593-5.789-3.99-17.258,10.083-25.132,4.9,2.975,11.99,9.39,7.974,20.218-4.976,13.406-6.617,42.471-7.592,55.044C-4414.433,1269.243-4421.629,1266.594-4419.31,1257.292Z" transform="translate(4419.794 -1194.636)" fill="#afced8"/>
      </g>
      <g id="Group_129816" data-name="Group 129816" transform="translate(7.742 37.941)">
        <path id="Path_191561" data-name="Path 191561" d="M-4391.007,1204.009s-.644-7.619-11.492-7.085a190.238,190.238,0,0,0-21.642,2.5l-17.84-17.512s-4.671,1-5.522,4.159c0,0,12.3,21.168,21.174,24.586C-4426.329,1210.659-4387.32,1220.747-4391.007,1204.009Z" transform="translate(4447.503 -1181.913)" fill="#cadfe8"/>
      </g>
      <g id="Group_129817" data-name="Group 129817" transform="translate(0 27.585)">
        <path id="Path_191562" data-name="Path 191562" d="M-4441,1184.77s-.723-5.517-2.189-7.5a9.691,9.691,0,0,0-3.595-3.2c-.626-.254.659,2.342,1.091,3.169.449.822.138,3.093-4.169-.8s-3.678-2.543-3.74-2.056,2.63,9.939,8.113,13.554C-4445.488,1187.935-4444.417,1185.941-4441,1184.77Z" transform="translate(4453.603 -1173.754)" fill="#efb185"/>
      </g>
      <g id="Group_129818" data-name="Group 129818" transform="translate(7.742 39.935)">
        <path id="Path_191563" data-name="Path 191563" d="M-4426.329,1210.236c-8.87-3.418-21.174-24.586-21.174-24.586a4.417,4.417,0,0,1,1.424-2.165c2.959,4.04,11.655,15.7,17.292,21.828,6.869,7.453,37.838,1.545,37.962,1.291C-4392.388,1219.014-4426.329,1210.236-4426.329,1210.236Z" transform="translate(4447.503 -1183.484)" fill="#afced8"/>
      </g>
    </g>
  </g>
</svg>
