<svg xmlns="http://www.w3.org/2000/svg" xmlns:xlink="http://www.w3.org/1999/xlink" width="505" height="265" viewBox="0 0 505 265">
  <defs>
    <clipPath id="clip-path">
      <rect id="Rectangle_296766" data-name="Rectangle 296766" width="52.382" height="68.91" fill="none"/>
    </clipPath>
    <clipPath id="clip-path-2">
      <rect id="Rectangle_296767" data-name="Rectangle 296767" width="9.161" height="40.275" fill="none"/>
    </clipPath>
  </defs>
  <g id="_15" data-name="15" transform="translate(-285 -5710)">
    <rect id="BG" width="505" height="265" transform="translate(285 5710)" fill="#e5fcff"/>
    <g id="Group_147752" data-name="Group 147752" transform="translate(314.108 5746.135)">
      <path id="Path_203375" data-name="Path 203375" d="M311.793,796.127a1.775,1.775,0,0,0-.039.381c-.012.283-.028.646-.048,1.095-.019.476-.047,1.059-.014,1.735s.006,1.449.105,2.3c.081.848.138,1.782.313,2.77.08.494.143,1.01.245,1.534s.228,1.06.346,1.612a39.7,39.7,0,0,0,2.321,6.951,40.884,40.884,0,0,0,3.612,6.38c.671.907,1.29,1.783,1.954,2.536.326.381.622.765.941,1.1l.919.973c.571.634,1.157,1.137,1.647,1.6s.935.844,1.307,1.141l.854.687a1.736,1.736,0,0,0,.311.223,1.793,1.793,0,0,0-.271-.272l-.814-.731c-.359-.31-.794-.694-1.266-1.176s-1.048-.989-1.605-1.63l-.9-.981c-.312-.341-.6-.726-.921-1.108-.651-.755-1.257-1.631-1.917-2.536a42.259,42.259,0,0,1-3.562-6.343,40.9,40.9,0,0,1-2.327-6.89l-.356-1.6c-.107-.52-.174-1.031-.259-1.522-.185-.98-.254-1.906-.349-2.748-.113-.842-.1-1.612-.151-2.284s-.039-1.253-.039-1.728c0-.448-.008-.81-.011-1.094a1.742,1.742,0,0,0-.025-.383" transform="translate(-209.753 -682.142)" fill="#e1e1e1"/>
      <path id="Path_203377" data-name="Path 203377" d="M211.454,895.236,176.695,871.8,8.28,871,.571,895.588Z" transform="translate(75.32 -712.107)" fill="#084a93"/>
      <path id="Path_203378" data-name="Path 203378" d="M.092,920.411l210.444-.153v-9.907L0,911.01Z" transform="translate(76.237 -727.681)" fill="#084a93"/>
      <path id="Path_203379" data-name="Path 203379" d="M3.806,911.2c0,.094,41.2.15,92.01.123,50.828-.027,92.019-.125,92.019-.219s-41.191-.149-92.019-.123c-50.81.027-92.01.125-92.01.219" transform="translate(96.051 -727.927)" fill="#042c58"/>
      <path id="Path_203387" data-name="Path 203387" d="M180.288,774.781s3.754.808,4.405,3.473-5.228,66.4-5.464,67.951c-.371,2.439-2.428,5.537-7.062,5.371-4.038-.145-59.072-.017-72.93.015-1.842,0-2.948-1.564-3.191-3.429l68.14-4.022Z" transform="translate(62.36 -674.027)" fill="#e1e1e1"/>
      <path id="Path_203388" data-name="Path 203388" d="M186.528,776.907l-5.9,68.733a2.225,2.225,0,0,1-2.177,2l-77.87.35,14.959-14.844,50.587-.357,5.41-53.848a1.689,1.689,0,0,1,1.3-1.468l11.332-2.641a1.937,1.937,0,0,1,2.366,2.074" transform="translate(57.829 -674.027)" fill="#e1e1e1"/>
      <path id="Path_203389" data-name="Path 203389" d="M186.936,776.884a1.536,1.536,0,0,0,.013-.332,1.856,1.856,0,0,0-.3-.93,1.958,1.958,0,0,0-1.324-.872,2.354,2.354,0,0,0-1.036.085l-1.153.263-6.015,1.38-3.813.879a1.784,1.784,0,0,0-1.44,1.533q-.113,1.1-.234,2.272c-1.266,12.455-3.074,30.24-5.245,51.59l.146-.132-50.587.335h-.069l-.049.048-14.961,14.842-.3.295.418,0,3.449-.016,57.085-.27,12.818-.065,3.094-.016c.515-.005,1.014,0,1.537-.014a2.361,2.361,0,0,0,2.192-2.016c.057-.511.089-1,.134-1.495q.126-1.483.25-2.939c.66-7.773,1.275-15.014,1.836-21.625,1.112-13.217,2.012-23.913,2.634-31.313.3-3.693.539-6.561.7-8.515.076-.968.134-1.709.173-2.215s.047-.756.047-.756-.034.254-.082.752-.117,1.245-.207,2.212c-.175,1.953-.432,4.819-.763,8.509-.648,7.4-1.586,18.091-2.743,31.3-.574,6.61-1.2,13.848-1.878,21.62q-.126,1.458-.254,2.939c-.045.491-.08,1-.135,1.48a2.069,2.069,0,0,1-1.922,1.764c-.492.013-1.013.007-1.521.012l-3.094.012-12.818.05-57.083.243-3.45.016.121.292,14.957-14.845-.118.049,50.587-.379h.132l.013-.132c2.12-21.356,3.886-39.144,5.123-51.6l.224-2.271a1.626,1.626,0,0,1,1.314-1.4l3.809-.9,6.005-1.421,1.15-.274a2.292,2.292,0,0,1,1.007-.094,1.913,1.913,0,0,1,1.3.83,1.874,1.874,0,0,1,.318.906c.018.217,0,.33.01.33" transform="translate(57.422 -674.004)" fill="#042c58"/>
      <path id="Path_203390" data-name="Path 203390" d="M191.889,885.212h-7.238l9.151-11.87h4.3Z" transform="translate(-4.531 -713.034)" fill="#042c58"/>
      <path id="Path_203391" data-name="Path 203391" d="M120.841,782.81l-5.528,59.719-10.3-8.191,4.434-50.315a.873.873,0,0,1,.746-.787l9.654-1.381a.873.873,0,0,1,.992.954" transform="translate(120.841 -676.824)" fill="#042c58"/>
      <path id="Path_203392" data-name="Path 203392" d="M138.39,885.212H130.92l-7.592-11.87h4.3Z" transform="translate(92.23 -713.034)" fill="#042c58"/>
      <path id="Path_203393" data-name="Path 203393" d="M149.708,885.212H142.47l-3.967-11.87h4.3Z" transform="translate(71.743 -713.034)" fill="#042c58"/>
      <path id="Path_203394" data-name="Path 203394" d="M160.793,885.212h-7.238l-.39-11.87h4.3Z" transform="translate(51.798 -713.034)" fill="#042c58"/>
      <path id="Path_203395" data-name="Path 203395" d="M174,885.212h-7.238l2.672-11.87h4.3Z" transform="translate(30.378 -713.034)" fill="#042c58"/>
      <path id="Path_203396" data-name="Path 203396" d="M183.28,885.212h-7.238l5.9-11.87h4.3Z" transform="translate(12.533 -713.034)" fill="#042c58"/>
      <path id="Path_203397" data-name="Path 203397" d="M124.706,889.09c0,.057,11.038.1,24.65.1s24.653-.046,24.653-.1-11.035-.1-24.653-.1-24.65.046-24.65.1" transform="translate(55.779 -719.226)" fill="#e1e1e1"/>
      <path id="Path_203398" data-name="Path 203398" d="M126.64,885.488c0,.057,10.482.1,23.41.1s23.412-.046,23.412-.1-10.48-.1-23.412-.1-23.41.046-23.41.1" transform="translate(55.157 -717.8)" fill="#e1e1e1"/>
      <path id="Path_203399" data-name="Path 203399" d="M131.215,882.151c0,.114,9.864.206,22.028.206s22.03-.092,22.03-.206-9.861-.206-22.03-.206-22.028.092-22.028.206" transform="translate(50.582 -716.439)" fill="#e1e1e1"/>
      <path id="Path_203400" data-name="Path 203400" d="M133.286,879.168c0,.114,9.651.206,21.554.206s21.556-.092,21.556-.206-9.649-.205-21.556-.205-21.554.092-21.554.205" transform="translate(48.208 -715.259)" fill="#e1e1e1"/>
      <path id="Path_203401" data-name="Path 203401" d="M134.49,876.99c0,.114,9.714.205,21.695.205s21.7-.092,21.7-.205-9.712-.206-21.7-.206-21.695.092-21.695.206" transform="translate(45.995 -714.397)" fill="#e1e1e1"/>
      <path id="Path_203402" data-name="Path 203402" d="M134.912,874.716c0,.114,9.9.205,22.1.205s22.1-.092,22.1-.205-9.894-.206-22.1-.206-22.1.092-22.1.206" transform="translate(44.504 -713.496)" fill="#e1e1e1"/>
      <path id="Path_203403" data-name="Path 203403" d="M125.654,883.784l-13.49-12.621" transform="translate(111.712 -712.172)" fill="#e1e1e1"/>
      <path id="Path_203404" data-name="Path 203404" d="M112.163,871.161c-.065.069,2.9,2.95,6.628,6.436s6.8,6.255,6.862,6.185-2.9-2.95-6.628-6.436-6.8-6.254-6.862-6.186" transform="translate(111.713 -712.171)" fill="#042c58"/>
      <path id="Path_203405" data-name="Path 203405" d="M406.727,785.009s.661-6.978,18.052-11.443c8.4-2.157,28.44-3.192,30.712,9.836.074.422,9.976,82.359,9.976,82.359H428.41Z" transform="translate(-406.086 -673.031)" fill="#084a93"/>
      <path id="Path_203406" data-name="Path 203406" d="M472.443,870.271h17.1l-5.709-80.277c-.418-3.906-4.461-6.723-9.03-6.291l-1.53.145c-4.569.432-7.463,4.834-7.332,9.847Z" transform="translate(-465.933 -677.541)" fill="#084a93"/>
      <path id="Path_203407" data-name="Path 203407" d="M473.786,875.971c.094-.008-1.113-15.821-2.7-35.315s-2.944-35.3-3.038-35.291,1.113,15.818,2.7,35.319,2.944,35.295,3.038,35.287" transform="translate(-451.463 -686.131)" fill="#042c58"/>
      <path id="Path_203408" data-name="Path 203408" d="M477.525,786.478a17.71,17.71,0,0,1,2.4-.565,9,9,0,0,1,9.538,5.472,17.912,17.912,0,0,1,.725,2.36,2.2,2.2,0,0,0-.034-.673,7.882,7.882,0,0,0-.467-1.778,8.882,8.882,0,0,0-9.8-5.62,7.9,7.9,0,0,0-1.771.494,2.165,2.165,0,0,0-.6.311" transform="translate(-473.602 -677.806)" fill="#042c58"/>
      <path id="Path_203409" data-name="Path 203409" d="M351.183,616.863c-.172-4.7,3.014-5.334,5.466-4.794a8.315,8.315,0,0,1,10.225.558,7.4,7.4,0,0,1,10.936,6.439,6.179,6.179,0,0,1,5.024,10.6,5.94,5.94,0,0,1-2.911,11.455l-28.837-19.2c-1.729-1.82.189-2.544.1-5.054" transform="translate(-293.283 -607.875)" fill="#042c58"/>
      <path id="Path_203410" data-name="Path 203410" d="M405.54,646.771a25.2,25.2,0,0,0-24.283-24.053l-1.3-.047c-14.092.321-21.692,12.469-20.981,26.547l.372,46.9.092,8.905,32.22,7.66.327-18.565s13.594-1.622,14.242-15.133c.312-6.525-.137-20.014-.686-32.218" transform="translate(-318.066 -612.663)" fill="#c17560"/>
      <path id="Path_203411" data-name="Path 203411" d="M400.008,737.086a32.81,32.81,0,0,1-17.527-5.814s3.82,9.876,17.351,9.138Z" transform="translate(-325.978 -656.12)" fill="#7c4236"/>
      <path id="Path_203412" data-name="Path 203412" d="M370.6,683.931a1.932,1.932,0,0,1-1.93,1.882A1.847,1.847,0,0,1,366.743,684a1.933,1.933,0,0,1,1.928-1.883,1.849,1.849,0,0,1,1.93,1.813" transform="translate(-287.061 -636.47)" fill="#042c58"/>
      <path id="Path_203413" data-name="Path 203413" d="M372.788,673.056c-.248.243-1.671-.891-3.749-.959-2.074-.1-3.636.916-3.852.654-.107-.117.153-.563.834-1.022a5.3,5.3,0,0,1,3.1-.835,5.1,5.1,0,0,1,2.973,1.078c.622.513.822.976.7,1.085" transform="translate(-288.328 -631.983)" fill="#042c58"/>
      <path id="Path_203414" data-name="Path 203414" d="M398.235,683.222A1.931,1.931,0,0,1,396.3,685.1a1.847,1.847,0,0,1-1.928-1.812,1.933,1.933,0,0,1,1.929-1.882,1.849,1.849,0,0,1,1.93,1.813" transform="translate(-331.392 -636.188)" fill="#042c58"/>
      <path id="Path_203415" data-name="Path 203415" d="M405.661,671.408c-.248.243-1.674-.891-3.75-.959-2.073-.1-3.636.916-3.853.654-.106-.117.151-.563.835-1.022a5.3,5.3,0,0,1,3.095-.835,5.089,5.089,0,0,1,2.974,1.078c.619.512.821.976.7,1.084" transform="translate(-341.062 -631.325)" fill="#042c58"/>
      <path id="Path_203416" data-name="Path 203416" d="M379.184,687.35a13.719,13.719,0,0,1,3.4-.489c.532-.035,1.038-.123,1.14-.482a2.7,2.7,0,0,0-.3-1.585q-.68-1.951-1.425-4.094c-1.974-5.828-3.382-10.612-3.147-10.69s2.027,4.583,4,10.411q.71,2.155,1.358,4.117a3.074,3.074,0,0,1,.2,2.091,1.332,1.332,0,0,1-.9.745,3.64,3.64,0,0,1-.906.093,13.58,13.58,0,0,1-3.419-.117" transform="translate(-308.291 -631.652)" fill="#042c58"/>
      <path id="Path_203417" data-name="Path 203417" d="M387.622,700.725c.338-.008.263,2.247,2.135,3.916s4.282,1.506,4.288,1.822c.027.143-.55.419-1.566.411a5.621,5.621,0,0,1-3.584-1.393,4.9,4.9,0,0,1-1.646-3.279c-.053-.946.219-1.5.373-1.477" transform="translate(-322.893 -643.908)" fill="#042c58"/>
      <path id="Path_203418" data-name="Path 203418" d="M406.089,661.591c-.266.531-2.038-.017-4.213-.059-2.173-.091-4,.346-4.205-.2-.088-.26.292-.738,1.072-1.17a6.5,6.5,0,0,1,3.255-.735,6.236,6.236,0,0,1,3.158.932c.727.478,1.052.978.934,1.231" transform="translate(-341.252 -627.208)" fill="#042c58"/>
      <path id="Path_203419" data-name="Path 203419" d="M372.677,663.718c-.343.489-1.8.065-3.517.123-1.723,0-3.161.465-3.52-.013-.158-.233.049-.716.665-1.192a5.1,5.1,0,0,1,5.671-.089c.63.456.852.933.7,1.17" transform="translate(-288.485 -628.12)" fill="#042c58"/>
      <path id="Path_203420" data-name="Path 203420" d="M410.683,639.483s-3.264-8.592-7.276-10.712c-4.856-2.568-7.177,2.781-11.839,1.3s-9.3-3.946-14.24-.477c-5.409,3.8-3.041,6.68-3.579,12.666-2.184,24.269-6.869,30.987-7.725,19.488-.093-1.259-3.54-2.381-3.868-7.7-.424-6.9-.392-15.255,1.315-20.079,1.44-4.066,3.885-6.823,8.2-9.806,6.813-4.708,15.932-4.49,22.1-3.647s17.85,8.391,16.91,18.97" transform="translate(-324.288 -611.62)" fill="#042c58"/>
      <path id="Path_203421" data-name="Path 203421" d="M443.652,686.095a3.671,3.671,0,0,0-3.836-3.677c-2.529.151-5.386,1.482-5.4,6.7-.034,9.251,9.262,7.377,9.279,7.111.012-.181-.018-6.261-.039-10.132" transform="translate(-401.041 -636.604)" fill="#c17560"/>
      <path id="Path_203422" data-name="Path 203422" d="M441.83,694.7c-.04-.03-.162.112-.434.236a1.611,1.611,0,0,1-1.2.02c-.976-.362-1.793-1.917-1.833-3.584a5.328,5.328,0,0,1,.46-2.306,1.861,1.861,0,0,1,1.217-1.232.82.82,0,0,1,.949.445c.123.259.064.443.112.46.026.024.2-.155.126-.537a1.025,1.025,0,0,0-.362-.581,1.219,1.219,0,0,0-.89-.239,2.264,2.264,0,0,0-1.689,1.429,5.47,5.47,0,0,0-.568,2.576c.053,1.865,1,3.612,2.336,4a1.728,1.728,0,0,0,1.475-.239c.288-.228.337-.434.305-.451" transform="translate(-401.18 -638.579)" fill="#7c4236"/>
      <path id="Path_203423" data-name="Path 203423" d="M380.3,641.5a8.785,8.785,0,0,0,3.85,1.946c1.441.195,3.125-.577,3.419-2,.132-.639,0-1.391.442-1.873.526-.575,1.45-.357,2.222-.247a5.9,5.9,0,0,0,6.273-4.012c.648,1.05,2.25,1.062,3.31.431a13.264,13.264,0,0,0,2.612-2.6,3.8,3.8,0,0,1,3.229-1.474,9.141,9.141,0,0,0,1.994.514c1.218-.065,1.86-1.465,2.087-2.663s.419-2.6,1.47-3.216c.974-.573,2.2-.178,3.308.026s2.563-.006,2.888-1.089a2.2,2.2,0,0,0-.354-1.691,5.989,5.989,0,0,0-6.984-2.517,8.117,8.117,0,0,0-14.849-2.1,8.238,8.238,0,0,0-13.267,2.534,5.971,5.971,0,0,0-7.036,8.44,5.671,5.671,0,0,0-3.278,4.4c-.1,1.911,1.693,3.884,3.556,3.446a3.307,3.307,0,0,0,5.6,3.5" transform="translate(-336.867 -609.605)" fill="#042c58"/>
      <path id="Path_203424" data-name="Path 203424" d="M420.381,652.612a2.216,2.216,0,0,0,.512,1.8,2.97,2.97,0,0,0,1.813,1.17,3.2,3.2,0,0,0,2.662-.672l-.389-.073a9.254,9.254,0,0,0,1.763,2.371,5.311,5.311,0,0,0,1.646,1.106,4.107,4.107,0,0,0,4.575-1.2,5.334,5.334,0,0,0,.816-1.9,1.827,1.827,0,0,0,.1-.744c-.04-.01-.127.241-.3.683a6.209,6.209,0,0,1-.916,1.727,3.771,3.771,0,0,1-5.558-.067,9.3,9.3,0,0,1-1.682-2.223l-.153-.278-.236.206a2.806,2.806,0,0,1-2.253.63,2.721,2.721,0,0,1-1.641-.941,4.5,4.5,0,0,1-.761-1.6" transform="translate(-382.739 -624.511)" fill="#084a93"/>
      <path id="Path_203425" data-name="Path 203425" d="M181.42,852.16s17.44-.523,18.485-.849a10.955,10.955,0,0,1,4.834,0c1.241.391,6.2,2.155,6.2,2.155l10.536,2.808s10.588,6.926,10.366,8.312-1.372,2.335-3.266,1.617-11.454-5.683-11.454-5.683l-10.492-1.111s-14.349,5.155-17.246,4.9-10.32-1.512-10.32-1.512-1.045-7.437-.522-8.613,2.874-2.025,2.874-2.025" transform="translate(-34.507 -704.009)" fill="#c17560"/>
      <path id="Path_203426" data-name="Path 203426" d="M232.182,873.45s-8.838-9.477-11.287-10.755-16.079-3.514-16.079-3.514-4.366-1.81-5.963-1.171-18.528,3.195-19.274,3.3,3.621,14.908,3.621,14.908a34.52,34.52,0,0,0,12.671-.532c6.815-1.6,9.158-3.727,9.158-3.727l6.8-1.787,4.163,1.588s.748,6.162,3.729,5.843l1.384-.959-1.065-6.815,4.366,1.81s3.408,5.111,5.963,4.366,1.81-2.556,1.81-2.556" transform="translate(-35.599 -706.912)" fill="#c17560"/>
      <path id="Path_203427" data-name="Path 203427" d="M232.318,873.353a2.082,2.082,0,0,1,.068.74,1.647,1.647,0,0,1-.329.832,2.433,2.433,0,0,1-1,.729,2.524,2.524,0,0,1-1.534.22,4.7,4.7,0,0,1-1.691-.859,15.415,15.415,0,0,1-3.208-3.523l-.016-.024-.025-.011-4.36-1.825-.179-.074.03.192c.315,2.051.668,4.352,1.047,6.817l.053-.123-1.387.955.06-.022a1.994,1.994,0,0,1-1.536-.563,4.546,4.546,0,0,1-1.016-1.479,13.392,13.392,0,0,1-1.021-3.688l-.012-.087-.079-.03-4.16-1.593-.045-.017-.047.012-6.806,1.779-.03.008-.036.028a17.713,17.713,0,0,1-4.706,2.4,39.546,39.546,0,0,1-5.361,1.491,34.037,34.037,0,0,1-5.72.645,32.444,32.444,0,0,1-5.9-.326l.133.119-.95-3.3c-.935-3.349-1.875-6.645-2.558-9.9a11.428,11.428,0,0,1-.186-1.214,1.5,1.5,0,0,1,0-.276c-.007-.043.04-.068-.027-.013a.077.077,0,0,1-.037.01l.017,0,.039-.006.077-.011.614-.092,2.433-.373,4.764-.75c3.128-.505,6.158-1,9.065-1.555.728-.152,1.439-.273,2.16-.495a3.99,3.99,0,0,1,2.045-.062,20.748,20.748,0,0,1,3.941,1.183l.017.006.015,0c4.764.8,9.123,1.585,12.924,2.5a23.533,23.533,0,0,1,2.709.793,8.268,8.268,0,0,1,2.148,1.453c1.286,1.091,2.4,2.171,3.412,3.144,2.01,1.953,3.539,3.534,4.587,4.6l1.193,1.225c.271.277.418.412.418.412s-.126-.156-.385-.442l-1.162-1.255c-1.028-1.09-2.539-2.69-4.534-4.662-1-.983-2.11-2.072-3.4-3.179-.323-.276-.656-.553-1.014-.817a4.765,4.765,0,0,0-1.182-.684,23.379,23.379,0,0,0-2.734-.818c-3.811-.935-8.165-1.737-12.934-2.554l.032.009a21,21,0,0,0-4-1.213,4.281,4.281,0,0,0-2.2.07c-.665.2-1.4.331-2.117.477-2.9.547-5.931,1.036-9.058,1.536l-4.763.744-2.433.37-.613.091-.077.011-.038.006-.021,0a.318.318,0,0,0-.072.028.325.325,0,0,0-.146.262,1.742,1.742,0,0,0,0,.345,11.345,11.345,0,0,0,.19,1.256c.687,3.286,1.625,6.577,2.561,9.931l.951,3.3.03.1.1.016a32.6,32.6,0,0,0,5.976.329,34.258,34.258,0,0,0,5.775-.657,39.663,39.663,0,0,0,5.407-1.511,25.5,25.5,0,0,0,2.514-1.065,12.032,12.032,0,0,0,2.295-1.407l-.066.036,6.8-1.795-.092,0,4.165,1.581-.091-.117a13.6,13.6,0,0,0,1.057,3.77,4.8,4.8,0,0,0,1.085,1.561,2.259,2.259,0,0,0,1.743.624l.033,0,.028-.019,1.382-.961.065-.045-.012-.078c-.392-2.465-.757-4.764-1.083-6.812l-.149.117,4.372,1.8-.042-.034a15.426,15.426,0,0,0,3.278,3.536,4.792,4.792,0,0,0,1.752.862,2.622,2.622,0,0,0,1.6-.249,2.482,2.482,0,0,0,1.02-.775,1.669,1.669,0,0,0,.32-.872,1.405,1.405,0,0,0-.118-.744" transform="translate(-35.735 -706.815)" fill="#7c4236"/>
      <path id="Path_203428" data-name="Path 203428" d="M199.722,869.769a2.545,2.545,0,0,0,.671-.017c.43-.033,1.05-.092,1.815-.172l2.685-.3.775-.091a2.573,2.573,0,0,1,.772.016,15.718,15.718,0,0,1,1.656.344c2.217.644,4.435,1.071,5.289,2.387a4.954,4.954,0,0,1,.789,1.589,6.519,6.519,0,0,0,.175.642,1.588,1.588,0,0,0-.046-.674,4.531,4.531,0,0,0-.723-1.7,4.139,4.139,0,0,0-.9-.927,5.25,5.25,0,0,0-1.32-.669c-.963-.351-2.033-.685-3.177-.979a14.779,14.779,0,0,0-1.7-.345,2.869,2.869,0,0,0-.851-.008l-.775.1-2.679.372c-.761.111-1.377.206-1.8.28a2.526,2.526,0,0,0-.654.149" transform="translate(-29.906 -711.251)" fill="#7c4236"/>
      <path id="Path_203429" data-name="Path 203429" d="M208.41,872.145a5.456,5.456,0,0,0-.731-.737c-.491-.452-1.213-1.092-2.13-1.856s-2.025-1.654-3.3-2.582c-.642-.461-1.326-.932-2.067-1.379a10.866,10.866,0,0,0-1.178-.616,10.471,10.471,0,0,0-1.3-.418,69.915,69.915,0,0,0-9.188-1.58l-2.8-.348a5.954,5.954,0,0,0-1.033-.082,5.939,5.939,0,0,0,1.015.214l2.784.455a85.3,85.3,0,0,1,9.134,1.671,10.32,10.32,0,0,1,1.259.4,10.777,10.777,0,0,1,1.14.591c.729.434,1.411.9,2.054,1.347,1.28.908,2.4,1.778,3.334,2.514l2.2,1.769a6.686,6.686,0,0,0,.819.636" transform="translate(-14.858 -710.07)" fill="#7c4236"/>
      <path id="Path_203430" data-name="Path 203430" d="M271.5,770.9a101.736,101.736,0,0,1,8.334,14.056c3.158,6.575,13.378,28.957,13.378,28.957l41.633,2.186-.615,16.085S294.022,846.5,285.02,843.741,266.429,830.6,266.429,830.6l-4.305-67.848s3.572-.673,9.38,8.144" transform="translate(-188.093 -669.262)" fill="#b9ddfc"/>
      <path id="Path_203431" data-name="Path 203431" d="M400.711,755.066s10.675,24.213,12.235,34.47c3.1,20.362,4.137,33.107,4.137,33.107l3.63,31.511h-71.1s-2.354-58.4-.842-77.983c1.133-14.671,12.369-23.809,16.966-28.827a44.949,44.949,0,0,0,1.543-4.41l33.133,8.486Z" transform="translate(-326.005 -661.424)" fill="#b9ddfc"/>
      <path id="Path_203432" data-name="Path 203432" d="M349,769.1a1.259,1.259,0,0,0,.082.23l.271.66,1.064,2.53c.914,2.2,2.233,5.39,3.559,9.436a112.582,112.582,0,0,1,3.676,14.484c1.058,5.53,1.914,11.667,2.629,18.127,1.31,12.936,2.5,24.644,3.357,33.142l1.045,10.041c.129,1.169.23,2.085.3,2.728.037.3.065.532.087.708a1.38,1.38,0,0,0,.041.24,1.286,1.286,0,0,0-.006-.244l-.053-.712c-.056-.645-.136-1.563-.238-2.735-.223-2.393-.543-5.822-.937-10.051-.822-8.486-1.908-20.211-3.258-33.155-.715-6.467-1.582-12.61-2.659-18.149a109.514,109.514,0,0,0-3.756-14.5c-1.36-4.047-2.714-7.227-3.666-9.411-.471-1.1-.863-1.935-1.123-2.506-.128-.271-.227-.485-.3-.647A1.272,1.272,0,0,0,349,769.1" transform="translate(-270.857 -671.78)" fill="#042c58"/>
      <g id="Group_138100" data-name="Group 138100" transform="translate(41.037 118.79)" opacity="0.3">
        <g id="Group_138099" data-name="Group 138099">
          <g id="Group_138098" data-name="Group 138098" clip-path="url(#clip-path)">
            <path id="Path_203433" data-name="Path 203433" d="M350.563,821.279c.654-6.451,3.553-12.923,8.86-16.648l43.353,61.909c-7.654,4.127-16.151,8.389-24.655,6.57a24.466,24.466,0,0,1-11.939-6.993c-6.856-6.895-10.575-16.289-13.189-25.654-1.744-6.245-3.085-12.732-2.43-19.183" transform="translate(-350.394 -804.631)"/>
          </g>
        </g>
      </g>
      <path id="Path_203434" data-name="Path 203434" d="M259.249,796.323c5.4,19.114,17.558,42.436,21.291,47.122a28.983,28.983,0,0,0,22.682,11.129c4.891,0,46.232-8.051,58.483-10.458a5.247,5.247,0,0,0,4.123-4.072l.106-.507,5.516-1.485-2.937-14.8-.586-.82-59.125,1.86-17.2-47.9c-.325-.547-5.293-16.624-18.761-15.893" transform="translate(-222.958 -668.364)" fill="#b9ddfc"/>
      <path id="Path_203435" data-name="Path 203435" d="M272.511,760.486s.151.007.447.006a13.08,13.08,0,0,1,1.317.032,14.873,14.873,0,0,1,4.968,1.18,18.04,18.04,0,0,1,6.489,5,32.5,32.5,0,0,1,5.457,9.719l-.008-.016,17.15,47.923.037.1.108,0,59.126-1.839-.144-.071.585.82-.028-.066c.849,4.28,1.753,8.833,2.666,13.435.092.467.186.934.271,1.363l.123-.2-5.515,1.485-.108.029-.016.1a5.329,5.329,0,0,1-1.625,3.186,4.955,4.955,0,0,1-1.511.969,8.814,8.814,0,0,1-1.766.451l-7.236,1.413-14.136,2.72c-9.264,1.755-18.188,3.424-26.7,4.865-2.129.353-4.233.69-6.312.984-1.04.13-2.075.276-3.095.323a24.267,24.267,0,0,1-3.063-.154,29.038,29.038,0,0,1-11.174-3.584,29.7,29.7,0,0,1-8.338-7.113,39.243,39.243,0,0,1-2.869-4.327q-1.292-2.2-2.444-4.343a233.892,233.892,0,0,1-12.677-27.934c-1.252-3.393-2.141-6.054-2.708-7.868l-.637-2.066c-.146-.465-.228-.7-.228-.7s.06.242.2.71l.605,2.076c.546,1.821,1.416,4.491,2.65,7.893a228.954,228.954,0,0,0,12.591,28q1.151,2.149,2.438,4.357a39.407,39.407,0,0,0,2.881,4.364,29.946,29.946,0,0,0,8.4,7.192,29.3,29.3,0,0,0,11.28,3.637,24.524,24.524,0,0,0,3.1.159c1.053-.047,2.086-.193,3.132-.322,2.085-.292,4.19-.628,6.322-.979,8.519-1.433,17.446-3.095,26.712-4.846l14.138-2.713,7.237-1.411a9.141,9.141,0,0,0,1.83-.47,5.307,5.307,0,0,0,1.613-1.034,5.68,5.68,0,0,0,1.728-3.366l-.123.129,5.515-1.484.155-.042-.031-.157-.27-1.364-2.667-13.435-.007-.036-.021-.03-.586-.82-.053-.074-.091,0-59.125,1.881.145.1-17.25-47.887-.008-.016a32.429,32.429,0,0,0-5.508-9.718,18.056,18.056,0,0,0-6.561-5,14.644,14.644,0,0,0-5.006-1.138,11.484,11.484,0,0,0-1.321-.007c-.3.009-.446.021-.446.021" transform="translate(-222.628 -668.355)" fill="#042c58"/>
      <path id="Path_203436" data-name="Path 203436" d="M330.082,855.018a16.739,16.739,0,0,1,6.822-7.324,4.645,4.645,0,0,0-1.376.623,12.656,12.656,0,0,0-4.923,5.285,4.628,4.628,0,0,0-.524,1.416" transform="translate(-231.211 -702.628)" fill="#042c58"/>
      <path id="Path_203437" data-name="Path 203437" d="M363.192,877.768c.059.008.173-.758.517-1.95a18.006,18.006,0,0,1,4.983-8.162c.9-.85,1.533-1.3,1.5-1.351a1.692,1.692,0,0,0-.477.269,11.126,11.126,0,0,0-1.184.9,15.934,15.934,0,0,0-5.054,8.28,11.032,11.032,0,0,0-.262,1.466,1.677,1.677,0,0,0-.021.547" transform="translate(-284.498 -710.248)" fill="#042c58"/>
      <g id="Group_138103" data-name="Group 138103" transform="translate(85.304 115.69)" opacity="0.3">
        <g id="Group_138102" data-name="Group 138102">
          <g id="Group_138101" data-name="Group 138101" clip-path="url(#clip-path-2)">
            <path id="Path_203438" data-name="Path 203438" d="M357.822,839.182l-3.442.128c-.555-13.5-3.338-26.971-5.72-40.275,6.069,12.394,7.66,26.43,9.161,40.148" transform="translate(-348.661 -799.035)"/>
          </g>
        </g>
      </g>
      <path id="Path_203439" data-name="Path 203439" d="M383.049,750.23a1.329,1.329,0,0,0,.324.113l.946.26,3.486.927c2.943.782,7,1.9,11.508,3.041s8.634,2.017,11.644,2.512c1.5.248,2.726.424,3.575.511l.977.1a1.331,1.331,0,0,0,.343.012,1.3,1.3,0,0,0-.335-.08l-.967-.162c-.841-.128-2.055-.339-3.55-.618-2.992-.554-7.1-1.467-11.6-2.606s-8.57-2.221-11.531-2.943c-1.479-.366-2.681-.644-3.514-.822l-.962-.2a1.317,1.317,0,0,0-.34-.046" transform="translate(-342.164 -663.688)" fill="#042c58"/>
      <rect id="Rectangle_296784" data-name="Rectangle 296784" width="118.569" height="75.423" transform="translate(126.025 10.457)" fill="#fff"/>
      <rect id="Rectangle_296785" data-name="Rectangle 296785" width="21.355" height="75.423" transform="translate(126.025 10.457)" fill="#ececec"/>
      <path id="Path_203512" data-name="Path 203512" d="M117.227,663.206h-9.309a.957.957,0,1,1,0-1.914h9.309a.957.957,0,0,1,0,1.914" transform="translate(23.117 -627.947)" fill="#e1e1e1"/>
      <path id="Path_203513" data-name="Path 203513" d="M117.227,655.14h-9.309a.957.957,0,1,1,0-1.914h9.309a.957.957,0,0,1,0,1.914" transform="translate(23.117 -624.755)" fill="#e1e1e1"/>
      <path id="Path_203514" data-name="Path 203514" d="M117.227,647.762h-9.309a.957.957,0,1,1,0-1.914h9.309a.957.957,0,0,1,0,1.914" transform="translate(23.117 -621.835)" fill="#e1e1e1"/>
      <path id="Path_203515" data-name="Path 203515" d="M117.227,640.762h-9.309a.957.957,0,1,1,0-1.914h9.309a.957.957,0,0,1,0,1.914" transform="translate(23.117 -619.064)" fill="#e1e1e1"/>
      <path id="Path_203516" data-name="Path 203516" d="M158.943,638.6h-8.818a.957.957,0,0,1,0-1.914h8.818a.957.957,0,0,1,0,1.914" transform="translate(6.413 -618.209)" fill="#042c58"/>
      <path id="Path_203517" data-name="Path 203517" d="M158.943,646.888h-8.818a.956.956,0,0,1,0-1.913h8.818a.956.956,0,1,1,0,1.913" transform="translate(6.413 -621.489)" fill="#e1e1e1"/>
      <path id="Path_203518" data-name="Path 203518" d="M158.943,655.453h-8.818a.957.957,0,0,1,0-1.913h8.818a.957.957,0,0,1,0,1.913" transform="translate(6.413 -624.879)" fill="#ffb30b"/>
      <path id="Path_203519" data-name="Path 203519" d="M155.182,668.012h-5.056a.957.957,0,0,1,0-1.914h5.056a.957.957,0,0,1,0,1.914" transform="translate(6.413 -629.266)" fill="#e1e1e1"/>
      <path id="Path_203520" data-name="Path 203520" d="M155.182,719.595h-5.056a.956.956,0,1,1,0-1.913h5.056a.956.956,0,1,1,0,1.913" transform="translate(6.413 -650.673)" fill="#042c58"/>
      <path id="Path_203521" data-name="Path 203521" d="M177.29,719.595h-9.271a.956.956,0,1,1,0-1.913h9.271a.956.956,0,1,1,0,1.913" transform="translate(-0.669 -650.673)" fill="#e1e1e1"/>
      <path id="Path_203522" data-name="Path 203522" d="M159.4,727.227h-9.271a.957.957,0,0,1,0-1.914H159.4a.957.957,0,0,1,0,1.914" transform="translate(6.413 -653.722)" fill="#ffb30b"/>
      <path id="Path_203523" data-name="Path 203523" d="M174.509,727.227h-2.065a.957.957,0,1,1,0-1.914h2.065a.957.957,0,0,1,0,1.914" transform="translate(-2.42 -653.722)" fill="#042c58"/>
      <path id="Path_203524" data-name="Path 203524" d="M196.213,727.227H183.059a.957.957,0,1,1,0-1.914h13.154a.957.957,0,0,1,0,1.914" transform="translate(-6.621 -653.722)" fill="#e1e1e1"/>
      <path id="Path_203525" data-name="Path 203525" d="M182.322,638.6H173.5a.957.957,0,0,1,0-1.914h8.818a.957.957,0,0,1,0,1.914" transform="translate(-2.84 -618.209)" fill="#084a93"/>
      <path id="Path_203526" data-name="Path 203526" d="M193.683,646.888H173.5a.956.956,0,1,1,0-1.913h20.179a.956.956,0,0,1,0,1.913" transform="translate(-2.839 -621.489)" fill="#042c58"/>
      <path id="Path_203527" data-name="Path 203527" d="M215.408,655.453H173.5a.957.957,0,0,1,0-1.913h41.9a.957.957,0,0,1,0,1.913" transform="translate(-2.84 -624.879)" fill="#e1e1e1"/>
      <path id="Path_203528" data-name="Path 203528" d="M186.573,668.012H166.815a.957.957,0,0,1,0-1.914h19.759a.957.957,0,0,1,0,1.914" transform="translate(-0.192 -629.266)" fill="#e1e1e1"/>
      <path id="Path_203529" data-name="Path 203529" d="M213.483,668.012h-6.623a.957.957,0,0,1,0-1.914h6.623a.957.957,0,0,1,0,1.914" transform="translate(-16.04 -629.266)" fill="#e1e1e1"/>
      <path id="Path_203530" data-name="Path 203530" d="M237.65,667.96h-12.51a.957.957,0,0,1,0-1.913h12.51a.957.957,0,0,1,0,1.913" transform="translate(-23.275 -629.246)" fill="#e1e1e1"/>
      <path id="Path_203531" data-name="Path 203531" d="M265.826,667.96h-12.51a.957.957,0,0,1,0-1.913h12.51a.957.957,0,0,1,0,1.913" transform="translate(-34.426 -629.246)" fill="#e1e1e1"/>
      <path id="Path_203532" data-name="Path 203532" d="M155.182,677.012h-5.056a.957.957,0,0,1,0-1.914h5.056a.957.957,0,0,1,0,1.914" transform="translate(6.413 -633.664)" fill="#e1e1e1"/>
      <path id="Path_203533" data-name="Path 203533" d="M186.573,677.012H166.815a.957.957,0,0,1,0-1.914h19.759a.957.957,0,0,1,0,1.914" transform="translate(-0.192 -633.664)" fill="#e1e1e1"/>
      <path id="Path_203534" data-name="Path 203534" d="M213.483,677.012h-6.623a.957.957,0,0,1,0-1.914h6.623a.957.957,0,0,1,0,1.914" transform="translate(-16.04 -633.664)" fill="#e1e1e1"/>
      <path id="Path_203535" data-name="Path 203535" d="M237.65,676.96h-12.51a.956.956,0,1,1,0-1.913h12.51a.956.956,0,1,1,0,1.913" transform="translate(-23.275 -633.644)" fill="#e1e1e1"/>
      <path id="Path_203536" data-name="Path 203536" d="M265.826,676.96h-12.51a.956.956,0,1,1,0-1.913h12.51a.956.956,0,1,1,0,1.913" transform="translate(-34.426 -633.644)" fill="#e1e1e1"/>
      <path id="Path_203537" data-name="Path 203537" d="M155.182,685.012h-5.056a.957.957,0,0,1,0-1.914h5.056a.957.957,0,0,1,0,1.914" transform="translate(6.413 -636.859)" fill="#e1e1e1"/>
      <path id="Path_203538" data-name="Path 203538" d="M186.573,685.012H166.815a.957.957,0,0,1,0-1.914h19.759a.957.957,0,0,1,0,1.914" transform="translate(-0.192 -636.859)" fill="#e1e1e1"/>
      <path id="Path_203539" data-name="Path 203539" d="M213.483,685.012h-6.623a.957.957,0,0,1,0-1.914h6.623a.957.957,0,0,1,0,1.914" transform="translate(-16.04 -636.859)" fill="#e1e1e1"/>
      <path id="Path_203540" data-name="Path 203540" d="M237.65,684.96h-12.51a.957.957,0,0,1,0-1.913h12.51a.957.957,0,0,1,0,1.913" transform="translate(-23.275 -636.839)" fill="#e1e1e1"/>
      <path id="Path_203541" data-name="Path 203541" d="M265.826,684.96h-12.51a.957.957,0,0,1,0-1.913h12.51a.957.957,0,0,1,0,1.913" transform="translate(-34.426 -636.839)" fill="#e1e1e1"/>
      <path id="Path_203542" data-name="Path 203542" d="M155.182,693.011h-5.056a.957.957,0,0,1,0-1.914h5.056a.957.957,0,0,1,0,1.914" transform="translate(6.413 -640.055)" fill="#e1e1e1"/>
      <path id="Path_203543" data-name="Path 203543" d="M186.573,693.011H166.815a.957.957,0,0,1,0-1.914h19.759a.957.957,0,0,1,0,1.914" transform="translate(-0.192 -640.055)" fill="#e1e1e1"/>
      <path id="Path_203544" data-name="Path 203544" d="M213.483,693.011h-6.623a.957.957,0,0,1,0-1.914h6.623a.957.957,0,0,1,0,1.914" transform="translate(-16.04 -640.055)" fill="#e1e1e1"/>
      <path id="Path_203545" data-name="Path 203545" d="M237.65,692.96h-12.51a.957.957,0,0,1,0-1.913h12.51a.957.957,0,0,1,0,1.913" transform="translate(-23.275 -640.034)" fill="#e1e1e1"/>
      <path id="Path_203546" data-name="Path 203546" d="M265.826,692.96h-12.51a.957.957,0,0,1,0-1.913h12.51a.957.957,0,1,1,0,1.913" transform="translate(-34.426 -640.034)" fill="#e1e1e1"/>
      <path id="Path_203547" data-name="Path 203547" d="M155.182,702.012h-5.056a.957.957,0,0,1,0-1.914h5.056a.957.957,0,0,1,0,1.914" transform="translate(6.413 -643.65)" fill="#e1e1e1"/>
      <path id="Path_203548" data-name="Path 203548" d="M186.573,702.012H166.815a.957.957,0,0,1,0-1.914h19.759a.957.957,0,0,1,0,1.914" transform="translate(-0.192 -643.65)" fill="#e1e1e1"/>
      <path id="Path_203549" data-name="Path 203549" d="M213.483,702.012h-6.623a.957.957,0,0,1,0-1.914h6.623a.957.957,0,0,1,0,1.914" transform="translate(-16.04 -643.65)" fill="#e1e1e1"/>
      <path id="Path_203550" data-name="Path 203550" d="M237.65,701.96h-12.51a.956.956,0,0,1,0-1.913h12.51a.956.956,0,0,1,0,1.913" transform="translate(-23.275 -643.63)" fill="#e1e1e1"/>
      <path id="Path_203551" data-name="Path 203551" d="M265.826,701.96h-12.51a.956.956,0,1,1,0-1.913h12.51a.956.956,0,1,1,0,1.913" transform="translate(-34.426 -643.63)" fill="#e1e1e1"/>
      <path id="Path_203552" data-name="Path 203552" d="M155.182,710.012h-5.056a.957.957,0,0,1,0-1.914h5.056a.957.957,0,0,1,0,1.914" transform="translate(6.413 -646.845)" fill="#e1e1e1"/>
      <path id="Path_203553" data-name="Path 203553" d="M186.573,710.012H166.815a.957.957,0,0,1,0-1.914h19.759a.957.957,0,0,1,0,1.914" transform="translate(-0.192 -646.845)" fill="#e1e1e1"/>
      <path id="Path_203554" data-name="Path 203554" d="M213.483,710.012h-6.623a.957.957,0,0,1,0-1.914h6.623a.957.957,0,0,1,0,1.914" transform="translate(-16.04 -646.845)" fill="#e1e1e1"/>
      <path id="Path_203555" data-name="Path 203555" d="M237.65,709.96h-12.51a.957.957,0,0,1,0-1.913h12.51a.957.957,0,0,1,0,1.913" transform="translate(-23.275 -646.825)" fill="#e1e1e1"/>
      <path id="Path_203556" data-name="Path 203556" d="M265.826,709.96h-12.51a.957.957,0,0,1,0-1.913h12.51a.957.957,0,1,1,0,1.913" transform="translate(-34.426 -646.825)" fill="#e1e1e1"/>
      <path id="Path_203557" data-name="Path 203557" d="M113.2,671.744h-5.277a.957.957,0,0,1,0-1.913H113.2a.957.957,0,0,1,0,1.913" transform="translate(23.117 -631.56)" fill="#e1e1e1"/>
      <path id="Path_203558" data-name="Path 203558" d="M111.616,697.359h-3.7a.957.957,0,0,1,0-1.914h3.7a.957.957,0,0,1,0,1.914" transform="translate(23.117 -641.792)" fill="#e1e1e1"/>
      <path id="Path_203559" data-name="Path 203559" d="M118.184,680.283H107.918a.957.957,0,0,1,0-1.914h10.266a.957.957,0,0,1,0,1.914" transform="translate(23.117 -634.971)" fill="#e1e1e1"/>
      <path id="Path_203560" data-name="Path 203560" d="M116.382,688.82h-8.465a.957.957,0,0,1,0-1.914h8.465a.957.957,0,0,1,0,1.914" transform="translate(23.117 -638.381)" fill="#e1e1e1"/>
      <path id="Path_203561" data-name="Path 203561" d="M216.506,606.393H103.519a3.265,3.265,0,0,0-3.265,3.265v7.019H218.823V608.71a2.317,2.317,0,0,0-2.317-2.317" transform="translate(25.771 -606.22)" fill="#e1e1e1"/>
      <path id="Path_203562" data-name="Path 203562" d="M110.882,614.492a1.412,1.412,0,1,1-1.413-1.413,1.413,1.413,0,0,1,1.413,1.413" transform="translate(22.683 -608.866)" fill="#fff"/>
      <path id="Path_203563" data-name="Path 203563" d="M118.075,614.492a1.412,1.412,0,1,1-1.413-1.413,1.413,1.413,0,0,1,1.413,1.413" transform="translate(19.836 -608.866)" fill="#fff"/>
      <path id="Path_203564" data-name="Path 203564" d="M125.268,614.492a1.412,1.412,0,1,1-1.413-1.413,1.413,1.413,0,0,1,1.413,1.413" transform="translate(16.99 -608.866)" fill="#fff"/>
      <path id="Path_203565" data-name="Path 203565" d="M141.991,746.288l10.022,10.835,9.1-10.835Z" transform="translate(9.253 -662.125)" fill="#fff"/>
      <path id="Path_203566" data-name="Path 203566" d="M215.495,691.986a3.766,3.766,0,0,0,1.037-.193,3.207,3.207,0,0,0,2.026-2.175,3.5,3.5,0,0,0,.114-1.069q0-.576,0-1.21,0-1.27-.008-2.774c0-2.005-.01-4.319-.016-6.922-.013-10.421-.032-25.492-.055-44.113q0-6.984-.011-14.617,0-3.812,0-7.775c-.009-.654.018-1.34-.02-1.975a3.09,3.09,0,0,0-2.425-2.677,13.834,13.834,0,0,0-2.011-.065l-34.962.016-38.634.01-20.435,0h-15.73c-.434.006-.9-.016-1.308.016a3.007,3.007,0,0,0-1.188.379,3.063,3.063,0,0,0-1.466,1.958,9.264,9.264,0,0,0-.082,1.811v5.546q0,3.685,0,7.337,0,7.3,0,14.455c0,9.533,0,18.851,0,27.9q0,6.788,0,13.369,0,3.289,0,6.523c0,1.074-.01,2.16.008,3.209a3.049,3.049,0,0,0,2.971,2.869l1.572,0h3.129l6.164,0,11.936.006h.063l.043.045,9.178,9.663-.205.006,8.116-9.652.039-.046h.06l52.707.057,14.387.035,3.748.018c.845.007,1.278.019,1.278.019s-.433.013-1.278.019l-3.748.018-14.387.035-52.707.057.1-.047-8.1,9.663-.1.118-.106-.112-9.189-9.653.105.045-11.936.006-6.164,0h-3.129l-1.579,0a3.365,3.365,0,0,1-3.278-3.162c-.021-1.086-.007-2.146-.011-3.228q0-3.233,0-6.523,0-6.578,0-13.369c0-9.052,0-18.369,0-27.9q0-7.15,0-14.455V609.686a3.9,3.9,0,0,1,.091-.961,3.4,3.4,0,0,1,1.631-2.178,3.354,3.354,0,0,1,1.322-.422c.476-.034.893-.01,1.342-.017h15.73l20.435,0,38.634.01,34.962.016a13.723,13.723,0,0,1,2.069.073,3.37,3.37,0,0,1,2.642,2.923c.039.695.01,1.338.019,2q0,3.962-.005,7.775-.005,7.624-.011,14.617c-.023,18.621-.042,33.692-.054,44.113-.006,2.6-.011,4.916-.016,6.922q0,1.5-.008,2.774,0,.635,0,1.21a3.561,3.561,0,0,1-.124,1.087,3.209,3.209,0,0,1-.952,1.531,3.174,3.174,0,0,1-1.91.815c-.178.006-.268,0-.268,0" transform="translate(25.884 -606.107)" fill="#042c58"/>
    </g>
  </g>
</svg>
