<svg id="_16" data-name="16" xmlns="http://www.w3.org/2000/svg" xmlns:xlink="http://www.w3.org/1999/xlink" width="100" height="100" viewBox="0 0 100 100">
  <defs>
    <clipPath id="clip-path">
      <rect id="Rectangle_297344" data-name="Rectangle 297344" width="100" height="100" fill="none"/>
    </clipPath>
  </defs>
  <g id="Group_147722" data-name="Group 147722" clip-path="url(#clip-path)">
    <path id="Path_206045" data-name="Path 206045" d="M125.927,137.117a.8.8,0,0,1-.573,0,59.75,59.75,0,0,1-24.105-16.869A31.122,31.122,0,0,1,94,99.927V72.741a.761.761,0,0,1,.57-.759,56.9,56.9,0,0,0,16.742-7,27.765,27.765,0,0,1,28.658,0,56.9,56.9,0,0,0,16.742,7,.762.762,0,0,1,.57.759V99.927a31.122,31.122,0,0,1-7.249,20.322,59.759,59.759,0,0,1-24.1,16.869" transform="translate(-75.641 -49.085)" fill="#00defc"/>
    <path id="Path_206046" data-name="Path 206046" d="M280.051,110.963a46.618,46.618,0,0,1-5.289-1.522v28.506a34.073,34.073,0,0,1-7.249,21.486,59.59,59.59,0,0,1-20.236,16.1q.7.291,1.417.569a.8.8,0,0,0,.573,0,59.759,59.759,0,0,0,24.1-16.868,31.122,31.122,0,0,0,7.249-20.322V111.722a.761.761,0,0,0-.57-.759" transform="translate(-198.981 -88.066)" fill="#1cb1c9"/>
    <path id="Path_206047" data-name="Path 206047" d="M150.016,154.951a.6.6,0,0,1-.469,0,53.622,53.622,0,0,1-19.71-14.377A25.264,25.264,0,0,1,124,124.068V101.344a.78.78,0,0,1,.544-.743,66.571,66.571,0,0,0,13.933-6.459,21.906,21.906,0,0,1,22.608,0,66.59,66.59,0,0,0,13.933,6.459.78.78,0,0,1,.544.743v22.724a25.266,25.266,0,0,1-5.837,16.507,53.627,53.627,0,0,1-19.709,14.376" transform="translate(-99.781 -73.227)" fill="#ffb30b"/>
    <path id="Path_206048" data-name="Path 206048" d="M274.648,131.91q-2.639-.848-5.315-2v23.726a29.8,29.8,0,0,1-5.837,18.25,54.323,54.323,0,0,1-15.684,13.766q.677.312,1.365.61a.6.6,0,0,0,.469,0,53.625,53.625,0,0,0,19.709-14.376,25.267,25.267,0,0,0,5.837-16.507V132.653a.78.78,0,0,0-.544-.743" transform="translate(-199.411 -104.535)" fill="#cc8f20"/>
    <path id="Path_206049" data-name="Path 206049" d="M223.578,248.625H207.953A1.953,1.953,0,0,1,206,246.672V234.953A1.953,1.953,0,0,1,207.953,233h15.625a1.953,1.953,0,0,1,1.953,1.953v11.719a1.953,1.953,0,0,1-1.953,1.953" transform="translate(-165.766 -187.492)" fill="#b9ddfc"/>
    <path id="Path_206050" data-name="Path 206050" d="M271.859,233H266a1.953,1.953,0,0,1,1.953,1.953v11.719A1.953,1.953,0,0,1,266,248.625h5.859a1.953,1.953,0,0,0,1.953-1.953V234.953A1.953,1.953,0,0,0,271.859,233" transform="translate(-214.047 -187.492)" fill="#94b0c9"/>
    <path id="Path_206051" data-name="Path 206051" d="M164.93,474.5a2.93,2.93,0,1,1-2.93,2.93,2.93,2.93,0,0,1,2.93-2.93" transform="translate(-130.359 -381.825)" fill="#ffb30b"/>
    <path id="Path_206052" data-name="Path 206052" d="M354.93,7.5A2.93,2.93,0,1,1,352,10.43a2.93,2.93,0,0,1,2.93-2.93" transform="translate(-283.25 -6.035)" fill="#ffb30b"/>
    <path id="Path_206053" data-name="Path 206053" d="M10.43,159a2.93,2.93,0,1,1-2.93,2.93A2.93,2.93,0,0,1,10.43,159" transform="translate(-6.035 -127.945)" fill="#ffb30b"/>
    <path id="Path_206054" data-name="Path 206054" d="M33.68,217a2.93,2.93,0,1,1-2.93,2.93A2.93,2.93,0,0,1,33.68,217" transform="translate(-24.744 -174.617)" fill="#ffb30b"/>
    <path id="Path_206055" data-name="Path 206055" d="M477.43,225a2.93,2.93,0,1,1-2.93,2.93,2.93,2.93,0,0,1,2.93-2.93" transform="translate(-381.825 -181.055)" fill="#ffb30b"/>
    <path id="Path_206056" data-name="Path 206056" d="M454.18,283a2.93,2.93,0,1,1-2.93,2.93,2.93,2.93,0,0,1,2.93-2.93" transform="translate(-363.116 -227.727)" fill="#ffb30b"/>
    <path id="Path_206057" data-name="Path 206057" d="M243.93,250.5a2.93,2.93,0,1,1-2.93,2.93,2.93,2.93,0,0,1,2.93-2.93" transform="translate(-193.93 -201.574)" fill="#685c79"/>
    <path id="Path_206058" data-name="Path 206058" d="M203.564,216.494a4.4,4.4,0,0,0-4.143,2.93h-8.357v-1.709a1.465,1.465,0,1,0-2.93,0v7.141a29.659,29.659,0,0,1-6.9,19.368,58.293,58.293,0,0,1-23.28,16.362,58.618,58.618,0,0,1-21.271-14.141,1.465,1.465,0,0,0-2.121,2.021,59.726,59.726,0,0,0,6.5,5.883v11.127a4.395,4.395,0,1,0,2.93,0V256.5a63.714,63.714,0,0,0,13.149,6.916,2.251,2.251,0,0,0,1.632,0,61.233,61.233,0,0,0,24.687-17.281,31.4,31.4,0,0,0,6.467-12.45h4.952a4.395,4.395,0,1,0,0-2.93h-4.315a34.916,34.916,0,0,0,.5-5.9v-2.5h8.357a4.394,4.394,0,1,0,4.143-5.859m-61.035,54.59a1.465,1.465,0,1,1,1.465-1.465,1.466,1.466,0,0,1-1.465,1.465m56.494-40.332a1.465,1.465,0,1,1-1.465,1.465,1.466,1.466,0,0,1,1.465-1.465m4.541-8.4a1.465,1.465,0,1,1,1.465-1.465,1.466,1.466,0,0,1-1.465,1.465" transform="translate(-107.959 -174.014)"/>
    <path id="Path_206059" data-name="Path 206059" d="M19.824,50.842V24.194a58.6,58.6,0,0,0,16.6-7.043,26.227,26.227,0,0,1,27.145,0,67.965,67.965,0,0,0,7.486,3.922c.028.013.055.025.084.037a51.953,51.953,0,0,0,9.033,3.085v13.24a1.465,1.465,0,0,0,2.93,0V23.656a2.238,2.238,0,0,0-1.717-2.189,47.8,47.8,0,0,1-8.244-2.683V8.537a4.394,4.394,0,1,0-2.929,0v8.91q-2.547-1.248-5.129-2.8a29.15,29.15,0,0,0-30.171,0,55.143,55.143,0,0,1-16.3,6.824,2.238,2.238,0,0,0-1.717,2.189v8.863H8.537a4.395,4.395,0,1,0,0,2.93h8.357v8.4H13.078a4.395,4.395,0,1,0,0,2.93h3.816v4.065a32.791,32.791,0,0,0,5.863,19.042A1.465,1.465,0,1,0,25.151,68.2a29.879,29.879,0,0,1-5.327-17.353M71.679,2.93a1.465,1.465,0,1,1-1.465,1.465A1.466,1.466,0,0,1,71.679,2.93M4.395,35.449a1.465,1.465,0,1,1,1.465-1.465,1.466,1.466,0,0,1-1.465,1.465M8.936,46.777A1.465,1.465,0,1,1,10.4,45.312a1.466,1.466,0,0,1-1.465,1.465"/>
    <path id="Path_206060" data-name="Path 206060" d="M127.63,92.416a1.465,1.465,0,0,0-1.3-2.626,60.5,60.5,0,0,1-8.271,3.381,2.24,2.24,0,0,0-1.561,2.138v22.724a26.728,26.728,0,0,0,6.189,17.46,55.119,55.119,0,0,0,20.243,14.769,2.068,2.068,0,0,0,1.628,0A55.117,55.117,0,0,0,164.8,135.494a26.73,26.73,0,0,0,6.19-17.461V95.309a2.24,2.24,0,0,0-1.561-2.138,65.265,65.265,0,0,1-13.625-6.319,23.371,23.371,0,0,0-24.121,0l-.311.187a1.465,1.465,0,0,0,1.5,2.516l.324-.195a20.441,20.441,0,0,1,21.1,0,68.629,68.629,0,0,0,13.768,6.445v22.226a23.8,23.8,0,0,1-5.484,15.553,52.158,52.158,0,0,1-18.832,13.834,52.155,52.155,0,0,1-18.833-13.836,23.8,23.8,0,0,1-5.483-15.552V95.807a63.864,63.864,0,0,0,8.2-3.39" transform="translate(-93.745 -67.191)"/>
    <path id="Path_206061" data-name="Path 206061" d="M209.73,175.5a7.332,7.332,0,0,0-7.324,7.324v2.441h-.488a3.422,3.422,0,0,0-3.418,3.418V200.4a3.422,3.422,0,0,0,3.418,3.418h15.625a3.422,3.422,0,0,0,3.418-3.418V188.684a3.422,3.422,0,0,0-3.418-3.418h-.488v-2.441a7.332,7.332,0,0,0-7.324-7.324m-4.395,7.324a4.395,4.395,0,1,1,8.789,0v2.441h-8.789Zm12.7,5.859V200.4a.489.489,0,0,1-.488.488H201.918a.489.489,0,0,1-.488-.488V188.684a.489.489,0,0,1,.488-.488h15.625a.489.489,0,0,1,.488.488" transform="translate(-159.731 -141.223)"/>
    <path id="Path_206062" data-name="Path 206062" d="M237.895,243a4.394,4.394,0,0,0-1.465,8.537v1.717a1.465,1.465,0,0,0,2.93,0v-1.717A4.394,4.394,0,0,0,237.895,243m0,5.859a1.465,1.465,0,1,1,1.465-1.465,1.466,1.466,0,0,1-1.465,1.465" transform="translate(-187.895 -195.539)"/>
  </g>
</svg>
