<svg id="_17" data-name="17" xmlns="http://www.w3.org/2000/svg" xmlns:xlink="http://www.w3.org/1999/xlink" width="100" height="100" viewBox="0 0 100 100">
  <defs>
    <clipPath id="clip-path">
      <rect id="Rectangle_297357" data-name="Rectangle 297357" width="100" height="100" fill="none"/>
    </clipPath>
  </defs>
  <g id="Group_147725" data-name="Group 147725" clip-path="url(#clip-path)">
    <path id="Path_206063" data-name="Path 206063" d="M72.581,1.613a25.807,25.807,0,0,1,0,51.613H69.355a9.678,9.678,0,1,0,0-19.355c-.276,0-.546.014-.816.036a14.517,14.517,0,0,0-20.305-8.123,19.33,19.33,0,0,0-1.179-2.177A25.813,25.813,0,0,1,72.581,1.613" fill="#00defc"/>
    <path id="Path_206064" data-name="Path 206064" d="M47.054,23.607a19.171,19.171,0,0,1,1.179,2.177,14.517,14.517,0,0,1,20.305,8.123c.27-.022.54-.036.816-.036a9.678,9.678,0,1,1,0,19.355H62.9V37.1a3.226,3.226,0,0,0-3.226-3.226H20.967A3.225,3.225,0,0,0,17.742,37.1V53.226H11.29a9.678,9.678,0,1,1,0-19.355A19.355,19.355,0,0,1,47.054,23.607" fill="#e6e9ed"/>
    <path id="Path_206065" data-name="Path 206065" d="M62.9,79.032V95.161a3.226,3.226,0,0,1-3.226,3.226H20.968a3.225,3.225,0,0,1-3.226-3.226V37.1a3.224,3.224,0,0,1,3.226-3.226H59.677A3.225,3.225,0,0,1,62.9,37.1V79.032Z" fill="#b9ddfc"/>
    <rect id="Rectangle_297347" data-name="Rectangle 297347" width="32.258" height="12.903" transform="translate(24.194 79.032)" fill="#ffeaa7"/>
    <rect id="Rectangle_297348" data-name="Rectangle 297348" width="32.258" height="12.903" transform="translate(24.194 53.226)" fill="#ffeaa7"/>
    <rect id="Rectangle_297349" data-name="Rectangle 297349" width="32.258" height="12.903" transform="translate(24.194 66.129)" fill="#ffb30b"/>
    <rect id="Rectangle_297350" data-name="Rectangle 297350" width="32.258" height="12.903" transform="translate(24.194 40.323)" fill="#ffb30b"/>
    <path id="Path_206066" data-name="Path 206066" d="M22.581,93.548H58.065V38.709H22.581Zm3.225-12.9H54.838v9.677H25.806Zm29.033-3.226H25.807V67.742H54.839ZM25.806,54.839H54.838v9.677H25.806Zm29.033-3.226H25.807V41.936H54.839Z"/>
    <path id="Path_206067" data-name="Path 206067" d="M66.129,54.838H72.58A27.416,27.416,0,1,0,46.223,19.847,20.961,20.961,0,0,0,9.731,32.365,11.291,11.291,0,0,0,11.29,54.838h4.839v9.678H11.958L8.732,61.29H0v3.226H7.4l3.226,3.226h5.507v3.225H6.451v3.226h9.678v3.226H10.622L7.4,80.645H0v3.226H8.732l3.226-3.226h4.171V95.161A4.844,4.844,0,0,0,20.967,100h38.71a4.845,4.845,0,0,0,4.839-4.839V80.645h4.171l3.225,3.226h8.733V80.645h-7.4l-3.226-3.226H64.516V74.193h9.677V70.967H64.516V67.742h5.506l3.226-3.226h7.4V61.29H71.912l-3.225,3.226H64.516V54.838ZM72.58,3.226c2.282,0,4.725,3.717,6.317,9.677H66.245a33.9,33.9,0,0,1,1.094-3.4c1.514-3.928,3.474-6.272,5.241-6.272m7.05,12.9a59.76,59.76,0,0,1,1,9.677H64.538a60.287,60.287,0,0,1,.976-9.677Zm17.089,9.677H83.851a64.932,64.932,0,0,0-.944-9.677H93.972a24.007,24.007,0,0,1,2.747,9.677m0,3.226a24.007,24.007,0,0,1-2.747,9.677H82.922a64.515,64.515,0,0,0,.929-9.677Zm-16.094,0a60.662,60.662,0,0,1-.982,9.677h-.089a11.306,11.306,0,0,0-9.931-6.448,16.05,16.05,0,0,0-1.886-3.229Zm-2.84,22.015a11.248,11.248,0,0,0,2.743-9.112H91.923a24.24,24.24,0,0,1-14.138,9.112M91.923,12.9H82.232A28.746,28.746,0,0,0,78.665,4,24.256,24.256,0,0,1,91.923,12.9ZM66.515,4.009a21.955,21.955,0,0,0-2.186,4.329A37.833,37.833,0,0,0,62.918,12.9H53.259A24.486,24.486,0,0,1,66.515,4.009m-15.32,12.12H62.24a62.657,62.657,0,0,0-.865,7.841,16.1,16.1,0,0,0-12.4-.287c-.076-.136-.155-.269-.233-.4A23.759,23.759,0,0,1,51.195,16.129ZM11.29,51.613a8.064,8.064,0,1,1,0-16.129H12.9V33.871a17.744,17.744,0,0,1,33.865-7.412l.7,1.527,1.5-.766a12.76,12.76,0,0,1,5.869-1.414,12.919,12.919,0,0,1,12.178,8.635l.413,1.178,1.244-.1c.249-.021.472-.031.682-.031a8.064,8.064,0,0,1,0,16.129H64.516V37.1a4.845,4.845,0,0,0-4.839-4.838H20.967A4.844,4.844,0,0,0,16.129,37.1V51.613Zm50,43.548a1.615,1.615,0,0,1-1.613,1.613H20.967a1.614,1.614,0,0,1-1.612-1.613V37.1a1.614,1.614,0,0,1,1.612-1.612h38.71A1.615,1.615,0,0,1,61.29,37.1Z"/>
    <path id="Path_206068" data-name="Path 206068" d="M30.645,45.161a1.613,1.613,0,1,1-1.613,1.613,1.613,1.613,0,0,1,1.613-1.613"/>
    <path id="Path_206069" data-name="Path 206069" d="M37.1,45.161a1.613,1.613,0,1,1-1.613,1.613A1.613,1.613,0,0,1,37.1,45.161"/>
    <rect id="Rectangle_297351" data-name="Rectangle 297351" width="9.677" height="3.226" transform="translate(41.935 45.161)"/>
    <path id="Path_206070" data-name="Path 206070" d="M30.645,58.064a1.614,1.614,0,1,1-1.613,1.614,1.613,1.613,0,0,1,1.613-1.614"/>
    <path id="Path_206071" data-name="Path 206071" d="M37.1,58.064a1.614,1.614,0,1,1-1.613,1.614A1.613,1.613,0,0,1,37.1,58.064"/>
    <rect id="Rectangle_297352" data-name="Rectangle 297352" width="9.677" height="3.226" transform="translate(41.935 58.065)"/>
    <path id="Path_206072" data-name="Path 206072" d="M30.645,70.968a1.613,1.613,0,1,1-1.613,1.613,1.613,1.613,0,0,1,1.613-1.613"/>
    <path id="Path_206073" data-name="Path 206073" d="M37.1,70.968a1.613,1.613,0,1,1-1.613,1.613A1.613,1.613,0,0,1,37.1,70.968"/>
    <rect id="Rectangle_297353" data-name="Rectangle 297353" width="9.677" height="3.226" transform="translate(41.935 70.968)"/>
    <path id="Path_206074" data-name="Path 206074" d="M30.645,83.871a1.613,1.613,0,1,1-1.613,1.613,1.613,1.613,0,0,1,1.613-1.613"/>
    <path id="Path_206075" data-name="Path 206075" d="M37.1,83.871a1.613,1.613,0,1,1-1.613,1.613A1.613,1.613,0,0,1,37.1,83.871"/>
    <rect id="Rectangle_297354" data-name="Rectangle 297354" width="9.677" height="3.226" transform="translate(41.935 83.871)"/>
    <rect id="Rectangle_297355" data-name="Rectangle 297355" width="3.226" height="3.226" transform="translate(0 70.968)"/>
    <rect id="Rectangle_297356" data-name="Rectangle 297356" width="3.226" height="3.226" transform="translate(77.419 70.968)"/>
    <path id="Path_206076" data-name="Path 206076" d="M30.645,22.581a11.244,11.244,0,0,1,8.815,4.235L41.977,24.8a14.523,14.523,0,0,0-18.591-3.5L25,24.091a11.279,11.279,0,0,1,5.644-1.51"/>
    <path id="Path_206077" data-name="Path 206077" d="M21.83,26.815,19.313,24.8a14.513,14.513,0,0,0-2.129,3.63l2.991,1.21a11.253,11.253,0,0,1,1.655-2.822"/>
  </g>
</svg>
