<svg id="_18" data-name="18" xmlns="http://www.w3.org/2000/svg" xmlns:xlink="http://www.w3.org/1999/xlink" width="100" height="100" viewBox="0 0 100 100">
  <defs>
    <clipPath id="clip-path">
      <rect id="Rectangle_297363" data-name="Rectangle 297363" width="100" height="100" fill="none"/>
    </clipPath>
  </defs>
  <g id="Group_147727" data-name="Group 147727" clip-path="url(#clip-path)">
    <path id="Path_206078" data-name="Path 206078" d="M87.1,27.419A11.29,11.29,0,0,1,87.1,50H47.355l-1.242-6.016-.339-.081A52.166,52.166,0,0,1,29.032,37.1,52.151,52.151,0,0,1,12.291,43.9l-.339.081L10.758,49.79A11.288,11.288,0,0,1,12.9,27.419a11.535,11.535,0,0,1,3.436.532,19.31,19.31,0,0,1,26.274-15.29A24.18,24.18,0,0,1,87.1,25.806c0,.548-.048,1.081-.081,1.613Z" fill="#e7f3fe"/>
    <path id="Path_206079" data-name="Path 206079" d="M64.516,82.258V98.387H29.032V88.71a3.593,3.593,0,0,0,2.016-.629l10.71-7.613A19.393,19.393,0,0,0,50,64.726a19.1,19.1,0,0,0-.387-3.823L47.355,50h33.29V82.258Z" fill="#ffb30b"/>
    <path id="Path_206080" data-name="Path 206080" d="M47.355,50l2.258,10.9A19.1,19.1,0,0,1,50,64.726a19.39,19.39,0,0,1-8.242,15.742L31.049,88.081a3.547,3.547,0,0,1-4.033,0L16.307,80.468A19.39,19.39,0,0,1,8.065,64.726,19.1,19.1,0,0,1,8.452,60.9L10.758,49.79l1.194-5.806.338-.081A52.168,52.168,0,0,0,29.032,37.1,52.186,52.186,0,0,0,45.774,43.9l.339.081Z" fill="#00defc"/>
    <rect id="Rectangle_297359" data-name="Rectangle 297359" width="17.742" height="6.452" transform="translate(56.452 69.355)" fill="#fff"/>
    <path id="Path_206081" data-name="Path 206081" d="M80.645,82.258,64.516,98.387V82.258Z" fill="#fff4da"/>
    <path id="Path_206082" data-name="Path 206082" d="M88.71,25.918v-.112A25.794,25.794,0,0,0,41.984,10.721a20.747,20.747,0,0,0-6.5-1.044A21.048,21.048,0,0,0,15.06,25.989,12.9,12.9,0,0,0,8.866,50.956l-1.99,9.623a20.651,20.651,0,0,0-.424,4.152,21.008,21.008,0,0,0,8.922,17.056l10.713,7.6a5.043,5.043,0,0,0,1.333.671V100H65.184L82.258,82.926V51.613H87.1A12.9,12.9,0,0,0,88.71,25.918ZM17.242,79.156A17.774,17.774,0,0,1,9.678,64.731a17.259,17.259,0,0,1,.358-3.5l3.287-15.9a53.311,53.311,0,0,0,14.1-5.453V64.516h3.225V39.879a53.5,53.5,0,0,0,14.1,5.455l3.286,15.9a17.351,17.351,0,0,1,.359,3.5,17.774,17.774,0,0,1-7.564,14.425l-10.71,7.6a1.907,1.907,0,0,1-2.158,0ZM66.129,94.493V83.871H76.752ZM87.1,48.387H75.808v3.226h3.224V80.645H62.9V96.774H30.645V90.058a5.065,5.065,0,0,0,1.334-.671l10.712-7.6a21.008,21.008,0,0,0,8.922-17.056,20.524,20.524,0,0,0-.426-4.155L47.474,42.622l-1.358-.287a50.268,50.268,0,0,1-16.227-6.6l-.857-.54-.858.539a50.208,50.208,0,0,1-16.23,6.6l-1.357.295L9.523,47.772a9.674,9.674,0,0,1,6.324-18.28l1.823.582.264-1.895A17.7,17.7,0,0,1,42.016,14.161l1.228.487.719-1.108A22.569,22.569,0,0,1,85.484,25.806c0,.415-.031.821-.058,1.229l-.055,2H87.1a9.678,9.678,0,0,1,0,19.355Z"/>
    <rect id="Rectangle_297360" data-name="Rectangle 297360" width="3.226" height="16.129" transform="translate(27.419 67.742)"/>
    <rect id="Rectangle_297361" data-name="Rectangle 297361" width="25.806" height="3.226" transform="translate(33.871 90.323)"/>
    <rect id="Rectangle_297362" data-name="Rectangle 297362" width="9.677" height="3.226" transform="translate(50 83.871)"/>
    <path id="Path_206083" data-name="Path 206083" d="M51.613,22.581a3.229,3.229,0,0,0-3.226-3.226H45.161a3.229,3.229,0,0,0-3.226,3.226v12.9a3.229,3.229,0,0,0,3.226,3.226h3.226a3.229,3.229,0,0,0,3.226-3.226Zm-6.452,12.9v-12.9h3.226v12.9Z"/>
    <path id="Path_206084" data-name="Path 206084" d="M58.064,38.71H61.29a3.229,3.229,0,0,0,3.226-3.226v-12.9a3.229,3.229,0,0,0-3.226-3.226H58.064a3.229,3.229,0,0,0-3.226,3.226v12.9a3.229,3.229,0,0,0,3.226,3.226m0-16.129H61.29v12.9H58.064Z"/>
    <path id="Path_206085" data-name="Path 206085" d="M72.581,22.581a3.229,3.229,0,0,0-3.226-3.226H67.742v3.226h1.613V38.71h3.226Z"/>
    <path id="Path_206086" data-name="Path 206086" d="M58.064,64.516H61.29a3.229,3.229,0,0,0,3.226-3.226v-12.9a3.229,3.229,0,0,0-3.226-3.226H58.064a3.229,3.229,0,0,0-3.226,3.226v12.9a3.229,3.229,0,0,0,3.226,3.226m0-16.129H61.29v12.9H58.064Z"/>
    <path id="Path_206087" data-name="Path 206087" d="M72.581,64.516V48.387a3.229,3.229,0,0,0-3.226-3.226H67.742v3.226h1.613V64.516Z"/>
    <path id="Path_206088" data-name="Path 206088" d="M77.419,19.355H75.806v3.226h1.613V38.71h3.226V22.581a3.229,3.229,0,0,0-3.226-3.226"/>
    <path id="Path_206089" data-name="Path 206089" d="M71.7,12.285l1.761-2.7a19.581,19.581,0,0,0-17.6-1.811l1.175,3A16.327,16.327,0,0,1,71.7,12.285"/>
    <path id="Path_206090" data-name="Path 206090" d="M79.127,15.25a19.431,19.431,0,0,0-2.94-3.519l-2.212,2.346a16.155,16.155,0,0,1,2.45,2.933Z"/>
    <path id="Path_206091" data-name="Path 206091" d="M22.911,23.387,25.7,25a11.338,11.338,0,0,1,9.783-5.647V16.129a14.567,14.567,0,0,0-12.573,7.258"/>
    <path id="Path_206092" data-name="Path 206092" d="M20.968,30.645h3.226a11.314,11.314,0,0,1,.356-2.824l-3.126-.8a14.689,14.689,0,0,0-.456,3.626"/>
    <path id="Path_206093" data-name="Path 206093" d="M54.839,77.419H75.807V67.742H54.839Zm3.226-6.451H72.581v3.226H58.065Z"/>
  </g>
</svg>
