<svg id="_19" data-name="19" xmlns="http://www.w3.org/2000/svg" xmlns:xlink="http://www.w3.org/1999/xlink" width="100" height="100" viewBox="0 0 100 100">
  <defs>
    <clipPath id="clip-path">
      <rect id="Rectangle_297368" data-name="Rectangle 297368" width="100" height="100" fill="none"/>
    </clipPath>
  </defs>
  <g id="Group_147729" data-name="Group 147729" clip-path="url(#clip-path)">
    <path id="Path_206094" data-name="Path 206094" d="M85.159,82.792a3.905,3.905,0,1,1-3.9,3.9,3.9,3.9,0,0,1,3.9-3.9" fill="#ffb30b"/>
    <path id="Path_206095" data-name="Path 206095" d="M50.012,89.04a4.687,4.687,0,1,1-4.686,4.686,4.686,4.686,0,0,1,4.686-4.686" fill="#ffb30b"/>
    <path id="Path_206096" data-name="Path 206096" d="M14.864,82.792a3.905,3.905,0,1,1-3.905,3.9,3.9,3.9,0,0,1,3.905-3.9" fill="#ffb30b"/>
    <path id="Path_206097" data-name="Path 206097" d="M94.532,67.171a3.906,3.906,0,1,1-3.9,3.9,3.9,3.9,0,0,1,3.9-3.9" fill="#ffb30b"/>
    <path id="Path_206098" data-name="Path 206098" d="M5.492,67.171a3.906,3.906,0,1,1-3.905,3.9,3.9,3.9,0,0,1,3.905-3.9" fill="#ffb30b"/>
    <path id="Path_206099" data-name="Path 206099" d="M71.881,51.55H87.044a11.248,11.248,0,0,0,11.393-10.6A10.933,10.933,0,0,0,84.279,30.173a8.762,8.762,0,0,0,.1-1.274,8.591,8.591,0,0,0-8.592-8.591A10.934,10.934,0,0,0,64.852,9.373H35.171A10.934,10.934,0,0,0,24.237,20.308a8.535,8.535,0,0,0-8.489,9.858,11.061,11.061,0,0,0-5.467-.261,10.935,10.935,0,0,0,2.24,21.645Z" fill="#b9ddfc"/>
    <path id="Path_206100" data-name="Path 206100" d="M68.4,49.945l3.723-3.78a4.841,4.841,0,0,1-.833-5.814A23.408,23.408,0,0,0,73.5,34.883a4.759,4.759,0,0,1,4.563-3.558.072.072,0,0,0,.072-.072L78.088,26.1a.074.074,0,0,0-.074-.072,4.756,4.756,0,0,1-4.62-3.482A23.348,23.348,0,0,0,71.1,17.109a4.844,4.844,0,0,1,.738-5.825L68.053,7.565a4.844,4.844,0,0,1-5.818.833,23.334,23.334,0,0,0-5.467-2.2,4.756,4.756,0,0,1-3.56-4.559.072.072,0,0,0-.072-.072H47.177a2.7,2.7,0,0,0-.074.281,4.8,4.8,0,0,1-3.519,4.666,23.567,23.567,0,0,0-5.491,2.32A4.892,4.892,0,0,1,32.2,8.085L28.445,11.9a4.9,4.9,0,0,1,.841,5.877,23.564,23.564,0,0,0-2.237,5.583A4.1,4.1,0,0,1,22.5,26.556h-.609l1.562,5.709v-.49a4.861,4.861,0,0,1,4.713,3.55,23.279,23.279,0,0,0,2.276,5.363,4.844,4.844,0,0,1-.74,5.827l3.781,3.717a4.844,4.844,0,0,1,5.819-.832,23.339,23.339,0,0,0,5.468,2.2,4.758,4.758,0,0,1,3.56,4.56.072.072,0,0,0,.072.072h0l5.155-.043a.073.073,0,0,0,.072-.073A4.759,4.759,0,0,1,57.118,51.5a23.334,23.334,0,0,0,5.436-2.293,4.844,4.844,0,0,1,5.83.736Z" fill="#00defc"/>
    <path id="Path_206101" data-name="Path 206101" d="M31.266,28.9A27.266,27.266,0,0,1,42.484,6.856a23.486,23.486,0,0,0-4.392,1.973A4.892,4.892,0,0,1,32.2,8.085L28.445,11.9a4.892,4.892,0,0,1,.84,5.876,23.623,23.623,0,0,0-2.237,5.583A4.1,4.1,0,0,1,22.5,26.556h-.61l1.562,5.709v-.49a4.862,4.862,0,0,1,4.713,3.551,23.334,23.334,0,0,0,2.276,5.362,4.842,4.842,0,0,1-.74,5.825l3.782,3.72a4.842,4.842,0,0,1,5.819-.833,23.144,23.144,0,0,0,2.968,1.387A27.269,27.269,0,0,1,31.266,28.9Z" fill="#1cb1c9"/>
    <path id="Path_206102" data-name="Path 206102" d="M50.012,15.621A14.059,14.059,0,1,1,35.953,29.68,14.058,14.058,0,0,1,50.012,15.621" fill="#ffb30b"/>
    <path id="Path_206103" data-name="Path 206103" d="M39.077,29.68a14.06,14.06,0,0,1,12.5-13.967,14.059,14.059,0,1,0,0,27.934,14.06,14.06,0,0,1-12.5-13.967" fill="#eaa034"/>
    <path id="Path_206104" data-name="Path 206104" d="M48.415,57.8a1.69,1.69,0,0,1-1.636-1.574,3.219,3.219,0,0,0-2.391-3.112,24.911,24.911,0,0,1-5.844-2.343,3.294,3.294,0,0,0-3.943.564,1.562,1.562,0,0,1-2.207.017L28.61,47.627a1.56,1.56,0,0,1-.018-2.21,3.283,3.283,0,0,0,.5-3.943,24.878,24.878,0,0,1-2.428-5.722,3.327,3.327,0,0,0-2.224-2.274,1.561,1.561,0,0,1-2.5-.8l-1.563-5.709a1.564,1.564,0,0,1,1.1-1.92,1.582,1.582,0,0,1,.422-.055H22.5a1.472,1.472,0,0,1,.239.019,2.548,2.548,0,0,0,2.787-2.042,25.18,25.18,0,0,1,2.39-5.95,3.337,3.337,0,0,0-.572-4,1.563,1.563,0,0,1-.019-2.209l3.76-3.819A1.563,1.563,0,0,1,33.3,6.972a3.334,3.334,0,0,0,4.008.506A25.248,25.248,0,0,1,43.161,5,3.255,3.255,0,0,0,45.542,1.85a2.164,2.164,0,0,1,.141-.75A1.562,1.562,0,0,1,47.176,0h5.959a1.687,1.687,0,0,1,1.636,1.634,3.2,3.2,0,0,0,2.387,3.053A24.832,24.832,0,0,1,63,7.03a3.3,3.3,0,0,0,3.944-.564,1.563,1.563,0,0,1,2.208-.017l3.782,3.717a1.562,1.562,0,0,1,.019,2.209,3.28,3.28,0,0,0-.5,3.945,24.908,24.908,0,0,1,2.451,5.8,3.2,3.2,0,0,0,3.076,2.343h.037a1.69,1.69,0,0,1,1.637,1.63l.042,5.154a1.691,1.691,0,0,1-1.573,1.647,3.223,3.223,0,0,0-3.112,2.393,24.92,24.92,0,0,1-2.355,5.831,3.283,3.283,0,0,0,.565,3.939,1.56,1.56,0,0,1,.018,2.208l-3.721,3.781a1.562,1.562,0,0,1-2.209.018,3.29,3.29,0,0,0-3.949-.5,24.947,24.947,0,0,1-5.8,2.447,3.207,3.207,0,0,0-2.343,3.1,1.69,1.69,0,0,1-1.636,1.649l-5.155.042ZM36.952,47.226a6.375,6.375,0,0,1,3.124.811,21.783,21.783,0,0,0,5.107,2.057,6.348,6.348,0,0,1,4.53,4.569l2.538-.022A6.351,6.351,0,0,1,56.711,50a21.883,21.883,0,0,0,5.074-2.14,6.433,6.433,0,0,1,6.461.015l1.8-1.829a6.42,6.42,0,0,1-.123-6.456,21.65,21.65,0,0,0,2.059-5.1,6.351,6.351,0,0,1,4.574-4.53l-.022-2.534a6.34,6.34,0,0,1-4.646-4.46A21.688,21.688,0,0,0,69.749,17.9a6.415,6.415,0,0,1,.015-6.458l-1.831-1.8a6.431,6.431,0,0,1-6.461.124A21.773,21.773,0,0,0,56.364,7.7,6.339,6.339,0,0,1,51.83,3.124H48.537a6.388,6.388,0,0,1-4.531,4.89,22.044,22.044,0,0,0-5.126,2.165,6.468,6.468,0,0,1-6.521-.025l-1.841,1.875a6.469,6.469,0,0,1,.129,6.521,22.02,22.02,0,0,0-2.093,5.213,5.713,5.713,0,0,1-4.618,4.346l.6,2.2a6.451,6.451,0,0,1,5.135,4.6,21.72,21.72,0,0,0,2.123,5,6.418,6.418,0,0,1-.016,6.458l1.831,1.8A6.449,6.449,0,0,1,36.952,47.226Z"/>
    <path id="Path_206105" data-name="Path 206105" d="M50.012,45.3A15.621,15.621,0,1,1,65.633,29.68,15.621,15.621,0,0,1,50.012,45.3m0-28.118a12.5,12.5,0,1,0,12.5,12.5,12.5,12.5,0,0,0-12.5-12.5"/>
    <path id="Path_206106" data-name="Path 206106" d="M94.532,65.608a5.467,5.467,0,0,0-4.919,3.125H64.071V54.674H60.947V70.295a1.562,1.562,0,0,0,1.562,1.562H89.144a5.457,5.457,0,1,0,5.388-6.249Zm0,7.811a2.343,2.343,0,1,1,2.343-2.343,2.343,2.343,0,0,1-2.343,2.343"/>
    <path id="Path_206107" data-name="Path 206107" d="M85.159,81.229a5.467,5.467,0,0,0-4.919,3.125H57.822V60.922H54.7V85.916a1.562,1.562,0,0,0,1.562,1.562H79.771a5.457,5.457,0,1,0,5.388-6.249m0,7.811A2.343,2.343,0,1,1,87.5,86.7a2.343,2.343,0,0,1-2.343,2.343"/>
    <path id="Path_206108" data-name="Path 206108" d="M51.574,87.7V64.047H48.45V87.7a6.248,6.248,0,1,0,3.124,0m-1.562,9.151a3.124,3.124,0,1,1,3.124-3.124,3.124,3.124,0,0,1-3.124,3.124"/>
    <path id="Path_206109" data-name="Path 206109" d="M37.515,71.857a1.562,1.562,0,0,0,1.562-1.562V54.674H35.953V68.733H10.411a5.466,5.466,0,1,0,.469,3.124ZM5.492,73.419a2.343,2.343,0,1,1,2.343-2.343,2.343,2.343,0,0,1-2.343,2.343"/>
    <path id="Path_206110" data-name="Path 206110" d="M43.763,87.478a1.562,1.562,0,0,0,1.562-1.562V60.922H42.2V84.354H19.783a5.466,5.466,0,1,0,.469,3.124Zm-28.9,1.562A2.343,2.343,0,1,1,17.207,86.7a2.343,2.343,0,0,1-2.343,2.343"/>
    <rect id="Rectangle_297365" data-name="Rectangle 297365" width="3.124" height="3.124" transform="translate(40.639 28.118)"/>
    <rect id="Rectangle_297366" data-name="Rectangle 297366" width="3.124" height="3.124" transform="translate(48.45 28.118)"/>
    <rect id="Rectangle_297367" data-name="Rectangle 297367" width="3.124" height="3.124" transform="translate(56.26 28.118)"/>
    <path id="Path_206111" data-name="Path 206111" d="M87.5,53.112H71.881V49.988H87.5A9.373,9.373,0,1,0,84.734,31.66a1.563,1.563,0,0,1-2.006-1.719,6.857,6.857,0,0,0,.088-1.042,7.038,7.038,0,0,0-7.03-7.029V18.746a10.163,10.163,0,0,1,10.13,9.472A12.5,12.5,0,1,1,87.5,53.112"/>
    <path id="Path_206112" data-name="Path 206112" d="M28.142,53.112H12.521a12.5,12.5,0,1,1,.016-24.994,12.652,12.652,0,0,1,1.569.1,10.165,10.165,0,0,1,10.131-9.472V21.87a7.038,7.038,0,0,0-7.03,7.029,6.816,6.816,0,0,0,.088,1.038,1.562,1.562,0,0,1-2.006,1.718,9.372,9.372,0,1,0-2.768,18.333H28.142Z"/>
  </g>
</svg>
