<svg xmlns="http://www.w3.org/2000/svg" xmlns:xlink="http://www.w3.org/1999/xlink" width="400" height="355" viewBox="0 0 400 355">
  <defs>
    <clipPath id="clip-path">
      <rect id="Rectangle_297597" data-name="Rectangle 297597" width="400" height="355" transform="translate(180 1009)" fill="#fff" stroke="#707070" stroke-width="1"/>
    </clipPath>
  </defs>
  <g id="_2" data-name="2" transform="translate(-180 -1009)" clip-path="url(#clip-path)">
    <g id="Research_paper-rafiki" data-name="Research paper-rafiki" transform="translate(123.502 972.081)">
      <g id="freepik--background-complete--inject-82" transform="translate(0 0)">
        <rect id="Rectangle_297534" data-name="Rectangle 297534" width="512.997" height="0.264" transform="translate(0 345.132)" fill="#ebebeb"/>
        <rect id="Rectangle_297535" data-name="Rectangle 297535" width="33.981" height="0.264" transform="translate(427.614 362.093)" fill="#ebebeb"/>
        <rect id="Rectangle_297536" data-name="Rectangle 297536" width="8.916" height="0.264" transform="translate(330.914 364.96)" fill="#ebebeb"/>
        <rect id="Rectangle_297537" data-name="Rectangle 297537" width="19.689" height="0.264" transform="translate(406.899 352.311)" fill="#ebebeb"/>
        <rect id="Rectangle_297538" data-name="Rectangle 297538" width="44.313" height="0.264" transform="translate(53.824 354.082)" fill="#ebebeb"/>
        <rect id="Rectangle_297539" data-name="Rectangle 297539" width="6.495" height="0.264" transform="translate(107.278 354.082)" fill="#ebebeb"/>
        <rect id="Rectangle_297540" data-name="Rectangle 297540" width="96.115" height="0.264" transform="translate(134.888 358.53)" fill="#ebebeb"/>
        <path id="Path_206793" data-name="Path 206793" d="M242.167,353.116H44.058A5.941,5.941,0,0,1,38.21,347.1V60.967A5.939,5.939,0,0,1,44.058,55H242.167a5.94,5.94,0,0,1,5.858,6.019V347.1A5.94,5.94,0,0,1,242.167,353.116ZM44.058,55.211a5.681,5.681,0,0,0-5.592,5.756V347.1a5.681,5.681,0,0,0,5.592,5.756H242.167a5.691,5.691,0,0,0,5.6-5.756V60.967a5.691,5.691,0,0,0-5.6-5.756Z" transform="translate(0.993 -55)" fill="#ebebeb"/>
        <path id="Path_206794" data-name="Path 206794" d="M458.478,353.116H260.358A5.951,5.951,0,0,1,254.5,347.1V60.967A5.949,5.949,0,0,1,260.358,55h198.12a5.939,5.939,0,0,1,5.838,5.967V347.1A5.941,5.941,0,0,1,458.478,353.116ZM260.358,55.211a5.691,5.691,0,0,0-5.6,5.756V347.1a5.691,5.691,0,0,0,5.6,5.756h198.12a5.691,5.691,0,0,0,5.6-5.756V60.967a5.691,5.691,0,0,0-5.6-5.756Z" transform="translate(6.616 -55)" fill="#ebebeb"/>
        <path id="Path_206795" data-name="Path 206795" d="M237,183.626v18.511l9.234.9a50.209,50.209,0,0,0,6.925,17.109l-5.961,7.379,12.743,13.093,7.182-6.125a47.377,47.377,0,0,0,16.642,7.105l.872,9.487h18.129l.872-9.487a47.426,47.426,0,0,0,16.652-7.105l7.182,6.125,12.743-13.093-5.961-7.379a50.19,50.19,0,0,0,6.915-17.109l9.285-.9V183.626l-9.285-.907a50.225,50.225,0,0,0-6.895-17.13l5.961-7.379-12.743-13.082-7.182,6.125a47.639,47.639,0,0,0-16.621-7.116l-.872-9.487H284.74l-.872,9.487a47.589,47.589,0,0,0-16.642,7.116l-7.182-6.125L247.26,158.21l5.961,7.379a50.3,50.3,0,0,0-6.925,17.1Zm56.717-15.812c13.475,0,24.4,11.223,24.4,25.068s-10.923,25.068-24.4,25.068-24.4-11.223-24.4-25.068a25.421,25.421,0,0,1,7.161-17.741,24.071,24.071,0,0,1,17.279-7.327Z" transform="translate(6.161 -50.686)" fill="#f0f0f0"/>
        <path id="Path_206796" data-name="Path 206796" d="M208.874,263.4,214,267.8l9.162-9.414-4.289-5.271a35.974,35.974,0,0,0,5.017-12.334l6.669-.643V226.807l-6.669-.643a35.979,35.979,0,0,0-4.976-12.291l4.289-5.271-9.162-9.414-5.13,4.406a34.189,34.189,0,0,0-11.963-5.113l-.626-6.852H183.337l-.626,6.852a34.193,34.193,0,0,0-11.963,5.134l-5.13-4.406-9.162,9.414,4.289,5.271a35.979,35.979,0,0,0-4.976,12.292l-6.669.643v13.3l6.669.643a35.978,35.978,0,0,0,4.976,12.292l-4.289,5.271,9.162,9.414,5.13-4.406a34.191,34.191,0,0,0,11.963,5.113l.626,6.852h12.948l.626-6.852A34.184,34.184,0,0,0,208.874,263.4Zm-36.587-29.907a17.541,17.541,0,1,1,17.524,18.016A17.78,17.78,0,0,1,172.287,233.491Z" transform="translate(3.876 -47.6)" fill="#f5f5f5"/>
        <path id="Path_206797" data-name="Path 206797" d="M264.892,349.9a40.447,40.447,0,0,0,14.241-6.082l6.156,5.271,10.947-11.227-5.13-6.325a42.806,42.806,0,0,0,5.92-14.632l7.941-.759V300.335l-7.941-.77a42.81,42.81,0,0,0-5.92-14.674l5.13-6.325L285.3,267.36l-6.156,5.271a40.671,40.671,0,0,0-14.241-6.082l-.749-8.149h-15.39l-.749,8.117a40.673,40.673,0,0,0-14.241,6.082l-6.156-5.271-10.906,11.206,5.13,6.325a43.038,43.038,0,0,0-5.92,14.632l-7.941.77v15.812l7.941.759a42.956,42.956,0,0,0,5.92,14.632l-5.13,6.325,10.906,11.2,6.156-5.271a40.465,40.465,0,0,0,14.241,6.188l.749,8.159h15.39Zm-29.323-41.692c.006-11.84,9.351-21.435,20.876-21.431s20.864,9.6,20.862,21.445-9.341,21.436-20.865,21.438-20.88-9.608-20.872-21.456Z" transform="translate(5.406 -43.984)" fill="#fafafa"/>
        <path id="Path_206955" data-name="Path 206955" d="M0,0,47.661.175,47.836,49.1.175,48.921Z" transform="matrix(0.991, 0.135, -0.135, 0.991, 97.942, 107.613)" fill="#f5f5f5"/>
        <path id="Path_206956" data-name="Path 206956" d="M.114.011,3.275,0,3.161,31.031,0,31.043Z" transform="matrix(0.135, -0.991, 0.991, 0.135, 104.442, 124.153)" fill="#e0e0e0"/>
        <path id="Path_206957" data-name="Path 206957" d="M.114.011,3.275,0,3.161,31.031,0,31.043Z" transform="matrix(0.135, -0.991, 0.991, 0.135, 103.13, 133.99)" fill="#e0e0e0"/>
        <path id="Path_206958" data-name="Path 206958" d="M.067.011,3.228,0,3.161,18.272,0,18.283Z" transform="matrix(0.135, -0.991, 0.991, 0.135, 101.792, 144.11)" fill="#e0e0e0"/>
        <rect id="Rectangle_297545" data-name="Rectangle 297545" width="47.632" height="48.94" transform="translate(361.754 60.538) rotate(-0.2)" fill="#f0f0f0"/>
        <rect id="Rectangle_297546" data-name="Rectangle 297546" width="31.016" height="3.159" transform="translate(370.457 72.646) rotate(-0.21)" fill="#e0e0e0"/>
        <rect id="Rectangle_297547" data-name="Rectangle 297547" width="31.016" height="3.159" transform="translate(370.503 82.576) rotate(-0.21)" fill="#e0e0e0"/>
        <rect id="Rectangle_297548" data-name="Rectangle 297548" width="18.262" height="3.161" transform="translate(370.529 92.843) rotate(-0.21)" fill="#e0e0e0"/>
        <path id="Path_206959" data-name="Path 206959" d="M.163.163,47.821,0l-.163,48.924L0,49.087Z" transform="translate(390.538 185.743) rotate(-7.22)" fill="#f5f5f5"/>
        <path id="Path_206960" data-name="Path 206960" d="M.011.106,31.04,0l-.011,3.161L0,3.267Z" transform="translate(400.787 196.752) rotate(-7.22)" fill="#e0e0e0"/>
        <path id="Path_206961" data-name="Path 206961" d="M.011.106,31.04,0l-.011,3.161L0,3.267Z" transform="translate(402.002 206.596) rotate(-7.22)" fill="#e0e0e0"/>
        <path id="Path_206962" data-name="Path 206962" d="M.011.063,18.281,0l-.011,3.161L0,3.224Z" transform="translate(403.262 216.819) rotate(-7.22)" fill="#e0e0e0"/>
        <rect id="Rectangle_297553" data-name="Rectangle 297553" width="47.632" height="48.94" transform="translate(136.947 258.713) rotate(-0.2)" fill="#f0f0f0"/>
        <rect id="Rectangle_297554" data-name="Rectangle 297554" width="31.016" height="3.159" transform="translate(145.705 270.862) rotate(-0.21)" fill="#e0e0e0"/>
        <rect id="Rectangle_297555" data-name="Rectangle 297555" width="31.016" height="3.159" transform="translate(145.74 280.792) rotate(-0.21)" fill="#e0e0e0"/>
        <rect id="Rectangle_297556" data-name="Rectangle 297556" width="18.262" height="3.161" transform="translate(145.777 291.059) rotate(-0.21)" fill="#e0e0e0"/>
        <rect id="Rectangle_297557" data-name="Rectangle 297557" width="47.632" height="48.94" transform="translate(347.344 282.678) rotate(-0.2)" fill="#f0f0f0"/>
        <rect id="Rectangle_297558" data-name="Rectangle 297558" width="31.016" height="3.159" transform="translate(356.097 294.788) rotate(-0.21)" fill="#e0e0e0"/>
        <rect id="Rectangle_297559" data-name="Rectangle 297559" width="31.016" height="3.159" transform="translate(356.142 304.718) rotate(-0.21)" fill="#e0e0e0"/>
        <rect id="Rectangle_297560" data-name="Rectangle 297560" width="18.262" height="3.161" transform="translate(356.169 314.985) rotate(-0.21)" fill="#e0e0e0"/>
        <path id="Path_206963" data-name="Path 206963" d="M.277.277,47.975,0,47.7,48.883,0,49.16Z" transform="translate(147.412 67.571) rotate(-12.52)" fill="#f0f0f0"/>
        <path id="Path_206964" data-name="Path 206964" d="M.018.18,31.074,0l-.018,3.159L0,3.339Z" transform="translate(158.704 77.602) rotate(-12.52)" fill="#e0e0e0"/>
        <path id="Path_206965" data-name="Path 206965" d="M.018.18,31.074,0l-.018,3.159L0,3.339Z" transform="translate(160.803 87.3) rotate(-12.52)" fill="#e0e0e0"/>
        <path id="Path_206966" data-name="Path 206966" d="M.018.106,18.3,0l-.018,3.159L0,3.265Z" transform="translate(162.982 97.389) rotate(-12.52)" fill="#e0e0e0"/>
        <path id="Path_206798" data-name="Path 206798" d="M99.291,162.387H98.44L97.26,156.8h3.2Z" transform="translate(2.528 -49.487)" fill="#e0e0e0"/>
        <ellipse id="Ellipse_12959" data-name="Ellipse 12959" cx="4.33" cy="3.51" rx="4.33" ry="3.51" transform="translate(97.059 104.499)" fill="#e6e6e6"/>
        <path id="Path_206799" data-name="Path 206799" d="M184.121,116.117h-.852l-1.17-5.577h3.2Z" transform="translate(4.734 -51.992)" fill="#e0e0e0"/>
        <ellipse id="Ellipse_12960" data-name="Ellipse 12960" cx="4.34" cy="3.51" rx="4.34" ry="3.51" transform="translate(184.094 55.733)" fill="#e6e6e6"/>
        <path id="Path_206800" data-name="Path 206800" d="M375.192,117.447h-.852l-1.18-5.577h3.2Z" transform="translate(9.7 -51.92)" fill="#e0e0e0"/>
        <ellipse id="Ellipse_12961" data-name="Ellipse 12961" cx="4.33" cy="3.51" rx="4.33" ry="3.51" transform="translate(380.131 57.135)" fill="#e6e6e6"/>
        <path id="Path_206801" data-name="Path 206801" d="M422.651,232.437H421.8l-1.17-5.577h3.2Z" transform="translate(10.934 -45.692)" fill="#e0e0e0"/>
        <ellipse id="Ellipse_12962" data-name="Ellipse 12962" cx="4.33" cy="3.51" rx="4.33" ry="3.51" transform="translate(428.835 178.353)" fill="#e6e6e6"/>
        <path id="Path_206802" data-name="Path 206802" d="M362.642,328.557h-.862l-1.17-5.587h3.2Z" transform="translate(9.374 -40.487)" fill="#e0e0e0"/>
        <ellipse id="Ellipse_12963" data-name="Ellipse 12963" cx="4.33" cy="3.51" rx="4.33" ry="3.51" transform="translate(367.255 279.668)" fill="#e6e6e6"/>
        <path id="Path_206803" data-name="Path 206803" d="M155.531,304.757h-.852l-1.17-5.587h3.2Z" transform="translate(3.99 -41.776)" fill="#e0e0e0"/>
        <ellipse id="Ellipse_12964" data-name="Ellipse 12964" cx="4.33" cy="3.51" rx="4.33" ry="3.51" transform="translate(154.771 254.579)" fill="#e6e6e6"/>
      </g>
      <g id="freepik--Shadow--inject-82" transform="translate(57.569 368.871)">
        <ellipse id="freepik--path--inject-82" cx="198.93" cy="11.933" rx="198.93" ry="11.933" fill="#f5f5f5"/>
      </g>
      <g id="freepik--Notebook--inject-82" transform="translate(75.985 191.688)">
        <path id="Path_206804" data-name="Path 206804" d="M143.67,249.49c0-6.947,4.443-12.65,9.911-12.65s9.911,5.65,9.911,12.65-4.443,12.587-9.911,12.587S143.67,256.437,143.67,249.49Zm2.052,0c0,5.777,3.529,10.478,7.859,10.478s7.859-4.7,7.859-10.478-3.519-10.542-7.859-10.542S145.722,243.713,145.722,249.49Z" transform="translate(-72.251 -236.84)" fill="#263238"/>
        <path id="Path_206805" data-name="Path 206805" d="M124.66,249.49c0-6.947,4.443-12.65,9.911-12.65s9.911,5.65,9.911,12.65-4.443,12.587-9.911,12.587S124.66,256.437,124.66,249.49Zm2.052,0c0,5.777,3.519,10.478,7.859,10.478s7.859-4.7,7.859-10.478-3.529-10.542-7.859-10.542S126.712,243.713,126.712,249.49Z" transform="translate(-72.745 -236.84)" fill="#263238"/>
        <path id="Path_206806" data-name="Path 206806" d="M105.64,249.49c0-6.947,4.453-12.65,9.921-12.65s9.911,5.65,9.911,12.65-4.453,12.587-9.911,12.587S105.64,256.437,105.64,249.49Zm2.052,0c0,5.777,3.529,10.478,7.869,10.478s7.859-4.7,7.859-10.478-3.529-10.542-7.859-10.542S107.692,243.713,107.692,249.49Z" transform="translate(-73.239 -236.84)" fill="#263238"/>
        <path id="Path_206807" data-name="Path 206807" d="M86.63,249.49c0-6.947,4.453-12.65,9.921-12.65s9.911,5.65,9.911,12.65-4.453,12.587-9.911,12.587S86.63,256.437,86.63,249.49Zm2.052,0c0,5.777,3.529,10.478,7.869,10.478s7.859-4.7,7.859-10.478-3.529-10.542-7.859-10.542S88.682,243.713,88.682,249.49Z" transform="translate(-73.733 -236.84)" fill="#263238"/>
        <path id="Path_206808" data-name="Path 206808" d="M162.68,249.49c0-6.947,4.443-12.65,9.911-12.65s9.921,5.65,9.921,12.65-4.453,12.587-9.921,12.587S162.68,256.437,162.68,249.49Zm2.052,0c0,5.777,3.529,10.478,7.859,10.478s7.869-4.7,7.869-10.478-3.529-10.542-7.869-10.542S164.732,243.713,164.732,249.49Z" transform="translate(-71.756 -236.84)" fill="#263238"/>
        <rect id="Rectangle_297565" data-name="Rectangle 297565" width="122.175" height="173.641" transform="translate(122.175 186.533) rotate(180)" fill="#263238"/>
        <rect id="Rectangle_297566" data-name="Rectangle 297566" width="122.175" height="173.641" transform="translate(122.175 186.533) rotate(180)" fill="#fff" opacity="0.7"/>
        <rect id="Rectangle_297567" data-name="Rectangle 297567" width="111.167" height="173.641" transform="translate(122.175 186.533) rotate(180)" fill="#fff" opacity="0.6"/>
        <path id="Path_206809" data-name="Path 206809" d="M77.656,422.127,77.143,259.85,76.63,422.127Z" transform="translate(-73.993 -235.594)" opacity="0.2"/>
        <path id="Path_206810" data-name="Path 206810" d="M82.636,421.608,82.123,269.44,81.61,421.608Z" transform="translate(-73.864 -235.074)" opacity="0.2"/>
        <path id="Path_206811" data-name="Path 206811" d="M79.12,249.19l.513,122,.513-122Z" transform="translate(-73.928 -236.171)" opacity="0.2"/>
        <path id="Path_206812" data-name="Path 206812" d="M175.22,257.084a2.945,2.945,0,0,0,3.255,2.421,3.021,3.021,0,0,0-.382-6.005,3.287,3.287,0,0,0-2.873,3.584Z" transform="translate(-71.431 -235.938)" fill="#263238"/>
        <path id="Path_206813" data-name="Path 206813" d="M178.586,259.051a1.015,1.015,0,0,0,.769-.369,14.466,14.466,0,0,0,3.14-9.192c0-6.947-4.453-12.65-9.921-12.65-4.022,0-7.623,3.057-9.162,7.769a1.064,1.064,0,0,0,.646,1.339,1.022,1.022,0,0,0,1.3-.664c1.252-3.848,4.1-6.325,7.182-6.325,4.34,0,7.869,4.712,7.869,10.542a12.281,12.281,0,0,1-2.637,7.811,1.077,1.077,0,0,0-.162,1.135,1.025,1.025,0,0,0,.942.615Z" transform="translate(-71.739 -236.84)" fill="#263238"/>
        <g id="Group_147912" data-name="Group 147912" transform="translate(91.619)" opacity="0.4">
          <path id="Path_206814" data-name="Path 206814" d="M178.586,259.051a1.015,1.015,0,0,0,.769-.369,14.466,14.466,0,0,0,3.14-9.192c0-6.947-4.453-12.65-9.921-12.65-4.022,0-7.623,3.057-9.162,7.769a1.064,1.064,0,0,0,.646,1.339,1.022,1.022,0,0,0,1.3-.664c1.252-3.848,4.1-6.325,7.182-6.325,4.34,0,7.869,4.712,7.869,10.542a12.281,12.281,0,0,1-2.637,7.811,1.077,1.077,0,0,0-.162,1.135,1.025,1.025,0,0,0,.942.615Z" transform="translate(-163.357 -236.84)" fill="#fff"/>
        </g>
        <path id="Path_206815" data-name="Path 206815" d="M156.21,257.084a2.934,2.934,0,0,0,3.245,2.4,3.01,3.01,0,0,0-.373-5.984A3.287,3.287,0,0,0,156.21,257.084Z" transform="translate(-71.925 -235.938)" fill="#263238"/>
        <path id="Path_206816" data-name="Path 206816" d="M159.566,259.051a1.015,1.015,0,0,0,.78-.369,14.456,14.456,0,0,0,3.129-9.192c0-6.947-4.443-12.65-9.911-12.65-4.032,0-7.623,3.057-9.162,7.769a1.064,1.064,0,0,0,.646,1.339,1.022,1.022,0,0,0,1.3-.664c1.252-3.848,4.1-6.325,7.182-6.325,4.34,0,7.859,4.712,7.859,10.542a12.271,12.271,0,0,1-2.627,7.811,1.077,1.077,0,0,0-.164,1.13,1.025,1.025,0,0,0,.934.62Z" transform="translate(-72.233 -236.84)" fill="#263238"/>
        <g id="Group_147913" data-name="Group 147913" transform="translate(72.114)" opacity="0.4">
          <path id="Path_206817" data-name="Path 206817" d="M159.566,259.051a1.015,1.015,0,0,0,.78-.369,14.456,14.456,0,0,0,3.129-9.192c0-6.947-4.443-12.65-9.911-12.65-4.032,0-7.623,3.057-9.162,7.769a1.064,1.064,0,0,0,.646,1.339,1.022,1.022,0,0,0,1.3-.664c1.252-3.848,4.1-6.325,7.182-6.325,4.34,0,7.859,4.712,7.859,10.542a12.271,12.271,0,0,1-2.627,7.811,1.077,1.077,0,0,0-.164,1.13,1.025,1.025,0,0,0,.934.62Z" transform="translate(-144.347 -236.84)" fill="#fff"/>
        </g>
        <path id="Path_206818" data-name="Path 206818" d="M137.19,257.084a2.945,2.945,0,0,0,3.252,2.422,3.021,3.021,0,0,0-.369-6.006A3.3,3.3,0,0,0,137.19,257.084Z" transform="translate(-72.419 -235.938)" fill="#263238"/>
        <path id="Path_206819" data-name="Path 206819" d="M140.557,259.051a1.015,1.015,0,0,0,.78-.369,14.46,14.46,0,0,0,3.078-9.192c0-6.947-4.443-12.65-9.911-12.65-4.032,0-7.623,3.057-9.162,7.769a1.08,1.08,0,0,0,.052.807,1.035,1.035,0,0,0,.594.531,1,1,0,0,0,.786-.054,1.046,1.046,0,0,0,.517-.61c1.252-3.848,4.1-6.325,7.182-6.325,4.33,0,7.859,4.712,7.859,10.542a12.216,12.216,0,0,1-2.637,7.811,1.077,1.077,0,0,0-.162,1.135,1.025,1.025,0,0,0,.942.615Z" transform="translate(-72.728 -236.84)" fill="#263238"/>
        <g id="Group_147914" data-name="Group 147914" transform="translate(52.559)" opacity="0.4">
          <path id="Path_206820" data-name="Path 206820" d="M140.557,259.051a1.015,1.015,0,0,0,.78-.369,14.46,14.46,0,0,0,3.078-9.192c0-6.947-4.443-12.65-9.911-12.65-4.032,0-7.623,3.057-9.162,7.769a1.08,1.08,0,0,0,.052.807,1.035,1.035,0,0,0,.594.531,1,1,0,0,0,.786-.054,1.046,1.046,0,0,0,.517-.61c1.252-3.848,4.1-6.325,7.182-6.325,4.33,0,7.859,4.712,7.859,10.542a12.216,12.216,0,0,1-2.637,7.811,1.077,1.077,0,0,0-.162,1.135,1.025,1.025,0,0,0,.942.615Z" transform="translate(-125.287 -236.84)" fill="#fff"/>
        </g>
        <path id="Path_206821" data-name="Path 206821" d="M118.18,257.084a2.945,2.945,0,0,0,3.252,2.422,3.021,3.021,0,0,0-.369-6.006A3.3,3.3,0,0,0,118.18,257.084Z" transform="translate(-72.913 -235.938)" fill="#263238"/>
        <path id="Path_206822" data-name="Path 206822" d="M121.548,259.051a1.015,1.015,0,0,0,.78-.369,14.459,14.459,0,0,0,3.078-9.192c0-6.947-4.453-12.65-9.911-12.65-4.032,0-7.623,3.057-9.162,7.769a1.077,1.077,0,0,0,.161,1.082,1.01,1.01,0,0,0,1.01.351,1.039,1.039,0,0,0,.768-.759c1.252-3.848,4.1-6.325,7.182-6.325,4.33,0,7.859,4.712,7.859,10.542a12.281,12.281,0,0,1-2.637,7.811,1.077,1.077,0,0,0-.162,1.135,1.025,1.025,0,0,0,.942.615Z" transform="translate(-73.223 -236.84)" fill="#263238"/>
        <g id="Group_147915" data-name="Group 147915" transform="translate(33.03)" opacity="0.4">
          <path id="Path_206823" data-name="Path 206823" d="M121.548,259.051a1.015,1.015,0,0,0,.78-.369,14.459,14.459,0,0,0,3.078-9.192c0-6.947-4.453-12.65-9.911-12.65-4.032,0-7.623,3.057-9.162,7.769a1.077,1.077,0,0,0,.161,1.082,1.01,1.01,0,0,0,1.01.351,1.039,1.039,0,0,0,.768-.759c1.252-3.848,4.1-6.325,7.182-6.325,4.33,0,7.859,4.712,7.859,10.542a12.281,12.281,0,0,1-2.637,7.811,1.077,1.077,0,0,0-.162,1.135,1.025,1.025,0,0,0,.942.615Z" transform="translate(-106.253 -236.84)" fill="#fff"/>
        </g>
        <path id="Path_206824" data-name="Path 206824" d="M99.17,257.084c0,1.982,1.293,3.584,2.873,3.584a3.667,3.667,0,0,0,0-7.168C100.463,253.5,99.17,255.081,99.17,257.084Z" transform="translate(-73.407 -235.938)" fill="#263238"/>
        <path id="Path_206825" data-name="Path 206825" d="M102.537,259.051a1.015,1.015,0,0,0,.78-.369,14.513,14.513,0,0,0,3.078-9.192c0-6.947-4.453-12.65-9.911-12.65-4.032,0-7.633,3.057-9.162,7.769a1.077,1.077,0,0,0,.161,1.082,1.01,1.01,0,0,0,1.01.351,1.039,1.039,0,0,0,.768-.759c1.252-3.848,4.1-6.325,7.182-6.325,4.33,0,7.859,4.712,7.859,10.542a12.281,12.281,0,0,1-2.637,7.811,1.074,1.074,0,0,0,.1,1.5A1.007,1.007,0,0,0,102.537,259.051Z" transform="translate(-73.717 -236.84)" fill="#263238"/>
        <g id="Group_147916" data-name="Group 147916" transform="translate(13.526)" opacity="0.4">
          <path id="Path_206826" data-name="Path 206826" d="M102.537,259.051a1.015,1.015,0,0,0,.78-.369,14.513,14.513,0,0,0,3.078-9.192c0-6.947-4.453-12.65-9.911-12.65-4.032,0-7.633,3.057-9.162,7.769a1.077,1.077,0,0,0,.161,1.082,1.01,1.01,0,0,0,1.01.351,1.039,1.039,0,0,0,.768-.759c1.252-3.848,4.1-6.325,7.182-6.325,4.33,0,7.859,4.712,7.859,10.542a12.281,12.281,0,0,1-2.637,7.811,1.074,1.074,0,0,0,.1,1.5A1.007,1.007,0,0,0,102.537,259.051Z" transform="translate(-87.243 -236.84)" fill="#fff"/>
        </g>
        <rect id="Rectangle_297568" data-name="Rectangle 297568" width="8.598" height="15.064" transform="translate(34.514 92.777)" fill="#084a93"/>
        <rect id="Rectangle_297569" data-name="Rectangle 297569" width="8.598" height="26.027" transform="translate(48.437 81.813)" fill="#084a93"/>
        <rect id="Rectangle_297570" data-name="Rectangle 297570" width="8.598" height="21.916" transform="translate(62.37 85.925)" fill="#084a93"/>
        <rect id="Rectangle_297571" data-name="Rectangle 297571" width="8.598" height="32.879" transform="translate(76.303 74.961)" fill="#084a93"/>
        <rect id="Rectangle_297572" data-name="Rectangle 297572" width="8.598" height="43.842" transform="translate(90.226 63.998)" fill="#084a93"/>
        <rect id="Rectangle_297573" data-name="Rectangle 297573" width="8.598" height="15.064" transform="translate(34.514 92.777)" fill="#fff" opacity="0.5"/>
        <rect id="Rectangle_297574" data-name="Rectangle 297574" width="8.598" height="26.027" transform="translate(48.437 81.813)" fill="#fff" opacity="0.5"/>
        <rect id="Rectangle_297575" data-name="Rectangle 297575" width="8.598" height="21.916" transform="translate(62.37 85.925)" fill="#fff" opacity="0.5"/>
        <rect id="Rectangle_297576" data-name="Rectangle 297576" width="8.598" height="32.879" transform="translate(76.303 74.961)" fill="#fff" opacity="0.5"/>
        <rect id="Rectangle_297577" data-name="Rectangle 297577" width="8.598" height="43.842" transform="translate(90.226 63.998)" fill="#fff" opacity="0.5"/>
        <rect id="Rectangle_297578" data-name="Rectangle 297578" width="87.589" height="4.174" transform="translate(22.705 105.753)" fill="#263238"/>
        <path id="Path_206827" data-name="Path 206827" d="M99.838,330.359l-1.888-2.446,28.092-22.97,13.9,8.286,37.531-32.869,1.97,2.372-39.162,34.313-13.964-8.328Z" transform="translate(-73.439 -234.483)" fill="#00defc"/>
        <path id="Path_206828" data-name="Path 206828" d="M178.745,279.65l-5.7.907,4.022,4.406Z" transform="translate(-71.487 -234.522)" fill="#00defc"/>
        <g id="Group_147917" data-name="Group 147917" transform="translate(21.782 121.397)" opacity="0.3">
          <path id="Path_206829" data-name="Path 206829" d="M145.882,354.108H96.316a1.055,1.055,0,0,1,0-2.108h49.566a1.055,1.055,0,0,1,0,2.108Z" transform="translate(-95.29 -352)"/>
        </g>
        <g id="Group_147918" data-name="Group 147918" transform="translate(21.782 130.79)" opacity="0.3">
          <path id="Path_206830" data-name="Path 206830" d="M183.993,363.018H103.216a1.055,1.055,0,0,1,0-2.108h80.777a1.055,1.055,0,0,1,0,2.108Z" transform="translate(-95.111 -360.91)"/>
          <path id="Path_206831" data-name="Path 206831" d="M184.254,368.028H96.316a1.055,1.055,0,0,1,0-2.108h87.938a1.055,1.055,0,0,1,0,2.108Z" transform="translate(-95.29 -360.639)"/>
          <path id="Path_206832" data-name="Path 206832" d="M184.395,373.038H96.426a1.055,1.055,0,0,1,0-2.108h87.969a1.055,1.055,0,0,1,0,2.108Z" transform="translate(-95.287 -360.367)"/>
          <path id="Path_206833" data-name="Path 206833" d="M170.131,378.048H96.536a1.055,1.055,0,0,1,0-2.108h73.595a1.055,1.055,0,0,1,0,2.108Z" transform="translate(-95.284 -360.096)"/>
        </g>
        <g id="Group_147919" data-name="Group 147919" transform="translate(21.782 156.11)" opacity="0.3">
          <path id="Path_206834" data-name="Path 206834" d="M183.993,387.038H103.216a1.055,1.055,0,0,1,0-2.108h80.777a1.055,1.055,0,0,1,0,2.108Z" transform="translate(-95.111 -384.93)"/>
          <path id="Path_206835" data-name="Path 206835" d="M184.254,392.048H96.316a1.055,1.055,0,0,1,0-2.108h87.938a1.055,1.055,0,0,1,0,2.108Z" transform="translate(-95.29 -384.659)"/>
          <path id="Path_206836" data-name="Path 206836" d="M184.395,397.108H96.426a1.055,1.055,0,0,1,0-2.108h87.969a1.055,1.055,0,0,1,0,2.108Z" transform="translate(-95.287 -384.385)"/>
          <path id="Path_206837" data-name="Path 206837" d="M170.131,402.108H96.536a1.055,1.055,0,0,1,0-2.108h73.595a1.055,1.055,0,0,1,0,2.108Z" transform="translate(-95.284 -384.114)"/>
        </g>
        <g id="Group_147920" data-name="Group 147920" transform="translate(21.782 33.817)" opacity="0.3">
          <path id="Path_206838" data-name="Path 206838" d="M145.882,271.028H96.316a1.055,1.055,0,0,1,0-2.108h49.566a1.055,1.055,0,0,1,0,2.108Z" transform="translate(-95.29 -268.92)"/>
        </g>
      </g>
      <g id="freepik--Clipboard--inject-82" transform="translate(299.744 121.544)">
        <rect id="Rectangle_297579" data-name="Rectangle 297579" width="124.915" height="207.269" rx="3.46" transform="translate(0 0.991)" fill="#084a93"/>
        <path id="Path_206839" data-name="Path 206839" d="M320.857,170.3H386.91a.666.666,0,0,1,.657.675v6.789H320.19v-6.789a.684.684,0,0,1,.2-.481A.647.647,0,0,1,320.857,170.3Z" transform="translate(-291.421 -170.3)" fill="#263238"/>
        <rect id="Rectangle_297580" data-name="Rectangle 297580" width="115.035" height="194.292" transform="translate(4.945 7.464)" fill="#fff" opacity="0.9"/>
        <path id="Path_206840" data-name="Path 206840" d="M376.218,186.565H356l-.236-.727a2.168,2.168,0,0,0-4.155,0l-.236.727H331.125a3.006,3.006,0,0,1-2.965-3.036v-7.653a3.017,3.017,0,0,1,2.965-3.036h45.144a3.007,3.007,0,0,1,2.955,3.036v7.674a3.077,3.077,0,0,1-.891,2.152A2.913,2.913,0,0,1,376.218,186.565ZM357.4,184.457h18.817a.88.88,0,0,0,.641-.269.931.931,0,0,0,.261-.659v-7.653a.916.916,0,0,0-.9-.928H331.074a.89.89,0,0,0-.645.268.941.941,0,0,0-.268.66v7.674a.94.94,0,0,0,.268.66.89.89,0,0,0,.645.268h18.878a4.185,4.185,0,0,1,7.459,0Z" transform="translate(-291.214 -170.162)" fill="#263238"/>
        <g id="Group_147921" data-name="Group 147921" transform="translate(36.946 2.678)" opacity="0.5">
          <path id="Path_206841" data-name="Path 206841" d="M376.218,186.565H356l-.236-.727a2.168,2.168,0,0,0-4.155,0l-.236.727H331.125a3.006,3.006,0,0,1-2.965-3.036v-7.653a3.017,3.017,0,0,1,2.965-3.036h45.144a3.007,3.007,0,0,1,2.955,3.036v7.674a3.077,3.077,0,0,1-.891,2.152A2.913,2.913,0,0,1,376.218,186.565ZM357.4,184.457h18.817a.88.88,0,0,0,.641-.269.931.931,0,0,0,.261-.659v-7.653a.916.916,0,0,0-.9-.928H331.074a.89.89,0,0,0-.645.268.941.941,0,0,0-.268.66v7.674a.94.94,0,0,0,.268.66.89.89,0,0,0,.645.268h18.878a4.185,4.185,0,0,1,7.459,0Z" transform="translate(-328.16 -172.84)" fill="#fff"/>
        </g>
        <rect id="Rectangle_297581" data-name="Rectangle 297581" width="40.794" height="4.586" rx="0.99" transform="translate(42.066 1.455)" fill="#263238"/>
        <rect id="Rectangle_297582" data-name="Rectangle 297582" width="40.794" height="4.586" rx="0.99" transform="translate(42.066 1.455)" fill="#fff" opacity="0.2"/>
        <path id="Path_206967" data-name="Path 206967" d="M22.535,0A21.817,21.817,0,0,1,44.8,21.731c-.074,12.076-10.163,21.925-22.535,22A21.817,21.817,0,0,1,0,22C.074,9.924,10.164.074,22.535,0Z" transform="translate(63.308 181.859) rotate(-76.72)" fill="#ffb30b"/>
        <path id="Path_206842" data-name="Path 206842" d="M380.173,328.073h21.833c0,12.389-9.775,22.432-21.833,22.432s-21.833-10.043-21.833-22.432,9.775-22.432,21.833-22.432h.082Z" transform="translate(-290.429 -162.97)" fill="#fff" opacity="0.3"/>
        <path id="Path_206843" data-name="Path 206843" d="M380.173,328.073l11.778,18.88a21.363,21.363,0,0,1-25.3-1.256,22.809,22.809,0,0,1-7.12-24.974,21.882,21.882,0,0,1,20.64-15.082h.072Z" transform="translate(-290.43 -162.97)" fill="#fff" opacity="0.3"/>
        <path id="Path_206844" data-name="Path 206844" d="M380.173,328.073l-18.406,12.06a22.962,22.962,0,0,1-.735-22.844,21.751,21.751,0,0,1,19.141-11.648h.072Z" transform="translate(-290.429 -162.97)" fill="#fff" opacity="0.3"/>
        <g id="Group_147922" data-name="Group 147922" transform="translate(13.235 42.261)" opacity="0.5">
          <path id="Path_206845" data-name="Path 206845" d="M305.05,210.39v52.94h98.5V210.39Zm97.685,8.265H385.693v-7.474h17.042Zm-54.429,0H330.761v-7.474h17.544Zm.77-7.474H366.61v7.474H349.117Zm-.77,8.265v43.094H330.761V219.466Zm.77,0H366.61v43.094H349.117Zm18.3,0h17.544v43.094H367.379Zm0-.791v-7.474h17.544v7.474Zm-37.387-7.474v7.474H305.819v-7.474Zm-24.172,8.286h24.172V262.56H305.819Zm79.874,43.094V219.466h17.042V262.56Z" transform="translate(-305.05 -210.39)"/>
          <path id="Path_206846" data-name="Path 206846" d="M335.586,226.108h7.1a1.055,1.055,0,0,0,0-2.108h-7.1a1.055,1.055,0,0,0,0,2.108Z" transform="translate(-304.283 -209.653)"/>
          <path id="Path_206847" data-name="Path 206847" d="M353.026,235.178h7.705a1.055,1.055,0,0,0,0-2.108h-7.705a1.055,1.055,0,0,0,0,2.108Z" transform="translate(-303.83 -209.162)"/>
          <path id="Path_206848" data-name="Path 206848" d="M361.1,251.22h-8.075a1.055,1.055,0,0,0,0,2.108h8.044a1.055,1.055,0,0,0,0-2.108Z" transform="translate(-303.83 -208.179)"/>
          <path id="Path_206849" data-name="Path 206849" d="M378.511,242.14h-8.485a1.055,1.055,0,0,0,0,2.108h8.505a1.055,1.055,0,0,0,0-2.108Z" transform="translate(-303.388 -208.671)"/>
          <path id="Path_206850" data-name="Path 206850" d="M396.4,224h-8.618a1.055,1.055,0,0,0,0,2.108H396.4a1.055,1.055,0,0,0,0-2.108Z" transform="translate(-302.926 -209.653)"/>
          <path id="Path_206851" data-name="Path 206851" d="M395.3,251.22h-7.51a1.055,1.055,0,0,0,0,2.108h7.51a1.055,1.055,0,0,0,0-2.108Z" transform="translate(-302.926 -208.179)"/>
          <path id="Path_206852" data-name="Path 206852" d="M335.586,244.248h6.084a1.055,1.055,0,0,0,0-2.108h-6.084a1.055,1.055,0,0,0,0,2.108Z" transform="translate(-304.283 -208.671)"/>
          <path id="Path_206853" data-name="Path 206853" d="M342.686,251.22h-7.1a1.055,1.055,0,0,0,0,2.108h7.1a1.055,1.055,0,0,0,0-2.108Z" transform="translate(-304.283 -208.179)"/>
          <path id="Path_206854" data-name="Path 206854" d="M309.436,226.108h16.231a1.055,1.055,0,0,0,0-2.108H309.436a1.055,1.055,0,0,0,0,2.108Z" transform="translate(-304.963 -209.653)"/>
          <path id="Path_206855" data-name="Path 206855" d="M309.436,235.178h10.8a1.055,1.055,0,0,0,0-2.108h-10.8a1.055,1.055,0,0,0,0,2.108Z" transform="translate(-304.963 -209.162)"/>
          <path id="Path_206856" data-name="Path 206856" d="M325.667,242.14H309.436a1.055,1.055,0,0,0,0,2.108h16.231a1.055,1.055,0,0,0,0-2.108Z" transform="translate(-304.963 -208.671)"/>
          <path id="Path_206857" data-name="Path 206857" d="M317.552,251.22h-8.115a1.055,1.055,0,0,0,0,2.108h8.115a1.055,1.055,0,0,0,0-2.108Z" transform="translate(-304.963 -208.179)"/>
        </g>
        <g id="Group_147923" data-name="Group 147923" transform="translate(13.235 29.053)" opacity="0.5">
          <path id="Path_206858" data-name="Path 206858" d="M344.489,199.968H306.076a1.055,1.055,0,0,1,0-2.108h38.413a1.055,1.055,0,0,1,0,2.108Z" transform="translate(-305.05 -197.86)"/>
        </g>
        <g id="Group_147924" data-name="Group 147924" transform="translate(13.235 34.967)" opacity="0.5">
          <path id="Path_206859" data-name="Path 206859" d="M331.018,205.578H306.076a1.055,1.055,0,0,1,0-2.108h24.942a1.055,1.055,0,0,1,0,2.108Z" transform="translate(-305.05 -203.47)"/>
        </g>
        <g id="Group_147925" data-name="Group 147925" transform="translate(13.235 102.232)" opacity="0.5">
          <path id="Path_206860" data-name="Path 206860" d="M355.642,269.388H306.076a1.055,1.055,0,0,1,0-2.108h49.566a1.055,1.055,0,0,1,0,2.108Z" transform="translate(-305.05 -267.28)"/>
        </g>
        <rect id="Rectangle_297583" data-name="Rectangle 297583" width="6.125" height="6.293" transform="translate(13.235 146.128)" fill="#084a93"/>
        <g id="Group_147926" data-name="Group 147926" transform="translate(22.787 148.225)" opacity="0.5">
          <path id="Path_206861" data-name="Path 206861" d="M345.8,313.018H315.386a1.055,1.055,0,0,1,0-2.108H345.8a1.055,1.055,0,0,1,0,2.108Z" transform="translate(-314.36 -310.91)"/>
        </g>
        <rect id="Rectangle_297584" data-name="Rectangle 297584" width="6.125" height="6.293" transform="translate(13.235 156.68)" fill="#084a93"/>
        <g id="Group_147927" data-name="Group 147927" transform="translate(22.787 158.767)" opacity="0.5">
          <path id="Path_206862" data-name="Path 206862" d="M345.8,323.018H315.386a1.055,1.055,0,0,1,0-2.108H345.8a1.055,1.055,0,0,1,0,2.108Z" transform="translate(-314.36 -320.91)"/>
        </g>
        <rect id="Rectangle_297585" data-name="Rectangle 297585" width="6.125" height="6.293" transform="translate(13.235 167.221)" fill="#084a93"/>
        <g id="Group_147928" data-name="Group 147928" transform="translate(22.787 169.319)" opacity="0.5">
          <path id="Path_206863" data-name="Path 206863" d="M345.8,333.028H315.386a1.055,1.055,0,0,1,0-2.108H345.8a1.055,1.055,0,0,1,0,2.108Z" transform="translate(-314.36 -330.92)"/>
        </g>
        <rect id="Rectangle_297586" data-name="Rectangle 297586" width="6.125" height="6.293" transform="translate(13.235 177.774)" fill="#084a93"/>
        <g id="Group_147929" data-name="Group 147929" transform="translate(22.787 179.871)" opacity="0.5">
          <path id="Path_206864" data-name="Path 206864" d="M345.8,343.038H315.386a1.055,1.055,0,0,1,0-2.108H345.8a1.055,1.055,0,0,1,0,2.108Z" transform="translate(-314.36 -340.93)"/>
        </g>
        <g id="Group_147930" data-name="Group 147930" transform="translate(13.235 111.657)" opacity="0.5">
          <path id="Path_206865" data-name="Path 206865" d="M401.961,278.328H312.966a1.055,1.055,0,0,1,0-2.108h88.995a1.055,1.055,0,0,1,0,2.108Z" transform="translate(-304.871 -276.22)"/>
          <path id="Path_206866" data-name="Path 206866" d="M402.253,283.338H306.076a1.055,1.055,0,0,1,0-2.108h96.177a1.055,1.055,0,0,1,0,2.108Z" transform="translate(-305.05 -275.949)"/>
          <path id="Path_206867" data-name="Path 206867" d="M402.363,288.348H306.186a1.055,1.055,0,0,1,0-2.108h96.177a1.055,1.055,0,0,1,0,2.108Z" transform="translate(-305.047 -275.677)"/>
          <path id="Path_206868" data-name="Path 206868" d="M388.1,293.358H306.3a1.055,1.055,0,0,1,0-2.108h81.8a1.055,1.055,0,0,1,0,2.108Z" transform="translate(-305.044 -275.406)"/>
        </g>
        <rect id="Rectangle_297587" data-name="Rectangle 297587" width="6.125" height="6.293" transform="translate(13.235 156.68)" fill="#fff" opacity="0.3"/>
        <rect id="Rectangle_297588" data-name="Rectangle 297588" width="6.125" height="6.293" transform="translate(13.235 167.221)" fill="#fff" opacity="0.5"/>
        <rect id="Rectangle_297589" data-name="Rectangle 297589" width="6.125" height="6.293" transform="translate(13.235 177.774)" fill="#fff" opacity="0.7"/>
      </g>
      <g id="freepik--speech-bubble--inject-82" transform="translate(190.23 106.017)">
        <path id="Path_206873" data-name="Path 206873" d="M194.49,155.57h29.487a9.2,9.2,0,0,1,9.07,9.319v26.354a9.2,9.2,0,0,1-9.07,9.319h-8.618l3.078,11.49-9.234-11.49H194.49a8.948,8.948,0,0,1-6.42-2.726,9.45,9.45,0,0,1-2.66-6.593V164.889a9.45,9.45,0,0,1,2.66-6.593A8.949,8.949,0,0,1,194.49,155.57Z" transform="translate(-185.41 -155.57)" fill="#ffb30b"/>
        <path id="Path_206874" data-name="Path 206874" d="M194.49,155.57h29.487a9.2,9.2,0,0,1,9.07,9.319v26.354a9.2,9.2,0,0,1-9.07,9.319h-8.618l3.078,11.49-9.234-11.49H194.49a8.948,8.948,0,0,1-6.42-2.726,9.45,9.45,0,0,1-2.66-6.593V164.889a9.45,9.45,0,0,1,2.66-6.593A8.949,8.949,0,0,1,194.49,155.57Z" transform="translate(-185.41 -155.57)" fill="#fff" opacity="0.7"/>
        <ellipse id="Ellipse_12966" data-name="Ellipse 12966" cx="9.183" cy="9.435" rx="9.183" ry="9.435" transform="translate(10.178 9.371)" fill="#fff" opacity="0.7"/>
        <path id="Path_206875" data-name="Path 206875" d="M204.546,184.759a10.583,10.583,0,0,1-10.3-8.695,10.858,10.858,0,0,1,6.288-12.074,10.351,10.351,0,0,1,12.753,3.978,11.017,11.017,0,0,1-1.307,13.628A10.345,10.345,0,0,1,204.546,184.759Zm0-18.859a7.905,7.905,0,0,0-7.7,6.491,8.113,8.113,0,0,0,4.7,9.024,7.733,7.733,0,0,0,9.529-2.972,8.231,8.231,0,0,0-.977-10.182A7.683,7.683,0,0,0,204.546,165.9Z" transform="translate(-185.185 -155.158)" fill="#084a93"/>
        <path id="Path_206968" data-name="Path 206968" d="M.2.037,2.907,0,2.7,15.008,0,15.045Z" transform="translate(24.747 26.565) rotate(-45)" fill="#084a93"/>
        <path id="Path_206876" data-name="Path 206876" d="M222.165,193.636a2.024,2.024,0,0,1-1.416-.6l-7.993-8.212a2.092,2.092,0,0,1-.593-2.018,2.029,2.029,0,0,1,1.448-1.493,1.967,1.967,0,0,1,1.966.6l8,8.222A2.1,2.1,0,0,1,224,192.37,2,2,0,0,1,222.165,193.636Z" transform="translate(-184.716 -154.179)" fill="#084a93"/>
        <path id="Path_206877" data-name="Path 206877" d="M205.774,169.468a2.053,2.053,0,1,1-2.052-2.108A2.081,2.081,0,0,1,205.774,169.468Z" transform="translate(-184.987 -154.932)" fill="#fff"/>
        <path id="Path_206878" data-name="Path 206878" d="M208.692,170.874a1.026,1.026,0,1,1-1.026-1.054A1.04,1.04,0,0,1,208.692,170.874Z" transform="translate(-184.858 -154.798)" fill="#fff"/>
      </g>
      <g id="freepik--Character--inject-82" transform="translate(125.438 145.452)">
        <rect id="Rectangle_297591" data-name="Rectangle 297591" width="152.812" height="25.268" transform="translate(18.037 154.414)" fill="#084a93"/>
        <rect id="Rectangle_297592" data-name="Rectangle 297592" width="152.812" height="25.268" transform="translate(18.037 154.414)" fill="#fff" opacity="0.8"/>
        <path id="Path_206879" data-name="Path 206879" d="M291.431,345.906V343.85L186.81,344.7Z" transform="translate(-120.582 -184.808)" opacity="0.2"/>
        <path id="Path_206880" data-name="Path 206880" d="M289.97,354.282V352.69L243,354.419Z" transform="translate(-119.121 -184.329)" opacity="0.2"/>
        <path id="Path_206881" data-name="Path 206881" d="M290.7,359.926V357.87l-75.729,1.191Z" transform="translate(-119.85 -184.049)" opacity="0.2"/>
        <path id="Path_206882" data-name="Path 206882" d="M173.2,339.46,171,358.3l2.616-2.867a23.2,23.2,0,0,0,4.8,9.3,27.644,27.644,0,0,0,3.858-7.242l71.368-.843-70.691-1.592a15.7,15.7,0,0,0,.339-3.162,14.771,14.771,0,0,0-.246-2.625l104.713-.274L182.8,348.146a20.972,20.972,0,0,0-1.539-4.1,8.082,8.082,0,0,1,5.469-2.108H291.842V339.46Z" transform="translate(-120.993 -185.046)" opacity="0.2"/>
        <path id="Path_206883" data-name="Path 206883" d="M176.8,352.031a11.3,11.3,0,0,0,11.132,11.417H294.847a.832.832,0,0,1,.821.843v.907a.832.832,0,0,1-.821.843H136.906a13.465,13.465,0,0,1-9.689-4.148,14.222,14.222,0,0,1-3.956-9.989A14.05,14.05,0,0,1,137.255,338H294.847a.832.832,0,0,1,.821.843v.9a.832.832,0,0,1-.821.843H188.257a11.589,11.589,0,0,0-11.46,11.448Z" transform="translate(-122.234 -185.125)" fill="#084a93"/>
        <path id="Path_206884" data-name="Path 206884" d="M176.8,352.031a11.3,11.3,0,0,0,11.132,11.417H294.847a.832.832,0,0,1,.821.843v.907a.832.832,0,0,1-.821.843H136.906a13.465,13.465,0,0,1-9.689-4.148,14.222,14.222,0,0,1-3.956-9.989A14.05,14.05,0,0,1,137.255,338H294.847a.832.832,0,0,1,.821.843v.9a.832.832,0,0,1-.821.843H188.257a11.589,11.589,0,0,0-11.46,11.448Z" transform="translate(-122.234 -185.125)" fill="#fff" opacity="0.4"/>
        <path id="Path_206885" data-name="Path 206885" d="M175.52,352.031a11.3,11.3,0,0,0,11.132,11.417H293.571a.832.832,0,0,1,.821.843v.907a.832.832,0,0,1-.821.843H186.036a13.486,13.486,0,0,1-9.69-4.15,14.243,14.243,0,0,1-3.966-9.986A14.072,14.072,0,0,1,186.354,338H293.571a.832.832,0,0,1,.821.843v.9a.832.832,0,0,1-.821.843H186.98a11.589,11.589,0,0,0-11.46,11.448Z" transform="translate(-120.957 -185.125)" fill="#084a93"/>
        <path id="Path_206886" data-name="Path 206886" d="M195.06,344.85v10.13l3.57-3.668,3.458,3.552V344.85Z" transform="translate(-120.367 -184.754)" fill="#263238"/>
        <path id="Path_206887" data-name="Path 206887" d="M175.52,352.031a11.3,11.3,0,0,0,11.132,11.417H293.571a.832.832,0,0,1,.821.843v.907a.832.832,0,0,1-.821.843H186.036a13.486,13.486,0,0,1-9.69-4.15,14.243,14.243,0,0,1-3.966-9.986A14.072,14.072,0,0,1,186.354,338H293.571a.832.832,0,0,1,.821.843v.9a.832.832,0,0,1-.821.843H186.98a11.589,11.589,0,0,0-11.46,11.448Z" transform="translate(-120.957 -185.125)" fill="#fff" opacity="0.6"/>
        <rect id="Rectangle_297593" data-name="Rectangle 297593" width="152.812" height="25.268" transform="translate(25.414 210.095)" fill="#084a93"/>
        <rect id="Rectangle_297594" data-name="Rectangle 297594" width="152.812" height="25.268" transform="translate(25.414 210.095)" fill="#fff" opacity="0.7"/>
        <path id="Path_206888" data-name="Path 206888" d="M298.621,398.716V396.66L194,397.524Z" transform="translate(-120.395 -181.948)" opacity="0.2"/>
        <path id="Path_206889" data-name="Path 206889" d="M297.16,407.091V405.51l-46.97,1.718Z" transform="translate(-118.934 -181.469)" opacity="0.2"/>
        <path id="Path_206890" data-name="Path 206890" d="M297.889,412.735V410.69l-75.729,1.181Z" transform="translate(-119.663 -181.188)" opacity="0.2"/>
        <path id="Path_206891" data-name="Path 206891" d="M180.386,392.28l-2.216,18.838,2.616-2.867a23.405,23.405,0,0,0,4.812,9.3,28.018,28.018,0,0,0,3.847-7.253l71.368-.843-70.691-1.581a15.9,15.9,0,0,0,.349-3.163,14.768,14.768,0,0,0-.257-2.625l104.744-.242L189.989,401a20.871,20.871,0,0,0-1.539-4.09,8.086,8.086,0,0,1,5.469-2.161H299.063V392.28Z" transform="translate(-120.806 -182.185)" opacity="0.2"/>
        <path id="Path_206892" data-name="Path 206892" d="M184.2,404.839a11.59,11.59,0,0,0,3.247,8.111,10.973,10.973,0,0,0,7.885,3.358H302.25a.832.832,0,0,1,.821.843v.907a.832.832,0,0,1-.821.843H135.906a13.486,13.486,0,0,1-9.679-4.15,14.243,14.243,0,0,1-3.966-9.976,14.061,14.061,0,0,1,14-13.925H302.25a.832.832,0,0,1,.821.843v.906a.832.832,0,0,1-.821.843H195.66A11.588,11.588,0,0,0,184.2,404.839Z" transform="translate(-122.26 -182.263)" fill="#263238"/>
        <path id="Path_206893" data-name="Path 206893" d="M184.2,404.839a11.59,11.59,0,0,0,3.247,8.111,10.973,10.973,0,0,0,7.885,3.358H302.25a.832.832,0,0,1,.821.843v.907a.832.832,0,0,1-.821.843H135.906a13.486,13.486,0,0,1-9.679-4.15,14.243,14.243,0,0,1-3.966-9.976,14.061,14.061,0,0,1,14-13.925H302.25a.832.832,0,0,1,.821.843v.906a.832.832,0,0,1-.821.843H195.66A11.588,11.588,0,0,0,184.2,404.839Z" transform="translate(-122.26 -182.263)" fill="#fff" opacity="0.2"/>
        <path id="Path_206894" data-name="Path 206894" d="M182.709,404.839a11.59,11.59,0,0,0,3.247,8.111,10.973,10.973,0,0,0,7.885,3.358H300.76a.832.832,0,0,1,.821.843v.907a.832.832,0,0,1-.821.843H193.226a13.465,13.465,0,0,1-9.686-4.144,14.222,14.222,0,0,1-3.96-9.982,14.051,14.051,0,0,1,13.995-13.925H300.76a.832.832,0,0,1,.821.843v.906a.832.832,0,0,1-.821.843H194.17A11.588,11.588,0,0,0,182.709,404.839Z" transform="translate(-120.77 -182.263)" fill="#263238"/>
        <path id="Path_206895" data-name="Path 206895" d="M194,401.08v10.13l3.56-3.668,3.458,3.553V401.08Z" transform="translate(-120.395 -181.709)" fill="#084a93"/>
        <path id="Path_206896" data-name="Path 206896" d="M182.709,404.839a11.59,11.59,0,0,0,3.247,8.111,10.973,10.973,0,0,0,7.885,3.358H300.76a.832.832,0,0,1,.821.843v.907a.832.832,0,0,1-.821.843H193.226a13.465,13.465,0,0,1-9.686-4.144,14.222,14.222,0,0,1-3.96-9.982,14.051,14.051,0,0,1,13.995-13.925H300.76a.832.832,0,0,1,.821.843v.906a.832.832,0,0,1-.821.843H194.17A11.588,11.588,0,0,0,182.709,404.839Z" transform="translate(-120.77 -182.263)" fill="#fff" opacity="0.4"/>
        <rect id="Rectangle_297595" data-name="Rectangle 297595" width="56.614" height="25.237" transform="translate(68.28 207.48) rotate(180)" fill="#084a93"/>
        <rect id="Rectangle_297596" data-name="Rectangle 297596" width="56.614" height="25.237" transform="translate(68.28 207.48) rotate(180)" fill="#fff" opacity="0.8"/>
        <path id="Path_206897" data-name="Path 206897" d="M185.71,368.337H133.63V365.87h52.018Z" transform="translate(-121.964 -183.616)" opacity="0.2"/>
        <path id="Path_206898" data-name="Path 206898" d="M185.58,370.25l-46.98,1.033,46.98,1.023Z" transform="translate(-121.835 -183.378)" opacity="0.2"/>
        <path id="Path_206899" data-name="Path 206899" d="M185.65,379.1l-49.75.865,49.75.727Z" transform="translate(-121.905 -182.899)" opacity="0.2"/>
        <path id="Path_206900" data-name="Path 206900" d="M185.639,384.28,136.33,385.3l49.309,1.023Z" transform="translate(-121.894 -182.619)" opacity="0.2"/>
        <path id="Path_206901" data-name="Path 206901" d="M133.63,373.66l47.7,1.476-47.7,1.033Z" transform="translate(-121.964 -183.194)" opacity="0.2"/>
        <path id="Path_206902" data-name="Path 206902" d="M260.079,378.431a11.3,11.3,0,0,1-11.132,11.427H131.1a.832.832,0,0,0-.821.843v.9a.832.832,0,0,0,.821.843H249.562a13.445,13.445,0,0,0,9.692-4.137,14.2,14.2,0,0,0,3.954-9.988,14.051,14.051,0,0,0-13.995-13.926H131.1a.832.832,0,0,0-.821.843v.906a.832.832,0,0,0,.821.843H248.618a11.589,11.589,0,0,1,11.46,11.448Z" transform="translate(-122.051 -183.696)" fill="#263238"/>
        <path id="Path_206903" data-name="Path 206903" d="M260.079,378.431a11.3,11.3,0,0,1-11.132,11.427H131.1a.832.832,0,0,0-.821.843v.9a.832.832,0,0,0,.821.843H249.562a13.445,13.445,0,0,0,9.692-4.137,14.2,14.2,0,0,0,3.954-9.988,14.051,14.051,0,0,0-13.995-13.926H131.1a.832.832,0,0,0-.821.843v.906a.832.832,0,0,0,.821.843H248.618a11.589,11.589,0,0,1,11.46,11.448Z" transform="translate(-122.051 -183.696)" fill="#fff" opacity="0.4"/>
        <path id="Path_206904" data-name="Path 206904" d="M301.651,378.5h0a12.484,12.484,0,0,1-12.312,12.65H184.39v-25.3H289.349A12.485,12.485,0,0,1,301.651,378.5Z" transform="translate(-120.645 -183.617)" fill="#084a93"/>
        <path id="Path_206905" data-name="Path 206905" d="M184.39,365.87v25.3H289.36a12.655,12.655,0,0,0,0-25.3Z" transform="translate(-120.645 -183.616)" fill="#fff" opacity="0.7"/>
        <path id="Path_206906" data-name="Path 206906" d="M184.39,372.306V370.25l104.621.864Z" transform="translate(-120.645 -183.378)" opacity="0.2"/>
        <path id="Path_206907" data-name="Path 206907" d="M184.39,380.692V379.1l46.97,1.729Z" transform="translate(-120.645 -182.899)" opacity="0.2"/>
        <path id="Path_206908" data-name="Path 206908" d="M184.39,386.325V384.28l75.729,1.18Z" transform="translate(-120.645 -182.619)" opacity="0.2"/>
        <path id="Path_206909" data-name="Path 206909" d="M289.524,368.335a8.086,8.086,0,0,1,5.469,2.161,21.428,21.428,0,0,0-1.549,4.1l-104.959.843,104.723.264a14.894,14.894,0,0,0-.256,2.635,14.325,14.325,0,0,0,.359,3.163l-70.7,1.581,71.358.854a27.079,27.079,0,0,0,2.37,5.007A12.836,12.836,0,0,0,301.06,374.8a12.356,12.356,0,0,0-11.7-8.891H184.39v2.467Z" transform="translate(-120.645 -183.613)" opacity="0.2"/>
        <path id="Path_206910" data-name="Path 206910" d="M300.742,378.431a11.3,11.3,0,0,1-11.132,11.427H182.691a.832.832,0,0,0-.821.843v.9a.832.832,0,0,0,.821.843H290.225a13.444,13.444,0,0,0,9.692-4.137,14.2,14.2,0,0,0,3.954-9.988,14.051,14.051,0,0,0-13.995-13.926H182.691a.832.832,0,0,0-.821.843v.906a.832.832,0,0,0,.821.843H289.281a11.589,11.589,0,0,1,11.46,11.448Z" transform="translate(-120.71 -183.696)" fill="#263238"/>
        <path id="Path_206911" data-name="Path 206911" d="M286.538,374.67V384.8l-3.57-3.669-3.458,3.553V374.67Z" transform="translate(-118.172 -183.139)" fill="#084a93"/>
        <path id="Path_206912" data-name="Path 206912" d="M313.605,239.59H311.04a2.976,2.976,0,0,0-2.411,1.339l-2.545,3.816a5.846,5.846,0,0,0-.636,5.218l.39,1.054c4.258.211,9.018-2.783,9.018-2.783l1.457-.7a2.522,2.522,0,0,0,1.324-1.419,2.615,2.615,0,0,0-.051-1.965l-1.3-2.9a2.875,2.875,0,0,0-2.678-1.666Z" transform="translate(-117.507 -190.455)" fill="#eec1bb"/>
        <path id="Path_206913" data-name="Path 206913" d="M266.221,244.068c6.587,5.471,13.7,10.742,21.546,13.968l-.975-.211c.718.179,2.606-.559,3.591-1.054,5.479-2.741,10.67-6.852,15.6-10.6a2.555,2.555,0,0,1,3.381.286,2.733,2.733,0,0,1,.24,3.477c-4.914,6.325-15.975,19.175-24.737,17.3-9.6-2.941-18.088-8.433-25.65-15.148C254.309,247.231,260.886,239.652,266.221,244.068Z" transform="translate(-118.745 -190.284)" fill="#ebc0bb"/>
        <path id="Path_206914" data-name="Path 206914" d="M252.548,236.942c-2.4,6.873,1.467,13.7,10.773,21.747,4.627-.706,10.876-10.457,10.876-10.457S261.1,234.781,252.548,236.942Z" transform="translate(-118.891 -190.611)" fill="#084a93"/>
        <path id="Path_206915" data-name="Path 206915" d="M261.226,196.617s-9.162-9.635-21.1,2.456-14.272,52.149-14.272,52.149l31.17,6.22s4.032-4.754,6.1-18.469,3.17-26.828,5.8-29.885S261.226,196.617,261.226,196.617Z" transform="translate(-119.567 -192.979)" fill="#263238"/>
        <path id="Path_206916" data-name="Path 206916" d="M286.591,390.008l-6.751-2.762,2.637-10.109,2.432-9.277,8.536,1.94-3.622,10.7Z" transform="translate(-118.164 -183.508)" fill="#eec1bb"/>
        <path id="Path_206917" data-name="Path 206917" d="M289.676,380.716l-7.336-3.394,2.473-9.372,8.547,1.9Z" transform="translate(-118.099 -183.503)" opacity="0.2"/>
        <path id="Path_206918" data-name="Path 206918" d="M236.857,302.606s56.43-7.822,72.107,2.467-14.682,72.948-14.682,72.948l-9.5-2.108s7.12-49.672,6.587-51.749-27.107,11.469-63.478,12.755Z" transform="translate(-119.514 -187.196)" fill="#263238"/>
        <path id="Path_206919" data-name="Path 206919" d="M236.857,302.606s56.43-7.822,72.107,2.467-14.682,72.948-14.682,72.948l-9.5-2.108s7.12-49.672,6.587-51.749-27.107,11.469-63.478,12.755Z" transform="translate(-119.514 -187.196)" opacity="0.2"/>
        <path id="Path_206920" data-name="Path 206920" d="M282.86,369l11.953,3.985-2.144,5.6-10.978-3.837Z" transform="translate(-118.115 -183.446)" fill="#263238"/>
        <path id="Path_206921" data-name="Path 206921" d="M292.614,390.614c-1.293,0-3.57-2.108-4.042-2.614a.252.252,0,0,1-.061-.095v-.063a.334.334,0,0,1,.051-.19c.062-.074,1.56-2.108,3-2.172a1.454,1.454,0,0,1,1.19.432c.359.348.482.685.359,1-.195.506-1.026.78-1.96.949a4.053,4.053,0,0,1,2.052.938,1.071,1.071,0,0,1,.3.812.9.9,0,0,1-.544.938A.882.882,0,0,1,292.614,390.614Zm-3.181-2.5c1.19,1.054,2.77,2.193,3.334,1.961,0,0,.205-.074.226-.5a.567.567,0,0,0-.164-.432c-.554-.633-2.267-.928-3.4-1.012Zm2.237-2.108h-.092a4.272,4.272,0,0,0-2.288,1.55c1.57-.074,3.17-.379,3.334-.812.051-.137-.123-.337-.236-.443a1.01,1.01,0,0,0-.718-.274Z" transform="translate(-117.938 -182.554)" fill="#577afa"/>
        <path id="Path_206922" data-name="Path 206922" d="M278.719,382.166c.267-.78,9.429,2.962,9.429,2.962s3.858,7.938,9.029,11.163.944,5.629-5.3,3.531L276.4,394.647C271.938,393.171,275.959,390.219,278.719,382.166Z" transform="translate(-118.305 -182.739)" fill="#2e353a"/>
        <path id="Path_206923" data-name="Path 206923" d="M282.86,369l11.953,3.985-2.144,5.6-10.978-3.837Z" transform="translate(-118.115 -183.446)" fill="#fff" opacity="0.4"/>
        <path id="Path_206924" data-name="Path 206924" d="M315.486,408.944l-7,2.024-3.9-9.677-3.55-8.876,7.921-3.795,3.458,10.763Z" transform="translate(-117.612 -182.383)" fill="#eec1bb"/>
        <path id="Path_206925" data-name="Path 206925" d="M305.3,405.018c0-.822,9.87.074,9.87.074s5.9,6.483,11.748,8.054,2.473,5.113-4.1,4.955l-16.262-.422C301.887,417.562,304.9,413.546,305.3,405.018Z" transform="translate(-117.536 -181.514)" fill="#2e353a"/>
        <path id="Path_206926" data-name="Path 206926" d="M320.046,407.886a11.743,11.743,0,0,1-4.1-1.381h0l-.072-.053h0a.332.332,0,0,1,0-.084.208.208,0,0,1,0-.074h0a.175.175,0,0,1,0-.105c0-.116.913-2.435,2.257-2.973a1.432,1.432,0,0,1,1.262.074c.441.221.646.506.626.854-.051.538-.79,1.054-1.611,1.476a4,4,0,0,1,2.247.306,1.051,1.051,0,0,1,.5.685.977.977,0,0,1-.256,1.054,1.246,1.246,0,0,1-.851.221Zm-3.253-1.518c1.447.664,3.263,1.286,3.745.9,0,0,.174-.137.082-.538a.546.546,0,0,0-.277-.369C319.625,405.914,317.9,406.157,316.794,406.368Zm1.847-2.751a1,1,0,0,0-.38.074A4.438,4.438,0,0,0,316.5,405.8c1.488-.527,2.934-1.3,2.975-1.75,0-.148-.215-.3-.349-.358A1.059,1.059,0,0,0,318.64,403.616Z" transform="translate(-117.227 -181.599)" fill="#577afa"/>
        <path id="Path_206927" data-name="Path 206927" d="M312.479,399.6l-7.828,1.887-3.591-8.981,7.91-3.837Z" transform="translate(-117.612 -182.381)" opacity="0.2"/>
        <path id="Path_206928" data-name="Path 206928" d="M253.435,310.791s-.81-11.469-1.19-13.809a54.389,54.389,0,0,0-1.385-6.873c-2.473-7.643-35.643,1.349-35.643,1.349l-.944,5.271s-14.969,29-4.966,39.447c3.078,3.163,9,4.6,15.082,4.554,0,0,18.6.917,53.2-.738,0,0-2.565,20.7,25.947,61.268l9.542-3.163s-18.837-73.644-20.438-74.951C278.849,311.7,253.435,310.791,253.435,310.791Z" transform="translate(-120.087 -187.886)" fill="#263238"/>
        <path id="Path_206929" data-name="Path 206929" d="M299.38,395.142l11.85-4.312,1.611,5.787-10.988,3.816Z" transform="translate(-117.656 -182.264)" fill="#263238"/>
        <path id="Path_206930" data-name="Path 206930" d="M264.347,242.526s-1.19,2.994-2.852,8.222c-.4,1.223-.811,2.572-1.241,4.027-.564,1.908-1.17,4.006-1.775,6.325-.441,1.644-.882,3.363-1.313,5.176s-.893,3.774-1.334,5.766a4.31,4.31,0,0,1-.144.706,203.285,203.285,0,0,0-4.1,24.762l-36.443-3.268a241.266,241.266,0,0,1,1.241-24.6,121.882,121.882,0,0,1,3.806-20.936c1.447-4.934,3.314-9.171,5.715-11.944C225.9,236.8,245.663,230.14,264.347,242.526Z" transform="translate(-119.845 -190.703)" fill="#084a93"/>
        <path id="Path_206931" data-name="Path 206931" d="M245.386,231.654c-10.968-3.605-15.226,5.271-15.226,5.271l5.838-.59,11.85,15.285,6.946-9.245,4.371,2.414S254.886,234.775,245.386,231.654Z" transform="translate(-119.455 -190.931)" fill="#084a93"/>
        <path id="Path_206932" data-name="Path 206932" d="M245.386,231.654c-10.968-3.605-15.226,5.271-15.226,5.271l5.838-.59,11.85,15.285,6.946-9.245,4.371,2.414S254.886,234.775,245.386,231.654Z" transform="translate(-119.455 -190.931)" fill="#fff" opacity="0.6"/>
        <path id="Path_206933" data-name="Path 206933" d="M247.355,251.416,237.3,235.952c4.74-2.2,7.88-11.522,8.567-16.772l7.1,11.026c-2.319,3.542-3.868,7.59,1.447,10.647C254.434,240.854,247.344,251.385,247.355,251.416Z" transform="translate(-119.269 -191.56)" fill="#eec1bb"/>
        <path id="Path_206934" data-name="Path 206934" d="M248.5,223.45l4.207,6.525a15.937,15.937,0,0,0-1.426,2.572c-2.1-.97-4.34-4.217-3.817-6.462A7.6,7.6,0,0,1,248.5,223.45Z" transform="translate(-119.007 -191.329)" opacity="0.2"/>
        <path id="Path_206935" data-name="Path 206935" d="M214.618,292.33l11.4.77-.41,3.31-12.107-.9Z" transform="translate(-119.888 -187.598)"/>
        <path id="Path_206936" data-name="Path 206936" d="M252.2,298.337,226.64,296.46l.41-3.31,24.737,1.676Z" transform="translate(-119.546 -187.554)"/>
        <path id="Path_206937" data-name="Path 206937" d="M242.534,298.33h-.1l-3.078-.211a1.43,1.43,0,0,1-1.313-1.507l.082-2.108a1.408,1.408,0,0,1,.462-1.054,1.323,1.323,0,0,1,1.026-.38l3.2.19a1.392,1.392,0,0,1,.978.489,1.47,1.47,0,0,1,.345,1.06L243.981,297A1.441,1.441,0,0,1,242.534,298.33Zm-3.427-3.837-.092,2.108a.4.4,0,0,0,.359.411l3.078.221a.394.394,0,0,0,.41-.369l.154-2.182a.4.4,0,0,0-.092-.3.376.376,0,0,0-.267-.127l-3.2-.19a.384.384,0,0,0-.277.105.363.363,0,0,0-.123.274Z" transform="translate(-119.25 -187.559)" fill="#fff"/>
        <path id="Path_206938" data-name="Path 206938" d="M299.38,395.142l11.85-4.312,1.611,5.787-10.988,3.816Z" transform="translate(-117.656 -182.264)" fill="#fff" opacity="0.5"/>
        <path id="Path_206939" data-name="Path 206939" d="M245.816,226.02a1.4,1.4,0,0,0,.154.306c.1.211.215.4.328.611a11.393,11.393,0,0,0,2.637,3.4c3.5,2.983,6.515,3.932,9.234,3.162a1.4,1.4,0,0,0,.39-.126h0c4.022-1.56,7.182-6.325,9.86-12.755a26.041,26.041,0,0,0,2.247-7.9V212.3a9.6,9.6,0,0,0-3.529-8.3,18.147,18.147,0,0,0-3.365-2.256C252.116,195.523,240.184,214.446,245.816,226.02Z" transform="translate(-119.085 -192.571)" fill="#eec1bb"/>
        <path id="Path_206940" data-name="Path 206940" d="M270.8,212.885s-3.509,8.813-13.112,8.433c0,0-7.674,7.073-12.671,4.638-6.823-3.321-7.931-16.245-.677-25.068C253.765,189.44,273.464,198.316,270.8,212.885Z" transform="translate(-119.215 -192.834)" fill="#263238"/>
        <path id="Path_206941" data-name="Path 206941" d="M262.4,219.892c.646-1.328.7-4.08-1.447-4.818s-5.951,3.89-1.436,7.7C260.16,223.318,261.094,222.653,262.4,219.892Z" transform="translate(-118.747 -191.787)" fill="#eec1bb"/>
        <path id="Path_206942" data-name="Path 206942" d="M260.8,196.53s8.875,2.024,11.625,7.527c3.222,6.43,3.222,11.353-5.787,14.337,0,0-11.05-11.237-15.9-12.576a51.244,51.244,0,0,0-8.639-1.655C245.578,194.717,257.305,192.419,260.8,196.53Z" transform="translate(-119.145 -192.893)" fill="#263238"/>
        <path id="Path_206943" data-name="Path 206943" d="M258.024,220.346c-5.581,11.459-17.852,30.929-30.934,17.193,0,0,4.7-15.538,14.189-21.948S258.024,220.346,258.024,220.346Z" transform="translate(-119.535 -191.862)" fill="#263238"/>
        <path id="Path_206944" data-name="Path 206944" d="M255.27,238.688c4.771,3.626-1.334,15.559,4.689,18.216a5.931,5.931,0,0,1-.636-5.629c1.262-3.247,6.382-11.828,4.34-23.445Z" transform="translate(-118.802 -191.092)" fill="#263238"/>
        <path id="Path_206945" data-name="Path 206945" d="M231.564,262.806s-7.8,5.429-15.174,6.1a121.887,121.887,0,0,1,3.765-20.862,6.97,6.97,0,0,1,3.078-.928c5.479.105,7.48,5.387,7.48,5.387a57.366,57.366,0,0,1,.852,10.3Z" transform="translate(-119.813 -190.047)" opacity="0.2"/>
        <path id="Path_206946" data-name="Path 206946" d="M259.264,297.829l-1.642-2.024a2.936,2.936,0,0,0-2.524-1.054l-4.494.337a5.544,5.544,0,0,0-4.36,2.751l-.575.98c2.5,3.553,7.746,5.5,7.746,5.5l1.436.727a2.424,2.424,0,0,0,1.9.2,2.5,2.5,0,0,0,1.474-1.25l1.436-2.909A2.994,2.994,0,0,0,259.264,297.829Z" transform="translate(-119.052 -187.468)" fill="#eec1bb"/>
        <path id="Path_206947" data-name="Path 206947" d="M228.393,251.982a112.312,112.312,0,0,0,1.385,19.829,59.354,59.354,0,0,0,1.488,6.209l-.451-.917c2.37,3.721,5.838,7.168,8.865,10.542l5.068,5.376,5.13,5.408a2.721,2.721,0,0,1,.17,3.564,2.548,2.548,0,0,1-3.432.547c-2.124-1.381-4.1-2.836-6.156-4.311-6.259-4.839-12.568-9.361-17.442-15.812-4.248-9.667-5.284-20.409-4.925-30.908a5.214,5.214,0,1,1,10.414.538Z" transform="translate(-119.77 -190.08)" fill="#ebc0bb"/>
        <path id="Path_206948" data-name="Path 206948" d="M225.538,236.77c-6.72,2.372-9.5,9.751-9.8,22.232,3.437,3.279,14.744,2.193,14.744,2.193S232.525,242.283,225.538,236.77Z" transform="translate(-119.83 -190.608)" fill="#084a93"/>
        <path id="Path_206949" data-name="Path 206949" d="M297.6,306.872v3.3c0,.854-1.026,1.2-1.806,1.2H231.047c-.831,0-1.837-.348-1.837-1.2V306.84Z" transform="translate(-119.48 -186.813)" fill="#263238"/>
        <path id="Path_206950" data-name="Path 206950" d="M297.6,306.872v3.3c0,.854-1.026,1.2-1.806,1.2H231.047c-.831,0-1.837-.348-1.837-1.2V306.84Z" transform="translate(-119.48 -186.813)" fill="#fff" opacity="0.4"/>
        <path id="Path_206951" data-name="Path 206951" d="M297.044,306.872v3.3c0,.854-1.026,1.2-1.806,1.2h-42.7c-.831,0-1.816-.348-1.816-1.2V306.84Z" transform="translate(-118.92 -186.813)" opacity="0.2"/>
        <path id="Path_206952" data-name="Path 206952" d="M307.8,274.178l-7.716,35.915a2.622,2.622,0,0,1-2.5,2.045H255.512a1.691,1.691,0,0,1-1.332-.727,1.789,1.789,0,0,1-.248-1.529l7.705-35.652a2.4,2.4,0,0,1,2.493-1.76h42.117C307.355,272.47,308.043,273.029,307.8,274.178Z" transform="translate(-118.839 -188.674)" fill="#263238"/>
        <path id="Path_206953" data-name="Path 206953" d="M307.761,274.178l-7.715,35.915a2.622,2.622,0,0,1-2.5,2.045h-40.67a1.69,1.69,0,0,1-1.339-.723,1.79,1.79,0,0,1-.251-1.533l7.705-35.652a2.4,2.4,0,0,1,2.5-1.76h40.681C307.32,272.47,308.008,273.029,307.761,274.178Z" transform="translate(-118.804 -188.674)" fill="#fff" opacity="0.4"/>
        <path id="Path_206954" data-name="Path 206954" d="M286.413,291.7h0c0,3.068-3.211,5.566-5.561,5.566s-3.745-2.5-3.078-5.566,3.016-5.482,5.315-5.566c-.667,3.068.77,5.566,3.078,5.566Z" transform="translate(-118.222 -187.934)" opacity="0.2"/>
      </g>
    </g>
  </g>
</svg>
