<svg id="_20" data-name="20" xmlns="http://www.w3.org/2000/svg" xmlns:xlink="http://www.w3.org/1999/xlink" width="82.03" height="100" viewBox="0 0 82.03 100">
  <defs>
    <clipPath id="clip-path">
      <rect id="Rectangle_297370" data-name="Rectangle 297370" width="82.03" height="100" fill="#b9ddfc"/>
    </clipPath>
  </defs>
  <g id="Group_147731" data-name="Group 147731" clip-path="url(#clip-path)">
    <path id="Path_206113" data-name="Path 206113" d="M11.328,82.031a4.688,4.688,0,1,1-4.687-4.687,4.687,4.687,0,0,1,4.687,4.687" fill="#00defc" fill-rule="evenodd"/>
    <path id="Path_206114" data-name="Path 206114" d="M45.7,93.359a4.688,4.688,0,1,1-4.687-4.687A4.686,4.686,0,0,1,45.7,93.359" fill="#00defc" fill-rule="evenodd"/>
    <path id="Path_206115" data-name="Path 206115" d="M80.077,82.031a4.688,4.688,0,1,1-4.687-4.687,4.687,4.687,0,0,1,4.687,4.687" fill="#00defc" fill-rule="evenodd"/>
    <path id="Path_206116" data-name="Path 206116" d="M64.009,53.575a16.061,16.061,0,1,0,0-32.122,19.509,19.509,0,0,0-39.018,0v0A12.05,12.05,0,0,0,13.626,37.514H9.987a8.031,8.031,0,1,0,0,16.061h11.5a19.531,19.531,0,1,1,39.062,0Z" fill="#b9ddfc" fill-rule="evenodd"/>
    <path id="Path_206117" data-name="Path 206117" d="M60.046,51.991a17.041,17.041,0,0,0-1.741-7.51,19.539,19.539,0,0,0-34.579,0,17.064,17.064,0,0,0-.357,14.241,4.557,4.557,0,0,0,3.2,7.8h3.734v4.726a1.865,1.865,0,0,0,1.86,1.86H49.561a1.866,1.866,0,0,0,1.861-1.86V66.52h4.037a4.529,4.529,0,0,0,1.182-.156,4.553,4.553,0,0,0,2.021-7.642,17.019,17.019,0,0,0,1.384-6.731M44.994,55.528a3.125,3.125,0,1,1,3.125,3.125,3.125,3.125,0,0,1-3.125-3.125M33.912,52.4a3.125,3.125,0,1,1-3.125,3.125A3.125,3.125,0,0,1,33.912,52.4" fill="#ffb30b" fill-rule="evenodd"/>
    <path id="Path_206118" data-name="Path 206118" d="M37.037,55.528A3.125,3.125,0,1,1,33.912,52.4a3.125,3.125,0,0,1,3.125,3.125" fill="#ff0202" fill-rule="evenodd"/>
    <path id="Path_206119" data-name="Path 206119" d="M51.244,55.528A3.125,3.125,0,1,1,48.119,52.4a3.125,3.125,0,0,1,3.125,3.125" fill="#fc0d1b" fill-rule="evenodd"/>
    <path id="Path_206120" data-name="Path 206120" d="M33.912,50.45a5.078,5.078,0,1,0,5.078,5.078,5.084,5.084,0,0,0-5.078-5.078m0,6.25a1.172,1.172,0,1,1,1.172-1.172A1.174,1.174,0,0,1,33.912,56.7"/>
    <path id="Path_206121" data-name="Path 206121" d="M48.119,50.45A5.078,5.078,0,1,0,53.2,55.528a5.084,5.084,0,0,0-5.078-5.078m0,6.25a1.172,1.172,0,1,1,1.172-1.172A1.174,1.174,0,0,1,48.119,56.7"/>
    <path id="Path_206122" data-name="Path 206122" d="M13.449,29.564a1.952,1.952,0,0,0,2.62-.8l.006-.011c.011-.019.021-.039.031-.058a1.954,1.954,0,0,0-3.47-1.8l-.015.029a1.953,1.953,0,0,0,.828,2.635"/>
    <path id="Path_206123" data-name="Path 206123" d="M75.39,75.391a6.652,6.652,0,0,0-6.347,4.688H59.765a1.188,1.188,0,0,1-1.172-1.172V67.668a6.519,6.519,0,0,0,3.379-5.707A6.451,6.451,0,0,0,60.9,58.377a18.877,18.877,0,0,0,.77-2.848h2.344A18.014,18.014,0,0,0,65.883,19.6a21.464,21.464,0,0,0-42.768.027A13.991,13.991,0,0,0,19.2,20.75a1.953,1.953,0,0,0,1.616,3.556,10.115,10.115,0,0,1,9.224.448,1.953,1.953,0,0,0,1.953-3.383,13.972,13.972,0,0,0-4.956-1.723,17.557,17.557,0,0,1,34.922-.033,17.88,17.88,0,0,0-10.688,5.161,1.954,1.954,0,0,0,2.763,2.763,14.11,14.11,0,1,1,9.975,24.083H61.994c-.208-10.8-9.538-19.531-20.978-19.531S20.245,40.819,20.037,51.622H9.987a6.077,6.077,0,1,1,0-12.154h3.639a1.953,1.953,0,0,0,1.841-2.6,10.093,10.093,0,0,1-.574-3.363,1.953,1.953,0,1,0-3.907,0,14.172,14.172,0,0,0,.152,2.062H9.987a9.984,9.984,0,1,0,0,19.967H20.366a18.791,18.791,0,0,0,.77,2.848,6.451,6.451,0,0,0-1.077,3.584,6.518,6.518,0,0,0,3.379,5.707V78.907a1.188,1.188,0,0,1-1.172,1.172H12.988a6.64,6.64,0,1,0,0,3.906h9.278a5.084,5.084,0,0,0,5.078-5.078V68.474h1.01v2.772a3.818,3.818,0,0,0,3.813,3.814h6.9V87.013a6.64,6.64,0,1,0,3.906,0V75.06h6.592a3.818,3.818,0,0,0,3.814-3.814V68.474h1.312V78.907a5.084,5.084,0,0,0,5.078,5.078h9.278a6.641,6.641,0,1,0,6.347-8.594M6.641,84.766a2.735,2.735,0,1,1,2.734-2.734,2.737,2.737,0,0,1-2.734,2.734M41.015,96.094a2.735,2.735,0,1,1,2.734-2.734,2.737,2.737,0,0,1-2.734,2.734M51.422,64.568a1.953,1.953,0,0,0-1.953,1.953v4.633H46.844V69.625a1.953,1.953,0,1,0-3.906,0v1.529H39.093V69.625a1.953,1.953,0,1,0-3.906,0v1.529H32.26V66.521a1.953,1.953,0,0,0-1.953-1.953H26.573a2.6,2.6,0,0,1-1.831-4.457,1.949,1.949,0,0,0,.421-2.159,15.032,15.032,0,0,1-1.225-5.96C23.938,43.172,31.6,36,41.015,36s17.078,7.175,17.078,15.995a15.015,15.015,0,0,1-1.226,5.96,1.953,1.953,0,0,0,.421,2.159,2.585,2.585,0,0,1,.778,1.85,2.611,2.611,0,0,1-2.608,2.607Zm23.968,20.2a2.735,2.735,0,1,1,2.734-2.734,2.737,2.737,0,0,1-2.734,2.734"/>
    <path id="Path_206124" data-name="Path 206124" d="M30.514,91.406h-.047a1.953,1.953,0,1,0,0,3.906h.047a1.953,1.953,0,1,0,0-3.906"/>
    <path id="Path_206125" data-name="Path 206125" d="M51.563,91.406h-.048a1.953,1.953,0,0,0,0,3.906h.048a1.953,1.953,0,0,0,0-3.906"/>
    <path id="Path_206126" data-name="Path 206126" d="M6.641,90.579a1.953,1.953,0,0,0-1.953,1.953v.046a1.953,1.953,0,0,0,3.906,0v-.046a1.953,1.953,0,0,0-1.953-1.953"/>
    <path id="Path_206127" data-name="Path 206127" d="M75.39,90.579a1.953,1.953,0,0,0-1.953,1.953v.046a1.953,1.953,0,0,0,3.906,0v-.046a1.953,1.953,0,0,0-1.953-1.953"/>
    <path id="Path_206128" data-name="Path 206128" d="M8.594,71.53v-.046a1.953,1.953,0,1,0-3.906,0v.046a1.953,1.953,0,1,0,3.906,0"/>
    <path id="Path_206129" data-name="Path 206129" d="M73.437,71.484v.046a1.953,1.953,0,0,0,3.906,0v-.046a1.953,1.953,0,0,0-3.906,0"/>
  </g>
</svg>
