<svg xmlns="http://www.w3.org/2000/svg" xmlns:xlink="http://www.w3.org/1999/xlink" width="295" height="141" viewBox="0 0 295 141">
  <defs>
    <clipPath id="clip-path">
      <rect id="Rectangle_297424" data-name="Rectangle 297424" width="295" height="128.85" fill="none"/>
    </clipPath>
    <clipPath id="clip-path-3">
      <rect id="Rectangle_297413" data-name="Rectangle 297413" width="142.12" height="4.328" transform="translate(73.951 70.895)" fill="none"/>
    </clipPath>
  </defs>
  <g id="_22" data-name="22" transform="translate(-180 -6487)">
    <g id="Group_147750" data-name="Group 147750" transform="translate(180 6499)">
      <g id="Group_147749" data-name="Group 147749" clip-path="url(#clip-path)">
        <rect id="Rectangle_297401" data-name="Rectangle 297401" width="36.089" height="41.403" transform="translate(19.534 -0.001)" fill="#bfe8ff"/>
        <rect id="Rectangle_297402" data-name="Rectangle 297402" width="36.089" height="41.469" transform="translate(19.534 44.788)" fill="#bfe8ff"/>
        <rect id="Rectangle_297403" data-name="Rectangle 297403" width="36.816" height="41.403" transform="translate(58.601 -0.001)" fill="#bfe8ff"/>
        <rect id="Rectangle_297404" data-name="Rectangle 297404" width="36.816" height="41.469" transform="translate(58.601 44.788)" fill="#bfe8ff"/>
        <g id="Group_147748" data-name="Group 147748">
          <g id="Group_147747" data-name="Group 147747" clip-path="url(#clip-path)">
            <path id="Path_206184" data-name="Path 206184" d="M294.061,128.85H.938c-.518,0-.938-.172-.938-.383s.42-.383.938-.383H294.061c.518,0,.939.171.939.383s-.421.383-.939.383" fill="#2e5b99"/>
            <path id="Path_206185" data-name="Path 206185" d="M133.3,32.283V26.574a4.693,4.693,0,0,0-4.693-4.694H78.644a4.7,4.7,0,0,0-4.694,4.694V127.485H203.2v-95.2Z" fill="#fff"/>
            <path id="Path_206186" data-name="Path 206186" d="M133.719,32.283V26.574a4.694,4.694,0,0,0-4.694-4.694H79.06a4.7,4.7,0,0,0-4.694,4.694V127.485H203.613v-95.2Z" fill="#0f4599"/>
            <path id="Path_206187" data-name="Path 206187" d="M78.7,36.228v91.258H198.424V35.78Z" fill="#bae2ff"/>
            <path id="Path_206188" data-name="Path 206188" d="M85.269,36.228v91.258H205V35.78Z" fill="#1480cc"/>
            <path id="Path_206189" data-name="Path 206189" d="M209.824,32.284H91.541A4.493,4.493,0,0,0,86.976,36.2v91.286h129.1V38.515a6.418,6.418,0,0,0-6.247-6.231" fill="#fff"/>
            <rect id="Rectangle_297405" data-name="Rectangle 297405" width="73.511" height="55.866" transform="translate(118.911 15.392) rotate(-0.161)" fill="#ebf3ff"/>
            <rect id="Rectangle_297406" data-name="Rectangle 297406" width="69.75" height="51.358" transform="translate(120.76 17.209) rotate(-0.16)" fill="#3397ff"/>
            <path id="Path_206190" data-name="Path 206190" d="M126.782,64.429l44.824-.126L147.1,40.791Z" fill="#e3eeff"/>
            <path id="Path_206191" data-name="Path 206191" d="M147.164,64.372l37.662-.1L164.39,44.834Z" fill="#e3eeff"/>
            <path id="Path_206192" data-name="Path 206192" d="M166.288,35.546a5.191,5.191,0,1,1-5.205-5.176,5.191,5.191,0,0,1,5.205,5.176" fill="#e3eeff"/>
            <rect id="Rectangle_297407" data-name="Rectangle 297407" width="68.15" height="59.266" transform="matrix(1, -0.003, 0.003, 1, 133.771, 8.691)" fill="#ebf3ff"/>
            <rect id="Rectangle_297408" data-name="Rectangle 297408" width="64.28" height="54.484" transform="translate(135.673 10.62) rotate(-0.185)" fill="#3397ff"/>
            <rect id="Rectangle_297409" data-name="Rectangle 297409" width="25.601" height="2.249" transform="translate(141.986 18.141)" fill="#cce5ff"/>
            <rect id="Rectangle_297410" data-name="Rectangle 297410" width="52.085" height="2.249" transform="translate(141.986 24.215)" fill="#cce5ff"/>
            <rect id="Rectangle_297411" data-name="Rectangle 297411" width="52.085" height="2.249" transform="translate(141.986 30.399)" fill="#cce5ff"/>
            <path id="Path_206193" data-name="Path 206193" d="M210.393,32.284H92.11A4.493,4.493,0,0,0,87.545,36.2v91.286h129.1V38.515a6.418,6.418,0,0,0-6.247-6.231" fill="#66b8ff"/>
            <rect id="Rectangle_297412" data-name="Rectangle 297412" width="13.026" height="0.525" transform="translate(73.95 126.96)" fill="#fff"/>
            <g id="Group_147746" data-name="Group 147746" opacity="0.5" style="mix-blend-mode: darken;isolation: isolate">
              <g id="Group_147745" data-name="Group 147745">
                <g id="Group_147744" data-name="Group 147744" clip-path="url(#clip-path-3)">
                  <path id="Path_206194" data-name="Path 206194" d="M73.951,70.895l4.745,3.1h6.524l1.757,1.232V74.068H216.07V70.895Z"/>
                </g>
              </g>
            </g>
            <rect id="Rectangle_297414" data-name="Rectangle 297414" width="146.584" height="16.562" transform="translate(72.117 55.749)" fill="#61b3f2"/>
            <rect id="Rectangle_297415" data-name="Rectangle 297415" width="133.388" height="16.562" transform="translate(85.313 55.749)" fill="#2e97e6"/>
            <path id="Path_206195" data-name="Path 206195" d="M122.188,55.749V72.306h11.59l-8.126-16.557Z" fill="#0e0e0e"/>
            <path id="Path_206196" data-name="Path 206196" d="M122.542,55.755h-3.077V72.306h3.077c1.008,0,1.922-.91,2.578-2.437a14.714,14.714,0,0,0,1.073-5.857c0-4.547-1.632-8.257-3.651-8.257m-.288,8.257c0-1.382.448-2.51,1.024-2.692.577.182,1.025,1.31,1.025,2.692,0,1.419-.448,2.546-1.025,2.728-.576-.182-1.024-1.309-1.024-2.728" fill="#2475b3"/>
            <path id="Path_206197" data-name="Path 206197" d="M120.805,55.755h-1.34V72.306h1.34c1.056,0,2.011-.91,2.7-2.437a14.164,14.164,0,0,0,1.122-5.857c0-4.547-1.709-8.257-3.821-8.257m.872,10.985c-.6-.182-1.073-1.309-1.073-2.728,0-1.382.47-2.51,1.073-2.692a3.228,3.228,0,0,1,0,5.42" fill="#3f9ee6"/>
            <path id="Path_206198" data-name="Path 206198" d="M121.068,55.755H117.99V72.306h3.078c1.008,0,1.921-.91,2.578-2.437a14.714,14.714,0,0,0,1.073-5.857c0-4.547-1.633-8.257-3.651-8.257m-.289,8.257c0-1.382.449-2.51,1.025-2.692.577.182,1.025,1.31,1.025,2.692,0,1.419-.448,2.546-1.025,2.728-.576-.182-1.025-1.309-1.025-2.728" fill="#2475b3"/>
            <path id="Path_206199" data-name="Path 206199" d="M119.33,55.755h-1.34V72.306h1.34c1.056,0,2.011-.91,2.7-2.437a14.164,14.164,0,0,0,1.122-5.857c0-4.547-1.709-8.257-3.821-8.257M120.6,66.74c-.6-.182-1.073-1.309-1.073-2.728,0-1.382.47-2.51,1.073-2.692.6.182,1.072,1.31,1.072,2.692,0,1.419-.469,2.546-1.072,2.728" fill="#61b3f2"/>
            <path id="Path_206200" data-name="Path 206200" d="M121.082,72.413h-.019a.108.108,0,0,1,.009-.216,2.343,2.343,0,0,0,1.543-.744c.866-.837,1.9-2.738,1.9-7.045,0-7.859-3.429-8.542-3.464-8.548a.108.108,0,1,1,.037-.212A3.315,3.315,0,0,1,122.93,57c.821,1.07,1.8,3.224,1.8,7.408,0,4.392-1.073,6.345-1.973,7.209a2.544,2.544,0,0,1-1.674.8" fill="#1a5380"/>
            <path id="Path_206201" data-name="Path 206201" d="M120.605,66.518c-.146.036-.254.073-.4.109.037.037.037.037,0,.037A14.2,14.2,0,0,0,110.02,80.232V94.058h-4.656V80.232A18.832,18.832,0,0,1,120.06,61.9a2.91,2.91,0,0,1,.545-.144c1.346-.292,1.456,4.546,0,4.764" fill="#ccc"/>
            <path id="Path_206202" data-name="Path 206202" d="M126.117,61.506v4.63A14.294,14.294,0,0,1,138.253,77.18a1.508,1.508,0,0,1,.073.364,8.574,8.574,0,0,1,.146.945,14.028,14.028,0,0,1,.109,1.746V94.062h4.62V80.235a18.887,18.887,0,0,0-17.084-18.729" fill="#ccc"/>
            <path id="Path_206203" data-name="Path 206203" d="M120.713,65.152c-10.918,1.915-12.324,13.8-12.324,13.8V94.061h1.638V80.235A14.242,14.242,0,0,1,120.6,66.528c.464-.151.753-1.508.753-1.508s-.287.064-.642.132" fill="gray"/>
            <path id="Path_206204" data-name="Path 206204" d="M126.117,65.152v.984A14.293,14.293,0,0,1,138.253,77.18a13.594,13.594,0,0,0-12.136-12.028" fill="gray"/>
            <path id="Path_206205" data-name="Path 206205" d="M120.605,66.518c-.146.036-.254.073-.4.109a4.891,4.891,0,0,0,.774-2.334c.073-1.419-.409-2.378-.919-2.4a2.91,2.91,0,0,1,.545-.144c1.346-.292,1.456,4.546,0,4.764" fill="#666"/>
            <path id="Path_206206" data-name="Path 206206" d="M105.416,94.917a.212.212,0,0,1-.212-.212V80.658a19.621,19.621,0,0,1,.53-4.781,18,18,0,0,1,4.842-8.945.213.213,0,0,1,.3.306,17.561,17.561,0,0,0-4.72,8.721,19.533,19.533,0,0,0-.523,4.684V94.705a.212.212,0,0,1-.212.212" fill="#fff"/>
            <rect id="Rectangle_297416" data-name="Rectangle 297416" width="45.87" height="37.495" transform="translate(101.368 90.288)" fill="#f7af0c"/>
            <path id="Path_206207" data-name="Path 206207" d="M118.376,105.206a5.728,5.728,0,0,0,3.346,5.214v9.657a2.361,2.361,0,0,0,1.856,2.314h.109a1.219,1.219,0,0,0,.364.037,2.355,2.355,0,0,0,2.327-2.351V110.42a5.766,5.766,0,0,0,3.347-5.214,5.678,5.678,0,0,0-5.674-5.692,1.742,1.742,0,0,0-.437.037,5.641,5.641,0,0,0-5.238,5.655" fill="#cc840a"/>
            <path id="Path_206208" data-name="Path 206208" d="M118.376,105.206a5.728,5.728,0,0,0,3.346,5.214v9.657a2.361,2.361,0,0,0,1.856,2.314h.109a2.36,2.36,0,0,0,1.855-2.314V110.42a5.768,5.768,0,0,0,3.347-5.214,5.271,5.271,0,1,0-10.513,0" fill="#803d00"/>
            <path id="Path_206209" data-name="Path 206209" d="M132.683,127.784h14.556V90.289H143.2s1.073,27.666-10.517,37.495" fill="#e6950b"/>
            <path id="Path_206210" data-name="Path 206210" d="M111.217,127.784c-3.476-7.439-2.828-27.437-2.828-37.495h-4.62v37.495Z" fill="#f7e4ad"/>
            <path id="Path_206211" data-name="Path 206211" d="M240.583,54.543a7.4,7.4,0,0,1,1.625,6.564c3.574,2.989,3.964,8.318,3.444,10.788,6.166,5.589,4.647,13.574.347,15.922-4.1,2.238-10.1.12-12.565-5.113-3.924-6.557-7.755-18.8-1.581-25.237-1.3-4.528,6.954-5.264,8.73-2.924" fill="#0e0e0e"/>
            <path id="Path_206212" data-name="Path 206212" d="M232.293,65.151l-6.092-6.19.006-10.712-2.012-.265s-1.647,9.742-1.642,11.812c.005,1.838,6.173,9.828,6.173,9.828Z" fill="#ffa599"/>
            <path id="Path_206213" data-name="Path 206213" d="M240.974,71.086l-3.362,9.232h-8.921s-.582-5.707-.705-8.744A11.877,11.877,0,0,1,228,69.947c.3-2.2,3.918-5.178,3.918-5.178a.365.365,0,0,0,.081-.014c.719-.081,5.613-.624,7.4.881,1.912,1.627,1.573,5.45,1.573,5.45" fill="#ffb30b"/>
            <path id="Path_206214" data-name="Path 206214" d="M240.418,91.642h-7.939a40.637,40.637,0,0,0,1.4,4.816c3.232,8.856,4.809,20.713,8.221,28.524,0,0,1.468.761,2.443,0-.666-5.878-.619-9.523-2.534-19.261-.668-2.832-.4-9.6-1.592-14.079" fill="#ffa599"/>
            <path id="Path_206215" data-name="Path 206215" d="M227.065,91.642c-1.029,9.821-2.922,31.035-3.13,33.224l2.523.013c1.654-5.621,3.765-10.665,3.951-17.795,1.287-3.924,3.43-10.523,5.037-15.442Z" fill="#ffa599"/>
            <path id="Path_206216" data-name="Path 206216" d="M240.635,93.6l-5.994.494-1.455.12-6.435.534c-.279,2.726-.59,5.963-.9,9.292,1.937.8,4.64,1.962,4.872,2.066l3.152-9.649c.923,3.006,2.051,6.936,2.9,10a23.852,23.852,0,0,1,5.048-1.768c-.314-3.554-.7-7.639-1.2-11.093" fill="#e87c5d"/>
            <path id="Path_206217" data-name="Path 206217" d="M238.692,65.7l5.9-4.528L242.712,51.2l2.151-.663s4.655,9.414,4.65,11.485c-.005,1.837-8.54,9.11-8.54,9.11-1.4.661-3.482-2.426-2.281-5.433" fill="#ffa599"/>
            <path id="Path_206218" data-name="Path 206218" d="M232.847,64.5s-2.509,1.716-1.572,3c.807,1.1,2.8-.155,2.8-.155s.335,1.71,1.673,1.482c1.86-.318,2.25-3.058,1.471-3.952s-3.461-.837-4.37-.375" fill="#fff"/>
            <path id="Path_206219" data-name="Path 206219" d="M237.116,65.451c0,.746-1.24,1.817-2.971,1.731-1.1-.055-1.716-.678-1.536-1.451l.19-.989.528-2.82,4.031.108Z" fill="#ffa599"/>
            <path id="Path_206220" data-name="Path 206220" d="M237.083,62.559c-.556,1.162-1.655,2.054-4.284,2.183l.529-2.82,3.741.108Z" fill="#e87c5d"/>
            <path id="Path_206221" data-name="Path 206221" d="M238.926,60.36a4.585,4.585,0,0,1-6.006,2.728,4.322,4.322,0,0,1-.808-5.771c-.664-3.75,3.49-5.538,6.15-4,2.281,1.316,2.128,4.349.664,7.047" fill="#ffa599"/>
            <path id="Path_206222" data-name="Path 206222" d="M245.61,103.013a31.182,31.182,0,0,1-8.3,1.5c-5.924.339-12.725-.642-13.335-1.713a140.1,140.1,0,0,1,4.727-22.486h8.906a14.083,14.083,0,0,1,3.918,5.694,103.538,103.538,0,0,1,4.081,17" fill="#ffb30b"/>
            <path id="Path_206223" data-name="Path 206223" d="M219.374,127.419c0-.031,1.5-.033,3.1-.026,1.845.006,4.142.026,4.142.026a8.333,8.333,0,0,0-.162-2.541l-2.891-.015a19.569,19.569,0,0,0-2.205.564c-.093.028-.192.048-.293.072-2.246.521-1.694,1.986-1.694,1.92" fill="#fdfeff"/>
            <path id="Path_206224" data-name="Path 206224" d="M219.374,127.419c0-.031,1.5-.033,3.1-.026a1.42,1.42,0,0,0,.076-.461,1.619,1.619,0,0,0-1.192-1.5c-.093.025-.192.048-.293.072-2.246.521-1.694,1.986-1.694,1.92" fill="#d9ecff"/>
            <rect id="Rectangle_297417" data-name="Rectangle 297417" width="7.492" height="0.455" transform="translate(219.227 126.966)" fill="#d9ecff"/>
            <path id="Path_206225" data-name="Path 206225" d="M241.936,127.522c.043,0,.778-.009,1.688-.017,1.482-.014,3.43-.026,3.613.017.516-1.248-.554-1.888-1.541-2.241-.42-.149-.826-.246-1.086-.315l-2.511.015a8.336,8.336,0,0,0-.163,2.541" fill="#fdfeff"/>
            <rect id="Rectangle_297418" data-name="Rectangle 297418" width="5.548" height="0.455" transform="translate(241.837 127.069)" fill="#d9ecff"/>
            <path id="Path_206226" data-name="Path 206226" d="M243.624,127.5c1.482-.014,3.43-.026,3.613.017.516-1.248-.554-1.888-1.541-2.241a2.046,2.046,0,0,0-1.763.582,1.414,1.414,0,0,0-.309,1.642" fill="#d9ecff"/>
            <path id="Path_206227" data-name="Path 206227" d="M233.24,81.429a11.721,11.721,0,0,1-4.623-.924.2.2,0,0,1,.177-.366,11.3,11.3,0,0,0,8.731,0,.2.2,0,1,1,.164.372,11,11,0,0,1-4.449.921" fill="#fff"/>
            <path id="Path_206228" data-name="Path 206228" d="M229.16,56.882c2.773,3.314,6.412-3.293,8.858-1.217,0,0,.216,4.954,1.882,3.288.519-.62,1.1-3.548-.281-4.521.033-1.6-2.632-3.182-5.751-2.431a3.971,3.971,0,0,0-2.955,2.9,1.426,1.426,0,0,0-1.753,1.976" fill="#0e0e0e"/>
            <rect id="Rectangle_297419" data-name="Rectangle 297419" width="5.623" height="55.387" transform="translate(203.015 43.464) rotate(-79.652)" fill="#0c3980"/>
            <rect id="Rectangle_297420" data-name="Rectangle 297420" width="0.374" height="55.387" transform="translate(203.977 38.194) rotate(-79.652)" fill="#fff"/>
            <path id="Path_206229" data-name="Path 206229" d="M269.876,37.8a14.771,14.771,0,1,0,11.881,17.181A14.778,14.778,0,0,0,269.876,37.8m6.688,15.766c-.013.147-.04.307-.066.454a9.421,9.421,0,0,1-18.6-.361,9.254,9.254,0,0,1,.054-3.03,9.425,9.425,0,0,1,18.623,2.87.116.116,0,0,1-.014.067" fill="#0c3980"/>
            <rect id="Rectangle_297421" data-name="Rectangle 297421" width="10.907" height="5.198" transform="translate(205.569 51.294) rotate(-79.648)" fill="#0c3980"/>
            <rect id="Rectangle_297422" data-name="Rectangle 297422" width="8.265" height="5.198" transform="translate(215.782 51.339) rotate(-79.648)" fill="#0c3980"/>
            <path id="Path_206230" data-name="Path 206230" d="M276.577,53.5a9.425,9.425,0,0,0-18.623-2.87,9.281,9.281,0,0,0-.054,3.03,8.9,8.9,0,0,1-.24-2.082,9.559,9.559,0,1,1,19.117,0,9.149,9.149,0,0,1-.2,1.922" fill="#0a3366"/>
            <path id="Path_206231" data-name="Path 206231" d="M267.763,37.509c-11.038-.448-14.673,9.547-14.712,9.66l.529.084c.154-.44,3.538-9.71,14.183-9.217Z" fill="#fff"/>
            <path id="Path_206232" data-name="Path 206232" d="M226.064,48.459s.789-.19,1.006-1.542.249-1.037.249-1.037-.743-.384-1.137,1.176c-1.167-.078-2.1.477-2.038,1.231.04.463,1.777.382,1.92.172" fill="#ffa599"/>
            <path id="Path_206233" data-name="Path 206233" d="M224.257,47.886l-.114-.071a2.193,2.193,0,0,1,1.987-.827c.225-.885.651-1.3,1.2-1.173l-.03.13c-.614-.143-.914.534-1.057,1.128l-.013.053-.055,0a2.123,2.123,0,0,0-1.921.762" fill="#ff7e59"/>
            <path id="Path_206234" data-name="Path 206234" d="M242.826,51.757s-1.162-.388-1.622-2.808c.747-.532,1.041.873,1.041.873a5.381,5.381,0,0,1,2.127.319c.458.208.567.46.824,1.107.659,1.392-2.37.509-2.37.509" fill="#ffa599"/>
            <path id="Path_206235" data-name="Path 206235" d="M245.183,51.311a.066.066,0,0,1-.062-.043s-.086-.219-.254-.593c-.484-.947-2.6-.789-2.617-.787l-.055,0-.015-.052a4.6,4.6,0,0,0-.295-.717.33.33,0,0,0-.2-.181.693.693,0,0,0-.452.065.067.067,0,1,1-.062-.118.819.819,0,0,1,.554-.075.467.467,0,0,1,.279.249,4.994,4.994,0,0,1,.287.688c.349-.021,2.209-.085,2.695.866.171.381.257.6.258.6a.065.065,0,0,1-.038.086.052.052,0,0,1-.024.005" fill="#ff7e59"/>
            <path id="Path_206236" data-name="Path 206236" d="M238.606,59.85a.921.921,0,1,0,.92-.92.92.92,0,0,0-.92.92" fill="#ffa599"/>
            <path id="Path_206237" data-name="Path 206237" d="M223.978,102.932h-.012a.127.127,0,0,1-.115-.138,128.524,128.524,0,0,1,4.689-22.529c-.04-.5-.663-8.21-.667-10.316,0-1.9,3.758-5.222,3.918-5.362a.127.127,0,1,1,.168.191c-.038.034-3.836,3.382-3.832,5.171.005,2.155.662,10.239.669,10.32l0,.025-.008.023a128.479,128.479,0,0,0-4.685,22.5.129.129,0,0,1-.127.116" fill="#fff"/>
          </g>
        </g>
      </g>
    </g>
    <rect id="Rectangle_297425" data-name="Rectangle 297425" width="295" height="141" transform="translate(180 6487)" fill="none"/>
  </g>
</svg>
