<svg id="_23" data-name="23" xmlns="http://www.w3.org/2000/svg" xmlns:xlink="http://www.w3.org/1999/xlink" width="505" height="543.766" viewBox="0 0 505 543.766">
  <defs>
    <clipPath id="clip-path">
      <rect id="Rectangle_297433" data-name="Rectangle 297433" width="505" height="543.766" fill="none"/>
    </clipPath>
    <clipPath id="clip-path-3">
      <rect id="Rectangle_297431" data-name="Rectangle 297431" width="145.132" height="172.069" transform="translate(215.69 273.504)" fill="none"/>
    </clipPath>
  </defs>
  <g id="Group_147760" data-name="Group 147760" clip-path="url(#clip-path)">
    <g id="Group_147759" data-name="Group 147759">
      <g id="Group_147758" data-name="Group 147758" clip-path="url(#clip-path)">
        <path id="Path_206238" data-name="Path 206238" d="M395.22,292.953a20.17,20.17,0,0,1-14.814-6.436,17.105,17.105,0,0,1-22.913-.02l-3.464.157.03-.175a17.143,17.143,0,0,1,.757-34.2c.394-.018.794-.02,1.2-.007a26.117,26.117,0,0,1,37.25-28.544,25.8,25.8,0,0,1,49.35-5.7,18.828,18.828,0,0,1,24.772,16.634,12.682,12.682,0,0,1,1.509-.162,13.211,13.211,0,0,1,13.128,9.02,18.475,18.475,0,0,1,3.314-.463h0a18.8,18.8,0,0,1,2.583,37.5,17.092,17.092,0,0,1-22.585,2.312,20,20,0,0,1-31.9.977,17.123,17.123,0,0,1-22.1,1.194,20.17,20.17,0,0,1-15.172,7.884c-.315.014-.63.021-.943.021m-14.676-10.135.9,1.091a17.831,17.831,0,0,0,28.622-1.371l.8-1.187,1.068.953a14.622,14.622,0,0,0,20.691-1.2l1.059-1.191.9,1.311a17.506,17.506,0,0,0,29.387-.814l.762-1.248,1.115.947a14.6,14.6,0,0,0,20.53-1.567l.342-.394.522-.034a16.3,16.3,0,0,0-1.79-32.55h0a16.356,16.356,0,0,0-3.94.686l-1.281.382-.3-1.3a10.663,10.663,0,0,0-13.432-7.9l-1.629.473.036-1.958c.006-.262.014-.526,0-.792a16.3,16.3,0,0,0-22.544-14.358l-1.216.5-.439-1.24a23.3,23.3,0,0,0-45.184,5.756l-.171,1.982-1.712-1.013a23.6,23.6,0,0,0-34.809,26.55l.489,1.806-1.856-.239a14.636,14.636,0,1,0-1.942,29.148l.779,0,2.129-.1.386.371a14.608,14.608,0,0,0,20.745-.479Z" fill="#b7dcf7"/>
        <path id="Path_206239" data-name="Path 206239" d="M67.736,351.98a23.912,23.912,0,0,1-17.722-7.807,20.233,20.233,0,0,1-27.357.073l-3.949.178.03-.174a20.277,20.277,0,0,1,.635-40.476c.567-.025,1.143-.024,1.735,0a30.738,30.738,0,0,1-.653-5.018,31.03,31.03,0,0,1,45.139-29.042,30.647,30.647,0,0,1,58.753-6.885,22.3,22.3,0,0,1,29.57,19.9,15.112,15.112,0,0,1,2.048-.238,15.551,15.551,0,0,1,15.542,10.845,21.864,21.864,0,0,1,4.143-.6,22.264,22.264,0,0,1,2.963,44.419,20.22,20.22,0,0,1-26.981,2.658,23.7,23.7,0,0,1-38.117,1.152,20.254,20.254,0,0,1-26.53,1.449,23.913,23.913,0,0,1-18.13,9.539q-.561.025-1.119.025M50.152,340.464l.9,1.091a21.595,21.595,0,0,0,34.663-1.66l.8-1.187,1.068.953A17.755,17.755,0,0,0,112.7,338.2l1.059-1.191.9,1.311a21.206,21.206,0,0,0,35.6-.986l.762-1.249,1.115.947a17.725,17.725,0,0,0,24.927-1.9l.342-.4.521-.034a19.762,19.762,0,1,0-6.947-38.633l-1.281.383-.3-1.3a13.012,13.012,0,0,0-16.392-9.635l-1.631.473.039-1.994c.008-.325.017-.65,0-.979A19.766,19.766,0,0,0,124.1,265.6l-1.217.5-.439-1.24a28.144,28.144,0,0,0-54.575,6.954l-.171,1.982-1.712-1.014a28.5,28.5,0,0,0-42.041,32.065l.489,1.8-1.856-.238a17.77,17.77,0,1,0-2.357,35.389l.942,0,2.446-.11.386.371a17.738,17.738,0,0,0,25.187-.582Z" fill="#b7dcf7"/>
        <path id="Path_206240" data-name="Path 206240" d="M410.33,229.646a166.6,166.6,0,0,1-92.389,149.06h-.012A166.363,166.363,0,0,1,108.114,133.577a167.632,167.632,0,0,1,30.331-32.57q2.634-2.145,5.346-4.2A166.353,166.353,0,0,1,410.33,229.646" fill="#b9ddfc"/>
        <path id="Path_206241" data-name="Path 206241" d="M334.577,123.262c-4.357-5.437-1.3-6.737-5.579-10.483s-4.514-7.648-2.915-8.949-.61-4.279-.767-6.816-5.7-3.589-7.413-6.919,3.434.806,6.256.806,2-3.33,4.526-.923c2.159,2.067,4.709,3.928,8.988,2.172A166.111,166.111,0,0,0,300.9,73.277a18.341,18.341,0,0,0,2.875,3.16c3.9,3.213,11.6,6.426,11.134,8.26s-9.976-1.483-12.161.585-1.145,3.785-7.466,2.979-12.045-1.5-14.113-.352-5.281-.676-7.687,3.565-4.591,2.757-5.736,1.5-8-6.659-10.6-2.991-4.279,10.262-8.1,11.017-14.243-8.715-16.3-9.184-1.951,8.156-4.37,9.079-8.949.456-6.881-3.8-7.973,6.659-9.95,4.37,2.9-16.532,0-15.609-7.037,6.426-11.4,6.426-12.394-1.613-13.318-2.992-4.969,2.224-8.338,3.447-10.366,2.185-8.533-.807,4.358-.221,7.922-2.067,5.97-5.854,5.28-7.454,4.593-1.027,1.5-2.978-6.205,1.366-8.038,1.366c-.794,0-.521-1.444-.339-3.174a166.075,166.075,0,0,0-32.492,19.185,6.164,6.164,0,0,0,6.01-.858c7.349-4.891,11.706-7.414,12.851-6.582s-7.648,5.125-6.5,5.814,3.98-.988,3.759.611,2.666.391,2.368,1.77-3.135.689-4.358.221-4.669-.689-5.281-.144c-.572.508-10.171,9.457-14.19,3.369a167.635,167.635,0,0,0-30.332,32.57c.377,2.77,1.353,4.617,3.668,2.2,5.164-5.4,11.017-9.989,11.238-8.376s-4.631,5.423-2.862,5.775,2.719-3.707,3.98-3.668,1.873.988.95,2.016-4.592,3.837-4.059,5.554-1.795,12.122-4.89,10.171-.287-3.668-1.21-6.074-3.668-3.681-5.853-1.782-6.139,8.545-4.761,10.731-.806,3.329.69,4.929-9.443,19.862-12.2,6.244a3.019,3.019,0,0,0-.234-.729,167.163,167.163,0,0,0-9.651,110.976c2.185-3.356,15.465-24.258,9.352-28.694-6.66-4.812-10.106-26.17-7.349-38.331s5.5-28.121,8.26-27.887-4.124,13.085-4.475,23.529-5.854,30.177.69,33.741,15.881-2.446,16.792-6.582,8.337-4.722,5.593-10.861-2.185-9.235-1.9-10.561-6.426,3.1-7.57.689,2.523-3.954.285-7.167,1.223-16.558,3.37-12.343c2.132,4.214-2.147,8.727.754,13.007s5.124.988,5.281,6.88,11.784,9.95,14.008,10.952.69,15.986,8.025,22.177,1,7.5,4.514,19.744,2.458,21.423,6.582,25.559,2.913-2.38,5.67-2.445,1.145,6.8,2.212,9.1,5.593,5.658,6.048,2.132-2.758-10.86-4.826-13.995,1.613-4.747,1.158-7.8-2.069-9.106,2.055-8.572,14.385-6.5,14.385-9.561,6.817-.156,7.427-5.281,6.348,2.29,12.24-.234,2.068,5.658,7.037,11.174.156,8.038.533,9.95,6.048,2.9,8.805-.768,4.2,3.746,3.981,6.049,3.056,10.249.767,19.432,6.725,9.027,7.492,13.917,7.8,9.873,8.494,12.279-5.281-2.055-7.466-2.979-16.87-12.629-18.47-11.94,4.227,8.064,9.639,11.134c6.88,3.9,3.6,8.533,8.038,11.368,6.646,4.24,10.093,11.238,13.657,12.851s8.987.65,7.765-2.94,2.289-6.971-1.912-8.038-6.425-1.067-7.271-4.747,3.824-1.77,1.639-5.164c-2.862-4.474-1.561-9.066-3.863-10.9s-7.726-4.969-8.637-8.038-2.51-3.278-2.38-6.062c.091-2.029-3.512-.143-2.289-5.111,1.443-5.918,2.6-4.891,2.6-9.105s2.6.767,2.523,2.913,3.291.157,4.592,2.289c1.3,2.147,2.758.547,3.057,3.9s6.581,2.913,6.126,8.493,6.959-2.133,7.114-3.824,12.162-3.9,9.327-12.929-5.775-12.59-9.795-14.88-1.262-7.57.117-8.376,4.475-5.971,7.232-5.515-2.406,8.272.118,10.327,8.727-.051,7.114-4.214,1.145-5.541,3.564-5.879a19.894,19.894,0,0,0,9.4-4.826c2.757-2.64,12.058-3.212,15.842-12.968s9.067-11.017,6.075-20.537-9.886-9.535-9.6-13.632c.26-3.642,8.077-4.188,6.009-7.973s-6.621.663-8.22-.091-3.148-5.541-1.77-9.222,5.2-1.3,5.815,2.38,4.435-4.513,9.183-2.3-.911,3.9,0,6.816,6.62.845,5.931,7.154,2.3,4.929,4.019,4.929,7.115-2.862,5.047-8.494-2.368-7.036-5.281-9.937,2.913-11.329,1.379-14.087c-1.536-2.743,18.366,4.9,15.153-10.548s-5.736-17.585-5.164-20.915,6.36,7.232,6.712,9.469,3.16,4.019,3.16,5.567.495-2.849-1.118-5.9-4.813-12.474-9.248-16.61-5.749.924-8.65,1.3c-2.914.391-6.283-1.912-5.2-5.046s3.369-5.892,3.057-9.95,6.269-2.069,7.57-4.28,4.748,3.9,6.282,0-1.612-6.5-1-7.882,3.681,3.525,3.07-1.756,3.9,4.123,3.823,7.492,2.979,8.949,5.971,12.708,7.869,4.89,8.415,9.105,1.522-4.67-2.836-10.107m-201,20.434c-2.64,1.717-3.9,5.281-4.473,8.715s-3.9,5.164-4.475,7.583-5.046,9.066-1.612,9.521-3.1,4.475-5.854-.923c-.637-1.249-1.482-7.219,3.785-11.239s2.641-10.327,6.322-14.229,5.853-4.709,7.114-4.019,1.835,2.861-.807,4.591m115.763-2.6c.768,1.99-13.618,8.871-12.552,5.047,0,0,10.106-4.748,9.795-8.416s2.3-5.814,3.681-5.2-1.692,6.582-.924,8.572" fill="#d6eaff"/>
        <path id="Path_206242" data-name="Path 206242" d="M325.415,168.361c-.927-.163,2.41-4.476,1.607-5.91s-3.329-5.222-2.353-5.739,3.041,1.492,4.763,2.067,5.451,1.492,5.05,2.927-1.837.63-1.837,2.237-1.893,1.78-3.787,1.721-2.467,2.87-3.443,2.7" fill="#d6eaff"/>
        <path id="Path_206243" data-name="Path 206243" d="M327.711,171.288c1.77-.975,6.255,1.722,5.91,5.566s.689,8.034,1.55,10.96-.517,4.936-1.32,4.821-3.328,2.754-4.935,2.123.918,3.9.574,4.992-4.7-.688-5.279-1.147-3.5-1.665-4.132-.976-5.509,3.787-3.787,4.189,2.926-2.984,5.049-2.41-3.787,4.074-3.959,6.6-3.673,6.714-4.132,3.156-3.673-2.575-3.1-5.132,4.648-4.91,5.395-7.951,7.919-2.238,8.665-3.9-.919-4.706,3.328-6.312,1.951-8.78.918-9.411-2.536-4.178-.746-5.165" fill="#d6eaff"/>
        <path id="Path_206244" data-name="Path 206244" d="M292.453,242.706c-.7,2.305-2.076,3.929-3.077,3.625s-1.246-2.417-.548-4.723,2.076-3.928,3.077-3.625,1.246,2.418.548,4.723" fill="#d6eaff"/>
        <path id="Path_206245" data-name="Path 206245" d="M238.1,345.524s4.438-3.979,8.034-2.142,9.1,1.3,9.717.229,7.651.689,11.094-.076-2.142,1.683,0,2.294,4.139,2.526,1.151,2.832-28.925-.842-30-3.137" fill="#d6eaff"/>
        <path id="Path_206246" data-name="Path 206246" d="M273.34,347.738a1.182,1.182,0,1,1-1.162-.97,1.08,1.08,0,0,1,1.162.97" fill="#d6eaff"/>
        <path id="Path_206247" data-name="Path 206247" d="M274.86,346.767s2.64.785,3.634,0,4.9-1.488,5.777-.964.153,2.122-1.11,1.935-3.208.081-3.4.54-3.789.174-4.478.431-1.454-1.2-.421-1.942" fill="#d6eaff"/>
        <path id="Path_206248" data-name="Path 206248" d="M284.08,349.961c-.137-.326,1.855-2.678,4.38-1.76s1.98,2.239,1.492,2.181-2.037-.832-2.41-.631-2.964,1.4-3.462.21" fill="#d6eaff"/>
        <path id="Path_206249" data-name="Path 206249" d="M293.874,350.479s4.055-1.756,5.7-4.676,9.6-4.87,10.9-4.717-4.285,2.143-5.279,3.749-10.9,7.041-11.324,5.644" fill="#d6eaff"/>
        <path id="Path_206250" data-name="Path 206250" d="M286.567,346.4c-.078-.215,2.181-1.874,3.367-1.454s4.131-.229,4.475-.8,3.6-1.262,4.859-1.071-2.142.809-2.6,1.648-5.165,2.331-5.586,2.044-4.208.478-4.514-.364" fill="#d6eaff"/>
        <path id="Path_206251" data-name="Path 206251" d="M254.432,330.987c-.132-.825-3.213-2.869-3.328-4.591s-2.525-5.164,0-5.853,7.413.006,7.574-2.18c.345-4.668,6.76-1.316,7-3.558.383-3.558,8.493-5.509,9.985-8.148s2.178-6.084,3.843-6.084,1.206,7.231,2.813,8.034,1.263,1.722.574,3.673-.34,4.476.576,5.508,3.527,3.788,1.188,4.362-4.4,1.607-3.829,4.131-3.444,2.984-3.329,4.706-.8,5.509-2.64,5.05-2.869-.5-3.845.038-2.7-2.219-5.451-1.645-5.221.8-6.2-.4-3.672,4.878-4.935-3.041" fill="#d6eaff"/>
        <path id="Path_206252" data-name="Path 206252" d="M287.219,339.422c-.91.076-.6-5.624-1.169-6.2a3.209,3.209,0,0,1-.689-3.959c.976-2.124,3.1-5.394,3.214-7.116s6.656-3.673,9.124-3.443,8.263-4.017,8.78-3.73-2.181,4.476-3.444,4.993-11.763,1.09-11.706,2.008-1.626,4.476,2.544,3.443,7.1-1.147,6.006-.459-5.605,2.238-4.122,4.3,3.147,6.828,2.344,8.091-4.419.5-4.534-1.212-2.238-5.387-3.041-4.814.1,7.805-3.307,8.092" fill="#d6eaff"/>
        <path id="Path_206253" data-name="Path 206253" d="M292.018,280.6s-.4-4.59-1.435-5.222-2.237-4.189-1.2-5.91,5.164-5.337,5.106-7,4.189,3.1,2.525,5.452-3.27,5.508-2.18,7.172,6.369.173,6.713,1.32.919,4.132,3.157,4.189,2.41,3.214,2.18,5.222-2.907,1.434-3.29,0-1.683-4.265-2.754-4.8-5.586-4.437-5.892-3.06-2.792,7.957-2.926,2.639" fill="#d6eaff"/>
        <path id="Path_206254" data-name="Path 206254" d="M280.331,297.322c-.149-.613,6.9-9.182,8.653-9.029s-.773,1.531-1.155,2.3-6.886,9.258-7.5,6.733" fill="#d6eaff"/>
        <path id="Path_206255" data-name="Path 206255" d="M299.851,293.228c-2.439.4-3.242-.775-2.783-1.693s1.32-1.894-.173-2.9a2.359,2.359,0,0,1-.716-3.127,1.93,1.93,0,0,1,3.414.746,3.025,3.025,0,0,0,3.356,2.353c1.292-.115,2.172.423,1.493,1.865-.453.96-2.32,2.38-4.591,2.754" fill="#d6eaff"/>
        <path id="Path_206256" data-name="Path 206256" d="M297.068,301.033c-1.051.21-1.659-2.321-.976-3.244,2.037-2.753,4.417-2.278,5.968-1.921,2.617.6,5.06-1.7,4.9-3.443-.191-2.037,1.609-3.338,2.563-2.582,1.378,1.09.057,4.332.976,5.91.7,1.2-.33,2.042-1.32,2.036-1.569-.008-2.219.949-1.607,1.924.415.661,1.664,2.755.631,3.328-.953.53-5.139-.688-5.066-1.779s.294-1.906-.557-2.7c-1.2-1.119-4.362-.229-4.935.746-.35.594,0,1.607-.574,1.722" fill="#d6eaff"/>
        <path id="Path_206257" data-name="Path 206257" d="M358.485,350.325a166.9,166.9,0,0,1-40.543,28.381h-.013c-1.119-.547-3.364-.678-6.451-.208-4.54.691-13.44,8.3-17.6,7.466-9.806-1.955-15.205,3.668-19.524,3.212s-8.61,3.968-8.1-1.613c.767-8.451-5.131-5.111-2.978-10.665,2.138-5.514,20.005-7.18,22.333-7.349,4.76-.352.616-8.723,8.766-8.493,5.207.146,12.345-10,16.3-6.309,5.046,4.7,5.9-6.576,7.231-8.858,2.291-3.926,6.725-4.969,11.095-3.94s5.99-3.84,6.92-3.161c1.682,1.227-4.026,8.946-2.3,9.7s9.008-2.365,10.387-7.411,7.973-8.273,8.546-4.931-.573,7.232.468,8.78c1.235,1.86,6.412,0,5.463,5.4" fill="#d6eaff"/>
        <path id="Path_206258" data-name="Path 206258" d="M339.015,332.708c-.885-.951,4.935-4.476,3.673-6.312s-3.066-2.755-3.771-2.64-4.8,2.334-6.444-.009c-.655-.934-3.787,1.826-4.59,0s.4-3.032-3.042-3.2-1.951-1.952-1.205-1.952,3.845-1.319,3.788-2.869,3.385-2.639,4.246-1.148,2.41,1.091,1.893,4.534,4.338,1.091,3.922-.9c-.284-1.359,4.686-5.582,7.154-4.894s3.519,2.41,6.388,1.148,10.884-1.951,10.942.057,3.558-.229,4.074,1.148-3.5,2.64-.344,5.222,2.352,1.836,1.032,2.41-2.754,1.664-4.533-1.2-5.853,1.435-6.14,2.755-5.26,5.91-7.785,5.451-7.728,4.055-9.258,2.41" fill="#d6eaff"/>
        <path id="Path_206259" data-name="Path 206259" d="M368.855,313.772c-.929-.365-.536-2.678.765-2.678s4.284-2.755,4.514-4.361,1.76-4.59,3.06-4.285-.363,1.339-.535,2.831a8.749,8.749,0,0,1-3.623,5.394c-1.828.976-2.574,3.73-4.181,3.1" fill="#d6eaff"/>
        <path id="Path_206260" data-name="Path 206260" d="M313.939,328.634c-.751-.421,1.951-3.386,3.385-3.386s6.37-1.263,7.116,0-2.353.517-3.73.919-5.337,3.27-6.771,2.467" fill="#d6eaff"/>
        <path id="Path_206261" data-name="Path 206261" d="M311.7,329.007c0,.3-.886.545-1.98.545s-1.979-.244-1.979-.545.886-.545,1.979-.545,1.98.244,1.98.545" fill="#d6eaff"/>
        <path id="Path_206262" data-name="Path 206262" d="M322.189,336.852c.3.325,1.187-.007,1.975-.742s1.183-1.593.88-1.918-1.186.008-1.975.743-1.182,1.592-.88,1.917" fill="#d6eaff"/>
        <path id="Path_206263" data-name="Path 206263" d="M313.809,323.527c-.5-.03-.7-1.765-1.114-2.755-.536-1.282,1.071-2.333.823-3.079-.184-.55-.31-3.539.294-4.266s1.427.1,2.632-.46c1.182-.544,1.129,1.7.306,2.334-.864.663-1.281,2.43-.478,3.271s-1.415,1.818-1.071,2.544-.087,2.487-1.392,2.411" fill="#d6eaff"/>
        <path id="Path_206264" data-name="Path 206264" d="M94.3,65.594a5.5,5.5,0,1,1,7.152,3.068A5.5,5.5,0,0,1,94.3,65.594" fill="#d6eaff"/>
        <path id="Path_206265" data-name="Path 206265" d="M109.186,53.721a1.717,1.717,0,0,1-1.7-.245,13.094,13.094,0,0,0-12.542-1.1,14.226,14.226,0,0,0-8.8,9.364,1.719,1.719,0,0,1-3.363-.718A17.659,17.659,0,0,1,93.666,49.18a16.508,16.508,0,0,1,15.942,1.592,1.72,1.72,0,0,1-.422,2.949" fill="#d6eaff"/>
        <path id="Path_206266" data-name="Path 206266" d="M112.295,43.891a1.716,1.716,0,0,1-1.7-.245c-.333-.257-8.375-6.332-19.757-1.785C79.388,46.435,77.145,56.18,77.055,56.592a1.719,1.719,0,0,1-3.364-.714c.1-.486,2.656-11.93,15.87-17.21,13.278-5.305,22.76,1.962,23.157,2.275a1.719,1.719,0,0,1-.423,2.948" fill="#d6eaff"/>
        <path id="Path_206267" data-name="Path 206267" d="M113.9,34.934a1.72,1.72,0,0,1-1.7-.244c-.423-.329-10.627-8.06-25.073-2.289C72.614,38.2,69.785,50.564,69.672,51.087a1.719,1.719,0,0,1-3.364-.714c.125-.6,3.264-14.662,19.543-21.165,16.344-6.53,27.986,2.394,28.474,2.777a1.72,1.72,0,0,1-.423,2.949" fill="#d6eaff"/>
        <path id="Path_206268" data-name="Path 206268" d="M116.915,25.79a1.718,1.718,0,0,1-1.7-.244c-.541-.421-13.523-10.281-31.91-2.935C64.853,29.983,61.162,46.219,61.126,46.383a1.719,1.719,0,0,1-3.364-.714c.156-.738,4.047-18.174,24.266-26.252,20.284-8.1,34.706,2.949,35.31,3.424a1.72,1.72,0,0,1-.423,2.949" fill="#d6eaff"/>
        <path id="Path_206269" data-name="Path 206269" d="M445.583,180.539a3.35,3.35,0,0,0,3.351,3.35h1.235a13.924,13.924,0,0,0,1.68,3.767h0l-.746.745a3.351,3.351,0,1,0,4.739,4.739l.875-.875a13.8,13.8,0,0,0,3.85,1.475V194.8a3.351,3.351,0,1,0,6.7,0v-1.235a13.911,13.911,0,0,0,3.765-1.68h0l.746.746a3.351,3.351,0,0,0,4.738-4.739l-.875-.875a13.789,13.789,0,0,0,1.475-3.85h1.056a3.351,3.351,0,1,0,0-6.7h-1.238a13.7,13.7,0,0,0-1.68-3.763l.748-.748a3.351,3.351,0,1,0-4.739-4.739l-.876.876a13.8,13.8,0,0,0-3.849-1.475v-1.057a3.351,3.351,0,0,0-6.7,0v1.239h0a13.7,13.7,0,0,0-3.763,1.68l-.748-.748a3.351,3.351,0,0,0-4.739,4.739l.876.875a13.8,13.8,0,0,0-1.475,3.85h-1.056a3.351,3.351,0,0,0-3.351,3.351M463.555,170.2a9.977,9.977,0,1,1-9.977,9.977,9.977,9.977,0,0,1,9.977-9.977" fill="#d6eaff"/>
        <path id="Path_206270" data-name="Path 206270" d="M469.861,180.175a6.308,6.308,0,1,1-6.307-6.309,6.306,6.306,0,0,1,6.307,6.309" fill="#d6eaff"/>
        <path id="Path_206271" data-name="Path 206271" d="M382.468,46.353a2.348,2.348,0,0,0,2.348,2.348h.865a9.751,9.751,0,0,0,1.178,2.638h0l-.523.522a2.348,2.348,0,0,0,3.32,3.32l.614-.613a9.655,9.655,0,0,0,2.7,1.034v.739a2.348,2.348,0,1,0,4.7,0v-.865A9.794,9.794,0,0,0,400.3,54.3h0l.522.523a2.348,2.348,0,0,0,3.32-3.321l-.613-.613a9.633,9.633,0,0,0,1.033-2.7h.74a2.348,2.348,0,1,0,0-4.7h-.867a9.653,9.653,0,0,0-1.177-2.637l.523-.524a2.348,2.348,0,0,0-3.32-3.32l-.613.614a9.679,9.679,0,0,0-2.7-1.034v-.74a2.348,2.348,0,0,0-4.7,0v.868h0A9.6,9.6,0,0,0,389.82,37.9l-.524-.525a2.348,2.348,0,1,0-3.32,3.321l.613.613a9.707,9.707,0,0,0-1.033,2.7h-.74a2.348,2.348,0,0,0-2.348,2.348m12.592-7.245a6.99,6.99,0,1,1-6.99,6.99,6.99,6.99,0,0,1,6.99-6.99" fill="#d6eaff"/>
        <path id="Path_206272" data-name="Path 206272" d="M399.478,46.1a4.419,4.419,0,1,1-4.418-4.42,4.418,4.418,0,0,1,4.418,4.42" fill="#d6eaff"/>
        <path id="Path_206273" data-name="Path 206273" d="M455.9,82.323a2.348,2.348,0,0,0,2.348,2.348h.865a9.751,9.751,0,0,0,1.178,2.638h0l-.523.522a2.348,2.348,0,0,0,3.321,3.32l.613-.613a9.666,9.666,0,0,0,2.7,1.034v.739a2.348,2.348,0,1,0,4.7,0v-.865a9.794,9.794,0,0,0,2.638-1.177h0l.522.523a2.348,2.348,0,1,0,3.32-3.321l-.613-.613a9.634,9.634,0,0,0,1.033-2.7h.74a2.348,2.348,0,1,0,0-4.7h-.867a9.652,9.652,0,0,0-1.177-2.637l.523-.524a2.348,2.348,0,1,0-3.32-3.32l-.613.614a9.678,9.678,0,0,0-2.7-1.034v-.74a2.348,2.348,0,1,0-4.7,0v.868h0a9.6,9.6,0,0,0-2.636,1.177l-.524-.525a2.348,2.348,0,0,0-3.32,3.321l.613.613a9.707,9.707,0,0,0-1.033,2.7h-.74a2.348,2.348,0,0,0-2.348,2.348M468.5,75.078a6.99,6.99,0,1,1-6.99,6.99,6.989,6.989,0,0,1,6.99-6.99" fill="#d6eaff"/>
        <path id="Path_206274" data-name="Path 206274" d="M472.914,82.069a4.419,4.419,0,1,1-4.418-4.42,4.418,4.418,0,0,1,4.418,4.42" fill="#d6eaff"/>
        <path id="Path_206275" data-name="Path 206275" d="M142.725,118.153h-2.188a.625.625,0,0,1,0-1.25h2.188a.625.625,0,0,1,0,1.25" fill="#4076a3"/>
        <path id="Path_206276" data-name="Path 206276" d="M136.214,118.153h-4.323a.625.625,0,1,1,0-1.25h4.323a.625.625,0,0,1,0,1.25m-8.647,0h-4.324a.625.625,0,0,1,0-1.25h4.324a.625.625,0,0,1,0,1.25m-8.647,0H114.6a.625.625,0,0,1,0-1.25h4.323a.625.625,0,0,1,0,1.25m-8.647,0H105.95a.625.625,0,0,1,0-1.25h4.323a.625.625,0,0,1,0,1.25m-8.647,0H97.3a.625.625,0,0,1,0-1.25h4.323a.625.625,0,1,1,0,1.25m-8.647,0H88.656a.625.625,0,0,1,0-1.25h4.323a.625.625,0,1,1,0,1.25m-8.646,0H80.009a.625.625,0,0,1,0-1.25h4.324a.625.625,0,0,1,0,1.25m-8.647,0H71.362a.625.625,0,0,1,0-1.25h4.324a.625.625,0,0,1,0,1.25m-8.647,0H62.715a.625.625,0,1,1,0-1.25h4.324a.625.625,0,0,1,0,1.25m-8.647,0H54.069a.625.625,0,1,1,0-1.25h4.323a.625.625,0,0,1,0,1.25m-8.647,0H45.422a.625.625,0,1,1,0-1.25h4.323a.625.625,0,1,1,0,1.25" fill="#4076a3"/>
        <path id="Path_206277" data-name="Path 206277" d="M38.91,120.341a.625.625,0,0,1-.625-.625V116.9H41.1a.625.625,0,1,1,0,1.25H39.535v1.563a.625.625,0,0,1-.625.625" fill="#4076a3"/>
        <path id="Path_206278" data-name="Path 206278" d="M38.91,302.251a.625.625,0,0,1-.625-.626v-4.331a.625.625,0,0,1,1.25,0v4.331a.625.625,0,0,1-.625.626m0-8.663a.625.625,0,0,1-.625-.625v-4.331a.625.625,0,0,1,1.25,0v4.331a.625.625,0,0,1-.625.625m0-8.662a.625.625,0,0,1-.625-.626v-4.33a.625.625,0,1,1,1.25,0v4.33a.625.625,0,0,1-.625.626m0-8.663a.625.625,0,0,1-.625-.625v-4.331a.625.625,0,0,1,1.25,0v4.331a.625.625,0,0,1-.625.625m0-8.661a.626.626,0,0,1-.625-.625v-4.332a.625.625,0,0,1,1.25,0v4.332a.626.626,0,0,1-.625.625m0-8.663a.625.625,0,0,1-.625-.626v-4.331a.625.625,0,0,1,1.25,0v4.331a.625.625,0,0,1-.625.626m0-8.663a.625.625,0,0,1-.625-.625V245.32a.625.625,0,0,1,1.25,0v4.331a.625.625,0,0,1-.625.625m0-8.661a.625.625,0,0,1-.625-.625v-4.332a.625.625,0,0,1,1.25,0v4.332a.625.625,0,0,1-.625.625m0-8.664a.625.625,0,0,1-.625-.625v-4.331a.625.625,0,0,1,1.25,0v4.331a.625.625,0,0,1-.625.625m0-8.662a.625.625,0,0,1-.625-.625v-4.331a.625.625,0,0,1,1.25,0v4.331a.625.625,0,0,1-.625.625m0-8.661a.626.626,0,0,1-.625-.627v-4.33a.625.625,0,0,1,1.25,0V215a.626.626,0,0,1-.625.627m0-8.664a.625.625,0,0,1-.625-.625v-4.331a.625.625,0,0,1,1.25,0v4.331a.625.625,0,0,1-.625.625m0-8.662a.625.625,0,0,1-.625-.625v-4.331a.625.625,0,1,1,1.25,0v4.331a.625.625,0,0,1-.625.625m0-8.663a.624.624,0,0,1-.625-.625v-4.33a.625.625,0,0,1,1.25,0v4.33a.624.624,0,0,1-.625.625m0-8.662a.625.625,0,0,1-.625-.625v-4.331a.625.625,0,0,1,1.25,0v4.331a.625.625,0,0,1-.625.625m0-8.662a.625.625,0,0,1-.625-.625v-4.332a.625.625,0,0,1,1.25,0v4.332a.625.625,0,0,1-.625.625m0-8.663a.625.625,0,0,1-.625-.625V158.7a.625.625,0,0,1,1.25,0v4.33a.625.625,0,0,1-.625.625m0-8.662a.625.625,0,0,1-.625-.625v-4.331a.625.625,0,0,1,1.25,0v4.331a.625.625,0,0,1-.625.625m0-8.663a.625.625,0,0,1-.625-.625v-4.331a.625.625,0,0,1,1.25,0V145.7a.625.625,0,0,1-.625.625m0-8.662a.625.625,0,0,1-.625-.625v-4.33a.625.625,0,0,1,1.25,0v4.33a.625.625,0,0,1-.625.625m0-8.662a.625.625,0,0,1-.625-.625v-4.331a.625.625,0,0,1,1.25,0v4.331a.625.625,0,0,1-.625.625" fill="#4076a3"/>
        <path id="Path_206279" data-name="Path 206279" d="M41.1,308.77H38.285v-2.813a.625.625,0,0,1,1.25,0v1.563H41.1a.625.625,0,0,1,0,1.25" fill="#4076a3"/>
        <path id="Path_206280" data-name="Path 206280" d="M112.092,308.77h-4.438a.625.625,0,1,1,0-1.25h4.438a.625.625,0,0,1,0,1.25m-8.875,0H98.78a.625.625,0,0,1,0-1.25h4.437a.625.625,0,0,1,0,1.25m-8.874,0H89.906a.625.625,0,0,1,0-1.25h4.437a.625.625,0,0,1,0,1.25m-8.874,0H81.032a.625.625,0,0,1,0-1.25h4.437a.625.625,0,0,1,0,1.25m-8.874,0H72.157a.625.625,0,0,1,0-1.25H76.6a.625.625,0,0,1,0,1.25m-8.874,0H63.283a.625.625,0,0,1,0-1.25h4.438a.625.625,0,0,1,0,1.25m-8.875,0H54.409a.625.625,0,1,1,0-1.25h4.437a.625.625,0,0,1,0,1.25m-8.874,0H45.535a.625.625,0,0,1,0-1.25h4.437a.625.625,0,0,1,0,1.25" fill="#4076a3"/>
        <path id="Path_206281" data-name="Path 206281" d="M225.208,308.77H223.02a.625.625,0,0,1,0-1.25h2.188a.625.625,0,1,1,0,1.25" fill="#4076a3"/>
        <path id="Path_206282" data-name="Path 206282" d="M64.681,247.494H13.552a2.521,2.521,0,0,1-2.52-2.521V193.844a2.52,2.52,0,0,1,2.52-2.52H64.681a2.521,2.521,0,0,1,2.521,2.52v51.129a2.521,2.521,0,0,1-2.521,2.521" fill="#084a93"/>
        <path id="Path_206283" data-name="Path 206283" d="M44.382,198.688H35.04a6.343,6.343,0,0,0-6.343,6.343v13.325h3.03V205.407a3.689,3.689,0,0,1,3.689-3.689h8.589a3.69,3.69,0,0,1,3.69,3.69v12.948h3.03V205.031a6.343,6.343,0,0,0-6.343-6.343" fill="#fff"/>
        <path id="Path_206284" data-name="Path 206284" d="M21.813,217.363v4.868a17.9,17.9,0,1,0,35.8,0v-4.868a5.267,5.267,0,0,0-5.266-5.267H27.08a5.267,5.267,0,0,0-5.267,5.267" fill="#fff"/>
        <path id="Path_206285" data-name="Path 206285" d="M30.666,225.331a9.645,9.645,0,1,1,9.645,9.645,9.645,9.645,0,0,1-9.645-9.645" fill="#b9ddfc"/>
        <path id="Path_206286" data-name="Path 206286" d="M33.811,225.331a6.5,6.5,0,1,1,6.5,6.5,6.5,6.5,0,0,1-6.5-6.5" fill="#fff"/>
        <path id="Path_206287" data-name="Path 206287" d="M42.474,223.15A2.163,2.163,0,1,0,39.193,225l-.392,4.953a.349.349,0,0,0,.348.377h2.323a.349.349,0,0,0,.348-.377L41.428,225a2.161,2.161,0,0,0,1.046-1.85" fill="#084a93"/>
        <path id="Path_206288" data-name="Path 206288" d="M335.178,199.672H332.99a.625.625,0,0,1,0-1.25h2.188a.625.625,0,0,1,0,1.25" fill="#4076a3"/>
        <path id="Path_206289" data-name="Path 206289" d="M415.311,199.672h-4.452a.625.625,0,0,1,0-1.25h4.452a.625.625,0,0,1,0,1.25m-8.9,0h-4.452a.625.625,0,0,1,0-1.25h4.452a.625.625,0,0,1,0,1.25m-8.9,0h-4.452a.625.625,0,0,1,0-1.25H397.5a.625.625,0,1,1,0,1.25m-8.9,0h-4.451a.625.625,0,0,1,0-1.25H388.6a.625.625,0,1,1,0,1.25m-8.9,0h-4.452a.625.625,0,0,1,0-1.25H379.7a.625.625,0,0,1,0,1.25m-8.9,0h-4.452a.625.625,0,1,1,0-1.25h4.452a.625.625,0,0,1,0,1.25m-8.9,0h-4.452a.625.625,0,0,1,0-1.25h4.452a.625.625,0,0,1,0,1.25m-8.9,0h-4.452a.625.625,0,0,1,0-1.25h4.452a.625.625,0,0,1,0,1.25m-8.9,0H339.63a.625.625,0,0,1,0-1.25h4.452a.625.625,0,0,1,0,1.25" fill="#4076a3"/>
        <path id="Path_206290" data-name="Path 206290" d="M422.577,199.672h-2.814a.625.625,0,1,1,0-1.25h1.561l0-1.562a.625.625,0,0,1,.624-.626h0a.625.625,0,0,1,.625.623Z" fill="#4076a3"/>
        <path id="Path_206291" data-name="Path 206291" d="M421.936,193.276a.625.625,0,0,1-.625-.624l-.009-4.207a.625.625,0,0,1,.624-.627h0a.624.624,0,0,1,.625.624l.009,4.208a.624.624,0,0,1-.624.626Zm-.018-8.415a.624.624,0,0,1-.625-.624l-.009-4.208a.612.612,0,0,1,.625-.626.625.625,0,0,1,.625.624l.009,4.207a.625.625,0,0,1-.624.627Zm-.018-8.416a.626.626,0,0,1-.626-.624l-.009-4.208a.626.626,0,0,1,.624-.626h0a.626.626,0,0,1,.626.624l.009,4.208a.625.625,0,0,1-.624.626Zm-.019-8.415a.625.625,0,0,1-.625-.624l-.009-4.208a.624.624,0,0,1,.624-.626h0a.624.624,0,0,1,.625.624l.009,4.207a.625.625,0,0,1-.623.627Zm-.018-8.416a.624.624,0,0,1-.625-.624l-.009-4.208a.625.625,0,0,1,.624-.626h0a.625.625,0,0,1,.625.624l.009,4.208a.625.625,0,0,1-.624.626Z" fill="#4076a3"/>
        <path id="Path_206292" data-name="Path 206292" d="M421.844,151.2a.624.624,0,0,1-.625-.624l-.006-2.814h2.814a.625.625,0,0,1,0,1.25h-1.562l0,1.561a.625.625,0,0,1-.624.627Z" fill="#4076a3"/>
        <path id="Path_206293" data-name="Path 206293" d="M458.189,149.011h-4.268a.625.625,0,1,1,0-1.25h4.268a.625.625,0,1,1,0,1.25m-8.539,0h-4.271a.625.625,0,0,1,0-1.25h4.271a.625.625,0,0,1,0,1.25m-8.542,0h-4.269a.625.625,0,0,1,0-1.25h4.269a.625.625,0,1,1,0,1.25m-8.539,0H428.3a.625.625,0,0,1,0-1.25h4.272a.625.625,0,0,1,0,1.25" fill="#4076a3"/>
        <path id="Path_206294" data-name="Path 206294" d="M465.274,149.011h-2.813a.625.625,0,0,1,0-1.25h1.563V146.2a.625.625,0,0,1,1.25,0Z" fill="#4076a3"/>
        <path id="Path_206295" data-name="Path 206295" d="M464.649,142.707a.625.625,0,0,1-.625-.625v-4.116a.625.625,0,0,1,1.25,0v4.116a.625.625,0,0,1-.625.625m0-8.231a.625.625,0,0,1-.625-.625v-4.116a.625.625,0,0,1,1.25,0v4.116a.625.625,0,0,1-.625.625m0-8.231a.625.625,0,0,1-.625-.625V121.5a.625.625,0,0,1,1.25,0v4.116a.625.625,0,0,1-.625.625" fill="#4076a3"/>
        <path id="Path_206296" data-name="Path 206296" d="M464.649,118.014a.625.625,0,0,1-.625-.625v-1.563h-1.563a.625.625,0,0,1,0-1.25h2.813v2.813a.625.625,0,0,1-.625.625" fill="#4076a3"/>
        <path id="Path_206297" data-name="Path 206297" d="M457.995,115.826H453.53a.625.625,0,0,1,0-1.25h4.465a.625.625,0,0,1,0,1.25m-8.931,0H444.6a.625.625,0,0,1,0-1.25h4.466a.625.625,0,0,1,0,1.25m-8.931,0h-4.466a.625.625,0,0,1,0-1.25h4.466a.625.625,0,1,1,0,1.25m-8.931,0h-4.465a.625.625,0,0,1,0-1.25H431.2a.625.625,0,0,1,0,1.25m-8.931,0H417.8a.625.625,0,0,1,0-1.25h4.466a.625.625,0,0,1,0,1.25m-8.931,0h-4.466a.625.625,0,0,1,0-1.25h4.466a.625.625,0,0,1,0,1.25m-8.931,0h-4.465a.625.625,0,0,1,0-1.25h4.465a.625.625,0,1,1,0,1.25" fill="#4076a3"/>
        <path id="Path_206298" data-name="Path 206298" d="M395.478,115.826H392.67l-.025-2.807a.625.625,0,0,1,.619-.631h.006a.625.625,0,0,1,.625.619l.015,1.569h1.568a.625.625,0,0,1,0,1.25" fill="#4076a3"/>
        <path id="Path_206299" data-name="Path 206299" d="M393.239,110.341a.625.625,0,0,1-.625-.619l-.03-3.3a.625.625,0,0,1,.62-.631.643.643,0,0,1,.63.62l.03,3.3a.625.625,0,0,1-.62.631Z" fill="#4076a3"/>
        <path id="Path_206300" data-name="Path 206300" d="M393.179,103.746a.625.625,0,0,1-.625-.619l-.015-1.569H390.97a.625.625,0,0,1,0-1.25h2.807l.027,2.807a.625.625,0,0,1-.619.631Z" fill="#4076a3"/>
        <path id="Path_206301" data-name="Path 206301" d="M386.841,101.558h-4.13a.625.625,0,0,1,0-1.25h4.13a.625.625,0,0,1,0,1.25m-8.259,0h-4.13a.625.625,0,0,1,0-1.25h4.13a.625.625,0,0,1,0,1.25m-8.259,0h-4.13a.625.625,0,0,1,0-1.25h4.13a.625.625,0,0,1,0,1.25m-8.259,0h-4.13a.625.625,0,0,1,0-1.25h4.13a.625.625,0,0,1,0,1.25m-8.26,0h-4.129a.625.625,0,1,1,0-1.25H353.8a.625.625,0,0,1,0,1.25m-8.259,0h-4.13a.625.625,0,0,1,0-1.25h4.13a.625.625,0,0,1,0,1.25m-8.259,0h-4.129a.625.625,0,1,1,0-1.25h4.129a.625.625,0,0,1,0,1.25m-8.259,0H324.9a.625.625,0,0,1,0-1.25h4.13a.625.625,0,0,1,0,1.25" fill="#4076a3"/>
        <path id="Path_206302" data-name="Path 206302" d="M320.769,101.558h-2.188a.625.625,0,0,1,0-1.25h2.188a.625.625,0,0,1,0,1.25" fill="#4076a3"/>
        <path id="Path_206303" data-name="Path 206303" d="M360.129,212.435H205.657a18.982,18.982,0,0,0-18.993,18.984V521.134a19.109,19.109,0,0,0,6.555,14.349c.135.109.271.227.407.335a18.834,18.834,0,0,0,12.031,4.3H360.129a18.873,18.873,0,0,0,12.032-4.3,19.266,19.266,0,0,0,2.942-3.005,18.9,18.9,0,0,0,4.02-11.679V231.419a18.987,18.987,0,0,0-18.994-18.984m14.974,301.3c0,11.009-9.442,19.935-21.085,19.935H211.777c-11.642,0-21.084-8.926-21.084-19.935V250.214c0-6.853,5.875-12.4,13.117-12.4H361.985c7.243,0,13.118,5.551,13.118,12.4Z" fill="#084a93"/>
        <path id="Path_206304" data-name="Path 206304" d="M375.1,250.213V513.738c0,11.009-9.442,19.935-21.085,19.935H211.777c-11.642,0-21.084-8.926-21.084-19.935V250.213c0-6.853,5.875-12.4,13.117-12.4H361.985c7.243,0,13.118,5.55,13.118,12.4" fill="#fff"/>
        <path id="Path_206305" data-name="Path 206305" d="M217.283,225.732a6.11,6.11,0,1,1-6.11-6.111,6.113,6.113,0,0,1,6.11,6.111" fill="#fff"/>
        <path id="Path_206306" data-name="Path 206306" d="M215.307,225.732a4.135,4.135,0,1,1-4.134-4.134,4.136,4.136,0,0,1,4.134,4.134" fill="#346799"/>
        <path id="Path_206307" data-name="Path 206307" d="M229.79,225.732a4.134,4.134,0,1,1-4.134-4.134,4.135,4.135,0,0,1,4.134,4.134" fill="#fff"/>
        <g id="Group_147757" data-name="Group 147757" style="mix-blend-mode: multiply;isolation: isolate">
          <g id="Group_147756" data-name="Group 147756">
            <g id="Group_147755" data-name="Group 147755" clip-path="url(#clip-path-3)">
              <path id="Path_206308" data-name="Path 206308" d="M350.889,340.793a89.022,89.022,0,0,1,9.777-49.951c-10.933-2.391-24.39-8.39-38.138-17.338L288.337,278.7l-.083.014-34.492-5.077c-13.715,9-27.149,15.049-38.072,17.48a88.986,88.986,0,0,1,9.962,49.911,86.956,86.956,0,0,1-9.811,32.2c.011,4.83.542,30.509,21.329,51.219a72.254,72.254,0,0,0,51.167,21.134h.128a72.265,72.265,0,0,0,51.219-21.325c20.711-20.787,21.144-46.469,21.138-51.295a87.044,87.044,0,0,1-9.933-32.16" fill="#f2f2f2"/>
            </g>
          </g>
        </g>
        <path id="Path_206309" data-name="Path 206309" d="M345.052,336.415a89.023,89.023,0,0,1,9.777-49.951c-10.933-2.391-24.39-8.39-38.138-17.338L282.5,274.318l-.083.014-34.492-5.077c-13.715,9-27.149,15.049-38.072,17.48a88.986,88.986,0,0,1,9.962,49.911,86.937,86.937,0,0,1-9.811,32.2c.01,4.83.542,30.509,21.329,51.22A72.257,72.257,0,0,0,282.5,441.2h.128a72.27,72.27,0,0,0,51.22-21.325c20.71-20.787,21.143-46.469,21.137-51.295a87.044,87.044,0,0,1-9.933-32.16" fill="#084a93"/>
        <path id="Path_206310" data-name="Path 206310" d="M282.408,431.618a62.712,62.712,0,0,1-44.542-18.4c-15.524-15.467-18.147-34.382-18.518-42.416a95.746,95.746,0,0,0,3.4-78.378,146.268,146.268,0,0,0,27.2-13.6l31.021,4.566a9.37,9.37,0,0,0,2.854-.019l30.718-4.666A146.335,146.335,0,0,0,341.8,292.2a95.743,95.743,0,0,0,3.693,78.367c-.343,8.038-2.9,26.968-18.358,42.483a62.715,62.715,0,0,1-44.6,18.57Z" fill="#9acff7"/>
        <path id="Path_206311" data-name="Path 206311" d="M282.406,426.148a57.39,57.39,0,0,1-40.764-16.842c-13.488-13.438-16.315-29.863-16.87-37.53a100.969,100.969,0,0,0,4.789-76.387,157.924,157.924,0,0,0,21.547-11.1l29.085,4.282a14.764,14.764,0,0,0,4.458-.027l28.76-4.368a157.93,157.93,0,0,0,21.583,11.019,100.95,100.95,0,0,0,5.072,76.368c-.527,7.673-3.3,24.114-16.727,37.593a57.4,57.4,0,0,1-40.818,16.995Z" fill="#b9ddfc"/>
        <path id="Path_206312" data-name="Path 206312" d="M250.56,370.729l-11.13-31.137h6.818l7.88,23.045,7.626-23.045h6.669l-11.151,31.137Z" fill="#fff"/>
        <path id="Path_206313" data-name="Path 206313" d="M271.63,370.73V339.592h10.089a36.451,36.451,0,0,1,7.476.468,8.167,8.167,0,0,1,4.482,3.047,9.675,9.675,0,0,1,1.8,6.065,10.155,10.155,0,0,1-1.041,4.821,8.532,8.532,0,0,1-2.644,3.069,9.091,9.091,0,0,1-3.26,1.476,35.835,35.835,0,0,1-6.521.446h-4.1V370.73Zm6.287-25.871V353.7h3.441a16.2,16.2,0,0,0,4.97-.49,4.113,4.113,0,0,0,1.964-1.528,4.184,4.184,0,0,0,.712-2.421,4.029,4.029,0,0,0-1-2.8,4.36,4.36,0,0,0-2.528-1.38,30.277,30.277,0,0,0-4.524-.213Z" fill="#fff"/>
        <path id="Path_206314" data-name="Path 206314" d="M300.707,370.729V339.592h6.117l12.744,20.793V339.592h5.841v31.137H319.1l-12.553-20.3v20.3Z" fill="#fff"/>
        <path id="Path_206315" data-name="Path 206315" d="M333.372,495.747H232.418a9.592,9.592,0,0,1,0-19.185H333.372a9.592,9.592,0,1,1,0,19.185" fill="#00defc"/>
        <path id="Path_206316" data-name="Path 206316" d="M232.418,493.031a6.877,6.877,0,0,1,0-13.754H333.372a6.877,6.877,0,0,1,0,13.754Z" fill="#fff"/>
        <path id="Path_206317" data-name="Path 206317" d="M243.445,486.155a6.877,6.877,0,1,1-6.877-6.877,6.877,6.877,0,0,1,6.877,6.877" fill="#00defc"/>
        <path id="Path_206318" data-name="Path 206318" d="M333.8,78.066A14.13,14.13,0,1,0,311.111,89.3L316.3,99.691a3.768,3.768,0,0,0,6.74,0L328.239,89.3A14.107,14.107,0,0,0,333.8,78.066" fill="#d94559"/>
        <path id="Path_206319" data-name="Path 206319" d="M326.478,76.915a6.908,6.908,0,1,1-6.908-6.908,6.908,6.908,0,0,1,6.908,6.908" fill="#fcffff"/>
        <path id="Path_206320" data-name="Path 206320" d="M152.081,262.469a.625.625,0,0,1-.625-.625v-2.188a.625.625,0,0,1,1.25,0v2.188a.625.625,0,0,1-.625.625" fill="#4076a3"/>
        <path id="Path_206321" data-name="Path 206321" d="M152.081,256.044a.625.625,0,0,1-.625-.625v-4.236a.625.625,0,1,1,1.25,0v4.236a.625.625,0,0,1-.625.625m0-8.473a.625.625,0,0,1-.625-.625v-4.237a.625.625,0,0,1,1.25,0v4.237a.625.625,0,0,1-.625.625m0-8.473a.625.625,0,0,1-.625-.625v-4.237a.625.625,0,1,1,1.25,0v4.237a.625.625,0,0,1-.625.625m0-8.473a.625.625,0,0,1-.625-.625v-4.237a.625.625,0,0,1,1.25,0V230a.625.625,0,0,1-.625.625m0-8.473a.625.625,0,0,1-.625-.625V217.29a.625.625,0,0,1,1.25,0v4.237a.625.625,0,0,1-.625.625m0-8.473a.625.625,0,0,1-.625-.625v-4.237a.625.625,0,1,1,1.25,0v4.237a.625.625,0,0,1-.625.625" fill="#4076a3"/>
        <path id="Path_206322" data-name="Path 206322" d="M152.081,205.206a.625.625,0,0,1-.625-.625v-2.813h2.813a.625.625,0,0,1,0,1.25h-1.563v1.563a.625.625,0,0,1-.625.625" fill="#4076a3"/>
        <path id="Path_206323" data-name="Path 206323" d="M191.291,203.018h-4.628a.625.625,0,1,1,0-1.25h4.628a.625.625,0,0,1,0,1.25m-9.256,0h-4.628a.625.625,0,0,1,0-1.25h4.628a.625.625,0,1,1,0,1.25m-9.255,0h-4.628a.625.625,0,0,1,0-1.25h4.628a.625.625,0,1,1,0,1.25m-9.256,0H158.9a.625.625,0,0,1,0-1.25h4.628a.625.625,0,0,1,0,1.25" fill="#4076a3"/>
        <path id="Path_206324" data-name="Path 206324" d="M198.732,203.018h-2.813a.625.625,0,0,1,0-1.25h1.563v-1.563a.625.625,0,0,1,1.25,0Z" fill="#4076a3"/>
        <path id="Path_206325" data-name="Path 206325" d="M198.107,196.856a.625.625,0,0,1-.625-.625v-3.974a.625.625,0,0,1,1.25,0v3.974a.625.625,0,0,1-.625.625m0-7.948a.625.625,0,0,1-.625-.625v-3.974a.625.625,0,0,1,1.25,0v3.974a.625.625,0,0,1-.625.625m0-7.947a.625.625,0,0,1-.625-.625v-3.974a.625.625,0,0,1,1.25,0v3.974a.625.625,0,0,1-.625.625m0-7.948a.625.625,0,0,1-.625-.625v-3.974a.625.625,0,0,1,1.25,0v3.974a.625.625,0,0,1-.625.625m0-7.947a.625.625,0,0,1-.625-.625v-3.974a.625.625,0,0,1,1.25,0v3.974a.625.625,0,0,1-.625.625" fill="#4076a3"/>
        <path id="Path_206326" data-name="Path 206326" d="M198.107,157.118a.625.625,0,0,1-.625-.625v-2.8l2.8-.057a.625.625,0,0,1,.026,1.25l-1.576.032v1.575a.625.625,0,0,1-.625.625" fill="#4076a3"/>
        <path id="Path_206327" data-name="Path 206327" d="M204.716,154.794a.625.625,0,0,1-.012-1.25l4.422-.091a.625.625,0,1,1,.025,1.25l-4.421.091Zm8.844-.182a.625.625,0,0,1-.013-1.25l4.422-.091a.625.625,0,1,1,.025,1.25l-4.421.091Zm8.843-.182a.625.625,0,0,1-.013-1.25l4.422-.091a.643.643,0,0,1,.638.612.625.625,0,0,1-.612.638l-4.422.091Zm8.843-.182a.625.625,0,0,1-.013-1.25l4.422-.091a.625.625,0,1,1,.025,1.25l-4.421.091Z" fill="#4076a3"/>
        <path id="Path_206328" data-name="Path 206328" d="M240.089,154.066a.625.625,0,0,1-.013-1.25l2.188-.046a.642.642,0,0,1,.638.613.626.626,0,0,1-.612.638l-2.188.045Z" fill="#4076a3"/>
        <path id="Path_206329" data-name="Path 206329" d="M167.961,239.343a14.13,14.13,0,1,0-22.694,11.237l5.194,10.387a3.768,3.768,0,0,0,6.74,0L162.4,250.58a14.107,14.107,0,0,0,5.566-11.237" fill="#d94559"/>
        <path id="Path_206330" data-name="Path 206330" d="M160.634,238.192a6.908,6.908,0,1,1-6.908-6.908,6.908,6.908,0,0,1,6.908,6.908" fill="#fcffff"/>
        <path id="Path_206331" data-name="Path 206331" d="M255.71,131.087a14.13,14.13,0,1,0-22.694,11.237l5.194,10.387a3.767,3.767,0,0,0,6.74,0l5.194-10.387a14.107,14.107,0,0,0,5.566-11.237" fill="#ffb30b"/>
        <path id="Path_206332" data-name="Path 206332" d="M248.383,129.936a6.908,6.908,0,1,1-6.908-6.908,6.908,6.908,0,0,1,6.908,6.908" fill="#fcffff"/>
        <path id="Path_206333" data-name="Path 206333" d="M132.125,285.615a14.13,14.13,0,1,0-22.694,11.237l5.194,10.387a3.767,3.767,0,0,0,6.74,0l5.194-10.387a14.107,14.107,0,0,0,5.566-11.237" fill="#ffb30b"/>
        <path id="Path_206334" data-name="Path 206334" d="M124.8,284.464a6.908,6.908,0,1,1-6.908-6.908,6.908,6.908,0,0,1,6.908,6.908" fill="#fcffff"/>
        <path id="Path_206335" data-name="Path 206335" d="M156.452,95.114a14.13,14.13,0,1,0-22.694,11.237l5.194,10.387a3.767,3.767,0,0,0,6.74,0l5.194-10.387a14.107,14.107,0,0,0,5.566-11.237" fill="#d94559"/>
        <path id="Path_206336" data-name="Path 206336" d="M149.125,93.963a6.908,6.908,0,1,1-6.908-6.908,6.908,6.908,0,0,1,6.908,6.908" fill="#fcffff"/>
        <path id="Path_206337" data-name="Path 206337" d="M330.328,495.747a48.018,48.018,0,1,1,48.019,48.019,48.019,48.019,0,0,1-48.019-48.019" fill="#ffb30b"/>
        <path id="Path_206338" data-name="Path 206338" d="M338.986,495.747a39.361,39.361,0,1,1,39.361,39.361,39.361,39.361,0,0,1-39.361-39.361" fill="#fff"/>
        <path id="Path_206339" data-name="Path 206339" d="M433.005,452.97c-22.278,10.764-40.122,27.847-55.784,46.543-8.627-5.554-17.556-10.522-27.379-13.845l-.792.889c8.729,8.191,21.246,19.49,30.25,27.608,17.685-19.021,37.478-40.933,54.584-60.391Z" fill="#ffb30b"/>
        <path id="Path_206340" data-name="Path 206340" d="M94.059,87.423a1.892,1.892,0,0,1-1.083,2.8l-6.331,1.847a1.89,1.89,0,0,1-2.365-2.263L85.846,83.4a1.889,1.889,0,0,1,3.142-.916l4.765,4.559a1.916,1.916,0,0,1,.306.377m-8.286,3.042a.421.421,0,0,0,.066.082.393.393,0,0,0,.388.1l6.331-1.847a.4.4,0,0,0,.165-.672l-4.765-4.56a.4.4,0,0,0-.665.194l-1.566,6.406a.383.383,0,0,0,.046.3" fill="#ffa647"/>
        <path id="Path_206341" data-name="Path 206341" d="M452.292,92.518a1.892,1.892,0,0,1-1.083,2.8l-6.331,1.847a1.89,1.89,0,0,1-2.365-2.263l1.566-6.406a1.89,1.89,0,0,1,3.142-.916l4.765,4.559a1.915,1.915,0,0,1,.306.377m-8.285,3.042a.388.388,0,0,0,.065.082.393.393,0,0,0,.388.1l6.331-1.847a.394.394,0,0,0,.277-.289.389.389,0,0,0-.112-.383l-4.765-4.56a.4.4,0,0,0-.665.194l-1.566,6.406a.379.379,0,0,0,.047.3" fill="#ffa647"/>
        <path id="Path_206342" data-name="Path 206342" d="M454.486,332.177l2.328-2.329a1.353,1.353,0,0,0-1.914-1.914l-2.328,2.329-2.33-2.329a1.353,1.353,0,0,0-1.914,1.914l2.33,2.329-2.326,2.325a1.353,1.353,0,1,0,1.914,1.914l2.326-2.325,2.323,2.325a1.354,1.354,0,1,0,1.915-1.914Z" fill="#d94559"/>
        <path id="Path_206343" data-name="Path 206343" d="M304.677,10.638A5.319,5.319,0,1,1,310,5.319a5.325,5.325,0,0,1-5.319,5.319m0-8.974a3.654,3.654,0,1,0,3.655,3.655,3.66,3.66,0,0,0-3.655-3.655" fill="#3a67b3"/>
      </g>
    </g>
  </g>
</svg>
