<svg xmlns="http://www.w3.org/2000/svg" xmlns:xlink="http://www.w3.org/1999/xlink" width="288" height="203" viewBox="0 0 288 203">
  <defs>
    <clipPath id="clip-path">
      <rect id="Rectangle_297512" data-name="Rectangle 297512" width="288" height="203" transform="translate(300 1236)" fill="#fff" stroke="#707070" stroke-width="1"/>
    </clipPath>
    <clipPath id="clip-path-2">
      <rect id="Rectangle_297511" data-name="Rectangle 297511" width="288" height="316.606" fill="none"/>
    </clipPath>
    <clipPath id="clip-path-3">
      <rect id="Rectangle_297510" data-name="Rectangle 297510" width="288" height="203" transform="translate(0 0)" fill="none"/>
    </clipPath>
    <clipPath id="clip-path-4">
      <rect id="Rectangle_297504" data-name="Rectangle 297504" width="18.053" height="10.908" transform="translate(172.459 76.921)" fill="none"/>
    </clipPath>
    <clipPath id="clip-path-5">
      <rect id="Rectangle_297505" data-name="Rectangle 297505" width="102.939" height="108.431" transform="translate(162.576 53.817)" fill="none"/>
    </clipPath>
    <clipPath id="clip-path-6">
      <rect id="Rectangle_297507" data-name="Rectangle 297507" width="10.319" height="18.448" transform="translate(217.158 55.32)" fill="none"/>
    </clipPath>
    <clipPath id="clip-path-7">
      <rect id="Rectangle_297508" data-name="Rectangle 297508" width="27.777" height="10.505" transform="translate(239.23 81.798)" fill="none"/>
    </clipPath>
    <clipPath id="clip-path-8">
      <rect id="Rectangle_297509" data-name="Rectangle 297509" width="38.874" height="38.874" transform="translate(45.932 18.714)" fill="none"/>
    </clipPath>
  </defs>
  <g id="_3" data-name="3" transform="translate(-300 -1236)" clip-path="url(#clip-path)">
    <g id="Group_147901" data-name="Group 147901" transform="translate(300 1236)">
      <g id="Group_147900" data-name="Group 147900" clip-path="url(#clip-path-2)">
        <g id="Group_147899" data-name="Group 147899">
          <g id="Group_147898" data-name="Group 147898" clip-path="url(#clip-path-3)">
            <path id="Path_206656" data-name="Path 206656" d="M152.4,200.192H46.549a3.647,3.647,0,0,1-3.647-3.647V48.927a3.647,3.647,0,0,1,3.647-3.647H152.4a3.647,3.647,0,0,1,3.647,3.647V196.545a3.647,3.647,0,0,1-3.647,3.647" fill="#f5f5f5"/>
            <path id="Path_206657" data-name="Path 206657" d="M260.226,34.951l.282,1.43-2.833,15.327a9.139,9.139,0,0,1-7.068,1.618l-16.031-2.963s-2.548-.569-1.838-3.877c0,0,.126-1.746,1.622-1.862,0,0-3.108-1.263-2.764-3.656s2.107-2.361,2.107-2.361-2.91-.735-2.609-3.431,1.875-2.7,1.875-2.7-3.385-.823-2.538-3.81a3.075,3.075,0,0,1,3.757-2.254l11.4,2.106,9.995,1.847a5.806,5.806,0,0,1,4.64,4.585" fill="#ebebeb"/>
            <path id="Path_206658" data-name="Path 206658" d="M257.4,31.031s-3.511-3.177-4.747-6.632a17.048,17.048,0,0,1-.835-5.335c.026-.136.232-1.344.4-2.332a1.533,1.533,0,0,0-1.191-1.752,5.01,5.01,0,0,0-5.548,3.675c-1.333,4.593-.194,7.723-.155,9.122l.038,1.4Z" fill="#ebebeb"/>
            <rect id="Rectangle_297502" data-name="Rectangle 297502" width="23.135" height="11.387" transform="translate(255.201 53.999) rotate(-79.526)" fill="#ebebeb"/>
            <path id="Path_206659" data-name="Path 206659" d="M255.2,54c-.024-.005.9-5.1,2.059-11.382s2.122-11.372,2.146-11.367-.9,5.1-2.059,11.383S255.225,54,255.2,54" fill="#e0e0e0"/>
            <path id="Path_206660" data-name="Path 206660" d="M266.4,56.069c-.024,0,.9-5.1,2.059-11.382s2.122-11.372,2.146-11.367-.9,5.1-2.059,11.383-2.122,11.371-2.146,11.366" fill="#e0e0e0"/>
            <path id="Path_206661" data-name="Path 206661" d="M262.4,37.188a2.131,2.131,0,1,0,2.482-1.708,2.13,2.13,0,0,0-2.482,1.708" fill="#fff"/>
            <path id="Path_206662" data-name="Path 206662" d="M242.967,28.034c.005-.024,1.229.182,2.735.46s2.723.524,2.718.548-1.228-.182-2.735-.46-2.722-.524-2.718-.548" fill="#e0e0e0"/>
            <path id="Path_206663" data-name="Path 206663" d="M233.456,38.673a17.682,17.682,0,0,1,1.751.278c.963.178,1.739.342,1.735.366a17.588,17.588,0,0,1-1.751-.278,17.694,17.694,0,0,1-1.735-.366" fill="#e0e0e0"/>
            <path id="Path_206664" data-name="Path 206664" d="M232.758,32.381c.005-.024,1.116.161,2.482.413s2.47.477,2.465.5-1.115-.16-2.482-.413-2.469-.477-2.465-.5" fill="#e0e0e0"/>
            <path id="Path_206665" data-name="Path 206665" d="M233.654,44.523c0-.024,1.116.161,2.482.413s2.47.477,2.465.5-1.115-.16-2.482-.413-2.469-.477-2.465-.5" fill="#e0e0e0"/>
            <path id="Path_206666" data-name="Path 206666" d="M261.928,32.382c0-.024,1.573.246,3.5.6s3.491.666,3.487.69-1.573-.244-3.5-.6-3.491-.666-3.486-.69" fill="#fff"/>
            <path id="Path_206667" data-name="Path 206667" d="M232.165,36.326a.417.417,0,0,1-.05-.129,1.97,1.97,0,0,1-.075-.369,2.706,2.706,0,0,1-.006-.56,3.139,3.139,0,0,1,.147-.671,3.027,3.027,0,0,1,.3-.617,2.669,2.669,0,0,1,.352-.436,1.957,1.957,0,0,1,.288-.243c.074-.05.116-.076.119-.07s-.15.126-.361.356a3.066,3.066,0,0,0-.328.436,3.055,3.055,0,0,0-.436,1.253,3.118,3.118,0,0,0-.013.546c.022.311.078.5.062.5" fill="#fff"/>
            <path id="Path_206668" data-name="Path 206668" d="M231.573,30.257a.827.827,0,0,1-.223-.288,1.765,1.765,0,0,1,.032-1.7.83.83,0,0,1,.233-.279c.012.01-.079.115-.178.31a1.91,1.91,0,0,0-.03,1.644c.092.2.179.306.166.316" fill="#fff"/>
            <path id="Path_206669" data-name="Path 206669" d="M233,42.853a.865.865,0,0,1-.312-.28,1.516,1.516,0,0,1,.027-1.9.869.869,0,0,1,.32-.271c.01.013-.121.1-.27.31a1.552,1.552,0,0,0-.026,1.826c.143.209.271.305.261.317" fill="#fff"/>
            <path id="Path_206670" data-name="Path 206670" d="M234.28,48.677a.906.906,0,0,1-.216-.306,2,2,0,0,1,0-1.761.891.891,0,0,1,.213-.307c.013.009-.068.126-.156.333a2.244,2.244,0,0,0-.17.855,2.22,2.22,0,0,0,.176.853c.089.208.171.324.158.333" fill="#fff"/>
            <path id="Path_206671" data-name="Path 206671" d="M245.606,23.975a1.5,1.5,0,0,1-.078-.253c-.024-.082-.049-.183-.072-.3s-.055-.253-.073-.405a7.908,7.908,0,0,1-.089-1.069,8.177,8.177,0,0,1,.377-2.593,7.885,7.885,0,0,1,.391-1c.061-.14.13-.261.186-.368s.109-.2.155-.27a1.364,1.364,0,0,1,.147-.22,1.585,1.585,0,0,1-.117.238c-.041.074-.09.165-.141.275s-.116.23-.173.371a8.845,8.845,0,0,0-.369,1,8.638,8.638,0,0,0-.374,2.568A8.848,8.848,0,0,0,245.445,23c.015.151.042.286.06.405s.039.221.057.3a1.486,1.486,0,0,1,.044.261" fill="#fff"/>
            <path id="Path_206672" data-name="Path 206672" d="M250.376,175.1l.759.869,4.122,11.629a7.236,7.236,0,0,1-4.205,3.906l-12.164,4.311s-1.972.618-2.794-1.931c0,0-.6-1.246.375-1.918,0,0-2.63.364-3.341-1.413s.51-2.453.51-2.453-2.286.648-3.146-1.319.217-2.593.217-2.593-2.646.776-3.248-1.608a2.434,2.434,0,0,1,1.685-3.031l8.651-3.069,7.584-2.688a4.6,4.6,0,0,1,5,1.308" fill="#ebebeb"/>
            <path id="Path_206673" data-name="Path 206673" d="M246.889,173.524a15.789,15.789,0,0,1-5.878-2.669,13.492,13.492,0,0,1-2.684-3.328c-.036-.1-.373-1.012-.648-1.756a1.213,1.213,0,0,0-1.51-.73,3.966,3.966,0,0,0-2.35,4.715c.9,3.676,2.923,5.372,3.5,6.315l.579.944Z" fill="#ebebeb"/>
            <rect id="Rectangle_297503" data-name="Rectangle 297503" width="9.014" height="18.313" transform="translate(248.35 172.881) rotate(-19.514)" fill="#ebebeb"/>
            <path id="Path_206674" data-name="Path 206674" d="M254.468,190.142c-.018.007-1.4-3.853-3.092-8.618s-3.044-8.637-3.026-8.643,1.4,3.852,3.092,8.619,3.044,8.636,3.026,8.642" fill="#e0e0e0"/>
            <path id="Path_206675" data-name="Path 206675" d="M262.964,187.131c-.019.007-1.4-3.853-3.093-8.618s-3.044-8.637-3.026-8.643,1.4,3.852,3.093,8.619,3.043,8.635,3.026,8.642" fill="#e0e0e0"/>
            <path id="Path_206676" data-name="Path 206676" d="M252.749,175.769a1.686,1.686,0,1,0,1.026-2.153,1.686,1.686,0,0,0-1.026,2.153" fill="#fff"/>
            <path id="Path_206677" data-name="Path 206677" d="M235.806,177.181c-.007-.018.915-.362,2.057-.766s2.074-.719,2.081-.7-.915.362-2.057.767-2.074.718-2.081.7" fill="#e0e0e0"/>
            <path id="Path_206678" data-name="Path 206678" d="M233.495,188.238c-.007-.018.58-.243,1.31-.5a13.625,13.625,0,0,1,1.335-.435c.006.018-.581.243-1.311.5s-1.328.453-1.334.435" fill="#e0e0e0"/>
            <path id="Path_206679" data-name="Path 206679" d="M230.527,184.2c-.007-.018.829-.331,1.865-.7s1.882-.65,1.889-.631-.829.331-1.865.7-1.883.65-1.889.632" fill="#e0e0e0"/>
            <path id="Path_206680" data-name="Path 206680" d="M235.945,192.171c-.007-.018.829-.331,1.865-.7s1.882-.65,1.889-.631-.829.331-1.865.7-1.882.65-1.889.632" fill="#e0e0e0"/>
            <path id="Path_206681" data-name="Path 206681" d="M250.527,172.66c-.007-.018,1.175-.454,2.639-.973s2.657-.925,2.664-.907-1.175.454-2.64.974-2.656.924-2.663.906" fill="#fff"/>
            <path id="Path_206682" data-name="Path 206682" d="M231.681,187.14s-.033-.021-.085-.069a1.508,1.508,0,0,1-.2-.223,2.13,2.13,0,0,1-.225-.382,2.478,2.478,0,0,1-.166-.518,2.443,2.443,0,0,1-.037-.542,2.188,2.188,0,0,1,.069-.438,1.615,1.615,0,0,1,.1-.281.357.357,0,0,1,.054-.1c.012.005-.053.146-.106.388a2.379,2.379,0,0,0-.053.428,2.655,2.655,0,0,0,.042.527,2.6,2.6,0,0,0,.155.505,2.428,2.428,0,0,0,.207.379c.139.205.252.312.242.321" fill="#fff"/>
            <path id="Path_206683" data-name="Path 206683" d="M228.874,183.213a.67.67,0,0,1-.267-.109,1.395,1.395,0,0,1-.652-1.18.64.64,0,0,1,.05-.284c.012,0-.009.11,0,.283a1.51,1.51,0,0,0,.63,1.139c.141.1.244.139.239.151" fill="#fff"/>
            <path id="Path_206684" data-name="Path 206684" d="M234.837,191.284a.683.683,0,0,1-.325-.069,1.2,1.2,0,0,1-.734-1.315.687.687,0,0,1,.112-.312c.012,0-.041.12-.062.319a1.229,1.229,0,0,0,.705,1.263c.18.086.306.1.3.114" fill="#fff"/>
            <path id="Path_206685" data-name="Path 206685" d="M238.018,194.771a.729.729,0,0,1-.269-.124,1.589,1.589,0,0,1-.7-1.206.736.736,0,0,1,.025-.295c.013,0,0,.114.025.291a1.744,1.744,0,0,0,.68,1.169c.143.107.245.154.24.165" fill="#fff"/>
            <path id="Path_206686" data-name="Path 206686" d="M236.01,173.353a1.22,1.22,0,0,1-.154-.143c-.048-.047-.106-.106-.169-.179s-.138-.152-.21-.249a6.362,6.362,0,0,1-.485-.7,6.5,6.5,0,0,1-.767-1.927,6.358,6.358,0,0,1-.127-.84c-.014-.12-.014-.23-.018-.326s0-.178,0-.246a1.246,1.246,0,0,1,.014-.209,1.136,1.136,0,0,1,.014.209c0,.067,0,.149.012.244s.012.2.029.323a6.8,6.8,0,0,0,.141.83,7.464,7.464,0,0,0,.308.983,7.54,7.54,0,0,0,.452.926,6.946,6.946,0,0,0,.467.7c.07.1.142.179.2.253s.114.137.159.187a1.2,1.2,0,0,1,.134.161" fill="#fff"/>
            <path id="Path_206687" data-name="Path 206687" d="M157.487,193.423H51.641a3.647,3.647,0,0,1-3.647-3.647V42.159a3.647,3.647,0,0,1,3.647-3.647H157.487a3.647,3.647,0,0,1,3.647,3.647V189.776a3.647,3.647,0,0,1-3.647,3.647" fill="#fff"/>
            <path id="Path_206688" data-name="Path 206688" d="M157.487,193.423a3.857,3.857,0,0,0,1.331-.268,3.65,3.65,0,0,0,2.272-3.037c.026-3.524-.007-8.733-.008-15.435-.01-13.408-.024-32.806-.042-56.775,0-11.985-.01-25.113-.016-39.206q0-10.569-.006-21.84,0-5.631,0-11.422,0-1.449,0-2.906a3.658,3.658,0,0,0-.829-2.643,3.517,3.517,0,0,0-2.471-1.246c-.968-.024-1.967-.007-2.954-.011l-103.106.009a3.528,3.528,0,0,0-2.84,1.434,3.384,3.384,0,0,0-.635,1.5,12.758,12.758,0,0,0-.053,1.681V63.51q0,13.361,0,26.307c0,17.248-.006,33.885-.008,49.733s-.008,30.909-.012,45q0,2.643,0,5.239a3.562,3.562,0,0,0,.864,2.3,3.5,3.5,0,0,0,2.13,1.18,8.5,8.5,0,0,0,1.253.047h3.78l4.956,0,18.813.009,56.772.042,15.434.024,4.014.014c.9,0,1.368.013,1.368.013s-.463.009-1.368.013l-4.014.014-15.434.024-56.772.042-18.813.009-4.956,0H52.35a8.734,8.734,0,0,1-1.286-.048,3.714,3.714,0,0,1-2.258-1.249,3.776,3.776,0,0,1-.918-2.438q0-2.6,0-5.24c0-14.094-.008-29.154-.012-45s-.005-32.485-.008-49.733q0-12.936,0-26.307V43.258a12.691,12.691,0,0,1,.055-1.724,3.662,3.662,0,0,1,.684-1.615,3.8,3.8,0,0,1,3.052-1.54l103.106.012c.994.005,1.971-.012,2.97.011a3.779,3.779,0,0,1,2.64,1.334,3.907,3.907,0,0,1,.883,2.8V45.44q0,5.789,0,11.422,0,11.259-.007,21.84c-.006,14.093-.011,27.221-.016,39.206-.018,23.969-.032,43.367-.042,56.775-.016,6.7,0,11.906-.042,15.44a3.651,3.651,0,0,1-.935,2.1,3.629,3.629,0,0,1-2.376,1.184c-.229.01-.345.011-.345.011" fill="#263238"/>
            <path id="Path_206689" data-name="Path 206689" d="M140.288,91.277H90.44a3.346,3.346,0,0,1,0-6.692h49.848a3.346,3.346,0,1,1,0,6.692" fill="#e0e0e0"/>
            <path id="Path_206690" data-name="Path 206690" d="M75.86,96.1H70.632a5.138,5.138,0,0,1-5.138-5.138V85.734A5.138,5.138,0,0,1,70.632,80.6H75.86A5.138,5.138,0,0,1,81,85.734v5.228A5.138,5.138,0,0,1,75.86,96.1" fill="#00defc"/>
            <path id="Path_206691" data-name="Path 206691" d="M67.893,88.571l1.562-1.562,3.012,2.678,5.03-5.049,1.45,1.561-6.7,6.5Z" fill="#fff"/>
            <path id="Path_206692" data-name="Path 206692" d="M140.288,115.328H90.44a3.346,3.346,0,0,1,0-6.692h49.848a3.346,3.346,0,1,1,0,6.692" fill="#e0e0e0"/>
            <path id="Path_206693" data-name="Path 206693" d="M75.86,120.151H70.632a5.138,5.138,0,0,1-5.138-5.138v-5.228a5.138,5.138,0,0,1,5.138-5.138H75.86A5.138,5.138,0,0,1,81,109.785v5.228a5.138,5.138,0,0,1-5.138,5.138" fill="#00defc"/>
            <path id="Path_206694" data-name="Path 206694" d="M67.893,112.622l1.562-1.562,3.012,2.678,5.03-5.05,1.45,1.562-6.7,6.5Z" fill="#fff"/>
            <path id="Path_206695" data-name="Path 206695" d="M140.288,139.379H90.44a3.345,3.345,0,1,1,0-6.691h49.848a3.345,3.345,0,1,1,0,6.691" fill="#e0e0e0"/>
            <path id="Path_206696" data-name="Path 206696" d="M75.86,144.2H70.632a5.138,5.138,0,0,1-5.138-5.138v-5.228a5.138,5.138,0,0,1,5.138-5.138H75.86A5.138,5.138,0,0,1,81,133.836v5.228A5.138,5.138,0,0,1,75.86,144.2" fill="#00defc"/>
            <path id="Path_206697" data-name="Path 206697" d="M67.893,136.673l1.562-1.562,3.012,2.678,5.03-5.05,1.45,1.562-6.7,6.5Z" fill="#fff"/>
            <path id="Path_206698" data-name="Path 206698" d="M140.288,163.431H90.44a3.346,3.346,0,1,1,0-6.692h49.848a3.346,3.346,0,1,1,0,6.692" fill="#e0e0e0"/>
            <path id="Path_206699" data-name="Path 206699" d="M75.86,168.253H70.632a5.137,5.137,0,0,1-5.138-5.137v-5.229a5.138,5.138,0,0,1,5.138-5.138H75.86A5.138,5.138,0,0,1,81,157.887v5.229a5.137,5.137,0,0,1-5.138,5.137" fill="#00defc"/>
            <path id="Path_206700" data-name="Path 206700" d="M67.893,160.724l1.562-1.562,3.012,2.678,5.03-5.05,1.45,1.562-6.7,6.5Z" fill="#fff"/>
            <path id="Path_206701" data-name="Path 206701" d="M205.8,155.005a65.368,65.368,0,0,1,1.427,19.228c-.315,4.086-14.1,117.129-14.1,117.129H174.5l5.233-106.245-1.524.331s-10.163,45.313-10.993,52.65c-.745,6.594-9.316,54.5-9.316,54.5l-17.022.2,5.436-63.369,6.327-60.8,2.38-17.7Z" fill="#263238"/>
            <path id="Path_206702" data-name="Path 206702" d="M179.059,177.908c-.008.01.033.053.121.127a1.278,1.278,0,0,0,.454.215,2.129,2.129,0,0,0,1.765-.418,3.5,3.5,0,0,0,1.205-2.406c.134-1.012.154-2.1.229-3.251.125-2.3.219-4.382.268-5.89a16.28,16.28,0,0,0,0-2.446,16.448,16.448,0,0,0-.26,2.432c-.115,1.505-.248,3.585-.374,5.885-.074,1.145-.087,2.255-.2,3.224a3.313,3.313,0,0,1-1.031,2.249,2.059,2.059,0,0,1-1.58.482,3.516,3.516,0,0,1-.6-.2" fill="#455a64"/>
            <path id="Path_206703" data-name="Path 206703" d="M151.671,166.978a1.494,1.494,0,0,0,.521.188,8.852,8.852,0,0,0,1.487.25,10.713,10.713,0,0,0,8.959-3.6,8.935,8.935,0,0,0,.9-1.21,1.5,1.5,0,0,0,.246-.5c-.052-.035-.467.633-1.335,1.532a11.435,11.435,0,0,1-8.756,3.517c-1.25-.048-2.011-.243-2.024-.182" fill="#455a64"/>
            <path id="Path_206704" data-name="Path 206704" d="M198.378,162.249a6.087,6.087,0,0,0,.283,1.869,13.987,13.987,0,0,0,4.986,7.5,6.082,6.082,0,0,0,1.614.984,16.942,16.942,0,0,1-6.883-10.357" fill="#455a64"/>
            <path id="Path_206705" data-name="Path 206705" d="M255.247,130.264l4.273,1.351,7.761-4.29,4.4,12.263L261.123,142.1l-8-.88Z" fill="#ae7461"/>
            <path id="Path_206706" data-name="Path 206706" d="M205.555,81.026s4.365,2.62,7.98,11.524c7.1,17.49,11.562,26.932,11.562,26.932l32.6,10.3-2.6,13.069s-33.048-4.6-37.474-6.263c-6.054-2.271-10.545-14.212-10.545-14.212Z" fill="#e0e0e0"/>
            <path id="Path_206707" data-name="Path 206707" d="M196.6,41.788a3.44,3.44,0,0,0,1.115-6.753,3.578,3.578,0,0,0-3.421-5.868,4.283,4.283,0,0,0-6.628-3.177,4.816,4.816,0,0,0-5.928.181,3.425,3.425,0,0,0-2.724,5.956" fill="#263238"/>
            <path id="Path_206708" data-name="Path 206708" d="M181.167,29.6l.755-.037a14.594,14.594,0,0,1,15.2,12.682c.918,7.015,1.842,14.777,1.983,18.557.292,7.828-7.472,9.434-7.472,9.434l1.128,9.366-19.016.355-3.373-34.005c-1.1-8.088,2.682-15.472,10.8-16.352" fill="#ae7461"/>
            <path id="Path_206709" data-name="Path 206709" d="M191.694,70.22a18.987,18.987,0,0,1-10.4-2.491s2.691,5.511,10.462,4.418Z" fill="#6f4439"/>
            <path id="Path_206710" data-name="Path 206710" d="M194.3,49.462a1.119,1.119,0,0,1-1.021,1.181,1.07,1.07,0,0,1-1.2-.95,1.12,1.12,0,0,1,1.02-1.182,1.071,1.071,0,0,1,1.2.951" fill="#263238"/>
            <path id="Path_206711" data-name="Path 206711" d="M195.627,46.156c-.131.153-1.008-.432-2.211-.369-1.2.046-2.053.708-2.191.567-.067-.062.061-.332.431-.63a3.066,3.066,0,0,1,1.745-.635,2.95,2.95,0,0,1,1.769.476c.384.265.522.522.457.591" fill="#263238"/>
            <path id="Path_206712" data-name="Path 206712" d="M183.338,49.765a1.117,1.117,0,0,1-1.021,1.18,1.069,1.069,0,0,1-1.2-.95,1.12,1.12,0,0,1,1.02-1.181,1.071,1.071,0,0,1,1.2.951" fill="#263238"/>
            <path id="Path_206713" data-name="Path 206713" d="M183.821,46.967c-.131.153-1.01-.431-2.211-.369-1.2.046-2.053.708-2.191.568-.067-.062.059-.332.431-.631A3.078,3.078,0,0,1,181.6,45.9a2.95,2.95,0,0,1,1.769.476c.383.265.522.522.457.591" fill="#263238"/>
            <path id="Path_206714" data-name="Path 206714" d="M188.627,55.666a7.95,7.95,0,0,1,1.935-.45c.305-.046.593-.122.634-.334a1.565,1.565,0,0,0-.25-.9q-.487-1.092-1.024-2.292a40.36,40.36,0,0,1-2.343-6.014,40.081,40.081,0,0,1,2.821,5.811q.518,1.209.987,2.308a1.782,1.782,0,0,1,.219,1.2.768.768,0,0,1-.482.474,2.1,2.1,0,0,1-.518.1,7.842,7.842,0,0,1-1.979.1" fill="#263238"/>
            <path id="Path_206715" data-name="Path 206715" d="M184.634,42.29c-.143.313-1.19.033-2.461.056-1.271-.007-2.328.285-2.459-.026-.058-.148.154-.433.6-.7a3.8,3.8,0,0,1,1.883-.495,3.677,3.677,0,0,1,1.865.472c.435.262.636.544.573.693" fill="#263238"/>
            <path id="Path_206716" data-name="Path 206716" d="M195.439,41.195c-.24.287-1.246.052-2.44.1-1.195.01-2.194.293-2.441.019-.109-.134.037-.415.465-.695a3.9,3.9,0,0,1,1.961-.547,3.833,3.833,0,0,1,1.972.453c.436.26.588.534.483.672" fill="#263238"/>
            <path id="Path_206717" data-name="Path 206717" d="M196.188,38.694s-2.307-4.8-4.726-5.823c-2.929-1.242-4,1.959-6.767,1.332s-5.56-1.819-8.241.427c-2.934,2.457-1.425,4-1.441,7.485-.064,14.111-2.437,18.218-3.5,11.626-.116-.722-2.16-1.2-2.612-4.253-.585-3.96-.978-8.783-.23-11.651.63-2.417,1.906-4.129,4.249-6.063,3.7-3.052,8.972-3.376,12.573-3.193s10.714,3.962,10.692,10.113" fill="#263238"/>
            <path id="Path_206718" data-name="Path 206718" d="M172,53.5a2.124,2.124,0,0,0-2.4-1.931c-1.452.211-3.034,1.119-2.788,4.13.437,5.339,5.708,3.8,5.7,3.646,0-.1-.319-3.612-.521-5.845" fill="#ae7461"/>
            <path id="Path_206719" data-name="Path 206719" d="M171.2,57.434c-.025-.015-.088.073-.239.158a.939.939,0,0,1-.694.071,2.309,2.309,0,0,1-1.234-1.978,3.084,3.084,0,0,1,.151-1.353,1.077,1.077,0,0,1,.642-.771.473.473,0,0,1,.569.21c.084.143.059.252.088.259s.107-.1.046-.316a.589.589,0,0,0-.237-.317.7.7,0,0,0-.526-.094,1.312,1.312,0,0,0-.9.907,3.174,3.174,0,0,0-.2,1.515,2.423,2.423,0,0,0,1.545,2.195.993.993,0,0,0,.839-.211c.155-.145.173-.267.154-.275" fill="#6f4439"/>
            <path id="Path_206720" data-name="Path 206720" d="M171.594,43.136a5.076,5.076,0,0,0,2.317.933,1.747,1.747,0,0,0,1.875-1.323c.045-.375-.068-.8.163-1.1.275-.357.819-.277,1.269-.251,1.564.087,3.295-1.72,3.616-3.253a1.4,1.4,0,0,0,1.885.294,5.021,5.021,0,0,0,1.232-1.21,2.2,2.2,0,0,1,1.79-1.01,5.263,5.263,0,0,0,1.176.2c.7-.1,1-.937,1.073-1.639s.114-1.52.69-1.929a2.8,2.8,0,0,1,1.909-.147c.652.063,1.479-.131,1.613-.771a1.269,1.269,0,0,0-.287-.958,3.469,3.469,0,0,0-4.155-1.108,4.7,4.7,0,0,0-8.671-.482,4.77,4.77,0,0,0-7.53,2.116,3.458,3.458,0,0,0-3.645,5.217,3.285,3.285,0,0,0-1.675,2.7,1.882,1.882,0,0,0,2.223,1.814,1.915,1.915,0,0,0,3.4,1.743" fill="#263238"/>
            <path id="Path_206721" data-name="Path 206721" d="M188.236,31.413a.282.282,0,0,1,0,.1c0,.065,0,.162-.02.287a3.36,3.36,0,0,1-.337,1.05,3.83,3.83,0,0,1-1.124,1.324,3.563,3.563,0,0,1-2.159.733l.084-.123a1.936,1.936,0,0,1-.034,1.482,5.521,5.521,0,0,1-.85,1.361,3.934,3.934,0,0,1-.568.644,1.868,1.868,0,0,1-.832.356,1.954,1.954,0,0,1-1.752-.531l.2-.067a4.017,4.017,0,0,1-1.563,2.86,2.927,2.927,0,0,1-1.728.663,5.268,5.268,0,0,1-1.75-.294l.14-.07A4.221,4.221,0,0,1,174.76,42.9a2.248,2.248,0,0,1-1.838.6,2.95,2.95,0,0,1-2.383-2.193l.124.05a2.762,2.762,0,0,1-1.825.362,3.017,3.017,0,0,1-1.31-.508,2.607,2.607,0,0,1-.63-.624,1.264,1.264,0,0,1-.149-.27,3.22,3.22,0,0,0,.83.819,2.983,2.983,0,0,0,1.276.454,2.64,2.64,0,0,0,1.72-.371l.1-.062.027.112a2.78,2.78,0,0,0,2.253,2.03,2.041,2.041,0,0,0,1.667-.564,4.02,4.02,0,0,0,1.112-1.626l.037-.1.1.031a5.1,5.1,0,0,0,1.673.28,2.7,2.7,0,0,0,1.6-.617,3.8,3.8,0,0,0,1.479-2.695l.021-.255.177.188a1.736,1.736,0,0,0,1.547.469,1.673,1.673,0,0,0,.738-.31,3.892,3.892,0,0,0,.536-.6,5.381,5.381,0,0,0,.832-1.3,1.758,1.758,0,0,0,.05-1.342l-.05-.126.135,0a3.441,3.441,0,0,0,2.071-.671,3.8,3.8,0,0,0,1.119-1.255,4.146,4.146,0,0,0,.442-1.388" fill="#455a64"/>
            <path id="Path_206722" data-name="Path 206722" d="M188.569,59.793c-.04-.2-1.342.142-2.559-.728s-1.439-2.294-1.624-2.256c-.086,0-.171.375-.033.965a3.352,3.352,0,0,0,1.282,1.9,2.921,2.921,0,0,0,2.124.527c.557-.094.841-.324.81-.411" fill="#263238"/>
            <path id="Path_206723" data-name="Path 206723" d="M220.318,109.251c-.119-.422-7.084-19.38-9.306-23.529-2.658-4.964-8.246-7.16-11.714-7.373s-40.589,2.744-40.589,2.744-11.087,2.484-12.5,12.019c-1.627,10.978-3.053,36.108-3.053,36.108l16.9-8.659,2.189-5.512,34.957,7.8,8.535-12.626Z" fill="#e0e0e0"/>
            <path id="Path_206724" data-name="Path 206724" d="M156.257,82.174l14.5-6.392,1.625-6.253,16.924,8,3.545-3.917,1.484,4.414,3.709,1.213,8.668,15.245-.027,32.484,1.754,28.022-1.879,4.423-15.528,2.291a17.654,17.654,0,0,1-5.122.006l-31.518-5.153-.812-9.257,3.366-25.518Z" fill="#e0e0e0"/>
            <path id="Path_206725" data-name="Path 206725" d="M172.381,69.528a42.651,42.651,0,0,1,6.752,3.141c4.761,2.541,10.172,4.86,10.172,4.86l-.411,7.642L170.883,76.13" fill="#e0e0e0"/>
            <path id="Path_206726" data-name="Path 206726" d="M192.85,73.613l-3.545,3.917,1.9,8.191,3.157-7.4" fill="#e0e0e0"/>
            <g id="Group_147885" data-name="Group 147885" opacity="0.3">
              <g id="Group_147884" data-name="Group 147884">
                <g id="Group_147883" data-name="Group 147883" clip-path="url(#clip-path-4)">
                  <path id="Path_206727" data-name="Path 206727" d="M189.371,78.375c.157.117,1.141,9.454,1.141,9.454L172.459,76.921l16.435,8.251Z"/>
                </g>
              </g>
            </g>
            <path id="Path_206728" data-name="Path 206728" d="M189.249,113.221c-.271-7.141.855-25.36.855-25.36l2.353-.379a265.891,265.891,0,0,1,6.037,39.413c.665,8.783.665,18.955.665,18.955L194.431,156l-5.224-10.08s.371-24.018.042-32.7" fill="#455a64"/>
            <path id="Path_206729" data-name="Path 206729" d="M155.178,83.278c-.028.035.489.438,1.22,1.191a14.773,14.773,0,0,1,3.826,7.118c.225,1.025.276,1.678.32,1.674a1.59,1.59,0,0,0,0-.461,9.324,9.324,0,0,0-.15-1.248,13.314,13.314,0,0,0-3.875-7.209,9.6,9.6,0,0,0-.958-.814,1.618,1.618,0,0,0-.387-.251" fill="#263238"/>
            <path id="Path_206730" data-name="Path 206730" d="M189.249,81.184l1.612-.629,1.528,2.621.276,4.306-2.153.347-1.618-2.657Z" fill="#455a64"/>
            <path id="Path_206731" data-name="Path 206731" d="M206.684,93.994c-.069,0-.125,9.321-.125,20.816s.056,20.819.125,20.819.125-9.319.125-20.819-.056-20.816-.125-20.816" fill="#263238"/>
            <path id="Path_206732" data-name="Path 206732" d="M189.135,77.463c-.031.021.347.6.919,1.557s1.328,2.3,2.05,3.839c.058.126.117.251.171.369l.113.242.114-.24a30.051,30.051,0,0,0,1.507-3.817c.156-.5.268-.9.337-1.182a1.552,1.552,0,0,0,.081-.443c-.035-.01-.228.6-.581,1.57s-.877,2.314-1.57,3.764l.227,0-.172-.372a31.92,31.92,0,0,0-2.126-3.825c-.307-.47-.568-.84-.756-1.091a1.79,1.79,0,0,0-.314-.373" fill="#263238"/>
            <path id="Path_206733" data-name="Path 206733" d="M170.756,75.782a1.205,1.205,0,0,0,.247.149l.731.381,2.691,1.394c2.269,1.181,5.378,2.863,8.823,4.7,2.1,1.117,4.085,2.153,5.814,3.018l.159.08,0-.177c.022-2.242.04-4.131.054-5.5,0-.642,0-1.16,0-1.55a3.322,3.322,0,0,0-.025-.55,3.327,3.327,0,0,0-.045.549c-.015.389-.034.907-.059,1.548-.036,1.366-.085,3.255-.144,5.5l.161-.1c-1.718-.88-3.7-1.924-5.8-3.042-3.444-1.84-6.568-3.5-8.861-4.64-1.145-.572-2.079-1.021-2.728-1.323l-.752-.34a1.238,1.238,0,0,0-.269-.1" fill="#263238"/>
            <path id="Path_206734" data-name="Path 206734" d="M204.507,81.671c-.037.022.246.5.611,1.319a14.569,14.569,0,0,1,1.249,6.794c-.05.893-.144,1.443-.1,1.45a1.2,1.2,0,0,0,.112-.377,8.428,8.428,0,0,0,.167-1.059,12.613,12.613,0,0,0-1.266-6.884,8.73,8.73,0,0,0-.532-.93c-.141-.211-.225-.322-.239-.313" fill="#263238"/>
            <path id="Path_206735" data-name="Path 206735" d="M190.906,88.107c.037.059.446-.134.914-.429s.818-.583.781-.641-.447.133-.915.429-.817.582-.78.641" fill="#263238"/>
            <path id="Path_206736" data-name="Path 206736" d="M190.131,87.056a11.86,11.86,0,0,0,1.1-2.18,11.986,11.986,0,0,0,.865-2.281,11.9,11.9,0,0,0-1.1,2.18,11.986,11.986,0,0,0-.865,2.281" fill="#263238"/>
            <path id="Path_206737" data-name="Path 206737" d="M153.288,83.776S147.7,87.8,147,90.018s-3.666,38.322-4.19,42.618-1.047,12.325,2.27,14.944,10.474,4.582,10.474,4.582l6.613-13.66-3.5-7.332,3.5-27.418Z" fill="#e0e0e0"/>
            <path id="Path_206738" data-name="Path 206738" d="M153.963,151.68a1.718,1.718,0,0,1,.357-.026,8.776,8.776,0,0,0,1.028-.066,7.615,7.615,0,0,0,3.574-1.293,9.784,9.784,0,0,0,3.409-4.666,21.4,21.4,0,0,0,1.293-7.348l.031.093-5.131-7.1-.04-.056.009-.069.073-.577c.987-7.689,1.881-14.648,2.532-19.725.325-2.5.588-4.531.776-5.976q.134-1.021.213-1.624a3.867,3.867,0,0,1,.082-.566.461.461,0,0,1,.007.145c0,.1-.006.24-.019.428-.036.4-.086.948-.147,1.632-.142,1.417-.37,3.464-.665,5.991-.59,5.056-1.449,12.034-2.431,19.739l-.073.578-.032-.125,5.114,7.114.032.044v.05a21.421,21.421,0,0,1-1.363,7.456,9.908,9.908,0,0,1-3.555,4.733,6.9,6.9,0,0,1-2.037.943l-.457.126-.431.074a4.775,4.775,0,0,1-.754.09,6.712,6.712,0,0,1-1.038.013,1.731,1.731,0,0,1-.357-.03" fill="#263238"/>
            <path id="Path_206739" data-name="Path 206739" d="M147.213,133.7a5.843,5.843,0,0,1,1.467-1.043,13.689,13.689,0,0,1,8.427-1.637,5.827,5.827,0,0,1,1.75.418,16.767,16.767,0,0,0-11.644,2.262" fill="#263238"/>
            <path id="Path_206740" data-name="Path 206740" d="M191.046,97.76h0c.019,0,.318,1.2.829,3.314a14.941,14.941,0,0,1,4.306-4.12l-.021,0s8.625-8.568,11.379-17.577a43.769,43.769,0,0,0,1.5-13.783c-.08-.346-.753-3.418-1.3-5.931a3.937,3.937,0,0,1,2.845-4.637c4.282-1.154,15.876-3.41,18.536,4.377,3.968,11.619-2.447,24.168-2.377,27.759.013.679.023,1.228.032,1.674,3.4-.786,6.035-1.352,6.048-1.3l0,0,22.325-5.209s7.376-2.232,9.906,5.329-6.054,10.075-6.054,10.075,4.035-.177,5.131,6.7-6.279,9.109-6.279,9.109,4.517-.291,5.686,5.805c1.138,5.933-6.236,9.509-6.63,9.7a14.56,14.56,0,0,1,1.778-.334,10.018,10.018,0,0,1-1.353.389c3.439.44,3.937,4.535,3.937,4.535,2.216,8.4-4.25,10.164-4.25,10.164l-40.759,9.519a23.463,23.463,0,0,1-12.288-.446c.391,1.737.6,2.715.586,2.72l-28.469,6.649c-.061.014-3.135-12.923-6.865-28.893s-6.7-28.933-6.643-28.947Z" fill="#ffb30b"/>
            <g id="Group_147888" data-name="Group 147888" opacity="0.3">
              <g id="Group_147887" data-name="Group 147887">
                <g id="Group_147886" data-name="Group 147886" clip-path="url(#clip-path-5)">
                  <path id="Path_206741" data-name="Path 206741" d="M191.046,97.76h0c.019,0,.318,1.2.829,3.314a14.941,14.941,0,0,1,4.306-4.12l-.021,0s8.625-8.568,11.379-17.577a43.769,43.769,0,0,0,1.5-13.783c-.08-.346-.753-3.418-1.3-5.931a3.937,3.937,0,0,1,2.845-4.637c4.282-1.154,15.876-3.41,18.536,4.377,3.968,11.619-2.447,24.168-2.377,27.759.013.679.023,1.228.032,1.674,3.4-.786,6.035-1.352,6.048-1.3l0,0,22.325-5.209s7.376-2.232,9.906,5.329-6.054,10.075-6.054,10.075,4.035-.177,5.131,6.7-6.279,9.109-6.279,9.109,4.517-.291,5.686,5.805c1.138,5.933-6.236,9.509-6.63,9.7a14.56,14.56,0,0,1,1.778-.334,10.018,10.018,0,0,1-1.353.389c3.439.44,3.937,4.535,3.937,4.535,2.216,8.4-4.25,10.164-4.25,10.164l-40.759,9.519a23.463,23.463,0,0,1-12.288-.446c.391,1.737.6,2.715.586,2.72l-28.469,6.649c-.061.014-3.135-12.923-6.865-28.893s-6.7-28.933-6.643-28.947Z"/>
                </g>
              </g>
            </g>
            <path id="Path_206742" data-name="Path 206742" d="M196.549,105.871l-.552,3.7,9.1,38.969a23.466,23.466,0,0,0,18.319,3.3l40.759-9.519s6.466-1.765,4.25-10.164c0,0-.532-4.461-4.381-4.581,0,0,7.818-3.61,6.649-9.705s-5.686-5.805-5.686-5.805,7.376-2.233,6.279-9.11-5.131-6.7-5.131-6.7,8.584-2.514,6.054-10.075-9.906-5.329-9.906-5.329l-28.991,6.764L207.9,93.557a14.9,14.9,0,0,0-11.351,12.314" fill="#ffb30b"/>
            <path id="Path_206743" data-name="Path 206743" d="M203.321,95.478s8.625-8.567,11.38-17.577a43.8,43.8,0,0,0,1.5-13.783c-.081-.346-.754-3.417-1.3-5.931a3.934,3.934,0,0,1,2.844-4.636c4.283-1.154,12.01.974,14.669,8.761,3.968,11.619,1.421,19.784,1.49,23.374l.069,3.591Z" fill="#ffb30b"/>
            <rect id="Rectangle_297506" data-name="Rectangle 297506" width="29.235" height="59.397" transform="matrix(0.974, -0.227, 0.227, 0.974, 169.738, 102.928)" fill="#ffb30b"/>
            <path id="Path_206744" data-name="Path 206744" d="M211.715,154.119c.062-.014-2.913-12.975-6.642-28.945s-6.8-28.91-6.866-28.9,2.912,12.972,6.643,28.947,6.8,28.907,6.865,28.893" fill="#263238"/>
            <path id="Path_206745" data-name="Path 206745" d="M183.247,160.768c.062-.014-2.913-12.975-6.642-28.945s-6.8-28.91-6.866-28.895,2.912,12.972,6.643,28.947,6.8,28.907,6.865,28.893" fill="#263238"/>
            <path id="Path_206746" data-name="Path 206746" d="M191.249,111.866a5.47,5.47,0,1,1-6.571-4.083,5.47,5.47,0,0,1,6.571,4.083" fill="#fff"/>
            <path id="Path_206747" data-name="Path 206747" d="M239.984,86.064c-.015-.062-3.13.613-6.959,1.507S226.1,89.24,226.118,89.3s3.131-.613,6.959-1.508,6.92-1.668,6.907-1.73" fill="#263238"/>
            <path id="Path_206748" data-name="Path 206748" d="M265.649,112.21a90.1,90.1,0,0,0-8.862,2.07,90.862,90.862,0,0,0,8.862-2.07" fill="#263238"/>
            <path id="Path_206749" data-name="Path 206749" d="M266.685,95.991c-.014-.062-2.842.546-6.315,1.357s-6.278,1.519-6.263,1.581,2.841-.546,6.315-1.358,6.277-1.518,6.263-1.58" fill="#263238"/>
            <path id="Path_206750" data-name="Path 206750" d="M265.843,127.238c-.014-.062-2.842.546-6.315,1.357s-6.278,1.519-6.263,1.581,2.841-.546,6.315-1.358,6.277-1.518,6.263-1.58" fill="#263238"/>
            <g id="Group_147891" data-name="Group 147891" opacity="0.3">
              <g id="Group_147890" data-name="Group 147890">
                <g id="Group_147889" data-name="Group 147889" clip-path="url(#clip-path-6)">
                  <path id="Path_206751" data-name="Path 206751" d="M217.987,56.415a3.379,3.379,0,0,0-.652,3.39,21.612,21.612,0,0,0,1.556,3.278,12.326,12.326,0,0,1,.952,7.834,2.836,2.836,0,0,0,.122,2.365c.727.9,2.2.4,3.113-.307a11.637,11.637,0,0,0,4.078-11.765,8.178,8.178,0,0,0-2.873-4.625c-1.486-1.1-3.772-2.106-6.3-.17" fill="#fff"/>
                </g>
              </g>
            </g>
            <g id="Group_147894" data-name="Group 147894" opacity="0.3">
              <g id="Group_147893" data-name="Group 147893">
                <g id="Group_147892" data-name="Group 147892" clip-path="url(#clip-path-7)">
                  <path id="Path_206752" data-name="Path 206752" d="M264.971,81.865a6.988,6.988,0,0,0-3.01.311l-17.2,4.369c-1.876.477-5.4.9-5.431,2.815a2.274,2.274,0,0,0,1.443,2.654,6.063,6.063,0,0,0,3.29.123c2.3-.368,4.571-.9,6.838-1.445a88.2,88.2,0,0,0,13.446-4.007,6.288,6.288,0,0,0,1.808-1.018A2.331,2.331,0,0,0,267,83.843a2.4,2.4,0,0,0-2.033-1.978" fill="#fff"/>
                </g>
              </g>
            </g>
            <path id="Path_206753" data-name="Path 206753" d="M191.876,99.486c-.014-.062-4,.818-8.91,1.963s-8.874,2.125-8.859,2.187,4-.817,8.911-1.964,8.872-2.124,8.858-2.186" fill="#fff"/>
            <path id="Path_206754" data-name="Path 206754" d="M268.679,106.036a1.063,1.063,0,0,0,.113-.337,5.076,5.076,0,0,0,.147-.955,6.8,6.8,0,0,0-.052-1.438,7.368,7.368,0,0,0-1.3-3.25,6.842,6.842,0,0,0-.956-1.075,5.042,5.042,0,0,0-.767-.589,1.071,1.071,0,0,0-.313-.166c-.025.036.4.307.968.872a7.78,7.78,0,0,1,.895,1.079,8.555,8.555,0,0,1,.807,1.511,8.642,8.642,0,0,1,.46,1.65,7.752,7.752,0,0,1,.1,1.4c-.02.8-.14,1.291-.1,1.3" fill="#fff"/>
            <path id="Path_206755" data-name="Path 206755" d="M269.471,90.4a2.108,2.108,0,0,0,.536-.765,4.521,4.521,0,0,0-.285-4.363,2.1,2.1,0,0,0-.631-.689c-.03.028.215.286.493.773a4.905,4.905,0,0,1,.275,4.213c-.211.519-.421.807-.388.831" fill="#fff"/>
            <path id="Path_206756" data-name="Path 206756" d="M267.318,122.877a2.227,2.227,0,0,0,.766-.756,3.89,3.89,0,0,0-.3-4.876,2.23,2.23,0,0,0-.852-.657c-.024.033.323.258.729.762a3.989,3.989,0,0,1,.286,4.682c-.342.55-.659.815-.631.845" fill="#fff"/>
            <path id="Path_206757" data-name="Path 206757" d="M264.733,137.965a2.344,2.344,0,0,0,.516-.81,5.127,5.127,0,0,0-.2-4.518,2.349,2.349,0,0,0-.584-.762c-.032.025.191.314.44.837a5.642,5.642,0,0,1,.19,4.381c-.2.542-.4.85-.366.872" fill="#fff"/>
            <path id="Path_206758" data-name="Path 206758" d="M232.728,75.97a3.935,3.935,0,0,0,.17-.659c.05-.213.105-.476.147-.784s.111-.657.14-1.049a20.249,20.249,0,0,0,.1-2.752,21.016,21.016,0,0,0-1.278-6.6,20.33,20.33,0,0,0-1.122-2.516c-.173-.352-.364-.652-.521-.92s-.3-.494-.429-.673a3.833,3.833,0,0,0-.4-.548,3.9,3.9,0,0,0,.328.595c.114.186.251.415.394.69s.325.576.488.93a22.637,22.637,0,0,1,1.067,2.514,22.315,22.315,0,0,1,1.267,6.541,22.766,22.766,0,0,1-.052,2.73c-.019.389-.073.737-.106,1.045s-.071.571-.108.786a3.993,3.993,0,0,0-.082.675" fill="#fff"/>
            <path id="Path_206759" data-name="Path 206759" d="M167.73,144.214s2.239-1.733,3.9-1.805,3.827.577,4.26.361,1.445-1.167,2.1-.367,1.444,3.689-2.022,4.483h-2.384a11.617,11.617,0,0,0,.867,3.322c.578.939,8.666,11.121,8.666,11.121s1.011,1.011.505,2.022-2.671.434-2.671.434a3.449,3.449,0,0,1-3.25.722,12.174,12.174,0,0,1-2.456-1.156,3.21,3.21,0,0,1-3.9,0c-2.022-1.516-8.765-9.966-8.765-9.966l2.41-9.46Z" fill="#ae7461"/>
            <path id="Path_206760" data-name="Path 206760" d="M160.711,138.625l7.019,5.589-5.154,9.171L152.3,149.653s.295-10.832,8.413-11.028" fill="#ae7461"/>
            <path id="Path_206761" data-name="Path 206761" d="M270.188,126.139s-.222-2.513-1.626-2-2,3.475-2,3.475Z" fill="#ae7461"/>
            <path id="Path_206762" data-name="Path 206762" d="M265.161,128.618a7.958,7.958,0,0,1,5.84-2.513c3.4.221,1.257,3.1,1.257,3.1s2.516,1.553.667,3.771l-.3.591s2.144.813-.073,3.1a2.257,2.257,0,0,1-.3,2.587c-1.109,1.109-3.881-.369-3.881-.369s-2.551.591-2.772-.444a1.973,1.973,0,0,1,.591-1.922c.222-.148,1.552-.665,1.552-.665s-2.957.369-3.031-.37-.369-1.552,1.849-2.292l1.182-.316s-3.066.1-3.085-.645-.167-1.035.942-1.552a17.051,17.051,0,0,0,1.995-1.109s-2.883.591-2.439-.961" fill="#ae7461"/>
            <path id="Path_206763" data-name="Path 206763" d="M264.618,131.5a10.466,10.466,0,0,1,7.754-2.192,3.282,3.282,0,0,0-1.207-.259,8.361,8.361,0,0,0-5.654,1.6,3.293,3.293,0,0,0-.893.853" fill="#6f4439"/>
            <path id="Path_206764" data-name="Path 206764" d="M264.959,135.732c.017-.021-.072-.093-.142-.264a1.146,1.146,0,0,1,.006-.768,1.728,1.728,0,0,1,.669-.928,3.868,3.868,0,0,1,1.352-.564,30.959,30.959,0,0,1,3.875-.466,3.363,3.363,0,0,0-1.155-.128,11.831,11.831,0,0,0-2.791.3,3.844,3.844,0,0,0-1.447.634,1.874,1.874,0,0,0-.711,1.1,1.167,1.167,0,0,0,.1.878c.121.182.242.221.248.209" fill="#6f4439"/>
            <path id="Path_206765" data-name="Path 206765" d="M266.2,138.981c.008-.023-.106-.066-.257-.208a1.254,1.254,0,0,1,.066-1.85,5.042,5.042,0,0,1,1.45-.672,9.693,9.693,0,0,1,2.962-.156,3.671,3.671,0,0,0,1.262-.067,9.126,9.126,0,0,0-1.247-.148,8.188,8.188,0,0,0-3.062.078,4.838,4.838,0,0,0-1.546.751,1.358,1.358,0,0,0-.434.664,1.619,1.619,0,0,0-.031.68,1.231,1.231,0,0,0,.506.813c.194.128.328.131.331.115" fill="#6f4439"/>
            <path id="Path_206766" data-name="Path 206766" d="M265.117,128.736c.023,0,.065-.093.217-.232a6.681,6.681,0,0,1,.673-.546,9.625,9.625,0,0,1,2.505-1.347,6.449,6.449,0,0,1,2.793-.4,10.965,10.965,0,0,1,1.137.324,2.018,2.018,0,0,0-1.1-.536,5.814,5.814,0,0,0-2.921.326c-2.209.793-3.49,2.316-3.306,2.416" fill="#6f4439"/>
            <path id="Path_206767" data-name="Path 206767" d="M140.549,58.991H123.908A13.308,13.308,0,0,1,110.6,45.683V29.042a13.308,13.308,0,0,1,13.308-13.307h16.641a13.308,13.308,0,0,1,13.308,13.307V45.683a13.308,13.308,0,0,1-13.308,13.308" fill="#94b0c9"/>
            <path id="Path_206768" data-name="Path 206768" d="M132.782,58.991H116.141a13.308,13.308,0,0,1-13.308-13.308V29.042a13.308,13.308,0,0,1,13.308-13.307h16.641A13.308,13.308,0,0,1,146.09,29.042V45.683a13.308,13.308,0,0,1-13.308,13.308" fill="#a8c0d9"/>
            <path id="Path_206769" data-name="Path 206769" d="M109.526,37.985l4.357-4.357,8.4,7.469,14.032-14.086,4.047,4.357L121.664,49.5Z" fill="#fff"/>
            <path id="Path_206770" data-name="Path 206770" d="M40.672,58.577H33.729A13.307,13.307,0,0,1,20.422,45.27V38.327A13.307,13.307,0,0,1,33.729,25.02h6.943A13.308,13.308,0,0,1,53.98,38.327V45.27A13.307,13.307,0,0,1,40.672,58.577" fill="#26defc"/>
            <path id="Path_206771" data-name="Path 206771" d="M34.647,58.577H27.7A13.307,13.307,0,0,1,14.4,45.27V38.327A13.307,13.307,0,0,1,27.7,25.02h6.943A13.308,13.308,0,0,1,47.955,38.327V45.27A13.307,13.307,0,0,1,34.647,58.577" fill="#d9fafe"/>
            <path id="Path_206772" data-name="Path 206772" d="M19.589,42.281l3.38-3.38,6.52,5.795L40.375,33.767l3.139,3.381L29.006,51.215Z" fill="#fff"/>
            <path id="Path_206773" data-name="Path 206773" d="M71.5,57.588H59.24A13.308,13.308,0,0,1,45.932,44.28V32.022A13.308,13.308,0,0,1,59.24,18.715H71.5A13.308,13.308,0,0,1,84.806,32.022V44.28A13.308,13.308,0,0,1,71.5,57.588" fill="#b9ddfc"/>
            <g id="Group_147897" data-name="Group 147897" opacity="0.3">
              <g id="Group_147896" data-name="Group 147896">
                <g id="Group_147895" data-name="Group 147895" clip-path="url(#clip-path-8)">
                  <path id="Path_206774" data-name="Path 206774" d="M71.5,57.588H59.24A13.308,13.308,0,0,1,45.932,44.28V32.022A13.308,13.308,0,0,1,59.24,18.715H71.5A13.308,13.308,0,0,1,84.806,32.022V44.28A13.308,13.308,0,0,1,71.5,57.588"/>
                </g>
              </g>
            </g>
            <path id="Path_206775" data-name="Path 206775" d="M64.518,57.588H52.26A13.308,13.308,0,0,1,38.952,44.28V32.022A13.308,13.308,0,0,1,52.26,18.715H64.518A13.308,13.308,0,0,1,77.826,32.022V44.28A13.308,13.308,0,0,1,64.518,57.588" fill="#b9ddfc"/>
            <path id="Path_206776" data-name="Path 206776" d="M44.967,38.71l3.916-3.916,7.552,6.713L69.046,28.848l3.636,3.915-16.807,16.3Z" fill="#fff"/>
            <path id="Path_206777" data-name="Path 206777" d="M94.077,57.588H85.664a8.226,8.226,0,0,1-8.227-8.226V40.948a8.226,8.226,0,0,1,8.227-8.226h8.413a8.226,8.226,0,0,1,8.226,8.226v8.414a8.226,8.226,0,0,1-8.226,8.226" fill="#052c4f"/>
            <path id="Path_206778" data-name="Path 206778" d="M89.612,57.588H81.2a8.226,8.226,0,0,1-8.227-8.226V40.948A8.226,8.226,0,0,1,81.2,32.722h8.414a8.226,8.226,0,0,1,8.226,8.226v8.414a8.226,8.226,0,0,1-8.226,8.226" fill="#084a93"/>
            <path id="Path_206779" data-name="Path 206779" d="M76.82,45.512l2.5-2.5,4.83,4.294,8.067-8.1,2.326,2.505L83.8,52.133Z" fill="#fff"/>
          </g>
        </g>
      </g>
    </g>
  </g>
</svg>
