<svg xmlns="http://www.w3.org/2000/svg" width="85.001" height="85" viewBox="0 0 85.001 85">
  <g id="_4" data-name="4" transform="translate(-106.062 -229.734)">
    <path id="Path_187945" data-name="Path 187945" d="M106.062,308.849V264.357a1.285,1.285,0,0,1,1.578-.9,1.523,1.523,0,0,1,1.167,1.607c.011.387.01.774.01,1.162q0,15.977,0,31.953c0,.249,0,.5,0,.747.011,1.129.053,1.177,1.159,1.184.884.005,1.769,0,2.653,0,.556,0,.808-.257.792-.81-.008-.3,0-.608,0-.913V257.968a11.447,11.447,0,0,1,.117-1.985,3.952,3.952,0,0,1,3.751-3.485c.386-.037.773-.029,1.16-.029q30.1,0,60.194,0a6.2,6.2,0,0,1,2.365.325,3.778,3.778,0,0,1,2.437,2.919,11.078,11.078,0,0,1,.168,2.23q0,20.085,0,40.17c0,.3,0,.609,0,.913.02.973.034.988,1.014,1.112.882-.033,1.765,0,2.647-.017.866-.018.945-.1.948-1.05.009-3.423,0-6.846,0-10.269a5.851,5.851,0,0,1,.053-1.074c.146-.785.553-1.149,1.464-1.325,1.025.229,1.307.547,1.308,1.576.006,6.719.02,13.437,0,20.155a5.941,5.941,0,0,1-5.982,5.769c-1.573.05-3.148.012-4.723.012H161.866c-.3,0-.607-.005-.911.018-.377.029-.563.226-.5.6a37.277,37.277,0,0,0,1.041,5.45c.711,2.095,2.432,3.215,4.224,4.245a2.084,2.084,0,0,0,1.057.144c1.243,0,2.486-.017,3.729.008a2.8,2.8,0,0,1,2.956,2.9c.038.773.026,1.548.006,2.322a2.607,2.607,0,0,1-2.232,2.822H125.8a2.6,2.6,0,0,1-2.224-2.746c-.025-.8-.035-1.605,0-2.406a2.839,2.839,0,0,1,2.979-2.889c1.078-.019,2.159-.055,3.233.01a4.3,4.3,0,0,0,2.7-.825,7.355,7.355,0,0,0,3.529-5.533c.083-.686.225-1.365.337-2.047.344-2.081.344-2.081-1.764-2.081h-22.22a6.428,6.428,0,0,1-5.012-2.163A5.514,5.514,0,0,1,106.062,308.849Z" transform="translate(0 -17.689)"/>
    <path id="Path_187946" data-name="Path 187946" d="M106.062,234.548c.041-.033.106-.057.12-.1,1.164-3.414,2.979-4.715,6.587-4.715q35.947,0,71.894,0a5.931,5.931,0,0,1,6.231,5.027,6.639,6.639,0,0,1,.079,1.156q.006,13.987.014,27.973c0,.9-.27,1.5-1.185,1.714a1.178,1.178,0,0,1-1.489-.994,5.677,5.677,0,0,1-.083-1.4q0-13.3,0-26.6c0-.387.014-.774-.024-1.16a3.251,3.251,0,0,0-3.067-2.948c-.606-.032-1.214-.02-1.821-.017-.442.032-.884.011-1.326.011h-68.98c-.249,0-.5,0-.746,0a3.255,3.255,0,0,0-3.445,3.434c-.024,1.715.025,3.431-.02,5.145-.029,1.1-.524,1.572-1.64,1.657a1.332,1.332,0,0,1-1.1-.876Z" transform="translate(0 0)"/>
    <path id="Path_187947" data-name="Path 187947" d="M184.249,313.475q15.712,0,31.425-.017c.7,0,.853.179.852.863q-.035,16.351,0,32.7c0,.7-.189.854-.866.854q-31.425-.028-62.85,0c-.7,0-.853-.184-.852-.869q.035-16.351,0-32.7c0-.708.191-.849.867-.848Q168.536,313.494,184.249,313.475Z" transform="translate(-35.723 -65.147)" fill="#b9ddfc"/>
    <path id="Path_187948" data-name="Path 187948" d="M120.056,488.043a3.286,3.286,0,0,1-2.751-3.13c-.041-1.618.008-3.238.017-4.856a1.7,1.7,0,0,1,.894-.08q37.1-.007,74.206,0c1.2,0,1.246.043,1.257,1.252.011,1.162.005,2.324,0,3.486a5.054,5.054,0,0,1-.185,1.394c-.465,1.612-.974,2-2.642,2q-34.865,0-69.729,0A3.326,3.326,0,0,1,120.056,488.043Z" transform="translate(-8.739 -194.703)" fill="#d8e6eb"/>
    <path id="Path_187949" data-name="Path 187949" d="M110.382,254.591c0-.825-.025-1.651.015-2.474a.774.774,0,0,0-.471-.842c1.227.031,1.627-.359,1.63-1.6,0-1.576,0-3.152,0-4.728,0-2.644,1.332-3.987,3.956-3.987q32.4,0,64.794,0c2.015,0,4.031.018,6.046.027A3.617,3.617,0,0,1,187.9,243.7a6.322,6.322,0,0,1,.051,1.241q0,22.479,0,44.959a2.127,2.127,0,0,1-.262,1.514c-1.4.09-1.4.09-1.4-1.323q0-21.039.006-42.079a4.1,4.1,0,0,0-1.062-3.12,4.015,4.015,0,0,0-3.029-1.075q-17.246.013-34.492.005H121.091c-2.969,0-4.318,1.338-4.318,4.288q0,21.205.017,42.411c0,.746-.168.994-.937.945a25.141,25.141,0,0,0-3.4,0c-.807.058-.913-.254-.911-.961.021-11.37.008-22.741.028-34.112C111.572,255.474,111.317,254.838,110.382,254.591Z" transform="translate(-3.008 -8.733)" fill="#e7f3fe"/>
    <path id="Path_187950" data-name="Path 187950" d="M184.218,273.328q-15.71,0-31.421.017c-.727,0-.938-.167-.916-.908.057-1.879.014-3.761.021-5.643,0-1.407.323-1.73,1.693-1.73q30.592,0,61.183,0c1.341,0,1.675.324,1.682,1.659.01,1.936-.028,3.873.019,5.809.017.679-.212.811-.841.81Q199.928,273.314,184.218,273.328Z" transform="translate(-35.663 -27.49)" fill="#00defc"/>
    <path id="Path_187951" data-name="Path 187951" d="M243.7,540.649c-.007-1.169-.357-1.524-1.526-1.538-.5-.006-.993,0-1.488,0-.014-.067-.051-.145-.03-.165a11.33,11.33,0,0,0,3-7.012c.128-1.068.359-2.124.5-3.19.062-.461.269-.572.706-.571q8.411.019,16.822,0c.522,0,.64.216.708.665.236,1.556.527,3.1.766,4.658a9.457,9.457,0,0,0,2.593,5.259,3.808,3.808,0,0,1,.257.359h-.978q-8.2,0-16.407,0c-1.169,0-1.517.365-1.529,1.535A12.563,12.563,0,0,0,243.7,540.649Z" transform="translate(-104.759 -232.218)" fill="#9eabb9"/>
    <path id="Path_187952" data-name="Path 187952" d="M456.076,291.414q0-22.731.02-45.463c0-1.813-.1-3.526-1.348-4.964a16.591,16.591,0,0,1,2.23.023,3.446,3.446,0,0,1,2.911,3.655q.005,13.428,0,26.856c0,.387,0,.774,0,1.16.007,1.1.239,1.4,1.313,1.658q0,1.637,0,3.275c-1.006.19-1.313.541-1.314,1.556,0,3.842-.018,7.683.014,11.525.005.621-.146.806-.769.767C458.119,291.4,457.1,291.426,456.076,291.414Z" transform="translate(-271.402 -8.734)" fill="#a6f4fe"/>
    <path id="Path_187953" data-name="Path 187953" d="M209.941,583.216c.165-.171.295-.354.6-.343.734.029,1.471.029,2.206,0,.3-.012.432.171.6.341.279.852.954.956,1.721.956q10.978-.011,21.956,0c.3,0,.6.025.907.039a3.36,3.36,0,0,1,0,2.8c-.276.009-.551.026-.827.026q-19.429,0-38.859.017c-.725,0-.984-.136-.958-.926.063-1.952.02-1.953,1.991-1.953,3.038,0,6.076,0,9.114,0A1.405,1.405,0,0,0,209.941,583.216Z" transform="translate(-70.998 -274.785)" fill="#d8e6eb"/>
    <path id="Path_187954" data-name="Path 187954" d="M120.174,487.688c.5-.008.993-.023,1.49-.023q34.478,0,68.956,0c1.9,0,2.8-.8,2.893-2.749.075-1.545.006-3.1.024-4.645,0-.441-.176-.6-.593-.568-.247.017-.5,0-.746,0l-74.758,0c.216-.341.55-.146.814-.146q39.122-.014,78.245-.019c.682,0,.9.149.863.852-.062,1.3,0,2.6-.021,3.9a3.456,3.456,0,0,1-3.51,3.529c-.8.019-1.6.011-2.4.011q-34.978,0-69.956,0A2.438,2.438,0,0,1,120.174,487.688Z" transform="translate(-8.857 -194.348)" fill="#c4d2dc"/>
    <path id="Path_187955" data-name="Path 187955" d="M380.661,591.51q0-1.4,0-2.8c1.1-.014,2.2-.014,3.306-.047.405-.012.493.147.512.529.112,2.341.123,2.342-2.167,2.339C381.763,591.536,381.212,591.519,380.661,591.51Z" transform="translate(-213.736 -279.294)" fill="#c4d2dc"/>
    <path id="Path_187956" data-name="Path 187956" d="M350.865,338.627q0,4.6,0,9.209a2.618,2.618,0,0,1-2.925,2.909q-8.371.009-16.742,0a2.637,2.637,0,0,1-2.908-2.935q0-9.209,0-18.419a2.653,2.653,0,0,1,2.977-2.95q8.33,0,16.66,0a2.637,2.637,0,0,1,2.94,2.977Q350.869,334.022,350.865,338.627Z" transform="translate(-172.969 -75.248)"/>
    <path id="Path_187957" data-name="Path 187957" d="M180.649,408.349q-6.384,0-12.768,0c-2.026,0-2.818-.788-2.821-2.8,0-.913-.013-1.826,0-2.739a2.224,2.224,0,0,1,2.112-2.324,7.267,7.267,0,0,1,.828-.023h25.37c2.178,0,2.951.767,2.953,2.928,0,.83.016,1.66,0,2.49a2.27,2.27,0,0,1-2.576,2.461c-4.118.011-8.236,0-12.354,0Z" transform="translate(-45.918 -132.85)"/>
    <path id="Path_187961" data-name="Path 187961" d="M412.241,278.218c.357,0,.715-.023,1.07.005a1.21,1.21,0,0,1,.257,2.36,5.89,5.89,0,0,1-2.769-.006,1.085,1.085,0,0,1-.839-1.255,1.14,1.14,0,0,1,1.128-1.1c.383-.026.768,0,1.153,0Z" transform="translate(-236.534 -37.718)" fill="#000101"/>
    <path id="Path_187962" data-name="Path 187962" d="M379.033,280.7a9.614,9.614,0,0,1-1.313-.123,1.1,1.1,0,0,1-.912-1.286,1.092,1.092,0,0,1,1.123-1.1c.689-.034,1.381-.03,2.071-.008a1.237,1.237,0,0,1,1.27,1.16,1.293,1.293,0,0,1-1.162,1.3,8.15,8.15,0,0,1-1.075.008Z" transform="translate(-210.732 -37.685)" fill="#000101"/>
    <path id="Path_187963" data-name="Path 187963" d="M345.579,280.7a8.057,8.057,0,0,1-1.206-.118,1.212,1.212,0,0,1,.219-2.388c.717-.025,1.437-.028,2.155,0a1.1,1.1,0,0,1,1.145,1.078,1.126,1.126,0,0,1-.968,1.327A10.353,10.353,0,0,1,345.579,280.7Z" transform="translate(-184.764 -37.693)" fill="#000101"/>
    <path id="Path_187964" data-name="Path 187964" d="M348.263,337.606c2.681,0,5.362.022,8.043-.016.64-.009.782.184.772.793-.036,2.324-.032,4.648,0,6.972.007.55-.156.684-.692.682q-8.126-.029-16.253,0c-.544,0-.691-.144-.684-.686.03-2.324.035-4.649,0-6.972-.01-.615.139-.8.773-.79C342.9,337.627,345.581,337.606,348.263,337.606Z" transform="translate(-181.656 -83.925)" fill="#b5c3ce"/>
    <path id="Path_187965" data-name="Path 187965" d="M348.263,395.22c-2.681,0-5.362-.021-8.043.015-.631.008-.784-.173-.774-.79.038-2.351.027-4.7,0-7.056,0-.468.128-.6.6-.6q8.21.023,16.419,0c.458,0,.612.113.607.592-.023,2.407-.028,4.814,0,7.221.007.554-.217.626-.686.623C353.681,395.211,350.972,395.22,348.263,395.22Z" transform="translate(-181.655 -122.209)" fill="#b5c3ce"/>
    <path id="Path_187966" data-name="Path 187966" d="M189.443,411.632c4.09,0,8.18.015,12.27-.015.658,0,.836.179.828.831-.025,2.091,0,2.091-2.044,2.091-7.793,0-15.587-.012-23.38.019-.752,0-.915-.207-.9-.922.047-2,.014-2,2.032-2Z" transform="translate(-54.606 -141.527)" fill="#ffb30b"/>
    <path id="Path_187968" data-name="Path 187968" d="M355.662,353.45c-.635,0-1.27.017-1.9,0a1.237,1.237,0,1,1-.026-2.472q1.985-.047,3.973,0a1.237,1.237,0,1,1-.057,2.472C356.987,353.466,356.324,353.45,355.662,353.45Z" transform="translate(-191.782 -94.32)"/>
    <path id="Path_187969" data-name="Path 187969" d="M395.729,350.705a1.291,1.291,0,0,1,1.279,1.343,1.335,1.335,0,0,1-1.322,1.324,1.385,1.385,0,0,1-1.341-1.409A1.336,1.336,0,0,1,395.729,350.705Z" transform="translate(-224.386 -94.13)" fill="#020202"/>
    <path id="Path_187970" data-name="Path 187970" d="M355.746,400.224c.635,0,1.27-.015,1.9,0a1.212,1.212,0,0,1,1.309,1.2,1.227,1.227,0,0,1-1.248,1.275q-1.985.057-3.973,0a1.255,1.255,0,0,1-1.279-1.256,1.237,1.237,0,0,1,1.3-1.215C354.421,400.208,355.084,400.225,355.746,400.224Z" transform="translate(-191.784 -132.657)" fill="#000001"/>
    <path id="Path_187971" data-name="Path 187971" d="M397.009,401.092a1.287,1.287,0,0,1-1.336,1.287,1.327,1.327,0,0,1-1.331-1.311,1.385,1.385,0,0,1,1.4-1.353A1.344,1.344,0,0,1,397.009,401.092Z" transform="translate(-224.384 -132.265)" fill="#020202"/>
    <g id="Group_128105" data-name="Group 128105" transform="translate(119.138 251.91)">
      <path id="Path_187958" data-name="Path 187958" d="M224.79,331.036a4.226,4.226,0,0,1-.492,2.008,4.07,4.07,0,0,1-.732,1.13,5.518,5.518,0,0,1-1.33.922,4.542,4.542,0,1,1,2.554-4.06Z" transform="translate(-215.696 -326.464)"/>
      <path id="Path_187967" data-name="Path 187967" d="M231.921,341.191c0,.368-1.2,1.456-1.493,1.456a2.46,2.46,0,0,1-3.031-.871,2.6,2.6,0,0,1,.188-3.2,2.576,2.576,0,0,1,4.336,2.619Z" transform="translate(-224.968 -335.739)" fill="#e5f6fd"/>
    </g>
  </g>
</svg>
