<svg xmlns="http://www.w3.org/2000/svg" xmlns:xlink="http://www.w3.org/1999/xlink" width="505" height="480" viewBox="0 0 505 480">
  <defs>
    <clipPath id="clip-path">
      <rect id="Rectangle_297686" data-name="Rectangle 297686" width="467.35" height="439.476" fill="none"/>
    </clipPath>
    <clipPath id="clip-path-3">
      <rect id="Rectangle_297677" data-name="Rectangle 297677" width="35.604" height="18.037" transform="translate(294.073 406.367)" fill="none"/>
    </clipPath>
    <clipPath id="clip-path-4">
      <rect id="Rectangle_297678" data-name="Rectangle 297678" width="38.555" height="3.862" transform="translate(251.42 381.134)" fill="none"/>
    </clipPath>
    <clipPath id="clip-path-5">
      <rect id="Rectangle_297679" data-name="Rectangle 297679" width="26.065" height="37.315" transform="translate(103.348 257.927)" fill="none"/>
    </clipPath>
    <clipPath id="clip-path-6">
      <rect id="Rectangle_297680" data-name="Rectangle 297680" width="21.703" height="23.273" transform="translate(103.847 232.364)" fill="none"/>
    </clipPath>
    <clipPath id="clip-path-7">
      <rect id="Rectangle_297681" data-name="Rectangle 297681" width="14.706" height="12.483" transform="translate(128.84 223.737)" fill="none"/>
    </clipPath>
    <clipPath id="clip-path-8">
      <rect id="Rectangle_297682" data-name="Rectangle 297682" width="41.656" height="34.882" transform="translate(141.23 229.652)" fill="none"/>
    </clipPath>
    <clipPath id="clip-path-9">
      <rect id="Rectangle_297683" data-name="Rectangle 297683" width="6.693" height="7.966" transform="translate(162.685 277.119)" fill="none"/>
    </clipPath>
    <clipPath id="clip-path-10">
      <rect id="Rectangle_297684" data-name="Rectangle 297684" width="33.549" height="44.445" transform="translate(135.623 247.478)" fill="none"/>
    </clipPath>
  </defs>
  <g id="_7" data-name="7" transform="translate(-180 -3129)">
    <g id="Group_147962" data-name="Group 147962" transform="translate(199 3149)">
      <g id="Group_147961" data-name="Group 147961" clip-path="url(#clip-path)">
        <g id="Group_147960" data-name="Group 147960">
          <g id="Group_147959" data-name="Group 147959" clip-path="url(#clip-path)">
            <path id="Path_206969" data-name="Path 206969" d="M367.718,286.9a29.374,29.374,0,0,1,7.16-3.112l1.475-7.087,11.974-.21,1.724,7.03a29.314,29.314,0,0,1,7.266,2.859l6.052-3.967,8.616,8.319-3.752,6.186a29.328,29.328,0,0,1,3.112,7.162l7.087,1.475.21,11.974-7.031,1.724a29.32,29.32,0,0,1-2.858,7.265l3.967,6.053-8.318,8.616-6.187-3.752a29.313,29.313,0,0,1-7.162,3.112l-1.475,7.087-11.974.21-1.724-7.031a29.36,29.36,0,0,1-7.265-2.858l-6.052,3.967-8.616-8.319,3.751-6.187a29.342,29.342,0,0,1-3.112-7.161l-7.087-1.475-.21-11.975,7.031-1.724a29.351,29.351,0,0,1,2.858-7.264l-3.967-6.053,8.318-8.616ZM374.1,302.85a12.847,12.847,0,1,0,18.165-.319,12.846,12.846,0,0,0-18.165.319" fill="#ebebeb"/>
            <path id="Path_206970" data-name="Path 206970" d="M122.347,62.148a26.653,26.653,0,0,1,6.5-2.825l1.34-6.437,10.874-.19,1.565,6.384a26.661,26.661,0,0,1,6.6,2.6l5.495-3.6,7.824,7.555-3.406,5.618a26.624,26.624,0,0,1,2.826,6.5l6.435,1.34.191,10.873-6.385,1.566a26.651,26.651,0,0,1-2.6,6.6l3.6,5.5-7.554,7.824-5.618-3.407a26.625,26.625,0,0,1-6.5,2.826L142.2,117.3l-10.873.19-1.566-6.384a26.694,26.694,0,0,1-6.6-2.6l-5.5,3.6-7.824-7.555,3.407-5.618a26.608,26.608,0,0,1-2.826-6.5L103.987,91.1,103.8,80.224l6.385-1.565a26.682,26.682,0,0,1,2.6-6.6l-3.6-5.495,7.554-7.825Zm5.8,14.486a11.667,11.667,0,1,0,16.5-.29,11.666,11.666,0,0,0-16.5.29" fill="#ebebeb"/>
            <rect id="Rectangle_297672" data-name="Rectangle 297672" width="132.663" height="62.308" transform="translate(312.87 0.222)" fill="#fafafa"/>
            <path id="Path_206971" data-name="Path 206971" d="M445.533,62.53s-.011-.384-.017-1.116-.01-1.823-.018-3.241c-.009-2.849-.022-7.034-.04-12.419-.021-10.765-.05-26.322-.087-45.532l.162.162L312.879.444h-.009l.222-.222c-.005,21.925-.008,43-.012,62.308l-.21-.21,95.251.1,27.508.058,7.35.026,1.9.013c.428,0,.653.013.653.013s-.208.009-.628.013l-1.877.013-7.306.026-27.46.058-95.392.1h-.21v-.21c0-19.3-.007-40.383-.011-62.308V0h.231L445.533.06h.162V.222c-.037,19.252-.066,34.842-.087,45.63-.018,5.371-.031,9.543-.04,12.384-.008,1.4-.014,2.479-.018,3.211s-.017,1.083-.017,1.083" fill="#263238"/>
            <path id="Path_206972" data-name="Path 206972" d="M445.737,19.028c0,.122-29.746.222-66.431.222s-66.436-.1-66.436-.222,29.739-.221,66.436-.221,66.431.1,66.431.221" fill="#263238"/>
            <path id="Path_206973" data-name="Path 206973" d="M325.953,6.8a29.509,29.509,0,0,1-3.6,3.613,29.5,29.5,0,0,1-3.9,3.288,29.612,29.612,0,0,1,3.6-3.614,29.5,29.5,0,0,1,3.9-3.287" fill="#263238"/>
            <path id="Path_206974" data-name="Path 206974" d="M325.65,14a29.509,29.509,0,0,1-3.613-3.6,29.508,29.508,0,0,1-3.288-3.9,29.643,29.643,0,0,1,3.614,3.6A29.54,29.54,0,0,1,325.65,14" fill="#263238"/>
            <path id="Path_206975" data-name="Path 206975" d="M339.129,13.848a3.433,3.433,0,0,1-.044-.557c-.014-.414-.03-.9-.05-1.486-.036-1.267-.079-3.043-.1-5.161l.192.191-7.2.03c-.049.048.419-.419.221-.22v.979c0,.324,0,.645,0,.963q0,.953-.006,1.863c-.008,1.2-.015,2.343-.022,3.4l-.191-.192c2.118.019,3.894.062,5.161.1l1.486.05a3.3,3.3,0,0,1,.557.044,17.152,17.152,0,0,1-1.92.094c-1.255.036-3.081.079-5.284.1h-.191v-.193c-.007-1.055-.014-2.195-.022-3.4q0-.909-.006-1.863c0-.318,0-.639,0-.963V6.645c-.2.2.27-.271.222-.223l7.2.03h.193v.191c-.019,2.2-.062,4.029-.1,5.283a16.874,16.874,0,0,1-.094,1.921" fill="#263238"/>
            <path id="Path_206976" data-name="Path 206976" d="M352.567,13.208a17.1,17.1,0,0,1-3.866.221,17.105,17.105,0,0,1-3.866-.221,33.925,33.925,0,0,1,7.732,0" fill="#263238"/>
            <rect id="Rectangle_297673" data-name="Rectangle 297673" width="120.392" height="84.533" transform="translate(0.222 52.499)" fill="#fafafa"/>
            <path id="Path_206977" data-name="Path 206977" d="M120.614,137.032s-.013-.531-.019-1.543-.012-2.518-.021-4.474c-.01-3.924-.026-9.677-.045-17.034-.023-14.705-.055-35.816-.094-61.481l.179.178L.232,52.721H.222L.443,52.5C.436,82.732.429,111.434.423,137.032l-.2-.2,86.8.1,24.739.054,6.574.024,1.7.012c.382,0,.582.012.582.012s-.185.008-.559.012l-1.674.012-6.534.024-24.694.054-86.931.1H.02v-.2C.014,111.434.007,82.732,0,52.5v-.222H.232l120.382.043h.179V52.5c-.039,25.712-.071,46.861-.094,61.592-.019,7.341-.035,13.08-.045,16.994-.009,1.942-.016,3.429-.021,4.44s-.019,1.506-.019,1.506" fill="#263238"/>
            <path id="Path_206978" data-name="Path 206978" d="M120.8,69.566c0,.122-26.994.221-60.286.221S.221,69.688.221,69.566s26.989-.221,60.292-.221,60.286.1,60.286.221" fill="#263238"/>
            <path id="Path_206979" data-name="Path 206979" d="M12.1,58.465a24.3,24.3,0,0,1-3.257,3.294,24.326,24.326,0,0,1-3.556,2.969,24.342,24.342,0,0,1,3.257-3.295A24.355,24.355,0,0,1,12.1,58.465" fill="#263238"/>
            <path id="Path_206980" data-name="Path 206980" d="M11.82,65a24.3,24.3,0,0,1-3.294-3.257A24.326,24.326,0,0,1,5.557,58.19a24.342,24.342,0,0,1,3.3,3.257A24.355,24.355,0,0,1,11.82,65" fill="#263238"/>
            <path id="Path_206981" data-name="Path 206981" d="M24.052,64.865c-.029-.029-.057-.71-.094-1.86s-.079-2.76-.1-4.678l.192.192-6.537.029c-.049.048.418-.418.221-.22v.889c0,.294,0,.585,0,.874q0,.864,0,1.69c-.008,1.091-.016,2.125-.022,3.084l-.192-.192c1.919.019,3.528.062,4.679.1s1.83.065,1.859.094a13.685,13.685,0,0,1-1.737.094c-1.138.036-2.8.079-4.8.1l-.19,0,0-.193c-.006-.959-.014-1.993-.022-3.084q0-.825,0-1.69c0-.289,0-.58,0-.874v-.889c-.2.2.27-.271.223-.222l6.537.029h.193l0,.191c-.018,2-.061,3.663-.1,4.8a13.936,13.936,0,0,1-.094,1.737" fill="#263238"/>
            <path id="Path_206982" data-name="Path 206982" d="M36.247,64.284a14.089,14.089,0,0,1-3.508.222,14.094,14.094,0,0,1-3.509-.222,14.125,14.125,0,0,1,3.509-.221,14.12,14.12,0,0,1,3.508.221" fill="#263238"/>
            <path id="Path_206983" data-name="Path 206983" d="M71.228,97.26a16.892,16.892,0,1,0-31.453,8.534h-.009l.048.064c.648,1.091,1.459,1.872,2.279,3.019L51.9,121.869a3.05,3.05,0,0,0,4.869,0l9.645-12.778a36.386,36.386,0,0,0,2.453-3.251l.035-.046H68.9a16.793,16.793,0,0,0,2.331-8.534m-16.892,7.355a7.434,7.434,0,1,1,7.434-7.434,7.434,7.434,0,0,1-7.434,7.434" fill="#e0e0e0"/>
            <rect id="Rectangle_297674" data-name="Rectangle 297674" width="319.814" height="245.878" transform="translate(76.008 76.285)" fill="#fff"/>
            <path id="Path_206984" data-name="Path 206984" d="M395.822,322.163c0-1.516-.072-97.315-.183-245.878l.183.182-319.787.039h-.027l.221-.221c-.008,88.55-.015,172.341-.022,245.878l-.2-.2,319.814.2-319.814.2h-.2v-.2c-.007-73.537-.015-157.328-.023-245.878v-.222h.249l319.787.039h.183v.183c-.111,148.563-.182,244.363-.183,245.878" fill="#263238"/>
            <path id="Path_206985" data-name="Path 206985" d="M395.822,98.943c0,.122-71.218.221-159.049.221-87.861,0-159.064-.1-159.064-.221s71.2-.222,159.064-.222c87.831,0,159.049.1,159.049.222" fill="#263238"/>
            <path id="Path_206986" data-name="Path 206986" d="M93.547,85.1a52.855,52.855,0,0,1-4.882,4.788,53.147,53.147,0,0,1-5.182,4.463,52.778,52.778,0,0,1,4.882-4.789A52.937,52.937,0,0,1,93.547,85.1" fill="#263238"/>
            <path id="Path_206987" data-name="Path 206987" d="M93.14,94.754a52.855,52.855,0,0,1-4.788-4.882,53.01,53.01,0,0,1-4.463-5.182,52.778,52.778,0,0,1,4.789,4.882,52.937,52.937,0,0,1,4.462,5.182" fill="#263238"/>
            <path id="Path_206988" data-name="Path 206988" d="M111.209,94.551a5.5,5.5,0,0,1-.044-.734c-.013-.521-.03-1.18-.05-1.984-.036-1.7-.079-4.086-.1-6.94l.192.192-9.657.03c-.049.048.419-.419.221-.22v1.313q0,.651,0,1.291c0,.851,0,1.685-.006,2.5-.008,1.618-.015,3.146-.022,4.556l-.192-.192c2.855.019,5.244.062,6.941.1l1.983.05a5.5,5.5,0,0,1,.734.044,3.555,3.555,0,0,1-.655.044l-1.94.05c-1.684.036-4.124.079-7.063.1h-.19v-.193c-.007-1.41-.014-2.938-.022-4.556,0-.811,0-1.645-.006-2.5q0-.639,0-1.291V84.895c-.2.2.269-.272.222-.223l9.657.03h.193l0,.191c-.018,2.939-.061,5.379-.1,7.063-.02.785-.037,1.43-.05,1.94a3.555,3.555,0,0,1-.044.655" fill="#263238"/>
            <path id="Path_206989" data-name="Path 206989" d="M129.224,93.693a30.576,30.576,0,0,1-5.182.221,30.583,30.583,0,0,1-5.183-.221,30.583,30.583,0,0,1,5.183-.221,30.576,30.576,0,0,1,5.182.221" fill="#263238"/>
            <rect id="Rectangle_297675" data-name="Rectangle 297675" width="206.754" height="131.518" transform="translate(103.423 130.239)" fill="#fff"/>
            <rect id="Rectangle_297676" data-name="Rectangle 297676" width="37.237" height="131.518" transform="translate(103.423 130.239)" fill="#ebebeb"/>
            <path id="Path_206990" data-name="Path 206990" d="M119.787,144.434a2.52,2.52,0,0,1,.62-.27l.128-.613,1.037-.019.149.609a2.542,2.542,0,0,1,.629.248l.524-.344.746.721-.325.535a2.52,2.52,0,0,1,.27.62l.613.128.019,1.037-.609.149a2.543,2.543,0,0,1-.248.629l.344.524-.72.746-.536-.324a2.555,2.555,0,0,1-.62.269l-.128.614-1.037.018-.149-.609a2.543,2.543,0,0,1-.629-.248l-.524.344-.746-.72.325-.536a2.52,2.52,0,0,1-.27-.62l-.613-.128-.019-1.037.609-.149a2.543,2.543,0,0,1,.248-.629l-.344-.524.72-.746Zm.553,1.381a1.112,1.112,0,1,0,1.573-.028,1.112,1.112,0,0,0-1.573.028" fill="#e0e0e0"/>
            <path id="Path_206991" data-name="Path 206991" d="M128.39,173.488H112.157a1.668,1.668,0,0,1,0-3.336H128.39a1.668,1.668,0,0,1,0,3.336" fill="#e0e0e0"/>
            <path id="Path_206992" data-name="Path 206992" d="M128.39,164.989H112.157a1.668,1.668,0,0,1,0-3.336H128.39a1.668,1.668,0,0,1,0,3.336" fill="#e0e0e0"/>
            <path id="Path_206993" data-name="Path 206993" d="M128.39,157.215H112.157a1.668,1.668,0,0,1,0-3.336H128.39a1.668,1.668,0,0,1,0,3.336" fill="#e0e0e0"/>
            <path id="Path_206994" data-name="Path 206994" d="M172,149.67H156.629a1.668,1.668,0,1,1,0-3.336H172a1.668,1.668,0,1,1,0,3.336" fill="#263238"/>
            <path id="Path_206995" data-name="Path 206995" d="M172,158.4H156.629a1.668,1.668,0,1,1,0-3.336H172a1.668,1.668,0,0,1,0,3.336" fill="#e0e0e0"/>
            <path id="Path_206996" data-name="Path 206996" d="M172,167.426H156.629a1.668,1.668,0,1,1,0-3.336H172a1.668,1.668,0,0,1,0,3.336" fill="#ffb30b"/>
            <path id="Path_206997" data-name="Path 206997" d="M165.445,184.873h-8.817a1.668,1.668,0,1,1,0-3.336h8.817a1.668,1.668,0,1,1,0,3.336" fill="#263238"/>
            <path id="Path_206998" data-name="Path 206998" d="M165.445,193.917h-8.817a1.668,1.668,0,0,1,0-3.336h8.817a1.668,1.668,0,0,1,0,3.336" fill="#263238"/>
            <path id="Path_206999" data-name="Path 206999" d="M191.648,193.917H175.481a1.668,1.668,0,0,1,0-3.336h16.167a1.668,1.668,0,0,1,0,3.336" fill="#e0e0e0"/>
            <path id="Path_207000" data-name="Path 207000" d="M182.5,201.959H166.337a1.668,1.668,0,0,1,0-3.336H182.5a1.668,1.668,0,0,1,0,3.336" fill="#ffb30b"/>
            <path id="Path_207001" data-name="Path 207001" d="M186.231,211.132h-11.4a.993.993,0,0,1-.993-.993v-1.35a.992.992,0,0,1,.993-.993h11.4a.992.992,0,0,1,.993.993v1.35a.993.993,0,0,1-.993.993" fill="#ffb30b"/>
            <path id="Path_207002" data-name="Path 207002" d="M185.557,229.11H175.511a1.668,1.668,0,1,1,0-3.336h10.046a1.668,1.668,0,0,1,0,3.336" fill="#ffb30b"/>
            <path id="Path_207003" data-name="Path 207003" d="M185.557,248.1H175.511a1.669,1.669,0,1,1,0-3.337h10.046a1.669,1.669,0,0,1,0,3.337" fill="#ffb30b"/>
            <path id="Path_207004" data-name="Path 207004" d="M210.251,248.1H192.64a1.669,1.669,0,0,1,0-3.337h17.611a1.669,1.669,0,0,1,0,3.337" fill="#455a64"/>
            <path id="Path_207005" data-name="Path 207005" d="M222.578,248.1h-2.537a1.669,1.669,0,0,1,0-3.337h2.537a1.669,1.669,0,0,1,0,3.337" fill="#e0e0e0"/>
            <path id="Path_207006" data-name="Path 207006" d="M209.2,229.11H194.313a1.668,1.668,0,0,1,0-3.336H209.2a1.668,1.668,0,0,1,0,3.336" fill="#e0e0e0"/>
            <path id="Path_207007" data-name="Path 207007" d="M241.831,237.446H194.313a1.668,1.668,0,1,1,0-3.336h47.518a1.668,1.668,0,0,1,0,3.336" fill="#e0e0e0"/>
            <path id="Path_207008" data-name="Path 207008" d="M247.321,229.11H216.982a1.668,1.668,0,0,1,0-3.336h30.339a1.668,1.668,0,0,1,0,3.336" fill="#455a64"/>
            <path id="Path_207009" data-name="Path 207009" d="M206.507,211.132H192.588a.994.994,0,0,1-.993-.993v-1.35a.993.993,0,0,1,.993-.993h13.919a.992.992,0,0,1,.993.993v1.35a.993.993,0,0,1-.993.993" fill="#455a64"/>
            <path id="Path_207010" data-name="Path 207010" d="M217.385,211.132h-4.473a.994.994,0,0,1-.993-.993v-1.35a.993.993,0,0,1,.993-.993h4.473a.992.992,0,0,1,.993.993v1.35a.993.993,0,0,1-.993.993" fill="#e0e0e0"/>
            <path id="Path_207011" data-name="Path 207011" d="M241.35,211.132H224.285a.994.994,0,0,1-.994-.993v-1.35a.993.993,0,0,1,.994-.993H241.35a.992.992,0,0,1,.993.993v1.35a.993.993,0,0,1-.993.993" fill="#e0e0e0"/>
            <path id="Path_207012" data-name="Path 207012" d="M193.455,201.959h-3.6a1.668,1.668,0,0,1,0-3.336h3.6a1.668,1.668,0,1,1,0,3.336" fill="#263238"/>
            <path id="Path_207013" data-name="Path 207013" d="M223.975,201.959H201.038a1.668,1.668,0,0,1,0-3.336h22.937a1.668,1.668,0,1,1,0,3.336" fill="#e0e0e0"/>
            <path id="Path_207014" data-name="Path 207014" d="M196.637,149.67H181.262a1.668,1.668,0,1,1,0-3.336h15.375a1.668,1.668,0,0,1,0,3.336" fill="#455a64"/>
            <path id="Path_207015" data-name="Path 207015" d="M216.448,158.4H181.262a1.668,1.668,0,1,1,0-3.336h35.186a1.668,1.668,0,0,1,0,3.336" fill="#263238"/>
            <path id="Path_207016" data-name="Path 207016" d="M254.331,167.426H181.262a1.668,1.668,0,1,1,0-3.336h73.069a1.668,1.668,0,0,1,0,3.336" fill="#e0e0e0"/>
            <path id="Path_207017" data-name="Path 207017" d="M215.715,173.782H181.262a1.668,1.668,0,1,1,0-3.336h34.453a1.668,1.668,0,1,1,0,3.336" fill="#e0e0e0"/>
            <path id="Path_207018" data-name="Path 207018" d="M208.667,184.873H174.214a1.668,1.668,0,1,1,0-3.336h34.453a1.668,1.668,0,1,1,0,3.336" fill="#455a64"/>
            <path id="Path_207019" data-name="Path 207019" d="M227.954,184.873H216.4a1.668,1.668,0,1,1,0-3.336h11.549a1.668,1.668,0,0,1,0,3.336" fill="#ffb30b"/>
            <path id="Path_207020" data-name="Path 207020" d="M257.48,184.819H235.666a1.668,1.668,0,1,1,0-3.336H257.48a1.668,1.668,0,0,1,0,3.336" fill="#263238"/>
            <path id="Path_207021" data-name="Path 207021" d="M287.167,184.819H265.353a1.668,1.668,0,1,1,0-3.336h21.814a1.668,1.668,0,1,1,0,3.336" fill="#e0e0e0"/>
            <path id="Path_207022" data-name="Path 207022" d="M121.36,182.484h-9.2a1.668,1.668,0,1,1,0-3.336h9.2a1.668,1.668,0,0,1,0,3.336" fill="#e0e0e0"/>
            <path id="Path_207023" data-name="Path 207023" d="M118.606,209.473h-6.448a1.668,1.668,0,0,1,0-3.336h6.448a1.668,1.668,0,0,1,0,3.336" fill="#e0e0e0"/>
            <path id="Path_207024" data-name="Path 207024" d="M130.058,191.48h-17.9a1.668,1.668,0,0,1,0-3.336h17.9a1.668,1.668,0,0,1,0,3.336" fill="#e0e0e0"/>
            <path id="Path_207025" data-name="Path 207025" d="M126.918,200.477h-14.76a1.668,1.668,0,1,1,0-3.336h14.76a1.668,1.668,0,0,1,0,3.336" fill="#e0e0e0"/>
            <path id="Path_207026" data-name="Path 207026" d="M149.092,148a1.694,1.694,0,1,1-1.695-1.7,1.7,1.7,0,0,1,1.695,1.7" fill="#455a64"/>
            <path id="Path_207027" data-name="Path 207027" d="M149.092,139.1a1.694,1.694,0,1,1-1.695-1.7,1.694,1.694,0,0,1,1.695,1.7" fill="#455a64"/>
            <path id="Path_207028" data-name="Path 207028" d="M149.092,156.707a1.694,1.694,0,1,1-1.695-1.7,1.694,1.694,0,0,1,1.695,1.7" fill="#455a64"/>
            <path id="Path_207029" data-name="Path 207029" d="M149.092,165.758a1.694,1.694,0,1,1-1.695-1.695,1.694,1.694,0,0,1,1.695,1.695" fill="#455a64"/>
            <path id="Path_207030" data-name="Path 207030" d="M149.092,174.808a1.694,1.694,0,1,1-1.695-1.694,1.7,1.7,0,0,1,1.695,1.694" fill="#455a64"/>
            <path id="Path_207031" data-name="Path 207031" d="M149.092,183.858a1.694,1.694,0,1,1-1.695-1.7,1.7,1.7,0,0,1,1.695,1.7" fill="#455a64"/>
            <path id="Path_207032" data-name="Path 207032" d="M149.092,192.909a1.694,1.694,0,1,1-1.695-1.695,1.7,1.7,0,0,1,1.695,1.695" fill="#455a64"/>
            <path id="Path_207033" data-name="Path 207033" d="M149.092,201.959a1.694,1.694,0,1,1-1.695-1.695,1.7,1.7,0,0,1,1.695,1.695" fill="#455a64"/>
            <path id="Path_207034" data-name="Path 207034" d="M149.092,211.009a1.694,1.694,0,1,1-1.695-1.694,1.7,1.7,0,0,1,1.695,1.694" fill="#455a64"/>
            <path id="Path_207035" data-name="Path 207035" d="M149.092,220.06a1.694,1.694,0,1,1-1.695-1.695,1.7,1.7,0,0,1,1.695,1.695" fill="#455a64"/>
            <path id="Path_207036" data-name="Path 207036" d="M149.092,229.11a1.694,1.694,0,1,1-1.695-1.7,1.7,1.7,0,0,1,1.695,1.7" fill="#455a64"/>
            <path id="Path_207037" data-name="Path 207037" d="M149.092,238.16a1.694,1.694,0,1,1-1.695-1.7,1.7,1.7,0,0,1,1.695,1.7" fill="#455a64"/>
            <path id="Path_207038" data-name="Path 207038" d="M149.092,247.211a1.694,1.694,0,1,1-1.695-1.695,1.7,1.7,0,0,1,1.695,1.695" fill="#455a64"/>
            <path id="Path_207039" data-name="Path 207039" d="M306.342,112.307H108.826a5.4,5.4,0,0,0-5.4,5.4v12.529H310.177v-14.1a3.835,3.835,0,0,0-3.835-3.835" fill="#e0e0e0"/>
            <path id="Path_207040" data-name="Path 207040" d="M116.57,121.816a2.463,2.463,0,1,1-2.464-2.463,2.464,2.464,0,0,1,2.464,2.463" fill="#fff"/>
            <path id="Path_207041" data-name="Path 207041" d="M124.148,121.816a2.463,2.463,0,1,1-2.463-2.463,2.463,2.463,0,0,1,2.463,2.463" fill="#fff"/>
            <path id="Path_207042" data-name="Path 207042" d="M131.726,121.816a2.463,2.463,0,1,1-2.463-2.463,2.463,2.463,0,0,1,2.463,2.463" fill="#fff"/>
            <path id="Path_207043" data-name="Path 207043" d="M147.4,259.705,164.873,278.6l15.864-18.892Z" fill="#fff"/>
            <path id="Path_207044" data-name="Path 207044" d="M304.569,261.757a6.565,6.565,0,0,0,1.809-.336,5.6,5.6,0,0,0,3.533-3.793,6.124,6.124,0,0,0,.2-1.864q0-1-.007-2.109-.008-2.214-.015-4.837c-.008-3.5-.017-7.531-.027-12.07-.022-18.172-.055-44.451-.1-76.922q-.009-12.179-.019-25.488,0-6.646-.009-13.559c-.015-1.139.031-2.335-.034-3.443a5.388,5.388,0,0,0-4.229-4.668,24.032,24.032,0,0,0-3.506-.113l-60.965.027-67.368.018-35.633,0h-27.43c-.756.012-1.57-.027-2.28.027a5.235,5.235,0,0,0-2.071.661,5.342,5.342,0,0,0-2.558,3.414,16.18,16.18,0,0,0-.143,3.158v22.465q0,12.732,0,25.206c0,16.624-.006,32.872-.008,48.654q0,11.837-.007,23.314,0,5.734,0,11.373c.006,1.872-.018,3.767.015,5.6a5.32,5.32,0,0,0,5.18,5l2.742.008,5.456,0,10.749.005,20.814.01h.109l.075.079,16,16.849-.359.011,14.152-16.83.068-.081h.106l91.907.1,25.087.061,6.535.033c1.474.011,2.229.033,2.229.033s-.755.022-2.229.033l-6.535.033-25.087.06-91.907.1.173-.08q-6.8,8.1-14.13,16.849l-.173.207-.186-.2-16.024-16.831.184.079-20.814.01-10.749.005-5.456,0-2.755-.006a5.867,5.867,0,0,1-5.716-5.515c-.037-1.895-.012-3.742-.02-5.629q0-5.637,0-11.373,0-11.472-.006-23.314c0-15.782-.006-32.03-.009-48.654q0-12.468,0-25.206,0-6.366,0-12.794V118.248a6.86,6.86,0,0,1,.159-1.675,5.941,5.941,0,0,1,2.845-3.8,5.824,5.824,0,0,1,2.305-.735c.829-.06,1.557-.017,2.34-.03H138.2l35.633,0,67.368.017,60.965.028a23.982,23.982,0,0,1,3.607.127,5.875,5.875,0,0,1,4.607,5.1c.07,1.212.018,2.333.033,3.5q0,6.911-.009,13.559-.009,13.295-.019,25.488c-.04,32.471-.072,58.75-.1,76.922-.01,4.539-.019,8.573-.027,12.07q-.008,2.621-.014,4.837,0,1.105-.007,2.109a6.232,6.232,0,0,1-.217,1.9,5.6,5.6,0,0,1-1.66,2.668,5.553,5.553,0,0,1-3.33,1.421c-.311.01-.468.008-.468.008" fill="#263238"/>
            <path id="Path_207045" data-name="Path 207045" d="M334.346,189.442s-10.711,2.9-12.718,10.977c-3.171,12.775-12.874,50.464-12.874,50.464l-10.238,8.288L305.044,270s11.413-3.752,16.184-9.885,9.633-29.04,9.633-29.04Z" fill="#b9ddfc"/>
            <path id="Path_207046" data-name="Path 207046" d="M353.935,132.2c2.528-2.918,8.946-2.641,10.51-.8a4.891,4.891,0,0,1,6.451,1.975l6.852,1.329a7.111,7.111,0,0,1,3.305,1.243,2.445,2.445,0,0,1,.651,3.17,3.706,3.706,0,0,1,1.7,5.889,2.584,2.584,0,0,1-.3,3.747,25.912,25.912,0,0,1,4.573,7.487,5.271,5.271,0,0,1,.426,3.584c-.4,1.163-1.9,1.994-2.912,1.3a3.026,3.026,0,0,1,.221,3.262c1.154,0,1.54,1.775.767,2.633a4.21,4.21,0,0,1-3.211.976,5.559,5.559,0,0,0-3.337.652,1.05,1.05,0,0,0,.394.722,4.745,4.745,0,0,1,1.212,6.436c-.133.195-.257.376-.366.539a10.377,10.377,0,0,1-3.294,2.433c-2.576,1.421-4.135,1.2-7.036,1.691.839,1.859-3.79,6.13-9.3,2.172a104.383,104.383,0,0,1-29.662,4.741c-1.6.042-3.517-.128-4.258-1.541a3.963,3.963,0,0,1-3.674-1.108,11.7,11.7,0,0,1-2.219-3.32,6.953,6.953,0,0,1-5.151-6.142,8.593,8.593,0,0,1-3.385-6.032,5.04,5.04,0,0,1-3.052-6.735,30.417,30.417,0,0,1,3.093-9.49c-1.838-.352-2.585-2.8-1.874-4.533s2.349-2.872,3.9-3.915c-1.359.4-2.591-1.292-2.3-2.676a5.4,5.4,0,0,1,2.7-3.121,25.775,25.775,0,0,1,5.607-2.663c.593-2.422,3.6-5.236,5.832-6.356,8.988-4.518,15.332-5.758,27.12,2.452" fill="#263238"/>
            <path id="Path_207047" data-name="Path 207047" d="M362.853,146.43a3.688,3.688,0,0,0-3.192-3.833l-19.421-5.5c-6.245-.841-10.631,6.755-11.206,13.031-.639,6.972-1.145,15.51-.466,20.746a13.538,13.538,0,0,0,10.732,12c0-.014-.158,7.6-.158,7.6l-.257,8.846c2.99-.42,22.171-9.592,22.171-9.592Z" fill="#ffbe9d"/>
            <path id="Path_207048" data-name="Path 207048" d="M339.415,165.875a9.576,9.576,0,0,0-2.337-.491c-.368-.048-.716-.132-.771-.385a1.887,1.887,0,0,1,.278-1.088q.56-1.326,1.172-2.781c1.631-3.961,2.823-7.222,2.663-7.286s-1.612,3.094-3.243,7.054q-.59,1.466-1.127,2.8a2.135,2.135,0,0,0-.233,1.444.931.931,0,0,0,.592.557,2.5,2.5,0,0,0,.625.1,9.393,9.393,0,0,0,2.381.071" fill="#263238"/>
            <path id="Path_207049" data-name="Path 207049" d="M339.3,182.875s5.666.743,12.77-3.257c0,0-1.912,7.758-12.845,6.881Z" fill="#eb996e"/>
            <path id="Path_207050" data-name="Path 207050" d="M344.127,149.667c.131.4,1.581.252,3.271.5,1.7.219,3.051.754,3.286.408.105-.166-.123-.542-.665-.939a5.76,5.76,0,0,0-5-.7c-.63.234-.952.534-.9.722" fill="#263238"/>
            <path id="Path_207051" data-name="Path 207051" d="M331.412,149.661c.245.336,1.251.023,2.45.041,1.2-.024,2.206.284,2.449-.053.107-.164-.043-.5-.477-.821a3.547,3.547,0,0,0-3.948.01c-.433.325-.582.659-.474.823" fill="#263238"/>
            <path id="Path_207052" data-name="Path 207052" d="M324.407,155.235a7.2,7.2,0,0,1,1.665-4.539,26.429,26.429,0,0,0,1.911-1.906c1.154-1.568.952-3.715,1.422-5.6a7.919,7.919,0,0,1,4.815-5.4c1.955-.733,4.183-.675,6.011-1.683,1.351-.745,2.368-2.017,3.761-2.681,2.712-1.294,5.9.057,8.512,1.553.545,2.042-.724,3.837-1.946,5.561a7.332,7.332,0,0,1-5.342,3.023c-1.634.125-3.551-.214-4.683.972-1.19,1.248-.686,3.4-1.658,4.828-1.389,2.036-4.636,1.323-6.743,2.6-1.627.987-2.285,2.964-3.085,4.691s-2.2,3.537-4.1,3.478a21.392,21.392,0,0,1-.538-4.892" fill="#263238"/>
            <path id="Path_207053" data-name="Path 207053" d="M348.48,138.771a37.145,37.145,0,0,1,14.07,2.305,6.759,6.759,0,0,1,3.5,2.329,6.63,6.63,0,0,1,.79,3.621c.017,3.925-1.486,8.753-2.924,12.4l-4.853,3.012c-3.787-.832-2.16-7.375-2.03-10.643a7.713,7.713,0,0,1-4.613-6.737,8.532,8.532,0,0,1-3.936-6.292" fill="#263238"/>
            <path id="Path_207054" data-name="Path 207054" d="M359.105,161.032c.112-2.246,2.861-2.726,4.808-1.6,1.068.618,1.886,1.861,1.788,4.245-.263,6.359-6.593,4.784-6.6,4.6,0-.113-.131-4.615,0-7.245" fill="#ffbe9d"/>
            <path id="Path_207055" data-name="Path 207055" d="M361.146,165.948c.029-.019.108.082.291.176a1.113,1.113,0,0,0,.828.051,2.743,2.743,0,0,0,1.369-2.407,3.653,3.653,0,0,0-.244-1.6,1.277,1.277,0,0,0-.8-.884.565.565,0,0,0-.667.276c-.092.174-.057.3-.091.313s-.132-.113-.07-.373a.706.706,0,0,1,.266-.388.839.839,0,0,1,.62-.137,1.556,1.556,0,0,1,1.116,1.034,3.757,3.757,0,0,1,.311,1.788,2.876,2.876,0,0,1-1.729,2.679,1.181,1.181,0,0,1-1.006-.21c-.191-.165-.218-.308-.2-.319" fill="#eb996e"/>
            <path id="Path_207056" data-name="Path 207056" d="M361.895,168.608a.392.392,0,0,0,.02.084.847.847,0,0,0,.089.241,1.476,1.476,0,0,0,.747.648,3.915,3.915,0,0,0,1.577.3,5.33,5.33,0,0,0,1.019-.082,3.771,3.771,0,0,0,1.106-.354l-.076-.037a3.161,3.161,0,0,0,5.064,1.927l-.108-.018a1.309,1.309,0,0,0,.841.543,1.808,1.808,0,0,0,1.028-.1,1.659,1.659,0,0,0,.817-.685,2.2,2.2,0,0,0,.306-1.051,3.243,3.243,0,0,0-.726-2.108,9.57,9.57,0,0,0-1.7-1.6l-.009.147a2.24,2.24,0,0,0,.984-1.521,3.262,3.262,0,0,0-.211-1.871,5.049,5.049,0,0,0-1.137-1.568A15.061,15.061,0,0,0,370,160.249l.012.143a2.388,2.388,0,0,0,.6-1.854,3.443,3.443,0,0,0-.748-1.875,8.5,8.5,0,0,0-3.133-2.114l.052.109a4.218,4.218,0,0,0-4.665-5.135l.1.107a3.636,3.636,0,0,0-.908-3.078,3.585,3.585,0,0,0-2.705-1.276l.081.079a3.57,3.57,0,0,0-1.486-2.747,3.493,3.493,0,0,0-2.668-.692l.074.061a3.5,3.5,0,0,0-.542-1.621,4.5,4.5,0,0,0-.983-1.151,3.643,3.643,0,0,0-2.187-.9l-.239-.012c-.077,0-.152.014-.224.02a3.455,3.455,0,0,0-.4.053,4.368,4.368,0,0,0-.6.181l-.352.157a.665.665,0,0,0-.117.059.827.827,0,0,0,.124-.043l.357-.14a4.753,4.753,0,0,1,.6-.163,3.235,3.235,0,0,1,.4-.044c.071,0,.144-.015.22-.016l.234.016a3.592,3.592,0,0,1,2.128.91,4.4,4.4,0,0,1,.95,1.133,3.4,3.4,0,0,1,.513,1.565l0,.074.07-.013a3.365,3.365,0,0,1,2.56.683,3.427,3.427,0,0,1,1.413,2.634v.08l.08,0a3.431,3.431,0,0,1,2.574,1.23,3.466,3.466,0,0,1,.861,2.929l-.026.124.126-.016a4.034,4.034,0,0,1,4.454,4.913l-.017.075.07.034a8.351,8.351,0,0,1,3.064,2.061,3.242,3.242,0,0,1,.706,1.769,2.187,2.187,0,0,1-.543,1.706l-.076.078.088.065a7.491,7.491,0,0,1,2.6,2.737,3.079,3.079,0,0,1,.2,1.762,2.057,2.057,0,0,1-.9,1.4l-.11.067.1.08a9.41,9.41,0,0,1,1.675,1.569,3.08,3.08,0,0,1,.7,2,1.706,1.706,0,0,1-1.016,1.6,1.4,1.4,0,0,1-1.686-.376l-.045-.068-.064.051a3.076,3.076,0,0,1-3.2.354,3.116,3.116,0,0,1-1.672-2.183l-.013-.071-.064.034a3.633,3.633,0,0,1-1.073.354,5.276,5.276,0,0,1-1,.094,3.916,3.916,0,0,1-1.554-.272,1.48,1.48,0,0,1-.745-.611c-.1-.2-.122-.315-.134-.311" fill="#455a64"/>
            <path id="Path_207057" data-name="Path 207057" d="M385.989,161.41a2.163,2.163,0,0,0,.233-.388,3.24,3.24,0,0,0,.316-1.263,3.2,3.2,0,0,0-.553-1.985,3.377,3.377,0,0,0-2.325-1.427l.054.076a4.358,4.358,0,0,0-.625-3.127,4.244,4.244,0,0,0-1.265-1.3,10.144,10.144,0,0,0-1.751-.79,3.466,3.466,0,0,1-.84-.481,2.149,2.149,0,0,1-.593-.772c-.293-.6-.4-1.323-.763-1.973a3.862,3.862,0,0,0-3.9-1.856l.111.106a5.091,5.091,0,0,0-5.734-5.677l.108.1a4.471,4.471,0,0,0-7.02-4.065l.1.008a6.114,6.114,0,0,0-2.242-1.318,9.2,9.2,0,0,0-2.288-.487,10.683,10.683,0,0,0-3.764.317,7.574,7.574,0,0,0-2.222.966,4.414,4.414,0,0,0-.511.384c-.111.091-.165.143-.165.143s.235-.186.7-.486a7.848,7.848,0,0,1,2.22-.917,10.724,10.724,0,0,1,3.727-.276,9.06,9.06,0,0,1,2.251.5,5.973,5.973,0,0,1,2.179,1.295l.048.047.055-.039a4.3,4.3,0,0,1,6.737,3.915l-.01.119.118-.016a4.9,4.9,0,0,1,5.518,5.465l-.016.128.128-.022a3.682,3.682,0,0,1,3.709,1.759c.349.607.455,1.321.762,1.958a2.342,2.342,0,0,0,.643.83,3.655,3.655,0,0,0,.883.5,10.054,10.054,0,0,1,1.729.769,4.109,4.109,0,0,1,1.227,1.248,4.229,4.229,0,0,1,.626,3.021l-.012.067.067.009a3.275,3.275,0,0,1,2.259,1.357,3.148,3.148,0,0,1,.566,1.926,3.353,3.353,0,0,1-.279,1.25c-.121.269-.21.4-.2.4" fill="#455a64"/>
            <path id="Path_207058" data-name="Path 207058" d="M325.25,164.144a.624.624,0,0,0,.016-.521,1.233,1.233,0,0,0-.381-.521,2.145,2.145,0,0,0-.791-.381,3.758,3.758,0,0,1-1-.4,1.979,1.979,0,0,1-.732-1.008,3.886,3.886,0,0,1-.184-1.452c.014-.524.087-1.081.077-1.675a17.064,17.064,0,0,0-.871-3.743,5.287,5.287,0,0,1-.12-2.088,2.546,2.546,0,0,1,1.122-1.806,9.571,9.571,0,0,1,2.215-.792,3.839,3.839,0,0,0,1.13-.549,2.561,2.561,0,0,0,.787-1.018,12.349,12.349,0,0,0,.627-2.512,4.209,4.209,0,0,1,.42-1.212,1.945,1.945,0,0,1,.923-.837,7.085,7.085,0,0,1,1.754-.269,2.776,2.776,0,0,0,.886-.238,1.751,1.751,0,0,0,.693-.6,6.16,6.16,0,0,0,.638-1.634,3.911,3.911,0,0,1,.774-1.448,3.832,3.832,0,0,1,2.745-1.369,3.943,3.943,0,0,1,2.714.932l.085.074.045-.1a6.053,6.053,0,0,1,3.72-3.32,5.588,5.588,0,0,1,2.12-.219,5.087,5.087,0,0,1,1.754.457,4.711,4.711,0,0,1,2.209,2.268l.078.155a.181.181,0,0,0,.031.051.263.263,0,0,0-.019-.056l-.066-.161a3.823,3.823,0,0,0-.306-.608,4.444,4.444,0,0,0-1.886-1.737,5.143,5.143,0,0,0-1.785-.485,5.659,5.659,0,0,0-2.17.205,6.184,6.184,0,0,0-3.832,3.384l.131-.029a4.1,4.1,0,0,0-2.83-.984,4.009,4.009,0,0,0-2.88,1.426,4.1,4.1,0,0,0-.812,1.51,6.061,6.061,0,0,1-.616,1.583,1.859,1.859,0,0,1-1.445.76,7.19,7.19,0,0,0-1.8.282,2.141,2.141,0,0,0-1.018.92,4.411,4.411,0,0,0-.44,1.267,12.3,12.3,0,0,1-.611,2.474,2.37,2.37,0,0,1-.728.948,3.693,3.693,0,0,1-1.074.523,9.565,9.565,0,0,0-2.254.817,2.448,2.448,0,0,0-.818.848,3.236,3.236,0,0,0-.376,1.08,5.449,5.449,0,0,0,.132,2.154,17.218,17.218,0,0,1,.89,3.708c.014.58-.054,1.137-.063,1.669a3.976,3.976,0,0,0,.2,1.492,2.064,2.064,0,0,0,.783,1.048,3.784,3.784,0,0,0,1.028.393,2.129,2.129,0,0,1,.777.354,1.212,1.212,0,0,1,.38.489.778.778,0,0,1,.021.508" fill="#455a64"/>
            <path id="Path_207059" data-name="Path 207059" d="M312.753,154.508a.72.72,0,0,0,.064-.12l.169-.359.632-1.389c.278-.6.587-1.352,1.035-2.175a5.651,5.651,0,0,1,2.09-2.316c.509-.288,1.1-.482,1.692-.757a4.025,4.025,0,0,0,.86-.522,2.185,2.185,0,0,0,.634-.84c.29-.664.287-1.412.516-2.1a1.8,1.8,0,0,1,.6-.878,3.415,3.415,0,0,1,1.013-.49,6.6,6.6,0,0,0,1.117-.449,2.045,2.045,0,0,0,.853-.913,9.294,9.294,0,0,0,.5-2.474,3.059,3.059,0,0,1,.4-1.173,1.587,1.587,0,0,1,1-.68c.832-.188,1.735.089,2.663-.073a2.247,2.247,0,0,0,1.212-.668,5.789,5.789,0,0,0,.773-1.107,12.1,12.1,0,0,1,.679-1.107,2.452,2.452,0,0,1,.921-.815,3.736,3.736,0,0,1,2.4-.02,5.6,5.6,0,0,0,2.416.17,6.447,6.447,0,0,0,2.084-.992,10.946,10.946,0,0,1,1.852-1.069,6.556,6.556,0,0,1,3.769-.183,7.034,7.034,0,0,1,2.816,1.392,7.858,7.858,0,0,1,1.572,1.8,8.918,8.918,0,0,1,.682,1.356c.065.153.115.274.154.365a.725.725,0,0,0,.058.123.666.666,0,0,0-.04-.129c-.034-.093-.079-.217-.135-.373a8.12,8.12,0,0,0-.655-1.381,7.772,7.772,0,0,0-1.567-1.843,7.1,7.1,0,0,0-2.853-1.441,6.671,6.671,0,0,0-3.859.167,10.98,10.98,0,0,0-1.886,1.075,6.3,6.3,0,0,1-2.029.96,5.44,5.44,0,0,1-2.341-.176,8.05,8.05,0,0,0-1.241-.2,2.629,2.629,0,0,0-1.28.225,2.659,2.659,0,0,0-.993.872,12.436,12.436,0,0,0-.692,1.125,5.645,5.645,0,0,1-.745,1.069,2.054,2.054,0,0,1-1.109.612c-.864.157-1.766-.121-2.671.076a1.783,1.783,0,0,0-1.113.761,3.221,3.221,0,0,0-.43,1.247,9.276,9.276,0,0,1-.482,2.425,1.852,1.852,0,0,1-.777.836A6.431,6.431,0,0,1,322,142.4a3.559,3.559,0,0,0-1.062.521,1.961,1.961,0,0,0-.651.961c-.236.725-.23,1.465-.5,2.089a2.6,2.6,0,0,1-1.411,1.29c-.578.274-1.173.473-1.7.773a5.734,5.734,0,0,0-2.117,2.383c-.443.836-.742,1.591-1.009,2.2s-.458,1.072-.6,1.4c-.064.154-.114.276-.151.367a.691.691,0,0,0-.046.128" fill="#455a64"/>
            <path id="Path_207060" data-name="Path 207060" d="M319.4,147.747a.579.579,0,0,0-.117-.018.715.715,0,0,0-.336.08,1.364,1.364,0,0,0-.614,1.137,3.343,3.343,0,0,0,.152.948,3.916,3.916,0,0,1,.182,1.1,2.459,2.459,0,0,1-.428,1.181c-.24.387-.548.768-.794,1.228a1.822,1.822,0,0,0-.132,1.6c.211.538.612.984.814,1.531a2.372,2.372,0,0,1-.145,1.752c-.238.584-.582,1.153-.814,1.8a2.848,2.848,0,0,0-.187,1.035,2.59,2.59,0,0,0,.258,1.048,12.3,12.3,0,0,0,1.239,1.792,2.922,2.922,0,0,1,.7,2,9.631,9.631,0,0,1-.733,2.157,3.3,3.3,0,0,0-.217,1.172,2.623,2.623,0,0,0,.317,1.137,9.691,9.691,0,0,0,1.4,1.775,5.143,5.143,0,0,1,1.14,1.78,15.693,15.693,0,0,0,.692,1.967,2.316,2.316,0,0,0,.659.794,2.935,2.935,0,0,0,.906.418,8.219,8.219,0,0,1,.886.3,3.166,3.166,0,0,1,.742.488,6.462,6.462,0,0,1,1.064,1.343c.3.468.578.929.889,1.341a4.354,4.354,0,0,0,2.24,1.592,4.675,4.675,0,0,0,2.079.164,4.151,4.151,0,0,0,1.26-.391,3.1,3.1,0,0,0,.4-.236,4.814,4.814,0,0,1-1.665.553,4.668,4.668,0,0,1-2.036-.193,4.258,4.258,0,0,1-2.164-1.571c-.3-.407-.574-.866-.872-1.34a6.637,6.637,0,0,0-1.083-1.381,3.279,3.279,0,0,0-.781-.519,7.957,7.957,0,0,0-.9-.311,2.751,2.751,0,0,1-.853-.4,2.127,2.127,0,0,1-.605-.736,15.844,15.844,0,0,1-.676-1.946,5.336,5.336,0,0,0-1.172-1.844,9.638,9.638,0,0,1-1.372-1.738,2.44,2.44,0,0,1-.294-1.054,3.121,3.121,0,0,1,.206-1.1,9.542,9.542,0,0,0,.742-2.2,2.418,2.418,0,0,0-.175-1.15,4.65,4.65,0,0,0-.567-.98,12.409,12.409,0,0,1-1.225-1.76,2.4,2.4,0,0,1-.243-.972,2.7,2.7,0,0,1,.173-.973c.221-.626.561-1.2.8-1.8a2.534,2.534,0,0,0,.137-1.871c-.223-.584-.626-1.025-.826-1.53a1.68,1.68,0,0,1,.115-1.484c.232-.445.536-.83.777-1.227a2.545,2.545,0,0,0,.432-1.242,3.935,3.935,0,0,0-.2-1.124,3.375,3.375,0,0,1-.165-.921,1.335,1.335,0,0,1,.558-1.106.812.812,0,0,1,.434-.1" fill="#455a64"/>
            <path id="Path_207061" data-name="Path 207061" d="M385.826,161.205a2.4,2.4,0,0,0,.5-.058,3.46,3.46,0,0,0,1.329-.6,3.387,3.387,0,0,0,1.31-1.894,3.575,3.575,0,0,0-.564-2.992,8.966,8.966,0,0,0-1.291-1.285,4.277,4.277,0,0,1-1.212-1.493,2.8,2.8,0,0,1,.067-2.02c.233-.685.6-1.355.816-2.113a6.233,6.233,0,0,0-4.815-7.864l.06.148a3.176,3.176,0,0,0,.53-1.4,4.022,4.022,0,0,0-.118-1.511,4.391,4.391,0,0,0-.659-1.387,5.243,5.243,0,0,0-1.1-1.1,9.842,9.842,0,0,0-4.207-1.626,14.9,14.9,0,0,0-4.276-.12l.1.088a4.516,4.516,0,0,0-2.613-3.869,4.611,4.611,0,0,0-2.239-.4,7.458,7.458,0,0,0-2.076.582,4.183,4.183,0,0,1-.976.241,2.574,2.574,0,0,1-.959-.086,7.815,7.815,0,0,1-1.694-.792,6.786,6.786,0,0,0-1.617-.711,5.53,5.53,0,0,0-1.609-.19,5.343,5.343,0,0,0-2.629.759,5.515,5.515,0,0,0-1.525,1.365,5.319,5.319,0,0,0-.652,1.1,2.919,2.919,0,0,0-.152.416c.009,0,.057-.141.182-.4a5.535,5.535,0,0,1,2.194-2.4,5.276,5.276,0,0,1,2.585-.721,5.427,5.427,0,0,1,1.572.2,6.705,6.705,0,0,1,1.583.709,7.868,7.868,0,0,0,1.723.815,2.724,2.724,0,0,0,1.013.1,4.374,4.374,0,0,0,1.014-.245,7.323,7.323,0,0,1,2.036-.566,4.446,4.446,0,0,1,2.154.388,4.341,4.341,0,0,1,2.5,3.719l.005.1.1-.011a14.734,14.734,0,0,1,4.221.124,9.67,9.67,0,0,1,4.123,1.592,5.019,5.019,0,0,1,1.055,1.059,4.175,4.175,0,0,1,.63,1.325,3.8,3.8,0,0,1,.114,1.436,2.981,2.981,0,0,1-.495,1.311l-.083.121.143.027a6.063,6.063,0,0,1,4.69,7.632c-.211.735-.569,1.407-.8,2.108a2.956,2.956,0,0,0-.055,2.127,4.416,4.416,0,0,0,1.259,1.538,8.947,8.947,0,0,1,1.281,1.258,3.474,3.474,0,0,1,.57,2.895,3.333,3.333,0,0,1-1.255,1.863,3.563,3.563,0,0,1-1.3.616c-.322.075-.5.081-.5.091" fill="#263238"/>
            <path id="Path_207062" data-name="Path 207062" d="M317.1,143.415a.579.579,0,0,0,.016-.121c.008-.091.017-.209.029-.358.025-.327.06-.787.1-1.374s.126-1.325.274-2.159a12.272,12.272,0,0,1,.8-2.755,8.154,8.154,0,0,1,1.981-2.816,6.018,6.018,0,0,1,1.615-1.03,17.212,17.212,0,0,1,1.966-.6,5.75,5.75,0,0,0,1.991-.92,9.1,9.1,0,0,0,1.6-1.636c.483-.6.942-1.237,1.48-1.813a6.455,6.455,0,0,1,1.886-1.438,11.453,11.453,0,0,1,4.576-1.049,29.908,29.908,0,0,1,4.421.11,22.634,22.634,0,0,1,7.216,1.894,16.054,16.054,0,0,1,4.193,2.781c.214.207.413.384.572.549l.391.431.244.263a.651.651,0,0,0,.088.086.548.548,0,0,0-.073-.1l-.229-.276-.379-.445c-.156-.17-.351-.352-.563-.565a15.659,15.659,0,0,0-4.186-2.85,22.493,22.493,0,0,0-7.255-1.947,29.716,29.716,0,0,0-4.45-.122,11.586,11.586,0,0,0-4.654,1.065,6.649,6.649,0,0,0-1.939,1.48c-.548.588-1.008,1.227-1.488,1.826a8.935,8.935,0,0,1-1.557,1.607,5.6,5.6,0,0,1-1.929.9,17.408,17.408,0,0,0-1.984.615,6.159,6.159,0,0,0-1.655,1.068,8.241,8.241,0,0,0-2,2.88,12.224,12.224,0,0,0-.779,2.791c-.139.842-.2,1.574-.242,2.172s-.058,1.063-.069,1.378c0,.149-.007.267-.01.359a.572.572,0,0,0,0,.122" fill="#263238"/>
            <path id="Path_207063" data-name="Path 207063" d="M343.7,168.026l-4.64,1.791-.441.169a9.716,9.716,0,0,0,.92,2.317,2.5,2.5,0,0,0,1.743,1.188,2.8,2.8,0,0,0,1.67-.446,3.345,3.345,0,0,0,1.412-2.312,3.529,3.529,0,0,0-.664-2.707" fill="#eb996e"/>
            <path id="Path_207064" data-name="Path 207064" d="M341.008,173.507a3.593,3.593,0,0,0,1.781-.473,2.981,2.981,0,0,0,1.191-1.533,3.692,3.692,0,0,0,0-2.385,4.432,4.432,0,0,0-.242-.6.876.876,0,0,0-.134-.224c-.048-.035-.028-.034-.1-.021l-1.127.451c-.7.271-1.35.526-1.95.76a9.145,9.145,0,0,1-1.835.6,9.045,9.045,0,0,1,1.725-.87l1.916-.841c.371-.157.721-.314,1.158-.487a.49.49,0,0,1,.5.117,1.167,1.167,0,0,1,.215.331,4.842,4.842,0,0,1,.267.65,3.943,3.943,0,0,1-.034,2.641,3.158,3.158,0,0,1-1.4,1.65,2.69,2.69,0,0,1-1.411.345c-.345-.017-.521-.1-.516-.12" fill="#263238"/>
            <path id="Path_207065" data-name="Path 207065" d="M365.635,167.506a3.3,3.3,0,0,1,.96.534,4.3,4.3,0,0,1,1.584,2.512,4.555,4.555,0,0,1-.015,2.086,5.124,5.124,0,0,1-1.129,2.111,5.219,5.219,0,0,1-2.185,1.489,4.8,4.8,0,0,1-2.832.108,5.157,5.157,0,0,1-2.447-1.436,4.65,4.65,0,0,1-1.2-2.359,4.942,4.942,0,0,1,1.18-4.2,4.761,4.761,0,0,1,2.679-1.3,2.707,2.707,0,0,1,.819.015.983.983,0,0,1,.273.082,3.507,3.507,0,0,0-1.079,0,4.607,4.607,0,0,0-1.206.378,4.37,4.37,0,0,0-1.359.95,4.786,4.786,0,0,0-1.086,4.042,4.447,4.447,0,0,0,1.147,2.235,4.952,4.952,0,0,0,2.335,1.365,4.576,4.576,0,0,0,2.692-.1,5.015,5.015,0,0,0,2.1-1.412,4.951,4.951,0,0,0,1.1-2.012,4.422,4.422,0,0,0,.043-2,4.3,4.3,0,0,0-1.475-2.475,9.618,9.618,0,0,0-.9-.608" fill="#e0e0e0"/>
            <path id="Path_207066" data-name="Path 207066" d="M346.259,158.916a1.38,1.38,0,0,0,1.293,1.427,1.319,1.319,0,0,0,1.455-1.206,1.38,1.38,0,0,0-1.291-1.428,1.321,1.321,0,0,0-1.457,1.207" fill="#263238"/>
            <path id="Path_207067" data-name="Path 207067" d="M332.506,158.211a1.38,1.38,0,0,0,1.293,1.427,1.319,1.319,0,0,0,1.455-1.206A1.38,1.38,0,0,0,333.963,157a1.321,1.321,0,0,0-1.457,1.207" fill="#263238"/>
            <path id="Path_207068" data-name="Path 207068" d="M330.678,154.74c.162.244,1.4-.628,3.012-.476,1.613.126,2.7,1.2,2.894.986.1-.094-.049-.522-.518-1.005a3.657,3.657,0,0,0-4.715-.408c-.542.4-.754.793-.673.9" fill="#263238"/>
            <path id="Path_207069" data-name="Path 207069" d="M344.628,155.481c.2.222,1.413-.754,3.138-.767,1.724-.04,2.995.9,3.181.67.091-.1-.111-.5-.666-.928a4.18,4.18,0,0,0-2.548-.814,4.072,4.072,0,0,0-2.5.89c-.527.442-.707.85-.609.949" fill="#263238"/>
            <path id="Path_207070" data-name="Path 207070" d="M295.924,374.716l8.989,21.817,16.244-6.7-9.116-26.917Z" fill="#ffbe9d"/>
            <path id="Path_207071" data-name="Path 207071" d="M303.105,395.027l5.314,11.244s-15.406,14.661-14.16,18.133L329.676,409.2l-8.624-22.469Z" fill="#084a93"/>
            <path id="Path_207072" data-name="Path 207072" d="M318.712,400.034a1.574,1.574,0,0,1,1.709,1.221,1.515,1.515,0,0,1-1.2,1.7,1.662,1.662,0,0,1-1.8-1.3,1.57,1.57,0,0,1,1.44-1.635" fill="#e0e0e0"/>
            <g id="Group_147937" data-name="Group 147937" opacity="0.6">
              <g id="Group_147936" data-name="Group 147936">
                <g id="Group_147935" data-name="Group 147935" clip-path="url(#clip-path-3)">
                  <path id="Path_207073" data-name="Path 207073" d="M329.677,409.2l-1.33-2.828-33.46,15.64s-1.282,1.363-.627,2.4Z" fill="#fff"/>
                </g>
              </g>
            </g>
            <path id="Path_207074" data-name="Path 207074" d="M307.769,406.337c.08.171.978-.122,2.068.068,1.1.163,1.855.723,1.985.586.145-.1-.557-1.025-1.881-1.232s-2.278.435-2.172.578" fill="#263238"/>
            <path id="Path_207075" data-name="Path 207075" d="M304.714,409.469c.031.184.907.157,1.808.636.916.453,1.4,1.18,1.573,1.1.175-.043-.142-1.107-1.274-1.682s-2.175-.219-2.107-.053" fill="#263238"/>
            <path id="Path_207076" data-name="Path 207076" d="M304.513,414.821c.173-.031.043-1-.808-1.755s-1.822-.786-1.833-.61c-.037.184.707.467,1.4,1.1.7.615,1.066,1.323,1.245,1.266" fill="#263238"/>
            <path id="Path_207077" data-name="Path 207077" d="M306.288,402.03c.14.126.831-.453,1.837-.806,1-.374,1.9-.373,1.927-.56.046-.168-.971-.489-2.15-.056s-1.757,1.322-1.614,1.422" fill="#263238"/>
            <path id="Path_207078" data-name="Path 207078" d="M294.657,386.313l-21.824-67.907s1.046-11.093,3.24-14.518,65.066-21.332,65.066-21.332,15.956-3.147,26.331,1.093,20.881,9.379,19.523,16.72a19.524,19.524,0,0,1-.947,3.284,26.865,26.865,0,0,1-25.554,17.179l-8.235.577-42.14,6.245a3.211,3.211,0,0,0-2.64,3.971l11.639,45.556s-15.052,6.587-24.459,9.132" fill="#084a93"/>
            <path id="Path_207079" data-name="Path 207079" d="M274.855,339.159,273.29,362.7l17.534,1.157,3.7-28.177Z" fill="#ffbe9d"/>
            <path id="Path_207080" data-name="Path 207080" d="M273.42,359.565l-1.283,13.424s-20.295,6.354-20.71,10.019L289.92,385l2.181-23.968Z" fill="#084a93"/>
            <path id="Path_207081" data-name="Path 207081" d="M272.271,365.395a1.378,1.378,0,0,1,.052-.687,4.277,4.277,0,0,1,.848-1.719,2.514,2.514,0,0,1,.483-.487.952.952,0,0,1,.875-.139.591.591,0,0,1,.37.362.677.677,0,0,1-.037.466,4.547,4.547,0,0,1-.434.686c-.319.442-.587.885-.993,1.381a1.164,1.164,0,0,1-1.047.373,2.329,2.329,0,0,1-.979-.437,8.318,8.318,0,0,1-1.413-1.27,7.926,7.926,0,0,1-.548-.7,2.135,2.135,0,0,1-.4-.791.711.711,0,0,1,.474-.825,1.061,1.061,0,0,1,.919.227,5.334,5.334,0,0,1,.936,1.033,6.367,6.367,0,0,1,.888,1.707,1.58,1.58,0,0,1,.14.677,12.924,12.924,0,0,0-1.3-2.222,5.542,5.542,0,0,0-.9-.928.669.669,0,0,0-.545-.153.355.355,0,0,0-.2.426,1.886,1.886,0,0,0,.353.64,8.13,8.13,0,0,0,.529.656,8.261,8.261,0,0,0,1.345,1.2,1.9,1.9,0,0,0,.766.356.681.681,0,0,0,.636-.233c.337-.4.665-.906.978-1.323a4.675,4.675,0,0,0,.413-.611c.086-.193.048-.322-.1-.383-.346-.145-.7.2-.952.489a6.213,6.213,0,0,0-1.159,2.229" fill="#263238"/>
            <path id="Path_207082" data-name="Path 207082" d="M284.126,371.936a1.573,1.573,0,0,1,.994,1.85,1.513,1.513,0,0,1-1.825,1,1.662,1.662,0,0,1-1.043-1.965,1.57,1.57,0,0,1,2.015-.831" fill="#e0e0e0"/>
            <g id="Group_147940" data-name="Group 147940" opacity="0.6">
              <g id="Group_147939" data-name="Group 147939">
                <g id="Group_147938" data-name="Group 147938" clip-path="url(#clip-path-4)">
                  <path id="Path_207083" data-name="Path 207083" d="M289.92,385l.055-3.125-36.927-.737s-1.753.656-1.621,1.874Z" fill="#fff"/>
                </g>
              </g>
            </g>
            <path id="Path_207084" data-name="Path 207084" d="M271.524,372.761c0,.188.932.322,1.825.974.911.629,1.346,1.468,1.523,1.4.175-.027-.047-1.165-1.143-1.936s-2.237-.615-2.205-.44" fill="#263238"/>
            <path id="Path_207085" data-name="Path 207085" d="M267.4,374.222c-.052.18.745.542,1.343,1.369.621.811.738,1.679.925,1.68.175.039.362-1.055-.4-2.07s-1.855-1.158-1.868-.979" fill="#263238"/>
            <path id="Path_207086" data-name="Path 207086" d="M264.858,378.936c.168.049.478-.877.048-1.931s-1.286-1.51-1.375-1.357c-.113.149.429.731.768,1.6.36.862.373,1.658.559,1.686" fill="#263238"/>
            <path id="Path_207087" data-name="Path 207087" d="M272.1,368.242c.07.175.946-.039,2,.088,1.062.105,1.87.505,1.976.348.116-.13-.655-.867-1.9-1s-2.161.411-2.076.564" fill="#263238"/>
            <path id="Path_207088" data-name="Path 207088" d="M287.82,274.151s-10.481-1.277-12.125,10.084-9.33,64.019-9.33,64.019l28.818,3.609,6.061-54.258,39.9-15.049s-46.237-9.576-53.319-8.4" fill="#084a93"/>
            <path id="Path_207089" data-name="Path 207089" d="M331.8,260.553s-7.125,17.629-5.992,19.674,17.205,10.932,17.205,10.932l40.413,17.477a34.452,34.452,0,0,0,4.924-16.841c.427-10.306-13.088-29.438-13.088-29.438Z" fill="#084a93"/>
            <path id="Path_207090" data-name="Path 207090" d="M343.12,281.724a.98.98,0,0,1-.2.1l-.6.245-2.316.918-8.691,3.364-30,11.464.141-.181c-.6,5.359-1.239,11.148-1.9,17.137-1.582,14-3.04,26.9-4.194,37.117l-.02.185-.184-.024-17.838-2.314-4.911-.665-1.282-.188a2.7,2.7,0,0,1-.436-.082,2.676,2.676,0,0,1,.443.028l1.289.134,4.923.567,17.857,2.157-.2.161c1.128-10.214,2.554-23.124,4.1-37.127.672-5.988,1.322-11.776,1.923-17.135l.015-.134.126-.048,30.057-11.311,8.736-3.245,2.342-.849.608-.211a.954.954,0,0,1,.211-.059" fill="#052b4c"/>
            <path id="Path_207091" data-name="Path 207091" d="M375.707,284.869a5.952,5.952,0,0,1-1.141-.363l-3.05-1.125a67.439,67.439,0,0,0-10.24-3.044,30.366,30.366,0,0,0-10.6-.3,42.586,42.586,0,0,0-4.3,1.054,5.114,5.114,0,0,1,1.09-.5,18.964,18.964,0,0,1,3.15-.877,28.492,28.492,0,0,1,10.743.172,57.656,57.656,0,0,1,10.27,3.192c1.275.513,2.3.951,3,1.263a6,6,0,0,1,1.074.528" fill="#052b4c"/>
            <path id="Path_207092" data-name="Path 207092" d="M370.293,275.2a30.094,30.094,0,0,0-3.59-.169c-1.108.031-2.432.146-3.9.255s-3.085.243-4.76.489a22.037,22.037,0,0,0-8.171,2.651,25.053,25.053,0,0,0-2.884,2.133,3.152,3.152,0,0,1,.629-.748,12.239,12.239,0,0,1,2.085-1.661,20.613,20.613,0,0,1,8.274-2.829c1.7-.249,3.323-.367,4.8-.457s2.8-.168,3.93-.158a14.671,14.671,0,0,1,2.652.229,3.075,3.075,0,0,1,.941.265" fill="#052b4c"/>
            <path id="Path_207093" data-name="Path 207093" d="M305.36,399.788a1.7,1.7,0,0,1-.289-.712,5.074,5.074,0,0,1-.079-2.1,2.725,2.725,0,0,1,.2-.7.877.877,0,0,1,.716-.53.618.618,0,0,1,.507.2.827.827,0,0,1,.2.484,5.26,5.26,0,0,1-.054.88c-.07.586-.094,1.148-.215,1.826a1.11,1.11,0,0,1-.756.841,2.208,2.208,0,0,1-1.09,0,8.642,8.642,0,0,1-1.884-.643,9.028,9.028,0,0,1-.831-.454,2.486,2.486,0,0,1-.745-.614.818.818,0,0,1,.022-1.038.976.976,0,0,1,.934-.183,5.709,5.709,0,0,1,1.341.618,7.422,7.422,0,0,1,1.629,1.315c.332.365.476.6.455.616a14.931,14.931,0,0,0-2.244-1.649,5.9,5.9,0,0,0-1.26-.528.618.618,0,0,0-.563.09.411.411,0,0,0,.031.514,2.153,2.153,0,0,0,.629.484,8.463,8.463,0,0,0,2.581,1.023,1.791,1.791,0,0,0,.859.014.648.648,0,0,0,.456-.516c.105-.555.154-1.2.231-1.762a5.464,5.464,0,0,0,.072-.8c-.018-.233-.114-.345-.279-.339-.38.009-.532.51-.614.914a7.38,7.38,0,0,0,.05,2.751" fill="#263238"/>
            <path id="Path_207094" data-name="Path 207094" d="M376.672,199.894s.114-6.6-.53-7.381L362.623,187.8l-9.739,2.916c-2.285,1-6.663,7.518-9.136,7.18-2.761-.378-3.281-7.639-4.418-9.732l-4.984,1.28s-8.538,22.671-8.646,29.089,3.263,15.067,2.7,28.523c-.292,7.034-.976,13.317,3.4,13.5l43.462,1.8s9.928-2.307,10.6-8.188-9.194-54.274-9.194-54.274" fill="#b9ddfc"/>
            <path id="Path_207095" data-name="Path 207095" d="M396.056,244.9l-6.811-21.549s-4.1-27.342-13.613-31.132c-4.072-1.623-12.977-1.34-15.68,4.188s.632,9.56,1.287,12.292,9.867,21.891,9.867,21.891a93.42,93.42,0,0,1,4.522,10.784l-36.781,19.472,4.636,12.129L389.47,256.24a10.346,10.346,0,0,0,6.5-6.815,8.551,8.551,0,0,0,.083-4.526" fill="#b9ddfc"/>
            <path id="Path_207096" data-name="Path 207096" d="M310.42,268.427l9.462-4.053,18.165-.685,1.519-.963,3.917,10.248s-4.841,2.072-7.334,2.171l-15.2-1.093-7.993.506Z" fill="#ffbe9d"/>
            <path id="Path_207097" data-name="Path 207097" d="M259.712,230.525l52.176,2.59c1.693.07,3.277.951,3.461,2.635l4.126,38.278,26.883,1.115a1.569,1.569,0,1,1-.13,3.135l-26.414-1.1-5.013-.208-54.436-2.259-4.2-40.393a3.427,3.427,0,0,1,3.549-3.8" fill="#e0e0e0"/>
            <path id="Path_207098" data-name="Path 207098" d="M259.712,230.525a2.764,2.764,0,0,0-.826.043,3.455,3.455,0,0,0-2.763,2.879,9.706,9.706,0,0,0,.1,2.154c.155,1.547.333,3.328.533,5.329.818,8.024,2,19.586,3.446,33.8l.014.139.139.006,83.3,3.506,2.242.093a2.171,2.171,0,0,0,1.2-.176,1.781,1.781,0,0,0,.122-3.11,2.178,2.178,0,0,0-1.167-.269l-1.1-.046-8.725-.361-16.737-.688.194.181c-1.488-13.709-2.876-26.5-4.121-37.97a2.96,2.96,0,0,0-.883-2.027,3.885,3.885,0,0,0-1.959-.964,17.223,17.223,0,0,0-2.1-.161l-2.049-.1-7.855-.379-13.961-.668-19.877-.927-5.318-.23-1.373-.051c-.309-.009-.467-.005-.467-.005s.157.02.465.041l1.372.086,5.315.3,19.871,1.046,13.959.718,7.854.4,2.049.1a17.164,17.164,0,0,1,2.049.161,3.536,3.536,0,0,1,1.787.878,2.6,2.6,0,0,1,.775,1.817c1.228,11.474,2.6,24.264,4.064,37.975l.019.175.175.007,16.737.7,8.724.364,1.1.046a1.753,1.753,0,0,1,.966.208,1.359,1.359,0,0,1-.093,2.374,1.759,1.759,0,0,1-.988.131l-2.241-.093-83.3-3.407.153.144c-1.508-14.209-2.735-25.767-3.586-33.787-.216-2-.408-3.779-.575-5.324a9.689,9.689,0,0,1-.125-2.124,3.343,3.343,0,0,1,.673-1.6,3.413,3.413,0,0,1,1.984-1.25,6.8,6.8,0,0,1,.816-.09" fill="#263238"/>
            <path id="Path_207099" data-name="Path 207099" d="M288.088,253.3a3.271,3.271,0,1,1-3.132-3.4,3.27,3.27,0,0,1,3.132,3.4" fill="#fff"/>
            <path id="Path_207100" data-name="Path 207100" d="M317.244,276.723c-.074.009-1.334-9.746-2.812-21.787s-2.619-21.812-2.544-21.821,1.333,9.744,2.813,21.788,2.617,21.811,2.543,21.82" fill="#263238"/>
            <path id="Path_207101" data-name="Path 207101" d="M385.734,257.6a1.014,1.014,0,0,1-.2.091l-.6.236-2.323.881-8.735,3.243-30.328,11.121-.193.071-.074-.194c-1.477-3.853-3.036-7.923-4.646-12.125l-.07-.182.173-.091,7.272-3.852L375.538,241.2l-.087.241-8.959-22.026-2.481-6.181-.639-1.633c-.065-.173-.116-.311-.158-.422a.077.077,0,1,1,.028-.011l.185.41.693,1.612c.6,1.439,1.475,3.512,2.579,6.14L375.8,241.3l.066.16-.154.082L346.223,257.19l-7.274,3.848.1-.272,4.626,12.133-.267-.123L373.793,261.8l8.776-3.129,2.347-.817.608-.2a1,1,0,0,1,.21-.057" fill="#263238"/>
            <path id="Path_207102" data-name="Path 207102" d="M361.25,182.637l-13.885,6.4-3.583,8.016-.542-8.188-4.19-3.331-2.235,3.2,4.041,11.578,6.381.265L362.6,188.22l.515-.273Z" fill="#b9ddfc"/>
            <path id="Path_207103" data-name="Path 207103" d="M336.815,188.731a16.741,16.741,0,0,1,1.117,2.428c.655,1.505,1.479,3.656,2.534,5.9l.079.148-.391.022c.976-2.246,1.642-4.39,2.176-5.908a16.676,16.676,0,0,1,.91-2.45,14.473,14.473,0,0,1-.614,2.542,50.948,50.948,0,0,1-2.069,6l-.18.415-.211-.393-.089-.167c-1.092-2.312-1.849-4.441-2.436-5.99a15.319,15.319,0,0,1-.826-2.543" fill="#263238"/>
            <path id="Path_207104" data-name="Path 207104" d="M363.12,187.946a5.159,5.159,0,0,1-.845.684l-2.4,1.728c-2.035,1.444-4.863,3.413-8,5.565l-3.725,2.538-.3.207-.024-.364c-.18-2.7-.32-5.015-.4-6.656-.031-.757-.057-1.394-.078-1.92a2.6,2.6,0,0,1,.019-.691,2.553,2.553,0,0,1,.119.681c.055.524.12,1.158.2,1.911.155,1.636.35,3.947.56,6.645l-.327-.158,3.712-2.559c3.138-2.152,5.995-4.08,8.074-5.457l2.477-1.613a5.161,5.161,0,0,1,.942-.541" fill="#263238"/>
            <path id="Path_207105" data-name="Path 207105" d="M329.048,258.811a1.7,1.7,0,0,1-.19-.369,5.788,5.788,0,0,1-.32-1.153,28.024,28.024,0,0,1-.39-4.441c-.052-1.9-.005-4.187.112-6.76.1-2.58.207-5.444.324-8.511l.057.154a19.54,19.54,0,0,1-3.916-6.314,19.3,19.3,0,0,1-1.249-5.7,23.885,23.885,0,0,1,.343-5.415,78.306,78.306,0,0,1,2.323-8.843,58.207,58.207,0,0,0,1.5-5.95c.27-1.424.329-2.227.378-2.223a2.976,2.976,0,0,1-.021.585c-.025.383-.073.946-.187,1.666a49.415,49.415,0,0,1-1.367,6.009,84.271,84.271,0,0,0-2.221,8.824,23.727,23.727,0,0,0-.313,5.319,19.024,19.024,0,0,0,1.23,5.565,19.315,19.315,0,0,0,3.815,6.181l.061.066,0,.089c-.138,3.067-.266,5.931-.382,8.511-.145,2.571-.223,4.844-.209,6.738a32.432,32.432,0,0,0,.262,4.419,10.44,10.44,0,0,0,.366,1.548" fill="#263238"/>
            <path id="Path_207106" data-name="Path 207106" d="M341.628,258.631a3.394,3.394,0,0,1-.071-.625c-.029-.454-.067-1.05-.115-1.8-.1-1.56-.191-3.819-.271-6.613-.162-5.586-.191-13.312.166-21.834s1.044-16.222,1.678-21.775c.315-2.777.6-5.02.828-6.566.11-.739.2-1.33.266-1.78a3.356,3.356,0,0,1,.123-.616,3.261,3.261,0,0,1-.034.628c-.047.452-.108,1.047-.184,1.789-.168,1.6-.4,3.837-.688,6.578-.553,5.556-1.183,13.247-1.546,21.76s-.378,16.227-.3,21.81c.054,2.755.1,5,.13,6.613.014.746.024,1.344.033,1.8a3.424,3.424,0,0,1-.019.629" fill="#263238"/>
            <path id="Path_207107" data-name="Path 207107" d="M374.952,192.645c-.005.084-1.137-.07-2.92.207a12.518,12.518,0,0,0-10.111,8.633c-.554,1.717-.579,2.86-.663,2.851a2.437,2.437,0,0,1-.015-.8,10.615,10.615,0,0,1,.378-2.144,12.159,12.159,0,0,1,10.369-8.852,10.621,10.621,0,0,1,2.176-.037,2.436,2.436,0,0,1,.786.14" fill="#263238"/>
            <path id="Path_207108" data-name="Path 207108" d="M382.961,244.572a11.172,11.172,0,0,0-7.542-3.114,2.636,2.636,0,0,1,1.249-.177,8.094,8.094,0,0,1,5.533,2.284c.555.554.8.975.76,1.007" fill="#263238"/>
            <path id="Path_207109" data-name="Path 207109" d="M366.307,235.474c.012.028-.2.14-.6.319a13.127,13.127,0,0,1-1.726.624,18.858,18.858,0,0,1-11.935-.486,12.982,12.982,0,0,1-1.669-.761c-.379-.211-.581-.339-.567-.366.034-.069.891.352,2.342.832a21.293,21.293,0,0,0,11.748.478c1.485-.361,2.373-.711,2.4-.64" fill="#263238"/>
            <path id="Path_207110" data-name="Path 207110" d="M104.14,439.271H11.519a3.058,3.058,0,0,1-3.058-3.058V283.179a3.058,3.058,0,0,1,3.058-3.058H104.14a3.058,3.058,0,0,1,3.058,3.058V436.213a3.058,3.058,0,0,1-3.058,3.058" fill="#fff"/>
            <path id="Path_207111" data-name="Path 207111" d="M107.2,297.9H8.461V283.729a3.607,3.607,0,0,1,3.607-3.608h91.658a3.472,3.472,0,0,1,3.472,3.472Z" fill="#e0e0e0"/>
            <path id="Path_207112" data-name="Path 207112" d="M103.886,439.271a3.822,3.822,0,0,0,1.273-.283,3.373,3.373,0,0,0,1.264-.964,3.3,3.3,0,0,0,.722-2.046c-.011-3.407-.028-8.415-.048-14.861-.02-12.916-.048-31.588-.083-54.659-.016-23.079-.035-50.556-.056-81.065v-1.432a4.628,4.628,0,0,0-.117-1.36,3.078,3.078,0,0,0-3-2.238H99.467l-11.849,0-24.44.007-51.393.005a3.048,3.048,0,0,0-3.051,2.8c-.026.506-.007,1.084-.013,1.621v6.543q0,6.522,0,12.955,0,12.863,0,25.327c0,16.6-.01,32.621-.015,47.879s-.017,29.755-.024,43.325q0,5.088-.008,10,0,2.455,0,4.864A3.151,3.151,0,0,0,11.125,439a16.92,16.92,0,0,0,2.3.071l2.325,0,4.579,0,8.857.009,54.656.083,14.859.049,3.864.025c.871.009,1.317.027,1.317.027s-.446.018-1.317.027l-3.864.025-14.859.049-54.656.083-8.857.009-4.579,0-2.325,0a16.973,16.973,0,0,1-2.387-.075,3.527,3.527,0,0,1-2.077-1.327,3.612,3.612,0,0,1-.709-2.373q0-2.409,0-4.864,0-4.909-.007-10c-.008-13.57-.016-28.068-.024-43.325s-.01-31.275-.015-47.879q0-12.454,0-25.327,0-6.432,0-12.955,0-3.261,0-6.543c.007-.556-.014-1.073.015-1.663a3.571,3.571,0,0,1,3.57-3.28l51.393.006,24.44.006,11.849,0h4.375a3.56,3.56,0,0,1,3.462,2.593,5.124,5.124,0,0,1,.135,1.49v1.432c-.021,30.509-.04,57.986-.056,81.065-.035,23.071-.063,41.743-.083,54.659-.021,6.446-.038,11.454-.049,14.861a3.346,3.346,0,0,1-2.071,3.06,3.45,3.45,0,0,1-.96.23c-.222.006-.333,0-.333,0" fill="#263238"/>
            <path id="Path_207113" data-name="Path 207113" d="M23.014,290.4a2.913,2.913,0,1,1-2.913-2.913,2.913,2.913,0,0,1,2.913,2.913" fill="#fff"/>
            <path id="Path_207114" data-name="Path 207114" d="M31.976,290.4a2.913,2.913,0,1,1-2.913-2.913,2.913,2.913,0,0,1,2.913,2.913" fill="#fff"/>
            <path id="Path_207115" data-name="Path 207115" d="M40.939,290.4a2.913,2.913,0,1,1-2.913-2.913,2.913,2.913,0,0,1,2.913,2.913" fill="#fff"/>
            <path id="Path_207116" data-name="Path 207116" d="M51.425,322.016H33.242a1.973,1.973,0,1,1,0-3.946H51.425a1.973,1.973,0,1,1,0,3.946" fill="#263238"/>
            <path id="Path_207117" data-name="Path 207117" d="M51.425,332.343H33.242a1.973,1.973,0,1,1,0-3.946H51.425a1.973,1.973,0,1,1,0,3.946" fill="#e0e0e0"/>
            <path id="Path_207118" data-name="Path 207118" d="M51.945,360.63H33.762a1.973,1.973,0,0,1,0-3.946H51.945a1.973,1.973,0,0,1,0,3.946" fill="#e0e0e0"/>
            <path id="Path_207119" data-name="Path 207119" d="M51.425,343.015H33.242a1.973,1.973,0,0,1,0-3.946H51.425a1.973,1.973,0,0,1,0,3.946" fill="#ffb30b"/>
            <path id="Path_207120" data-name="Path 207120" d="M51.425,402.527H33.242a1.973,1.973,0,0,1,0-3.946H51.425a1.973,1.973,0,0,1,0,3.946" fill="#ffb30b"/>
            <path id="Path_207121" data-name="Path 207121" d="M80.556,322.016H62.373a1.973,1.973,0,1,1,0-3.946H80.556a1.973,1.973,0,1,1,0,3.946" fill="#455a64"/>
            <path id="Path_207122" data-name="Path 207122" d="M100.245,332.343H62.2a1.981,1.981,0,0,1,0-3.946h38.042a1.981,1.981,0,0,1,0,3.946" fill="#263238"/>
            <path id="Path_207123" data-name="Path 207123" d="M99.222,343.015H60.917a1.977,1.977,0,0,1,0-3.946H99.222a1.977,1.977,0,0,1,0,3.946" fill="#e0e0e0"/>
            <path id="Path_207124" data-name="Path 207124" d="M71.551,351.646h-38.3a1.977,1.977,0,0,1,0-3.946h38.3a1.977,1.977,0,0,1,0,3.946" fill="#e0e0e0"/>
            <path id="Path_207125" data-name="Path 207125" d="M24.328,320.043a2,2,0,1,1-2-2,2,2,0,0,1,2,2" fill="#455a64"/>
            <path id="Path_207126" data-name="Path 207126" d="M24.328,310.161a2,2,0,1,1-2-2,2,2,0,0,1,2,2" fill="#455a64"/>
            <path id="Path_207127" data-name="Path 207127" d="M24.328,330.339a2,2,0,1,1-2-2,2,2,0,0,1,2,2" fill="#455a64"/>
            <path id="Path_207128" data-name="Path 207128" d="M24.328,341.043a2,2,0,1,1-2-2,2,2,0,0,1,2,2" fill="#455a64"/>
            <path id="Path_207129" data-name="Path 207129" d="M51.945,389.512H33.762a1.973,1.973,0,1,1,0-3.946H51.945a1.973,1.973,0,1,1,0,3.946" fill="#e0e0e0"/>
            <path id="Path_207130" data-name="Path 207130" d="M51.425,371.9H33.242a1.973,1.973,0,0,1,0-3.946H51.425a1.973,1.973,0,0,1,0,3.946" fill="#ffb30b"/>
            <path id="Path_207131" data-name="Path 207131" d="M99.222,371.9H60.917a1.977,1.977,0,0,1,0-3.946H99.222a1.977,1.977,0,0,1,0,3.946" fill="#e0e0e0"/>
            <path id="Path_207132" data-name="Path 207132" d="M71.551,380.527h-38.3a1.977,1.977,0,0,1,0-3.946h38.3a1.977,1.977,0,0,1,0,3.946" fill="#e0e0e0"/>
            <path id="Path_207133" data-name="Path 207133" d="M24.328,369.924a2,2,0,1,1-2-2,2,2,0,0,1,2,2" fill="#455a64"/>
            <path id="Path_207134" data-name="Path 207134" d="M43.718,312.544H32.335a.958.958,0,0,1-.959-.958V309.7a.958.958,0,0,1,.959-.958H43.718a.958.958,0,0,1,.958.958v1.89a.958.958,0,0,1-.958.958" fill="#455a64"/>
            <path id="Path_207135" data-name="Path 207135" d="M51.425,413.043H33.242a1.973,1.973,0,0,1,0-3.946H51.425a1.973,1.973,0,0,1,0,3.946" fill="#263238"/>
            <path id="Path_207136" data-name="Path 207136" d="M80.556,413.043H62.373a1.973,1.973,0,0,1,0-3.946H80.556a1.973,1.973,0,0,1,0,3.946" fill="#455a64"/>
            <path id="Path_207137" data-name="Path 207137" d="M24.328,411.07a2,2,0,1,1-2-2,2,2,0,0,1,2,2" fill="#455a64"/>
            <path id="Path_207138" data-name="Path 207138" d="M24.328,420.574a2,2,0,1,1-2-2,2,2,0,0,1,2,2" fill="#455a64"/>
            <path id="Path_207139" data-name="Path 207139" d="M43.718,422.956H32.335a.958.958,0,0,1-.959-.958v-1.89a.958.958,0,0,1,.959-.958H43.718a.958.958,0,0,1,.958.958V422a.958.958,0,0,1-.958.958" fill="#455a64"/>
            <path id="Path_207140" data-name="Path 207140" d="M463.35,425.289H327.725a3.169,3.169,0,0,1-3.169-3.169V352.974a3.169,3.169,0,0,1,3.169-3.169H463.97a3.169,3.169,0,0,1,3.169,3.169V421.5a3.789,3.789,0,0,1-3.789,3.789" fill="#fff"/>
            <path id="Path_207141" data-name="Path 207141" d="M467.139,366.014H324.556V353.277a3.473,3.473,0,0,1,3.473-3.473H463.666a3.473,3.473,0,0,1,3.473,3.473Z" fill="#e0e0e0"/>
            <path id="Path_207142" data-name="Path 207142" d="M463.127,425.289a5.854,5.854,0,0,0,1.088-.181,4.013,4.013,0,0,0,2.419-2,4.38,4.38,0,0,0,.439-2.3q0-1.326-.012-2.9c-.007-2.1-.015-4.51-.024-7.227-.019-10.886-.048-26.618-.083-46.056q0-3.646-.008-7.463,0-1.91,0-3.858a3.044,3.044,0,0,0-1.733-3.026,3.866,3.866,0,0,0-1.872-.278l-2.02,0-4.1,0-8.425.007-36.5.024-83.64.021a5.384,5.384,0,0,0-1.322.091,3.263,3.263,0,0,0-2.468,2.66,9.524,9.524,0,0,0-.045,1.338v4.131q0,5.5,0,10.916,0,10.838,0,21.341t-.006,20.6q0,5.047,0,9.987a3.793,3.793,0,0,0,2.353,3.644,5.53,5.53,0,0,0,2.3.278h2.418l68.312.056,46.053.083,12.521.048,3.257.026c.733.009,1.109.027,1.109.027s-.376.018-1.109.027l-3.257.025-12.521.049-46.053.083-68.312.056h-2.418a6,6,0,0,1-2.486-.311,4.284,4.284,0,0,1-2.66-4.093q0-4.938,0-9.987,0-10.1-.007-20.6t0-21.341q0-5.419,0-10.916v-4.131a10.005,10.005,0,0,1,.051-1.42,3.788,3.788,0,0,1,2.863-3.085,5.932,5.932,0,0,1,1.442-.1l83.64.021,36.5.024,8.425.007,4.1,0,2.02,0a4.273,4.273,0,0,1,2.041.318,3.448,3.448,0,0,1,1.957,3.391q0,1.948,0,3.858,0,3.816-.008,7.463c-.035,19.438-.064,35.17-.083,46.056-.009,2.717-.017,5.132-.024,7.227q-.006,1.569-.012,2.9a6.392,6.392,0,0,1-.087,1.269,4.294,4.294,0,0,1-.391,1.081,4.032,4.032,0,0,1-2.5,2,3.3,3.3,0,0,1-1.1.13" fill="#263238"/>
            <path id="Path_207143" data-name="Path 207143" d="M337.822,359.173a2.655,2.655,0,1,1-2.655-2.655,2.655,2.655,0,0,1,2.655,2.655" fill="#fff"/>
            <path id="Path_207144" data-name="Path 207144" d="M345.992,359.173a2.655,2.655,0,1,1-2.655-2.655,2.655,2.655,0,0,1,2.655,2.655" fill="#fff"/>
            <path id="Path_207145" data-name="Path 207145" d="M354.161,359.173a2.655,2.655,0,1,1-2.655-2.655,2.655,2.655,0,0,1,2.655,2.655" fill="#fff"/>
            <path id="Path_207146" data-name="Path 207146" d="M365.64,388.857H349.065a1.8,1.8,0,0,1,0-3.6H365.64a1.8,1.8,0,0,1,0,3.6" fill="#263238"/>
            <path id="Path_207147" data-name="Path 207147" d="M365.64,398.271H349.065a1.8,1.8,0,0,1,0-3.6H365.64a1.8,1.8,0,0,1,0,3.6" fill="#e0e0e0"/>
            <path id="Path_207148" data-name="Path 207148" d="M453.137,388.857H405.061a1.8,1.8,0,0,1,0-3.6h48.076a1.8,1.8,0,0,1,0,3.6" fill="#e0e0e0"/>
            <path id="Path_207149" data-name="Path 207149" d="M365.64,408H349.065a1.8,1.8,0,0,1,0-3.6H365.64a1.8,1.8,0,0,1,0,3.6" fill="#ffb30b"/>
            <path id="Path_207150" data-name="Path 207150" d="M441.668,398.271H425.093a1.8,1.8,0,0,1,0-3.6h16.575a1.8,1.8,0,0,1,0,3.6" fill="#ffb30b"/>
            <path id="Path_207151" data-name="Path 207151" d="M392.2,388.857H375.62a1.8,1.8,0,1,1,0-3.6H392.2a1.8,1.8,0,0,1,0,3.6" fill="#455a64"/>
            <path id="Path_207152" data-name="Path 207152" d="M413.551,398.271H375.619a1.8,1.8,0,0,1,0-3.6h37.932a1.8,1.8,0,0,1,0,3.6" fill="#263238"/>
            <path id="Path_207153" data-name="Path 207153" d="M450.757,408H375.539a1.8,1.8,0,0,1,0-3.6h75.218a1.8,1.8,0,0,1,0,3.6" fill="#e0e0e0"/>
            <path id="Path_207154" data-name="Path 207154" d="M412.761,414.851H375.62a1.8,1.8,0,1,1,0-3.6h37.141a1.8,1.8,0,0,1,0,3.6" fill="#e0e0e0"/>
            <path id="Path_207155" data-name="Path 207155" d="M340.94,387.059a1.827,1.827,0,1,1-1.827-1.827,1.827,1.827,0,0,1,1.827,1.827" fill="#455a64"/>
            <path id="Path_207156" data-name="Path 207156" d="M340.94,378.051a1.827,1.827,0,1,1-1.827-1.827,1.827,1.827,0,0,1,1.827,1.827" fill="#455a64"/>
            <path id="Path_207157" data-name="Path 207157" d="M340.94,396.444a1.827,1.827,0,1,1-1.827-1.827,1.827,1.827,0,0,1,1.827,1.827" fill="#455a64"/>
            <path id="Path_207158" data-name="Path 207158" d="M340.94,406.2a1.827,1.827,0,1,1-1.827-1.827,1.827,1.827,0,0,1,1.827,1.827" fill="#455a64"/>
            <path id="Path_207159" data-name="Path 207159" d="M358.809,379.359H348.6a.958.958,0,0,1-.958-.958v-1.553a.958.958,0,0,1,.958-.958h10.207a.958.958,0,0,1,.958.958V378.4a.958.958,0,0,1-.958.958" fill="#455a64"/>
            <path id="Path_207160" data-name="Path 207160" d="M182.881,260.955a39.768,39.768,0,1,1-39.767-40.036,39.9,39.9,0,0,1,39.767,40.036" fill="#ffb30b"/>
            <g id="Group_147943" data-name="Group 147943" opacity="0.3">
              <g id="Group_147942" data-name="Group 147942">
                <g id="Group_147941" data-name="Group 147941" clip-path="url(#clip-path-5)">
                  <path id="Path_207161" data-name="Path 207161" d="M128.387,278.8c.208-1.743,1.567-3.511.786-5.083-.874-1.756-3.422-1.473-5.215-2.259-2.5-1.1-3.278-4.209-4.914-6.405-1.466-1.963-4.888-4.121-7.493-3.529a3.175,3.175,0,0,0-2.73,2.938l-.239-.038c-.7-.076-1.517-.113-1.9-.692-.447-.673-.007-1.674-.466-2.334a3.678,3.678,0,0,0-.994-.743c-.34-.239-.629-.692-.422-1.057.17-.308.611-.371.831-.654a.641.641,0,0,0-.013-.786c-.717-.85-1.516.881-1.912,1.29a3.548,3.548,0,0,1-.321.3v.007c-.006.075-.013.144-.013.22-.009.236-.008.477-.012.717s-.013.478-.013.717c0,.195.006.388.01.582s0,.39.009.582a6.812,6.812,0,0,1,1.227.6c.774.447,1.636,1.038,1.686,1.932a.735.735,0,0,0,.082.421.6.6,0,0,0,.371.189,10.911,10.911,0,0,0,2.019.283c.013.8.07,1.636.057,2.429a27.487,27.487,0,0,0-.27,3.429c.182,1.61,1.3,2.931,2.277,4.227,3.712,4.958,5.712,10.644,7.883,16.47.4.32.977.748,1.392,1.044.327.236.629.442.963.667s.634.418.977.632c.239.151.291.193.537.338-.032-.069.028.049,0-.02-.874-1.919-.876-4.579,1-5.529a4.282,4.282,0,0,0,1.063-.56c.837-.792.151-2.428.988-3.221.472-.44,1.208-.409,1.793-.673a2.955,2.955,0,0,0,1.308-2.988,18.316,18.316,0,0,1-.333-3.448"/>
                </g>
              </g>
            </g>
            <g id="Group_147946" data-name="Group 147946" opacity="0.3">
              <g id="Group_147945" data-name="Group 147945">
                <g id="Group_147944" data-name="Group 147944" clip-path="url(#clip-path-6)">
                  <path id="Path_207162" data-name="Path 207162" d="M105.816,249.5a1.839,1.839,0,0,1,2.6.082,2.74,2.74,0,0,1,.208,2.032c-.145.931-.289,1.862-.44,2.793a1.46,1.46,0,0,0,.037.837c.277.591,1.246.478,1.617-.05a2.576,2.576,0,0,0,.233-1.894,3.583,3.583,0,0,1,.019-1.931c.629-1.5,2.863-1.271,4.159-2.246a7.052,7.052,0,0,0,1.642-2.5,2.775,2.775,0,0,1,2.283-1.731c.34.013.674.139,1.013.126a1.355,1.355,0,0,0,.869-2.189,2.516,2.516,0,0,1-.441-.453.826.826,0,0,1,.315-.988,2.36,2.36,0,0,1,1.057-.34c.849-.138,1.7-.27,2.548-.4.937-.145,2.139-.629,2.007-1.567-.114-.811-1.215-1.176-1.378-1.982a2.645,2.645,0,0,0-.107-.591c-.258-.516-1.032-.308-1.529-.032a1.23,1.23,0,0,0-1.869-.6,3.278,3.278,0,0,0-.742,1.768,8.546,8.546,0,0,1-2.762,3.718,2.3,2.3,0,0,1-1.34.755c-.522.025-1.069-.535-.83-.994.163-.315.616-.5.572-.85-.063-.44-.83-.408-.981-.83.3-1.246,1.73-1.762,2.825-2.429a6.839,6.839,0,0,0,2.887-3.548.9.9,0,0,0,.038-.73c-.164-.314-.585-.365-.944-.365-.843-.012-1.893.1-2.2.888a9.359,9.359,0,0,0-.144,1.34c-.3,1.308-2.089,1.453-3.184,2.233a9.878,9.878,0,0,1-1.233.956,4.634,4.634,0,0,1-1.673.271c-.1.006-.358,0-.459.01-.346.481-.618.919-.939,1.418s-.644,1.056-.943,1.569a39.323,39.323,0,0,0-3.379,7.717c-.309.94-.574,1.954-.81,2.925s-.4,1.891-.567,2.888a11.2,11.2,0,0,0,.717-2.5,4.593,4.593,0,0,1,1.252-2.579"/>
                </g>
              </g>
            </g>
            <g id="Group_147949" data-name="Group 147949" opacity="0.3">
              <g id="Group_147948" data-name="Group 147948">
                <g id="Group_147947" data-name="Group 147947" clip-path="url(#clip-path-7)">
                  <path id="Path_207163" data-name="Path 207163" d="M139.233,231.509c.376-.493.266-1.2.51-1.772.4-.947,1.662-1.285,2.1-2.218.167-.359.209-.8.5-1.064.244-.222.606-.267.868-.468a1.212,1.212,0,0,0-.279-1.867c-1.56-1-4.43.155-5.777,1.13-1.732,1.253-3.427,2.762-5.732,2.615a4.527,4.527,0,0,0-1.891.01c-.6.226-.962,1.118-.45,1.5.286.21.69.151,1.011.3a1.283,1.283,0,0,1,.364,1.722c-.29.587-.813,1.026-1.155,1.584a3,3,0,0,0-.428,1.822,1.663,1.663,0,0,0,.539,1.17c.717.572,1.808.082,2.415-.606a8.956,8.956,0,0,1,1.814-2.047,4.517,4.517,0,0,1,1.292-.45l3.005-.715a2.172,2.172,0,0,0,1.293-.642"/>
                </g>
              </g>
            </g>
            <g id="Group_147952" data-name="Group 147952" opacity="0.3">
              <g id="Group_147951" data-name="Group 147951">
                <g id="Group_147950" data-name="Group 147950" clip-path="url(#clip-path-8)">
                  <path id="Path_207164" data-name="Path 207164" d="M182.873,260.651c0-.573-.02-1.14-.051-1.7s-.053-1.138-.109-1.7c-.044-.453-.084-.906-.146-1.352-.062-.472-.124-1.015-.2-1.482a36.164,36.164,0,0,0-.875-4c-.148-.519-.4-1.072-.567-1.583s-.345-1.017-.534-1.52v-.006c-.2-.378-.415-.749-.648-1.114-2.208-3.5-5.417-6.241-7.846-9.588-.792-1.088-1.409-1.988-2.812-2.2-2.076-.321-3.127.862-4.6-1.107-.4-.529-1.088-1.019-1.673-.705.151.422.308.843.459,1.271a.6.6,0,0,1,.05.277c-.031.3-.472.377-.723.214a2.573,2.573,0,0,1-.554-.711,2.036,2.036,0,0,0-2.988-.246,1.147,1.147,0,0,0-.661-.931,1.364,1.364,0,0,1-1.711,1.1c-.12-.383.566-.453.8-.78.22-.308-.044-.736-.327-.994a4.37,4.37,0,0,0-2.737-1.063,3.757,3.757,0,0,1-1.875-.22c-.321-.189-.547-.5-.874-.686a2.428,2.428,0,0,0-2.278.359,4.449,4.449,0,0,0-2.3,2.258c-.346,1.045.415,2.46,1.51,2.328a2.12,2.12,0,0,1,.837-.094,1.013,1.013,0,0,1,.6.962,2.849,2.849,0,0,0,.183,1.177c.188.352.761.528.981.195a2.185,2.185,0,0,0,.321-2.014,2.68,2.68,0,0,1,.145-2.057c.421-.572,1.617-.39,1.535.315-.05.415-.522.717-.5,1.139s.542.654.969.635a4.6,4.6,0,0,1,1.278-.063c.421.1.755.648.453.956-.523.592-1.882-.421-2.152.315-.076.189,0,.4-.019.6-.05.616-.824.843-1.441.918a3.385,3.385,0,0,1-1.831-.132,1.162,1.162,0,0,1-.622-1.528.7.7,0,0,0-.963.352,2.018,2.018,0,0,0-.069,1.145c-.654-.145-1.24.409-1.611.956s-.736,1.2-1.371,1.391-1.523-.07-1.856.509c-.434.755.824,1.711.383,2.46-.251.422-.855.409-1.333.541a2.058,2.058,0,0,0-.843,3.2,2.474,2.474,0,0,0,3.5-.012,11.194,11.194,0,0,0,1.352-2.341,2.131,2.131,0,0,1,2.2-1.227,2.658,2.658,0,0,1,.9.567c.421.352.843.7,1.264,1.063.271.226.567.509.541.862-.025.283-.245.5-.339.767-.264.762.836,1.485,1.528,1.07a1.519,1.519,0,0,0,.3-2.133c-.654-.906-2.133-1.359-2.1-2.479.755-.616,1.944.032,2.385.906s.453,1.9.824,2.8,1.409,1.705,2.277,1.265c-.226-.781-.446-1.554-.673-2.328.554-.416,1.189.792,1.85.591.4-.126.453-.705.277-1.1a5.438,5.438,0,0,1-.56-1.138,1.3,1.3,0,0,1,1.5-1.328,1.969,1.969,0,0,1,1.473,1.623,3.575,3.575,0,0,0,.2.9c.289.6,1.038.786,1.654,1.038s1.265.875,1.007,1.491c-.119.271-.4.529-.3.806.1.245.459.352.459.616-.006.176-.188.3-.352.365-.415.17-.868.226-1.271.421a1.149,1.149,0,0,0-.736,1.02c.05.629.8.931,1.151,1.453a7.691,7.691,0,0,1,.5,1.724,6.169,6.169,0,0,0,.95,1.378c1.044,1.422,1.29,3.252,1.8,4.938.227.762.642,1.611,1.422,1.756a2.387,2.387,0,0,0,1.258-.246A7.571,7.571,0,0,0,171,259.9a2.593,2.593,0,0,0,.245-3.309.638.638,0,0,0-.383-.245,1.153,1.153,0,0,0-.592.207,1.684,1.684,0,0,1-1.755-.377,4.949,4.949,0,0,1-1.044-1.567c-.309-.623-.617-1.252-.932-1.881a1.1,1.1,0,0,1,1.347.126,7.312,7.312,0,0,1,.918,1.132,5.861,5.861,0,0,0,3.97,1.863,3.783,3.783,0,0,1,1.12.232c1.114.51,1.435,2.152,2.611,2.5a7.447,7.447,0,0,1,1,.227,1.839,1.839,0,0,1,.837,1.246,19.877,19.877,0,0,0,.736,2.78,2.571,2.571,0,0,0,2.127,1.693,2.212,2.212,0,0,0,1.573-.687c.05-.868.107-1.767.107-2.648,0-.182,0-.365-.013-.547"/>
                </g>
              </g>
            </g>
            <g id="Group_147955" data-name="Group 147955" opacity="0.3">
              <g id="Group_147954" data-name="Group 147954">
                <g id="Group_147953" data-name="Group 147953" clip-path="url(#clip-path-9)">
                  <path id="Path_207165" data-name="Path 207165" d="M166.782,277.153c-.592.117-.71.465-1.032.9-.419.571-1.019,1.143-1.4,1.706-.646.955-.064,2.446-.915,3.249a7.114,7.114,0,0,0-.553.452,1,1,0,0,0,.2,1.389,1.364,1.364,0,0,0,1.482.026,2.171,2.171,0,0,0,.908-1.24,2.08,2.08,0,0,1,.459-1.016c.487-.426,1.244-.11,1.884-.2,2.727-.382,1.555-5.78-1.036-5.27"/>
                </g>
              </g>
            </g>
            <g id="Group_147958" data-name="Group 147958" opacity="0.3">
              <g id="Group_147957" data-name="Group 147957">
                <g id="Group_147956" data-name="Group 147956" clip-path="url(#clip-path-10)">
                  <path id="Path_207166" data-name="Path 207166" d="M167.705,269.647c1.569-1.358,2.2-4.426.253-5.135-.737-.269-1.587-.052-2.319-.336a3.651,3.651,0,0,1-1.746-2.406q-1.359-3.8-2.717-7.593c-.546-1.525-1.374-3.292-2.978-3.516a8.705,8.705,0,0,0-2.692.47c-3.107.565-8.333-6.953-10.7-1.892-.331-1.376-2.566-.86-3.28.362s-.865,2.84-2,3.689c-.864.647-2.13.685-2.836,1.5a3.644,3.644,0,0,0-.644,2.143l-.36,4.339a5.932,5.932,0,0,0,.4,3.432c.577,1.018,2.087,1.584,2.951.8a8.9,8.9,0,0,0,.89-1.342,2.257,2.257,0,0,1,2.321-.8,3.928,3.928,0,0,1,1.767,1.244c4.045,4.355,5.493,10.555,5.671,16.5a9.455,9.455,0,0,0,.434,3.216c.469,1.186,1.457,2.144,1.748,3.385.223.953.013,2,.422,2.891.753,1.638,3.268,1.708,4.637.534s1.844-3.066,2.121-4.848.457-3.659,1.454-5.161a17.856,17.856,0,0,0,1.962-2.709c.6-1.441.156-3.15.718-4.609.746-1.936,2.948-2.793,4.517-4.15"/>
                </g>
              </g>
            </g>
            <path id="Path_207167" data-name="Path 207167" d="M182.836,260.994s-.014-.219-.029-.647-.011-1.065-.084-1.9a40.843,40.843,0,0,0-1.125-7.2,39.766,39.766,0,0,0-1.617-5.013,38.57,38.57,0,0,0-2.748-5.626,40.335,40.335,0,0,0-10.048-11.379,39.356,39.356,0,0,0-16.72-7.514,39.934,39.934,0,0,0-15.59.185,42.156,42.156,0,0,0-5.314,1.535,39.737,39.737,0,0,0-18.405,13.985,38.927,38.927,0,0,0-3.212,5.24c-.486.913-.9,1.867-1.32,2.819-.382.97-.771,1.941-1.085,2.944a39.48,39.48,0,0,0-1.5,6.158,40.216,40.216,0,0,0,0,12.806,39.628,39.628,0,0,0,1.5,6.161c.314,1,.7,1.974,1.085,2.944.423.953.834,1.907,1.32,2.821a38.84,38.84,0,0,0,3.213,5.241,39.728,39.728,0,0,0,18.407,13.989,42.175,42.175,0,0,0,5.315,1.535,39.862,39.862,0,0,0,15.591.184,39.357,39.357,0,0,0,16.72-7.514,40.318,40.318,0,0,0,10.047-11.381,38.4,38.4,0,0,0,2.747-5.625,39.644,39.644,0,0,0,1.617-5.012,40.848,40.848,0,0,0,1.125-7.2c.073-.832.058-1.469.084-1.9s.029-.647.029-.647,0,.219,0,.647.006,1.066-.06,1.9a39.516,39.516,0,0,1-2.68,12.251,38.476,38.476,0,0,1-2.737,5.653,40.4,40.4,0,0,1-10.06,11.449,39.487,39.487,0,0,1-16.79,7.579,40.047,40.047,0,0,1-15.677-.168,42.32,42.32,0,0,1-5.348-1.538A39.952,39.952,0,0,1,110.954,284.7a39.1,39.1,0,0,1-3.234-5.273c-.489-.919-.9-1.879-1.329-2.838-.384-.976-.776-1.953-1.092-2.962a39.781,39.781,0,0,1-1.506-6.2,40.483,40.483,0,0,1,0-12.886,39.716,39.716,0,0,1,1.506-6.2c.316-1.009.709-1.986,1.093-2.962.426-.958.84-1.918,1.329-2.837a39.025,39.025,0,0,1,3.234-5.27,39.951,39.951,0,0,1,18.524-14.059,42.306,42.306,0,0,1,5.347-1.538,40.055,40.055,0,0,1,15.675-.169,39.514,39.514,0,0,1,16.791,7.578,40.385,40.385,0,0,1,10.06,11.449,38.494,38.494,0,0,1,2.738,5.654,39.471,39.471,0,0,1,2.681,12.252c.066.833.042,1.471.06,1.9s0,.647,0,.647" fill="#263238"/>
            <path id="Path_207168" data-name="Path 207168" d="M144.638,301.069c-.069,0-.126-17.773-.126-39.692s.057-39.7.126-39.7.126,17.769.126,39.7-.057,39.692-.126,39.692" fill="#263238"/>
            <path id="Path_207169" data-name="Path 207169" d="M146.912,300.853s.064-.053.2-.144l.59-.4c.526-.341,1.273-.888,2.215-1.615a43.316,43.316,0,0,0,7.089-7.13,46.7,46.7,0,0,0,7.237-12.994,56.647,56.647,0,0,0,3.2-17.93,63.777,63.777,0,0,0-2.031-18.123,36.747,36.747,0,0,0-6.675-13.24,23.349,23.349,0,0,0-4.095-3.989,22.273,22.273,0,0,0-3.689-2.253A25.082,25.082,0,0,0,148.415,222l-.675-.23c-.152-.053-.228-.086-.228-.086s.081.017.235.062l.684.206a22.245,22.245,0,0,1,2.56,1,21.8,21.8,0,0,1,3.732,2.229,23.2,23.2,0,0,1,4.148,3.989,36.693,36.693,0,0,1,6.761,13.289,63.512,63.512,0,0,1,2.059,18.193,56.527,56.527,0,0,1-3.234,18,46.5,46.5,0,0,1-7.316,13.026,42.318,42.318,0,0,1-7.168,7.1c-.954.716-1.711,1.251-2.247,1.579l-.6.381c-.137.085-.21.123-.21.123" fill="#263238"/>
            <path id="Path_207170" data-name="Path 207170" d="M143.263,300.991s-.075-.039-.214-.125l-.616-.387c-.547-.334-1.321-.874-2.3-1.6a49.426,49.426,0,0,1-11.749-12.732,37.459,37.459,0,0,1-3.651-7.3,52.161,52.161,0,0,1-2.391-8.694,65.664,65.664,0,0,1,1.172-28.157,37.833,37.833,0,0,1,3.068-7.561,25.991,25.991,0,0,1,4.175-5.75,26.356,26.356,0,0,1,8.438-5.812,27.112,27.112,0,0,1,2.623-.976l.7-.208c.158-.045.24-.062.24-.062s-.078.034-.232.087l-.69.231c-.6.2-1.49.529-2.6,1.017a26.686,26.686,0,0,0-8.349,5.846,25.963,25.963,0,0,0-4.12,5.726,37.971,37.971,0,0,0-3.029,7.526,63.247,63.247,0,0,0-2.118,18.456,62.494,62.494,0,0,0,.967,9.593,52.22,52.22,0,0,0,2.365,8.658,37.394,37.394,0,0,0,3.61,7.264,49.584,49.584,0,0,0,4.21,5.694,50.313,50.313,0,0,0,7.422,7.073c.968.73,1.732,1.283,2.268,1.63l.6.408c.135.093.2.146.2.146" fill="#263238"/>
            <path id="Path_207171" data-name="Path 207171" d="M182.886,260.292c0,.069-17.7.126-39.517.126s-39.521-.057-39.521-.126,17.691-.126,39.521-.126,39.517.057,39.517.126" fill="#263238"/>
            <path id="Path_207172" data-name="Path 207172" d="M176.8,239.9c0,.069-15.1.126-33.712.126s-33.716-.057-33.716-.126,15.092-.126,33.716-.126,33.712.057,33.712.126" fill="#263238"/>
            <path id="Path_207173" data-name="Path 207173" d="M177.237,281.073c0,.069-15.439.126-34.48.126s-34.484-.057-34.484-.126,15.436-.126,34.484-.126,34.48.057,34.48.126" fill="#263238"/>
            <path id="Path_207174" data-name="Path 207174" d="M167.614,275.209H117.9a12.751,12.751,0,1,1,0-25.5h49.717a12.751,12.751,0,0,1,0,25.5" fill="#fff"/>
            <path id="Path_207175" data-name="Path 207175" d="M167.614,275.209s.157-.017.462-.036a10.34,10.34,0,0,0,1.351-.133,12.417,12.417,0,0,0,4.856-1.786,13.38,13.38,0,0,0,1.454-1.042l.712-.65c.246-.219.453-.487.689-.736a12.727,12.727,0,0,0,1.637-14.346,12.964,12.964,0,0,0-4.241-4.608,12.157,12.157,0,0,0-1.454-.81,12.459,12.459,0,0,0-1.573-.636,12.6,12.6,0,0,0-3.427-.59c-4.767-.043-9.876-.005-15.243-.012l-34.936.01a12.566,12.566,0,0,0-12.472,10.718,12.538,12.538,0,0,0,.069,4.279,12.936,12.936,0,0,0,1.466,3.933,12.765,12.765,0,0,0,6.005,5.332,13.52,13.52,0,0,0,3.81.943c1.289.1,2.59.044,3.859.059l7.4.007,13.284.015,19.237.04,5.23.024,1.36.012c.306,0,.463.013.463.013s-.157.009-.463.013l-1.36.012-5.23.024-19.237.04-13.284.015-7.4.006c-1.274-.014-2.556.043-3.879-.054a13.768,13.768,0,0,1-3.88-.956,12.993,12.993,0,0,1-6.123-5.425,13.174,13.174,0,0,1-1.5-4.008,12.788,12.788,0,0,1-.074-4.361A12.882,12.882,0,0,1,117.9,249.582l34.936.01c5.371.014,10.468-.016,15.25.036a12.3,12.3,0,0,1,5.079,1.256,12.441,12.441,0,0,1,1.474.826,13.135,13.135,0,0,1,4.291,4.686,12.993,12.993,0,0,1,1.489,5.585,12.742,12.742,0,0,1-3.192,8.924c-.239.251-.45.52-.7.739l-.721.652a13.579,13.579,0,0,1-1.472,1.041,12.3,12.3,0,0,1-4.9,1.753,9.254,9.254,0,0,1-1.357.108c-.306.012-.463.011-.463.011" fill="#263238"/>
            <path id="Path_207176" data-name="Path 207176" d="M134.977,256.271l-3.931,11.038H127.3l-2.078-6.008-2.158,6.008h-3.748l-3.93-11.038h3.666l2.26,6.68,2.342-6.68h3.3l2.281,6.741,2.342-6.741Z" fill="#263238"/>
            <path id="Path_207177" data-name="Path 207177" d="M154.1,256.271l-3.93,11.038h-3.747l-2.078-6.008-2.158,6.008h-3.747l-3.931-11.038h3.666l2.26,6.68,2.342-6.68h3.3l2.281,6.741,2.342-6.741Z" fill="#263238"/>
            <path id="Path_207178" data-name="Path 207178" d="M173.221,256.271l-3.93,11.038h-3.748l-2.077-6.008-2.158,6.008h-3.747l-3.931-11.038H157.3l2.26,6.68,2.342-6.68h3.3l2.281,6.741,2.342-6.741Z" fill="#263238"/>
            <path id="Path_207179" data-name="Path 207179" d="M122.32,287.021l-17.235,5.016a.926.926,0,0,0-.385,1.555l11.76,11.361a.926.926,0,0,0,1.522-.372l5.475-16.377a.926.926,0,0,0-1.137-1.183" fill="#263238"/>
            <path id="Path_207180" data-name="Path 207180" d="M98.434,305.7l12.147-11.285,4.838,4.7L103.331,310.7Z" fill="#263238"/>
          </g>
        </g>
      </g>
    </g>
    <rect id="Rectangle_297687" data-name="Rectangle 297687" width="505" height="480" transform="translate(180 3129)" fill="none"/>
  </g>
</svg>
