<svg id="_8" data-name="8" xmlns="http://www.w3.org/2000/svg" width="166.909" height="166.405" viewBox="0 0 166.909 166.405">
  <g id="Group_133168" data-name="Group 133168" transform="translate(127.5 1.906)" opacity="0.36">
    <g id="Group_132229" data-name="Group 132229" transform="translate(0)">
      <g id="Group_132228" data-name="Group 132228">
        <g id="Group_132227" data-name="Group 132227">
          <g id="Group_132226" data-name="Group 132226">
            <g id="Group_132225" data-name="Group 132225">
              <path id="Path_192217" data-name="Path 192217" d="M-888.292,1497.8a13.7,13.7,0,0,1,2.774-2.368l-.309-3.367,5.32-1.729,1.73,2.906a13.682,13.682,0,0,1,3.636.285l2.161-2.6,4.985,2.54-.831,3.276a13.7,13.7,0,0,1,2.368,2.774l3.367-.309,1.729,5.32-2.905,1.73a13.723,13.723,0,0,1-.285,3.636l2.6,2.162-2.539,4.985-3.276-.831a13.69,13.69,0,0,1-2.774,2.368l.309,3.367-5.32,1.729-1.73-2.906a13.7,13.7,0,0,1-3.636-.285l-2.162,2.6-4.984-2.539.831-3.276a13.678,13.678,0,0,1-2.368-2.774l-3.367.309-1.729-5.32,2.905-1.73a13.719,13.719,0,0,1,.285-3.635l-2.6-2.162,2.539-4.985,3.276.831Zm5.03,6.254a6,6,0,0,0,2.624,8.071,6,6,0,0,0,8.071-2.623,6,6,0,0,0-2.623-8.072A6,6,0,0,0-883.262,1504.051Z" transform="translate(894.699 -1490.333)" fill="#d8d8d8"/>
            </g>
          </g>
        </g>
      </g>
    </g>
  </g>
  <g id="Group_133169" data-name="Group 133169" transform="translate(146.452 38.924)" opacity="0.36">
    <g id="Group_132229-2" data-name="Group 132229" transform="translate(0)">
      <g id="Group_132228-2" data-name="Group 132228">
        <g id="Group_132227-2" data-name="Group 132227">
          <g id="Group_132226-2" data-name="Group 132226">
            <g id="Group_132225-2" data-name="Group 132225">
              <path id="Path_192217-2" data-name="Path 192217" d="M-890.768,1494.913a8.4,8.4,0,0,1,1.7-1.453l-.19-2.066,3.265-1.061,1.061,1.783a8.4,8.4,0,0,1,2.231.175l1.326-1.595,3.059,1.559-.51,2.01a8.407,8.407,0,0,1,1.453,1.7l2.066-.189,1.061,3.264-1.783,1.062a8.419,8.419,0,0,1-.175,2.231l1.594,1.326-1.558,3.059-2.01-.51a8.406,8.406,0,0,1-1.7,1.453l.189,2.066-3.265,1.061-1.061-1.783a8.4,8.4,0,0,1-2.231-.175l-1.327,1.594-3.058-1.558.51-2.01a8.393,8.393,0,0,1-1.453-1.7l-2.066.19-1.061-3.265,1.783-1.062a8.418,8.418,0,0,1,.175-2.231l-1.594-1.327,1.558-3.059,2.01.51Zm3.086,3.837a3.682,3.682,0,0,0,1.61,4.952,3.682,3.682,0,0,0,4.952-1.61,3.683,3.683,0,0,0-1.61-4.953A3.683,3.683,0,0,0-887.681,1498.751Z" transform="translate(894.699 -1490.333)" fill="#d8d8d8"/>
            </g>
          </g>
        </g>
      </g>
    </g>
  </g>
  <g id="Group_133170" data-name="Group 133170" transform="translate(127.286 81.703)" opacity="0.36">
    <g id="Group_132229-3" data-name="Group 132229" transform="translate(0)">
      <g id="Group_132228-3" data-name="Group 132228">
        <g id="Group_132227-3" data-name="Group 132227">
          <g id="Group_132226-3" data-name="Group 132226">
            <g id="Group_132225-3" data-name="Group 132225">
              <path id="Path_192217-3" data-name="Path 192217" d="M-887.084,1499.2a16.272,16.272,0,0,1,3.3-2.814l-.367-4,6.323-2.055,2.056,3.453a16.258,16.258,0,0,1,4.321.338l2.569-3.089,5.925,3.019-.987,3.893a16.283,16.283,0,0,1,2.814,3.3l4-.367,2.055,6.323-3.453,2.056a16.314,16.314,0,0,1-.338,4.321l3.088,2.569-3.018,5.925-3.894-.988a16.265,16.265,0,0,1-3.3,2.814l.367,4-6.323,2.056L-874,1526.5a16.277,16.277,0,0,1-4.321-.339l-2.569,3.088-5.924-3.018.987-3.894a16.252,16.252,0,0,1-2.814-3.3l-4,.367-2.055-6.323,3.453-2.056a16.307,16.307,0,0,1,.338-4.321l-3.088-2.569,3.018-5.925,3.894.988Zm5.978,7.433a7.132,7.132,0,0,0,3.118,9.593,7.132,7.132,0,0,0,9.593-3.118,7.133,7.133,0,0,0-3.118-9.593A7.134,7.134,0,0,0-881.106,1506.638Z" transform="translate(894.699 -1490.333)" fill="#d8d8d8"/>
            </g>
          </g>
        </g>
      </g>
    </g>
  </g>
  <g id="Group_133002" data-name="Group 133002" transform="translate(0 7.489)">
    <path id="Path_192431" data-name="Path 192431" d="M-514.706,1819.067a19.579,19.579,0,0,0-9.267,1.884,10.972,10.972,0,0,1-4.2.955l-3.754-.079v-44.18a6.918,6.918,0,0,1,7.18-6.622h125.3a6.918,6.918,0,0,1,7.18,6.622v116.487a5.633,5.633,0,0,1-5.847,5.392H-526.084a5.633,5.633,0,0,1-5.847-5.392v-42.1h5.18a10,10,0,0,1,3.489.633,20.626,20.626,0,0,0,7.219,1.3c10.97,0,19.812-8.4,19.371-18.611C-497.061,1826.361-504.969,1819.694-514.706,1819.067Z" transform="translate(532.078 -1770.846)" fill="#d8d8d8"/>
    <g id="Group_133001" data-name="Group 133001">
      <path id="Path_192432" data-name="Path 192432" d="M-514.766,1818.995s.42.055,1.244.147a13.884,13.884,0,0,1,1.526.245,18.8,18.8,0,0,1,2.081.5,20.872,20.872,0,0,1,5.447,2.5,14.686,14.686,0,0,1,1.5,1.092c.246.205.508.4.755.624l.727.707.371.363.343.4.7.825a17.7,17.7,0,0,1,1.239,1.892,16.881,16.881,0,0,1,1.035,2.158,16.382,16.382,0,0,1,.68,2.429,15.553,15.553,0,0,1,.139,5.41,16.572,16.572,0,0,1-1.839,5.621,18.355,18.355,0,0,1-4.025,4.984,20.1,20.1,0,0,1-13.142,4.879,20.8,20.8,0,0,1-7.682-1.426,10.2,10.2,0,0,0-2.016-.443,17.784,17.784,0,0,0-2.083-.066l-4.227,0h-.121v.121q-.006,9.893-.014,20.986,0,5.539-.006,11.356,0,2.908,0,5.883v2.992a13.982,13.982,0,0,0,.043,1.524,5.551,5.551,0,0,0,.42,1.5,6.015,6.015,0,0,0,4.978,3.375c2.094.053,4.167.016,6.283.028l12.907.006,27.189.009,59.164.013h15.641c2.639-.012,5.259.03,7.946-.028a6.319,6.319,0,0,0,3.688-1.646,5.342,5.342,0,0,0,1.712-3.664q.007-16.071.014-32.634c0-15.963,0-31.627,0-46.894q0-11.45,0-22.59,0-5.567,0-11.048,0-1.371,0-2.735a8.1,8.1,0,0,0-.3-2.748,6.943,6.943,0,0,0-3.567-4.063,7.659,7.659,0,0,0-2.63-.761c-.92-.082-1.8-.038-2.694-.049h-5.319l-10.49,0-20.358.006-37.966.015-33.806.018-15.158.01a7.589,7.589,0,0,0-6.327,2.873,6.51,6.51,0,0,0-1.29,3.2c-.073,1.153-.018,2.255-.034,3.363.021,17.651.038,31.742.05,41.486v.06h.06c1.479.02,2.86.075,4.157.06a11.108,11.108,0,0,0,3.5-.821,25.145,25.145,0,0,1,5.212-1.735,17.039,17.039,0,0,1,3.266-.341c.365,0,.638,0,.82.011s.273,0,.273,0a10.571,10.571,0,0,0-1.093-.047,16.484,16.484,0,0,0-3.279.31,24.989,24.989,0,0,0-5.235,1.711,11.03,11.03,0,0,1-3.469.8c-1.284.01-2.672-.051-4.148-.075l.06.061c.012-9.743.028-23.834.05-41.486.017-1.1-.033-2.234.038-3.339a6.278,6.278,0,0,1,1.249-3.086,7.349,7.349,0,0,1,6.142-2.77l15.158.01,33.806.018,37.966.015,20.358.006,10.49,0h5.319c.887.011,1.795-.03,2.657.048a7.3,7.3,0,0,1,2.51.727,6.59,6.59,0,0,1,3.388,3.856,7.755,7.755,0,0,1,.286,2.64q0,1.364,0,2.735,0,5.48,0,11.048,0,11.134,0,22.59c0,15.266,0,30.931,0,46.894q-.005,16.538-.011,32.617a4.976,4.976,0,0,1-1.6,3.415,5.949,5.949,0,0,1-3.47,1.548c-2.62.055-5.289.016-7.912.029h-15.641l-59.164.013-27.189.009-12.907.006c-2.1-.011-4.214.026-6.257-.022a5.719,5.719,0,0,1-4.735-3.2,5.254,5.254,0,0,1-.4-1.411,13.92,13.92,0,0,1-.042-1.488v-2.992q0-2.974,0-5.883,0-5.816-.006-11.356-.008-11.077-.014-20.986l-.121.121,4.227,0a17.548,17.548,0,0,1,2.056.061,9.946,9.946,0,0,1,1.971.43,20.991,20.991,0,0,0,7.754,1.425,20.3,20.3,0,0,0,13.267-4.952,18.538,18.538,0,0,0,4.054-5.044,16.722,16.722,0,0,0,1.844-5.682,15.7,15.7,0,0,0-.155-5.462,16.427,16.427,0,0,0-.694-2.45,16.979,16.979,0,0,0-1.051-2.174,17.836,17.836,0,0,0-1.255-1.9l-.708-.829-.346-.4-.375-.365-.735-.709c-.249-.223-.513-.419-.762-.625a14.68,14.68,0,0,0-1.512-1.092,20.773,20.773,0,0,0-5.484-2.485,18.341,18.341,0,0,0-2.091-.487,13.122,13.122,0,0,0-1.531-.229C-514.344,1819.027-514.766,1818.995-514.766,1818.995Z" transform="translate(532.138 -1770.774)" fill="#1c262b"/>
    </g>
  </g>
  <g id="Group_133157" data-name="Group 133157" transform="translate(45.227)">
    <g id="Group_133009" data-name="Group 133009" transform="translate(41.85 10.167)">
      <g id="Group_133008" data-name="Group 133008">
        <g id="Group_133007" data-name="Group 133007">
          <g id="Group_133006" data-name="Group 133006">
            <g id="Group_133005" data-name="Group 133005">
              <g id="Group_133004" data-name="Group 133004">
                <g id="Group_133003" data-name="Group 133003">
                  <path id="Path_192433" data-name="Path 192433" d="M-406.324,1812.384a94.681,94.681,0,0,0,4.311-15.755,33.066,33.066,0,0,0-1.1-16.149c-.278-.778-2.669-6-3.493-5.934-.589.051.865,4.917.561,5.424-2.9,4.837-3.739,10.685-3.355,16.31a73.839,73.839,0,0,0,3.073,16.1" transform="translate(409.485 -1774.546)" fill="#1c262b"/>
                </g>
              </g>
            </g>
          </g>
        </g>
      </g>
    </g>
    <g id="Group_133017" data-name="Group 133017" transform="translate(0 1.58)">
      <g id="Group_133016" data-name="Group 133016">
        <g id="Group_133015" data-name="Group 133015">
          <g id="Group_133014" data-name="Group 133014">
            <g id="Group_133013" data-name="Group 133013">
              <g id="Group_133012" data-name="Group 133012">
                <g id="Group_133011" data-name="Group 133011">
                  <g id="Group_133010" data-name="Group 133010">
                    <path id="Path_192434" data-name="Path 192434" d="M-423.989,1837.081l1.359-49c.611-13.659-6.828-25.4-20.5-25.633l-1.264.052a24.443,24.443,0,0,0-23.42,23.461c-.464,11.842-.826,24.932-.486,31.262.7,13.1,13.9,14.6,13.9,14.6.03,0,.117,13.611.11,17.462l9.313,9.89-.537-2.995Z" transform="translate(468.434 -1762.45)" fill="#f8ae8b"/>
                  </g>
                </g>
              </g>
            </g>
          </g>
        </g>
      </g>
    </g>
    <g id="Group_133026" data-name="Group 133026" transform="translate(14.032 65.201)">
      <g id="Group_133025" data-name="Group 133025">
        <g id="Group_133024" data-name="Group 133024">
          <g id="Group_133023" data-name="Group 133023">
            <g id="Group_133022" data-name="Group 133022">
              <g id="Group_133021" data-name="Group 133021">
                <g id="Group_133020" data-name="Group 133020">
                  <g id="Group_133019" data-name="Group 133019">
                    <g id="Group_133018" data-name="Group 133018">
                      <path id="Path_192435" data-name="Path 192435" d="M-448.668,1857.816a31.7,31.7,0,0,0,16.86-5.751s-3.7,10.025-16.828,9.385Z" transform="translate(448.668 -1852.065)" fill="#f08259"/>
                    </g>
                  </g>
                </g>
              </g>
            </g>
          </g>
        </g>
      </g>
    </g>
    <g id="Group_133041" data-name="Group 133041" transform="translate(4.965 34.269)">
      <g id="Group_133040" data-name="Group 133040">
        <g id="Group_133039" data-name="Group 133039">
          <g id="Group_133038" data-name="Group 133038">
            <g id="Group_133037" data-name="Group 133037">
              <g id="Group_133036" data-name="Group 133036">
                <g id="Group_133035" data-name="Group 133035">
                  <g id="Group_133034" data-name="Group 133034">
                    <g id="Group_133033" data-name="Group 133033">
                      <g id="Group_133032" data-name="Group 133032">
                        <g id="Group_133031" data-name="Group 133031">
                          <g id="Group_133030" data-name="Group 133030">
                            <g id="Group_133029" data-name="Group 133029">
                              <g id="Group_133028" data-name="Group 133028">
                                <g id="Group_133027" data-name="Group 133027">
                                  <path id="Path_192436" data-name="Path 192436" d="M-461.44,1810.265a1.872,1.872,0,0,0,1.883,1.814,1.791,1.791,0,0,0,1.859-1.768,1.874,1.874,0,0,0-1.881-1.815A1.793,1.793,0,0,0-461.44,1810.265Z" transform="translate(461.44 -1808.496)" fill="#1c262b"/>
                                </g>
                              </g>
                            </g>
                          </g>
                        </g>
                      </g>
                    </g>
                  </g>
                </g>
              </g>
            </g>
          </g>
        </g>
      </g>
    </g>
    <g id="Group_133057" data-name="Group 133057" transform="translate(3.612 28.642)">
      <g id="Group_133056" data-name="Group 133056">
        <g id="Group_133055" data-name="Group 133055">
          <g id="Group_133054" data-name="Group 133054">
            <g id="Group_133053" data-name="Group 133053">
              <g id="Group_133052" data-name="Group 133052">
                <g id="Group_133051" data-name="Group 133051">
                  <g id="Group_133050" data-name="Group 133050">
                    <g id="Group_133049" data-name="Group 133049">
                      <g id="Group_133048" data-name="Group 133048">
                        <g id="Group_133047" data-name="Group 133047">
                          <g id="Group_133046" data-name="Group 133046">
                            <g id="Group_133045" data-name="Group 133045">
                              <g id="Group_133044" data-name="Group 133044">
                                <g id="Group_133043" data-name="Group 133043">
                                  <g id="Group_133042" data-name="Group 133042">
                                    <path id="Path_192437" data-name="Path 192437" d="M-463.312,1802.693c.242.234,1.617-.874,3.632-.951,2.011-.107,3.532.868,3.74.613.1-.114-.151-.545-.814-.987a5.141,5.141,0,0,0-3.007-.793,4.938,4.938,0,0,0-2.878,1.063C-463.239,1802.138-463.431,1802.588-463.312,1802.693Z" transform="translate(463.345 -1800.569)" fill="#1c262b"/>
                                  </g>
                                </g>
                              </g>
                            </g>
                          </g>
                        </g>
                      </g>
                    </g>
                  </g>
                </g>
              </g>
            </g>
          </g>
        </g>
      </g>
    </g>
    <g id="Group_133072" data-name="Group 133072" transform="translate(22.876 34.269)">
      <g id="Group_133071" data-name="Group 133071">
        <g id="Group_133070" data-name="Group 133070">
          <g id="Group_133069" data-name="Group 133069">
            <g id="Group_133068" data-name="Group 133068">
              <g id="Group_133067" data-name="Group 133067">
                <g id="Group_133066" data-name="Group 133066">
                  <g id="Group_133065" data-name="Group 133065">
                    <g id="Group_133064" data-name="Group 133064">
                      <g id="Group_133063" data-name="Group 133063">
                        <g id="Group_133062" data-name="Group 133062">
                          <g id="Group_133061" data-name="Group 133061">
                            <g id="Group_133060" data-name="Group 133060">
                              <g id="Group_133059" data-name="Group 133059">
                                <g id="Group_133058" data-name="Group 133058">
                                  <path id="Path_192438" data-name="Path 192438" d="M-436.211,1810.265a1.874,1.874,0,0,0,1.883,1.814,1.792,1.792,0,0,0,1.86-1.768,1.875,1.875,0,0,0-1.881-1.815A1.794,1.794,0,0,0-436.211,1810.265Z" transform="translate(436.211 -1808.496)" fill="#1c262b"/>
                                </g>
                              </g>
                            </g>
                          </g>
                        </g>
                      </g>
                    </g>
                  </g>
                </g>
              </g>
            </g>
          </g>
        </g>
      </g>
    </g>
    <g id="Group_133088" data-name="Group 133088" transform="translate(23.378 28.294)">
      <g id="Group_133087" data-name="Group 133087">
        <g id="Group_133086" data-name="Group 133086">
          <g id="Group_133085" data-name="Group 133085">
            <g id="Group_133084" data-name="Group 133084">
              <g id="Group_133083" data-name="Group 133083">
                <g id="Group_133082" data-name="Group 133082">
                  <g id="Group_133081" data-name="Group 133081">
                    <g id="Group_133080" data-name="Group 133080">
                      <g id="Group_133079" data-name="Group 133079">
                        <g id="Group_133078" data-name="Group 133078">
                          <g id="Group_133077" data-name="Group 133077">
                            <g id="Group_133076" data-name="Group 133076">
                              <g id="Group_133075" data-name="Group 133075">
                                <g id="Group_133074" data-name="Group 133074">
                                  <g id="Group_133073" data-name="Group 133073">
                                    <path id="Path_192439" data-name="Path 192439" d="M-435.47,1802.2c.243.235,1.619-.873,3.633-.951,2.011-.106,3.532.869,3.741.614.1-.114-.15-.545-.816-.987a5.138,5.138,0,0,0-3.007-.793,4.95,4.95,0,0,0-2.878,1.062C-435.4,1801.647-435.588,1802.1-435.47,1802.2Z" transform="translate(435.503 -1800.078)" fill="#1c262b"/>
                                  </g>
                                </g>
                              </g>
                            </g>
                          </g>
                        </g>
                      </g>
                    </g>
                  </g>
                </g>
              </g>
            </g>
          </g>
        </g>
      </g>
    </g>
    <g id="Group_133103" data-name="Group 133103" transform="translate(11.63 29.372)">
      <g id="Group_133102" data-name="Group 133102">
        <g id="Group_133101" data-name="Group 133101">
          <g id="Group_133100" data-name="Group 133100">
            <g id="Group_133099" data-name="Group 133099">
              <g id="Group_133098" data-name="Group 133098">
                <g id="Group_133097" data-name="Group 133097">
                  <g id="Group_133096" data-name="Group 133096">
                    <g id="Group_133095" data-name="Group 133095">
                      <g id="Group_133094" data-name="Group 133094">
                        <g id="Group_133093" data-name="Group 133093">
                          <g id="Group_133092" data-name="Group 133092">
                            <g id="Group_133091" data-name="Group 133091">
                              <g id="Group_133090" data-name="Group 133090">
                                <g id="Group_133089" data-name="Group 133089">
                                  <path id="Path_192440" data-name="Path 192440" d="M-446.857,1818.42a13.341,13.341,0,0,0-3.3-.455c-.517-.032-1.007-.114-1.109-.462a2.627,2.627,0,0,1,.28-1.539q.649-1.9,1.36-3.979c1.882-5.665,3.222-10.313,2.993-10.387s-1.94,4.458-3.822,10.122c-.452,1.4-.884,2.727-1.295,4a2.983,2.983,0,0,0-.183,2.03,1.289,1.289,0,0,0,.877.717,3.489,3.489,0,0,0,.879.086A13.121,13.121,0,0,0-446.857,1818.42Z" transform="translate(452.051 -1801.597)" fill="#1c262b"/>
                                </g>
                              </g>
                            </g>
                          </g>
                        </g>
                      </g>
                    </g>
                  </g>
                </g>
              </g>
            </g>
          </g>
        </g>
      </g>
    </g>
    <g id="Group_133114" data-name="Group 133114" transform="translate(22.472 21.812)">
      <g id="Group_133113" data-name="Group 133113">
        <g id="Group_133112" data-name="Group 133112">
          <g id="Group_133111" data-name="Group 133111">
            <g id="Group_133110" data-name="Group 133110">
              <g id="Group_133109" data-name="Group 133109">
                <g id="Group_133108" data-name="Group 133108">
                  <g id="Group_133107" data-name="Group 133107">
                    <g id="Group_133106" data-name="Group 133106">
                      <g id="Group_133105" data-name="Group 133105">
                        <g id="Group_133104" data-name="Group 133104">
                          <path id="Path_192441" data-name="Path 192441" d="M-436.753,1793.28c.295.5,2.227-.119,4.6-.268,2.375-.2,4.377.136,4.6-.4.094-.257-.326-.7-1.181-1.085a7.664,7.664,0,0,0-3.565-.553,7.668,7.668,0,0,0-3.445,1.064C-436.533,1792.536-436.885,1793.039-436.753,1793.28Z" transform="translate(436.78 -1790.948)" fill="#1c262b"/>
                        </g>
                      </g>
                    </g>
                  </g>
                </g>
              </g>
            </g>
          </g>
        </g>
      </g>
    </g>
    <g id="Group_133125" data-name="Group 133125" transform="translate(3.242 22.647)">
      <g id="Group_133124" data-name="Group 133124">
        <g id="Group_133123" data-name="Group 133123">
          <g id="Group_133122" data-name="Group 133122">
            <g id="Group_133121" data-name="Group 133121">
              <g id="Group_133120" data-name="Group 133120">
                <g id="Group_133119" data-name="Group 133119">
                  <g id="Group_133118" data-name="Group 133118">
                    <g id="Group_133117" data-name="Group 133117">
                      <g id="Group_133116" data-name="Group 133116">
                        <g id="Group_133115" data-name="Group 133115">
                          <path id="Path_192442" data-name="Path 192442" d="M-463.8,1794.325c.431.447,2.06-.073,4.032-.147,1.969-.132,3.652.212,4.024-.277.163-.237-.113-.689-.854-1.1a6.349,6.349,0,0,0-3.3-.664,6.265,6.265,0,0,0-3.193,1C-463.774,1793.629-463.991,1794.107-463.8,1794.325Z" transform="translate(463.866 -1792.125)" fill="#1c262b"/>
                        </g>
                      </g>
                    </g>
                  </g>
                </g>
              </g>
            </g>
          </g>
        </g>
      </g>
    </g>
    <g id="Group_133132" data-name="Group 133132" transform="translate(45.134 36.423)">
      <g id="Group_133131" data-name="Group 133131">
        <g id="Group_133130" data-name="Group 133130">
          <g id="Group_133129" data-name="Group 133129">
            <g id="Group_133128" data-name="Group 133128">
              <g id="Group_133127" data-name="Group 133127">
                <g id="Group_133126" data-name="Group 133126">
                  <path id="Path_192443" data-name="Path 192443" d="M-404.86,1812.07c.219-.107,8.9-3.036,8.981,5.937s-8.942,7.207-8.961,6.949S-404.86,1812.07-404.86,1812.07Z" transform="translate(404.86 -1811.53)" fill="#f8ae8b"/>
                </g>
              </g>
            </g>
          </g>
        </g>
      </g>
    </g>
    <g id="Group_133140" data-name="Group 133140" transform="translate(47.855 39.31)">
      <g id="Group_133139" data-name="Group 133139">
        <g id="Group_133138" data-name="Group 133138">
          <g id="Group_133137" data-name="Group 133137">
            <g id="Group_133136" data-name="Group 133136">
              <g id="Group_133135" data-name="Group 133135">
                <g id="Group_133134" data-name="Group 133134">
                  <g id="Group_133133" data-name="Group 133133">
                    <path id="Path_192444" data-name="Path 192444" d="M-401.018,1822.712c.039-.029.157.107.422.226a1.565,1.565,0,0,0,1.169.013c.945-.357,1.729-1.869,1.758-3.487a5.17,5.17,0,0,0-.459-2.234,1.809,1.809,0,0,0-1.187-1.189.8.8,0,0,0-.919.437c-.118.252-.059.431-.107.447-.024.023-.194-.148-.125-.52a1,1,0,0,1,.348-.566,1.183,1.183,0,0,1,.863-.236,2.2,2.2,0,0,1,1.646,1.376,5.311,5.311,0,0,1,.566,2.5c-.041,1.809-.951,3.51-2.244,3.9a1.675,1.675,0,0,1-1.432-.224C-401,1822.927-401.05,1822.728-401.018,1822.712Z" transform="translate(401.027 -1815.596)" fill="#f08259"/>
                  </g>
                </g>
              </g>
            </g>
          </g>
        </g>
      </g>
    </g>
    <g id="Group_133147" data-name="Group 133147" transform="translate(6.13)">
      <g id="Group_133146" data-name="Group 133146">
        <g id="Group_133145" data-name="Group 133145">
          <g id="Group_133144" data-name="Group 133144">
            <g id="Group_133143" data-name="Group 133143">
              <g id="Group_133142" data-name="Group 133142">
                <g id="Group_133141" data-name="Group 133141">
                  <path id="Path_192445" data-name="Path 192445" d="M-459.511,1770.448c-1.453-.8,2.9-5.506,6.471-7.128,5.393-2.45,13.63-3.961,18.6-2.554,5.989,1.695,10.966,4.671,13.975,10.12a35.294,35.294,0,0,1,3.972,18.02,10.718,10.718,0,0,1-1.262,5.483c-1.252,1.985-3.657,3.236-3.55,5.973a3.758,3.758,0,0,1-.931,2.74c-1.641,1.748-3.651.108-4.575-1.538-1.974-3.514-2.2-7.71-2.372-11.737a26.227,26.227,0,0,1,.563-8.535c.438-1.5,1.142-2.91,1.5-4.428a5.394,5.394,0,0,0-.638-4.48,5.625,5.625,0,0,0-.73-.737,9.358,9.358,0,0,0-9.285-1.763c-5.053,1.791-13.681,4.466-15.936,2.752-3.244-2.466-4.02-4.074-4.02-4.074Z" transform="translate(459.799 -1760.225)" fill="#1c262b"/>
                </g>
              </g>
            </g>
          </g>
        </g>
      </g>
    </g>
    <g id="Group_133156" data-name="Group 133156" transform="translate(17.078 47.442)">
      <g id="Group_133155" data-name="Group 133155">
        <g id="Group_133154" data-name="Group 133154">
          <g id="Group_133153" data-name="Group 133153">
            <g id="Group_133152" data-name="Group 133152">
              <g id="Group_133151" data-name="Group 133151">
                <g id="Group_133150" data-name="Group 133150">
                  <g id="Group_133149" data-name="Group 133149">
                    <g id="Group_133148" data-name="Group 133148">
                      <path id="Path_192446" data-name="Path 192446" d="M-438.3,1827.05c-.309-.019-.322,2.041-2.092,3.5s-3.963,1.218-3.981,1.506c-.029.129.487.4,1.414.432a5.132,5.132,0,0,0,3.323-1.14,4.474,4.474,0,0,0,1.622-2.932C-437.935,1827.551-438.162,1827.039-438.3,1827.05Z" transform="translate(444.378 -1827.05)" fill="#1c262b"/>
                    </g>
                  </g>
                </g>
              </g>
            </g>
          </g>
        </g>
      </g>
    </g>
  </g>
  <g id="Group_133158" data-name="Group 133158" transform="translate(69.197 73.346)" opacity="0.3">
    <path id="Path_192447" data-name="Path 192447" d="M-434.44,1877.4c1.107-1.853,2.368-3.21,3.474-5.063.088-.146.628-.72.562-.878a5.638,5.638,0,0,1,.75.907c1.132,1.737,2.912,3.333,4.106,4.867l15.074-13.7a101.206,101.206,0,0,1-13.935,16.147,1.883,1.883,0,0,1-1.418.56,2.229,2.229,0,0,1-1.343-.966l-2.3-2.777a1.3,1.3,0,0,0-.64-.5,1.314,1.314,0,0,0-1.034.391l-2.32,1.788c-.325.25-.826.491-1.1.184C-434.788,1878.1-434.617,1877.7-434.44,1877.4Z" transform="translate(434.669 -1863.538)" fill="#040405"/>
  </g>
  <g id="Group_133166" data-name="Group 133166" transform="translate(15.493 65.432)">
    <path id="Path_192448" data-name="Path 192448" d="M-417.208,1863.694s21.075-5.426,33.149,8.236a25.559,25.559,0,0,1,6.146,18.706c-.32,4.658-.778,11.382-1.189,17.575-.723,10.911-3.112,37.862-8.882,44.289s-21.285,3.3-26.73,1.162-13.892-1.534-18.069-5.486-10.433-6.387-16.978-9-3.928-6.082-3.928-6.082l9.787-20.707,35.471,7.084s1.46-13.652-.055-17.768-4.075-9.467-4.9-15.749S-417.208,1863.694-417.208,1863.694Z" transform="translate(494.041 -1855.36)" fill="#41b8df"/>
    <g id="Group_133159" data-name="Group 133159" transform="translate(85.192 63.922)">
      <path id="Path_192449" data-name="Path 192449" d="M-390.317,1942.433c-.024.066.964.41,2.427,1.222a20.121,20.121,0,0,1,2.449,1.613,21.916,21.916,0,0,1,2.632,2.435,21.9,21.9,0,0,1,2.152,2.868,20.064,20.064,0,0,1,1.353,2.6c.657,1.539.9,2.558.966,2.54a2.793,2.793,0,0,0-.125-.725,7.084,7.084,0,0,0-.226-.833c-.1-.32-.206-.691-.373-1.081a17.626,17.626,0,0,0-1.3-2.679,20.216,20.216,0,0,0-2.169-2.939,20.193,20.193,0,0,0-2.7-2.458,17.614,17.614,0,0,0-2.531-1.572c-.371-.207-.73-.346-1.037-.483a7.083,7.083,0,0,0-.805-.31A2.8,2.8,0,0,0-390.317,1942.433Z" transform="translate(390.318 -1942.428)" fill="#1c262b"/>
    </g>
    <g id="Group_133160" data-name="Group 133160" transform="translate(85.191 63.752)" opacity="0.3">
      <path id="Path_192450" data-name="Path 192450" d="M-389.1,1942.323a18.951,18.951,0,0,1,14.774,13.935c.234.982.261,2.26-.632,2.73a1.713,1.713,0,0,1-2-.56,5.787,5.787,0,0,1-.929-2.025,24.4,24.4,0,0,0-12.432-14.214Z" transform="translate(390.319 -1942.189)" fill="#040405"/>
    </g>
    <path id="Path_192451" data-name="Path 192451" d="M-411.732,1858.875h-3.881l-4.436-6.485-17,13.922-5.609,8.345-2.731-8.221-5.922-2.942-1.527,4.5-4.949,2.274,6.2,15.515,4.985,6.037s7.705,5.692,17.931-3.684l10.226-9.376Z" transform="translate(495.08 -1852.39)" fill="#fff"/>
    <path id="Path_192452" data-name="Path 192452" d="M-426.967,1861.525s-20.343,30.759-28.577,27.853-16.409-17.292-16.409-17.292-17.9,5.669-23.471,11.723-14.892,41.575-14.892,41.575l85.61-6.236s12.753-19.115,12.753-20.568-3.76-35.495-3.76-35.495Z" transform="translate(510.316 -1855.04)" fill="#41b8df"/>
    <path id="Path_192453" data-name="Path 192453" d="M-457.456,1932.269s-11.53-4.294-16.644-3.769-25.081,16.3-25.081,16.3l25.986-.151,2.257-2.062,5.789,6.246Z" transform="translate(507.086 -1874.453)" fill="#f8ae8b"/>
    <g id="Group_133161" data-name="Group 133161" transform="translate(45.246 61.84)">
      <path id="Path_192454" data-name="Path 192454" d="M-446.584,1961.637a8.147,8.147,0,0,0,1.168.7l.079.044.036-.088c.776-1.9,2.346-5.979,4.116-10.712,1.242-3.32,2.347-6.333,3.129-8.521l.909-2.6a5.247,5.247,0,0,0,.285-.97,5.322,5.322,0,0,0-.42.919c-.267.669-.608,1.527-1.019,2.556-.845,2.165-1.989,5.163-3.23,8.483-1.771,4.733-3.262,8.843-3.923,10.785l.114-.044A8.321,8.321,0,0,0-446.584,1961.637Z" transform="translate(446.584 -1939.496)" fill="#1c262b"/>
    </g>
    <g id="Group_133162" data-name="Group 133162" transform="translate(90.463 27.214)">
      <path id="Path_192455" data-name="Path 192455" d="M-367.131,1890.725a4.121,4.121,0,0,0-.806.38c-.5.273-1.225.684-2.084,1.242a49.469,49.469,0,0,0-6.325,4.9c-1.161,1.048-2.226,2.091-3.17,3.063a21.419,21.419,0,0,0-2.376,2.718,5.539,5.539,0,0,0-.958,2.248,3.25,3.25,0,0,0-.038.666c.011.153.023.231.035.231.034,0,.021-.32.144-.869a5.873,5.873,0,0,1,1.031-2.126,23.827,23.827,0,0,1,2.4-2.629c.953-.955,2.02-1.985,3.175-3.027a60.716,60.716,0,0,1,6.222-4.96c.836-.583,1.534-1.025,2.013-1.335A4.082,4.082,0,0,0-367.131,1890.725Z" transform="translate(382.893 -1890.723)" fill="#1c262b"/>
    </g>
    <g id="Group_133163" data-name="Group 133163" transform="translate(39.818 45.719)">
      <path id="Path_192456" data-name="Path 192456" d="M-454.229,1949.93a2.735,2.735,0,0,0,.221-.4c.145-.292.34-.685.589-1.184l2.17-4.478,7.495-15.7-.187.094,15.1,3.031,20.375,4.04.153.03.031-.152c1.122-5.519,2.055-10.113,2.715-13.358l.734-3.737c.075-.412.136-.739.181-.985a1.878,1.878,0,0,0,.046-.341,1.855,1.855,0,0,0-.094.332l-.227.976-.819,3.719c-.691,3.237-1.668,7.822-2.843,13.331l.185-.122-20.364-4.095-15.1-3-.131-.026-.056.12-7.373,15.759c-.884,1.917-1.587,3.445-2.082,4.519l-.541,1.207A2.814,2.814,0,0,0-454.229,1949.93Z" transform="translate(454.23 -1916.789)" fill="#1c262b"/>
    </g>
    <g id="Group_133164" data-name="Group 133164" transform="translate(53.091 6.484)">
      <path id="Path_192457" data-name="Path 192457" d="M-409.157,1861.525a1.51,1.51,0,0,0-.32.223l-.871.7c-.743.621-1.8,1.536-3.07,2.716s-2.748,2.611-4.387,4.2-3.44,3.344-5.477,5a24.149,24.149,0,0,1-2.693,1.883l.239.053c-1.626-2.169-3.541-3.775-4.792-5.51l-.128-.179-.123.179-3.489,5.08-.953,1.43a2.961,2.961,0,0,0-.31.523,3.086,3.086,0,0,0,.386-.469l1.022-1.382,3.6-5.006h-.251c1.262,1.8,3.174,3.429,4.745,5.544l.1.135.139-.082a23.936,23.936,0,0,0,2.743-1.91c2.059-1.674,3.854-3.443,5.484-5.046s3.083-3.06,4.329-4.257,2.273-2.145,2.985-2.8l.825-.747A1.579,1.579,0,0,0-409.157,1861.525Z" transform="translate(435.534 -1861.524)" fill="#1c262b"/>
    </g>
    <g id="Group_133165" data-name="Group 133165" transform="translate(41.601 15.539)">
      <path id="Path_192458" data-name="Path 192458" d="M-451.718,1876.445a7.644,7.644,0,0,0,1.3.706c.836.413,2.025.979,3.425,1.63l.162.075.069-.167a14.925,14.925,0,0,1,1.42-2.648,14.884,14.884,0,0,1,.985-1.3l-.3-.048c.745,1.749,1.412,3.274,1.9,4.359a11.068,11.068,0,0,0,.848,1.71,11.15,11.15,0,0,0-.63-1.8c-.432-1.109-1.057-2.653-1.786-4.408l-.113-.271-.192.224a14.073,14.073,0,0,0-1.017,1.333,14.051,14.051,0,0,0-1.432,2.725l.231-.092c-1.412-.627-2.621-1.15-3.481-1.509A7.521,7.521,0,0,0-451.718,1876.445Z" transform="translate(451.719 -1874.278)" fill="#1c262b"/>
    </g>
  </g>
</svg>
