<svg xmlns="http://www.w3.org/2000/svg" width="400" height="270" viewBox="0 0 400 270">
  <g id="_8" data-name="8" transform="translate(-156 -1930)">
    <g id="_1_2_D_copy_5" data-name="1_2_D copy 5" transform="translate(197.028 1930.001)">
      <path id="Path_120159" data-name="Path 120159" d="M209.7,68.94h0a7.125,7.125,0,0,0-7.128,7.128V86.743h14.247V76.068c0-3.539-2.226-7.128-5.66-7.128H209.69Zm0,9.036a2.814,2.814,0,1,1,2.814-2.814A2.814,2.814,0,0,1,209.7,77.976Z" transform="translate(-120.902 -43.283)" fill="#197ca3"/>
      <path id="Path_120161" data-name="Path 120161" d="M357.873,164.009a1.673,1.673,0,0,0,1.182,1.317c3.01.873,7.067,4.756,8.894,6.987l-5.065,14.027c-2.821.537-8.424.941-11.3-.309a1.682,1.682,0,0,0-1.76.255l-8.961,7.564a1.709,1.709,0,0,0-.551,1.693c.752,3.05-.591,8.5-1.6,11.192l-14.685,2.633c-1.881-2.177-5.025-6.825-5.388-9.942a1.68,1.68,0,0,0-1.1-1.4l-11.031-3.977a1.68,1.68,0,0,0-1.733.376c-2.257,2.177-7.658,3.735-10.493,4.205l-9.62-11.407c.94-2.714,3.4-7.766,5.925-9.633a1.7,1.7,0,0,0,.658-1.653L289.177,164.4a1.673,1.673,0,0,0-1.182-1.317c-3.01-.873-7.067-4.756-8.894-6.987l5.065-14.027c2.822-.537,8.424-.941,11.3.309a1.681,1.681,0,0,0,1.76-.255l8.962-7.564a1.709,1.709,0,0,0,.551-1.693c-.752-3.05.591-8.5,1.6-11.192l14.685-2.633c1.881,2.177,5.025,6.825,5.388,9.942a1.68,1.68,0,0,0,1.1,1.4l11.031,3.977a1.68,1.68,0,0,0,1.733-.376c2.257-2.177,7.658-3.735,10.493-4.205l9.62,11.407c-.94,2.714-3.4,7.766-5.925,9.633a1.7,1.7,0,0,0-.658,1.653l2.069,11.541Zm-23.109-9.284a14.693,14.693,0,1,0-1.76,20.7A14.693,14.693,0,0,0,334.764,154.725Zm7.2-6.073a24.113,24.113,0,1,0-2.889,33.979A24.11,24.11,0,0,0,341.965,148.652Z" transform="translate(-79.328 -67.791)" fill="#197ca3"/>
      <path id="Path_120162" data-name="Path 120162" d="M302.637,58.24a1.488,1.488,0,0,0,1.533.265c2.536-1.026,7.423-.542,9.878,0l4.081,12.368c-1.648,1.89-5.279,5.187-7.931,5.879a1.472,1.472,0,0,0-1.072,1.118L307.04,87.9a1.468,1.468,0,0,0,.53,1.452c2.155,1.683,4.173,6.155,4.933,8.553l-8.668,9.717c-2.467-.484-7.135-1.983-9.06-3.931a1.47,1.47,0,0,0-1.51-.369l-9.729,3.2a1.465,1.465,0,0,0-.991,1.187c-.38,2.709-3.251,6.7-4.933,8.553l-12.76-2.651c-.818-2.375-1.856-7.17-1.13-9.809a1.467,1.467,0,0,0-.438-1.487l-7.642-6.812a1.488,1.488,0,0,0-1.533-.265c-2.536,1.026-7.423.542-9.879,0l-4.08-12.368c1.648-1.89,5.279-5.187,7.931-5.879a1.472,1.472,0,0,0,1.072-1.118l2.086-10.028a1.468,1.468,0,0,0-.53-1.452c-2.156-1.683-4.173-6.155-4.934-8.553l8.668-9.717c2.467.484,7.135,1.983,9.06,3.931a1.47,1.47,0,0,0,1.51.369l9.729-3.2a1.464,1.464,0,0,0,.991-1.187c.38-2.709,3.251-6.7,4.934-8.553l12.76,2.651c.818,2.375,1.856,7.17,1.13,9.809a1.467,1.467,0,0,0,.438,1.487l7.642,6.812ZM281.75,64.326A12.827,12.827,0,1,0,291.7,79.5,12.832,12.832,0,0,0,281.75,64.326Zm1.671-8.057a21.056,21.056,0,1,0,16.334,24.9A21.053,21.053,0,0,0,283.422,56.269Z" transform="translate(-92.56 -37.48)" fill="#ffb30b"/>
      <g id="Group_113720" data-name="Group 113720" transform="translate(272.475 7.313)">
        <path id="Path_120163" data-name="Path 120163" d="M386.619,77.327a1.614,1.614,0,0,1-1.5-.841l-5.5-9.936a1.645,1.645,0,0,1,.081-1.718c1.729-2.5,2.4-7.9,2.409-10.685L369.733,46.7c-2.455,1.314-6.9,4.438-8.3,7.147a1.65,1.65,0,0,1-1.475.888l-11.354-.2a1.6,1.6,0,0,1-1.441-.934c-1.3-2.743-5.637-6.029-8.046-7.435l-12.633,7c-.081,2.778.392,8.207,2.04,10.755a1.62,1.62,0,0,1,.023,1.718l-5.856,9.729a1.643,1.643,0,0,1-1.533.784c-3.032-.254-8.034,1.867-10.455,3.251l-.254,14.443c2.363,1.464,7.3,3.758,10.34,3.619a1.614,1.614,0,0,1,1.5.841l5.5,9.936a1.622,1.622,0,0,1-.092,1.717c-1.729,2.5-2.4,7.9-2.409,10.685l12.38,7.446c2.455-1.314,6.9-4.438,8.3-7.147a1.618,1.618,0,0,1,1.475-.876l11.354.2a1.6,1.6,0,0,1,1.441.934c1.3,2.743,5.637,6.029,8.046,7.435l12.633-7c.081-2.778-.392-8.207-2.04-10.755a1.62,1.62,0,0,1-.023-1.718l5.856-9.729a1.643,1.643,0,0,1,1.533-.784c3.032.254,8.034-1.867,10.455-3.251l.254-14.443c-2.363-1.464-7.3-3.758-10.34-3.619Zm-9.567,10.489a23.357,23.357,0,1,1-22.938-23.768A23.356,23.356,0,0,1,377.052,87.817Z" transform="translate(-310.45 -46.17)" fill="#5da6c7"/>
        <path id="Path_120164" data-name="Path 120164" d="M350.108,69.6a14.226,14.226,0,1,0,13.971,14.478A14.227,14.227,0,0,0,350.108,69.6Z" transform="translate(-306.606 -42.593)" fill="#5da6c7"/>
      </g>
      <path id="Path_120165" data-name="Path 120165" d="M14.035,0H207.464A14.04,14.04,0,0,1,221.5,14.035V160.669A14.04,14.04,0,0,1,207.464,174.7H14.035A14.04,14.04,0,0,1,0,160.669V14.035A14.04,14.04,0,0,1,14.035,0Z" transform="translate(0 265.033) rotate(-90)" fill="#084a93"/>
      <path id="Path_120166" data-name="Path 120166" d="M14.207,0H182.191A14.213,14.213,0,0,1,196.4,14.207V136.773a14.213,14.213,0,0,1-14.207,14.207H14.207A14.213,14.213,0,0,1,0,136.773V14.207A14.213,14.213,0,0,1,14.207,0Z" transform="translate(11.866 254.969) rotate(-90)" fill="#fcfefe"/>
      <g id="Group_113729" data-name="Group 113729" transform="translate(24.828 91.41)">
        <g id="Group_113722" data-name="Group 113722">
          <g id="Group_113721" data-name="Group 113721" transform="translate(5.061 7.571)">
            <rect id="Rectangle_40451" data-name="Rectangle 40451" width="14.957" height="19.426" transform="translate(14.957 19.426) rotate(180)" fill="#5da6c7"/>
            <rect id="Rectangle_40452" data-name="Rectangle 40452" width="15.895" height="11.842" transform="translate(13.399 1.77) rotate(90)" fill="#fcfefe"/>
          </g>
          <path id="Path_120167" data-name="Path 120167" d="M133.376,149.708a.933.933,0,0,1,1.346.432l10.838,21.979,3.172-8.906a.959.959,0,0,1,1.289-.62,1.175,1.175,0,0,1,.546,1.46l-4.722,13.228L133,151.225a1.2,1.2,0,0,1,.383-1.525Z" transform="translate(-132.874 -149.566)" fill="#00defc"/>
        </g>
        <g id="Group_113724" data-name="Group 113724" transform="translate(0 30.093)">
          <g id="Group_113723" data-name="Group 113723" transform="translate(5.061 9.423)">
            <rect id="Rectangle_40453" data-name="Rectangle 40453" width="14.957" height="19.426" transform="translate(14.957 19.426) rotate(180)" fill="#5da6c7"/>
            <rect id="Rectangle_40454" data-name="Rectangle 40454" width="15.895" height="11.842" transform="translate(13.399 1.753) rotate(90)" fill="#fcfefe"/>
          </g>
          <path id="Path_120168" data-name="Path 120168" d="M133.376,186.608a.933.933,0,0,1,1.346.432l10.838,21.979,3.172-8.906a.96.96,0,0,1,1.289-.62,1.175,1.175,0,0,1,.546,1.46l-4.722,13.228L133,188.125a1.2,1.2,0,0,1,.383-1.525Z" transform="translate(-132.874 -186.466)" fill="#00defc"/>
        </g>
        <g id="Group_113726" data-name="Group 113726" transform="translate(0 60.749)">
          <g id="Group_113725" data-name="Group 113725" transform="translate(5.061 9.415)">
            <rect id="Rectangle_40455" data-name="Rectangle 40455" width="14.957" height="19.426" transform="translate(14.957 19.426) rotate(180)" fill="#5da6c7"/>
            <rect id="Rectangle_40456" data-name="Rectangle 40456" width="15.895" height="11.842" transform="translate(13.399 1.762) rotate(90)" fill="#fcfefe"/>
          </g>
          <path id="Path_120169" data-name="Path 120169" d="M133.376,224.2a.933.933,0,0,1,1.346.432l10.838,21.979,3.172-8.906a.959.959,0,0,1,1.289-.62,1.175,1.175,0,0,1,.546,1.46l-4.722,13.228L133,225.715a1.2,1.2,0,0,1,.383-1.525Z" transform="translate(-132.874 -224.056)" fill="#00defc"/>
        </g>
        <g id="Group_113728" data-name="Group 113728" transform="translate(0 91.397)">
          <g id="Group_113727" data-name="Group 113727" transform="translate(5.061 9.423)">
            <rect id="Rectangle_40457" data-name="Rectangle 40457" width="14.957" height="19.426" transform="translate(14.957 19.426) rotate(180)" fill="#5da6c7"/>
            <rect id="Rectangle_40458" data-name="Rectangle 40458" width="15.895" height="11.842" transform="translate(13.399 1.762) rotate(90)" fill="#fcfefe"/>
          </g>
          <path id="Path_120170" data-name="Path 120170" d="M133.376,261.778a.933.933,0,0,1,1.346.432l10.838,21.979,3.172-8.906a.96.96,0,0,1,1.289-.62,1.175,1.175,0,0,1,.546,1.46l-4.722,13.228L133,263.295a1.2,1.2,0,0,1,.383-1.525Z" transform="translate(-132.874 -261.636)" fill="#00defc"/>
        </g>
      </g>
      <g id="Group_113730" data-name="Group 113730" transform="translate(52.154 102.806)">
        <path id="Path_120171" data-name="Path 120171" d="M255.763,165.465h-88.42a.964.964,0,0,1-.962-.962h0a.964.964,0,0,1,.962-.962h88.42a.964.964,0,0,1,.962.962h0A.964.964,0,0,1,255.763,165.465Z" transform="translate(-166.38 -163.54)" fill="#12263f"/>
        <path id="Path_120172" data-name="Path 120172" d="M255.763,172.285h-88.42a.964.964,0,0,1-.962-.962h0a.964.964,0,0,1,.962-.962h88.42a.964.964,0,0,1,.962.962h0A.964.964,0,0,1,255.763,172.285Z" transform="translate(-166.38 -164.798)" fill="#12263f"/>
        <path id="Path_120173" data-name="Path 120173" d="M211,177.178H167.384a.99.99,0,0,0-.995.865.956.956,0,0,0,.954,1.052H211a.964.964,0,0,0,.962-.962h0a.964.964,0,0,0-.962-.962Z" transform="translate(-166.381 -166.054)" fill="#12263f"/>
      </g>
      <g id="Group_113731" data-name="Group 113731" transform="translate(52.553 135.477)">
        <path id="Path_120174" data-name="Path 120174" d="M256.253,205.525h-88.42a.964.964,0,0,1-.962-.962h0a.964.964,0,0,1,.962-.962h88.42a.964.964,0,0,1,.962.962h0A.964.964,0,0,1,256.253,205.525Z" transform="translate(-166.87 -203.6)" fill="#12263f"/>
        <path id="Path_120175" data-name="Path 120175" d="M256.253,212.345h-88.42a.964.964,0,0,1-.962-.962h0a.964.964,0,0,1,.962-.962h88.42a.964.964,0,0,1,.962.962h0A.964.964,0,0,1,256.253,212.345Z" transform="translate(-166.87 -204.858)" fill="#12263f"/>
        <path id="Path_120176" data-name="Path 120176" d="M211.489,217.248H167.874a.99.99,0,0,0-.995.864.956.956,0,0,0,.954,1.052h43.656a.964.964,0,0,0,.962-.962h0a.964.964,0,0,0-.962-.962Z" transform="translate(-166.871 -206.116)" fill="#12263f"/>
      </g>
      <g id="Group_113732" data-name="Group 113732" transform="translate(52.154 164.763)">
        <path id="Path_120177" data-name="Path 120177" d="M255.763,241.435h-88.42a.964.964,0,0,1-.962-.962h0a.964.964,0,0,1,.962-.962h88.42a.964.964,0,0,1,.962.962h0A.964.964,0,0,1,255.763,241.435Z" transform="translate(-166.38 -239.51)" fill="#12263f"/>
        <path id="Path_120178" data-name="Path 120178" d="M255.763,248.255h-88.42a.964.964,0,0,1-.962-.962h0a.964.964,0,0,1,.962-.962h88.42a.964.964,0,0,1,.962.962h0A.964.964,0,0,1,255.763,248.255Z" transform="translate(-166.38 -240.768)" fill="#12263f"/>
        <path id="Path_120179" data-name="Path 120179" d="M211,253.148H167.384a.99.99,0,0,0-.995.864.956.956,0,0,0,.954,1.052H211a.964.964,0,0,0,.962-.962h0a.964.964,0,0,0-.962-.962Z" transform="translate(-166.381 -242.024)" fill="#12263f"/>
      </g>
      <g id="Group_113733" data-name="Group 113733" transform="translate(52.553 195.835)">
        <path id="Path_120180" data-name="Path 120180" d="M256.253,279.535h-88.42a.964.964,0,0,1-.962-.962h0a.964.964,0,0,1,.962-.962h88.42a.964.964,0,0,1,.962.962h0A.964.964,0,0,1,256.253,279.535Z" transform="translate(-166.87 -277.61)" fill="#12263f"/>
        <path id="Path_120181" data-name="Path 120181" d="M256.253,286.355h-88.42a.964.964,0,0,1-.962-.962h0a.964.964,0,0,1,.962-.962h88.42a.964.964,0,0,1,.962.962h0A.964.964,0,0,1,256.253,286.355Z" transform="translate(-166.87 -278.868)" fill="#12263f"/>
        <path id="Path_120182" data-name="Path 120182" d="M211.489,291.248H167.874a.99.99,0,0,0-.995.864.956.956,0,0,0,.954,1.052h43.656a.964.964,0,0,0,.962-.962h0a.964.964,0,0,0-.962-.962Z" transform="translate(-166.871 -280.124)" fill="#12263f"/>
      </g>
      <path id="Path_120183" data-name="Path 120183" d="M169.66,105.9h56.378l-.587-15.038h-55.2Z" transform="translate(-114.832 -47.327)" fill="#12263f"/>
      <path id="Path_120184" data-name="Path 120184" d="M233.118,105.53H176.74l.864-16.67h54.649Z" transform="translate(-116.138 -46.958)" fill="#5da6c7"/>
      <path id="Path_120185" data-name="Path 120185" d="M211.348,68.94h0a7.125,7.125,0,0,0-7.128,7.128V86.743h14.247V76.068a7.125,7.125,0,0,0-7.128-7.128Zm0,9.036a2.814,2.814,0,1,1,2.814-2.814A2.814,2.814,0,0,1,211.348,77.976Z" transform="translate(-121.207 -43.283)" fill="#5da6c7"/>
      <g id="Group_113743" data-name="Group 113743" transform="translate(162.846 108.963)">
        <g id="Group_113735" data-name="Group 113735" transform="translate(49.135 142.638)">
          <path id="Path_120186" data-name="Path 120186" d="M396.931,350.28V361.8c0,1.859-20.78,3.376-46.42,3.376s-46.42-1.509-46.42-3.376V350.28h92.832Z" transform="translate(-304.09 -346.781)" fill="#197ca3"/>
          <g id="Group_113734" data-name="Group 113734" transform="translate(0 3.491)">
            <path id="Path_120187" data-name="Path 120187" d="M376.74,365.049V350.28h33.592V361.8c0,1.541-14.19,2.838-33.592,3.246Z" transform="translate(-317.491 -350.272)" fill="#5da6c7"/>
            <path id="Path_120188" data-name="Path 120188" d="M368.554,365.072c-3.6.065-7.381.1-11.263.1-5.79,0-11.328-.073-16.441-.22V350.27h27.7v14.794Z" transform="translate(-310.871 -350.27)" fill="#5da6c7"/>
            <path id="Path_120189" data-name="Path 120189" d="M332.21,364.9c-16.539-.514-28.12-1.713-28.12-3.1V350.28h28.12Z" transform="translate(-304.09 -350.272)" fill="#5da6c7"/>
          </g>
          <path id="Path_120190" data-name="Path 120190" d="M304.09,349.366c0,1.859,20.78,3.376,46.42,3.376s46.42-1.509,46.42-3.376-20.78-3.376-46.42-3.376S304.09,347.5,304.09,349.366Z" transform="translate(-304.09 -345.99)" fill="#197ca3"/>
          <ellipse id="Ellipse_4746" data-name="Ellipse 4746" cx="38.224" cy="2.341" rx="38.224" ry="2.341" transform="translate(8.196 1.036)" fill="#e8f3f7"/>
        </g>
        <g id="Group_113737" data-name="Group 113737" transform="translate(36.306 130.446)">
          <path id="Path_120191" data-name="Path 120191" d="M381.2,335.33v11.523c0,1.859-20.78,3.376-46.42,3.376s-46.42-1.509-46.42-3.376V335.33h92.832Z" transform="translate(-288.36 -331.831)" fill="#197ca3"/>
          <g id="Group_113736" data-name="Group 113736" transform="translate(0.008 3.49)">
            <path id="Path_120192" data-name="Path 120192" d="M361.01,350.1V335.33H394.6v11.523C394.6,348.395,380.412,349.692,361.01,350.1Z" transform="translate(-301.77 -335.322)" fill="#5da6c7"/>
            <path id="Path_120193" data-name="Path 120193" d="M352.824,350.122c-3.6.065-7.381.1-11.263.1-5.79,0-11.328-.073-16.441-.22V335.32h27.7v14.794Z" transform="translate(-295.149 -335.32)" fill="#5da6c7"/>
            <path id="Path_120194" data-name="Path 120194" d="M316.49,349.953c-16.539-.514-28.12-1.713-28.12-3.1V335.33h28.12Z" transform="translate(-288.37 -335.322)" fill="#5da6c7"/>
          </g>
          <ellipse id="Ellipse_4747" data-name="Ellipse 4747" cx="46.42" cy="3.376" rx="46.42" ry="3.376" fill="#197ca3"/>
          <path id="Path_120195" data-name="Path 120195" d="M298.41,334.651c0,1.289,17.11,2.341,38.224,2.341s38.224-1.044,38.224-2.341-17.11-2.341-38.224-2.341S298.41,333.354,298.41,334.651Z" transform="translate(-290.214 -331.274)" fill="#e8f3f7"/>
        </g>
        <g id="Group_113739" data-name="Group 113739" transform="translate(47.805 117.927)">
          <path id="Path_120196" data-name="Path 120196" d="M395.3,319.98V331.5c0,1.859-20.78,3.376-46.42,3.376s-46.42-1.509-46.42-3.376V319.98h92.832Z" transform="translate(-302.46 -316.481)" fill="#197ca3"/>
          <g id="Group_113738" data-name="Group 113738" transform="translate(0 3.491)">
            <path id="Path_120197" data-name="Path 120197" d="M375.11,334.749V319.98H408.7V331.5C408.7,333.045,394.512,334.342,375.11,334.749Z" transform="translate(-315.861 -319.972)" fill="#5da6c7"/>
            <path id="Path_120198" data-name="Path 120198" d="M366.924,334.772c-3.6.065-7.381.1-11.263.1-5.79,0-11.328-.073-16.441-.22V319.97h27.7v14.794Z" transform="translate(-309.241 -319.97)" fill="#5da6c7"/>
            <path id="Path_120199" data-name="Path 120199" d="M330.58,334.6c-16.539-.514-28.12-1.713-28.12-3.1V319.98h28.12Z" transform="translate(-302.46 -319.972)" fill="#5da6c7"/>
          </g>
          <path id="Path_120200" data-name="Path 120200" d="M302.46,319.066c0,1.859,20.78,3.376,46.42,3.376s46.42-1.509,46.42-3.376-20.78-3.376-46.42-3.376-46.42,1.509-46.42,3.376Z" transform="translate(-302.46 -315.69)" fill="#197ca3"/>
          <path id="Path_120201" data-name="Path 120201" d="M312.51,319.3c0,1.289,17.11,2.341,38.224,2.341s38.224-1.044,38.224-2.341-17.11-2.341-38.224-2.341S312.51,318,312.51,319.3Z" transform="translate(-304.314 -315.924)" fill="#e8f3f7"/>
        </g>
        <g id="Group_113741" data-name="Group 113741" transform="translate(36.306 105.58)">
          <path id="Path_120202" data-name="Path 120202" d="M381.2,304.84v11.523c0,1.859-20.78,3.376-46.42,3.376s-46.42-1.509-46.42-3.376V304.84h92.832Z" transform="translate(-288.36 -301.341)" fill="#197ca3"/>
          <g id="Group_113740" data-name="Group 113740" transform="translate(0.008 3.491)">
            <path id="Path_120203" data-name="Path 120203" d="M361.01,319.609V304.84H394.6v11.524C394.6,317.9,380.412,319.2,361.01,319.609Z" transform="translate(-301.77 -304.832)" fill="#5da6c7"/>
            <path id="Path_120204" data-name="Path 120204" d="M352.824,319.632c-3.6.065-7.381.1-11.263.1-5.79,0-11.328-.073-16.441-.22V304.83h27.7v14.794Z" transform="translate(-295.149 -304.83)" fill="#5da6c7"/>
            <path id="Path_120205" data-name="Path 120205" d="M316.49,319.463c-16.539-.514-28.12-1.713-28.12-3.1V304.84h28.12Z" transform="translate(-288.37 -304.832)" fill="#5da6c7"/>
          </g>
          <path id="Path_120206" data-name="Path 120206" d="M288.36,303.926c0,1.859,20.78,3.376,46.42,3.376s46.42-1.509,46.42-3.376-20.78-3.376-46.42-3.376S288.36,302.059,288.36,303.926Z" transform="translate(-288.36 -300.55)" fill="#197ca3"/>
          <path id="Path_120207" data-name="Path 120207" d="M298.41,304.161c0,1.289,17.11,2.341,38.224,2.341s38.224-1.044,38.224-2.341-17.11-2.341-38.224-2.341S298.41,302.864,298.41,304.161Z" transform="translate(-290.214 -300.784)" fill="#e8f3f7"/>
        </g>
        <g id="Group_113742" data-name="Group 113742">
          <path id="Path_120208" data-name="Path 120208" d="M336.188,173.61a24.913,24.913,0,0,0,2.911-1.166,14.835,14.835,0,0,1,3.319-1.248c1.835-.285,4.991-.1,6.736,1.786,2.169,2.349,6.027.424,5.252,12.722-.881,13.913-8.645,12.388-8.832,12.151s-6.924-8.906-6.924-8.906-2.357,5.138-2.357,4.942-12.029-16.294-.106-20.3Z" transform="translate(-259.904 -171.089)" fill="#12263f"/>
          <path id="Path_120209" data-name="Path 120209" d="M296.574,351.582s-1.1,5.856-1.1,5.864c-.065.767-.041,2.691-.2,3.36-.62,2.5-11.148-3.58-8.384-4.07a11.355,11.355,0,0,0,2.479-2.65,22.99,22.99,0,0,0,1.386-3.866l5.831,1.37Z" transform="translate(-251.697 -204.132)" fill="#f7a491"/>
          <path id="Path_120210" data-name="Path 120210" d="M284.972,357.568a39.158,39.158,0,0,0,4.1.807c1.386.139,3.156-2.014,4.151-1.607,1.093.449,1.688,7.266,1.688,7.266s-17.371.791-21.473-.343c-1.623-.449,6.133-4.061,11.532-6.133Z" transform="translate(-249.261 -205.331)" fill="#197ca3"/>
          <path id="Path_120211" data-name="Path 120211" d="M266.915,351.25s-1.1,5.856-1.1,5.864c-.065.767-.041,2.691-.2,3.36-.62,2.5-10.953-3.181-8.2-3.67a15.272,15.272,0,0,0,2.283-3.058,22.994,22.994,0,0,0,1.386-3.866Z" transform="translate(-246.259 -204.069)" fill="#f7a491"/>
          <path id="Path_120212" data-name="Path 120212" d="M255.592,357.568a39.159,39.159,0,0,0,4.1.807c1.386.139,3.156-2.014,4.151-1.607,1.093.449,1.688,7.266,1.688,7.266s-17.371.791-21.473-.343c-1.623-.449,6.133-4.061,11.532-6.133Z" transform="translate(-243.842 -205.331)" fill="#197ca3"/>
          <path id="Path_120213" data-name="Path 120213" d="M327.833,277.706l-31.6-7.332s-14.174-3.743-17.591.652-17.95,65.1-17.95,65.1,7.495.652,7.984.326l17.542-31.129a27.128,27.128,0,0,0,3.238-9.574l1.248-8.914,12.869,3.743s14.826,3.254,20.845-.489S327.833,277.706,327.833,277.706Z" transform="translate(-246.949 -189.129)" fill="#082330"/>
          <path id="Path_120214" data-name="Path 120214" d="M325.843,212.9c-.5.024-1.868.473-3.866,4.241-2.553,4.812-6.288,19.345-6.288,19.345l11.14,4.135,1.435-3.034,2.357-23.349s-4.64-1.346-4.779-1.337Z" transform="translate(-257.095 -178.801)" fill="#e8f3f7"/>
          <path id="Path_120215" data-name="Path 120215" d="M342.708,210.33a67.946,67.946,0,0,0-14.729,2.1s-2.691,23.023,2.422,40.524c1.142,3.915-.946,16.237-.946,16.237l33.013-.432s-3.915-29.783-2.438-34.595,1.509-21.579,1.509-21.579-.228-.033-7.421-1.272a75.432,75.432,0,0,0-11.418-.979Z" transform="translate(-259.232 -178.327)" fill="#fcfefe"/>
          <path id="Path_120216" data-name="Path 120216" d="M361.053,216.222c-3.091-1.15-4.6,26.562-5.015,37.979-5.464.522-15,0-17.371-.171-1.117-.082-3.686-1.019-4.8-1.166a11.184,11.184,0,0,0-2.724-.131c-.2.033-5.9,2.357-6.394,2.871-.6.628-2.243,2.226-1.965,2.911s3.14-1.917,3.14-1.917l1.4-.783c-1.745,1.7-5.073,3.939-4.591,4.746.465.791,3.466-1.476,5.611-3.026-1.835,1.656-4.11,4.608-3.588,5.064.473.416,3.066-3.009,5.839-4,1.028-.367,2.047.644,2.854.767a5.878,5.878,0,0,0,2.1.114l2.781-.269a14.222,14.222,0,0,1,2.3.334c1.2.253,3.164.522,4.689.9,8.783,2.137,11.719,3.132,14.411,3.132,8.147,0,8.62-44.634,1.329-47.358Z" transform="translate(-258.387 -179.408)" fill="#f7a491"/>
          <path id="Path_120217" data-name="Path 120217" d="M374.087,241.659c.579-11.687.5-26.089-6.084-28.552-2.593-.971-7.168,4.861-6.345,28.788,3.507.285,8.661.522,12.421-.237Z" transform="translate(-265.556 -178.821)" fill="#e8f3f7"/>
          <path id="Path_120218" data-name="Path 120218" d="M286.651,239.373l31.1,2.031a2.042,2.042,0,0,1,1.794,1.378l8.049,23.985,17.151,1.117a.879.879,0,0,1,.816.922h0a.866.866,0,0,1-.922.807l-48.81-3.189a3.414,3.414,0,0,1-2.977-2.218l-8.237-22.117a2.034,2.034,0,0,1,2.039-2.74Z" transform="translate(-251.34 -183.68)" fill="#383838"/>
          <path id="Path_120219" data-name="Path 120219" d="M306.139,257.088a1.715,1.715,0,1,0,1.582-2.039A1.843,1.843,0,0,0,306.139,257.088Z" transform="translate(-255.332 -186.576)" fill="#fcfefe"/>
          <path id="Path_120220" data-name="Path 120220" d="M355.459,279.563l-34.432-5.945s-14.892-2.267-18.309,2.129-13.358,61.41-13.358,61.41,7.495.652,7.984.326c.375-.253,9.452-19.255,13.522-27.818a32.271,32.271,0,0,0,2.7-8.571l1.313-7.756,4.331,1.492a52.922,52.922,0,0,0,23.724,2.536c3.344-.416,6.467-1.134,8.408-2.332,6.027-3.743,4.118-15.463,4.118-15.463Z" transform="translate(-252.238 -189.894)" fill="#0d3342"/>
          <path id="Path_120221" data-name="Path 120221" d="M344.333,203.409l-.669,4.975s-1.5,7.16.432,8.547,8.212-8.751,8.212-8.751l-.661-12.6-7.307,7.829Z" transform="translate(-262.153 -175.607)" fill="#f7a491"/>
          <path id="Path_120222" data-name="Path 120222" d="M352.01,199.658a14.331,14.331,0,0,1-8.09,7.968l.571-4.216,7.307-7.829.212,4.086Z" transform="translate(-262.303 -175.607)" fill="#f47458"/>
          <path id="Path_120223" data-name="Path 120223" d="M343.367,178.741a6.64,6.64,0,0,0-7.658,6.7,48.688,48.688,0,0,0,.563,6.377c.889,5.741,4.82,10.8,7.421,10.341s9.134-5.4,7.984-13.571c-.71-5.04-4-9.167-8.3-9.852Z" transform="translate(-260.788 -172.485)" fill="#f7a491"/>
          <path id="Path_120224" data-name="Path 120224" d="M353.05,191.444a1.934,1.934,0,1,0,1.468-2.61A2.136,2.136,0,0,0,353.05,191.444Z" transform="translate(-263.979 -174.358)" fill="#f7a491"/>
          <path id="Path_120225" data-name="Path 120225" d="M351.14,186.531s-3.14.775-4.306-1.24-5.334-6.361-10.635-4.559,4.665-4.379,5.089-4.379,5.513-.033,5.513-.033,3.923,3.213,4.061,3.572,1.272,4.2,1.272,4.2Z" transform="translate(-260.592 -172.054)" fill="#12263f"/>
        </g>
      </g>
    </g>
    <rect id="Rectangle_297312" data-name="Rectangle 297312" width="383" height="270" transform="translate(156 1930)" fill="none"/>
  </g>
</svg>
