<svg xmlns="http://www.w3.org/2000/svg" width="610" height="250" viewBox="0 0 610 250">
  <g id="_9" data-name="9" transform="translate(-495 -2309)">
    <rect id="Rectangle_297895" data-name="Rectangle 297895" width="610" height="250" transform="translate(495 2309)" fill="none"/>
    <g id="Group_174144" data-name="Group 174144" transform="translate(-0.002 17.5)">
      <path id="Union_1" data-name="Union 1" d="M8570.337,11735.334h-164.67v9.332L8373,11722.333l32.664-22.334v9.335h164.67V11700l32.664,22.334-32.664,22.333Z" transform="translate(-7688 -9323.332)" fill="#ffb30b"/>
      <g id="Group_174142" data-name="Group 174142">
        <circle id="Ellipse_13014" data-name="Ellipse 13014" cx="1.5" cy="1.5" r="1.5" transform="translate(799 2369)" fill="#b9ddfc"/>
        <circle id="Ellipse_13021" data-name="Ellipse 13021" cx="1.5" cy="1.5" r="1.5" transform="translate(799 2337)" fill="#b9ddfc"/>
        <circle id="Ellipse_13017" data-name="Ellipse 13017" cx="1.5" cy="1.5" r="1.5" transform="translate(799 2353)" fill="#b9ddfc"/>
        <circle id="Ellipse_13019" data-name="Ellipse 13019" cx="1.5" cy="1.5" r="1.5" transform="translate(799 2321)" fill="#b9ddfc"/>
        <circle id="Ellipse_13015" data-name="Ellipse 13015" cx="1.5" cy="1.5" r="1.5" transform="translate(799 2361)" fill="#b9ddfc"/>
        <circle id="Ellipse_13020" data-name="Ellipse 13020" cx="1.5" cy="1.5" r="1.5" transform="translate(799 2329)" fill="#b9ddfc"/>
        <circle id="Ellipse_13016" data-name="Ellipse 13016" cx="1.5" cy="1.5" r="1.5" transform="translate(799 2345)" fill="#b9ddfc"/>
        <circle id="Ellipse_13018" data-name="Ellipse 13018" cx="1.5" cy="1.5" r="1.5" transform="translate(799 2313)" fill="#b9ddfc"/>
        <circle id="Ellipse_13022" data-name="Ellipse 13022" cx="1.5" cy="1.5" r="1.5" transform="translate(799 2305)" fill="#b9ddfc"/>
      </g>
      <g id="Group_174143" data-name="Group 174143" transform="translate(0 156)">
        <circle id="Ellipse_13014-2" data-name="Ellipse 13014" cx="1.5" cy="1.5" r="1.5" transform="translate(799 2369)" fill="#b9ddfc"/>
        <circle id="Ellipse_13021-2" data-name="Ellipse 13021" cx="1.5" cy="1.5" r="1.5" transform="translate(799 2337)" fill="#b9ddfc"/>
        <circle id="Ellipse_13017-2" data-name="Ellipse 13017" cx="1.5" cy="1.5" r="1.5" transform="translate(799 2353)" fill="#b9ddfc"/>
        <circle id="Ellipse_13019-2" data-name="Ellipse 13019" cx="1.5" cy="1.5" r="1.5" transform="translate(799 2321)" fill="#b9ddfc"/>
        <circle id="Ellipse_13015-2" data-name="Ellipse 13015" cx="1.5" cy="1.5" r="1.5" transform="translate(799 2361)" fill="#b9ddfc"/>
        <circle id="Ellipse_13020-2" data-name="Ellipse 13020" cx="1.5" cy="1.5" r="1.5" transform="translate(799 2329)" fill="#b9ddfc"/>
        <circle id="Ellipse_13016-2" data-name="Ellipse 13016" cx="1.5" cy="1.5" r="1.5" transform="translate(799 2345)" fill="#b9ddfc"/>
        <circle id="Ellipse_13018-2" data-name="Ellipse 13018" cx="1.5" cy="1.5" r="1.5" transform="translate(799 2313)" fill="#b9ddfc"/>
        <circle id="Ellipse_13022-2" data-name="Ellipse 13022" cx="1.5" cy="1.5" r="1.5" transform="translate(799 2305)" fill="#b9ddfc"/>
      </g>
      <path id="Path_207471" data-name="Path 207471" d="M6.914-2.984A1.2,1.2,0,0,0,6.445-4a6.148,6.148,0,0,0-1.687-.75,11.963,11.963,0,0,1-1.93-.777A3.153,3.153,0,0,1,.891-8.352,2.747,2.747,0,0,1,1.41-10,3.389,3.389,0,0,1,2.9-11.125a5.616,5.616,0,0,1,2.184-.406,5.112,5.112,0,0,1,2.172.441,3.458,3.458,0,0,1,1.48,1.246,3.261,3.261,0,0,1,.527,1.828H6.922A1.534,1.534,0,0,0,6.43-9.23a2.023,2.023,0,0,0-1.383-.434A2.162,2.162,0,0,0,3.711-9.3a1.146,1.146,0,0,0-.477.957,1.1,1.1,0,0,0,.559.93,6.311,6.311,0,0,0,1.645.7A7.106,7.106,0,0,1,8.352-5.219,2.972,2.972,0,0,1,9.266-3,2.737,2.737,0,0,1,8.148-.684a4.891,4.891,0,0,1-3.008.84A5.808,5.808,0,0,1,2.75-.324,3.783,3.783,0,0,1,1.105-1.641,3.371,3.371,0,0,1,.539-3.578H2.891q0,1.883,2.25,1.883a2.189,2.189,0,0,0,1.3-.34A1.106,1.106,0,0,0,6.914-2.984ZM10.352-4.3a5.013,5.013,0,0,1,.484-2.242A3.546,3.546,0,0,1,12.23-8.07a4.069,4.069,0,0,1,2.113-.539,3.849,3.849,0,0,1,2.793,1.047,4.2,4.2,0,0,1,1.207,2.844l.016.578A4.418,4.418,0,0,1,17.273-1.02,3.775,3.775,0,0,1,14.359.156a3.793,3.793,0,0,1-2.918-1.172A4.5,4.5,0,0,1,10.352-4.2Zm2.258.16A3.16,3.16,0,0,0,13.063-2.3a1.5,1.5,0,0,0,1.3.638,1.5,1.5,0,0,0,1.281-.63A3.457,3.457,0,0,0,16.1-4.309a3.128,3.128,0,0,0-.461-1.831,1.5,1.5,0,0,0-1.3-.649,1.474,1.474,0,0,0-1.281.646A3.516,3.516,0,0,0,12.609-4.144ZM22.133,0H19.867V-12h2.266Zm4.242,0H24.109V-8.453h2.266Zm-2.4-10.641a1.112,1.112,0,0,1,.34-.836,1.277,1.277,0,0,1,.926-.328,1.28,1.28,0,0,1,.922.328,1.105,1.105,0,0,1,.344.836,1.108,1.108,0,0,1-.348.844,1.283,1.283,0,0,1-.918.328,1.283,1.283,0,0,1-.918-.328A1.108,1.108,0,0,1,23.977-10.641ZM31.75-1.664a1.481,1.481,0,0,0,1.016-.344,1.2,1.2,0,0,0,.406-.914h2.117a2.9,2.9,0,0,1-.469,1.574A3.093,3.093,0,0,1,33.559-.238a3.949,3.949,0,0,1-1.77.395A3.67,3.67,0,0,1,28.93-1,4.56,4.56,0,0,1,27.883-4.18v-.148a4.508,4.508,0,0,1,1.039-3.117,3.627,3.627,0,0,1,2.852-1.164,3.555,3.555,0,0,1,2.543.9,3.2,3.2,0,0,1,.973,2.4H33.172a1.551,1.551,0,0,0-.406-1.072,1.354,1.354,0,0,0-1.031-.412,1.36,1.36,0,0,0-1.191.575,3.333,3.333,0,0,0-.4,1.866v.235a3.375,3.375,0,0,0,.4,1.878A1.377,1.377,0,0,0,31.75-1.664ZM38.961,0H36.7V-8.453h2.266Zm-2.4-10.641a1.112,1.112,0,0,1,.34-.836,1.277,1.277,0,0,1,.926-.328,1.28,1.28,0,0,1,.922.328,1.105,1.105,0,0,1,.344.836,1.108,1.108,0,0,1-.348.844,1.283,1.283,0,0,1-.918.328A1.283,1.283,0,0,1,36.91-9.8,1.108,1.108,0,0,1,36.563-10.641Zm6.961.109v2.078h1.445V-6.8H43.523v4.219a1.007,1.007,0,0,0,.18.672.9.9,0,0,0,.688.2,3.6,3.6,0,0,0,.664-.055V-.047a4.648,4.648,0,0,1-1.367.2,2.156,2.156,0,0,1-2.422-2.4V-6.8H40.031V-8.453h1.234v-2.078ZM51.289-.859A2.831,2.831,0,0,1,48.977.156,2.67,2.67,0,0,1,46.9-.625a3.335,3.335,0,0,1-.73-2.289V-8.453H48.43v5.467q0,1.322,1.2,1.322a1.63,1.63,0,0,0,1.578-.8V-8.453h2.266V0H51.352Zm3.539-3.43a5.094,5.094,0,0,1,.887-3.148,2.877,2.877,0,0,1,2.426-1.172,2.589,2.589,0,0,1,2.039.922V-12h2.266V0H60.406L60.3-.9A2.657,2.657,0,0,1,58.125.156,2.869,2.869,0,0,1,55.73-1.02,5.258,5.258,0,0,1,54.828-4.289Zm2.258.168A3.337,3.337,0,0,0,57.5-2.3a1.349,1.349,0,0,0,1.2.634,1.511,1.511,0,0,0,1.477-.884V-5.889a1.489,1.489,0,0,0-1.461-.884Q57.086-6.773,57.086-4.121ZM77.586,0H75.242V-4.875h-4.57V0H68.328V-11.375h2.344v4.609h4.57v-4.609h2.344ZM87.969-9.477H84.484V0H82.141V-9.477H78.7v-1.9h9.266Zm10.023,0H94.508V0H92.164V-9.477H88.727v-1.9h9.266Zm3.68,5.469V0H99.328V-11.375h4.438a5.134,5.134,0,0,1,2.254.469,3.454,3.454,0,0,1,1.5,1.332,3.714,3.714,0,0,1,.523,1.965,3.266,3.266,0,0,1-1.145,2.637,4.767,4.767,0,0,1-3.168.965Zm0-1.9h2.094a2.059,2.059,0,0,0,1.418-.437,1.591,1.591,0,0,0,.488-1.25,1.876,1.876,0,0,0-.492-1.352,1.839,1.839,0,0,0-1.359-.531h-2.148Z" transform="translate(745.002 2404.5)" fill="#12263f"/>
    </g>
    <path id="Path_207472" data-name="Path 207472" d="M4.907-5.72H7.881v1.282H4.907v3.369H3.545V-4.438H.571V-5.72H3.545V-8.833H4.907Zm14.575.791H14.861V-1.15h5.369V0H13.455V-10.664h6.7v1.15h-5.3v3.435h4.622Zm3.567-3,.044,1a2.888,2.888,0,0,1,2.373-1.143q2.512,0,2.534,2.834V0H26.646V-5.244a1.824,1.824,0,0,0-.392-1.267,1.57,1.57,0,0,0-1.2-.41A1.956,1.956,0,0,0,23.9-6.57a2.387,2.387,0,0,0-.776.923V0H21.768V-7.925ZM33.223-.959A1.952,1.952,0,0,0,34.49-1.4a1.546,1.546,0,0,0,.6-1.1h1.282A2.457,2.457,0,0,1,35.9-1.2,3.087,3.087,0,0,1,34.75-.22a3.329,3.329,0,0,1-1.527.366,3.265,3.265,0,0,1-2.574-1.08,4.3,4.3,0,0,1-.956-2.955v-.227a4.771,4.771,0,0,1,.425-2.058,3.236,3.236,0,0,1,1.219-1.4,3.464,3.464,0,0,1,1.879-.5,3.178,3.178,0,0,1,2.216.8A2.853,2.853,0,0,1,36.372-5.2H35.09a1.867,1.867,0,0,0-.582-1.263,1.811,1.811,0,0,0-1.293-.494,1.9,1.9,0,0,0-1.6.743,3.491,3.491,0,0,0-.568,2.15v.256A3.422,3.422,0,0,0,31.611-1.7,1.906,1.906,0,0,0,33.223-.959ZM42.788,0a2.846,2.846,0,0,1-.19-.835,3.023,3.023,0,0,1-2.256.981,2.8,2.8,0,0,1-1.923-.663A2.145,2.145,0,0,1,37.668-2.2,2.24,2.24,0,0,1,38.61-4.12,4.437,4.437,0,0,1,41.257-4.8h1.318v-.623a1.522,1.522,0,0,0-.425-1.132A1.707,1.707,0,0,0,40.9-6.98a1.976,1.976,0,0,0-1.216.366,1.079,1.079,0,0,0-.491.886H37.83a1.87,1.87,0,0,1,.421-1.146,2.874,2.874,0,0,1,1.143-.875,3.844,3.844,0,0,1,1.586-.322,3.133,3.133,0,0,1,2.146.685A2.47,2.47,0,0,1,43.931-5.5v3.647a4.459,4.459,0,0,0,.278,1.736V0ZM40.54-1.033a2.381,2.381,0,0,0,1.208-.33,1.994,1.994,0,0,0,.828-.857V-3.845H41.514q-2.49,0-2.49,1.458a1.234,1.234,0,0,0,.425,1A1.633,1.633,0,0,0,40.54-1.033ZM52.764-3.875a4.712,4.712,0,0,1-.835,2.919,2.668,2.668,0,0,1-2.241,1.1A2.763,2.763,0,0,1,47.366-.916L47.3,0H46.055V-11.25H47.41v4.2a2.747,2.747,0,0,1,2.263-1.018A2.684,2.684,0,0,1,51.94-6.98a4.853,4.853,0,0,1,.824,2.988Zm-1.355-.154a3.662,3.662,0,0,0-.535-2.139,1.77,1.77,0,0,0-1.538-.754A1.989,1.989,0,0,0,47.41-5.676v3.428A2.045,2.045,0,0,0,49.351-1a1.76,1.76,0,0,0,1.516-.754A3.894,3.894,0,0,0,51.409-4.028ZM57.759.146A3.463,3.463,0,0,1,55.137-.912a3.928,3.928,0,0,1-1.011-2.831v-.249a4.756,4.756,0,0,1,.45-2.106,3.514,3.514,0,0,1,1.26-1.45,3.167,3.167,0,0,1,1.754-.524,2.968,2.968,0,0,1,2.4,1.018,4.408,4.408,0,0,1,.857,2.915v.564H55.481a2.817,2.817,0,0,0,.685,1.893,2.153,2.153,0,0,0,1.666.721,2.36,2.36,0,0,0,1.216-.293,3.055,3.055,0,0,0,.872-.776l.828.645A3.328,3.328,0,0,1,57.759.146Zm-.168-7.1a1.807,1.807,0,0,0-1.377.6,2.9,2.9,0,0,0-.688,1.674h3.97v-.1a2.581,2.581,0,0,0-.557-1.6A1.7,1.7,0,0,0,57.59-6.958Zm6.1,5.852h4.636V0H62.036V-1L66.409-6.8H62.1V-7.925h6.006v.959ZM74.744,0a2.846,2.846,0,0,1-.19-.835A3.023,3.023,0,0,1,72.3.146a2.8,2.8,0,0,1-1.923-.663A2.145,2.145,0,0,1,69.624-2.2a2.24,2.24,0,0,1,.941-1.923A4.437,4.437,0,0,1,73.213-4.8h1.318v-.623a1.522,1.522,0,0,0-.425-1.132,1.707,1.707,0,0,0-1.252-.421,1.976,1.976,0,0,0-1.216.366,1.079,1.079,0,0,0-.491.886H69.785a1.87,1.87,0,0,1,.421-1.146,2.874,2.874,0,0,1,1.143-.875,3.844,3.844,0,0,1,1.586-.322,3.133,3.133,0,0,1,2.146.685A2.47,2.47,0,0,1,75.886-5.5v3.647a4.459,4.459,0,0,0,.278,1.736V0ZM72.5-1.033a2.381,2.381,0,0,0,1.208-.33,1.994,1.994,0,0,0,.828-.857V-3.845H73.469q-2.49,0-2.49,1.458a1.234,1.234,0,0,0,.425,1A1.633,1.633,0,0,0,72.5-1.033Zm5.186-3a4.642,4.642,0,0,1,.864-2.933,2.733,2.733,0,0,1,2.263-1.11,2.748,2.748,0,0,1,2.2.952V-11.25h1.355V0H83.123l-.066-.85a2.759,2.759,0,0,1-2.263,1A2.707,2.707,0,0,1,78.549-.981a4.7,4.7,0,0,1-.868-2.944Zm1.355.154a3.515,3.515,0,0,0,.557,2.109A1.8,1.8,0,0,0,81.13-1a1.977,1.977,0,0,0,1.882-1.157V-5.8a1.992,1.992,0,0,0-1.868-1.121,1.808,1.808,0,0,0-1.553.769A3.87,3.87,0,0,0,79.036-3.875Zm7.075-.161a4.681,4.681,0,0,1,.458-2.095,3.415,3.415,0,0,1,1.274-1.436,3.469,3.469,0,0,1,1.864-.505,3.342,3.342,0,0,1,2.618,1.121,4.311,4.311,0,0,1,1,2.981v.1A4.722,4.722,0,0,1,92.882-1.8,3.365,3.365,0,0,1,91.615-.366a3.509,3.509,0,0,1-1.893.513A3.334,3.334,0,0,1,87.111-.974a4.29,4.29,0,0,1-1-2.966Zm1.362.161a3.39,3.39,0,0,0,.612,2.117,1.957,1.957,0,0,0,1.637.8,1.945,1.945,0,0,0,1.641-.809,3.707,3.707,0,0,0,.608-2.267,3.384,3.384,0,0,0-.619-2.113,1.968,1.968,0,0,0-1.644-.809,1.946,1.946,0,0,0-1.619.8A3.68,3.68,0,0,0,87.473-3.875Zm10.935-.154a4.642,4.642,0,0,1,.864-2.933,2.733,2.733,0,0,1,2.263-1.11,2.748,2.748,0,0,1,2.2.952V-11.25H105.1V0H103.85l-.066-.85a2.759,2.759,0,0,1-2.263,1A2.707,2.707,0,0,1,99.276-.981a4.7,4.7,0,0,1-.868-2.944Zm1.355.154a3.515,3.515,0,0,0,.557,2.109A1.8,1.8,0,0,0,101.858-1a1.977,1.977,0,0,0,1.882-1.157V-5.8a1.992,1.992,0,0,0-1.868-1.121,1.808,1.808,0,0,0-1.553.769A3.87,3.87,0,0,0,99.763-3.875ZM110.486.146a3.463,3.463,0,0,1-2.622-1.058,3.928,3.928,0,0,1-1.011-2.831v-.249A4.756,4.756,0,0,1,107.3-6.1a3.514,3.514,0,0,1,1.26-1.45,3.167,3.167,0,0,1,1.754-.524,2.968,2.968,0,0,1,2.4,1.018,4.408,4.408,0,0,1,.857,2.915v.564h-5.369a2.817,2.817,0,0,0,.685,1.893,2.153,2.153,0,0,0,1.666.721,2.36,2.36,0,0,0,1.216-.293,3.055,3.055,0,0,0,.872-.776l.828.645A3.328,3.328,0,0,1,110.486.146Zm-.168-7.1a1.807,1.807,0,0,0-1.377.6,2.9,2.9,0,0,0-.688,1.674h3.97v-.1a2.581,2.581,0,0,0-.557-1.6A1.7,1.7,0,0,0,110.317-6.958ZM123.75,0a2.846,2.846,0,0,1-.19-.835A3.023,3.023,0,0,1,121.3.146a2.8,2.8,0,0,1-1.923-.663A2.145,2.145,0,0,1,118.63-2.2a2.24,2.24,0,0,1,.941-1.923,4.437,4.437,0,0,1,2.648-.685h1.318v-.623a1.522,1.522,0,0,0-.425-1.132,1.707,1.707,0,0,0-1.252-.421,1.976,1.976,0,0,0-1.216.366,1.079,1.079,0,0,0-.491.886h-1.362a1.87,1.87,0,0,1,.421-1.146,2.874,2.874,0,0,1,1.143-.875,3.844,3.844,0,0,1,1.586-.322,3.133,3.133,0,0,1,2.146.685,2.47,2.47,0,0,1,.806,1.886v3.647a4.459,4.459,0,0,0,.278,1.736V0ZM121.5-1.033a2.381,2.381,0,0,0,1.208-.33,1.994,1.994,0,0,0,.828-.857V-3.845h-1.062q-2.49,0-2.49,1.458a1.234,1.234,0,0,0,.425,1A1.633,1.633,0,0,0,121.5-1.033Zm10.408.249a2.878,2.878,0,0,1-2.322.93,2.464,2.464,0,0,1-1.93-.736,3.186,3.186,0,0,1-.67-2.179V-7.925h1.355v5.12q0,1.8,1.465,1.8a2.028,2.028,0,0,0,2.065-1.157V-7.925h1.355V0h-1.289Zm5.215-9.06v1.919H138.6v1.047h-1.479v4.921a1.1,1.1,0,0,0,.2.715A.832.832,0,0,0,138-1a3.281,3.281,0,0,0,.645-.088V0a3.951,3.951,0,0,1-1.04.146A1.687,1.687,0,0,1,136.23-.4a2.36,2.36,0,0,1-.461-1.56V-6.877h-1.443V-7.925h1.443V-9.844Zm2.556,5.808a4.681,4.681,0,0,1,.458-2.095,3.415,3.415,0,0,1,1.274-1.436,3.469,3.469,0,0,1,1.864-.505,3.342,3.342,0,0,1,2.618,1.121,4.311,4.311,0,0,1,1,2.981v.1a4.722,4.722,0,0,1-.443,2.076,3.365,3.365,0,0,1-1.267,1.432,3.509,3.509,0,0,1-1.893.513A3.334,3.334,0,0,1,140.68-.974a4.29,4.29,0,0,1-1-2.966Zm1.362.161a3.39,3.39,0,0,0,.612,2.117,1.957,1.957,0,0,0,1.637.8,1.945,1.945,0,0,0,1.641-.809,3.707,3.707,0,0,0,.608-2.267,3.384,3.384,0,0,0-.619-2.113,1.968,1.968,0,0,0-1.644-.809,1.946,1.946,0,0,0-1.619.8A3.68,3.68,0,0,0,141.042-3.875Zm11.382-2.834a4.061,4.061,0,0,0-.667-.051,1.786,1.786,0,0,0-1.809,1.135V0h-1.355V-7.925h1.318l.022.916a2.11,2.11,0,0,1,1.89-1.062,1.384,1.384,0,0,1,.6.1ZM155.142,0h-1.355V-7.925h1.355Zm-1.465-10.027a.809.809,0,0,1,.2-.557.756.756,0,0,1,.6-.227.768.768,0,0,1,.6.227.8.8,0,0,1,.205.557.774.774,0,0,1-.205.549.782.782,0,0,1-.6.22.77.77,0,0,1-.6-.22A.782.782,0,0,1,153.677-10.027Zm4.907,8.921h4.636V0h-6.292V-1L161.3-6.8h-4.307V-7.925H163v.959ZM169.636,0a2.846,2.846,0,0,1-.19-.835,3.023,3.023,0,0,1-2.256.981,2.8,2.8,0,0,1-1.923-.663,2.145,2.145,0,0,1-.751-1.681,2.24,2.24,0,0,1,.941-1.923,4.437,4.437,0,0,1,2.648-.685h1.318v-.623A1.522,1.522,0,0,0,169-6.559a1.707,1.707,0,0,0-1.252-.421,1.976,1.976,0,0,0-1.216.366,1.079,1.079,0,0,0-.491.886h-1.362a1.87,1.87,0,0,1,.421-1.146,2.874,2.874,0,0,1,1.143-.875,3.844,3.844,0,0,1,1.586-.322,3.133,3.133,0,0,1,2.146.685,2.47,2.47,0,0,1,.806,1.886v3.647a4.459,4.459,0,0,0,.278,1.736V0Zm-2.249-1.033a2.381,2.381,0,0,0,1.208-.33,1.994,1.994,0,0,0,.828-.857V-3.845h-1.062q-2.49,0-2.49,1.458a1.234,1.234,0,0,0,.425,1A1.633,1.633,0,0,0,167.388-1.033Zm8.694.073a1.952,1.952,0,0,0,1.267-.439,1.546,1.546,0,0,0,.6-1.1h1.282a2.457,2.457,0,0,1-.469,1.3,3.087,3.087,0,0,1-1.154.981,3.329,3.329,0,0,1-1.527.366,3.265,3.265,0,0,1-2.574-1.08,4.3,4.3,0,0,1-.956-2.955v-.227a4.771,4.771,0,0,1,.425-2.058,3.236,3.236,0,0,1,1.219-1.4,3.464,3.464,0,0,1,1.879-.5,3.178,3.178,0,0,1,2.216.8,2.853,2.853,0,0,1,.941,2.073h-1.282a1.867,1.867,0,0,0-.582-1.263,1.811,1.811,0,0,0-1.293-.494,1.9,1.9,0,0,0-1.6.743,3.491,3.491,0,0,0-.568,2.15v.256A3.422,3.422,0,0,0,174.47-1.7,1.906,1.906,0,0,0,176.082-.959ZM182.227,0h-1.355V-7.925h1.355Zm-1.465-10.027a.809.809,0,0,1,.2-.557.756.756,0,0,1,.6-.227.768.768,0,0,1,.6.227.8.8,0,0,1,.205.557.774.774,0,0,1-.205.549.782.782,0,0,1-.6.22.77.77,0,0,1-.6-.22A.782.782,0,0,1,180.762-10.027Zm3.274,5.991a4.681,4.681,0,0,1,.458-2.095,3.415,3.415,0,0,1,1.274-1.436,3.469,3.469,0,0,1,1.864-.505,3.342,3.342,0,0,1,2.618,1.121,4.311,4.311,0,0,1,1,2.981v.1a4.722,4.722,0,0,1-.443,2.076A3.365,3.365,0,0,1,189.54-.366a3.509,3.509,0,0,1-1.893.513,3.334,3.334,0,0,1-2.611-1.121,4.29,4.29,0,0,1-1-2.966Zm1.362.161a3.39,3.39,0,0,0,.612,2.117,1.957,1.957,0,0,0,1.637.8,1.945,1.945,0,0,0,1.641-.809,3.707,3.707,0,0,0,.608-2.267,3.384,3.384,0,0,0-.619-2.113,1.968,1.968,0,0,0-1.644-.809,1.946,1.946,0,0,0-1.619.8A3.68,3.68,0,0,0,185.4-3.875Zm2.849-7.375h1.641L187.925-9.1l-1.091,0Zm5.984,3.325.044,1a2.888,2.888,0,0,1,2.373-1.143q2.512,0,2.534,2.834V0h-1.355V-5.244a1.824,1.824,0,0,0-.392-1.267,1.57,1.57,0,0,0-1.2-.41,1.956,1.956,0,0,0-1.157.352,2.387,2.387,0,0,0-.776.923V0h-1.355V-7.925Z" transform="translate(700 2462)" fill="#12263f"/>
    <g id="servidor_1_" data-name="servidor (1)" transform="translate(958 2361)">
      <path id="Path_207454" data-name="Path 207454" d="M43.755,153.9a7.259,7.259,0,0,1,.729-5.549l6.27-10.859a7.231,7.231,0,0,1,1.691-1.99H0v22.048H46.046A7.234,7.234,0,0,1,43.755,153.9Zm-5.929-4.238H15.883a3.135,3.135,0,1,1,0-6.27H37.826a3.135,3.135,0,1,1,0,6.27Z" transform="translate(0 -107.183)" fill="#084a93"/>
      <path id="Path_207455" data-name="Path 207455" d="M50.756,291.06,44.484,280.2a7.319,7.319,0,0,1,1.561-9.2H0v22.048H52.445A7.245,7.245,0,0,1,50.756,291.06Zm-12.93-5.9H15.883a3.135,3.135,0,1,1,0-6.27H37.826a3.135,3.135,0,1,1,0,6.27Z" transform="translate(0 -214.365)" fill="#084a93"/>
      <path id="Path_207456" data-name="Path 207456" d="M65.563,406.5H0v18.913a3.136,3.136,0,0,0,3.135,3.135H76.07a3.136,3.136,0,0,0,3.135-3.135V410.575H72.118A7.317,7.317,0,0,1,65.563,406.5ZM37.826,420.659H15.883a3.135,3.135,0,1,1,0-6.27H37.826a3.135,3.135,0,1,1,0,6.27Zm12.539,0a3.135,3.135,0,1,1,3.135-3.135A3.136,3.136,0,0,1,50.365,420.659Zm12.539,0a3.135,3.135,0,1,1,3.135-3.135A3.136,3.136,0,0,1,62.9,420.659Z" transform="translate(0 -321.548)" fill="#084a93"/>
      <path id="Path_207457" data-name="Path 207457" d="M72.118,17.973h7.088V3.135A3.135,3.135,0,0,0,76.07,0H3.135A3.135,3.135,0,0,0,0,3.135V22.048H65.562A7.322,7.322,0,0,1,72.118,17.973ZM37.826,14.159H15.883a3.135,3.135,0,0,1,0-6.27H37.826a3.135,3.135,0,1,1,0,6.27Zm12.539,0A3.135,3.135,0,1,1,53.5,11.024,3.135,3.135,0,0,1,50.365,14.159Zm12.539,0a3.135,3.135,0,1,1,3.135-3.135A3.135,3.135,0,0,1,62.9,14.159Z" fill="#084a93"/>
      <path id="Path_207458" data-name="Path 207458" d="M294.875,153.03l-7.059-4.076a2.1,2.1,0,0,1-1.037-1.988,19.955,19.955,0,0,0,0-3.414,2.1,2.1,0,0,1,1.037-1.99l7.061-4.077a1.045,1.045,0,0,0,.382-1.427l-6.27-10.859a1.045,1.045,0,0,0-1.427-.382l-7.063,4.078a2.089,2.089,0,0,1-2.239-.1,20.237,20.237,0,0,0-2.957-1.707,2.1,2.1,0,0,1-1.2-1.892v-8.156A1.046,1.046,0,0,0,273.054,116H260.515a1.046,1.046,0,0,0-1.045,1.045V125.2a2.1,2.1,0,0,1-1.205,1.893,19.95,19.95,0,0,0-2.957,1.705,2.09,2.09,0,0,1-2.24.1l-7.059-4.075a1.045,1.045,0,0,0-1.427.383l-6.27,10.859a1.045,1.045,0,0,0,.382,1.427l7.059,4.076a2.1,2.1,0,0,1,1.037,1.988,19.933,19.933,0,0,0,0,3.413,2.1,2.1,0,0,1-1.037,1.991l-7.061,4.077a1.045,1.045,0,0,0-.382,1.427l6.27,10.859a1.045,1.045,0,0,0,1.427.382l7.063-4.078a2.089,2.089,0,0,1,2.239.095,19.955,19.955,0,0,0,2.957,1.707,2.1,2.1,0,0,1,1.2,1.892v8.155a1.046,1.046,0,0,0,1.045,1.045h12.539a1.046,1.046,0,0,0,1.045-1.045v-8.154a2.1,2.1,0,0,1,1.205-1.893,19.938,19.938,0,0,0,2.957-1.705,2.089,2.089,0,0,1,2.24-.1l7.059,4.076a1.045,1.045,0,0,0,1.427-.383l6.27-10.859a1.045,1.045,0,0,0-.382-1.427Zm-23.389.372a9.4,9.4,0,1,1,3.442-12.846A9.415,9.415,0,0,1,271.486,153.4Z" transform="translate(-188.397 -91.758)" fill="#084a93"/>
      <path id="Path_207459" data-name="Path 207459" d="M361.652,241.422a3.135,3.135,0,1,0,4.282,1.148A3.139,3.139,0,0,0,361.652,241.422Z" transform="translate(-284.833 -190.637)" fill="#084a93"/>
    </g>
    <g id="Group_174148" data-name="Group 174148" transform="translate(9541.346 11957.441)">
      <g id="llamada-de-telefono-inteligente" transform="translate(-8918.618 -9570.624)">
        <path id="Path_207449" data-name="Path 207449" d="M33.782,0H10.814a3.489,3.489,0,0,0-3.48,3.48V48.036a3.491,3.491,0,0,0,3.48,3.481H33.782a3.488,3.488,0,0,0,3.48-3.48V3.48A3.489,3.489,0,0,0,33.782,0ZM18.624,2.508h7.348a.422.422,0,0,1,0,.843H18.624a.422.422,0,0,1,0-.843ZM22.3,49.777a1.741,1.741,0,1,1,1.74-1.741A1.74,1.74,0,0,1,22.3,49.777Zm12.542-4.7H9.755V5.518H34.84Z" transform="translate(-7.334)" fill="#084a93"/>
      </g>
      <g id="pantalla-tactil-de-windows" transform="translate(-8990.334 -9513.918)">
        <path id="Path_207450" data-name="Path 207450" d="M81.378,14.581H1.271A1.271,1.271,0,0,0,0,15.852v58.49a1.271,1.271,0,0,0,1.271,1.271H81.378a1.271,1.271,0,0,0,1.271-1.271V15.852A1.27,1.27,0,0,0,81.378,14.581ZM41.147,74.212l-1.508.332V73.006l1.508-.3Zm0-1.863-1.508.3V71.171l1.508-.333ZM43.009,73.8l-1.507.331V72.639l1.507-.3Zm0-1.82-1.507.294V70.76l1.507-.334Zm34.554-2.353H5.086v-49.8H77.564v49.8Z" transform="translate(0 -14.581)" fill="#084a93"/>
      </g>
      <g id="Layer_x0020_1" transform="translate(-9011.346 -9570.252)">
        <path id="Path_207452" data-name="Path 207452" d="M12.568,0H35.284a2.848,2.848,0,0,1,2.84,2.839V48.677a2.848,2.848,0,0,1-2.84,2.839H12.568a2.848,2.848,0,0,1-2.84-2.839V2.839A2.848,2.848,0,0,1,12.568,0Zm8.827,46.973h5.061a1.164,1.164,0,1,1,0,2.329H21.395a1.164,1.164,0,1,1,0-2.329Zm-9.089-2.215h23.24v-38H12.306ZM34.424,2.807a.572.572,0,0,0,0,1.145h.065a.572.572,0,0,0,0-1.145Zm-21.061,0a.572.572,0,0,0,0,1.145h.065a.572.572,0,0,0,0-1.145Zm7.318,0h6.49V3.952H20.68Z" transform="translate(-9.728)" fill="#084a93" fill-rule="evenodd"/>
      </g>
      <g id="ventana-de-computadora-abierta" transform="translate(-8982.923 -9634)">
        <g id="c44_terminal" transform="translate(0 0)">
          <path id="Path_207453" data-name="Path 207453" d="M63.038,2.2H4.854A4.846,4.846,0,0,0,0,7.047v48.5A4.851,4.851,0,0,0,4.854,60.39H63.038a4.851,4.851,0,0,0,4.843-4.848V7.047A4.845,4.845,0,0,0,63.038,2.2ZM23.186,5.842a2.423,2.423,0,1,1-2.429,2.427A2.418,2.418,0,0,1,23.186,5.842Zm-7.422,0a2.423,2.423,0,1,1-2.431,2.427A2.424,2.424,0,0,1,15.764,5.842Zm-7.281,0a2.423,2.423,0,1,1-2.42,2.427A2.425,2.425,0,0,1,8.483,5.842ZM65.262,57.025H2.63V14.379H65.262S65.262,57.025,65.262,57.025Z" transform="translate(0 -2.202)" fill="#084a93"/>
        </g>
      </g>
      <g id="logotipo-de-android" transform="translate(-9005.336 -9554.464)">
        <g id="Group_174146" data-name="Group 174146" transform="translate(0 0)">
          <g id="Group_174145" data-name="Group 174145" transform="translate(0 0)">
            <path id="Path_207460" data-name="Path 207460" d="M38.328,164.715h-.049a1.148,1.148,0,0,0-1.144,1.144v4.983a1.147,1.147,0,0,0,1.144,1.145h.05a1.148,1.148,0,0,0,1.144-1.145v-4.983A1.149,1.149,0,0,0,38.328,164.715Z" transform="translate(-37.134 -158.455)" fill="#084a93"/>
            <path id="Path_207461" data-name="Path 207461" d="M113.085,177.392a1.053,1.053,0,0,0,1.052,1.05h1.124v2.691a1.148,1.148,0,0,0,1.144,1.146h.049a1.148,1.148,0,0,0,1.146-1.146v-2.691h1.571v2.691a1.149,1.149,0,0,0,1.146,1.146h.048a1.148,1.148,0,0,0,1.145-1.146v-2.691h1.125a1.053,1.053,0,0,0,1.051-1.05v-7.867h-10.6Z" transform="translate(-110.199 -163.082)" fill="#084a93"/>
            <path id="Path_207462" data-name="Path 207462" d="M120.133,1.672l.893-1.378a.19.19,0,0,0-.056-.262.188.188,0,0,0-.262.056l-.925,1.426a6.12,6.12,0,0,0-4.578,0L114.28.087a.19.19,0,0,0-.32.207l.894,1.378a4.519,4.519,0,0,0-2.7,3.984c0,.1.007.208.016.311h10.643c.009-.1.015-.206.015-.311A4.521,4.521,0,0,0,120.133,1.672Zm-5.107,2.467a.511.511,0,1,1,.512-.512A.511.511,0,0,1,115.026,4.139Zm4.934,0a.511.511,0,1,1,.512-.512A.511.511,0,0,1,119.96,4.139Z" transform="translate(-109.306 0)" fill="#084a93"/>
            <path id="Path_207463" data-name="Path 207463" d="M407.663,164.715h-.048a1.149,1.149,0,0,0-1.146,1.144v4.983a1.149,1.149,0,0,0,1.146,1.145h.048a1.147,1.147,0,0,0,1.144-1.145v-4.983A1.148,1.148,0,0,0,407.663,164.715Z" transform="translate(-392.433 -158.455)" fill="#084a93"/>
          </g>
        </g>
      </g>
      <g id="logotipo-de-apple-negro" transform="translate(-8911.485 -9554.464)">
        <g id="Group_174147" data-name="Group 174147" transform="translate(0)">
          <path id="Path_207464" data-name="Path 207464" d="M59.405,127.149c-.528-2.658,1.994-4.216,1.994-4.216a4.82,4.82,0,0,0-2.635-1.788,4.592,4.592,0,0,0-3.3.435,3.677,3.677,0,0,1-1.237.344c-1.191,0-2.062-1.261-4.332-.687a5.352,5.352,0,0,0-3.507,4.354,11.808,11.808,0,0,0,1.582,7.036c1.237,2.133,2.5,2.934,3.393,2.958s1.788-.641,2.864-.8,1.741.391,2.8.688,1.422.021,2.635-1.01,2.317-3.99,2.317-3.99A4.273,4.273,0,0,1,59.405,127.149Z" transform="translate(-46.315 -116.388)" fill="#084a93"/>
          <path id="Path_207465" data-name="Path 207465" d="M254.843,3.037A3.634,3.634,0,0,0,255.617,0a5.6,5.6,0,0,0-2.743,1.433,4.129,4.129,0,0,0-.918,2.956A5.169,5.169,0,0,0,254.843,3.037Z" transform="translate(-244.091)" fill="#084a93"/>
        </g>
      </g>
      <path id="windos-8-logo" d="M44.087,28.7h-14.4V18.548l14.4-2.271ZM26.735,19.014V28.7H16.329V20.656ZM16.329,31.656H26.735v9.662L16.329,39.676ZM29.692,41.784V31.656h14.4v12.4Z" transform="translate(-8979.568 -9513.474)" fill="#084a93"/>
      <path id="Path_207466" data-name="Path 207466" d="M9.93-1.919l1.347-6.534h2.646L11.306,1.809H9.01L7.066-4.65,5.122,1.809H2.836L.219-8.453H2.865L4.2-1.928,6.08-8.453H8.062Zm14.273,0,1.347-6.534H28.2L25.579,1.809h-2.3L21.34-4.65,19.4,1.809H17.11L14.492-8.453h2.646l1.337,6.525,1.878-6.525h1.982Zm14.273,0,1.347-6.534H42.47L39.852,1.809h-2.3L35.613-4.65,33.669,1.809H31.383L28.766-8.453h2.646l1.337,6.525,1.878-6.525h1.982Z" transform="translate(-8970.54 -9598.862)" fill="#084a93"/>
    </g>
    <path id="Path_207467" data-name="Path 207467" d="M-24,0H156a5.9,5.9,0,0,1,6,5.8V27.862a5.9,5.9,0,0,1-6,5.8H-24a5.9,5.9,0,0,1-6-5.8V5.8A5.9,5.9,0,0,1-24,0Z" transform="translate(525 2525.333)" fill="#00defc"/>
    <path id="Path_207468" data-name="Path 207468" d="M-24,0H156a5.9,5.9,0,0,1,6,5.8V27.862a5.9,5.9,0,0,1-6,5.8H-24a5.9,5.9,0,0,1-6-5.8V5.8A5.9,5.9,0,0,1-24,0Z" transform="translate(943 2525.333)" fill="#00defc"/>
    <path id="Path_207470" data-name="Path 207470" d="M9.15-2.656h-4.7L3.633,0H-.029L5.186-14.219H8.408L13.662,0H9.98ZM5.273-5.3H8.33L6.8-10.234Zm18.613.1a6.372,6.372,0,0,1-1.108,3.931A3.554,3.554,0,0,1,19.785.2,3.046,3.046,0,0,1,17.393-.869V4.063H14.1V-10.566h3.076l.1.977a3.046,3.046,0,0,1,2.49-1.172A3.582,3.582,0,0,1,22.8-9.321a6.45,6.45,0,0,1,1.084,3.96ZM20.6-5.41q0-2.812-1.641-2.812a1.549,1.549,0,0,0-1.562.84v4.16a1.6,1.6,0,0,0,1.582.879q1.572,0,1.621-2.715ZM28.809,0h-3.3V-15h3.3Zm5.5,0h-3.3V-10.566h3.3Zm-3.5-13.291a1.469,1.469,0,0,1,.508-1.152,1.916,1.916,0,0,1,1.318-.449,1.916,1.916,0,0,1,1.318.449,1.469,1.469,0,0,1,.508,1.152,1.469,1.469,0,0,1-.508,1.152,1.916,1.916,0,0,1-1.318.449,1.916,1.916,0,0,1-1.318-.449A1.469,1.469,0,0,1,30.811-13.291ZM40.8-2.344a1.464,1.464,0,0,0,1.074-.376,1.379,1.379,0,0,0,.371-1.05h3.086A3.653,3.653,0,0,1,44.087-.918,4.631,4.631,0,0,1,40.879.2,4.689,4.689,0,0,1,37.246-1.25a5.7,5.7,0,0,1-1.328-4v-.137a6.436,6.436,0,0,1,.591-2.827,4.3,4.3,0,0,1,1.7-1.885,5.081,5.081,0,0,1,2.637-.659,4.573,4.573,0,0,1,3.271,1.143,4.053,4.053,0,0,1,1.211,3.1H42.246a1.807,1.807,0,0,0-.4-1.26,1.382,1.382,0,0,0-1.074-.439q-1.279,0-1.494,1.631a11.507,11.507,0,0,0-.068,1.426,4.52,4.52,0,0,0,.381,2.207A1.319,1.319,0,0,0,40.8-2.344ZM52.676,0a3.716,3.716,0,0,1-.312-.947A3.06,3.06,0,0,1,49.824.2a3.749,3.749,0,0,1-2.539-.9A2.875,2.875,0,0,1,46.24-2.979a2.955,2.955,0,0,1,1.27-2.6A6.468,6.468,0,0,1,51.2-6.455h1.016v-.559q0-1.462-1.26-1.462a1.03,1.03,0,0,0-1.172,1.158H46.494a2.95,2.95,0,0,1,1.3-2.487,5.479,5.479,0,0,1,3.325-.956,4.8,4.8,0,0,1,3.193.986,3.429,3.429,0,0,1,1.2,2.705v4.678a4.79,4.79,0,0,0,.449,2.227V0ZM50.615-2.148a1.836,1.836,0,0,0,1.021-.264,1.653,1.653,0,0,0,.581-.6V-4.7H51.26q-1.719,0-1.719,1.543a.942.942,0,0,0,.3.728A1.1,1.1,0,0,0,50.615-2.148Zm11.191-.2a1.464,1.464,0,0,0,1.074-.376,1.379,1.379,0,0,0,.371-1.05h3.086A3.653,3.653,0,0,1,65.093-.918,4.631,4.631,0,0,1,61.885.2,4.689,4.689,0,0,1,58.252-1.25a5.7,5.7,0,0,1-1.328-4v-.137a6.436,6.436,0,0,1,.591-2.827,4.3,4.3,0,0,1,1.7-1.885,5.081,5.081,0,0,1,2.637-.659,4.573,4.573,0,0,1,3.271,1.143,4.053,4.053,0,0,1,1.211,3.1H63.252a1.807,1.807,0,0,0-.4-1.26,1.382,1.382,0,0,0-1.074-.439q-1.279,0-1.494,1.631a11.507,11.507,0,0,0-.068,1.426A4.52,4.52,0,0,0,60.6-2.959,1.319,1.319,0,0,0,61.807-2.344ZM71.2,0H67.9V-10.566h3.3Zm-3.5-13.291a1.469,1.469,0,0,1,.508-1.152,1.916,1.916,0,0,1,1.318-.449,1.916,1.916,0,0,1,1.318.449,1.469,1.469,0,0,1,.508,1.152,1.469,1.469,0,0,1-.508,1.152,1.916,1.916,0,0,1-1.318.449,1.916,1.916,0,0,1-1.318-.449A1.469,1.469,0,0,1,67.705-13.291Zm5.107,7.91A6.236,6.236,0,0,1,73.428-8.2,4.4,4.4,0,0,1,75.2-10.1a5.323,5.323,0,0,1,2.705-.664,4.858,4.858,0,0,1,3.74,1.47,5.64,5.64,0,0,1,1.367,4v.117a5.472,5.472,0,0,1-1.372,3.921A4.871,4.871,0,0,1,77.92.2,4.927,4.927,0,0,1,74.3-1.157a5.29,5.29,0,0,1-1.475-3.667Zm3.291.205a3.932,3.932,0,0,0,.459,2.148,1.529,1.529,0,0,0,1.357.684q1.758,0,1.8-2.705v-.332q0-2.842-1.816-2.842-1.65,0-1.787,2.451ZM78.35-15h3.477l-2.715,3.066-2.686,0Zm9.131,4.434.107,1.24a3.583,3.583,0,0,1,3.018-1.436,3.015,3.015,0,0,1,2.466.986,4.7,4.7,0,0,1,.845,2.969V0h-3.3V-6.67a1.783,1.783,0,0,0-.322-1.177,1.491,1.491,0,0,0-1.172-.376,1.569,1.569,0,0,0-1.436.762V0H84.395V-10.566Zm24.893,5.752a5.193,5.193,0,0,1-.8,2.622A4.833,4.833,0,0,1,109.517-.43,7,7,0,0,1,106.494.2a5.584,5.584,0,0,1-4.414-1.826,7.54,7.54,0,0,1-1.611-5.156v-.7a8.607,8.607,0,0,1,.728-3.657,5.513,5.513,0,0,1,2.095-2.422,5.844,5.844,0,0,1,3.164-.854,6.129,6.129,0,0,1,4.16,1.362A5.383,5.383,0,0,1,112.4-9.307h-3.418a2.547,2.547,0,0,0-.654-1.865,2.691,2.691,0,0,0-1.875-.566,2.048,2.048,0,0,0-1.875.957,6.151,6.151,0,0,0-.625,3.057v1.006a6.806,6.806,0,0,0,.571,3.252,2.091,2.091,0,0,0,1.968.977,2.632,2.632,0,0,0,1.807-.557,2.363,2.363,0,0,0,.664-1.768ZM117.314,0h-3.3V-15h3.3Zm5.5,0h-3.3V-10.566h3.3Zm-3.5-13.291a1.469,1.469,0,0,1,.508-1.152,1.916,1.916,0,0,1,1.318-.449,1.916,1.916,0,0,1,1.318.449,1.469,1.469,0,0,1,.508,1.152,1.469,1.469,0,0,1-.508,1.152,1.916,1.916,0,0,1-1.318.449,1.916,1.916,0,0,1-1.318-.449A1.469,1.469,0,0,1,119.316-13.291ZM129.951.2a5.432,5.432,0,0,1-3.936-1.45,5.008,5.008,0,0,1-1.5-3.774V-5.3a6.489,6.489,0,0,1,.6-2.861,4.395,4.395,0,0,1,1.753-1.919,5.292,5.292,0,0,1,2.734-.679,4.574,4.574,0,0,1,3.516,1.382A5.43,5.43,0,0,1,134.4-5.527v1.279h-6.543a2.372,2.372,0,0,0,.771,1.4,2.3,2.3,0,0,0,1.543.508,2.958,2.958,0,0,0,2.441-1.094l1.5,1.777a4.2,4.2,0,0,1-1.743,1.353A5.891,5.891,0,0,1,129.951.2Zm-.371-8.418q-1.445,0-1.719,1.914h3.32v-.254a1.63,1.63,0,0,0-.4-1.226A1.593,1.593,0,0,0,129.58-8.223Zm9.17-2.344.107,1.24a3.583,3.583,0,0,1,3.018-1.436,3.015,3.015,0,0,1,2.466.986,4.7,4.7,0,0,1,.845,2.969V0h-3.3V-6.67a1.783,1.783,0,0,0-.322-1.177,1.491,1.491,0,0,0-1.172-.376,1.569,1.569,0,0,0-1.436.762V0h-3.291V-10.566Zm12.09-2.627v2.627h1.738v2.285H150.84v4.834a1.234,1.234,0,0,0,.215.83,1.152,1.152,0,0,0,.85.234,4.828,4.828,0,0,0,.82-.059V-.088A6.074,6.074,0,0,1,150.869.2a3.448,3.448,0,0,1-2.51-.8,3.282,3.282,0,0,1-.811-2.432V-8.281H146.2v-2.285h1.348v-2.627ZM158.984.2a5.432,5.432,0,0,1-3.936-1.45,5.008,5.008,0,0,1-1.5-3.774V-5.3a6.489,6.489,0,0,1,.6-2.861,4.395,4.395,0,0,1,1.753-1.919,5.292,5.292,0,0,1,2.734-.679,4.574,4.574,0,0,1,3.516,1.382,5.43,5.43,0,0,1,1.289,3.853v1.279h-6.543a2.372,2.372,0,0,0,.771,1.4,2.3,2.3,0,0,0,1.543.508,2.958,2.958,0,0,0,2.441-1.094l1.5,1.777a4.2,4.2,0,0,1-1.743,1.353A5.891,5.891,0,0,1,158.984.2Zm-.371-8.418q-1.445,0-1.719,1.914h3.32v-.254a1.63,1.63,0,0,0-.4-1.226A1.593,1.593,0,0,0,158.613-8.223Z" transform="translate(509 2549)" fill="#12263f"/>
    <path id="Path_207469" data-name="Path 207469" d="M8.408-3.779a1.408,1.408,0,0,0-.532-1.172,6.615,6.615,0,0,0-1.87-.869,17.941,17.941,0,0,1-2.187-.869Q1.055-8.047,1.055-10.42A3.345,3.345,0,0,1,1.743-12.5a4.453,4.453,0,0,1,1.948-1.406,7.582,7.582,0,0,1,2.832-.5,6.632,6.632,0,0,1,2.749.547,4.352,4.352,0,0,1,1.89,1.558A4.068,4.068,0,0,1,11.836-10H8.418a1.719,1.719,0,0,0-.532-1.348,2.075,2.075,0,0,0-1.44-.479A2.339,2.339,0,0,0,5-11.421a1.243,1.243,0,0,0-.532,1.03,1.252,1.252,0,0,0,.586.991,7.389,7.389,0,0,0,2.061.918A12.623,12.623,0,0,1,9.531-7.461a4.07,4.07,0,0,1,2.3,3.662A3.472,3.472,0,0,1,10.43-.869,6.255,6.255,0,0,1,6.572.2a7.653,7.653,0,0,1-3.13-.62,4.719,4.719,0,0,1-2.109-1.7A4.428,4.428,0,0,1,.625-4.609H4.063a2.181,2.181,0,0,0,.591,1.685,2.793,2.793,0,0,0,1.919.542,2.206,2.206,0,0,0,1.343-.366A1.209,1.209,0,0,0,8.408-3.779ZM18.555.2a5.432,5.432,0,0,1-3.936-1.45,5.008,5.008,0,0,1-1.5-3.774V-5.3a6.489,6.489,0,0,1,.6-2.861,4.395,4.395,0,0,1,1.753-1.919,5.292,5.292,0,0,1,2.734-.679A4.574,4.574,0,0,1,21.719-9.38a5.43,5.43,0,0,1,1.289,3.853v1.279H16.465a2.372,2.372,0,0,0,.771,1.4,2.3,2.3,0,0,0,1.543.508,2.958,2.958,0,0,0,2.441-1.094l1.5,1.777A4.2,4.2,0,0,1,20.981-.308,5.891,5.891,0,0,1,18.555.2Zm-.371-8.418q-1.445,0-1.719,1.914h3.32v-.254a1.63,1.63,0,0,0-.4-1.226A1.593,1.593,0,0,0,18.184-8.223Zm12.539.635-1.084-.078a1.947,1.947,0,0,0-1.992.977V0H24.355V-10.566h3.086l.107,1.357a2.548,2.548,0,0,1,2.314-1.553,3.209,3.209,0,0,1,.918.117ZM36.3-3.916l1.67-6.65h3.467L37.988,0H34.629L31.182-10.566h3.477ZM45.889,0h-3.3V-10.566h3.3Zm-3.5-13.291a1.469,1.469,0,0,1,.508-1.152,1.916,1.916,0,0,1,1.318-.449,1.916,1.916,0,0,1,1.318.449,1.469,1.469,0,0,1,.508,1.152,1.469,1.469,0,0,1-.508,1.152,1.916,1.916,0,0,1-1.318.449,1.916,1.916,0,0,1-1.318-.449A1.469,1.469,0,0,1,42.393-13.291ZM47.5-5.361a6.455,6.455,0,0,1,1.084-3.955,3.568,3.568,0,0,1,3.027-1.445,3.035,3.035,0,0,1,2.383,1.113V-15h3.3V0H54.336L54.17-1.133A3.116,3.116,0,0,1,51.592.2,3.562,3.562,0,0,1,48.6-1.25,6.659,6.659,0,0,1,47.5-5.361Zm3.291.205q0,2.813,1.641,2.813a1.62,1.62,0,0,0,1.563-.918V-7.285a1.576,1.576,0,0,0-1.543-.937q-1.523,0-1.65,2.461Zm7.959-.225A6.236,6.236,0,0,1,59.365-8.2a4.4,4.4,0,0,1,1.768-1.9,5.323,5.323,0,0,1,2.705-.664,4.858,4.858,0,0,1,3.74,1.47,5.64,5.64,0,0,1,1.367,4v.117a5.472,5.472,0,0,1-1.372,3.921A4.871,4.871,0,0,1,63.857.2a4.927,4.927,0,0,1-3.623-1.353A5.29,5.29,0,0,1,58.76-4.824Zm3.291.205A3.932,3.932,0,0,0,62.5-3.027a1.529,1.529,0,0,0,1.357.684q1.758,0,1.8-2.705v-.332q0-2.842-1.816-2.842-1.65,0-1.787,2.451ZM76.787-7.588,75.7-7.666a1.947,1.947,0,0,0-1.992.977V0H70.42V-10.566h3.086l.107,1.357a2.548,2.548,0,0,1,2.314-1.553,3.209,3.209,0,0,1,.918.117Z" transform="translate(971 2549)" fill="#12263f"/>
  </g>
</svg>
