<svg xmlns="http://www.w3.org/2000/svg" xmlns:xlink="http://www.w3.org/1999/xlink" width="98.108" height="79.963" viewBox="0 0 98.108 79.963">
  <defs>
    <clipPath id="clip-path">
      <rect id="Rectángulo_297153" data-name="Rectángulo 297153" width="98.108" height="79.963" fill="#ffb30b"/>
    </clipPath>
    <clipPath id="clip-path-2">
      <rect id="Rectángulo_297141" data-name="Rectángulo 297141" width="98.108" height="79.964" fill="none"/>
    </clipPath>
    <clipPath id="clip-path-3">
      <path id="Trazado_205326" data-name="Trazado 205326" d="M9.143,9.631c-2.739,1.591-4.436,4.977-4.45,9.783-.026,9.679,6.778,21.466,15.2,26.33l4.9-2.849c-8.422-4.862-15.228-16.649-15.2-26.329.014-4.806,1.711-8.191,4.448-9.781Z" transform="translate(-4.693 -6.785)" fill="none"/>
    </clipPath>
    <clipPath id="clip-path-5">
      <path id="Trazado_205330" data-name="Trazado 205330" d="M15.745,35.886c4.238,2.447,8.08,2.674,10.851,1.062L31.5,34.1c-2.773,1.609-6.613,1.384-10.853-1.065Z" transform="translate(-15.745 -33.037)" fill="none"/>
    </clipPath>
    <clipPath id="clip-path-7">
      <path id="Trazado_205334" data-name="Trazado 205334" d="M9.5,1.465,4.6,4.312C8.55,2.018,14.017,2.341,20.048,5.825l4.9-2.849A19.761,19.761,0,0,0,15.211,0,11.211,11.211,0,0,0,9.5,1.465" transform="translate(-4.604 0)" fill="#959595"/>
    </clipPath>
    <clipPath id="clip-path-9">
      <path id="Trazado_205340" data-name="Trazado 205340" d="M15.832,5.013c11.989,6.92,21.677,23.7,21.638,37.474-.019,6.845-2.436,11.659-6.331,13.924l4.9-2.847c3.9-2.265,6.312-7.08,6.331-13.924.039-13.773-9.648-30.554-21.638-37.476Z" transform="translate(-15.832 -2.164)" fill="#646464"/>
    </clipPath>
    <clipPath id="clip-path-11">
      <path id="Trazado_205346" data-name="Trazado 205346" d="M34.039,30.187l8.934,5.191a2.338,2.338,0,0,1,2.358-.231L36.4,29.956a1.707,1.707,0,0,0-.869-.223,3.026,3.026,0,0,0-1.488.454" transform="translate(-34.039 -29.733)" fill="none"/>
    </clipPath>
    <clipPath id="clip-path-13">
      <path id="Trazado_205353" data-name="Trazado 205353" d="M31.638,35.784a2.32,2.32,0,0,0,.967,2.125L41.539,43.1a2.321,2.321,0,0,1-.967-2.125,7.274,7.274,0,0,1,3.3-5.722l-8.934-5.191a7.283,7.283,0,0,0-3.3,5.721" transform="translate(-31.638 -30.063)" fill="none"/>
    </clipPath>
    <clipPath id="clip-path-15">
      <path id="Trazado_205359" data-name="Trazado 205359" d="M41.113,31.986,76.088,52.311c1.823-1.052,3.476-1.15,4.67-.457L45.781,31.529a3.38,3.38,0,0,0-1.724-.443,6,6,0,0,0-2.945.9" transform="translate(-41.113 -31.086)" fill="none"/>
    </clipPath>
    <clipPath id="clip-path-17">
      <path id="Trazado_205366" data-name="Trazado 205366" d="M36.359,43.067c.007,2.069.736,3.524,1.915,4.209L73.246,67.6c-1.177-.684-1.906-2.139-1.912-4.208a14.407,14.407,0,0,1,6.539-11.327L42.9,31.74a14.413,14.413,0,0,0-6.539,11.327" transform="translate(-36.359 -31.74)" fill="none"/>
    </clipPath>
    <clipPath id="clip-path-19">
      <rect id="Rectángulo_297149" data-name="Rectángulo 297149" width="30.502" height="39.233" fill="none"/>
    </clipPath>
    <clipPath id="clip-path-20">
      <rect id="Rectángulo_297150" data-name="Rectángulo 297150" width="28.146" height="37.59" fill="none"/>
    </clipPath>
    <clipPath id="clip-path-21">
      <rect id="Rectángulo_297151" data-name="Rectángulo 297151" width="7.415" height="12.785" fill="none"/>
    </clipPath>
  </defs>
  <g id="Grupo_174119" data-name="Grupo 174119" transform="translate(-1113.892 -256.929)">
    <g id="Grupo_174114" data-name="Grupo 174114" transform="translate(1113.892 256.929)">
      <g id="Grupo_147410" data-name="Grupo 147410" clip-path="url(#clip-path)">
        <g id="Grupo_147368" data-name="Grupo 147368" transform="translate(0 -0.001)">
          <g id="Grupo_147367" data-name="Grupo 147367" clip-path="url(#clip-path-2)">
            <path id="Trazado_205321" data-name="Trazado 205321" d="M9.142,9.632l4.9-2.847c-2.737,1.59-4.435,4.974-4.448,9.781-.028,9.681,6.778,21.466,15.2,26.329l-4.9,2.849c-8.424-4.864-15.228-16.649-15.2-26.33.014-4.807,1.711-8.191,4.448-9.781" transform="translate(1.763 2.548)" fill="#b4c5e2"/>
          </g>
        </g>
        <g id="Grupo_147370" data-name="Grupo 147370" transform="translate(6.455 9.333)">
          <g id="Grupo_147369" data-name="Grupo 147369" clip-path="url(#clip-path-3)">
            <path id="Trazado_205322" data-name="Trazado 205322" d="M9.13,9.632l4.9-2.847c-2.491,1.447-4.121,4.38-4.4,8.52l-4.9,2.849c.282-4.142,1.912-7.073,4.4-8.521" transform="translate(-4.681 -6.785)" fill="#b4c5e2"/>
            <path id="Trazado_205323" data-name="Trazado 205323" d="M4.738,15.827l4.9-2.847q-.041.613-.044,1.26a24.293,24.293,0,0,0,.541,5.018l-4.9,2.849a24.219,24.219,0,0,1-.541-5.018q0-.648.044-1.261" transform="translate(-4.693 -4.459)" fill="#b4c5e2"/>
            <path id="Trazado_205324" data-name="Trazado 205324" d="M5.087,20.392l4.9-2.847c1.663,7.933,6.975,16.227,13.436,20.549l-4.9,2.847C12.062,36.621,6.747,28.326,5.087,20.392" transform="translate(-4.545 -2.745)" fill="#b4c5e2"/>
            <path id="Trazado_205325" data-name="Trazado 205325" d="M14.855,35.33l4.9-2.847q.607.4,1.224.762l-4.9,2.847q-.619-.357-1.224-.762" transform="translate(-0.877 2.865)" fill="#b4c5e2"/>
          </g>
        </g>
        <g id="Grupo_147372" data-name="Grupo 147372" transform="translate(0 -0.001)">
          <g id="Grupo_147371" data-name="Grupo 147371" clip-path="url(#clip-path-2)">
            <path id="Trazado_205327" data-name="Trazado 205327" d="M31.5,34.1l-4.9,2.847c-2.772,1.612-6.612,1.384-10.851-1.063l4.9-2.849c4.238,2.448,8.078,2.675,10.851,1.065" transform="translate(5.912 12.406)" fill="#b4c5e2"/>
          </g>
        </g>
        <g id="Grupo_147374" data-name="Grupo 147374" transform="translate(21.657 45.443)">
          <g id="Grupo_147373" data-name="Grupo 147373" clip-path="url(#clip-path-5)">
            <path id="Trazado_205328" data-name="Trazado 205328" d="M15.745,35.885l4.9-2.847a16.62,16.62,0,0,0,3.985,1.7l-4.9,2.847a16.518,16.518,0,0,1-3.986-1.7" transform="translate(-15.745 -33.037)" fill="#b4c5e2"/>
            <path id="Trazado_205329" data-name="Trazado 205329" d="M18.642,37.291l4.9-2.847a8.861,8.861,0,0,0,6.865-.633l-4.9,2.847a8.858,8.858,0,0,1-6.867.633" transform="translate(-14.657 -32.746)" fill="#b4c5e2"/>
          </g>
        </g>
        <g id="Grupo_147376" data-name="Grupo 147376" transform="translate(0 -0.001)">
          <g id="Grupo_147375" data-name="Grupo 147375" clip-path="url(#clip-path-2)">
            <path id="Trazado_205331" data-name="Trazado 205331" d="M4.6,4.312,9.5,1.465C13.45-.829,18.917-.506,24.948,2.977l-4.9,2.847C14.017,2.341,8.551,2.018,4.6,4.312" transform="translate(1.728 0.001)" fill="#d9e1ee"/>
          </g>
        </g>
        <g id="Grupo_147378" data-name="Grupo 147378" transform="translate(6.333 0)">
          <g id="Grupo_147377" data-name="Grupo 147377" clip-path="url(#clip-path-7)">
            <path id="Trazado_205332" data-name="Trazado 205332" d="M4.6,4.312,9.5,1.465a12.608,12.608,0,0,1,9.774-.9l-4.9,2.849a12.618,12.618,0,0,0-9.776.9" transform="translate(-4.604 0)" fill="#959595"/>
            <path id="Trazado_205333" data-name="Trazado 205333" d="M11.71,3.257,16.61.41a23.564,23.564,0,0,1,5.67,2.413l-4.9,2.849a23.6,23.6,0,0,0-5.67-2.414" transform="translate(-1.936 0.154)" fill="#959595"/>
          </g>
        </g>
        <g id="Grupo_147380" data-name="Grupo 147380" transform="translate(0 -0.001)">
          <g id="Grupo_147379" data-name="Grupo 147379" clip-path="url(#clip-path-2)">
            <path id="Trazado_205335" data-name="Trazado 205335" d="M36.037,53.564l-4.9,2.847c3.9-2.264,6.312-7.08,6.333-13.924.039-13.773-9.649-30.553-21.638-37.476l4.9-2.847C32.72,9.087,42.408,25.865,42.37,39.64c-.019,6.845-2.436,11.659-6.333,13.924" transform="translate(5.945 0.813)" fill="#afafaf"/>
          </g>
        </g>
        <g id="Grupo_147382" data-name="Grupo 147382" transform="translate(21.777 2.977)">
          <g id="Grupo_147381" data-name="Grupo 147381" clip-path="url(#clip-path-9)">
            <path id="Trazado_205336" data-name="Trazado 205336" d="M15.832,5.012l4.9-2.847q.881.508,1.743,1.085L17.573,6.1q-.86-.576-1.741-1.085" transform="translate(-15.832 -2.164)" fill="#afafaf"/>
            <path id="Trazado_205337" data-name="Trazado 205337" d="M17.1,5.8,22,2.953C31.2,9.1,38.759,20.912,41.124,32.2l-4.9,2.847C33.859,23.76,26.295,11.952,17.1,5.8" transform="translate(-15.357 -1.868)" fill="#bbbaba"/>
            <path id="Trazado_205338" data-name="Trazado 205338" d="M31,27.066l4.9-2.847a34.471,34.471,0,0,1,.77,7.14c0,.613-.023,1.213-.063,1.8L31.71,36q.06-.873.062-1.8A34.467,34.467,0,0,0,31,27.066" transform="translate(-10.135 6.118)" fill="#959595"/>
            <path id="Trazado_205339" data-name="Trazado 205339" d="M33.229,33.561l4.9-2.847c-.4,5.893-2.722,10.067-6.27,12.129l-4.9,2.847c3.546-2.062,5.867-6.235,6.27-12.129" transform="translate(-11.654 8.557)" fill="#959595"/>
          </g>
        </g>
        <g id="Grupo_147384" data-name="Grupo 147384" transform="translate(0 -0.001)">
          <g id="Grupo_147383" data-name="Grupo 147383" clip-path="url(#clip-path-2)">
            <path id="Trazado_205341" data-name="Trazado 205341" d="M21.778,5.048c11.988,6.922,21.677,23.7,21.637,37.476S33.625,61.856,21.636,54.935-.039,31.233,0,17.458,9.791-1.874,21.778,5.048m-.121,42.466c8.425,4.864,15.274.961,15.3-8.719s-6.777-21.465-15.2-26.329-15.272-.959-15.3,8.719,6.778,21.466,15.2,26.329" transform="translate(0 0.778)" fill="#afafaf"/>
            <path id="Trazado_205342" data-name="Trazado 205342" d="M36.4,29.956l8.934,5.191a2.341,2.341,0,0,0-2.358.231l-8.934-5.191a2.338,2.338,0,0,1,2.358-.231" transform="translate(12.782 11.165)" fill="#d9e1ee"/>
          </g>
        </g>
        <g id="Grupo_147386" data-name="Grupo 147386" transform="translate(46.821 40.898)">
          <g id="Grupo_147385" data-name="Grupo 147385" clip-path="url(#clip-path-11)">
            <path id="Trazado_205343" data-name="Trazado 205343" d="M42.973,35.342l-8.934-5.191a3.747,3.747,0,0,1,.693-.318l8.933,5.193a3.767,3.767,0,0,0-.692.316" transform="translate(-34.039 -29.695)" fill="#aabad6"/>
            <path id="Trazado_205344" data-name="Trazado 205344" d="M43.476,35.063l-8.934-5.193a2.4,2.4,0,0,1,.97-.129l8.934,5.191a2.4,2.4,0,0,0-.97.131" transform="translate(-33.85 -29.733)" fill="#aabad6"/>
            <path id="Trazado_205345" data-name="Trazado 205345" d="M44.182,34.93l-8.934-5.191a1.628,1.628,0,0,1,.695.216l8.934,5.191a1.673,1.673,0,0,0-.695-.216" transform="translate(-33.585 -29.731)" fill="#aabad6"/>
          </g>
        </g>
        <g id="Grupo_147388" data-name="Grupo 147388" transform="translate(0 -0.001)">
          <g id="Grupo_147387" data-name="Grupo 147387" clip-path="url(#clip-path-2)">
            <path id="Trazado_205347" data-name="Trazado 205347" d="M41.539,43.1,32.6,37.91a2.322,2.322,0,0,1-.966-2.127,7.274,7.274,0,0,1,3.3-5.719l8.933,5.191a7.281,7.281,0,0,0-3.3,5.721,2.32,2.32,0,0,0,.967,2.125" transform="translate(11.881 11.29)" fill="#d9e1ee"/>
          </g>
        </g>
        <g id="Grupo_147390" data-name="Grupo 147390" transform="translate(43.518 41.352)">
          <g id="Grupo_147389" data-name="Grupo 147389" clip-path="url(#clip-path-13)">
            <path id="Trazado_205348" data-name="Trazado 205348" d="M41.539,41.684,32.6,36.493a2.322,2.322,0,0,1-.966-2.127,4.617,4.617,0,0,1,.028-.53L40.6,39.028a5,5,0,0,0-.029.531,2.32,2.32,0,0,0,.967,2.125" transform="translate(-31.638 -28.646)" fill="#aabad6"/>
            <path id="Trazado_205349" data-name="Trazado 205349" d="M40.593,39.387,31.659,34.2a6.294,6.294,0,0,1,.3-1.315l8.934,5.191a6.144,6.144,0,0,0-.3,1.315" transform="translate(-31.63 -29.005)" fill="#aabad6"/>
            <path id="Trazado_205350" data-name="Trazado 205350" d="M40.807,38.523l-8.934-5.191a7.891,7.891,0,0,1,.785-1.652l8.934,5.191a7.923,7.923,0,0,0-.785,1.652" transform="translate(-31.55 -29.456)" fill="#c3cee1"/>
            <path id="Trazado_205351" data-name="Trazado 205351" d="M41.379,37.362,32.445,32.17a7.17,7.17,0,0,1,1.572-1.8l8.934,5.191a7.177,7.177,0,0,0-1.572,1.8" transform="translate(-31.335 -29.947)" fill="#d9e1ee"/>
            <path id="Trazado_205352" data-name="Trazado 205352" d="M42.522,35.68l-8.934-5.191a4.968,4.968,0,0,1,.62-.425l8.934,5.191a5.12,5.12,0,0,0-.62.425" transform="translate(-30.906 -30.063)" fill="#c3cee1"/>
          </g>
        </g>
        <g id="Grupo_147392" data-name="Grupo 147392" transform="translate(0 -0.001)">
          <g id="Grupo_147391" data-name="Grupo 147391" clip-path="url(#clip-path-2)">
            <path id="Trazado_205354" data-name="Trazado 205354" d="M41.436,33.962c1.831-1.056,3.318-.209,3.325,1.894a7.281,7.281,0,0,1-3.3,5.721c-1.831,1.056-3.318.209-3.325-1.894a7.277,7.277,0,0,1,3.3-5.721" transform="translate(14.319 12.583)" fill="#d9e1ee"/>
            <path id="Trazado_205355" data-name="Trazado 205355" d="M45.781,31.529,80.756,51.853c-1.194-.693-2.846-.6-4.668.458L41.113,31.987c1.824-1.054,3.476-1.151,4.668-.458" transform="translate(15.438 11.674)" fill="#3ce6fd"/>
          </g>
        </g>
        <g id="Grupo_147394" data-name="Grupo 147394" transform="translate(56.551 42.759)">
          <g id="Grupo_147393" data-name="Grupo 147393" clip-path="url(#clip-path-15)">
            <path id="Trazado_205356" data-name="Trazado 205356" d="M76.088,52.237,41.113,31.912a7.454,7.454,0,0,1,1.371-.627L77.459,51.611a7.493,7.493,0,0,0-1.371.626" transform="translate(-41.113 -31.011)" fill="#3857cc"/>
            <path id="Trazado_205357" data-name="Trazado 205357" d="M77.085,51.685,42.11,31.361a4.765,4.765,0,0,1,1.922-.259L79.005,51.428a4.732,4.732,0,0,0-1.92.257" transform="translate(-40.739 -31.086)" fill="#3857cc"/>
            <path id="Trazado_205358" data-name="Trazado 205358" d="M78.481,51.423,43.507,31.1a3.294,3.294,0,0,1,1.376.428L79.857,51.851a3.3,3.3,0,0,0-1.377-.428" transform="translate(-40.214 -31.082)" fill="#3857cc"/>
          </g>
        </g>
        <g id="Grupo_147396" data-name="Grupo 147396" transform="translate(0 -0.001)">
          <g id="Grupo_147395" data-name="Grupo 147395" clip-path="url(#clip-path-2)">
            <path id="Trazado_205360" data-name="Trazado 205360" d="M73.247,67.6,38.272,47.277c-1.177-.685-1.908-2.14-1.913-4.209A14.413,14.413,0,0,1,42.9,31.741L77.873,52.065a14.411,14.411,0,0,0-6.539,11.327c.006,2.069.736,3.525,1.913,4.209" transform="translate(13.653 11.92)" fill="#3857cc"/>
          </g>
        </g>
        <g id="Grupo_147398" data-name="Grupo 147398" transform="translate(50.012 43.659)">
          <g id="Grupo_147397" data-name="Grupo 147397" clip-path="url(#clip-path-17)">
            <path id="Trazado_205361" data-name="Trazado 205361" d="M73.247,64.8,38.272,44.472c-1.177-.685-1.908-2.14-1.913-4.209a9.392,9.392,0,0,1,.056-1.05L71.389,59.537a9.726,9.726,0,0,0-.055,1.05c.006,2.069.736,3.525,1.913,4.209" transform="translate(-36.359 -28.934)" fill="#3ce6fd"/>
            <path id="Trazado_205362" data-name="Trazado 205362" d="M71.374,60.249,36.4,39.924a12.283,12.283,0,0,1,.585-2.605L71.96,57.645a12.362,12.362,0,0,0-.586,2.6" transform="translate(-36.344 -29.645)" fill="#3ce6fd"/>
            <path id="Trazado_205363" data-name="Trazado 205363" d="M71.8,58.537,36.825,38.213a15.57,15.57,0,0,1,1.556-3.271L73.356,55.266A15.6,15.6,0,0,0,71.8,58.537" transform="translate(-36.184 -30.538)" fill="#00defc"/>
            <path id="Trazado_205364" data-name="Trazado 205364" d="M72.931,56.239,37.957,35.914a14.142,14.142,0,0,1,3.113-3.561L76.045,52.677a14.174,14.174,0,0,0-3.114,3.561" transform="translate(-35.759 -31.51)" fill="#00defc"/>
            <path id="Trazado_205365" data-name="Trazado 205365" d="M75.2,52.907,40.22,32.583a10.039,10.039,0,0,1,1.228-.842L76.423,52.065a10.2,10.2,0,0,0-1.228.842" transform="translate(-34.909 -31.74)" fill="#3ce6fd"/>
          </g>
        </g>
        <g id="Grupo_147409" data-name="Grupo 147409" transform="translate(0 -0.001)">
          <g id="Grupo_147408" data-name="Grupo 147408" clip-path="url(#clip-path-2)">
            <path id="Trazado_205367" data-name="Trazado 205367" d="M68.325,46.763c3.623-2.092,6.571-.413,6.583,3.751a14.414,14.414,0,0,1-6.541,11.327c-3.623,2.092-6.569.413-6.582-3.751a14.409,14.409,0,0,1,6.539-11.327" transform="translate(23.201 17.222)" fill="#042b56"/>
            <path id="Trazado_205368" data-name="Trazado 205368" d="M45.781,31.529,80.756,51.853c-1.194-.693-2.846-.6-4.668.458L41.113,31.987c1.824-1.054,3.476-1.151,4.668-.458" transform="translate(15.438 11.674)" fill="#0c5db8"/>
            <path id="Trazado_205369" data-name="Trazado 205369" d="M73.247,67.6,38.272,47.277c-1.177-.685-1.908-2.14-1.913-4.209A14.413,14.413,0,0,1,42.9,31.741L77.873,52.065a14.411,14.411,0,0,0-6.539,11.327c.006,2.069.736,3.525,1.913,4.209" transform="translate(13.653 11.92)" fill="#084a93"/>
            <g id="Grupo_147401" data-name="Grupo 147401" transform="translate(7.918 10.525)" opacity="0.5" style="mix-blend-mode: screen;isolation: isolate">
              <g id="Grupo_147400" data-name="Grupo 147400">
                <g id="Grupo_147399" data-name="Grupo 147399" clip-path="url(#clip-path-19)">
                  <path id="Trazado_205370" data-name="Trazado 205370" d="M20.958,44.791c8.425,4.864,15.274.961,15.3-8.719S29.48,14.607,21.055,9.743s-15.271-.96-15.3,8.719,6.778,21.466,15.2,26.329" transform="translate(-5.756 -7.651)" fill="#51cfe3"/>
                </g>
              </g>
            </g>
            <g id="Grupo_147404" data-name="Grupo 147404" transform="translate(10.274 2.168)" opacity="0.5" style="mix-blend-mode: screen;isolation: isolate">
              <g id="Grupo_147403" data-name="Grupo 147403" transform="translate(0 10)">
                <g id="Grupo_147402" data-name="Grupo 147402" clip-path="url(#clip-path-20)">
                  <path id="Trazado_205371" data-name="Trazado 205371" d="M20.414,9.294c-.275-.16-.55-.308-.823-.448a21.719,21.719,0,0,1,6.049,6.249c3.063,6.125,3.342,17.543-3.9,19.77-5.362,1.633-9.358-4.149-14.274-6.076,2.693,6.446,7.435,12.429,12.846,15.553,8.425,4.864,15.272.961,15.3-8.719s-6.776-21.465-15.2-26.329" transform="translate(-7.469 -8.846)" fill="#51cfe3"/>
                </g>
              </g>
            </g>
            <g id="Grupo_147407" data-name="Grupo 147407" transform="translate(10.083 15.052)" opacity="0.3">
              <g id="Grupo_147406" data-name="Grupo 147406">
                <g id="Grupo_147405" data-name="Grupo 147405" clip-path="url(#clip-path-21)">
                  <path id="Trazado_205372" data-name="Trazado 205372" d="M14.746,19.477c0,3.326-1.66,5.063-3.707,3.88s-3.708-4.836-3.708-8.162,1.66-5.063,3.708-3.88,3.707,4.836,3.707,8.162" transform="translate(-7.331 -10.943)" fill="#f1f5fa"/>
                </g>
              </g>
            </g>
          </g>
        </g>
      </g>
    </g>
  </g>
</svg>
