<svg xmlns="http://www.w3.org/2000/svg" xmlns:xlink="http://www.w3.org/1999/xlink" width="112.118" height="145.843" viewBox="0 0 112.118 145.843">
  <defs>
    <clipPath id="clip-path">
      <rect id="Rectángulo_297105" data-name="Rectángulo 297105" width="35.316" height="47.025" fill="none"/>
    </clipPath>
    <clipPath id="clip-path-5">
      <rect id="Rectángulo_297105-2" data-name="Rectángulo 297105" width="74.118" height="98.691" fill="none"/>
    </clipPath>
    <clipPath id="clip-path-9">
      <rect id="Rectángulo_297101" data-name="Rectángulo 297101" width="23.448" height="31.222" fill="none"/>
    </clipPath>
  </defs>
  <g id="Grupo_174118" data-name="Grupo 174118" transform="translate(-1284.004 -226.92)">
    <g id="Grupo_147254" data-name="Grupo 147254" transform="translate(1284.004 320.979)">
      <g id="Grupo_147246" data-name="Grupo 147246">
        <g id="Grupo_147245" data-name="Grupo 147245" clip-path="url(#clip-path)">
          <path id="Trazado_205131" data-name="Trazado 205131" d="M22.456,1.269,20.548.189a1.49,1.49,0,0,1,.42-.173L22.877,1.1a1.472,1.472,0,0,0-.42.173" transform="translate(10.401 0.008)" fill="#e08910"/>
          <path id="Trazado_205132" data-name="Trazado 205132" d="M22.735,1.1,20.827.024a.778.778,0,0,1,.562.065L23.3,1.169a.778.778,0,0,0-.562-.065" transform="translate(10.542 0)" fill="#e08910"/>
          <path id="Trazado_205133" data-name="Trazado 205133" d="M3.165,25.623,1.257,24.541a.925.925,0,0,1-.4-.843l1.908,1.081a.926.926,0,0,0,.4.843" transform="translate(0.436 11.995)" fill="#f2a92e"/>
        </g>
      </g>
      <path id="Trazado_205134" data-name="Trazado 205134" d="M9.138,10.305l1.908,1.08L28.231,1.211,26.323.131Z" transform="translate(4.625 0.066)" fill="#e08910"/>
      <g id="Grupo_147248" data-name="Grupo 147248">
        <g id="Grupo_147247" data-name="Grupo 147247" clip-path="url(#clip-path)">
          <path id="Trazado_205135" data-name="Trazado 205135" d="M9.448,6.868,7.54,5.788a1.723,1.723,0,0,1,.506-.2l1.907,1.08a1.715,1.715,0,0,0-.5.2" transform="translate(3.816 2.827)" fill="#e08910"/>
          <path id="Trazado_205136" data-name="Trazado 205136" d="M9.784,6.677,7.876,5.6a1.253,1.253,0,0,1,.886.108l1.908,1.08a1.23,1.23,0,0,0-.886-.107" transform="translate(3.987 2.815)" fill="#e08910"/>
        </g>
      </g>
      <path id="Trazado_205137" data-name="Trazado 205137" d="M1.154,30.12,3.063,31.2l-.872-19.11L.282,11.011Z" transform="translate(0.143 5.573)" fill="#e08910"/>
      <path id="Trazado_205138" data-name="Trazado 205138" d="M3.086,12.367l-1.907-1.08L10.759,5.72,12.667,6.8Z" transform="translate(0.597 2.895)" fill="#e08910"/>
      <g id="Grupo_147250" data-name="Grupo 147250">
        <g id="Grupo_147249" data-name="Grupo 147249" clip-path="url(#clip-path)">
          <path id="Trazado_205139" data-name="Trazado 205139" d="M2.19,12.7.283,11.617A3,3,0,0,1,.968,9.81l1.908,1.08A3.018,3.018,0,0,0,2.19,12.7" transform="translate(0.143 4.965)" fill="#e08910"/>
          <path id="Trazado_205140" data-name="Trazado 205140" d="M2.646,11.089.738,10.009A2.5,2.5,0,0,1,1.4,9.416L3.309,10.5a2.522,2.522,0,0,0-.663.593" transform="translate(0.374 4.766)" fill="#e08910"/>
          <path id="Trazado_205141" data-name="Trazado 205141" d="M2.9,14.9l9.581-5.567a1.206,1.206,0,0,1,1.8.364l.6,1.392L32.071.914c.759-.45,1.384-.1,1.4.774L33.1,18.2a2.9,2.9,0,0,1-1.292,2.3L3.757,37.152c-.724.429-1.324.1-1.336-.741L1.549,17.3A3.035,3.035,0,0,1,2.9,14.9" transform="translate(0.784 0.363)" fill="#f2a92e"/>
        </g>
      </g>
      <path id="Trazado_205142" data-name="Trazado 205142" d="M2.806,21.56l-.868.011L1.02,13.345l.955.541Z" transform="translate(0.516 6.755)" fill="#9cb5cc"/>
      <path id="Trazado_205143" data-name="Trazado 205143" d="M1.975,20.424l-.955-.541L30.461.428l.953.541Z" transform="translate(0.516 0.217)" fill="#d7e7f7"/>
      <path id="Trazado_205144" data-name="Trazado 205144" d="M31.093.787l.822,7.68L2.485,27.916l-.831-7.674Z" transform="translate(0.837 0.398)" fill="#f8f9fc"/>
      <g id="Grupo_147252" data-name="Grupo 147252">
        <g id="Grupo_147251" data-name="Grupo 147251" clip-path="url(#clip-path)">
          <path id="Trazado_205145" data-name="Trazado 205145" d="M15.164,18.7a4.433,4.433,0,0,1,.788-1.4,4.335,4.335,0,0,1,1.086-1l16.8-10.094a1.714,1.714,0,0,1,.506-.209.849.849,0,0,1,.615.063L33.051,4.99a.857.857,0,0,0-.615-.063,1.773,1.773,0,0,0-.506.209L15.131,15.23a4.286,4.286,0,0,0-1.087,1,4.433,4.433,0,0,0-.788,1.4l-.593,1.923L1.447,26.232a3.065,3.065,0,0,0-.8.711A2.692,2.692,0,0,0,0,28.532L.846,42.695a.747.747,0,0,0,.342.684L3.1,44.457a.744.744,0,0,1-.342-.682L1.908,29.614a2.682,2.682,0,0,1,.649-1.591,3.009,3.009,0,0,1,.8-.709l11.215-6.687Z" transform="translate(0 2.479)" fill="#f2a92e"/>
          <path id="Trazado_205146" data-name="Trazado 205146" d="M33.2,5.853c.8-.474,1.467-.214,1.479.575l-.384,17.884a2.9,2.9,0,0,1-1.38,2.2L3.532,43.954c-.768.456-1.408.209-1.419-.542L1.267,29.251a3.032,3.032,0,0,1,1.447-2.3l11.215-6.687.593-1.922A4.878,4.878,0,0,1,16.4,15.947Z" transform="translate(0.641 2.842)" fill="#ffca00"/>
        </g>
      </g>
    </g>
    <g id="Grupo_147256" data-name="Grupo 147256" transform="translate(1322.004 274.072)">
      <g id="Grupo_147246-2" data-name="Grupo 147246">
        <g id="Grupo_147245-2" data-name="Grupo 147245" clip-path="url(#clip-path-5)">
          <path id="Trazado_205131-2" data-name="Trazado 205131" d="M24.553,2.646l-4-2.266A3.126,3.126,0,0,1,21.43.016l4,2.266a3.089,3.089,0,0,0-.882.364" transform="translate(44.403 0.035)" fill="#e08910"/>
          <path id="Trazado_205132-2" data-name="Trazado 205132" d="M24.832,2.317l-4-2.266a1.633,1.633,0,0,1,1.179.136l4,2.266a1.633,1.633,0,0,0-1.179-.136" transform="translate(45.006 0)" fill="#e08910"/>
          <path id="Trazado_205133-2" data-name="Trazado 205133" d="M5.7,27.738l-4-2.27A1.94,1.94,0,0,1,.861,23.7l4,2.27a1.944,1.944,0,0,0,.831,1.77" transform="translate(1.861 51.21)" fill="#f2a92e"/>
        </g>
      </g>
      <path id="Trazado_205134-2" data-name="Trazado 205134" d="M9.138,21.483l4,2.266L49.209,2.4,45.2.131Z" transform="translate(19.746 0.283)" fill="#e08910"/>
      <g id="Grupo_147248-2" data-name="Grupo 147248">
        <g id="Grupo_147247-2" data-name="Grupo 147247" clip-path="url(#clip-path-5)">
          <path id="Trazado_205135-2" data-name="Trazado 205135" d="M11.545,8.278l-4-2.266A3.616,3.616,0,0,1,8.6,5.585l4,2.266a3.6,3.6,0,0,0-1.059.427" transform="translate(16.293 12.069)" fill="#e08910"/>
          <path id="Trazado_205136-2" data-name="Trazado 205136" d="M11.881,7.9l-4-2.27a2.629,2.629,0,0,1,1.859.228l4,2.266A2.582,2.582,0,0,0,11.881,7.9" transform="translate(17.02 12.017)" fill="#e08910"/>
        </g>
      </g>
      <path id="Trazado_205137-2" data-name="Trazado 205137" d="M2.112,51.114l4,2.27L4.287,13.277l-4-2.266Z" transform="translate(0.61 23.794)" fill="#e08910"/>
      <path id="Trazado_205138-2" data-name="Trazado 205138" d="M5.181,19.669l-4-2.266L21.283,5.72l4,2.266Z" transform="translate(2.549 12.36)" fill="#e08910"/>
      <g id="Grupo_147250-2" data-name="Grupo 147250">
        <g id="Grupo_147249-2" data-name="Grupo 147249" clip-path="url(#clip-path-5)">
          <path id="Trazado_205139-2" data-name="Trazado 205139" d="M4.285,15.873l-4-2.27A6.3,6.3,0,0,1,1.722,9.81l4,2.266a6.333,6.333,0,0,0-1.441,3.8" transform="translate(0.611 21.199)" fill="#e08910"/>
          <path id="Trazado_205140-2" data-name="Trazado 205140" d="M4.743,12.928l-4-2.266A5.256,5.256,0,0,1,2.132,9.416l4,2.266a5.294,5.294,0,0,0-1.391,1.245" transform="translate(1.595 20.347)" fill="#e08910"/>
          <path id="Trazado_205141-2" data-name="Trazado 205141" d="M4.382,30.48,24.488,18.8c1.52-.9,3.224-.553,3.784.765l1.268,2.921L65.606,1.131c1.593-.945,2.9-.218,2.93,1.625l-.771,34.657a6.089,6.089,0,0,1-2.712,4.82L6.183,77.183c-1.52.9-2.778.205-2.8-1.555L1.549,35.522A6.37,6.37,0,0,1,4.382,30.48" transform="translate(3.347 1.549)" fill="#f2a92e"/>
        </g>
      </g>
      <path id="Trazado_205142-2" data-name="Trazado 205142" d="M4.769,30.585l-1.821.022L1.02,13.345l2,1.135Z" transform="translate(2.204 28.838)" fill="#9cb5cc"/>
      <path id="Trazado_205143-2" data-name="Trazado 205143" d="M3.024,42.393l-2-1.135L62.807.428l2,1.135Z" transform="translate(2.204 0.925)" fill="#d7e7f7"/>
      <path id="Trazado_205144-2" data-name="Trazado 205144" d="M63.438.787,65.164,16.9,3.4,57.722l-1.745-16.1Z" transform="translate(3.574 1.7)" fill="#f8f9fc"/>
      <g id="Grupo_147252-2" data-name="Grupo 147252">
        <g id="Grupo_147251-2" data-name="Grupo 147251" clip-path="url(#clip-path-5)">
          <path id="Trazado_205145-2" data-name="Trazado 205145" d="M31.824,33.873a9.3,9.3,0,0,1,1.653-2.937,9.1,9.1,0,0,1,2.279-2.089L71.017,7.663a3.6,3.6,0,0,1,1.062-.439,1.782,1.782,0,0,1,1.29.133l-4-2.266a1.8,1.8,0,0,0-1.29-.133,3.72,3.72,0,0,0-1.062.439L31.755,26.581a8.995,8.995,0,0,0-2.282,2.089,9.3,9.3,0,0,0-1.653,2.937l-1.245,4.037L3.038,49.672a6.433,6.433,0,0,0-1.675,1.492A5.649,5.649,0,0,0,0,54.5L1.777,84.221a1.567,1.567,0,0,0,.718,1.435l4,2.263a1.561,1.561,0,0,1-.718-1.432L4.005,56.768A5.629,5.629,0,0,1,5.367,53.43a6.314,6.314,0,0,1,1.675-1.489L30.579,37.907Z" transform="translate(0 10.585)" fill="#f2a92e"/>
          <path id="Trazado_205146-2" data-name="Trazado 205146" d="M68.279,6.113c1.685-1,3.079-.449,3.1,1.207l-.806,37.533a6.089,6.089,0,0,1-2.9,4.618l-61.66,36.6c-1.612.958-2.955.439-2.978-1.138L1.267,55.218A6.364,6.364,0,0,1,4.3,50.392L27.841,36.357l1.245-4.033A10.237,10.237,0,0,1,33.019,27.3Z" transform="translate(2.738 12.135)" fill="#ffca00"/>
        </g>
      </g>
    </g>
    <g id="Grupo_147257" data-name="Grupo 147257" transform="translate(1301.662 269.92)">
      <g id="Grupo_147237" data-name="Grupo 147237">
        <g id="Grupo_147236" data-name="Grupo 147236" clip-path="url(#clip-path-9)">
          <path id="Trazado_205115" data-name="Trazado 205115" d="M21.815.848,20.548.131a.989.989,0,0,1,.279-.115l1.267.717a.977.977,0,0,0-.279.115" fill="#e08910"/>
          <path id="Trazado_205116" data-name="Trazado 205116" d="M22.094.733,20.827.016A.517.517,0,0,1,21.2.059l1.267.717a.517.517,0,0,0-.373-.043" fill="#e08910"/>
          <path id="Trazado_205117" data-name="Trazado 205117" d="M2.391,24.976l-1.267-.718a.614.614,0,0,1-.263-.56l1.267.718a.615.615,0,0,0,.263.56" fill="#f2a92e"/>
        </g>
      </g>
      <path id="Trazado_205118" data-name="Trazado 205118" d="M9.138,6.886,10.4,7.6,21.815.848,20.548.131Z" fill="#e08910"/>
      <g id="Grupo_147239" data-name="Grupo 147239">
        <g id="Grupo_147238" data-name="Grupo 147238" clip-path="url(#clip-path-9)">
          <path id="Trazado_205119" data-name="Trazado 205119" d="M8.807,6.437,7.54,5.72a1.144,1.144,0,0,1,.336-.135L9.142,6.3a1.139,1.139,0,0,0-.335.135" fill="#e08910"/>
          <path id="Trazado_205120" data-name="Trazado 205120" d="M9.143,6.3,7.876,5.584a.832.832,0,0,1,.588.072l1.267.717A.817.817,0,0,0,9.143,6.3" fill="#e08910"/>
        </g>
      </g>
      <path id="Trazado_205121" data-name="Trazado 205121" d="M.861,23.7l1.267.718L1.549,11.728.282,11.011Z" fill="#e08910"/>
      <path id="Trazado_205122" data-name="Trazado 205122" d="M2.445,10.133,1.179,9.416l6.36-3.7,1.267.717Z" fill="#e08910"/>
      <g id="Grupo_147241" data-name="Grupo 147241">
        <g id="Grupo_147240" data-name="Grupo 147240" clip-path="url(#clip-path-9)">
          <path id="Trazado_205123" data-name="Trazado 205123" d="M1.549,11.728.283,11.01a1.993,1.993,0,0,1,.455-1.2l1.267.717a2,2,0,0,0-.456,1.2" fill="#e08910"/>
          <path id="Trazado_205124" data-name="Trazado 205124" d="M2.005,10.527.738,9.81a1.663,1.663,0,0,1,.441-.394l1.266.717a1.675,1.675,0,0,0-.44.394" fill="#e08910"/>
          <path id="Trazado_205125" data-name="Trazado 205125" d="M2.445,10.133l6.361-3.7a.8.8,0,0,1,1.2.242l.4.924L21.814.848c.5-.3.919-.069.927.514L22.5,12.326a1.926,1.926,0,0,1-.858,1.525L3.015,24.908c-.481.285-.879.065-.887-.492L1.549,11.728a2.015,2.015,0,0,1,.9-1.595" fill="#f2a92e"/>
        </g>
      </g>
      <path id="Trazado_205126" data-name="Trazado 205126" d="M2.206,18.8l-.576.007-.61-5.461.634.359Z" fill="#9cb5cc"/>
      <path id="Trazado_205127" data-name="Trazado 205127" d="M1.654,13.7l-.634-.359L20.567.428,21.2.787Z" fill="#d7e7f7"/>
      <path id="Trazado_205128" data-name="Trazado 205128" d="M21.2.787l.546,5.1L2.206,18.8,1.654,13.7Z" fill="#f8f9fc"/>
      <g id="Grupo_147243" data-name="Grupo 147243">
        <g id="Grupo_147242" data-name="Grupo 147242" clip-path="url(#clip-path-9)">
          <path id="Trazado_205129" data-name="Trazado 205129" d="M10.068,14.065a2.943,2.943,0,0,1,.523-.929,2.878,2.878,0,0,1,.721-.661l11.155-6.7a1.138,1.138,0,0,1,.336-.139.564.564,0,0,1,.408.042l-1.267-.717a.569.569,0,0,0-.408-.042,1.177,1.177,0,0,0-.336.139l-11.154,6.7a2.846,2.846,0,0,0-.722.661,2.943,2.943,0,0,0-.523.929l-.394,1.277L.961,19.063a2.035,2.035,0,0,0-.53.472A1.787,1.787,0,0,0,0,20.59l.562,9.4a.5.5,0,0,0,.227.454l1.267.716a.494.494,0,0,1-.227-.453l-.562-9.4A1.781,1.781,0,0,1,1.7,20.252a2,2,0,0,1,.53-.471l7.446-4.44Z" fill="#f2a92e"/>
          <path id="Trazado_205130" data-name="Trazado 205130" d="M22.467,5.773c.533-.315.974-.142.982.382l-.255,11.874a1.926,1.926,0,0,1-.916,1.461L2.771,31.07c-.51.3-.935.139-.942-.36l-.562-9.4a2.013,2.013,0,0,1,.961-1.527l7.446-4.44.394-1.276a3.238,3.238,0,0,1,1.244-1.59Z" fill="#ffca00"/>
        </g>
      </g>
    </g>
    <g id="Grupo_147258" data-name="Grupo 147258" transform="translate(1359.063 226.92)">
      <g id="Grupo_147237-2" data-name="Grupo 147237">
        <g id="Grupo_147236-2" data-name="Grupo 147236" clip-path="url(#clip-path-9)">
          <path id="Trazado_205115-2" data-name="Trazado 205115" d="M21.815.848,20.548.131a.989.989,0,0,1,.279-.115l1.267.717a.977.977,0,0,0-.279.115" fill="#e08910"/>
          <path id="Trazado_205116-2" data-name="Trazado 205116" d="M22.094.733,20.827.016A.517.517,0,0,1,21.2.059l1.267.717a.517.517,0,0,0-.373-.043" fill="#e08910"/>
          <path id="Trazado_205117-2" data-name="Trazado 205117" d="M2.391,24.976l-1.267-.718a.614.614,0,0,1-.263-.56l1.267.718a.615.615,0,0,0,.263.56" fill="#f2a92e"/>
        </g>
      </g>
      <path id="Trazado_205118-2" data-name="Trazado 205118" d="M9.138,6.886,10.4,7.6,21.815.848,20.548.131Z" fill="#e08910"/>
      <g id="Grupo_147239-2" data-name="Grupo 147239">
        <g id="Grupo_147238-2" data-name="Grupo 147238" clip-path="url(#clip-path-9)">
          <path id="Trazado_205119-2" data-name="Trazado 205119" d="M8.807,6.437,7.54,5.72a1.144,1.144,0,0,1,.336-.135L9.142,6.3a1.139,1.139,0,0,0-.335.135" fill="#e08910"/>
          <path id="Trazado_205120-2" data-name="Trazado 205120" d="M9.143,6.3,7.876,5.584a.832.832,0,0,1,.588.072l1.267.717A.817.817,0,0,0,9.143,6.3" fill="#e08910"/>
        </g>
      </g>
      <path id="Trazado_205121-2" data-name="Trazado 205121" d="M.861,23.7l1.267.718L1.549,11.728.282,11.011Z" fill="#e08910"/>
      <path id="Trazado_205122-2" data-name="Trazado 205122" d="M2.445,10.133,1.179,9.416l6.36-3.7,1.267.717Z" fill="#e08910"/>
      <g id="Grupo_147241-2" data-name="Grupo 147241">
        <g id="Grupo_147240-2" data-name="Grupo 147240" clip-path="url(#clip-path-9)">
          <path id="Trazado_205123-2" data-name="Trazado 205123" d="M1.549,11.728.283,11.01a1.993,1.993,0,0,1,.455-1.2l1.267.717a2,2,0,0,0-.456,1.2" fill="#e08910"/>
          <path id="Trazado_205124-2" data-name="Trazado 205124" d="M2.005,10.527.738,9.81a1.663,1.663,0,0,1,.441-.394l1.266.717a1.675,1.675,0,0,0-.44.394" fill="#e08910"/>
          <path id="Trazado_205125-2" data-name="Trazado 205125" d="M2.445,10.133l6.361-3.7a.8.8,0,0,1,1.2.242l.4.924L21.814.848c.5-.3.919-.069.927.514L22.5,12.326a1.926,1.926,0,0,1-.858,1.525L3.015,24.908c-.481.285-.879.065-.887-.492L1.549,11.728a2.015,2.015,0,0,1,.9-1.595" fill="#f2a92e"/>
        </g>
      </g>
      <path id="Trazado_205126-2" data-name="Trazado 205126" d="M2.206,18.8l-.576.007-.61-5.461.634.359Z" fill="#9cb5cc"/>
      <path id="Trazado_205127-2" data-name="Trazado 205127" d="M1.654,13.7l-.634-.359L20.567.428,21.2.787Z" fill="#d7e7f7"/>
      <path id="Trazado_205128-2" data-name="Trazado 205128" d="M21.2.787l.546,5.1L2.206,18.8,1.654,13.7Z" fill="#f8f9fc"/>
      <g id="Grupo_147243-2" data-name="Grupo 147243">
        <g id="Grupo_147242-2" data-name="Grupo 147242" clip-path="url(#clip-path-9)">
          <path id="Trazado_205129-2" data-name="Trazado 205129" d="M10.068,14.065a2.943,2.943,0,0,1,.523-.929,2.878,2.878,0,0,1,.721-.661l11.155-6.7a1.138,1.138,0,0,1,.336-.139.564.564,0,0,1,.408.042l-1.267-.717a.569.569,0,0,0-.408-.042,1.177,1.177,0,0,0-.336.139l-11.154,6.7a2.846,2.846,0,0,0-.722.661,2.943,2.943,0,0,0-.523.929l-.394,1.277L.961,19.063a2.035,2.035,0,0,0-.53.472A1.787,1.787,0,0,0,0,20.59l.562,9.4a.5.5,0,0,0,.227.454l1.267.716a.494.494,0,0,1-.227-.453l-.562-9.4A1.781,1.781,0,0,1,1.7,20.252a2,2,0,0,1,.53-.471l7.446-4.44Z" fill="#f2a92e"/>
          <path id="Trazado_205130-2" data-name="Trazado 205130" d="M22.467,5.773c.533-.315.974-.142.982.382l-.255,11.874a1.926,1.926,0,0,1-.916,1.461L2.771,31.07c-.51.3-.935.139-.942-.36l-.562-9.4a2.013,2.013,0,0,1,.961-1.527l7.446-4.44.394-1.276a3.238,3.238,0,0,1,1.244-1.59Z" fill="#ffca00"/>
        </g>
      </g>
    </g>
  </g>
</svg>
