<svg xmlns="http://www.w3.org/2000/svg" width="1029.667" height="578.824" viewBox="0 0 1029.667 578.824">
  <g id="sintesis" transform="translate(-285 -390)">
    <path id="Path_207519" data-name="Path 207519" d="M5,0H211.667a5,5,0,0,1,5,5V56a5,5,0,0,1-5,5H5a5,5,0,0,1-5-5V5A5,5,0,0,1,5,0Z" transform="translate(692.439 748.824)" fill="#084a93"/>
    <path id="Path_207520" data-name="Path 207520" d="M11.268-1.617A4.577,4.577,0,0,1,9.255-.294a8.429,8.429,0,0,1-2.883.47A5.711,5.711,0,0,1,3.458-.549a4.836,4.836,0,0,1-1.934-2.1A7.408,7.408,0,0,1,.826-5.9v-.87a7.868,7.868,0,0,1,.646-3.318A4.779,4.779,0,0,1,3.335-12.23a5.367,5.367,0,0,1,2.852-.743,5.345,5.345,0,0,1,3.56,1.085,4.639,4.639,0,0,1,1.521,3.16H8.7a2.552,2.552,0,0,0-.778-1.608,2.484,2.484,0,0,0-1.657-.51A2.338,2.338,0,0,0,4.219-9.835a5.315,5.315,0,0,0-.712,3.006v.817a5.06,5.06,0,0,0,.765,3.041A2.618,2.618,0,0,0,6.513-1.942a2.925,2.925,0,0,0,2.118-.633V-4.781h-2.4V-6.724h5.036ZM17.613.176a4.668,4.668,0,0,1-3.406-1.283,4.561,4.561,0,0,1-1.314-3.419v-.246a5.745,5.745,0,0,1,.554-2.562,4.064,4.064,0,0,1,1.569-1.74,4.4,4.4,0,0,1,2.316-.611A3.947,3.947,0,0,1,20.4-8.455a5,5,0,0,1,1.121,3.489v1.037H15.469a2.36,2.36,0,0,0,.743,1.494,2.245,2.245,0,0,0,1.569.563,2.742,2.742,0,0,0,2.294-1.063l1.248,1.4A3.813,3.813,0,0,1,19.775-.277,5.075,5.075,0,0,1,17.613.176Zm-.29-7.813a1.587,1.587,0,0,0-1.226.512,2.651,2.651,0,0,0-.6,1.466h3.533v-.2a1.891,1.891,0,0,0-.457-1.311A1.638,1.638,0,0,0,17.323-7.638Zm10.793,5.01a.818.818,0,0,0-.461-.734,5.241,5.241,0,0,0-1.481-.479q-3.393-.712-3.393-2.883a2.613,2.613,0,0,1,1.05-2.114,4.237,4.237,0,0,1,2.747-.848,4.56,4.56,0,0,1,2.9.853A2.687,2.687,0,0,1,30.56-6.618H28.02a1.229,1.229,0,0,0-.352-.9,1.488,1.488,0,0,0-1.1-.356,1.52,1.52,0,0,0-.993.29.916.916,0,0,0-.352.738.783.783,0,0,0,.4.681,4.114,4.114,0,0,0,1.349.448,11.019,11.019,0,0,1,1.6.426,2.628,2.628,0,0,1,2.013,2.558,2.481,2.481,0,0,1-1.116,2.1,4.815,4.815,0,0,1-2.883.8A5.029,5.029,0,0,1,24.464-.25,3.561,3.561,0,0,1,23.01-1.419a2.716,2.716,0,0,1-.527-1.6h2.408a1.326,1.326,0,0,0,.5,1.037,1.987,1.987,0,0,0,1.248.36,1.839,1.839,0,0,0,1.1-.277A.861.861,0,0,0,28.116-2.628Zm7.146-9.22V-9.51h1.626v1.863H35.262V-2.9a1.133,1.133,0,0,0,.2.756,1.015,1.015,0,0,0,.773.229,4.051,4.051,0,0,0,.747-.062V-.053a5.229,5.229,0,0,1-1.538.229,2.425,2.425,0,0,1-2.725-2.7V-7.646H31.333V-9.51h1.389v-2.338ZM40.983,0H38.435V-9.51h2.549Zm-2.7-11.971a1.251,1.251,0,0,1,.382-.94,1.436,1.436,0,0,1,1.042-.369,1.44,1.44,0,0,1,1.037.369,1.244,1.244,0,0,1,.387.94,1.247,1.247,0,0,1-.391.949,1.443,1.443,0,0,1-1.033.369,1.443,1.443,0,0,1-1.033-.369A1.247,1.247,0,0,1,38.285-11.971ZM42.68-4.843a5.64,5.64,0,0,1,.545-2.522,3.989,3.989,0,0,1,1.569-1.714,4.577,4.577,0,0,1,2.377-.606,4.33,4.33,0,0,1,3.142,1.178,4.727,4.727,0,0,1,1.358,3.2l.018.65a4.97,4.97,0,0,1-1.222,3.511A4.247,4.247,0,0,1,47.188.176a4.268,4.268,0,0,1-3.283-1.318A5.058,5.058,0,0,1,42.68-4.729Zm2.54.18a3.555,3.555,0,0,0,.51,2.073,1.682,1.682,0,0,0,1.459.717,1.686,1.686,0,0,0,1.441-.709,3.89,3.89,0,0,0,.519-2.267,3.519,3.519,0,0,0-.519-2.06,1.686,1.686,0,0,0-1.459-.731,1.658,1.658,0,0,0-1.441.726A3.955,3.955,0,0,0,45.22-4.662ZM47.672-13.5H50.44l-2.435,2.725H45.94Zm7.919,3.99.079,1.1A3.32,3.32,0,0,1,58.4-9.686a2.759,2.759,0,0,1,2.25.888,4.142,4.142,0,0,1,.756,2.654V0h-2.54V-6.082a1.648,1.648,0,0,0-.352-1.173,1.574,1.574,0,0,0-1.169-.365,1.747,1.747,0,0,0-1.608.914V0H53.2V-9.51Zm11.83,4.685a5.731,5.731,0,0,1,1-3.542,3.237,3.237,0,0,1,2.729-1.318,2.913,2.913,0,0,1,2.294,1.037V-13.5H75.99V0H73.7l-.123-1.011A2.989,2.989,0,0,1,71.13.176a3.228,3.228,0,0,1-2.694-1.323A5.916,5.916,0,0,1,67.421-4.825Zm2.54.189a3.754,3.754,0,0,0,.466,2.051,1.517,1.517,0,0,0,1.354.713,1.7,1.7,0,0,0,1.661-.995V-6.625A1.675,1.675,0,0,0,71.8-7.62Q69.961-7.62,69.961-4.636ZM82.336.176A4.668,4.668,0,0,1,78.93-1.107a4.561,4.561,0,0,1-1.314-3.419v-.246a5.745,5.745,0,0,1,.554-2.562,4.064,4.064,0,0,1,1.569-1.74,4.4,4.4,0,0,1,2.316-.611,3.947,3.947,0,0,1,3.072,1.23,5,5,0,0,1,1.121,3.489v1.037H80.191a2.36,2.36,0,0,0,.743,1.494,2.245,2.245,0,0,0,1.569.563A2.742,2.742,0,0,0,84.8-2.936l1.248,1.4A3.813,3.813,0,0,1,84.5-.277,5.075,5.075,0,0,1,82.336.176Zm-.29-7.813a1.587,1.587,0,0,0-1.226.512,2.651,2.651,0,0,0-.6,1.466h3.533v-.2a1.891,1.891,0,0,0-.457-1.311A1.638,1.638,0,0,0,82.046-7.638Zm15.275,5.01a.818.818,0,0,0-.461-.734,5.241,5.241,0,0,0-1.481-.479q-3.393-.712-3.393-2.883a2.613,2.613,0,0,1,1.05-2.114,4.237,4.237,0,0,1,2.747-.848,4.56,4.56,0,0,1,2.9.853,2.687,2.687,0,0,1,1.085,2.215h-2.54a1.229,1.229,0,0,0-.352-.9,1.488,1.488,0,0,0-1.1-.356,1.52,1.52,0,0,0-.993.29.916.916,0,0,0-.352.738.783.783,0,0,0,.4.681,4.114,4.114,0,0,0,1.349.448,11.019,11.019,0,0,1,1.6.426,2.628,2.628,0,0,1,2.013,2.558,2.481,2.481,0,0,1-1.116,2.1,4.815,4.815,0,0,1-2.883.8A5.029,5.029,0,0,1,93.669-.25a3.561,3.561,0,0,1-1.455-1.169,2.716,2.716,0,0,1-.527-1.6H94.1a1.326,1.326,0,0,0,.5,1.037,1.987,1.987,0,0,0,1.248.36,1.839,1.839,0,0,0,1.1-.277A.861.861,0,0,0,97.321-2.628ZM105.8.176A4.668,4.668,0,0,1,102.4-1.107a4.561,4.561,0,0,1-1.314-3.419v-.246a5.745,5.745,0,0,1,.554-2.562,4.064,4.064,0,0,1,1.569-1.74,4.4,4.4,0,0,1,2.316-.611,3.947,3.947,0,0,1,3.072,1.23,5,5,0,0,1,1.121,3.489v1.037h-6.056a2.36,2.36,0,0,0,.743,1.494,2.245,2.245,0,0,0,1.569.563,2.742,2.742,0,0,0,2.294-1.063l1.248,1.4a3.813,3.813,0,0,1-1.547,1.261A5.075,5.075,0,0,1,105.8.176Zm-.29-7.813a1.587,1.587,0,0,0-1.226.512,2.651,2.651,0,0,0-.6,1.466h3.533v-.2a1.891,1.891,0,0,0-.457-1.311A1.638,1.638,0,0,0,105.513-7.638Zm10.986.51a6.9,6.9,0,0,0-.914-.07,1.86,1.86,0,0,0-1.89.976V0h-2.54V-9.51h2.4l.07,1.134a2.354,2.354,0,0,1,2.118-1.31,2.662,2.662,0,0,1,.791.114ZM121.438-3.1l1.767-6.407h2.654L122.651,0h-2.426l-3.208-9.51h2.654ZM129.656,0h-2.549V-9.51h2.549Zm-2.7-11.971a1.251,1.251,0,0,1,.382-.94,1.436,1.436,0,0,1,1.042-.369,1.44,1.44,0,0,1,1.037.369,1.244,1.244,0,0,1,.387.94,1.247,1.247,0,0,1-.391.949,1.443,1.443,0,0,1-1.033.369,1.443,1.443,0,0,1-1.033-.369A1.247,1.247,0,0,1,126.958-11.971Zm4.395,7.146a5.731,5.731,0,0,1,1-3.542,3.237,3.237,0,0,1,2.729-1.318,2.913,2.913,0,0,1,2.294,1.037V-13.5h2.549V0h-2.294L137.5-1.011A2.989,2.989,0,0,1,135.062.176a3.228,3.228,0,0,1-2.694-1.323A5.916,5.916,0,0,1,131.353-4.825Zm2.54.189a3.754,3.754,0,0,0,.466,2.051,1.517,1.517,0,0,0,1.354.713,1.7,1.7,0,0,0,1.661-.995V-6.625a1.675,1.675,0,0,0-1.644-.995Q133.893-7.62,133.893-4.636Zm7.6-.207a5.64,5.64,0,0,1,.545-2.522,3.989,3.989,0,0,1,1.569-1.714,4.577,4.577,0,0,1,2.377-.606,4.33,4.33,0,0,1,3.142,1.178,4.727,4.727,0,0,1,1.358,3.2l.018.65a4.97,4.97,0,0,1-1.222,3.511A4.247,4.247,0,0,1,146,.176a4.268,4.268,0,0,1-3.283-1.318A5.058,5.058,0,0,1,141.5-4.729Zm2.54.18a3.555,3.555,0,0,0,.51,2.073A1.682,1.682,0,0,0,146-1.872a1.686,1.686,0,0,0,1.441-.709,3.89,3.89,0,0,0,.519-2.267,3.519,3.519,0,0,0-.519-2.06,1.686,1.686,0,0,0-1.459-.731,1.658,1.658,0,0,0-1.441.726A3.955,3.955,0,0,0,144.035-4.662Zm13.377-2.465a6.9,6.9,0,0,0-.914-.07,1.86,1.86,0,0,0-1.89.976V0h-2.54V-9.51h2.4l.07,1.134a2.354,2.354,0,0,1,2.118-1.31,2.662,2.662,0,0,1,.791.114Zm5.432,7.3a4.668,4.668,0,0,1-3.406-1.283,4.561,4.561,0,0,1-1.314-3.419v-.246a5.745,5.745,0,0,1,.554-2.562,4.064,4.064,0,0,1,1.569-1.74,4.4,4.4,0,0,1,2.316-.611,3.947,3.947,0,0,1,3.072,1.23,5,5,0,0,1,1.121,3.489v1.037H160.7a2.36,2.36,0,0,0,.743,1.494,2.245,2.245,0,0,0,1.569.563A2.742,2.742,0,0,0,165.3-2.936l1.248,1.4a3.813,3.813,0,0,1-1.547,1.261A5.075,5.075,0,0,1,162.844.176Zm-.29-7.813a1.587,1.587,0,0,0-1.226.512,2.651,2.651,0,0,0-.6,1.466h3.533v-.2a1.891,1.891,0,0,0-.457-1.311A1.638,1.638,0,0,0,162.554-7.638Zm10.793,5.01a.818.818,0,0,0-.461-.734,5.241,5.241,0,0,0-1.481-.479q-3.393-.712-3.393-2.883a2.613,2.613,0,0,1,1.05-2.114,4.237,4.237,0,0,1,2.747-.848,4.56,4.56,0,0,1,2.9.853,2.687,2.687,0,0,1,1.085,2.215h-2.54a1.229,1.229,0,0,0-.352-.9,1.488,1.488,0,0,0-1.1-.356,1.52,1.52,0,0,0-.993.29.916.916,0,0,0-.352.738.783.783,0,0,0,.4.681,4.114,4.114,0,0,0,1.349.448,11.019,11.019,0,0,1,1.6.426,2.628,2.628,0,0,1,2.013,2.558,2.481,2.481,0,0,1-1.116,2.1,4.815,4.815,0,0,1-2.883.8,5.029,5.029,0,0,1-2.123-.426,3.561,3.561,0,0,1-1.455-1.169,2.716,2.716,0,0,1-.527-1.6h2.408a1.326,1.326,0,0,0,.5,1.037,1.987,1.987,0,0,0,1.248.36,1.839,1.839,0,0,0,1.1-.277A.861.861,0,0,0,173.347-2.628Z" transform="translate(713.438 785.475)" fill="#fff"/>
    <path id="Path_207521" data-name="Path 207521" d="M0,0V50" transform="translate(799.833 809.648)" fill="none" stroke="#707070" stroke-width="2"/>
    <path id="Path_207522" data-name="Path 207522" d="M5,0h98.333a5,5,0,0,1,5,5V54a5,5,0,0,1-5,5H5a5,5,0,0,1-5-5V5A5,5,0,0,1,5,0Z" transform="translate(1010.667 909.824)" fill="#75e3d9"/>
    <path id="Path_207523" data-name="Path 207523" d="M1.016,0V-11.375H5a5.232,5.232,0,0,1,3.141.793,2.712,2.712,0,0,1,1.07,2.324,2.57,2.57,0,0,1-.43,1.473,2.482,2.482,0,0,1-1.2.934,2.4,2.4,0,0,1,1.379.883,2.61,2.61,0,0,1,.5,1.625A3,3,0,0,1,8.422-.859,4.713,4.713,0,0,1,5.438,0ZM3.359-4.953v3.07H5.367A1.938,1.938,0,0,0,6.66-2.277a1.353,1.353,0,0,0,.465-1.09A1.428,1.428,0,0,0,5.508-4.953Zm0-1.656H5.094q1.773-.031,1.773-1.414a1.307,1.307,0,0,0-.449-1.113A2.363,2.363,0,0,0,5-9.477H3.359ZM13.461,0H11.2V-8.453h2.266Zm-2.4-10.641a1.112,1.112,0,0,1,.34-.836,1.277,1.277,0,0,1,.926-.328,1.28,1.28,0,0,1,.922.328,1.105,1.105,0,0,1,.344.836,1.108,1.108,0,0,1-.348.844,1.283,1.283,0,0,1-.918.328A1.283,1.283,0,0,1,11.41-9.8,1.108,1.108,0,0,1,11.063-10.641Zm6.961.109v2.078h1.445V-6.8H18.023v4.219a1.007,1.007,0,0,0,.18.672.9.9,0,0,0,.688.2,3.6,3.6,0,0,0,.664-.055V-.047a4.648,4.648,0,0,1-1.367.2,2.156,2.156,0,0,1-2.422-2.4V-6.8H14.531V-8.453h1.234v-2.078ZM25.625,0A2.507,2.507,0,0,1,25.4-.758a2.732,2.732,0,0,1-2.133.914,3,3,0,0,1-2.059-.719,2.312,2.312,0,0,1-.816-1.812,2.389,2.389,0,0,1,1-2.062,4.915,4.915,0,0,1,2.879-.727H25.3v-.484a1.393,1.393,0,0,0-.3-.937,1.183,1.183,0,0,0-.949-.352,1.345,1.345,0,0,0-.895.273.929.929,0,0,0-.324.75H20.578a2.268,2.268,0,0,1,.453-1.359,3,3,0,0,1,1.281-.98,4.669,4.669,0,0,1,1.859-.355,3.689,3.689,0,0,1,2.48.785,2.747,2.747,0,0,1,.918,2.207v3.664a4.041,4.041,0,0,0,.336,1.82V0ZM23.758-1.57a1.945,1.945,0,0,0,.922-.223,1.462,1.462,0,0,0,.625-.6V-3.844h-.844q-1.7,0-1.8,1.172l-.008.133a.9.9,0,0,0,.3.7A1.153,1.153,0,0,0,23.758-1.57ZM24.617-12h2.461L24.914-9.578H23.078Zm8.2,10.336a1.481,1.481,0,0,0,1.016-.344,1.2,1.2,0,0,0,.406-.914h2.117a2.9,2.9,0,0,1-.469,1.574A3.093,3.093,0,0,1,34.629-.238a3.949,3.949,0,0,1-1.77.395A3.67,3.67,0,0,1,30-1,4.56,4.56,0,0,1,28.953-4.18v-.148a4.508,4.508,0,0,1,1.039-3.117,3.627,3.627,0,0,1,2.852-1.164,3.555,3.555,0,0,1,2.543.9,3.2,3.2,0,0,1,.973,2.4H34.242a1.551,1.551,0,0,0-.406-1.072A1.354,1.354,0,0,0,32.8-6.789a1.36,1.36,0,0,0-1.191.575,3.333,3.333,0,0,0-.4,1.866v.235a3.375,3.375,0,0,0,.4,1.878A1.377,1.377,0,0,0,32.82-1.664ZM37.3-4.3a5.013,5.013,0,0,1,.484-2.242A3.546,3.546,0,0,1,39.176-8.07a4.069,4.069,0,0,1,2.113-.539,3.849,3.849,0,0,1,2.793,1.047,4.2,4.2,0,0,1,1.207,2.844l.016.578A4.418,4.418,0,0,1,44.219-1.02,3.775,3.775,0,0,1,41.3.156a3.793,3.793,0,0,1-2.918-1.172A4.5,4.5,0,0,1,37.3-4.2Zm2.258.16A3.16,3.16,0,0,0,40.008-2.3a1.5,1.5,0,0,0,1.3.638,1.5,1.5,0,0,0,1.281-.63,3.457,3.457,0,0,0,.461-2.015,3.128,3.128,0,0,0-.461-1.831,1.5,1.5,0,0,0-1.3-.649,1.474,1.474,0,0,0-1.281.646A3.516,3.516,0,0,0,39.555-4.144ZM51.445-6.336a6.134,6.134,0,0,0-.812-.062,1.654,1.654,0,0,0-1.68.867V0H46.7V-8.453h2.133l.063,1.008a2.092,2.092,0,0,1,1.883-1.164,2.366,2.366,0,0,1,.7.1ZM57.2,0a2.507,2.507,0,0,1-.227-.758,2.732,2.732,0,0,1-2.133.914,3,3,0,0,1-2.059-.719,2.312,2.312,0,0,1-.816-1.812,2.389,2.389,0,0,1,1-2.062,4.915,4.915,0,0,1,2.879-.727h1.039v-.484a1.393,1.393,0,0,0-.3-.937,1.183,1.183,0,0,0-.949-.352,1.345,1.345,0,0,0-.895.273.929.929,0,0,0-.324.75H52.148A2.268,2.268,0,0,1,52.6-7.273a3,3,0,0,1,1.281-.98,4.669,4.669,0,0,1,1.859-.355,3.689,3.689,0,0,1,2.48.785,2.747,2.747,0,0,1,.918,2.207v3.664a4.041,4.041,0,0,0,.336,1.82V0ZM55.328-1.57a1.945,1.945,0,0,0,.922-.223,1.462,1.462,0,0,0,.625-.6V-3.844h-.844q-1.7,0-1.8,1.172l-.008.133a.9.9,0,0,0,.3.7A1.153,1.153,0,0,0,55.328-1.57Zm10.125-.766a.727.727,0,0,0-.41-.652,4.659,4.659,0,0,0-1.316-.426q-3.016-.633-3.016-2.562a2.323,2.323,0,0,1,.934-1.879,3.766,3.766,0,0,1,2.441-.754,4.053,4.053,0,0,1,2.574.758,2.388,2.388,0,0,1,.965,1.969H65.367a1.092,1.092,0,0,0-.312-.8A1.322,1.322,0,0,0,64.078-7a1.351,1.351,0,0,0-.883.258.814.814,0,0,0-.312.656.7.7,0,0,0,.355.605,3.657,3.657,0,0,0,1.2.4,9.8,9.8,0,0,1,1.422.379A2.336,2.336,0,0,1,67.648-2.43a2.2,2.2,0,0,1-.992,1.871,4.28,4.28,0,0,1-2.562.715,4.47,4.47,0,0,1-1.887-.379,3.166,3.166,0,0,1-1.293-1.039,2.414,2.414,0,0,1-.469-1.426h2.141a1.179,1.179,0,0,0,.445.922,1.766,1.766,0,0,0,1.109.32,1.635,1.635,0,0,0,.98-.246A.766.766,0,0,0,65.453-2.336Z" transform="translate(1030.667 944.65)" fill="#12263f"/>
    <path id="Path_207524" data-name="Path 207524" d="M5,0H158.667a5,5,0,0,1,5,5V54a5,5,0,0,1-5,5H5a5,5,0,0,1-5-5V5A5,5,0,0,1,5,0Z" transform="translate(1151 909.824)" fill="#75e3d9"/>
    <path id="Path_207525" data-name="Path 207525" d="M1.016,0V-11.375H5a5.232,5.232,0,0,1,3.141.793,2.712,2.712,0,0,1,1.07,2.324,2.57,2.57,0,0,1-.43,1.473,2.482,2.482,0,0,1-1.2.934,2.4,2.4,0,0,1,1.379.883,2.61,2.61,0,0,1,.5,1.625A3,3,0,0,1,8.422-.859,4.713,4.713,0,0,1,5.438,0ZM3.359-4.953v3.07H5.367A1.938,1.938,0,0,0,6.66-2.277a1.353,1.353,0,0,0,.465-1.09A1.428,1.428,0,0,0,5.508-4.953Zm0-1.656H5.094q1.773-.031,1.773-1.414a1.307,1.307,0,0,0-.449-1.113A2.363,2.363,0,0,0,5-9.477H3.359ZM16.141-.859A2.831,2.831,0,0,1,13.828.156a2.67,2.67,0,0,1-2.074-.781,3.335,3.335,0,0,1-.73-2.289V-8.453h2.258v5.467q0,1.322,1.2,1.322a1.63,1.63,0,0,0,1.578-.8V-8.453h2.266V0H16.2ZM23.922.156A4.15,4.15,0,0,1,20.895-.984a4.054,4.054,0,0,1-1.168-3.039v-.219a5.106,5.106,0,0,1,.492-2.277,3.612,3.612,0,0,1,1.395-1.547,3.914,3.914,0,0,1,2.059-.543A3.508,3.508,0,0,1,26.4-7.516a4.444,4.444,0,0,1,1,3.1v.922H22.016a2.1,2.1,0,0,0,.66,1.328,2,2,0,0,0,1.395.5,2.437,2.437,0,0,0,2.039-.945l1.109,1.242A3.389,3.389,0,0,1,25.844-.246,4.511,4.511,0,0,1,23.922.156Zm-.258-6.945a1.411,1.411,0,0,0-1.09.455,2.357,2.357,0,0,0-.535,1.3H25.18v-.181a1.681,1.681,0,0,0-.406-1.165A1.456,1.456,0,0,0,23.664-6.789Zm7.094-1.664.07.977a2.951,2.951,0,0,1,2.43-1.133,2.453,2.453,0,0,1,2,.789,3.682,3.682,0,0,1,.672,2.359V0H33.672V-5.406a1.465,1.465,0,0,0-.312-1.043,1.4,1.4,0,0,0-1.039-.324,1.553,1.553,0,0,0-1.43.813V0H28.633V-8.453ZM42.539,0a2.507,2.507,0,0,1-.227-.758A2.732,2.732,0,0,1,40.18.156a3,3,0,0,1-2.059-.719A2.312,2.312,0,0,1,37.3-2.375a2.389,2.389,0,0,1,1-2.062,4.915,4.915,0,0,1,2.879-.727h1.039v-.484a1.393,1.393,0,0,0-.3-.937,1.183,1.183,0,0,0-.949-.352,1.345,1.345,0,0,0-.895.273.929.929,0,0,0-.324.75H37.492a2.268,2.268,0,0,1,.453-1.359,3,3,0,0,1,1.281-.98,4.669,4.669,0,0,1,1.859-.355,3.689,3.689,0,0,1,2.48.785,2.747,2.747,0,0,1,.918,2.207v3.664a4.041,4.041,0,0,0,.336,1.82V0ZM40.672-1.57a1.945,1.945,0,0,0,.922-.223,1.462,1.462,0,0,0,.625-.6V-3.844h-.844q-1.7,0-1.8,1.172l-.008.133a.9.9,0,0,0,.3.7A1.153,1.153,0,0,0,40.672-1.57ZM50.8-2.336a.727.727,0,0,0-.41-.652,4.659,4.659,0,0,0-1.316-.426q-3.016-.633-3.016-2.562a2.323,2.323,0,0,1,.934-1.879,3.766,3.766,0,0,1,2.441-.754A4.053,4.053,0,0,1,52-7.852a2.388,2.388,0,0,1,.965,1.969H50.711a1.092,1.092,0,0,0-.312-.8A1.322,1.322,0,0,0,49.422-7a1.351,1.351,0,0,0-.883.258.814.814,0,0,0-.312.656.7.7,0,0,0,.355.605,3.657,3.657,0,0,0,1.2.4A9.8,9.8,0,0,1,51.2-4.7,2.336,2.336,0,0,1,52.992-2.43,2.2,2.2,0,0,1,52-.559a4.28,4.28,0,0,1-2.562.715,4.47,4.47,0,0,1-1.887-.379,3.166,3.166,0,0,1-1.293-1.039,2.414,2.414,0,0,1-.469-1.426H47.93a1.179,1.179,0,0,0,.445.922,1.766,1.766,0,0,0,1.109.32,1.635,1.635,0,0,0,.98-.246A.766.766,0,0,0,50.8-2.336ZM66.039-4.148a5.07,5.07,0,0,1-.887,3.129A2.843,2.843,0,0,1,62.758.156a2.633,2.633,0,0,1-2.07-.891V3.25H58.43v-11.7h2.094l.078.828a2.654,2.654,0,0,1,2.141-.984,2.862,2.862,0,0,1,2.43,1.156,5.207,5.207,0,0,1,.867,3.188Zm-2.258-.164a3.327,3.327,0,0,0-.418-1.82,1.361,1.361,0,0,0-1.215-.641,1.479,1.479,0,0,0-1.461.813V-2.5a1.5,1.5,0,0,0,1.477.836Q63.781-1.664,63.781-4.312Zm8.406-2.023a6.134,6.134,0,0,0-.812-.062,1.654,1.654,0,0,0-1.68.867V0H67.438V-8.453H69.57l.063,1.008a2.092,2.092,0,0,1,1.883-1.164,2.366,2.366,0,0,1,.7.1ZM77.938,0a2.507,2.507,0,0,1-.227-.758,2.732,2.732,0,0,1-2.133.914A3,3,0,0,1,73.52-.562,2.312,2.312,0,0,1,72.7-2.375a2.389,2.389,0,0,1,1-2.062,4.915,4.915,0,0,1,2.879-.727h1.039v-.484a1.393,1.393,0,0,0-.3-.937,1.183,1.183,0,0,0-.949-.352,1.345,1.345,0,0,0-.895.273.929.929,0,0,0-.324.75H72.891a2.268,2.268,0,0,1,.453-1.359,3,3,0,0,1,1.281-.98,4.669,4.669,0,0,1,1.859-.355,3.689,3.689,0,0,1,2.48.785,2.747,2.747,0,0,1,.918,2.207v3.664a4.041,4.041,0,0,0,.336,1.82V0ZM76.07-1.57a1.945,1.945,0,0,0,.922-.223,1.462,1.462,0,0,0,.625-.6V-3.844h-.844q-1.7,0-1.8,1.172l-.008.133a.9.9,0,0,0,.3.7A1.153,1.153,0,0,0,76.07-1.57ZM76.93-12h2.461L77.227-9.578H75.391Zm8.2,10.336a1.481,1.481,0,0,0,1.016-.344,1.2,1.2,0,0,0,.406-.914h2.117A2.9,2.9,0,0,1,88.2-1.348,3.093,3.093,0,0,1,86.941-.238a3.949,3.949,0,0,1-1.77.395A3.67,3.67,0,0,1,82.313-1,4.56,4.56,0,0,1,81.266-4.18v-.148A4.508,4.508,0,0,1,82.3-7.445a3.627,3.627,0,0,1,2.852-1.164,3.555,3.555,0,0,1,2.543.9,3.2,3.2,0,0,1,.973,2.4H86.555a1.551,1.551,0,0,0-.406-1.072,1.354,1.354,0,0,0-1.031-.412,1.36,1.36,0,0,0-1.191.575,3.333,3.333,0,0,0-.4,1.866v.235a3.375,3.375,0,0,0,.4,1.878A1.377,1.377,0,0,0,85.133-1.664Zm7.531-8.867v2.078h1.445V-6.8H92.664v4.219a1.007,1.007,0,0,0,.18.672.9.9,0,0,0,.688.2,3.6,3.6,0,0,0,.664-.055V-.047a4.648,4.648,0,0,1-1.367.2,2.156,2.156,0,0,1-2.422-2.4V-6.8H89.172V-8.453h1.234v-2.078ZM97.75,0H95.484V-8.453H97.75Zm-2.4-10.641a1.112,1.112,0,0,1,.34-.836,1.277,1.277,0,0,1,.926-.328,1.28,1.28,0,0,1,.922.328,1.105,1.105,0,0,1,.344.836,1.108,1.108,0,0,1-.348.844,1.283,1.283,0,0,1-.918.328A1.283,1.283,0,0,1,95.7-9.8,1.108,1.108,0,0,1,95.352-10.641Zm7.773,8.977a1.481,1.481,0,0,0,1.016-.344,1.2,1.2,0,0,0,.406-.914h2.117a2.9,2.9,0,0,1-.469,1.574,3.093,3.093,0,0,1-1.262,1.109,3.949,3.949,0,0,1-1.77.395A3.67,3.67,0,0,1,100.3-1,4.56,4.56,0,0,1,99.258-4.18v-.148A4.508,4.508,0,0,1,100.3-7.445a3.627,3.627,0,0,1,2.852-1.164,3.555,3.555,0,0,1,2.543.9,3.2,3.2,0,0,1,.973,2.4h-2.117a1.551,1.551,0,0,0-.406-1.072,1.354,1.354,0,0,0-1.031-.412,1.36,1.36,0,0,0-1.191.575,3.333,3.333,0,0,0-.4,1.866v.235a3.375,3.375,0,0,0,.4,1.878A1.377,1.377,0,0,0,103.125-1.664ZM112.852,0a2.507,2.507,0,0,1-.227-.758,2.732,2.732,0,0,1-2.133.914,3,3,0,0,1-2.059-.719,2.312,2.312,0,0,1-.816-1.812,2.389,2.389,0,0,1,1-2.062,4.915,4.915,0,0,1,2.879-.727h1.039v-.484a1.393,1.393,0,0,0-.3-.937,1.183,1.183,0,0,0-.949-.352,1.345,1.345,0,0,0-.895.273.929.929,0,0,0-.324.75H107.8a2.268,2.268,0,0,1,.453-1.359,3,3,0,0,1,1.281-.98,4.669,4.669,0,0,1,1.859-.355,3.689,3.689,0,0,1,2.48.785,2.747,2.747,0,0,1,.918,2.207v3.664a4.041,4.041,0,0,0,.336,1.82V0Zm-1.867-1.57a1.945,1.945,0,0,0,.922-.223,1.462,1.462,0,0,0,.625-.6V-3.844h-.844q-1.7,0-1.8,1.172l-.008.133a.9.9,0,0,0,.3.7A1.153,1.153,0,0,0,110.984-1.57Zm10.125-.766a.727.727,0,0,0-.41-.652,4.659,4.659,0,0,0-1.316-.426q-3.016-.633-3.016-2.562a2.323,2.323,0,0,1,.934-1.879,3.766,3.766,0,0,1,2.441-.754,4.053,4.053,0,0,1,2.574.758,2.388,2.388,0,0,1,.965,1.969h-2.258a1.092,1.092,0,0,0-.312-.8A1.322,1.322,0,0,0,119.734-7a1.351,1.351,0,0,0-.883.258.814.814,0,0,0-.312.656.7.7,0,0,0,.355.605,3.657,3.657,0,0,0,1.2.4,9.8,9.8,0,0,1,1.422.379A2.336,2.336,0,0,1,123.3-2.43a2.2,2.2,0,0,1-.992,1.871,4.28,4.28,0,0,1-2.562.715,4.47,4.47,0,0,1-1.887-.379,3.166,3.166,0,0,1-1.293-1.039,2.414,2.414,0,0,1-.469-1.426h2.141a1.179,1.179,0,0,0,.445.922,1.766,1.766,0,0,0,1.109.32,1.635,1.635,0,0,0,.98-.246A.766.766,0,0,0,121.109-2.336Z" transform="translate(1170.98 944.65)" fill="#12263f"/>
    <path id="Path_207526" data-name="Path 207526" d="M0,0V50" transform="translate(1064.667 859.648)" fill="none" stroke="#707070" stroke-width="2"/>
    <path id="Path_207181" data-name="Path 207181" d="M4725.229,1610.842H4407.044v50" transform="translate(-4055.563 -751.193)" fill="none" stroke="#707070" stroke-width="2"/>
    <path id="Path_207182" data-name="Path 207182" d="M4676.753,1610.842H5243.7v50" transform="translate(-4010.863 -751.193)" fill="none" stroke="#707070" stroke-width="2"/>
    <path id="Path_207527" data-name="Path 207527" d="M5,0H127.667a5,5,0,0,1,5,5V54a5,5,0,0,1-5,5H5a5,5,0,0,1-5-5V5A5,5,0,0,1,5,0Z" transform="translate(285 909.824)" fill="#75e3d9"/>
    <path id="Path_207528" data-name="Path 207528" d="M5.227-4.164H3.359V0H1.016V-11.375H5.242a4.778,4.778,0,0,1,3.109.9A3.1,3.1,0,0,1,9.445-7.937,3.5,3.5,0,0,1,8.941-6,3.437,3.437,0,0,1,7.414-4.758L9.875-.109V0H7.359Zm-1.867-1.9H5.25a1.936,1.936,0,0,0,1.367-.449A1.606,1.606,0,0,0,7.1-7.75a1.719,1.719,0,0,0-.457-1.266,1.9,1.9,0,0,0-1.4-.461H3.359ZM14.969.156A4.15,4.15,0,0,1,11.941-.984a4.054,4.054,0,0,1-1.168-3.039v-.219a5.106,5.106,0,0,1,.492-2.277A3.612,3.612,0,0,1,12.66-8.066a3.914,3.914,0,0,1,2.059-.543,3.508,3.508,0,0,1,2.73,1.094,4.444,4.444,0,0,1,1,3.1v.922H13.063a2.1,2.1,0,0,0,.66,1.328,2,2,0,0,0,1.395.5,2.437,2.437,0,0,0,2.039-.945l1.109,1.242A3.389,3.389,0,0,1,16.891-.246,4.511,4.511,0,0,1,14.969.156Zm-.258-6.945a1.411,1.411,0,0,0-1.09.455,2.357,2.357,0,0,0-.535,1.3h3.141v-.181a1.681,1.681,0,0,0-.406-1.165A1.456,1.456,0,0,0,14.711-6.789Zm4.664,2.5a5.094,5.094,0,0,1,.887-3.148,2.877,2.877,0,0,1,2.426-1.172,2.589,2.589,0,0,1,2.039.922V-12h2.266V0H24.953l-.109-.9A2.657,2.657,0,0,1,22.672.156,2.869,2.869,0,0,1,20.277-1.02,5.258,5.258,0,0,1,19.375-4.289Zm2.258.168A3.337,3.337,0,0,0,22.047-2.3a1.349,1.349,0,0,0,1.2.634,1.511,1.511,0,0,0,1.477-.884V-5.889a1.489,1.489,0,0,0-1.461-.884Q21.633-6.773,21.633-4.121ZM33.8-.859A2.831,2.831,0,0,1,31.492.156a2.67,2.67,0,0,1-2.074-.781,3.335,3.335,0,0,1-.73-2.289V-8.453h2.258v5.467q0,1.322,1.2,1.322a1.63,1.63,0,0,0,1.578-.8V-8.453h2.266V0H33.867Zm5.969-7.594.07.977a2.951,2.951,0,0,1,2.43-1.133,2.453,2.453,0,0,1,2,.789,3.682,3.682,0,0,1,.672,2.359V0H42.688V-5.406a1.465,1.465,0,0,0-.312-1.043,1.4,1.4,0,0,0-1.039-.324,1.553,1.553,0,0,0-1.43.813V0H37.648V-8.453ZM46.3-4.289a5.094,5.094,0,0,1,.887-3.148,2.877,2.877,0,0,1,2.426-1.172,2.589,2.589,0,0,1,2.039.922V-12h2.266V0H51.883l-.109-.9A2.657,2.657,0,0,1,49.6.156,2.869,2.869,0,0,1,47.207-1.02,5.258,5.258,0,0,1,46.3-4.289Zm2.258.168A3.337,3.337,0,0,0,48.977-2.3a1.349,1.349,0,0,0,1.2.634,1.511,1.511,0,0,0,1.477-.884V-5.889A1.489,1.489,0,0,0,50.2-6.773Q48.562-6.773,48.563-4.121ZM60.57,0a2.507,2.507,0,0,1-.227-.758,2.732,2.732,0,0,1-2.133.914,3,3,0,0,1-2.059-.719,2.312,2.312,0,0,1-.816-1.812,2.389,2.389,0,0,1,1-2.062,4.915,4.915,0,0,1,2.879-.727H60.25v-.484a1.393,1.393,0,0,0-.3-.937A1.183,1.183,0,0,0,59-6.937a1.345,1.345,0,0,0-.895.273.929.929,0,0,0-.324.75H55.523a2.268,2.268,0,0,1,.453-1.359,3,3,0,0,1,1.281-.98,4.669,4.669,0,0,1,1.859-.355,3.689,3.689,0,0,1,2.48.785,2.747,2.747,0,0,1,.918,2.207v3.664a4.041,4.041,0,0,0,.336,1.82V0ZM58.7-1.57a1.945,1.945,0,0,0,.922-.223,1.462,1.462,0,0,0,.625-.6V-3.844h-.844q-1.7,0-1.8,1.172l-.008.133a.9.9,0,0,0,.3.7A1.153,1.153,0,0,0,58.7-1.57Zm7.625-6.883.07.977a2.951,2.951,0,0,1,2.43-1.133,2.453,2.453,0,0,1,2,.789A3.682,3.682,0,0,1,71.5-5.461V0H69.242V-5.406a1.465,1.465,0,0,0-.312-1.043,1.4,1.4,0,0,0-1.039-.324,1.553,1.553,0,0,0-1.43.813V0H64.2V-8.453Zm10.4,6.789a1.481,1.481,0,0,0,1.016-.344,1.2,1.2,0,0,0,.406-.914h2.117A2.9,2.9,0,0,1,79.8-1.348,3.093,3.093,0,0,1,78.535-.238a3.949,3.949,0,0,1-1.77.395A3.67,3.67,0,0,1,73.906-1,4.56,4.56,0,0,1,72.859-4.18v-.148A4.508,4.508,0,0,1,73.9-7.445,3.627,3.627,0,0,1,76.75-8.609a3.555,3.555,0,0,1,2.543.9,3.2,3.2,0,0,1,.973,2.4H78.148a1.551,1.551,0,0,0-.406-1.072,1.354,1.354,0,0,0-1.031-.412,1.36,1.36,0,0,0-1.191.575,3.333,3.333,0,0,0-.4,1.866v.235a3.375,3.375,0,0,0,.4,1.878A1.377,1.377,0,0,0,76.727-1.664ZM83.938,0H81.672V-8.453h2.266Zm-2.4-10.641a1.112,1.112,0,0,1,.34-.836A1.277,1.277,0,0,1,82.8-11.8a1.28,1.28,0,0,1,.922.328,1.105,1.105,0,0,1,.344.836,1.108,1.108,0,0,1-.348.844,1.283,1.283,0,0,1-.918.328,1.283,1.283,0,0,1-.918-.328A1.108,1.108,0,0,1,81.539-10.641ZM90.7,0a2.507,2.507,0,0,1-.227-.758,2.732,2.732,0,0,1-2.133.914,3,3,0,0,1-2.059-.719,2.312,2.312,0,0,1-.816-1.812,2.389,2.389,0,0,1,1-2.062,4.915,4.915,0,0,1,2.879-.727h1.039v-.484a1.393,1.393,0,0,0-.3-.937,1.183,1.183,0,0,0-.949-.352,1.345,1.345,0,0,0-.895.273.929.929,0,0,0-.324.75H85.648A2.268,2.268,0,0,1,86.1-7.273a3,3,0,0,1,1.281-.98,4.669,4.669,0,0,1,1.859-.355,3.689,3.689,0,0,1,2.48.785,2.747,2.747,0,0,1,.918,2.207v3.664a4.041,4.041,0,0,0,.336,1.82V0ZM88.828-1.57a1.945,1.945,0,0,0,.922-.223,1.462,1.462,0,0,0,.625-.6V-3.844h-.844q-1.7,0-1.8,1.172l-.008.133a.9.9,0,0,0,.3.7A1.153,1.153,0,0,0,88.828-1.57Z" transform="translate(304.98 944.65)" fill="#12263f"/>
    <path id="Path_207529" data-name="Path 207529" d="M5,0H133.667a5,5,0,0,1,5,5V54a5,5,0,0,1-5,5H5a5,5,0,0,1-5-5V5A5,5,0,0,1,5,0Z" transform="translate(449.777 909.824)" fill="#75e3d9"/>
    <path id="Path_207530" data-name="Path 207530" d="M7.438-2.344H3.328L2.547,0H.055L4.289-11.375H6.461L10.719,0H8.227Zm-3.477-1.9H6.8L5.375-8.5ZM16.609-.859A2.831,2.831,0,0,1,14.3.156a2.67,2.67,0,0,1-2.074-.781,3.335,3.335,0,0,1-.73-2.289V-8.453H13.75v5.467q0,1.322,1.2,1.322a1.63,1.63,0,0,0,1.578-.8V-8.453H18.8V0H16.672ZM23.2-10.531v2.078h1.445V-6.8H23.2v4.219a1.007,1.007,0,0,0,.18.672.9.9,0,0,0,.688.2,3.6,3.6,0,0,0,.664-.055V-.047a4.648,4.648,0,0,1-1.367.2,2.156,2.156,0,0,1-2.422-2.4V-6.8H19.711V-8.453h1.234v-2.078ZM29.8.156A4.15,4.15,0,0,1,26.77-.984,4.054,4.054,0,0,1,25.6-4.023v-.219a5.106,5.106,0,0,1,.492-2.277,3.612,3.612,0,0,1,1.395-1.547,3.914,3.914,0,0,1,2.059-.543,3.508,3.508,0,0,1,2.73,1.094,4.444,4.444,0,0,1,1,3.1v.922H27.891a2.1,2.1,0,0,0,.66,1.328,2,2,0,0,0,1.395.5,2.437,2.437,0,0,0,2.039-.945l1.109,1.242A3.389,3.389,0,0,1,31.719-.246,4.511,4.511,0,0,1,29.8.156Zm-.258-6.945a1.411,1.411,0,0,0-1.09.455,2.357,2.357,0,0,0-.535,1.3h3.141v-.181a1.681,1.681,0,0,0-.406-1.165A1.456,1.456,0,0,0,29.539-6.789Zm7.094-1.664.07.977a2.951,2.951,0,0,1,2.43-1.133,2.453,2.453,0,0,1,2,.789A3.682,3.682,0,0,1,41.8-5.461V0H39.547V-5.406a1.465,1.465,0,0,0-.312-1.043A1.4,1.4,0,0,0,38.2-6.773a1.553,1.553,0,0,0-1.43.813V0H34.508V-8.453Zm9.586-2.078v2.078h1.445V-6.8H46.219v4.219a1.007,1.007,0,0,0,.18.672.9.9,0,0,0,.688.2,3.6,3.6,0,0,0,.664-.055V-.047a4.648,4.648,0,0,1-1.367.2,2.156,2.156,0,0,1-2.422-2.4V-6.8H42.727V-8.453h1.234v-2.078ZM51.3,0H49.039V-8.453H51.3Zm-2.4-10.641a1.112,1.112,0,0,1,.34-.836,1.277,1.277,0,0,1,.926-.328,1.28,1.28,0,0,1,.922.328,1.105,1.105,0,0,1,.344.836,1.108,1.108,0,0,1-.348.844,1.283,1.283,0,0,1-.918.328,1.283,1.283,0,0,1-.918-.328A1.108,1.108,0,0,1,48.906-10.641ZM56.68-1.664A1.481,1.481,0,0,0,57.7-2.008a1.2,1.2,0,0,0,.406-.914h2.117a2.9,2.9,0,0,1-.469,1.574A3.093,3.093,0,0,1,58.488-.238a3.949,3.949,0,0,1-1.77.395A3.67,3.67,0,0,1,53.859-1,4.56,4.56,0,0,1,52.813-4.18v-.148a4.508,4.508,0,0,1,1.039-3.117A3.627,3.627,0,0,1,56.7-8.609a3.555,3.555,0,0,1,2.543.9,3.2,3.2,0,0,1,.973,2.4H58.1A1.551,1.551,0,0,0,57.7-6.377a1.354,1.354,0,0,0-1.031-.412,1.36,1.36,0,0,0-1.191.575,3.333,3.333,0,0,0-.4,1.866v.235a3.375,3.375,0,0,0,.4,1.878A1.377,1.377,0,0,0,56.68-1.664ZM66.406,0a2.507,2.507,0,0,1-.227-.758,2.732,2.732,0,0,1-2.133.914,3,3,0,0,1-2.059-.719,2.312,2.312,0,0,1-.816-1.812,2.389,2.389,0,0,1,1-2.062,4.915,4.915,0,0,1,2.879-.727h1.039v-.484a1.393,1.393,0,0,0-.3-.937,1.183,1.183,0,0,0-.949-.352,1.345,1.345,0,0,0-.895.273.929.929,0,0,0-.324.75H61.359a2.268,2.268,0,0,1,.453-1.359,3,3,0,0,1,1.281-.98,4.669,4.669,0,0,1,1.859-.355,3.689,3.689,0,0,1,2.48.785,2.747,2.747,0,0,1,.918,2.207v3.664a4.041,4.041,0,0,0,.336,1.82V0ZM64.539-1.57a1.945,1.945,0,0,0,.922-.223,1.462,1.462,0,0,0,.625-.6V-3.844h-.844q-1.7,0-1.8,1.172l-.008.133a.9.9,0,0,0,.3.7A1.153,1.153,0,0,0,64.539-1.57ZM73.6-1.664a1.481,1.481,0,0,0,1.016-.344,1.2,1.2,0,0,0,.406-.914h2.117a2.9,2.9,0,0,1-.469,1.574A3.093,3.093,0,0,1,75.41-.238a3.949,3.949,0,0,1-1.77.395A3.67,3.67,0,0,1,70.781-1,4.56,4.56,0,0,1,69.734-4.18v-.148a4.508,4.508,0,0,1,1.039-3.117,3.627,3.627,0,0,1,2.852-1.164,3.555,3.555,0,0,1,2.543.9,3.2,3.2,0,0,1,.973,2.4H75.023a1.551,1.551,0,0,0-.406-1.072,1.354,1.354,0,0,0-1.031-.412,1.36,1.36,0,0,0-1.191.575,3.333,3.333,0,0,0-.4,1.866v.235a3.375,3.375,0,0,0,.4,1.878A1.377,1.377,0,0,0,73.6-1.664ZM80.813,0H78.547V-8.453h2.266Zm-2.4-10.641a1.112,1.112,0,0,1,.34-.836,1.277,1.277,0,0,1,.926-.328,1.28,1.28,0,0,1,.922.328,1.105,1.105,0,0,1,.344.836A1.108,1.108,0,0,1,80.6-9.8a1.283,1.283,0,0,1-.918.328,1.283,1.283,0,0,1-.918-.328A1.108,1.108,0,0,1,78.414-10.641ZM82.32-4.3A5.013,5.013,0,0,1,82.8-6.547,3.546,3.546,0,0,1,84.2-8.07a4.069,4.069,0,0,1,2.113-.539,3.849,3.849,0,0,1,2.793,1.047,4.2,4.2,0,0,1,1.207,2.844l.016.578A4.418,4.418,0,0,1,89.242-1.02,3.775,3.775,0,0,1,86.328.156,3.793,3.793,0,0,1,83.41-1.016,4.5,4.5,0,0,1,82.32-4.2Zm2.258.16A3.16,3.16,0,0,0,85.031-2.3a1.5,1.5,0,0,0,1.3.638,1.5,1.5,0,0,0,1.281-.63,3.457,3.457,0,0,0,.461-2.015,3.128,3.128,0,0,0-.461-1.831,1.5,1.5,0,0,0-1.3-.649,1.474,1.474,0,0,0-1.281.646A3.516,3.516,0,0,0,84.578-4.144ZM86.758-12h2.461L87.055-9.578H85.219ZM93.8-8.453l.07.977A2.951,2.951,0,0,1,96.3-8.609a2.453,2.453,0,0,1,2,.789,3.682,3.682,0,0,1,.672,2.359V0H96.711V-5.406A1.465,1.465,0,0,0,96.4-6.449a1.4,1.4,0,0,0-1.039-.324,1.553,1.553,0,0,0-1.43.813V0H91.672V-8.453Z" transform="translate(470.628 944.65)" fill="#12263f"/>
    <path id="Path_207531" data-name="Path 207531" d="M0,0V50" transform="translate(521.938 859.648)" fill="none" stroke="#707070" stroke-width="2"/>
    <path id="Path_207532" data-name="Path 207532" d="M5,0H86.667a5,5,0,0,1,5,5V54a5,5,0,0,1-5,5H5a5,5,0,0,1-5-5V5A5,5,0,0,1,5,0Z" transform="translate(619.602 909.824)" fill="#75e3d9"/>
    <path id="Path_207533" data-name="Path 207533" d="M9.945-3.789A4.025,4.025,0,0,1,8.59-.9,4.76,4.76,0,0,1,5.367.156,4.28,4.28,0,0,1,1.926-1.316,6.038,6.038,0,0,1,.672-5.359v-.7A6.819,6.819,0,0,1,1.25-8.945,4.332,4.332,0,0,1,2.9-10.863a4.629,4.629,0,0,1,2.5-.668A4.637,4.637,0,0,1,8.57-10.477,4.326,4.326,0,0,1,9.961-7.516H7.617A2.376,2.376,0,0,0,7-9.113a2.271,2.271,0,0,0-1.605-.5,1.991,1.991,0,0,0-1.754.84,4.707,4.707,0,0,0-.6,2.605V-5.3a5.038,5.038,0,0,0,.559,2.7,1.954,1.954,0,0,0,1.762.852,2.314,2.314,0,0,0,1.621-.5A2.241,2.241,0,0,0,7.6-3.789ZM13.719,0H11.453V-8.453h2.266Zm-2.4-10.641a1.112,1.112,0,0,1,.34-.836,1.277,1.277,0,0,1,.926-.328,1.28,1.28,0,0,1,.922.328,1.105,1.105,0,0,1,.344.836A1.108,1.108,0,0,1,13.5-9.8a1.283,1.283,0,0,1-.918.328,1.283,1.283,0,0,1-.918-.328A1.108,1.108,0,0,1,11.32-10.641ZM16.2,0V-6.8H14.938V-8.453H16.2v-.719a2.918,2.918,0,0,1,.816-2.207,3.162,3.162,0,0,1,2.285-.785,5.278,5.278,0,0,1,1.148.156l-.023,1.75a2.878,2.878,0,0,0-.687-.07q-1.273,0-1.273,1.2v.68h1.68V-6.8h-1.68V0Zm9.867-6.336A6.134,6.134,0,0,0,25.25-6.4a1.654,1.654,0,0,0-1.68.867V0H21.313V-8.453h2.133l.063,1.008a2.092,2.092,0,0,1,1.883-1.164,2.366,2.366,0,0,1,.7.1ZM31.813,0a2.507,2.507,0,0,1-.227-.758,2.732,2.732,0,0,1-2.133.914,3,3,0,0,1-2.059-.719,2.312,2.312,0,0,1-.816-1.812,2.389,2.389,0,0,1,1-2.062,4.915,4.915,0,0,1,2.879-.727h1.039v-.484a1.393,1.393,0,0,0-.3-.937,1.183,1.183,0,0,0-.949-.352,1.345,1.345,0,0,0-.895.273.929.929,0,0,0-.324.75H26.766a2.268,2.268,0,0,1,.453-1.359,3,3,0,0,1,1.281-.98,4.669,4.669,0,0,1,1.859-.355,3.689,3.689,0,0,1,2.48.785,2.747,2.747,0,0,1,.918,2.207v3.664a4.041,4.041,0,0,0,.336,1.82V0ZM29.945-1.57a1.945,1.945,0,0,0,.922-.223,1.462,1.462,0,0,0,.625-.6V-3.844h-.844q-1.7,0-1.8,1.172l-.008.133a.9.9,0,0,0,.3.7A1.153,1.153,0,0,0,29.945-1.57Zm5.2-2.719a5.094,5.094,0,0,1,.887-3.148,2.877,2.877,0,0,1,2.426-1.172,2.589,2.589,0,0,1,2.039.922V-12h2.266V0H40.719l-.109-.9A2.657,2.657,0,0,1,38.438.156,2.869,2.869,0,0,1,36.043-1.02,5.258,5.258,0,0,1,35.141-4.289Zm2.258.168A3.337,3.337,0,0,0,37.813-2.3a1.349,1.349,0,0,0,1.2.634,1.511,1.511,0,0,0,1.477-.884V-5.889a1.489,1.489,0,0,0-1.461-.884Q37.4-6.773,37.4-4.121ZM44.156-4.3a5.013,5.013,0,0,1,.484-2.242A3.546,3.546,0,0,1,46.035-8.07a4.069,4.069,0,0,1,2.113-.539,3.849,3.849,0,0,1,2.793,1.047,4.2,4.2,0,0,1,1.207,2.844l.016.578A4.418,4.418,0,0,1,51.078-1.02,3.775,3.775,0,0,1,48.164.156a3.793,3.793,0,0,1-2.918-1.172A4.5,4.5,0,0,1,44.156-4.2Zm2.258.16A3.16,3.16,0,0,0,46.867-2.3a1.5,1.5,0,0,0,1.3.638,1.5,1.5,0,0,0,1.281-.63,3.457,3.457,0,0,0,.461-2.015,3.128,3.128,0,0,0-.461-1.831,1.5,1.5,0,0,0-1.3-.649,1.474,1.474,0,0,0-1.281.646A3.516,3.516,0,0,0,46.414-4.144Z" transform="translate(639.892 944.65)" fill="#12263f"/>
    <path id="Path_207534" data-name="Path 207534" d="M0,0V50" transform="translate(666.085 859.648)" fill="none" stroke="#707070" stroke-width="2"/>
    <path id="Path_207535" data-name="Path 207535" d="M5,0H150.772a5,5,0,0,1,5,5V54a5,5,0,0,1-5,5H5a5,5,0,0,1-5-5V5A5,5,0,0,1,5,0Z" transform="translate(823 909.824)" fill="#75e3d9"/>
    <path id="Path_207536" data-name="Path 207536" d="M10.016-1.437A4.068,4.068,0,0,1,8.227-.262,7.492,7.492,0,0,1,5.664.156a5.076,5.076,0,0,1-2.59-.645A4.3,4.3,0,0,1,1.355-2.359,6.585,6.585,0,0,1,.734-5.242v-.773a6.994,6.994,0,0,1,.574-2.949,4.248,4.248,0,0,1,1.656-1.906,4.771,4.771,0,0,1,2.535-.66,4.751,4.751,0,0,1,3.164.965,4.123,4.123,0,0,1,1.352,2.809H7.734a2.268,2.268,0,0,0-.691-1.43A2.208,2.208,0,0,0,5.57-9.641a2.078,2.078,0,0,0-1.82.9A4.724,4.724,0,0,0,3.117-6.07v.727a4.5,4.5,0,0,0,.68,2.7,2.327,2.327,0,0,0,1.992.914,2.6,2.6,0,0,0,1.883-.562V-4.25H5.539V-5.977h4.477ZM15.656.156A4.15,4.15,0,0,1,12.629-.984a4.054,4.054,0,0,1-1.168-3.039v-.219a5.106,5.106,0,0,1,.492-2.277,3.612,3.612,0,0,1,1.395-1.547,3.914,3.914,0,0,1,2.059-.543,3.508,3.508,0,0,1,2.73,1.094,4.444,4.444,0,0,1,1,3.1v.922H13.75a2.1,2.1,0,0,0,.66,1.328,2,2,0,0,0,1.395.5,2.437,2.437,0,0,0,2.039-.945l1.109,1.242A3.389,3.389,0,0,1,17.578-.246,4.511,4.511,0,0,1,15.656.156ZM15.4-6.789a1.411,1.411,0,0,0-1.09.455,2.357,2.357,0,0,0-.535,1.3h3.141v-.181a1.681,1.681,0,0,0-.406-1.165A1.456,1.456,0,0,0,15.4-6.789Zm9.594,4.453a.727.727,0,0,0-.41-.652,4.659,4.659,0,0,0-1.316-.426Q20.25-4.047,20.25-5.977a2.323,2.323,0,0,1,.934-1.879,3.766,3.766,0,0,1,2.441-.754,4.053,4.053,0,0,1,2.574.758,2.388,2.388,0,0,1,.965,1.969H24.906a1.092,1.092,0,0,0-.312-.8A1.322,1.322,0,0,0,23.617-7a1.351,1.351,0,0,0-.883.258.814.814,0,0,0-.312.656.7.7,0,0,0,.355.605,3.657,3.657,0,0,0,1.2.4A9.8,9.8,0,0,1,25.4-4.7,2.336,2.336,0,0,1,27.188-2.43,2.2,2.2,0,0,1,26.2-.559a4.28,4.28,0,0,1-2.562.715,4.47,4.47,0,0,1-1.887-.379,3.166,3.166,0,0,1-1.293-1.039,2.414,2.414,0,0,1-.469-1.426h2.141a1.179,1.179,0,0,0,.445.922,1.766,1.766,0,0,0,1.109.32,1.635,1.635,0,0,0,.98-.246A.766.766,0,0,0,24.992-2.336Zm6.352-8.2v2.078h1.445V-6.8H31.344v4.219a1.007,1.007,0,0,0,.18.672.9.9,0,0,0,.688.2,3.6,3.6,0,0,0,.664-.055V-.047a4.648,4.648,0,0,1-1.367.2,2.156,2.156,0,0,1-2.422-2.4V-6.8H27.852V-8.453h1.234v-2.078ZM36.43,0H34.164V-8.453H36.43Zm-2.4-10.641a1.112,1.112,0,0,1,.34-.836A1.277,1.277,0,0,1,35.3-11.8a1.28,1.28,0,0,1,.922.328,1.105,1.105,0,0,1,.344.836,1.108,1.108,0,0,1-.348.844,1.283,1.283,0,0,1-.918.328,1.283,1.283,0,0,1-.918-.328A1.108,1.108,0,0,1,34.031-10.641ZM37.938-4.3a5.013,5.013,0,0,1,.484-2.242A3.546,3.546,0,0,1,39.816-8.07a4.069,4.069,0,0,1,2.113-.539,3.849,3.849,0,0,1,2.793,1.047A4.2,4.2,0,0,1,45.93-4.719l.016.578A4.418,4.418,0,0,1,44.859-1.02,3.775,3.775,0,0,1,41.945.156a3.793,3.793,0,0,1-2.918-1.172A4.5,4.5,0,0,1,37.938-4.2Zm2.258.16A3.16,3.16,0,0,0,40.648-2.3a1.5,1.5,0,0,0,1.3.638,1.5,1.5,0,0,0,1.281-.63,3.457,3.457,0,0,0,.461-2.015,3.128,3.128,0,0,0-.461-1.831,1.5,1.5,0,0,0-1.3-.649,1.474,1.474,0,0,0-1.281.646A3.516,3.516,0,0,0,40.2-4.144ZM42.375-12h2.461L42.672-9.578H40.836Zm7.039,3.547.07.977a2.951,2.951,0,0,1,2.43-1.133,2.453,2.453,0,0,1,2,.789,3.682,3.682,0,0,1,.672,2.359V0H52.328V-5.406a1.465,1.465,0,0,0-.312-1.043,1.4,1.4,0,0,0-1.039-.324,1.553,1.553,0,0,0-1.43.813V0H47.289V-8.453ZM63.8-1.664a1.481,1.481,0,0,0,1.016-.344,1.2,1.2,0,0,0,.406-.914h2.117a2.9,2.9,0,0,1-.469,1.574A3.093,3.093,0,0,1,65.605-.238a3.949,3.949,0,0,1-1.77.395A3.67,3.67,0,0,1,60.977-1,4.56,4.56,0,0,1,59.93-4.18v-.148a4.508,4.508,0,0,1,1.039-3.117A3.627,3.627,0,0,1,63.82-8.609a3.555,3.555,0,0,1,2.543.9,3.2,3.2,0,0,1,.973,2.4H65.219a1.551,1.551,0,0,0-.406-1.072,1.354,1.354,0,0,0-1.031-.412,1.36,1.36,0,0,0-1.191.575,3.333,3.333,0,0,0-.4,1.866v.235a3.375,3.375,0,0,0,.4,1.878A1.377,1.377,0,0,0,63.8-1.664ZM71.008,0H68.742V-12h2.266ZM75.25,0H72.984V-8.453H75.25Zm-2.4-10.641a1.112,1.112,0,0,1,.34-.836,1.277,1.277,0,0,1,.926-.328,1.28,1.28,0,0,1,.922.328,1.105,1.105,0,0,1,.344.836,1.108,1.108,0,0,1-.348.844,1.283,1.283,0,0,1-.918.328A1.283,1.283,0,0,1,73.2-9.8,1.108,1.108,0,0,1,72.852-10.641ZM81,.156A4.15,4.15,0,0,1,77.973-.984,4.054,4.054,0,0,1,76.8-4.023v-.219A5.106,5.106,0,0,1,77.3-6.52a3.612,3.612,0,0,1,1.395-1.547,3.914,3.914,0,0,1,2.059-.543,3.508,3.508,0,0,1,2.73,1.094,4.444,4.444,0,0,1,1,3.1v.922H79.094a2.1,2.1,0,0,0,.66,1.328,2,2,0,0,0,1.395.5,2.437,2.437,0,0,0,2.039-.945L84.3-1.367A3.389,3.389,0,0,1,82.922-.246,4.511,4.511,0,0,1,81,.156Zm-.258-6.945a1.411,1.411,0,0,0-1.09.455,2.357,2.357,0,0,0-.535,1.3h3.141v-.181a1.681,1.681,0,0,0-.406-1.165A1.456,1.456,0,0,0,80.742-6.789Zm7.094-1.664.07.977a2.951,2.951,0,0,1,2.43-1.133,2.453,2.453,0,0,1,2,.789,3.682,3.682,0,0,1,.672,2.359V0H90.75V-5.406a1.465,1.465,0,0,0-.312-1.043A1.4,1.4,0,0,0,89.4-6.773a1.553,1.553,0,0,0-1.43.813V0H85.711V-8.453Zm9.586-2.078v2.078h1.445V-6.8H97.422v4.219a1.007,1.007,0,0,0,.18.672.9.9,0,0,0,.688.2,3.6,3.6,0,0,0,.664-.055V-.047a4.648,4.648,0,0,1-1.367.2,2.156,2.156,0,0,1-2.422-2.4V-6.8H93.93V-8.453h1.234v-2.078ZM104.016.156a4.15,4.15,0,0,1-3.027-1.141A4.054,4.054,0,0,1,99.82-4.023v-.219a5.106,5.106,0,0,1,.492-2.277,3.612,3.612,0,0,1,1.395-1.547,3.914,3.914,0,0,1,2.059-.543,3.508,3.508,0,0,1,2.73,1.094,4.444,4.444,0,0,1,1,3.1v.922h-5.383a2.1,2.1,0,0,0,.66,1.328,2,2,0,0,0,1.395.5,2.437,2.437,0,0,0,2.039-.945l1.109,1.242a3.389,3.389,0,0,1-1.375,1.121A4.511,4.511,0,0,1,104.016.156Zm-.258-6.945a1.411,1.411,0,0,0-1.09.455,2.357,2.357,0,0,0-.535,1.3h3.141v-.181a1.681,1.681,0,0,0-.406-1.165A1.456,1.456,0,0,0,103.758-6.789Zm9.594,4.453a.727.727,0,0,0-.41-.652,4.659,4.659,0,0,0-1.316-.426q-3.016-.633-3.016-2.562a2.323,2.323,0,0,1,.934-1.879,3.766,3.766,0,0,1,2.441-.754,4.053,4.053,0,0,1,2.574.758,2.388,2.388,0,0,1,.965,1.969h-2.258a1.092,1.092,0,0,0-.312-.8A1.322,1.322,0,0,0,111.977-7a1.351,1.351,0,0,0-.883.258.814.814,0,0,0-.312.656.7.7,0,0,0,.355.605,3.657,3.657,0,0,0,1.2.4,9.8,9.8,0,0,1,1.422.379,2.336,2.336,0,0,1,1.789,2.273,2.2,2.2,0,0,1-.992,1.871,4.28,4.28,0,0,1-2.562.715,4.47,4.47,0,0,1-1.887-.379,3.166,3.166,0,0,1-1.293-1.039,2.414,2.414,0,0,1-.469-1.426h2.141a1.179,1.179,0,0,0,.445.922,1.766,1.766,0,0,0,1.109.32,1.635,1.635,0,0,0,.98-.246A.766.766,0,0,0,113.352-2.336Z" transform="translate(843 944.65)" fill="#12263f"/>
    <path id="Path_207537" data-name="Path 207537" d="M0,0V50" transform="translate(900.887 859.648)" fill="none" stroke="#707070" stroke-width="2"/>
    <path id="Path_207538" data-name="Path 207538" d="M0,0V50" transform="translate(799.833 698.824)" fill="none" stroke="#707070" stroke-width="2"/>
    <path id="Path_207539" data-name="Path 207539" d="M5,0H211.667a5,5,0,0,1,5,5V56a5,5,0,0,1-5,5H5a5,5,0,0,1-5-5V5A5,5,0,0,1,5,0Z" transform="translate(692.439 637.824)" fill="#b9ddfc"/>
    <path id="Path_207540" data-name="Path 207540" d="M7.778-3.357A1.353,1.353,0,0,0,7.251-4.5a6.917,6.917,0,0,0-1.9-.844,13.458,13.458,0,0,1-2.171-.875A3.547,3.547,0,0,1,1-9.4a3.09,3.09,0,0,1,.584-1.85,3.812,3.812,0,0,1,1.679-1.27,6.318,6.318,0,0,1,2.457-.457,5.751,5.751,0,0,1,2.443.5,3.891,3.891,0,0,1,1.666,1.4,3.668,3.668,0,0,1,.593,2.057H7.787a1.726,1.726,0,0,0-.554-1.367,2.276,2.276,0,0,0-1.556-.488,2.432,2.432,0,0,0-1.5.409,1.289,1.289,0,0,0-.536,1.077,1.235,1.235,0,0,0,.628,1.046,7.1,7.1,0,0,0,1.85.791A7.994,7.994,0,0,1,9.4-5.871a3.343,3.343,0,0,1,1.028,2.5A3.08,3.08,0,0,1,9.167-.769,5.5,5.5,0,0,1,5.783.176,6.534,6.534,0,0,1,3.094-.365a4.256,4.256,0,0,1-1.85-1.481,3.793,3.793,0,0,1-.637-2.18H3.252q0,2.118,2.531,2.118A2.462,2.462,0,0,0,7.251-2.29,1.244,1.244,0,0,0,7.778-3.357ZM16.418.176a4.668,4.668,0,0,1-3.406-1.283A4.561,4.561,0,0,1,11.7-4.526v-.246a5.745,5.745,0,0,1,.554-2.562,4.064,4.064,0,0,1,1.569-1.74,4.4,4.4,0,0,1,2.316-.611,3.947,3.947,0,0,1,3.072,1.23,5,5,0,0,1,1.121,3.489v1.037H14.273a2.36,2.36,0,0,0,.743,1.494,2.245,2.245,0,0,0,1.569.563,2.742,2.742,0,0,0,2.294-1.063l1.248,1.4A3.813,3.813,0,0,1,18.58-.277,5.075,5.075,0,0,1,16.418.176Zm-.29-7.813a1.587,1.587,0,0,0-1.226.512,2.651,2.651,0,0,0-.6,1.466h3.533v-.2a1.891,1.891,0,0,0-.457-1.311A1.638,1.638,0,0,0,16.128-7.638ZM21.4-4.825A5.573,5.573,0,0,1,22.443-8.35a3.375,3.375,0,0,1,2.808-1.336,2.96,2.96,0,0,1,2.435,1.072l.105-.9h2.3V-.316a4.064,4.064,0,0,1-.567,2.171,3.641,3.641,0,0,1-1.6,1.406,5.608,5.608,0,0,1-2.408.483,5.215,5.215,0,0,1-2.039-.417,3.619,3.619,0,0,1-1.5-1.077L23.106.7a2.975,2.975,0,0,0,2.3,1.063,2.178,2.178,0,0,0,1.573-.541,2.027,2.027,0,0,0,.563-1.534v-.51a2.938,2.938,0,0,1-2.312.993,3.366,3.366,0,0,1-2.773-1.34A5.572,5.572,0,0,1,21.4-4.72Zm2.54.189a3.47,3.47,0,0,0,.519,2.029,1.65,1.65,0,0,0,1.424.735,1.764,1.764,0,0,0,1.661-.871V-6.749A1.76,1.76,0,0,0,25.9-7.62a1.66,1.66,0,0,0-1.437.748A3.911,3.911,0,0,0,23.941-4.636ZM37.74-.967a3.185,3.185,0,0,1-2.6,1.143A3,3,0,0,1,32.805-.7a3.752,3.752,0,0,1-.822-2.575V-9.51h2.54v6.151q0,1.487,1.354,1.487a1.834,1.834,0,0,0,1.775-.9V-9.51H40.2V0H37.811Zm9.721-6.161a6.9,6.9,0,0,0-.914-.07,1.86,1.86,0,0,0-1.89.976V0h-2.54V-9.51h2.4l.07,1.134a2.354,2.354,0,0,1,2.118-1.31,2.662,2.662,0,0,1,.791.114ZM51.363,0H48.814V-9.51h2.549Zm-2.7-11.971a1.251,1.251,0,0,1,.382-.94,1.436,1.436,0,0,1,1.042-.369,1.44,1.44,0,0,1,1.037.369,1.244,1.244,0,0,1,.387.94,1.247,1.247,0,0,1-.391.949,1.443,1.443,0,0,1-1.033.369,1.443,1.443,0,0,1-1.033-.369A1.247,1.247,0,0,1,48.665-11.971ZM53.06-4.825a5.731,5.731,0,0,1,1-3.542,3.237,3.237,0,0,1,2.729-1.318A2.913,2.913,0,0,1,59.08-8.648V-13.5h2.549V0H59.335l-.123-1.011A2.989,2.989,0,0,1,56.769.176a3.228,3.228,0,0,1-2.694-1.323A5.916,5.916,0,0,1,53.06-4.825Zm2.54.189a3.754,3.754,0,0,0,.466,2.051,1.517,1.517,0,0,0,1.354.713,1.7,1.7,0,0,0,1.661-.995V-6.625a1.675,1.675,0,0,0-1.644-.995Q55.6-7.62,55.6-4.636ZM69.108,0a2.821,2.821,0,0,1-.255-.853,3.073,3.073,0,0,1-2.4,1.028,3.376,3.376,0,0,1-2.316-.809,2.6,2.6,0,0,1-.918-2.039,2.687,2.687,0,0,1,1.121-2.32,5.529,5.529,0,0,1,3.239-.817h1.169v-.545a1.567,1.567,0,0,0-.338-1.055,1.331,1.331,0,0,0-1.068-.4,1.513,1.513,0,0,0-1.006.308,1.045,1.045,0,0,0-.365.844h-2.54a2.551,2.551,0,0,1,.51-1.529,3.37,3.37,0,0,1,1.441-1.1,5.253,5.253,0,0,1,2.092-.4,4.15,4.15,0,0,1,2.791.883A3.09,3.09,0,0,1,71.3-6.319V-2.2a4.546,4.546,0,0,0,.378,2.048V0Zm-2.1-1.767a2.188,2.188,0,0,0,1.037-.25,1.645,1.645,0,0,0,.7-.672V-4.324H67.8q-1.907,0-2.03,1.318l-.009.149a1.017,1.017,0,0,0,.334.782A1.3,1.3,0,0,0,67.008-1.767Zm5.845-3.059a5.731,5.731,0,0,1,1-3.542,3.237,3.237,0,0,1,2.729-1.318,2.913,2.913,0,0,1,2.294,1.037V-13.5h2.549V0H79.128L79-1.011A2.989,2.989,0,0,1,76.562.176a3.228,3.228,0,0,1-2.694-1.323A5.916,5.916,0,0,1,72.853-4.825Zm2.54.189a3.754,3.754,0,0,0,.466,2.051,1.517,1.517,0,0,0,1.354.713,1.7,1.7,0,0,0,1.661-.995V-6.625a1.675,1.675,0,0,0-1.644-.995Q75.393-7.62,75.393-4.636ZM92.25.176a4.668,4.668,0,0,1-3.406-1.283A4.561,4.561,0,0,1,87.53-4.526v-.246a5.745,5.745,0,0,1,.554-2.562,4.064,4.064,0,0,1,1.569-1.74,4.4,4.4,0,0,1,2.316-.611,3.947,3.947,0,0,1,3.072,1.23,5,5,0,0,1,1.121,3.489v1.037H90.105a2.36,2.36,0,0,0,.743,1.494,2.245,2.245,0,0,0,1.569.563,2.742,2.742,0,0,0,2.294-1.063l1.248,1.4A3.813,3.813,0,0,1,94.412-.277,5.075,5.075,0,0,1,92.25.176Zm-.29-7.813a1.587,1.587,0,0,0-1.226.512,2.651,2.651,0,0,0-.6,1.466h3.533v-.2a1.891,1.891,0,0,0-.457-1.311A1.638,1.638,0,0,0,91.96-7.638ZM99.94-9.51l.079,1.1a3.32,3.32,0,0,1,2.733-1.274A2.759,2.759,0,0,1,105-8.8a4.142,4.142,0,0,1,.756,2.654V0h-2.54V-6.082a1.648,1.648,0,0,0-.352-1.173A1.574,1.574,0,0,0,101.7-7.62a1.747,1.747,0,0,0-1.608.914V0H97.55V-9.51ZM114.847,0H112.3V-13.5h2.549Zm7.6,0a2.821,2.821,0,0,1-.255-.853,3.073,3.073,0,0,1-2.4,1.028,3.376,3.376,0,0,1-2.316-.809,2.6,2.6,0,0,1-.918-2.039,2.687,2.687,0,0,1,1.121-2.32,5.529,5.529,0,0,1,3.239-.817h1.169v-.545a1.567,1.567,0,0,0-.338-1.055,1.331,1.331,0,0,0-1.068-.4,1.513,1.513,0,0,0-1.006.308,1.045,1.045,0,0,0-.365.844h-2.54a2.551,2.551,0,0,1,.51-1.529,3.37,3.37,0,0,1,1.441-1.1,5.253,5.253,0,0,1,2.092-.4A4.15,4.15,0,0,1,123.6-8.8a3.09,3.09,0,0,1,1.033,2.483V-2.2a4.546,4.546,0,0,0,.378,2.048V0Zm-2.1-1.767a2.188,2.188,0,0,0,1.037-.25,1.645,1.645,0,0,0,.7-.672V-4.324h-.949q-1.907,0-2.03,1.318l-.009.149a1.017,1.017,0,0,0,.334.782A1.3,1.3,0,0,0,120.349-1.767ZM133.409-9.51l.079,1.1a3.32,3.32,0,0,1,2.733-1.274,2.759,2.759,0,0,1,2.25.888,4.142,4.142,0,0,1,.756,2.654V0h-2.54V-6.082a1.648,1.648,0,0,0-.352-1.173,1.574,1.574,0,0,0-1.169-.365,1.747,1.747,0,0,0-1.608.914V0h-2.54V-9.51ZM146.848-.967a3.185,3.185,0,0,1-2.6,1.143A3,3,0,0,1,141.913-.7a3.752,3.752,0,0,1-.822-2.575V-9.51h2.54v6.151q0,1.487,1.354,1.487a1.834,1.834,0,0,0,1.775-.9V-9.51h2.549V0h-2.391Zm12.946-3.7a5.758,5.758,0,0,1-.976,3.564A3.231,3.231,0,0,1,156.094.176a2.969,2.969,0,0,1-2.47-1.187L153.51,0h-2.285V-13.5h2.54v4.843a2.893,2.893,0,0,1,2.312-1.028,3.258,3.258,0,0,1,2.729,1.279,5.767,5.767,0,0,1,.989,3.6Zm-2.54-.185a3.783,3.783,0,0,0-.457-2.1,1.545,1.545,0,0,0-1.362-.664,1.676,1.676,0,0,0-1.67.993v3.753a1.7,1.7,0,0,0,1.688,1,1.568,1.568,0,0,0,1.617-1.213A6.257,6.257,0,0,0,157.254-4.852ZM165.735.176a4.668,4.668,0,0,1-3.406-1.283,4.561,4.561,0,0,1-1.314-3.419v-.246a5.745,5.745,0,0,1,.554-2.562,4.064,4.064,0,0,1,1.569-1.74,4.4,4.4,0,0,1,2.316-.611,3.947,3.947,0,0,1,3.072,1.23,5,5,0,0,1,1.121,3.489v1.037h-6.056a2.36,2.36,0,0,0,.743,1.494,2.245,2.245,0,0,0,1.569.563A2.742,2.742,0,0,0,168.2-2.936l1.248,1.4A3.813,3.813,0,0,1,167.9-.277,5.075,5.075,0,0,1,165.735.176Zm-.29-7.813a1.587,1.587,0,0,0-1.226.512,2.651,2.651,0,0,0-.6,1.466h3.533v-.2a1.891,1.891,0,0,0-.457-1.311A1.638,1.638,0,0,0,165.445-7.638Z" transform="translate(713.438 674.475)" fill="#12263f"/>
    <path id="Path_207541" data-name="Path 207541" d="M5,0H86.667a5,5,0,0,1,5,5V54a5,5,0,0,1-5,5H5a5,5,0,0,1-5-5V5A5,5,0,0,1,5,0Z" transform="translate(620 479)" fill="#e7f3fe"/>
    <path id="Path_207542" data-name="Path 207542" d="M5.219-2.82,7.8-11.375h2.609L6.445,0H4L.055-11.375h2.6Zm8.6-1.187V0H11.477V-11.375h4.438a5.134,5.134,0,0,1,2.254.469,3.454,3.454,0,0,1,1.5,1.332,3.714,3.714,0,0,1,.523,1.965,3.266,3.266,0,0,1-1.145,2.637,4.767,4.767,0,0,1-3.168.965Zm0-1.9h2.094a2.059,2.059,0,0,0,1.418-.437,1.591,1.591,0,0,0,.488-1.25,1.876,1.876,0,0,0-.492-1.352,1.839,1.839,0,0,0-1.359-.531H13.82ZM31.047,0H28.7L24.141-7.484V0H21.8V-11.375h2.344l4.57,7.5v-7.5h2.336Z" transform="translate(649 513.826)" fill="#12263f"/>
    <path id="Path_207183" data-name="Path 207183" d="M-12093.69-9039.2v50.019H-11959v49.807" transform="translate(12759 9577.202)" fill="none" stroke="#707070" stroke-width="2"/>
    <path id="Path_207543" data-name="Path 207543" d="M5,0H144.333a5,5,0,0,1,5,5V54a5,5,0,0,1-5,5H5a5,5,0,0,1-5-5V5A5,5,0,0,1,5,0Z" transform="translate(823 479)" fill="#00defc"/>
    <path id="Path_207544" data-name="Path 207544" d="M9.945-3.789A4.025,4.025,0,0,1,8.59-.9,4.76,4.76,0,0,1,5.367.156,4.28,4.28,0,0,1,1.926-1.316,6.038,6.038,0,0,1,.672-5.359v-.7A6.819,6.819,0,0,1,1.25-8.945,4.332,4.332,0,0,1,2.9-10.863a4.629,4.629,0,0,1,2.5-.668A4.637,4.637,0,0,1,8.57-10.477,4.326,4.326,0,0,1,9.961-7.516H7.617A2.376,2.376,0,0,0,7-9.113a2.271,2.271,0,0,0-1.605-.5,1.991,1.991,0,0,0-1.754.84,4.707,4.707,0,0,0-.6,2.605V-5.3a5.038,5.038,0,0,0,.559,2.7,1.954,1.954,0,0,0,1.762.852,2.314,2.314,0,0,0,1.621-.5A2.241,2.241,0,0,0,7.6-3.789ZM13.719,0H11.453V-8.453h2.266Zm-2.4-10.641a1.112,1.112,0,0,1,.34-.836,1.277,1.277,0,0,1,.926-.328,1.28,1.28,0,0,1,.922.328,1.105,1.105,0,0,1,.344.836A1.108,1.108,0,0,1,13.5-9.8a1.283,1.283,0,0,1-.918.328,1.283,1.283,0,0,1-.918-.328A1.108,1.108,0,0,1,11.32-10.641ZM23.2-4.148A5.119,5.119,0,0,1,22.328-.98,2.872,2.872,0,0,1,19.906.156,2.639,2.639,0,0,1,17.711-.9l-.1.9H15.578V-12h2.258v4.3a2.571,2.571,0,0,1,2.055-.914,2.9,2.9,0,0,1,2.426,1.137,5.126,5.126,0,0,1,.879,3.2Zm-2.258-.164a3.363,3.363,0,0,0-.406-1.871,1.374,1.374,0,0,0-1.211-.59,1.489,1.489,0,0,0-1.484.883v3.336a1.509,1.509,0,0,0,1.5.891,1.394,1.394,0,0,0,1.438-1.078A5.562,5.562,0,0,0,20.938-4.312ZM28.477.156A4.15,4.15,0,0,1,25.449-.984a4.054,4.054,0,0,1-1.168-3.039v-.219a5.106,5.106,0,0,1,.492-2.277,3.612,3.612,0,0,1,1.395-1.547,3.914,3.914,0,0,1,2.059-.543,3.508,3.508,0,0,1,2.73,1.094,4.444,4.444,0,0,1,1,3.1v.922H26.57a2.1,2.1,0,0,0,.66,1.328,2,2,0,0,0,1.395.5,2.437,2.437,0,0,0,2.039-.945l1.109,1.242A3.389,3.389,0,0,1,30.4-.246,4.511,4.511,0,0,1,28.477.156Zm-.258-6.945a1.411,1.411,0,0,0-1.09.455,2.357,2.357,0,0,0-.535,1.3h3.141v-.181a1.681,1.681,0,0,0-.406-1.165A1.456,1.456,0,0,0,28.219-6.789Zm9.766.453a6.134,6.134,0,0,0-.812-.062,1.654,1.654,0,0,0-1.68.867V0H33.234V-8.453h2.133l.063,1.008a2.092,2.092,0,0,1,1.883-1.164,2.366,2.366,0,0,1,.7.1Zm5.664,4a.727.727,0,0,0-.41-.652,4.659,4.659,0,0,0-1.316-.426q-3.016-.633-3.016-2.562a2.323,2.323,0,0,1,.934-1.879,3.766,3.766,0,0,1,2.441-.754,4.053,4.053,0,0,1,2.574.758,2.388,2.388,0,0,1,.965,1.969H43.563a1.092,1.092,0,0,0-.312-.8A1.322,1.322,0,0,0,42.273-7a1.351,1.351,0,0,0-.883.258.814.814,0,0,0-.312.656.7.7,0,0,0,.355.605,3.657,3.657,0,0,0,1.2.4,9.8,9.8,0,0,1,1.422.379A2.336,2.336,0,0,1,45.844-2.43a2.2,2.2,0,0,1-.992,1.871,4.28,4.28,0,0,1-2.562.715A4.47,4.47,0,0,1,40.4-.223a3.166,3.166,0,0,1-1.293-1.039,2.414,2.414,0,0,1-.469-1.426h2.141a1.179,1.179,0,0,0,.445.922,1.766,1.766,0,0,0,1.109.32,1.635,1.635,0,0,0,.98-.246A.766.766,0,0,0,43.648-2.336ZM51.188.156A4.15,4.15,0,0,1,48.16-.984a4.054,4.054,0,0,1-1.168-3.039v-.219a5.106,5.106,0,0,1,.492-2.277,3.612,3.612,0,0,1,1.395-1.547,3.914,3.914,0,0,1,2.059-.543,3.508,3.508,0,0,1,2.73,1.094,4.444,4.444,0,0,1,1,3.1v.922H49.281a2.1,2.1,0,0,0,.66,1.328,2,2,0,0,0,1.395.5,2.437,2.437,0,0,0,2.039-.945l1.109,1.242A3.389,3.389,0,0,1,53.109-.246,4.511,4.511,0,0,1,51.188.156ZM50.93-6.789a1.411,1.411,0,0,0-1.09.455,2.357,2.357,0,0,0-.535,1.3h3.141v-.181a1.681,1.681,0,0,0-.406-1.165A1.456,1.456,0,0,0,50.93-6.789Zm4.688,2.5a4.954,4.954,0,0,1,.926-3.133,3,3,0,0,1,2.5-1.187,2.631,2.631,0,0,1,2.164.953l.094-.8h2.047V-.281a3.613,3.613,0,0,1-.5,1.93A3.236,3.236,0,0,1,61.422,2.9a4.985,4.985,0,0,1-2.141.43,4.635,4.635,0,0,1-1.812-.371A3.217,3.217,0,0,1,56.133,2l1-1.375a2.645,2.645,0,0,0,2.047.945,1.936,1.936,0,0,0,1.4-.48,1.8,1.8,0,0,0,.5-1.363V-.727a2.612,2.612,0,0,1-2.055.883,2.992,2.992,0,0,1-2.465-1.191,4.953,4.953,0,0,1-.941-3.16Zm2.258.168a3.085,3.085,0,0,0,.461,1.8,1.466,1.466,0,0,0,1.266.653,1.568,1.568,0,0,0,1.477-.775V-6a1.564,1.564,0,0,0-1.461-.775,1.476,1.476,0,0,0-1.277.665A3.477,3.477,0,0,0,57.875-4.121ZM70.141-.859A2.831,2.831,0,0,1,67.828.156a2.67,2.67,0,0,1-2.074-.781,3.335,3.335,0,0,1-.73-2.289V-8.453h2.258v5.467q0,1.322,1.2,1.322a1.63,1.63,0,0,0,1.578-.8V-8.453h2.266V0H70.2Zm8.641-5.477a6.134,6.134,0,0,0-.812-.062,1.654,1.654,0,0,0-1.68.867V0H74.031V-8.453h2.133l.063,1.008a2.092,2.092,0,0,1,1.883-1.164,2.366,2.366,0,0,1,.7.1ZM82.25,0H79.984V-8.453H82.25Zm-2.4-10.641a1.112,1.112,0,0,1,.34-.836,1.277,1.277,0,0,1,.926-.328,1.28,1.28,0,0,1,.922.328,1.105,1.105,0,0,1,.344.836,1.108,1.108,0,0,1-.348.844,1.283,1.283,0,0,1-.918.328A1.283,1.283,0,0,1,80.2-9.8,1.108,1.108,0,0,1,79.852-10.641Zm3.906,6.352a5.094,5.094,0,0,1,.887-3.148A2.877,2.877,0,0,1,87.07-8.609a2.589,2.589,0,0,1,2.039.922V-12h2.266V0H89.336l-.109-.9A2.657,2.657,0,0,1,87.055.156,2.869,2.869,0,0,1,84.66-1.02,5.258,5.258,0,0,1,83.758-4.289Zm2.258.168A3.337,3.337,0,0,0,86.43-2.3a1.349,1.349,0,0,0,1.2.634,1.511,1.511,0,0,0,1.477-.884V-5.889a1.489,1.489,0,0,0-1.461-.884Q86.016-6.773,86.016-4.121ZM98.023,0A2.507,2.507,0,0,1,97.8-.758a2.732,2.732,0,0,1-2.133.914,3,3,0,0,1-2.059-.719,2.312,2.312,0,0,1-.816-1.812,2.389,2.389,0,0,1,1-2.062,4.915,4.915,0,0,1,2.879-.727H97.7v-.484a1.393,1.393,0,0,0-.3-.937,1.183,1.183,0,0,0-.949-.352,1.345,1.345,0,0,0-.895.273.929.929,0,0,0-.324.75H92.977a2.268,2.268,0,0,1,.453-1.359,3,3,0,0,1,1.281-.98,4.669,4.669,0,0,1,1.859-.355,3.689,3.689,0,0,1,2.48.785,2.747,2.747,0,0,1,.918,2.207v3.664a4.041,4.041,0,0,0,.336,1.82V0ZM96.156-1.57a1.945,1.945,0,0,0,.922-.223,1.462,1.462,0,0,0,.625-.6V-3.844h-.844q-1.7,0-1.8,1.172l-.008.133a.9.9,0,0,0,.3.7A1.153,1.153,0,0,0,96.156-1.57Zm5.2-2.719a5.094,5.094,0,0,1,.887-3.148,2.877,2.877,0,0,1,2.426-1.172,2.589,2.589,0,0,1,2.039.922V-12h2.266V0H106.93l-.109-.9A2.657,2.657,0,0,1,104.648.156a2.869,2.869,0,0,1-2.395-1.176A5.258,5.258,0,0,1,101.352-4.289Zm2.258.168a3.337,3.337,0,0,0,.414,1.823,1.349,1.349,0,0,0,1.2.634,1.511,1.511,0,0,0,1.477-.884V-5.889a1.489,1.489,0,0,0-1.461-.884Q103.609-6.773,103.609-4.121Z" transform="translate(843 513.826)" fill="#12263f"/>
    <path id="Path_207545" data-name="Path 207545" d="M5,0H148a5,5,0,0,1,5,5V54a5,5,0,0,1-5,5H5a5,5,0,0,1-5-5V5A5,5,0,0,1,5,0Z" transform="translate(1095.999 479)" fill="#d9fafe"/>
    <path id="Path_207546" data-name="Path 207546" d="M7.438-2.344H3.328L2.547,0H.055L4.289-11.375H6.461L10.719,0H8.227Zm-3.477-1.9H6.8L5.375-8.5ZM14.2-10.531v2.078h1.445V-6.8H14.2v4.219a1.007,1.007,0,0,0,.18.672.9.9,0,0,0,.688.2,3.6,3.6,0,0,0,.664-.055V-.047a4.648,4.648,0,0,1-1.367.2,2.156,2.156,0,0,1-2.422-2.4V-6.8H10.711V-8.453h1.234v-2.078ZM21.8,0a2.507,2.507,0,0,1-.227-.758,2.732,2.732,0,0,1-2.133.914,3,3,0,0,1-2.059-.719,2.312,2.312,0,0,1-.816-1.812,2.389,2.389,0,0,1,1-2.062,4.915,4.915,0,0,1,2.879-.727h1.039v-.484a1.393,1.393,0,0,0-.3-.937,1.183,1.183,0,0,0-.949-.352,1.345,1.345,0,0,0-.895.273.929.929,0,0,0-.324.75H16.758a2.268,2.268,0,0,1,.453-1.359,3,3,0,0,1,1.281-.98,4.669,4.669,0,0,1,1.859-.355,3.689,3.689,0,0,1,2.48.785,2.747,2.747,0,0,1,.918,2.207v3.664a4.041,4.041,0,0,0,.336,1.82V0ZM19.938-1.57a1.945,1.945,0,0,0,.922-.223,1.462,1.462,0,0,0,.625-.6V-3.844h-.844q-1.7,0-1.8,1.172l-.008.133a.9.9,0,0,0,.3.7A1.153,1.153,0,0,0,19.938-1.57Zm5.2-2.734a5.053,5.053,0,0,1,.887-3.148,2.9,2.9,0,0,1,2.434-1.156A2.6,2.6,0,0,1,30.617-7.57l.148-.883H32.75V3.25H30.484V-.727a2.6,2.6,0,0,1-2.047.883,2.878,2.878,0,0,1-2.406-1.172A5.3,5.3,0,0,1,25.133-4.3Zm2.258.16A3.315,3.315,0,0,0,27.816-2.3a1.363,1.363,0,0,0,1.2.634,1.518,1.518,0,0,0,1.469-.829v-3.5a1.506,1.506,0,0,0-1.453-.8,1.38,1.38,0,0,0-1.211.634A3.661,3.661,0,0,0,27.391-4.144Zm12.2,3.285A2.831,2.831,0,0,1,37.273.156,2.67,2.67,0,0,1,35.2-.625a3.335,3.335,0,0,1-.73-2.289V-8.453h2.258v5.467q0,1.322,1.2,1.322a1.63,1.63,0,0,0,1.578-.8V-8.453h2.266V0H39.648ZM47.367.156A4.15,4.15,0,0,1,44.34-.984a4.054,4.054,0,0,1-1.168-3.039v-.219a5.106,5.106,0,0,1,.492-2.277,3.612,3.612,0,0,1,1.395-1.547,3.914,3.914,0,0,1,2.059-.543,3.508,3.508,0,0,1,2.73,1.094,4.444,4.444,0,0,1,1,3.1v.922H45.461a2.1,2.1,0,0,0,.66,1.328,2,2,0,0,0,1.395.5,2.437,2.437,0,0,0,2.039-.945l1.109,1.242A3.389,3.389,0,0,1,49.289-.246,4.511,4.511,0,0,1,47.367.156Zm-.258-6.945a1.411,1.411,0,0,0-1.09.455,2.357,2.357,0,0,0-.535,1.3h3.141v-.181a1.681,1.681,0,0,0-.406-1.165A1.456,1.456,0,0,0,47.109-6.789ZM56.7-2.336a.727.727,0,0,0-.41-.652,4.659,4.659,0,0,0-1.316-.426q-3.016-.633-3.016-2.562a2.323,2.323,0,0,1,.934-1.879,3.766,3.766,0,0,1,2.441-.754,4.053,4.053,0,0,1,2.574.758,2.388,2.388,0,0,1,.965,1.969H56.617a1.092,1.092,0,0,0-.312-.8A1.322,1.322,0,0,0,55.328-7a1.351,1.351,0,0,0-.883.258.814.814,0,0,0-.312.656.7.7,0,0,0,.355.605,3.657,3.657,0,0,0,1.2.4,9.8,9.8,0,0,1,1.422.379A2.336,2.336,0,0,1,58.9-2.43a2.2,2.2,0,0,1-.992,1.871,4.28,4.28,0,0,1-2.562.715,4.47,4.47,0,0,1-1.887-.379,3.166,3.166,0,0,1-1.293-1.039A2.414,2.414,0,0,1,51.7-2.687h2.141a1.179,1.179,0,0,0,.445.922,1.766,1.766,0,0,0,1.109.32,1.635,1.635,0,0,0,.98-.246A.766.766,0,0,0,56.7-2.336Z" transform="translate(1142.999 513.826)" fill="#12263f"/>
    <path id="Path_207547" data-name="Path 207547" d="M5,0H148a5,5,0,0,1,5,5V54a5,5,0,0,1-5,5H5a5,5,0,0,1-5-5V5A5,5,0,0,1,5,0Z" transform="translate(1095.667 568)" fill="#d9fafe"/>
    <path id="Path_207548" data-name="Path 207548" d="M9.945-3.789A4.025,4.025,0,0,1,8.59-.9,4.76,4.76,0,0,1,5.367.156,4.28,4.28,0,0,1,1.926-1.316,6.038,6.038,0,0,1,.672-5.359v-.7A6.819,6.819,0,0,1,1.25-8.945,4.332,4.332,0,0,1,2.9-10.863a4.629,4.629,0,0,1,2.5-.668A4.637,4.637,0,0,1,8.57-10.477,4.326,4.326,0,0,1,9.961-7.516H7.617A2.376,2.376,0,0,0,7-9.113a2.271,2.271,0,0,0-1.605-.5,1.991,1.991,0,0,0-1.754.84,4.707,4.707,0,0,0-.6,2.605V-5.3a5.038,5.038,0,0,0,.559,2.7,1.954,1.954,0,0,0,1.762.852,2.314,2.314,0,0,0,1.621-.5A2.241,2.241,0,0,0,7.6-3.789ZM13.719,0H11.453V-8.453h2.266Zm-2.4-10.641a1.112,1.112,0,0,1,.34-.836,1.277,1.277,0,0,1,.926-.328,1.28,1.28,0,0,1,.922.328,1.105,1.105,0,0,1,.344.836A1.108,1.108,0,0,1,13.5-9.8a1.283,1.283,0,0,1-.918.328,1.283,1.283,0,0,1-.918-.328A1.108,1.108,0,0,1,11.32-10.641ZM23.2-4.148A5.119,5.119,0,0,1,22.328-.98,2.872,2.872,0,0,1,19.906.156,2.639,2.639,0,0,1,17.711-.9l-.1.9H15.578V-12h2.258v4.3a2.571,2.571,0,0,1,2.055-.914,2.9,2.9,0,0,1,2.426,1.137,5.126,5.126,0,0,1,.879,3.2Zm-2.258-.164a3.363,3.363,0,0,0-.406-1.871,1.374,1.374,0,0,0-1.211-.59,1.489,1.489,0,0,0-1.484.883v3.336a1.509,1.509,0,0,0,1.5.891,1.394,1.394,0,0,0,1.438-1.078A5.562,5.562,0,0,0,20.938-4.312ZM28.477.156A4.15,4.15,0,0,1,25.449-.984a4.054,4.054,0,0,1-1.168-3.039v-.219a5.106,5.106,0,0,1,.492-2.277,3.612,3.612,0,0,1,1.395-1.547,3.914,3.914,0,0,1,2.059-.543,3.508,3.508,0,0,1,2.73,1.094,4.444,4.444,0,0,1,1,3.1v.922H26.57a2.1,2.1,0,0,0,.66,1.328,2,2,0,0,0,1.395.5,2.437,2.437,0,0,0,2.039-.945l1.109,1.242A3.389,3.389,0,0,1,30.4-.246,4.511,4.511,0,0,1,28.477.156Zm-.258-6.945a1.411,1.411,0,0,0-1.09.455,2.357,2.357,0,0,0-.535,1.3h3.141v-.181a1.681,1.681,0,0,0-.406-1.165A1.456,1.456,0,0,0,28.219-6.789Zm9.766.453a6.134,6.134,0,0,0-.812-.062,1.654,1.654,0,0,0-1.68.867V0H33.234V-8.453h2.133l.063,1.008a2.092,2.092,0,0,1,1.883-1.164,2.366,2.366,0,0,1,.7.1Zm4.18-4.2v2.078h1.445V-6.8H42.164v4.219a1.007,1.007,0,0,0,.18.672.9.9,0,0,0,.688.2,3.6,3.6,0,0,0,.664-.055V-.047a4.648,4.648,0,0,1-1.367.2,2.156,2.156,0,0,1-2.422-2.4V-6.8H38.672V-8.453h1.234v-2.078ZM48.758.156A4.15,4.15,0,0,1,45.73-.984a4.054,4.054,0,0,1-1.168-3.039v-.219a5.106,5.106,0,0,1,.492-2.277,3.612,3.612,0,0,1,1.395-1.547,3.914,3.914,0,0,1,2.059-.543,3.508,3.508,0,0,1,2.73,1.094,4.444,4.444,0,0,1,1,3.1v.922H46.852a2.1,2.1,0,0,0,.66,1.328,2,2,0,0,0,1.395.5,2.437,2.437,0,0,0,2.039-.945l1.109,1.242A3.389,3.389,0,0,1,50.68-.246,4.511,4.511,0,0,1,48.758.156ZM48.5-6.789a1.411,1.411,0,0,0-1.09.455,2.357,2.357,0,0,0-.535,1.3h3.141v-.181a1.681,1.681,0,0,0-.406-1.165A1.456,1.456,0,0,0,48.5-6.789Zm9.766.453a6.134,6.134,0,0,0-.812-.062,1.654,1.654,0,0,0-1.68.867V0H53.516V-8.453h2.133l.063,1.008a2.092,2.092,0,0,1,1.883-1.164,2.366,2.366,0,0,1,.7.1Zm5.836,0a6.134,6.134,0,0,0-.812-.062,1.654,1.654,0,0,0-1.68.867V0H59.352V-8.453h2.133l.063,1.008A2.092,2.092,0,0,1,63.43-8.609a2.366,2.366,0,0,1,.7.1ZM64.555-4.3a5.013,5.013,0,0,1,.484-2.242A3.546,3.546,0,0,1,66.434-8.07a4.069,4.069,0,0,1,2.113-.539A3.849,3.849,0,0,1,71.34-7.562a4.2,4.2,0,0,1,1.207,2.844l.016.578A4.418,4.418,0,0,1,71.477-1.02,3.775,3.775,0,0,1,68.563.156a3.793,3.793,0,0,1-2.918-1.172A4.5,4.5,0,0,1,64.555-4.2Zm2.258.16A3.16,3.16,0,0,0,67.266-2.3a1.5,1.5,0,0,0,1.3.638,1.5,1.5,0,0,0,1.281-.63A3.457,3.457,0,0,0,70.3-4.309a3.128,3.128,0,0,0-.461-1.831,1.5,1.5,0,0,0-1.3-.649,1.474,1.474,0,0,0-1.281.646A3.516,3.516,0,0,0,66.813-4.144ZM78.7-6.336a6.134,6.134,0,0,0-.812-.062,1.654,1.654,0,0,0-1.68.867V0H73.953V-8.453h2.133l.063,1.008a2.092,2.092,0,0,1,1.883-1.164,2.366,2.366,0,0,1,.7.1ZM82.172,0H79.906V-8.453h2.266Zm-2.4-10.641a1.112,1.112,0,0,1,.34-.836,1.277,1.277,0,0,1,.926-.328,1.28,1.28,0,0,1,.922.328,1.105,1.105,0,0,1,.344.836,1.108,1.108,0,0,1-.348.844,1.283,1.283,0,0,1-.918.328,1.283,1.283,0,0,1-.918-.328A1.108,1.108,0,0,1,79.773-10.641Zm8.836,8.3a.727.727,0,0,0-.41-.652,4.659,4.659,0,0,0-1.316-.426q-3.016-.633-3.016-2.562A2.323,2.323,0,0,1,84.8-7.855a3.766,3.766,0,0,1,2.441-.754,4.053,4.053,0,0,1,2.574.758,2.388,2.388,0,0,1,.965,1.969H88.523a1.092,1.092,0,0,0-.312-.8A1.322,1.322,0,0,0,87.234-7a1.351,1.351,0,0,0-.883.258.814.814,0,0,0-.312.656.7.7,0,0,0,.355.605,3.657,3.657,0,0,0,1.2.4,9.8,9.8,0,0,1,1.422.379A2.336,2.336,0,0,1,90.8-2.43a2.2,2.2,0,0,1-.992,1.871A4.28,4.28,0,0,1,87.25.156a4.47,4.47,0,0,1-1.887-.379A3.166,3.166,0,0,1,84.07-1.262,2.414,2.414,0,0,1,83.6-2.687h2.141a1.179,1.179,0,0,0,.445.922,1.766,1.766,0,0,0,1.109.32,1.635,1.635,0,0,0,.98-.246A.766.766,0,0,0,88.609-2.336Zm5.766-6.117.07.945a2.971,2.971,0,0,1,2.43-1.1A2.255,2.255,0,0,1,99.117-7.32a2.9,2.9,0,0,1,2.539-1.289,2.521,2.521,0,0,1,2.047.8,3.681,3.681,0,0,1,.672,2.41V0h-2.266V-5.391a1.61,1.61,0,0,0-.281-1.051,1.246,1.246,0,0,0-.992-.332A1.409,1.409,0,0,0,99.43-5.8L99.438,0H97.18V-5.383a1.59,1.59,0,0,0-.289-1.062,1.259,1.259,0,0,0-.984-.328,1.463,1.463,0,0,0-1.391.8V0H92.258V-8.453ZM105.758-4.3a5.013,5.013,0,0,1,.484-2.242,3.546,3.546,0,0,1,1.395-1.523,4.069,4.069,0,0,1,2.113-.539,3.849,3.849,0,0,1,2.793,1.047,4.2,4.2,0,0,1,1.207,2.844l.016.578A4.418,4.418,0,0,1,112.68-1.02,3.775,3.775,0,0,1,109.766.156a3.793,3.793,0,0,1-2.918-1.172,4.5,4.5,0,0,1-1.09-3.187Zm2.258.16a3.16,3.16,0,0,0,.453,1.843,1.5,1.5,0,0,0,1.3.638,1.5,1.5,0,0,0,1.281-.63,3.457,3.457,0,0,0,.461-2.015,3.128,3.128,0,0,0-.461-1.831,1.5,1.5,0,0,0-1.3-.649,1.474,1.474,0,0,0-1.281.646A3.516,3.516,0,0,0,108.016-4.144Z" transform="translate(1115.647 602.826)" fill="#12263f"/>
    <path id="Path_207549" data-name="Path 207549" d="M5,0H148a5,5,0,0,1,5,5V54a5,5,0,0,1-5,5H5a5,5,0,0,1-5-5V5A5,5,0,0,1,5,0Z" transform="translate(1095.999 390)" fill="#d9fafe"/>
    <path id="Path_207550" data-name="Path 207550" d="M1.016,0V-11.375h3.5A5.315,5.315,0,0,1,7.2-10.7,4.712,4.712,0,0,1,9.047-8.777a5.928,5.928,0,0,1,.664,2.832v.523A5.945,5.945,0,0,1,9.059-2.6,4.672,4.672,0,0,1,7.219-.687,5.355,5.355,0,0,1,4.539,0ZM3.359-9.477v7.594H4.492a2.545,2.545,0,0,0,2.1-.9,4.06,4.06,0,0,0,.742-2.57v-.6a4.124,4.124,0,0,0-.719-2.629,2.537,2.537,0,0,0-2.1-.895ZM15.156.156A4.15,4.15,0,0,1,12.129-.984a4.054,4.054,0,0,1-1.168-3.039v-.219a5.106,5.106,0,0,1,.492-2.277,3.612,3.612,0,0,1,1.395-1.547,3.914,3.914,0,0,1,2.059-.543,3.508,3.508,0,0,1,2.73,1.094,4.444,4.444,0,0,1,1,3.1v.922H13.25a2.1,2.1,0,0,0,.66,1.328,2,2,0,0,0,1.395.5,2.437,2.437,0,0,0,2.039-.945l1.109,1.242A3.389,3.389,0,0,1,17.078-.246,4.511,4.511,0,0,1,15.156.156ZM14.9-6.789a1.411,1.411,0,0,0-1.09.455,2.357,2.357,0,0,0-.535,1.3h3.141v-.181a1.681,1.681,0,0,0-.406-1.165A1.456,1.456,0,0,0,14.9-6.789ZM22.3,0H20.031V-12H22.3Zm4.242,0H24.273V-8.453h2.266Zm-2.4-10.641a1.112,1.112,0,0,1,.34-.836,1.277,1.277,0,0,1,.926-.328,1.28,1.28,0,0,1,.922.328,1.105,1.105,0,0,1,.344.836,1.108,1.108,0,0,1-.348.844,1.283,1.283,0,0,1-.918.328,1.283,1.283,0,0,1-.918-.328A1.108,1.108,0,0,1,24.141-10.641Zm6.961.109v2.078h1.445V-6.8H31.1v4.219a1.007,1.007,0,0,0,.18.672.9.9,0,0,0,.688.2,3.6,3.6,0,0,0,.664-.055V-.047a4.648,4.648,0,0,1-1.367.2,2.156,2.156,0,0,1-2.422-2.4V-6.8H27.609V-8.453h1.234v-2.078ZM33.219-4.3A5.013,5.013,0,0,1,33.7-6.547,3.546,3.546,0,0,1,35.1-8.07a4.069,4.069,0,0,1,2.113-.539A3.849,3.849,0,0,1,40-7.562a4.2,4.2,0,0,1,1.207,2.844l.016.578A4.418,4.418,0,0,1,40.141-1.02,3.775,3.775,0,0,1,37.227.156a3.793,3.793,0,0,1-2.918-1.172A4.5,4.5,0,0,1,33.219-4.2Zm2.258.16A3.16,3.16,0,0,0,35.93-2.3a1.5,1.5,0,0,0,1.3.638,1.5,1.5,0,0,0,1.281-.63,3.457,3.457,0,0,0,.461-2.015,3.128,3.128,0,0,0-.461-1.831,1.5,1.5,0,0,0-1.3-.649,1.474,1.474,0,0,0-1.281.646A3.516,3.516,0,0,0,35.477-4.144ZM47.2-2.336a.727.727,0,0,0-.41-.652,4.659,4.659,0,0,0-1.316-.426q-3.016-.633-3.016-2.562a2.323,2.323,0,0,1,.934-1.879,3.766,3.766,0,0,1,2.441-.754,4.053,4.053,0,0,1,2.574.758,2.388,2.388,0,0,1,.965,1.969H47.109a1.092,1.092,0,0,0-.312-.8A1.322,1.322,0,0,0,45.82-7a1.351,1.351,0,0,0-.883.258.814.814,0,0,0-.312.656.7.7,0,0,0,.355.605,3.657,3.657,0,0,0,1.2.4A9.8,9.8,0,0,1,47.6-4.7,2.336,2.336,0,0,1,49.391-2.43,2.2,2.2,0,0,1,48.4-.559a4.28,4.28,0,0,1-2.562.715,4.47,4.47,0,0,1-1.887-.379,3.166,3.166,0,0,1-1.293-1.039,2.414,2.414,0,0,1-.469-1.426h2.141a1.179,1.179,0,0,0,.445.922,1.766,1.766,0,0,0,1.109.32,1.635,1.635,0,0,0,.98-.246A.766.766,0,0,0,47.2-2.336Z" transform="translate(1146.999 424.826)" fill="#12263f"/>
    <path id="Path_207184" data-name="Path 207184" d="M-11992.689-9039.2v50.019h-101v49.807" transform="translate(12893.69 9577.202)" fill="none" stroke="#707070" stroke-width="2"/>
    <path id="Path_207551" data-name="Path 207551" d="M0,0H123.167" transform="translate(972.333 508.326)" fill="none" stroke="#707070" stroke-width="2"/>
    <path id="Path_207185" data-name="Path 207185" d="M-11663.33-9156.067h-61.5v177.917h61.5" transform="translate(12758.998 9575.65)" fill="none" stroke="#707070" stroke-width="2"/>
  </g>
</svg>
